<?xml version="1.0" encoding="iso-8859-1"?>
<!-- Generator: Adobe Illustrator 19.0.0, SVG Export Plug-In . SVG Version: 6.00 Build 0)  -->
<svg version="1.1" id="Capa_1" xmlns="http://www.w3.org/2000/svg" xmlns:xlink="http://www.w3.org/1999/xlink" x="0px" y="0px"
	 viewBox="0 0 512 512" style="enable-background:new 0 0 512 512;" xml:space="preserve">
<g>
	<g>
		<path style="fill:#FFA800;" d="M409.601,98.645v-0.512c0-49.493-59.226-89.6-132.267-89.6s-132.267,40.107-132.267,89.6v0.512
			H409.601z"/>
		<path style="fill:#FFFFFF;" d="M366.935,98.645v-0.512c0-49.493-59.226-89.6-132.267-89.6s-132.267,40.107-132.267,89.6v0.512
			H366.935z"/>
		<path style="fill:#FEDD0A;" d="M375.468,98.645v-0.512c0-49.493-53.495-89.6-119.467-89.6s-119.467,40.107-119.467,89.6v0.512
			H375.468z"/>
	</g>
	<path style="fill:#FFA800;" d="M426.747,334.592c31.998-28.814,50.526-69.67,51.121-112.725
		c0-91.733-86.804-166.571-195.742-170.411c-2.993-0.171-5.986-0.256-9.058-0.256c-3.072,0-6.065,0.085-9.058,0.256
		c-108.938,3.84-195.742,78.677-195.742,170.411c0.595,43.055,19.123,83.911,51.121,112.725H426.747z"/>
	<path style="fill:#FFFFFF;" d="M392.614,334.592c31.998-28.814,50.526-69.67,51.121-112.725
		c0-91.733-86.804-166.571-195.742-170.411c-2.993-0.171-5.986-0.256-9.058-0.256s-6.065,0.085-9.058,0.256
		c-108.938,3.84-195.742,78.677-195.742,170.411c0.595,43.055,19.123,83.911,51.121,112.725H392.614z"/>
	<path style="fill:#FEDD0A;" d="M403.277,334.592c30.916-29.394,48.593-70.068,48.991-112.725
		c0-91.733-83.187-166.571-187.586-170.411c-2.869-0.171-5.737-0.256-8.681-0.256c-2.944,0-5.812,0.085-8.681,0.256
		c-104.399,3.84-187.586,78.677-187.586,170.411c0.398,42.658,18.075,83.331,48.991,112.725H403.277z"/>
	<g>
		<g>
			<path style="fill:#FFA800;" d="M425.304,346.795c3.242,20.48-1.025,42.069-19.627,55.552
				c-14.009,9.579-27.17,20.342-39.34,32.171c-4.221,4.391-8.101,9.098-11.604,14.08l-21.932-21.93l-2.389-0.597
				c-3.223,4.255-7.61,7.485-12.629,9.301c-19.916,6.51-40.851,9.344-61.781,8.363c-4.011,0-8.021-0.085-11.861-0.256
				c-30.378-0.939-54.955-5.973-62.549-17.408l-2.389,0.597l-8.704,8.704l-13.227,13.227c-3.215-4.62-6.781-8.985-10.667-13.056
				c-0.289-0.362-0.602-0.704-0.937-1.024c-12.169-11.829-25.331-22.592-39.34-32.171c-18.603-13.483-22.869-35.072-19.627-55.552
				c2.561-16.896,11.606-32.512,13.313-49.493c0.741-10.059,0.283-20.171-1.365-30.123v-0.085
				c-2.476-7.047-3.997-14.394-4.523-21.845c-8.339-16.345-12.807-34.389-13.057-52.736c0.023-19.192,4.74-38.088,13.739-55.04
				c9.313-17.348,22.058-32.62,37.461-44.885c16.646-13.252,35.473-23.503,55.637-30.293c18.153-6.183,37.081-9.802,56.235-10.752
				c3.926-0.256,7.851-0.341,11.861-0.341c23.155-0.078,46.163,3.67,68.096,11.093c20.164,6.791,38.991,17.042,55.637,30.293
				c15.403,12.265,28.149,27.537,37.461,44.885c8.999,16.952,13.715,35.848,13.739,55.04c-0.146,17.881-4.409,35.488-12.459,51.456
				c-0.505,8.643-2.318,17.159-5.377,25.259c-1.52,9.277-1.892,18.706-1.108,28.075
				C413.697,314.283,422.743,329.899,425.304,346.795z"/>
			<path style="fill:#FFA800;" d="M354.733,448.597c-6.571,9.472-12.033,19.456-18.689,29.184
				c-16.981,24.747-50.774,25.685-80.043,25.685c-22.613,0-47.872-0.597-66.048-12.288c-5.538-3.455-10.302-8.016-13.995-13.397
				c-6.655-9.728-12.117-19.712-18.689-29.184l21.931-21.931l2.389-0.597c1.238,1.856,2.798,3.474,4.608,4.779
				c12.117,9.301,38.827,12.885,69.803,12.885c30.379,0,56.747-3.499,69.205-12.459c2.041-1.4,3.806-3.164,5.205-5.205l2.389,0.597
				L354.733,448.597z"/>
		</g>
		<g>
			<path style="fill:#FEDD0A;" d="M333.996,440.064c-6.571,9.472-12.032,19.456-18.689,29.184
				c-16.981,24.747-50.773,25.685-80.042,25.685c-15.199,0.508-30.405-0.752-45.313-3.755c-5.538-3.455-10.302-8.016-13.995-13.397
				c-6.655-9.728-12.117-19.712-18.689-29.184l20.225-20.224c2.645,0.939,5.631,1.707,8.704,2.475
				c12.117,9.301,38.827,12.885,69.803,12.885c30.379,0,56.747-3.499,69.205-12.459L333.996,440.064z"/>
			<path style="fill:#FEDD0A;" d="M401.581,346.795c3.242,20.48-1.025,42.069-19.627,55.552
				c-14.009,9.579-27.17,20.342-39.339,32.171c-0.336,0.32-0.649,0.662-0.939,1.024l-8.875-8.874l-2.389-0.597
				c-3.223,4.255-7.61,7.485-12.629,9.301c-19.916,6.51-40.851,9.344-61.781,8.363c-4.011,0-8.021-0.085-11.861-0.256
				c-30.378-0.939-54.955-5.973-62.549-17.408l-2.389,0.597l-8.704,8.704l-13.227,13.227c-3.215-4.62-6.781-8.985-10.667-13.056
				c-0.289-0.362-0.602-0.704-0.937-1.024c-12.169-11.829-25.331-22.592-39.34-32.171c-18.603-13.483-22.869-35.072-19.627-55.552
				c2.561-16.896,11.606-32.512,13.313-49.493c0.741-10.059,0.283-20.171-1.365-30.123v-0.085
				c-2.476-7.047-3.997-14.394-4.523-21.845c-8.339-16.345-12.807-34.389-13.057-52.736c0.023-19.192,4.74-38.088,13.739-55.04
				c9.313-17.348,22.058-32.62,37.461-44.885c16.646-13.252,35.473-23.503,55.637-30.293c18.153-6.183,37.081-9.802,56.235-10.752
				c19.154,0.95,38.081,4.569,56.235,10.752c20.164,6.79,38.991,17.041,55.637,30.293c15.404,12.265,28.149,27.537,37.461,44.885
				c8.999,16.952,13.716,35.848,13.739,55.04c-0.146,17.881-4.409,35.488-12.459,51.456c-0.505,8.643-2.318,17.159-5.376,25.259
				c-1.52,9.277-1.893,18.706-1.109,28.075C389.975,314.283,399.02,329.899,401.581,346.795z"/>
		</g>
		<g>
			<path d="M256.001,512c-26.642,0-66.908,0-87.075-29.388c-3.2-4.696-6.125-9.421-9.025-14.125
				c-5.694-10.071-12.512-19.463-20.325-27.996c-11.837-11.465-24.624-21.907-38.225-31.213
				C82.143,395.358,73.96,372.7,78.277,345.462c1.522-8.423,3.806-16.69,6.825-24.7c3.057-7.835,5.21-15.993,6.417-24.317
				c0.695-9.363,0.253-18.776-1.317-28.033c-0.06-0.408-0.09-0.821-0.092-1.233c-0.021-4.565,3.553-8.338,8.112-8.564
				c4.559-0.226,8.489,3.174,8.921,7.718c1.736,10.494,2.195,21.159,1.367,31.763c-1.315,9.658-3.754,19.129-7.267,28.221
				c-2.683,7.056-4.727,14.337-6.108,21.758c-1.892,11.967-2.292,33.954,16.2,47.362c14.4,9.861,27.927,20.939,40.433,33.113
				c8.709,9.428,16.311,19.82,22.658,30.975c2.767,4.483,5.55,8.996,8.583,13.45c13.916,20.279,42.466,21.958,72.991,21.958
				s59.075-1.679,73.008-21.979c3.017-4.433,5.8-8.946,8.567-13.429c6.35-11.158,13.955-21.553,22.667-30.983
				c12.514-12.179,26.05-23.263,40.458-33.129c18.458-13.383,18.058-35.371,16.175-47.283c-1.381-7.439-3.428-14.74-6.117-21.812
				c-3.507-9.073-5.943-18.525-7.258-28.162c-0.875-10.066-0.486-20.202,1.158-30.171c0.444-3.016,2.462-5.566,5.296-6.69
				c2.834-1.124,6.052-0.651,8.442,1.242c2.39,1.892,3.589,4.916,3.146,7.931c-1.429,8.584-1.785,17.312-1.058,25.983
				c1.208,8.322,3.361,16.479,6.417,24.313c3.024,8.027,5.312,16.312,6.833,24.754c4.308,27.183-3.875,49.842-23.05,63.738
				c-13.609,9.311-26.405,19.758-38.25,31.229c-7.816,8.535-14.638,17.93-20.333,28.004c-2.9,4.704-5.825,9.429-9.008,14.104
				C322.91,512,282.643,512,256.001,512z"/>
			<path d="M94.135,253.783c-3.282,0.001-6.274-1.877-7.7-4.833c-8.883-17.504-13.637-36.81-13.9-56.437
				c0.003-20.577,5.057-40.839,14.717-59.008c9.837-18.384,23.327-34.563,39.642-47.546c17.416-13.893,37.127-24.633,58.242-31.738
				c46-15.333,95.733-15.333,141.733,0c21.109,7.101,40.814,17.838,58.225,31.725c16.322,12.985,29.818,29.169,39.658,47.558
				c9.66,18.169,14.713,38.431,14.717,59.009c-0.125,19.189-4.689,38.089-13.333,55.221c-1.341,2.745-4.046,4.563-7.094,4.769
				s-5.973-1.233-7.67-3.773c-1.697-2.539-1.908-5.793-0.553-8.53c7.485-14.791,11.45-31.111,11.583-47.688
				c-0.01-17.813-4.394-35.352-12.767-51.075c-8.757-16.331-20.761-30.699-35.275-42.22c-15.858-12.636-33.803-22.401-53.025-28.854
				c-42.413-14.108-88.254-14.108-130.667,0c-19.228,6.456-37.179,16.226-53.042,28.867c-14.507,11.519-26.505,25.883-35.258,42.208
				c-8.373,15.723-12.757,33.261-12.767,51.075c0.224,17.071,4.406,33.857,12.217,49.037c1.269,2.643,1.093,5.753-0.467,8.236
				C99.792,252.27,97.067,253.779,94.135,253.783z"/>
			<path d="M238.935,512c-4.713,0-8.533-3.82-8.533-8.533c0-4.713,3.821-8.533,8.533-8.533c4.711-0.005,8.529-3.822,8.533-8.533
				v-8.533c0-4.713,3.821-8.533,8.533-8.533c4.713,0,8.533,3.821,8.533,8.533v8.533C264.519,500.532,253.067,511.985,238.935,512
				L238.935,512z"/>
			<path d="M273.068,512c-14.132-0.015-25.585-11.468-25.6-25.6v-8.533c0-4.713,3.821-8.533,8.533-8.533
				c4.713,0,8.533,3.821,8.533,8.533v8.533c0.005,4.711,3.822,8.529,8.533,8.533c4.713,0,8.533,3.821,8.533,8.533
				C281.601,508.18,277.781,512,273.068,512z"/>
			<path d="M118.86,307.808c-2.264,0.003-4.435-0.897-6.033-2.5c-36.523-36.681-36.459-96.005,0.143-132.607
				s95.926-36.666,132.607-0.143c3.332,3.332,3.332,8.735,0,12.067c-3.332,3.332-8.735,3.332-12.067,0
				c-29.994-29.994-78.623-29.994-108.617,0s-29.994,78.623,0,108.617c2.44,2.44,3.169,6.11,1.849,9.298
				C125.422,305.728,122.311,307.807,118.86,307.808L118.86,307.808z"/>
		</g>
		<g>
			<circle style="fill:#FFA800;" cx="179.201" cy="238.933" r="51.2"/>
			<circle style="fill:#FFA800;" cx="333.399" cy="238.933" r="51.2"/>
		</g>
	</g>
	<g>
		<path style="fill:#DB4E6C;" d="M122.391,348.507l25.364-22.135c1.844-1.609,4.291-2.349,6.717-2.032
			c2.427,0.317,4.601,1.662,5.969,3.691l13.665,20.27c1.29,1.88,1.773,4.198,1.343,6.437c-0.43,2.239-1.738,4.213-3.632,5.482
			c-6.056,3.703-11.076,8.878-14.593,15.043c-1.208,2.134-3.28,3.641-5.682,4.131c-2.402,0.491-4.899-0.082-6.847-1.572
			l-21.754-16.015c-2.084-1.535-3.36-3.932-3.467-6.518C119.368,352.704,120.44,350.209,122.391,348.507L122.391,348.507z"/>
		<path style="fill:#DB4E6C;" d="M389.612,348.507l-25.364-22.135c-1.844-1.609-4.291-2.349-6.717-2.032
			c-2.427,0.317-4.601,1.662-5.969,3.691l-13.665,20.27c-1.29,1.88-1.773,4.198-1.343,6.437c0.43,2.239,1.737,4.213,3.632,5.482
			c6.056,3.703,11.076,8.878,14.593,15.043c1.208,2.134,3.28,3.641,5.682,4.131c2.402,0.491,4.899-0.082,6.847-1.572l21.754-16.015
			c2.084-1.535,3.36-3.932,3.467-6.518C392.635,352.704,391.562,350.209,389.612,348.507z"/>
		<path style="fill:#DB4E6C;" d="M145.068,128c0,0,59.733-42.667,93.867-34.133v42.667C238.935,136.533,213.335,119.467,145.068,128
			z"/>
		<path style="fill:#DB4E6C;" d="M366.935,128c0,0-59.733-42.667-93.867-34.133v42.667C273.068,136.533,298.668,119.467,366.935,128
			z"/>
	</g>
	<g>
		<g>
			<ellipse style="fill:#FEDD0A;" cx="166.401" cy="238.933" rx="38.4" ry="51.2"/>
			<ellipse style="fill:#FEDD0A;" cx="320.309" cy="238.933" rx="38.707" ry="51.2"/>
		</g>
		<path d="M179.201,298.667c-32.99,0-59.733-26.744-59.733-59.733s26.744-59.733,59.733-59.733s59.733,26.744,59.733,59.733
			C238.896,271.907,212.175,298.628,179.201,298.667L179.201,298.667z M179.201,196.267c-23.564,0-42.667,19.103-42.667,42.667
			s19.103,42.667,42.667,42.667s42.667-19.103,42.667-42.667C221.84,215.381,202.754,196.294,179.201,196.267L179.201,196.267z"/>
		<g>
			<circle style="fill:#55C9FC;" cx="179.201" cy="238.933" r="17.067"/>
			<circle style="fill:#55C9FC;" cx="333.399" cy="238.933" r="17.067"/>
		</g>
		<g>
			<path d="M179.201,264.533c-14.138,0-25.6-11.462-25.6-25.6c0-14.139,11.462-25.6,25.6-25.6c14.139,0,25.6,11.462,25.6,25.6
				C204.786,253.065,193.334,264.518,179.201,264.533L179.201,264.533z M179.201,230.4c-4.713,0-8.533,3.821-8.533,8.533
				c0,4.713,3.821,8.533,8.533,8.533c4.713,0,8.533-3.821,8.533-8.533C187.73,234.222,183.912,230.405,179.201,230.4L179.201,230.4z
				"/>
			<path d="M179.201,230.4c-2.263,0.001-4.434-0.898-6.035-2.499c-1.6-1.6-2.499-3.771-2.499-6.035v-34.133
				c0-4.713,3.821-8.533,8.533-8.533c4.713,0,8.533,3.821,8.533,8.533v34.133c0.001,2.263-0.898,4.434-2.499,6.035
				C183.636,229.502,181.465,230.401,179.201,230.4L179.201,230.4z"/>
			<path d="M179.201,298.667c-2.263,0.001-4.434-0.898-6.035-2.499c-1.6-1.6-2.499-3.771-2.499-6.035V256
				c0-4.713,3.821-8.533,8.533-8.533c4.713,0,8.533,3.821,8.533,8.533v34.133c0.001,2.263-0.898,4.434-2.499,6.035
				C183.636,297.768,181.465,298.667,179.201,298.667L179.201,298.667z"/>
			<path d="M162.135,247.467h-34.133c-4.713,0-8.533-3.821-8.533-8.533c0-4.713,3.821-8.533,8.533-8.533h34.133
				c4.713,0,8.533,3.821,8.533,8.533C170.668,243.646,166.848,247.467,162.135,247.467z"/>
			<path d="M230.401,247.467h-34.133c-4.713,0-8.533-3.821-8.533-8.533c0-4.713,3.821-8.533,8.533-8.533h34.133
				c4.713,0,8.533,3.821,8.533,8.533C238.935,243.646,235.114,247.467,230.401,247.467z"/>
			<path d="M393.751,307.808c-3.451-0.001-6.562-2.08-7.882-5.268c-1.32-3.188-0.591-6.858,1.849-9.298
				c19.403-19.403,26.98-47.682,19.878-74.187s-27.804-47.207-54.309-54.308c-26.504-7.102-54.784,0.476-74.187,19.878
				c-3.338,3.296-8.711,3.279-12.029-0.038s-3.334-8.691-0.038-12.029c23.7-23.779,58.296-33.089,90.73-24.418
				s57.767,34.005,66.438,66.438c8.671,32.434-0.639,67.029-24.418,90.729C398.186,306.911,396.015,307.811,393.751,307.808
				L393.751,307.808z"/>
			<path d="M333.41,298.667c-24.16,0-45.941-14.554-55.186-36.874c-9.246-22.321-4.135-48.013,12.949-65.097
				s42.776-22.194,65.097-12.949c22.321,9.246,36.874,31.027,36.874,55.186C393.105,271.907,366.384,298.628,333.41,298.667
				L333.41,298.667z M333.41,196.267c-23.564,0-42.667,19.103-42.667,42.667S309.846,281.6,333.41,281.6
				s42.667-19.103,42.667-42.667C376.049,215.381,356.962,196.294,333.41,196.267L333.41,196.267z"/>
			<path d="M333.41,264.533c-14.138,0-25.6-11.462-25.6-25.6c0-14.139,11.462-25.6,25.6-25.6s25.6,11.462,25.6,25.6
				C358.994,253.065,347.542,264.518,333.41,264.533L333.41,264.533z M333.41,230.4c-4.713,0-8.533,3.821-8.533,8.533
				c0,4.713,3.821,8.533,8.533,8.533s8.533-3.821,8.533-8.533C341.938,234.222,338.121,230.405,333.41,230.4L333.41,230.4z"/>
			<path d="M333.41,230.4c-2.263,0.001-4.434-0.898-6.035-2.499c-1.6-1.6-2.499-3.771-2.499-6.035v-34.133
				c0-4.713,3.821-8.533,8.533-8.533s8.533,3.821,8.533,8.533v34.133c0.001,2.263-0.898,4.434-2.499,6.035
				C337.844,229.502,335.673,230.401,333.41,230.4z"/>
			<path d="M333.41,298.667c-2.263,0.001-4.434-0.898-6.035-2.499c-1.6-1.6-2.499-3.771-2.499-6.035V256
				c0-4.713,3.821-8.533,8.533-8.533s8.533,3.821,8.533,8.533v34.133c0.001,2.263-0.898,4.434-2.499,6.035
				C337.844,297.768,335.673,298.667,333.41,298.667z"/>
			<path d="M384.61,247.467h-34.133c-4.713,0-8.533-3.821-8.533-8.533c0-4.713,3.82-8.533,8.533-8.533h34.133
				c4.713,0,8.533,3.821,8.533,8.533C393.143,243.646,389.323,247.467,384.61,247.467z"/>
			<path d="M316.343,247.467H282.21c-4.713,0-8.533-3.821-8.533-8.533c0-4.713,3.82-8.533,8.533-8.533h34.133
				c4.713,0,8.533,3.821,8.533,8.533C324.876,243.646,321.056,247.467,316.343,247.467z"/>
		</g>
	</g>
	<path style="fill:#FFA800;" d="M248.177,342.095c5.277-2.211,11.221-2.211,16.498,0c6.788,2.878,14.545,2.321,20.852-1.496
		c7.275-5.021,7.275-15.063,0-25.104c-4.796-6.727-10.348-12.88-16.549-18.339c-7.313-5.944-17.792-5.944-25.105,0
		c-6.201,5.459-11.753,11.612-16.549,18.339c-7.275,10.042-7.275,20.084,0,25.104C233.632,344.417,241.389,344.973,248.177,342.095
		L248.177,342.095z"/>
	<path d="M273.835,352.442c-4.288,0.012-8.536-0.836-12.492-2.492c-3.147-1.308-6.686-1.308-9.833,0l0,0
		c-9.473,4.038-20.325,3.167-29.033-2.329c-4.705-3.178-7.891-8.155-8.808-13.758c-0.969-8.381,1.462-16.801,6.75-23.375
		c5.157-7.25,11.139-13.877,17.825-19.746c10.522-8.808,25.845-8.808,36.367,0c6.754,5.933,12.789,12.637,17.983,19.975
		c5.199,6.526,7.572,14.86,6.592,23.146c-0.918,5.604-4.104,10.582-8.808,13.762C285.469,350.849,279.706,352.527,273.835,352.442
		L273.835,352.442z M256.426,331.896c3.979-0.003,7.919,0.795,11.583,2.346c4.101,1.728,8.768,1.484,12.667-0.663
		c0.916-0.58,1.534-1.531,1.692-2.604c0.079-3.832-1.256-7.56-3.75-10.471c-4.429-6.21-9.554-11.892-15.275-16.937
		c-4.081-3.126-9.751-3.128-13.833-0.004c-5.653,4.983-10.724,10.59-15.117,16.713c-2.575,2.964-3.967,6.774-3.908,10.7
		c0.157,1.072,0.775,2.022,1.692,2.6c3.894,2.161,8.567,2.407,12.667,0.667l0,0C248.508,332.69,252.447,331.892,256.426,331.896
		L256.426,331.896z"/>
	<path style="fill:#FFA800;" d="M332.801,418.133c0,18.851-34.385,25.6-76.8,25.6s-76.8-6.749-76.8-25.6
		c0-18.851,34.385-42.667,76.8-42.667S332.801,399.282,332.801,418.133z"/>
	<path style="fill:#FEDD0A;" d="M307.201,418.133c0,18.851-28.654,25.6-64,25.6s-64-6.749-64-25.6c0-18.851,28.654-42.667,64-42.667
		S307.201,399.282,307.201,418.133z"/>
	<g>
		<path d="M256.001,452.267c-56.625,0-85.333-11.483-85.333-34.133c0-26.317,41.467-51.2,85.333-51.2s85.333,24.883,85.333,51.2
			C341.335,440.783,312.626,452.267,256.001,452.267z M256.001,384c-40.117,0-68.267,22.146-68.267,34.133
			c0,8.496,21.108,17.067,68.267,17.067s68.267-8.571,68.267-17.067C324.268,406.146,296.118,384,256.001,384z"/>
		<path d="M238.935,418.133h-8.533c-4.713,0-8.533-3.821-8.533-8.533c0-4.713,3.821-8.533,8.533-8.533h8.533
			c4.713,0,8.533,3.821,8.533,8.533C247.468,414.313,243.648,418.133,238.935,418.133z"/>
		<path d="M281.601,418.133h-8.533c-4.713,0-8.533-3.821-8.533-8.533c0-4.713,3.82-8.533,8.533-8.533h8.533
			c4.713,0,8.533,3.821,8.533,8.533C290.135,414.313,286.314,418.133,281.601,418.133z"/>
		<path d="M149.926,388.075c-3.701,0.004-7.305-1.179-10.283-3.375l-21.758-16.021c-4.169-3.069-6.72-7.865-6.933-13.038
			c-0.214-5.173,1.932-10.163,5.833-13.566l25.358-22.133c3.689-3.219,8.582-4.7,13.437-4.064c4.855,0.635,9.202,3.325,11.938,7.385
			l13.667,20.267c2.574,3.839,3.507,8.548,2.592,13.079c-0.878,4.434-3.519,8.321-7.317,10.771
			c-4.801,2.911-8.807,6.967-11.658,11.804c-2.223,4.275-6.211,7.359-10.908,8.433C152.593,387.921,151.262,388.075,149.926,388.075
			L149.926,388.075z M153.368,332.8l-25.367,22.138v0.004l-0.017,0.012l21.767,16c4.252-7.304,10.236-13.449,17.425-17.892
			L153.368,332.8z"/>
		<path d="M362.076,388.075c-1.335,0-2.666-0.153-3.967-0.458c-4.699-1.077-8.69-4.161-10.917-8.438
			c-2.847-4.837-6.85-8.891-11.65-11.8c-3.798-2.45-6.439-6.337-7.317-10.771c-0.914-4.528,0.015-9.235,2.583-13.075l13.675-20.275
			c2.738-4.058,7.085-6.746,11.939-7.381s9.746,0.843,13.436,4.06l25.358,22.138c3.901,3.404,6.047,8.395,5.833,13.568
			s-2.764,9.97-6.933,13.04l-21.75,16.012C369.386,386.892,365.78,388.076,362.076,388.075L362.076,388.075z M358.643,332.8
			l-13.675,20.271c7.219,4.556,13.192,10.834,17.383,18.271l21.65-16.404l0,0L358.643,332.8z"/>
		<path d="M238.935,145.067c-1.685,0.002-3.333-0.497-4.733-1.434c-0.15-0.092-24.775-15.067-88.075-7.167
			c-3.877,0.485-7.588-1.724-9.009-5.364c-1.421-3.64-0.188-7.779,2.992-10.049c6.442-4.604,64.017-44.704,100.892-35.467
			c3.8,0.949,6.466,4.363,6.467,8.279v42.667c0,2.263-0.899,4.434-2.499,6.034S241.198,145.067,238.935,145.067z M180.793,117.1
			c16.776-0.368,33.509,1.852,49.608,6.583v-22.409c-14.875-0.538-34.183,7.192-50.842,15.825L180.793,117.1z"/>
		<path d="M273.068,145.067c-2.263,0-4.434-0.899-6.034-2.499c-1.6-1.6-2.499-3.771-2.499-6.034V93.867
			c0.001-3.917,2.667-7.33,6.467-8.279c36.858-9.242,94.45,30.863,100.892,35.467c3.18,2.27,4.413,6.409,2.992,10.049
			c-1.421,3.64-5.132,5.849-9.009,5.364c-63.358-7.921-87.842,7.017-88.075,7.167C276.4,144.568,274.753,145.067,273.068,145.067
			L273.068,145.067z M281.601,101.279v22.409c16.488-4.85,33.637-7.074,50.817-6.588
			C315.76,108.471,296.351,100.775,281.601,101.279L281.601,101.279z"/>
		<path d="M89.518,343.125c-2.058,0.004-4.048-0.74-5.6-2.092c-25.784-21.604-44.462-50.473-53.6-82.846
			c-1.152-4.537,1.566-9.154,6.092-10.35c4.525-1.195,9.169,1.478,10.408,5.991c8.273,29.061,25.103,54.958,48.3,74.321
			c2.686,2.336,3.64,6.095,2.393,9.43C96.264,340.914,93.078,343.125,89.518,343.125L89.518,343.125z"/>
		<path d="M422.485,343.125c-3.56-0.001-6.746-2.211-7.993-5.546s-0.293-7.093,2.393-9.429
			c33.825-29.384,52.45-67.129,52.45-106.284c0-87.054-89.517-158.163-203.792-161.883c-6.298-0.336-12.61-0.339-18.908-0.009
			C148.251,63.183,66.16,116.608,46.818,189.908c-0.775,2.95-3.065,5.263-6.008,6.065c-2.943,0.802-6.09-0.027-8.255-2.176
			c-2.165-2.149-3.018-5.29-2.237-8.239c21.25-80.537,109.9-139.192,215.592-142.633c6.782-0.347,13.577-0.344,20.358,0.009
			c123.367,4.012,220.133,82.612,220.133,178.933c0,44.175-20.708,86.496-58.317,119.167
			C426.533,342.385,424.543,343.129,422.485,343.125z"/>
		<path d="M34.135,230.4c-0.573-0.016-1.144-0.073-1.708-0.171c-0.533-0.095-1.05-0.268-1.533-0.512
			c-0.546-0.187-1.064-0.447-1.542-0.771c-0.425-0.338-0.85-0.679-1.275-1.021c-0.771-0.816-1.379-1.772-1.792-2.817
			c-0.48-1.012-0.714-2.123-0.683-3.242c0.03-2.26,0.914-4.424,2.475-6.059c2.007-2.012,4.892-2.879,7.675-2.304
			c0.566,0.079,1.115,0.25,1.625,0.508c0.543,0.188,1.059,0.447,1.533,0.771c0.449,0.315,0.878,0.657,1.284,1.025
			c0.772,0.814,1.38,1.769,1.792,2.813c0.911,2.067,0.911,4.421,0,6.487c-0.413,1.044-1.021,2-1.792,2.817
			c-0.425,0.341-0.858,0.683-1.283,1.021c-0.475,0.324-0.99,0.583-1.533,0.771c-0.51,0.257-1.059,0.431-1.625,0.513
			C35.218,230.327,34.677,230.384,34.135,230.4L34.135,230.4z"/>
		<path d="M409.601,106.925c-2.236,0.058-4.402-0.787-6.008-2.345c-1.606-1.558-2.516-3.697-2.526-5.934v-0.513
			c0-43.942-66.433-81.067-145.067-81.067S110.935,54.192,110.935,98.133c0.021,4.764-3.771,8.671-8.533,8.792
			c-2.236,0.058-4.402-0.787-6.008-2.345c-1.606-1.558-2.516-3.697-2.526-5.934C93.868,43.104,165.085,0,256.001,0
			s162.133,43.104,162.133,98.133C418.156,102.898,414.364,106.804,409.601,106.925L409.601,106.925z"/>
		<path d="M157.268,457.129c-3.451-0.001-6.562-2.08-7.882-5.268c-1.32-3.188-0.591-6.858,1.849-9.298l21.933-21.929
			c3.341-3.281,8.701-3.256,12.012,0.054c3.311,3.311,3.335,8.671,0.054,12.012l-21.933,21.929
			C161.703,456.232,159.532,457.132,157.268,457.129L157.268,457.129z"/>
		<path d="M354.735,457.129c-2.264,0.003-4.435-0.897-6.033-2.5L326.768,432.7c-3.281-3.341-3.256-8.701,0.054-12.012
			c3.311-3.311,8.671-3.335,12.012-0.054l21.933,21.929c2.44,2.44,3.169,6.11,1.849,9.298
			C361.296,455.049,358.186,457.128,354.735,457.129L354.735,457.129z"/>
	</g>
</g>
<g>
</g>
<g>
</g>
<g>
</g>
<g>
</g>
<g>
</g>
<g>
</g>
<g>
</g>
<g>
</g>
<g>
</g>
<g>
</g>
<g>
</g>
<g>
</g>
<g>
</g>
<g>
</g>
<g>
</g>
</svg>
