<?xml version="1.0" encoding="iso-8859-1"?>
<!-- Generator: Adobe Illustrator 19.0.0, SVG Export Plug-In . SVG Version: 6.00 Build 0)  -->
<svg version="1.1" id="Capa_1" xmlns="http://www.w3.org/2000/svg" xmlns:xlink="http://www.w3.org/1999/xlink" x="0px" y="0px"
	 viewBox="0 0 511.996 511.996" style="enable-background:new 0 0 511.996 511.996;" xml:space="preserve">
<g>
	<path style="fill:#FFA800;" d="M420.576,343.381c10.956-22.699,6.69-48.299,6.523-61.013V281.6c0-17.067,8.781-68.267,8.781-68.267
		v-25.6c0-37.717-78.609-68.267-175.616-68.267c-4.181,0-8.446,0.085-12.544,0.171c-91.153,2.475-163.072,32-163.072,68.096v25.6
		c0,0,8.781,51.2,8.781,68.267c0,12.459-4.684,38.656,6.523,61.781c-12.833-19.064-23.439-39.535-31.611-61.013
		c-10.867-27.43-16.675-56.601-17.143-86.101c0-104.448,86.888-181.931,196.523-187.392c4.181-0.256,8.363-0.341,12.544-0.341
		c115.489,0,209.067,79.36,209.067,187.733C467.555,248.971,450.628,300.048,420.576,343.381z"/>
	<path style="fill:#FFFFFF;" d="M68.265,196.267c0.485,29.505,6.415,58.666,17.493,86.016v0.085
		c-0.171,12.715-4.523,38.315,6.656,61.013c-13.073-19.023-23.898-39.497-32.256-61.013c-11.078-27.38-17.009-56.569-17.493-86.101
		c0-104.448,88.661-181.931,200.533-187.392c4.267,0.171,8.619,0.512,12.8,0.939C150.27,20.309,68.265,95.829,68.265,196.267z"/>
	<path style="fill:#FEDD0A;" d="M435.198,213.333v-25.6c0-36.096-73.387-65.621-166.4-68.096h-0.513
		c-4.01-0.085-8.191-0.171-12.287-0.171c-4.267,0-8.619,0.085-12.8,0.171c-93.013,2.475-166.4,32-166.4,68.096v25.6
		c4.125,22.592,7.115,45.376,8.96,68.267v0.683c-11.078-27.35-17.008-56.511-17.493-86.016
		c0-100.437,82.005-175.957,187.733-186.453c90.709,9.045,163.84,65.792,182.869,145.152c3.243,13.527,4.876,27.391,4.865,41.301
		c-0.485,29.532-6.415,58.721-17.493,86.101V281.6C428.083,258.709,431.073,235.925,435.198,213.333z"/>
	<path style="fill:#FFA800;" d="M435.198,213.333c-4.125,22.592-7.115,45.376-8.96,68.267c0,17.067,8.96,59.733-26.879,85.333
		c-35.839,25.6-71.681,102.4-143.361,102.4c-4.281,0.019-8.559-0.266-12.8-0.853c-63.231-8.363-96.939-77.483-130.56-101.547
		c-35.84-25.6-26.88-68.267-26.88-85.333c-1.845-22.891-4.835-45.675-8.96-68.267v-25.6c0-36.096,73.387-65.621,166.4-68.096
		c4.181-0.085,8.533-0.171,12.8-0.171c98.987,0,179.2,30.549,179.2,68.267V213.333z"/>
	<path style="fill:#FFFFFF;" d="M255.998,465.92c-4.206,1.131-8.482,1.987-12.8,2.56c-63.231-8.363-96.939-77.483-130.56-101.547
		c-35.84-25.6-26.88-68.267-26.88-85.333c-1.845-22.891-4.835-45.675-8.96-68.267v-25.6c0-36.096,73.387-65.621,166.4-68.096
		c4.352,0.085,8.619,0.256,12.8,0.512c-86.869,4.693-153.6,33.195-153.6,67.584v25.6c4.125,22.592,7.115,45.376,8.96,68.267
		c0,17.067-8.96,59.733,26.879,85.333C169.47,389.291,200.873,450.645,255.998,465.92z"/>
	<path style="fill:#FEDD0A;" d="M409.598,213.333c-4.125,22.592-7.115,45.376-8.96,68.267c0,17.067,8.96,59.733-26.879,85.333
		c-31.233,22.357-62.636,83.712-117.761,98.987c-55.125-15.275-86.528-76.629-117.76-98.987c-35.84-25.6-26.88-68.267-26.88-85.333
		c-1.845-22.891-4.835-45.675-8.96-68.267v-25.6c0-34.389,66.731-62.891,153.6-67.584c86.869,4.693,153.6,33.195,153.6,67.584
		V213.333z"/>
	<path style="fill:#FC7308;" d="M316.158,364.203l-0.427,1.024c-3.663,30.209-29.303,52.928-59.733,52.928
		s-56.07-22.719-59.733-52.928l-0.427-1.024c4.403-1.667,8.167-4.684,10.752-8.619c3.515-5.009,8.203-9.081,13.654-11.861
		c6.519-3.231,14.186-3.168,20.65,0.171c4.693,2.38,9.846,3.719,15.104,3.925c5.259-0.206,10.411-1.545,15.104-3.925
		c2.788-1.344,5.793-2.182,8.875-2.475c4.062-0.332,8.137,0.466,11.775,2.304c5.451,2.78,10.139,6.853,13.654,11.861
		C307.991,359.519,311.755,362.536,316.158,364.203z"/>
	<g>
		<path style="fill:#FFA800;" d="M290.558,356.693c-3.674,30.2-29.311,52.907-59.733,52.907c-2.11,0.016-4.219-0.098-6.315-0.341
			c-15.642-9.598-26.043-25.813-28.245-44.032l-0.427-1.024c4.403-1.667,8.167-4.684,10.752-8.619
			c3.515-5.009,8.203-9.081,13.654-11.861c6.519-3.231,14.186-3.168,20.65,0.171c4.693,2.38,9.846,3.719,15.104,3.925
			c5.259-0.206,10.411-1.545,15.104-3.925c2.788-1.344,5.793-2.182,8.875-2.475c3.533,1.597,6.929,3.481,10.155,5.632
			C290.585,350.243,290.728,353.473,290.558,356.693L290.558,356.693z"/>
		<path style="fill:#FFA800;" d="M81.321,475.477h-0.085c-0.598-1.038-1.111-2.122-1.535-3.243l-1.622-2.901
			c-36.523-90.539-8.449-141.141-1.451-151.552l0.683-0.085l8.021-0.683c0.769,8.619,34.389,55.467,37.887,58.88
			c5.803,17.664,9.473,48.811-8.362,93.44L81.321,475.477z"/>
		<path style="fill:#FFA800;" d="M406.1,474.624c-2.602-1.696-5.544-2.802-8.619-3.243l-0.342-2.048
			c-17.835-44.629-14.165-75.776-8.363-93.44c10.493-13.348,20.263-27.249,29.269-41.643c3.698-5.295,6.602-11.102,8.619-17.237
			l8.704,0.768c6.998,10.411,35.072,61.013-1.451,151.552L406.1,474.624z"/>
	</g>
	<g>
		<path style="fill:#FEDD0A;" d="M97.79,452.267l-12.459,25.6c0,0-1.621-0.853-4.011-2.389h-0.085
			c-0.598-1.038-1.111-2.122-1.535-3.243l-1.622-2.901c-36.523-90.539-8.449-141.141-1.451-151.552l0.683-0.085
			c8.861,14.223,18.489,27.954,28.842,41.131C111.955,376.491,115.625,407.637,97.79,452.267z"/>
		<path style="fill:#FEDD0A;" d="M408.318,469.333l-2.218,5.291c-2.602-1.696-5.544-2.802-8.619-3.243l-0.342-2.048
			c-17.835-44.629-14.165-75.776-8.363-93.44c10.493-13.348,20.263-27.249,29.269-41.643
			C427.006,357.461,435.283,402.517,408.318,469.333z"/>
	</g>
	<g>
		<path d="M188.69,373.95c-4.536,0.02-9.023-0.935-13.158-2.8c-4.257-2.025-6.067-7.118-4.042-11.375
			c2.025-4.257,7.118-6.067,11.375-4.042c6.056,2.771,13.228,0.625,16.767-5.017c4.278-6.176,10.026-11.191,16.725-14.592
			c8.885-4.452,19.352-4.438,28.225,0.037c7.07,4.047,15.754,4.049,22.825,0.004c8.875-4.479,19.346-4.493,28.233-0.037
			c6.698,3.396,12.443,8.408,16.717,14.583c3.568,5.668,10.793,7.801,16.867,4.979c4.276-1.911,9.295-0.04,11.275,4.204
			c1.975,4.222,0.174,9.248-4.033,11.254c-13.58,6.356-29.766,1.833-38.083-10.642c-2.665-3.871-6.254-7.016-10.442-9.15
			c-4.172-2.074-9.091-1.992-13.192,0.221c-11.711,6.295-25.799,6.293-37.508-0.004c-4.099-2.206-9.013-2.288-13.183-0.221
			c-4.189,2.139-7.78,5.286-10.45,9.158C208.13,368.941,198.741,374.004,188.69,373.95z"/>
		<path d="M255.998,426.667c-34.756,0.003-64.039-25.953-68.208-60.459c-0.547-4.674,2.792-8.909,7.465-9.468
			c4.673-0.558,8.916,2.771,9.485,7.443c3.144,25.922,25.146,45.417,51.258,45.417s48.114-19.495,51.258-45.417
			c0.569-4.672,4.812-8.001,9.485-7.443c4.673,0.558,8.012,4.793,7.465,9.468C320.037,400.713,290.754,426.669,255.998,426.667z"/>
		<path d="M270.223,307.2c-3.297-0.132-6.516-1.044-9.392-2.662l-0.917-0.442c-1.719-0.825-3.671-1.033-5.525-0.587
			c-0.944,0.28-1.862,0.644-2.742,1.087c-3.061,1.581-6.432,2.47-9.875,2.604c-7.717-1.078-14.52-5.62-18.475-12.333
			c-1.727-2.536-1.959-5.805-0.608-8.56c1.351-2.755,4.077-4.573,7.14-4.76s5.99,1.284,7.668,3.853
			c1.256,1.931,2.913,3.57,4.858,4.804c0.728-0.494,1.514-0.894,2.342-1.192c1.816-0.864,3.708-1.561,5.65-2.083
			c5.638-1.392,11.585-0.784,16.825,1.721l1.15,0.554c0.698,0.369,1.422,0.686,2.167,0.95c1.429-1.504,2.767-3.092,4.008-4.754
			c1.68-2.563,4.605-4.028,7.664-3.838s5.78,2.004,7.132,4.754s1.124,6.014-0.595,8.55C284.743,301.58,277.94,306.122,270.223,307.2
			L270.223,307.2z"/>
	</g>
	<g>
		<path style="fill:#FC7308;" d="M197.289,252.843c-10.516,3.469-21.764,4.087-32.597,1.792c-8.924-1.922-17.425-5.45-25.088-10.411
			c-4.237-2.638-8.26-5.605-12.032-8.875c-1.877-1.621-3.84-3.328-5.631-5.12c-1.28-1.365-1.877-1.792-1.963-2.389
			c0.11-0.875,0.4-1.718,0.852-2.475c5.815-14.143,17.595-24.985,32.171-29.611c5.88-1.809,12.085-2.304,18.177-1.451
			c10.991,1.663,21.596,5.275,31.317,10.667c6.998,3.84,18.859,10.155,21.846,18.091
			C230.483,239.104,209.15,249.003,197.289,252.843z"/>
		<path style="fill:#FC7308;" d="M392.531,227.84c-0.085,0.597-0.683,1.024-1.963,2.389c-1.792,1.792-3.754,3.499-5.632,5.12
			c-3.772,3.269-7.795,6.237-12.032,8.875c-14.838,10.077-33.08,13.824-50.688,10.411c-2.371-0.437-4.709-1.035-6.998-1.792
			c-11.861-3.84-33.194-13.739-27.05-29.781c3.072-7.936,14.848-14.251,21.846-18.091c7.498-4.166,15.539-7.268,23.893-9.215
			c2.474-0.597,4.949-1.109,7.424-1.451c21.836-2.053,42.386,10.625,50.347,31.061C392.275,226.645,392.617,227.243,392.531,227.84z
			"/>
	</g>
	<g>
		<path style="fill:#FFA800;" d="M171.689,252.843c-2.289,0.757-4.626,1.355-6.997,1.792c-8.924-1.922-17.425-5.45-25.088-10.411
			c-4.237-2.638-8.26-5.605-12.032-8.875c-1.877-1.621-3.84-3.328-5.631-5.12c-1.28-1.365-1.877-1.792-1.963-2.389
			c0.11-0.875,0.4-1.718,0.852-2.475c5.815-14.143,17.595-24.985,32.171-29.611c8.354,1.948,16.395,5.05,23.893,9.216
			c6.998,3.84,18.859,10.155,21.846,18.091C204.883,239.104,183.55,249.003,171.689,252.843z"/>
		<path style="fill:#FFA800;" d="M366.931,227.84c-0.085,0.597-0.683,1.024-1.963,2.389c-1.792,1.792-3.754,3.499-5.632,5.12
			c-3.772,3.269-7.795,6.237-12.032,8.875c-7.663,4.961-16.164,8.489-25.088,10.411c-2.371-0.437-4.709-1.035-6.998-1.792
			c-11.861-3.84-33.194-13.739-27.05-29.781c3.072-7.936,14.848-14.251,21.846-18.091c7.498-4.166,15.539-7.268,23.893-9.215
			c14.576,4.625,26.356,15.467,32.171,29.611C366.675,226.645,367.017,227.243,366.931,227.84z"/>
	</g>
	<g>
		<path d="M177.598,264.563c-15.151-0.216-29.924-4.761-42.575-13.1c-4.563-2.892-8.908-6.115-13-9.642
			c-2.35-2.017-4.367-3.758-6.183-5.633c-2.294-1.879-3.83-4.526-4.325-7.45l-0.009-0.117c-0.142-2.052,0.264-4.106,1.175-5.95
			c9.281-24.377,33.788-39.472,59.733-36.792c12.004,1.773,23.587,5.703,34.192,11.6c9.025,4.983,21.658,11.963,25.717,22.521
			c2.399,5.957,2.184,12.647-0.592,18.437c-5.958,12.508-22.475,19.479-31.783,22.525
			C192.735,263.337,185.191,264.552,177.598,264.563L177.598,264.563z M129.873,226.021c0.95,0.867,1.925,1.704,2.9,2.533
			c3.572,3.101,7.369,5.934,11.358,8.475c14.803,10.086,33.379,12.92,50.517,7.708c8.564-1.956,16.207-6.767,21.675-13.642
			c0.766-1.568,0.79-3.396,0.067-4.983c-1.825-4.742-12.325-10.542-17.375-13.329c-8.995-5.086-18.847-8.479-29.066-10.012
			C153.025,201.303,136.998,210.601,129.873,226.021L129.873,226.021z M122.24,227.583l5.942,2.263
			c0.146-0.417,0.244-0.849,0.292-1.288l-5.117-1.084L122.24,227.583z M120.206,226.808l1.975,0.75l1.033-0.112L120.206,226.808z"/>
		<path d="M213.331,170.667c-2.264,0.003-4.435-0.897-6.033-2.5c-21.342-21.342-65.108-22.983-70.025-23.104
			c-4.713-0.111-8.444-4.021-8.333-8.733c0.009-2.277,0.946-4.451,2.594-6.022c1.648-1.571,3.865-2.402,6.14-2.303
			c9.175,0.217,56.192,2.6,81.692,28.096c2.44,2.44,3.17,6.111,1.85,9.299C219.894,168.587,216.782,170.666,213.331,170.667z"/>
		<path d="M334.931,264.567c-7.594-0.01-15.138-1.227-22.35-3.604c-9.308-3.042-25.817-10.008-31.783-22.521
			c-2.776-5.79-2.991-12.481-0.592-18.437c4.05-10.571,16.708-17.554,25.083-22.175c10.783-6.072,22.586-10.122,34.825-11.95
			c25.725-2.727,50.09,12.105,59.483,36.208c1.075,2.049,1.562,4.354,1.408,6.662c-0.391,2.677-1.734,5.124-3.783,6.892
			c-2.4,2.462-4.442,4.225-6.458,5.954c-4.171,3.609-8.602,6.906-13.258,9.862C364.855,259.8,350.083,264.348,334.931,264.567
			L334.931,264.567z M347.081,202.446c-1.506-0.002-3.01,0.106-4.5,0.325c-9.968,1.498-19.589,4.764-28.408,9.646
			c-5.692,3.146-16.208,8.946-18.033,13.696c-0.723,1.589-0.699,3.418,0.067,4.987c5.467,6.875,13.111,11.684,21.675,13.637
			c17.135,5.21,35.708,2.376,50.508-7.708c3.859-2.45,7.536-5.177,11.001-8.158c1.175-1.004,2.258-1.929,3.267-2.85
			C376.077,212.182,362.39,203.112,347.081,202.446L347.081,202.446z"/>
		<path d="M299.173,170.667c-3.451-0.001-6.562-2.08-7.882-5.268c-1.32-3.188-0.591-6.858,1.849-9.298
			c25.591-25.596,72.217-27.829,81.3-28.017c2.278-0.099,4.497,0.737,6.142,2.316c1.645,1.579,2.572,3.762,2.566,6.042
			c0.095,4.712-3.646,8.61-8.358,8.708c-4.867,0.1-48.167,1.596-69.583,23.017C303.608,169.77,301.437,170.67,299.173,170.667z"/>
	</g>
	<g>
		<ellipse style="fill:#D22047;" cx="149.331" cy="307.2" rx="29.867" ry="25.6"/>
		<ellipse style="fill:#D22047;" cx="362.665" cy="307.2" rx="29.867" ry="25.6"/>
	</g>
	<g>
		<ellipse style="fill:#DB4E6C;" cx="136.531" cy="307.2" rx="17.067" ry="25.6"/>
		<ellipse style="fill:#DB4E6C;" cx="349.865" cy="307.2" rx="17.067" ry="25.6"/>
	</g>
	<g>
		<path d="M149.331,341.333c-19.997,1.084-37.132-14.147-38.4-34.133c1.268-19.986,18.403-35.218,38.4-34.133
			c19.997-1.084,37.132,14.147,38.4,34.133C186.464,327.186,169.328,342.418,149.331,341.333L149.331,341.333z M149.331,290.133
			c-10.561-1.031-20.021,6.537-21.333,17.067c1.312,10.53,10.773,18.098,21.333,17.067c10.561,1.031,20.021-6.537,21.333-17.067
			C169.353,296.67,159.892,289.102,149.331,290.133L149.331,290.133z"/>
		<path d="M362.665,341.333c-19.997,1.084-37.132-14.147-38.4-34.133c1.268-19.986,18.403-35.218,38.4-34.133
			c19.997-1.084,37.132,14.147,38.4,34.133C399.797,327.186,382.661,342.418,362.665,341.333L362.665,341.333z M362.665,290.133
			c-10.561-1.031-20.021,6.537-21.333,17.067c1.312,10.53,10.773,18.098,21.333,17.067c10.561,1.031,20.021-6.537,21.333-17.067
			C382.686,296.67,373.225,289.102,362.665,290.133L362.665,290.133z"/>
		<path d="M255.998,477.867c-53.858,0-88.45-39.667-116.242-71.542c-9.525-11.91-20.276-22.785-32.075-32.446
			c-34.525-24.663-32.125-63.237-30.842-83.963c0.2-3.191,0.383-6.004,0.383-8.317c0-16.137-8.742-66.292-8.833-66.796
			c-0.083-0.486-0.125-0.978-0.125-1.471v-25.6c0-43.783,80.708-76.8,187.733-76.8s187.733,33.017,187.733,76.8v25.6
			c0,0.493-0.042,0.985-0.125,1.471c-0.092,0.504-8.833,50.662-8.833,66.796c0,2.313,0.183,5.125,0.383,8.317
			c1.283,20.725,3.683,59.3-30.842,83.963c-11.799,9.661-22.55,20.536-32.075,32.446C344.448,438.2,309.856,477.867,255.998,477.867
			z M85.331,212.596c4.204,22.827,7.195,45.861,8.958,69.004c0,2.608-0.192,5.779-0.417,9.379c-1.233,19.85-3.1,49.85,23.725,69.008
			c12.92,10.396,24.665,22.173,35.025,35.121c26.85,30.792,57.275,65.692,103.375,65.692s76.525-34.9,103.375-65.692
			c10.36-12.948,22.105-24.725,35.025-35.121c26.825-19.158,24.958-49.158,23.725-69.008c-0.225-3.6-0.417-6.771-0.417-9.379
			c1.764-23.144,4.754-46.177,8.958-69.004v-24.862c0-28.254-70.092-59.733-170.667-59.733S85.331,159.479,85.331,187.733V212.596z"
			/>
		<path d="M105.215,369.321c-2.981,0-5.745-1.556-7.292-4.105c-4.558-5.708-8.65-11.283-12.558-17.029
			c-24.189-34.908-40.618-74.593-48.183-116.383c-0.73-4.626,2.405-8.977,7.025-9.748c4.62-0.771,8.998,2.326,9.809,6.939
			c7.148,39.345,22.64,76.702,45.433,109.558c3.983,5.846,8.125,11.462,12.342,16.729c1.242,1.568,1.93,3.504,1.958,5.504
			c0,2.263-0.899,4.434-2.499,6.034S107.478,369.321,105.215,369.321L105.215,369.321z"/>
		<path d="M406.781,369.321L406.781,369.321c-4.713,0-8.533-3.821-8.533-8.533c0.028-2.251,0.896-4.41,2.433-6.054
			c3.742-4.717,7.883-10.333,11.85-16.154c30.683-44.683,48.267-96.542,48.267-142.313c0-100.488-89.958-179.2-204.8-179.2
			c-101.875,0-184.817,60.325-201.692,146.7c-0.904,4.625-5.387,7.642-10.013,6.738c-4.625-0.904-7.642-5.387-6.737-10.013
			C56.023,65.996,145.848,0,255.998,0c124.408,0,221.867,86.212,221.867,196.267c0,49.133-18.683,104.516-51.25,151.946
			c-4.058,5.967-8.325,11.767-12.675,17.221C412.367,367.859,409.672,369.323,406.781,369.321L406.781,369.321z"/>
		<path d="M42.665,204.8c-3.45-0.014-6.556-2.096-7.879-5.282s-0.606-6.856,1.82-9.31l1.275-1.025
			c0.477-0.324,0.996-0.583,1.542-0.771c0.483-0.245,1-0.417,1.534-0.508c1.093-0.258,2.232-0.258,3.325,0
			c0.566,0.079,1.115,0.25,1.625,0.508c0.543,0.188,1.059,0.447,1.533,0.771c0.425,0.341,0.858,0.683,1.283,1.025
			c2.461,2.441,3.201,6.129,1.872,9.331S46.131,204.82,42.665,204.8z"/>
		<path d="M397.139,477.871c-3.491-0.002-6.629-2.129-7.925-5.371c-18.667-46.717-14.95-79.767-8.55-99.271
			c1.478-4.467,6.294-6.895,10.764-5.427c4.471,1.468,6.91,6.278,5.452,10.752c-5.517,16.812-8.583,45.658,8.183,87.613
			c1.048,2.63,0.725,5.608-0.862,7.952C402.615,476.462,399.97,477.867,397.139,477.871L397.139,477.871z"/>
		<path d="M433.915,477.871c-1.094,0.001-2.178-0.212-3.191-0.625c-4.371-1.762-6.486-6.733-4.725-11.104
			c35.283-87.45,8.092-134.958,2.283-143.596c-2.616-3.912-1.573-9.203,2.333-11.828c3.905-2.626,9.199-1.595,11.834,2.303
			c6.65,9.892,37.883,64.067-0.617,159.504C440.529,475.754,437.397,477.869,433.915,477.871z"/>
	</g>
	<g>
		<path style="fill:#FEDD0A;" d="M405.647,469.333h17.067c9.426,0,17.067,7.641,17.067,17.067l0,0
			c0,9.426-7.641,17.067-17.067,17.067h-17.067c-9.426,0-17.067-7.641-17.067-17.067l0,0
			C388.58,476.974,396.221,469.333,405.647,469.333z"/>
		<path style="fill:#FEDD0A;" d="M106.349,503.467H89.282c-9.426,0-17.067-7.641-17.067-17.067l0,0
			c0-9.426,7.641-17.067,17.067-17.067h17.067c9.426,0,17.067,7.641,17.067,17.067l0,0
			C123.416,495.826,115.775,503.467,106.349,503.467z"/>
	</g>
	<g>
		<path d="M422.715,511.996h-17.067c-14.138,0-25.6-11.462-25.6-25.6s11.462-25.6,25.6-25.6h17.067c14.139,0,25.6,11.461,25.6,25.6
			S436.853,511.996,422.715,511.996L422.715,511.996z M405.648,477.863c-4.713,0-8.533,3.82-8.533,8.533s3.821,8.533,8.533,8.533
			h17.067c4.713,0,8.533-3.821,8.533-8.533s-3.82-8.533-8.533-8.533H405.648z"/>
		<path d="M477.873,494.933c-3.236,0.005-6.196-1.822-7.642-4.717c-5.008-10.046-23.65-4.308-23.825-4.246
			c-4.467,1.463-9.277-0.961-10.757-5.423c-1.48-4.462,0.926-9.28,5.382-10.777c12.108-4.033,35.117-5.887,44.467,12.812
			c1.323,2.644,1.182,5.784-0.371,8.3C483.574,493.399,480.83,494.931,477.873,494.933z"/>
		<path d="M349.856,494.933c-2.956-0.002-5.701-1.534-7.254-4.05c-1.553-2.516-1.693-5.656-0.371-8.3
			c9.358-18.7,32.358-16.846,44.467-12.812c4.473,1.484,6.897,6.314,5.413,10.788c-1.484,4.474-6.314,6.897-10.788,5.413l0,0
			c-0.167-0.062-18.808-5.8-23.825,4.246C356.051,493.11,353.091,494.937,349.856,494.933z"/>
		<path d="M114.857,477.871c-2.831-0.003-5.476-1.409-7.063-3.753c-1.587-2.344-1.91-5.322-0.862-7.951
			c16.767-41.954,13.7-70.8,8.183-87.612c-1.458-4.474,0.981-9.284,5.452-10.752c4.471-1.468,9.286,0.96,10.765,5.427
			c6.4,19.504,10.117,52.554-8.55,99.271C121.486,475.742,118.348,477.869,114.857,477.871z"/>
		<path d="M78.081,477.871c-3.482-0.002-6.614-2.117-7.917-5.346c-38.5-95.438-7.267-149.612-0.617-159.504
			c2.635-3.899,7.929-4.929,11.834-2.303s4.949,7.917,2.333,11.828c-5.808,8.637-33,56.146,2.283,143.596
			c1.761,4.371-0.354,9.343-4.725,11.104C80.26,477.659,79.176,477.872,78.081,477.871z"/>
		<path d="M106.348,511.996H89.281c-14.138,0-25.6-11.462-25.6-25.6s11.462-25.6,25.6-25.6h17.067c14.138,0,25.6,11.461,25.6,25.6
			S120.486,511.996,106.348,511.996L106.348,511.996z M89.281,477.863c-4.713,0-8.533,3.82-8.533,8.533s3.821,8.533,8.533,8.533
			h17.067c4.713,0,8.533-3.821,8.533-8.533s-3.821-8.533-8.533-8.533H89.281z"/>
		<path d="M34.123,494.933c-2.956-0.002-5.701-1.534-7.254-4.05c-1.553-2.516-1.693-5.656-0.371-8.3
			c9.35-18.7,32.358-16.846,44.467-12.812c4.474,1.484,6.897,6.314,5.413,10.788c-1.484,4.474-6.314,6.897-10.787,5.413l0,0
			c-0.167-0.062-18.808-5.8-23.825,4.246C40.317,493.11,37.358,494.937,34.123,494.933z"/>
		<path d="M162.14,494.933c-3.236,0.005-6.196-1.822-7.642-4.717c-5.008-10.046-23.65-4.308-23.825-4.246
			c-4.467,1.463-9.277-0.961-10.757-5.423c-1.48-4.462,0.926-9.28,5.382-10.777c12.108-4.033,35.117-5.887,44.467,12.812
			c1.323,2.644,1.182,5.784-0.371,8.3C167.841,493.399,165.096,494.931,162.14,494.933L162.14,494.933z"/>
	</g>
</g>
<g>
</g>
<g>
</g>
<g>
</g>
<g>
</g>
<g>
</g>
<g>
</g>
<g>
</g>
<g>
</g>
<g>
</g>
<g>
</g>
<g>
</g>
<g>
</g>
<g>
</g>
<g>
</g>
<g>
</g>
</svg>
