<?xml version="1.0" encoding="iso-8859-1"?>
<!-- Generator: Adobe Illustrator 19.0.0, SVG Export Plug-In . SVG Version: 6.00 Build 0)  -->
<svg version="1.1" id="Capa_1" xmlns="http://www.w3.org/2000/svg" xmlns:xlink="http://www.w3.org/1999/xlink" x="0px" y="0px"
	 viewBox="0 0 512.02 512.02" style="enable-background:new 0 0 512.02 512.02;" xml:space="preserve">
<g transform="translate(0 -1)">
	<path style="fill:#FFA800;" d="M481.787,309.642H461.56c-2.379-0.002-4.649,0.995-6.258,2.747
		c-1.609,1.752-2.409,4.099-2.205,6.469c0.861,16.019,5.72,31.568,14.133,45.227c1.968,2.579,2.319,6.046,0.906,8.967
		c-1.413,2.921-4.348,4.799-7.592,4.857h-50.271l-1.693-0.427c2.09-9.272,2.406-18.856,0.931-28.245
		c-2.369-16.896-10.41-32.513-11.933-49.493c-0.622-16.722,0.799-33.457,4.232-49.835c16.778-34.712,16.934-75.155,0.423-109.995
		c-8.098-17.05-19.521-32.311-33.599-44.885c-14.675-12.949-31.522-23.204-49.764-30.293c-4.232-1.621-8.633-3.072-13.118-4.352
		c-2.539-0.768-5.163-1.451-7.786-2.048c-2.369-0.597-4.824-1.109-7.278-1.536c-2.708-0.597-5.332-1.024-8.04-1.365
		c-2.708-0.427-5.416-0.768-8.124-1.024c-5.417-0.512-11.003-0.768-16.588-0.768c-20.819-0.057-41.472,3.703-60.935,11.093
		c-18.315,6.942-35.186,17.212-49.764,30.293c-14.077,12.575-25.5,27.835-33.599,44.885c-16.511,34.84-16.355,75.283,0.423,109.995
		c3.433,16.378,4.854,33.113,4.232,49.835c-1.523,16.981-9.563,32.597-11.933,49.493c-1.475,9.389-1.159,18.973,0.931,28.245
		l-1.693,0.427H55.327c-3.244-0.058-6.179-1.936-7.592-4.857s-1.062-6.388,0.906-8.967c8.413-13.659,13.272-29.208,14.133-45.227
		c0.204-2.37-0.596-4.717-2.205-6.469c-1.609-1.752-3.879-2.749-6.258-2.747H34.084c-0.919-0.01-1.831-0.154-2.708-0.427
		c-1.983-0.689-3.641-2.087-4.655-3.925c-1.569-2.716-1.47-6.084,0.254-8.704c14.218-22.272,19.381-63.744,19.381-63.744h0.17
		c-0.085-2.816-0.169-5.717-0.169-8.533c-0.24-56.349,21.918-110.485,61.599-150.494s93.632-62.614,149.981-62.839
		c38.251-0.061,75.783,10.389,108.498,30.208c64.143,38.697,103.274,108.214,103.082,183.125c0,2.816-0.085,5.717-0.169,8.533h0.169
		c0,0,5.163,41.472,19.381,63.744c1.66,2.607,1.772,5.91,0.294,8.624C487.713,307.924,484.878,309.622,481.787,309.642z"/>
	<path style="fill:#FEDD0A;" d="M169.141,454.709H99.509c-3.112,0.027-5.988-1.657-7.486-4.386c-1.498-2.728-1.376-6.059,0.318-8.67
		c14.677-21.931,10.069-63.744,10.069-63.744l1.707-0.427c2.333,10.75,8.263,20.382,16.811,27.307
		c12.774,9.668,24.681,20.433,35.584,32.171C161.258,442.475,165.486,448.417,169.141,454.709L169.141,454.709z"/>
	<g>
		<path style="fill:#FFFFFF;" d="M69.13,224.337c0,2.816,0.085,5.717,0.171,8.533H69.13c0,0-5.205,41.472-19.541,63.744
			c-1.739,2.615-1.838,5.991-0.256,8.704c2.027,0.627,3.718,2.041,4.693,3.925c0.085,0,0.171,0.085,0.256,0.085l-0.256,1.024
			c-1.053-0.447-2.184-0.679-3.328-0.683H30.304c-0.926-0.01-1.846-0.154-2.731-0.427c-0.976-1.884-2.666-3.298-4.693-3.925
			c-1.582-2.713-1.483-6.089,0.256-8.704c14.336-22.272,19.541-63.744,19.541-63.744h0.171c-0.085-2.816-0.171-5.717-0.171-8.533
			c-0.008-56.582,22.465-110.849,62.475-150.859s94.277-62.483,150.859-62.475c4.437,0,8.96,0.171,13.312,0.427
			C156.816,18.351,69.118,111.619,69.13,224.337L69.13,224.337z"/>
		<path style="fill:#FFFFFF;" d="M78.176,377.938H51.722c-3.256-0.033-6.214-1.903-7.641-4.829c-1.427-2.927-1.079-6.409,0.9-8.995
			c8.477-13.638,13.378-29.193,14.251-45.227c0.32-3.677-1.789-7.135-5.205-8.533l0.256-1.024c0.81,0.203,1.64,0.317,2.475,0.341
			h20.395c2.388-0.013,4.672,0.978,6.295,2.73c1.623,1.752,2.435,4.106,2.239,6.486c-0.873,16.034-5.774,31.589-14.251,45.227
			c-1.979,2.586-2.327,6.068-0.9,8.994C71.962,376.035,74.92,377.904,78.176,377.938z"/>
	</g>
	<g>
		<path style="fill:#FEDD0A;" d="M453.728,304.551c-0.741,0.251-1.522,0.366-2.304,0.341h-20.395
			c-2.548,0.015-4.944,1.213-6.485,3.243c-1.507,1.876-2.239,4.257-2.048,6.656c0.842,16.666,5.546,32.908,13.739,47.445
			c0.119,0.339,0.292,0.656,0.512,0.939c3.011,4.283,2.065,10.184-2.133,13.312c-1.337,0.971-2.955,1.481-4.608,1.451H409.61
			l-1.707-0.427c2.107-9.27,2.426-18.856,0.939-28.245c-2.389-16.896-10.496-32.512-12.032-49.493
			c-0.627-16.724,0.806-33.461,4.267-49.835c16.917-34.679,17.074-75.185,0.427-109.995c-8.183-17.073-19.702-32.335-33.877-44.885
			c-14.821-12.961-31.805-23.214-50.176-30.293c-4.267-1.621-8.704-3.072-13.227-4.352c-2.56-0.768-5.205-1.451-7.851-2.048
			c-2.389-0.597-4.864-1.109-7.339-1.536c-2.731-0.597-5.376-1.024-8.107-1.365c-2.731-0.427-5.461-0.768-8.192-1.024
			c-1.109-0.085-2.133-0.171-3.243-0.256c-4.437-0.341-8.96-0.512-13.483-0.512c-20.983-0.058-41.802,3.7-61.44,11.093
			c-18.445,6.928-35.454,17.198-50.176,30.293c-14.176,12.55-25.694,27.812-33.877,44.885c-16.647,34.81-16.49,75.315,0.427,109.995
			c3.461,16.374,4.894,33.111,4.267,49.835c-1.536,16.981-9.643,32.597-12.032,49.493c-1.487,9.389-1.169,18.976,0.939,28.245
			l-1.707,0.427H78.176c-3.256-0.033-6.214-1.903-7.641-4.83c-1.427-2.927-1.079-6.408,0.9-8.994
			c8.477-13.638,13.378-29.193,14.251-45.227c0.196-2.38-0.616-4.733-2.239-6.486c-1.623-1.752-3.907-2.743-6.295-2.73H56.757
			c-0.835-0.024-1.665-0.138-2.475-0.341c-0.085,0-0.171-0.085-0.256-0.085c-0.976-1.884-2.666-3.298-4.693-3.925
			c-1.582-2.713-1.483-6.089,0.256-8.704c14.336-22.272,19.541-63.744,19.541-63.744h0.171c-0.085-2.816-0.171-5.717-0.171-8.533
			C69.118,111.619,156.816,18.351,269.322,11.431c33.96,2.039,66.925,12.257,96.085,29.781c28.598,26.69,49.92,60.229,61.952,97.451
			c7.617,23.811,11.56,48.644,11.691,73.643v1.28c0,3.072-0.085,6.144-0.171,9.131h0.171c0,0,5.205,44.373,19.541,68.267
			c1.48,2.385,1.79,5.316,0.843,7.958C458.487,301.583,456.386,303.649,453.728,304.551z"/>
		<path style="fill:#FEDD0A;" d="M412.512,454.709H342.88c3.655-6.292,7.883-12.234,12.629-17.749
			c10.903-11.738,22.81-22.502,35.584-32.171c8.547-6.924,14.478-16.557,16.811-27.307l1.707,0.427c0,0-4.608,41.813,10.069,63.744
			c1.694,2.611,1.816,5.942,0.318,8.67C418.5,453.052,415.624,454.736,412.512,454.709z"/>
	</g>
	<g>
		<path d="M469.185,239.953l-0.258-0.004c-4.713-0.138-8.421-4.071-8.283-8.783c0.083-2.733,0.167-5.546,0.167-8.279
			c-0.02-100.298-72.66-185.83-171.631-202.09S94.02,62.33,61.91,157.349c-0.973,2.891-3.415,5.042-6.405,5.643
			c-2.99,0.601-6.074-0.44-8.088-2.731c-2.014-2.291-2.652-5.482-1.673-8.371C80.526,48.953,184.729-13.659,291.947,3.956
			s185.911,110.276,185.93,218.931c0,2.9-0.083,5.887-0.167,8.788C477.569,236.283,473.796,239.947,469.185,239.953z"/>
		<path d="M169.144,461.82H99.51c-6.342,0.006-12.166-3.503-15.125-9.112c-2.927-5.474-2.584-12.119,0.892-17.263
			c8.692-12.983,9.742-36.462,9.183-50.425H51.719c-6.368,0.03-12.209-3.53-15.1-9.204c-2.966-5.836-2.393-12.845,1.483-18.121
			c7.49-12.44,11.827-26.522,12.633-41.021l-20.433,0.079c-6.231,0-11.964-3.404-14.948-8.874
			c-2.984-5.47-2.742-12.133,0.631-17.372c13.108-20.367,18.175-59.754,18.225-60.15c0.017-0.125,0.033-0.25,0.058-0.371
			c-0.067-2.362-0.125-4.758-0.125-7.1c0-4.713,3.821-8.533,8.533-8.533s8.533,3.821,8.533,8.533c0,2.733,0.083,5.546,0.167,8.279
			c0.027,1.031-0.131,2.058-0.467,3.033c-1.183,8.367-6.933,44.35-20.6,65.583l20.417-0.096c4.784-0.01,9.352,1.992,12.587,5.516
			s4.84,8.247,4.421,13.013c-0.974,17.577-6.418,34.615-15.817,49.5l50.492,0.237c4.352,0,8.006,3.275,8.483,7.6
			c0.2,1.833,4.758,45.183-11.458,69.425l69.708-0.225c4.713,0,8.533,3.82,8.533,8.533S173.856,461.82,169.144,461.82z"/>
		<path d="M46.085,197.287c-2.27,0.022-4.453-0.87-6.058-2.475c-1.605-1.605-2.497-3.788-2.475-6.058
			c0.021-0.573,0.08-1.143,0.175-1.708c0.093-0.535,0.265-1.053,0.508-1.538c0.192-0.54,0.449-1.055,0.767-1.533
			c0.315-0.447,0.657-0.874,1.025-1.279c3.421-3.158,8.695-3.158,12.117,0c0.37,0.403,0.713,0.83,1.025,1.279
			c0.324,0.474,0.582,0.99,0.767,1.533c0.25,0.483,0.424,1.002,0.517,1.538c0.093,0.565,0.148,1.136,0.167,1.708
			c0.022,2.27-0.87,4.453-2.475,6.058C50.539,196.417,48.355,197.309,46.085,197.287L46.085,197.287z"/>
	</g>
	<path style="fill:#FFA800;" d="M408.842,349.237c1.487,9.389,1.169,18.976-0.939,28.245c-2.333,10.75-8.263,20.382-16.811,27.307
		c-12.774,9.668-24.681,20.433-35.584,32.171c-4.747,5.515-8.974,11.457-12.629,17.749c-5.035,8.363-9.472,17.067-14.677,25.515
		c-15.275,24.747-45.739,25.685-72.192,25.685c-3.84,0-7.765,0-11.691-0.171c-1.195,0-2.304,0-3.499-0.085
		c-5.114-0.155-10.214-0.611-15.275-1.365c-3.303-0.481-6.579-1.136-9.813-1.963c-1.362-0.308-2.702-0.707-4.011-1.195
		c-0.597-0.171-1.109-0.341-1.621-0.512c-1.256-0.395-2.483-0.879-3.669-1.451c-1.067-0.351-2.096-0.808-3.072-1.365
		c-0.926-0.399-1.811-0.884-2.645-1.451c-3.934-2.165-7.528-4.896-10.667-8.107c-0.853-0.939-1.792-1.963-2.645-2.987
		c-0.171-0.256-0.341-0.427-0.512-0.683c-1.12-1.381-2.146-2.835-3.072-4.352c-5.205-8.448-9.643-17.152-14.677-25.515
		c-3.655-6.292-7.883-12.234-12.629-17.749c-10.903-11.738-22.81-22.502-35.584-32.171c-8.547-6.924-14.478-16.557-16.811-27.307
		c-2.107-9.27-2.426-18.856-0.939-28.245c2.389-16.896,10.496-32.512,12.032-49.493c0.627-16.724-0.806-33.461-4.267-49.835
		c-16.917-34.679-17.074-75.185-0.427-109.995c8.183-17.073,19.702-32.335,33.877-44.885c14.722-13.095,31.731-23.365,50.176-30.293
		c19.638-7.393,40.457-11.152,61.44-11.093c5.632,0,11.264,0.256,16.725,0.768c2.731,0.256,5.461,0.597,8.192,1.024
		c2.731,0.341,5.376,0.768,8.107,1.365c2.475,0.427,4.949,0.939,7.339,1.536c2.645,0.597,5.291,1.28,7.851,2.048
		c4.523,1.28,8.96,2.731,13.227,4.352c18.445,6.928,35.454,17.198,50.176,30.293c14.176,12.55,25.694,27.812,33.877,44.885
		c16.647,34.81,16.49,75.315-0.427,109.995c-3.461,16.374-4.894,33.111-4.267,49.835
		C398.346,316.725,406.453,332.341,408.842,349.237z"/>
	<path style="fill:#FEDD0A;" d="M384.739,340.704c2.961,20.48-0.958,42.069-18.113,55.552c-13.015,9.65-25.166,20.414-36.315,32.171
		c-10.533,13.581-19.857,28.058-27.867,43.264c-15.588,24.747-46.677,25.685-73.674,25.685c-8.662,0.122-17.325-0.22-25.951-1.024
		c-4.004-2.157-7.671-4.888-10.886-8.107c-0.871-0.939-1.829-1.963-2.7-2.987c-0.174-0.256-0.349-0.427-0.522-0.683
		c-1.142-1.379-2.189-2.833-3.135-4.352c-5.312-8.448-9.841-17.152-14.978-25.515c-3.737-6.303-8.052-12.245-12.888-17.749
		c-11.148-11.757-23.299-22.521-36.315-32.171c-8.684-6.862-14.742-16.505-17.155-27.307c-2.15-9.264-2.476-18.857-0.958-28.245
		c2.438-16.896,10.711-32.512,12.279-49.493c0.64-16.728-0.823-33.471-4.354-49.835c-17.264-34.597-17.425-75.262-0.435-109.995
		c8.395-17.131,20.152-32.396,34.572-44.885c15.082-13.13,32.436-23.397,51.206-30.293c20.074-7.399,41.307-11.156,62.701-11.093
		c5.747,0,11.495,0.256,17.069,0.768c2.787,0.256,5.573,0.597,8.36,1.024c2.787,0.341,5.486,0.768,8.273,1.365
		c18.21,6.86,35.05,16.917,49.725,29.696c14.42,12.49,26.178,27.755,34.572,44.885c16.989,34.733,16.829,75.398-0.435,109.995
		c-3.531,16.364-4.994,33.106-4.354,49.835C374.028,308.191,382.301,323.807,384.739,340.704z"/>
	<g>
		<path style="fill:#FFA800;" d="M240.224,251.559c-13.492,5.164-23.342,16.952-26.027,31.147"/>
		<path style="fill:#FFA800;" d="M297.824,282.705c-2.513-12.402-10.386-23.056-21.504-29.099"/>
		<path style="fill:#FFA800;" d="M240.224,251.559c-13.492,5.163-23.343,16.952-26.027,31.147l-0.853-0.085H153.61
			c-4.35-21.501,2.014-43.776,17.067-59.733l1.195-4.181c20.406,13.841,43.12,23.926,67.072,29.781L240.224,251.559z"/>
		<path style="fill:#FFA800;" d="M275.04,248.06c-0.683,0.171-1.28,0.256-1.963,0.427"/>
		<path style="fill:#FFA800;" d="M358.41,282.62h-59.733l-0.853,0.085c-2.513-12.402-10.386-23.055-21.504-29.099l-1.28-5.547
			c21.168-5.327,41.318-14.09,59.648-25.941l6.656,0.768C356.396,238.844,362.761,261.119,358.41,282.62L358.41,282.62z"/>
		<path style="fill:#FFA800;" d="M321.717,364.199c-7.347,15.644-11.136,32.722-11.093,50.005c0,18.261-10.069,25.429-38.656,21.333
			c-10.583-1.536-21.332-1.536-31.915,0c-28.587,4.096-38.656-3.072-38.656-21.333c0.042-17.283-3.746-34.361-11.093-50.005"/>
	</g>
	<path style="fill:#FEDD0A;" d="M358.41,333.052v0.768c0,0-25.6,42.667-93.867,42.667h-17.067
		c-68.267,0-93.867-42.667-93.867-42.667v-0.768c7.173-5.933,16.302-8.976,25.6-8.533c17.067,0,34.133-17.067,34.133-17.067
		l2.816-1.024c6.332,16.5,22.177,27.392,39.851,27.392s33.519-10.892,39.851-27.392l2.816,1.024c0,0,17.067,17.067,34.133,17.067
		C342.109,324.076,351.237,327.119,358.41,333.052z"/>
	<g>
		<path d="M153.644,341.462c-3.435,0.008-6.538-2.052-7.865-5.22c-1.327-3.169-0.617-6.825,1.799-9.267
			c8.747-7.584,20.066-11.532,31.633-11.033c10.701-1.689,20.564-6.805,28.108-14.579c3.341-3.298,8.718-3.278,12.035,0.044
			c3.317,3.322,3.327,8.7,0.023,12.035c-2,2.004-20.142,19.567-40.166,19.567c-7.078-0.381-14.058,1.794-19.667,6.129
			C157.944,340.633,155.834,341.464,153.644,341.462L153.644,341.462z"/>
		<path d="M358.41,341.541c-2.264,0.003-4.435-0.897-6.033-2.5c-5.6-4.269-12.535-6.408-19.567-6.033
			c-20.025,0-38.167-17.563-40.166-19.567c-3.326-3.331-3.326-8.727,0-12.059s8.721-3.341,12.059-0.021
			c7.544,7.775,17.407,12.891,28.108,14.579c11.567-0.499,22.886,3.449,31.633,11.034c2.44,2.441,3.169,6.11,1.849,9.298
			C364.972,339.461,361.861,341.54,358.41,341.541L358.41,341.541z"/>
		<path d="M256.01,513.02c-24.325,0-61.083,0-79.483-29.742c-2.958-4.775-5.65-9.617-8.325-14.433
			c-5.014-9.858-11.088-19.139-18.116-27.679c-10.577-11.343-22.099-21.767-34.442-31.158c-17.283-13.8-24.708-36.308-20.9-63.379
			c1.371-8.29,3.419-16.453,6.125-24.408c2.805-7.978,4.76-16.229,5.833-24.617c0.616-14.746-0.582-29.512-3.567-43.967
			l-0.425-2.608c-17.511-36.754-17.465-79.455,0.125-116.171c8.633-18.12,20.829-34.314,35.859-47.617
			c15.494-13.807,33.413-24.622,52.85-31.896c41.585-15.475,87.349-15.475,128.933,0c19.436,7.274,37.355,18.089,52.849,31.896
			c15.03,13.303,27.225,29.497,35.858,47.617c17.59,36.716,17.636,79.417,0.125,116.171l-0.425,2.608
			c-2.985,14.456-4.183,29.223-3.567,43.971c1.073,8.386,3.029,16.636,5.833,24.613c2.706,7.955,4.754,16.118,6.125,24.408
			c3.808,27.071-3.617,49.579-20.9,63.379c-12.342,9.392-23.864,19.815-34.442,31.158c-7.028,8.54-13.103,17.821-18.116,27.679
			c-2.675,4.817-5.367,9.658-8.325,14.433C317.094,513.02,280.335,513.02,256.01,513.02z M256.01,60.753
			c-19.957-0.057-39.757,3.518-58.433,10.55c-17.466,6.538-33.571,16.253-47.5,28.654c-13.33,11.784-24.148,26.134-31.808,42.192
			c-15.593,32.486-15.448,70.325,0.392,102.692c0.344,0.725,0.582,1.495,0.708,2.288l0.608,3.758
			c3.263,15.853,4.514,32.055,3.725,48.221c-1.164,9.598-3.354,19.044-6.533,28.175c-2.424,7.079-4.272,14.343-5.525,21.721
			c-1.7,12.079-2.05,34.333,14.65,47.671c13.121,9.992,25.358,21.094,36.576,33.183c7.858,9.453,14.646,19.746,20.241,30.692
			c2.55,4.588,5.117,9.2,7.933,13.754c12.384,20.021,36.75,21.65,64.967,21.65s52.583-1.629,64.967-21.65
			c2.817-4.554,5.383-9.167,7.933-13.754c5.595-10.945,12.384-21.238,20.241-30.692c11.218-12.089,23.454-23.191,36.575-33.183
			c16.7-13.338,16.35-35.592,14.65-47.671c-1.253-7.377-3.101-14.641-5.525-21.721c-3.178-9.13-5.369-18.574-6.533-28.171
			c-0.789-16.168,0.462-32.37,3.725-48.225l0.608-3.758c0.126-0.792,0.365-1.563,0.708-2.288
			c15.84-32.367,15.984-70.205,0.392-102.692c-7.66-16.058-18.479-30.408-31.808-42.192c-13.929-12.401-30.034-22.116-47.5-28.654
			C295.767,64.271,275.967,60.696,256.01,60.753z"/>
		<path d="M256.01,385.02h-8.533c-72.267,0-100.033-44.9-101.183-46.808c-2.403-4.031-1.098-9.247,2.919-11.673
			c4.018-2.426,9.24-1.152,11.689,2.852l0,0c0.967,1.575,24.4,38.562,86.575,38.562h8.533c4.713,0,8.533,3.821,8.533,8.533
			C264.544,381.2,260.723,385.02,256.01,385.02z"/>
		<path d="M264.544,385.02h-8.533c-4.713,0-8.533-3.821-8.533-8.533c0-4.713,3.821-8.533,8.533-8.533h8.533
			c62.708,0,86.317-38.137,86.55-38.525c2.425-4.041,7.667-5.35,11.708-2.925c4.041,2.425,5.35,7.667,2.925,11.708
			C364.577,340.12,336.81,385.02,264.544,385.02z"/>
		<path d="M285.669,445.17c-4.991-0.044-9.973-0.441-14.908-1.187c-9.777-1.417-19.707-1.417-29.483,0
			c-18.95,2.708-31.442,0.796-39.333-6.042c-6.457-6.135-9.796-14.859-9.083-23.738c0.067-15.997-3.432-31.808-10.242-46.283
			c-2.055-4.243-0.281-9.349,3.962-11.404c4.243-2.055,9.349-0.281,11.404,3.962c7.916,16.801,11.995,35.153,11.942,53.725
			c0,8.071,2.408,10.158,3.2,10.846c2.583,2.233,9.133,4.404,25.717,2.042c11.391-1.65,22.959-1.65,34.35,0
			c16.525,2.363,23.108,0.192,25.7-2.042c0.792-0.688,3.2-2.775,3.2-10.846c-0.053-18.572,4.026-36.924,11.942-53.725
			c2.064-4.226,7.158-5.987,11.392-3.936s6.011,7.138,3.975,11.378c-6.81,14.475-10.309,30.286-10.242,46.283
			c0.713,8.878-2.626,17.603-9.083,23.738C303.099,443.255,294.415,445.828,285.669,445.17L285.669,445.17z"/>
		<path d="M256.01,478.887c-2.263,0.001-4.434-0.898-6.035-2.499c-1.6-1.6-2.499-3.771-2.499-6.035v-8.533
			c0-4.713,3.821-8.533,8.533-8.533s8.533,3.821,8.533,8.533v8.533c0.001,2.263-0.898,4.434-2.499,6.035
			C260.445,477.989,258.274,478.887,256.01,478.887L256.01,478.887z"/>
	</g>
	<circle style="fill:#D22047;" cx="256.01" cy="291.154" r="42.667"/>
	<ellipse style="fill:#DB4E6C;" cx="243.21" cy="291.154" rx="29.867" ry="42.667"/>
	<g>
		<path d="M256.01,342.353c-28.277,0-51.2-22.923-51.2-51.2c0-28.277,22.923-51.2,51.2-51.2s51.2,22.923,51.2,51.2
			C307.179,319.418,284.275,342.323,256.01,342.353L256.01,342.353z M256.01,257.02c-18.851,0-34.133,15.282-34.133,34.133
			c0,18.851,15.282,34.133,34.133,34.133s34.133-15.282,34.133-34.133C290.124,272.31,274.853,257.04,256.01,257.02z"/>
		<path d="M256.01,342.353c-28.277,0-51.2-22.923-51.2-51.2c0-28.277,22.923-51.2,51.2-51.2s51.2,22.923,51.2,51.2
			c0.011,13.582-5.38,26.612-14.984,36.216C282.622,336.973,269.593,342.364,256.01,342.353z M256.01,257.02
			c-18.843,0.02-34.113,15.29-34.133,34.133c0.014,4.197,0.785,8.356,2.275,12.279c5.087,13.179,17.763,21.866,31.889,21.854
			c14.127-0.012,26.788-8.721,31.852-21.908c1.475-3.908,2.237-8.048,2.25-12.225C290.124,272.31,274.853,257.04,256.01,257.02z"/>
		<path d="M238.952,257.02c-0.565,0-1.129-0.056-1.683-0.167c-44.192-8.838-87.184-42.925-88.992-44.371
			c-3.646-2.953-4.224-8.296-1.294-11.961s8.269-4.276,11.952-1.369c0.417,0.329,41.617,32.95,81.683,40.967
			c4.298,0.862,7.244,4.841,6.814,9.204C247.002,253.687,243.336,257.014,238.952,257.02z"/>
		<path d="M153.602,291.154c-3.912-0.001-7.321-2.666-8.267-6.462c-5.133-24.413,2.09-49.787,19.309-67.837
			c3.329-3.32,8.717-3.321,12.047-0.001c3.33,3.32,3.346,8.708,0.036,12.047c-13.048,13.781-18.583,33.044-14.842,51.65
			c0.639,2.55,0.066,5.253-1.552,7.325C158.714,289.946,156.231,291.156,153.602,291.154z"/>
		<path d="M213.344,291.154h-68.267c-4.713,0-8.533-3.821-8.533-8.533c0-4.713,3.821-8.533,8.533-8.533h68.267
			c4.713,0,8.533,3.821,8.533,8.533C221.877,287.333,218.057,291.154,213.344,291.154z"/>
		<path d="M273.068,257.02c-4.384-0.006-8.05-3.333-8.481-7.696c-0.43-4.363,2.516-8.342,6.814-9.204
			c40.166-8.033,81.267-40.633,81.675-40.962c2.379-1.916,5.601-2.415,8.448-1.307c2.847,1.108,4.885,3.653,5.342,6.674
			c0.458,3.021-0.734,6.055-3.124,7.958c-1.808,1.446-44.8,35.533-88.992,44.371C274.198,256.964,273.634,257.02,273.068,257.02z"/>
		<path d="M358.419,291.154c-2.629,0.003-5.113-1.207-6.731-3.279c-1.618-2.072-2.191-4.775-1.552-7.325
			c3.744-18.607-1.795-37.873-14.851-51.65c-3.3-3.343-3.278-8.725,0.051-12.041c3.328-3.316,8.71-3.318,12.041-0.005
			c17.219,18.051,24.441,43.425,19.308,67.838C365.738,288.486,362.33,291.15,358.419,291.154L358.419,291.154z"/>
		<path d="M366.944,291.154h-68.267c-4.713,0-8.533-3.821-8.533-8.533c0-4.713,3.82-8.533,8.533-8.533h68.267
			c4.713,0,8.533,3.821,8.533,8.533C375.477,287.333,371.656,291.154,366.944,291.154z"/>
		<path d="M196.277,205.82c-2.263,0.001-4.434-0.898-6.035-2.499c-1.6-1.6-2.499-3.771-2.499-6.035v-128
			c0-4.713,3.821-8.533,8.533-8.533s8.533,3.82,8.533,8.533v128c0.001,2.263-0.898,4.434-2.499,6.035
			C200.711,204.922,198.54,205.821,196.277,205.82L196.277,205.82z"/>
		<path d="M204.81,129.02h-17.067c-4.713,0-8.533-3.821-8.533-8.533c0-4.713,3.821-8.533,8.533-8.533h17.067
			c4.713,0,8.533,3.821,8.533,8.533C213.344,125.2,209.523,129.02,204.81,129.02z"/>
		<path d="M315.744,205.82c-2.263,0.001-4.434-0.898-6.035-2.499c-1.6-1.6-2.499-3.771-2.499-6.035v-128
			c0-4.713,3.82-8.533,8.533-8.533s8.533,3.82,8.533,8.533v128c0.001,2.263-0.898,4.434-2.499,6.035
			C320.178,204.922,318.007,205.821,315.744,205.82L315.744,205.82z"/>
		<path d="M324.277,129.02H307.21c-4.713,0-8.533-3.821-8.533-8.533c0-4.713,3.821-8.533,8.533-8.533h17.067
			c4.713,0,8.533,3.821,8.533,8.533C332.81,125.2,328.99,129.02,324.277,129.02z"/>
	</g>
	<path id="SVGCleanerId_0" d="M412.51,461.82h-69.633c-4.713,0-8.533-3.82-8.533-8.533s3.82-8.533,8.533-8.533h69.633
		c-16.142-24.017-11.583-67.367-11.383-69.2c0.477-4.326,4.132-7.6,8.483-7.6h50.692c-9.513-14.929-15.029-32.054-16.017-49.729
		c-0.421-4.767,1.183-9.492,4.418-13.018c3.236-3.526,7.805-5.529,12.591-5.519h20.425c-15.217-23.538-20.617-65.434-20.842-67.204
		c-0.38-3.025,0.882-6.023,3.311-7.865c2.429-1.842,5.657-2.248,8.467-1.065c2.81,1.183,4.775,3.775,5.155,6.8
		c0.05,0.396,5.15,39.838,18.25,60.196c3.354,5.241,3.582,11.894,0.594,17.352c-2.987,5.458-8.714,8.852-14.936,8.852h-20.425
		c0.811,14.47,5.145,28.524,12.625,40.937c3.876,5.277,4.45,12.287,1.483,18.125c-2.891,5.674-8.732,9.234-15.1,9.204h-42.733
		c-0.55,13.983,0.525,37.495,9.2,50.467c3.457,5.137,3.79,11.763,0.867,17.221C424.676,458.318,418.853,461.826,412.51,461.82
		L412.51,461.82z"/>
	<g>
		<path id="SVGCleanerId_0_1_" d="M412.51,461.82h-69.633c-4.713,0-8.533-3.82-8.533-8.533s3.82-8.533,8.533-8.533h69.633
			c-16.142-24.017-11.583-67.367-11.383-69.2c0.477-4.326,4.132-7.6,8.483-7.6h50.692c-9.513-14.929-15.029-32.054-16.017-49.729
			c-0.421-4.767,1.183-9.492,4.418-13.018c3.236-3.526,7.805-5.529,12.591-5.519h20.425c-15.217-23.538-20.617-65.434-20.842-67.204
			c-0.38-3.025,0.882-6.023,3.311-7.865c2.429-1.842,5.657-2.248,8.467-1.065c2.81,1.183,4.775,3.775,5.155,6.8
			c0.05,0.396,5.15,39.838,18.25,60.196c3.354,5.241,3.582,11.894,0.594,17.352c-2.987,5.458-8.714,8.852-14.936,8.852h-20.425
			c0.811,14.47,5.145,28.524,12.625,40.937c3.876,5.277,4.45,12.287,1.483,18.125c-2.891,5.674-8.732,9.234-15.1,9.204h-42.733
			c-0.55,13.983,0.525,37.495,9.2,50.467c3.457,5.137,3.79,11.763,0.867,17.221C424.676,458.318,418.853,461.826,412.51,461.82
			L412.51,461.82z"/>
	</g>
</g>
<g>
</g>
<g>
</g>
<g>
</g>
<g>
</g>
<g>
</g>
<g>
</g>
<g>
</g>
<g>
</g>
<g>
</g>
<g>
</g>
<g>
</g>
<g>
</g>
<g>
</g>
<g>
</g>
<g>
</g>
</svg>
