<?xml version="1.0" encoding="iso-8859-1"?>
<!-- Generator: Adobe Illustrator 19.0.0, SVG Export Plug-In . SVG Version: 6.00 Build 0)  -->
<svg version="1.1" id="Capa_1" xmlns="http://www.w3.org/2000/svg" xmlns:xlink="http://www.w3.org/1999/xlink" x="0px" y="0px"
	 viewBox="0 0 512.019 512.019" style="enable-background:new 0 0 512.019 512.019;" xml:space="preserve">
<g>
	<path style="fill:#FFA800;" d="M503.467,307.21c0,100.096-69.358,182.443-158.102,192c-9.079,2.831-18.535,4.27-28.045,4.267
		c-8.212,0.003-16.388-1.087-24.311-3.243c-0.702,0.266-1.418,0.494-2.145,0.683c-11.619,3.413-23.974,3.413-35.592,0
		c-0.727-0.189-1.443-0.417-2.145-0.683c-7.924,2.155-16.1,3.246-24.311,3.243c-9.51,0.003-18.966-1.435-28.045-4.267
		c-88.744-9.557-158.102-91.904-158.102-192s69.358-182.443,158.102-192c9.079-2.832,18.535-4.27,28.045-4.267
		c8.959-0.02,17.873,1.274,26.456,3.84c11.312-5.12,24.281-5.12,35.593,0c8.584-2.566,17.497-3.86,26.457-3.84
		c9.51-0.004,18.966,1.435,28.045,4.267C434.109,124.768,503.467,207.114,503.467,307.21z"/>
	<path style="fill:#FFFFFF;" d="M469.334,307.21c0,100.096-69.358,182.443-158.102,192c-9.079,2.831-18.535,4.27-28.045,4.267
		c-8.212,0.003-16.388-1.087-24.311-3.243c-0.702,0.266-1.418,0.494-2.145,0.683c-11.619,3.413-23.974,3.413-35.593,0
		c-0.727-0.189-1.443-0.417-2.145-0.683c-7.924,2.155-16.1,3.246-24.311,3.243c-9.51,0.003-18.966-1.435-28.045-4.267
		c-88.744-9.557-158.102-91.904-158.102-192s69.358-182.443,158.102-192c9.079-2.832,18.535-4.27,28.045-4.267
		c8.959-0.02,17.873,1.274,26.456,3.84c11.312-5.12,24.281-5.12,35.593,0c8.584-2.566,17.497-3.86,26.457-3.84
		c9.51-0.004,18.966,1.435,28.045,4.267C399.976,124.768,469.334,207.114,469.334,307.21z"/>
	<path style="fill:#FEDD0A;" d="M477.867,307.21c0,100.096-66.802,182.443-152.241,192c-8.73,2.831-17.85,4.27-27.027,4.267
		c-7.911-0.002-15.784-1.093-23.397-3.243c-0.686,0.266-1.387,0.494-2.098,0.683c-11.147,3.413-23.061,3.413-34.208,0
		c-0.711-0.189-1.412-0.417-2.098-0.683c-7.613,2.15-15.486,3.241-23.397,3.243c-9.177,0.004-18.298-1.436-27.027-4.267
		c-85.439-9.557-152.241-91.904-152.241-192s66.802-182.443,152.241-192c8.73-2.831,17.85-4.271,27.027-4.267
		c8.643-0.015,17.239,1.28,25.495,3.84c4.437-2.048,2.691-3.84,2.691-3.84s-25.172-54.443,0-102.4L297.66,25.61
		c-31.626,29.696-14.925,81.579-13.554,85.504c1.21-0.171,13.283-0.171,14.493-0.171c9.177-0.004,18.298,1.436,27.027,4.267
		C411.065,124.768,477.867,207.114,477.867,307.21z"/>
	<g>
		<path style="fill:#FC7308;" d="M114.173,256.667c-4.271,6.352-6.218,13.984-5.511,21.606
			c2.585,17.979,30.176,27.233,44.859,30.907c10.817,3.628,22.394,4.373,33.586,2.16c9.874-3.196,17.15-11.619,18.877-21.852"/>
		<path style="fill:#FC7308;" d="M397.829,256.667c4.271,6.352,6.218,13.984,5.511,21.606
			c-2.585,17.979-30.176,27.233-44.859,30.907c-10.817,3.628-22.394,4.373-33.586,2.16c-9.874-3.196-17.15-11.619-18.877-21.852"/>
	</g>
	<g>
		<polyline style="fill:#FFA800;" points="230.401,392.544 204.801,435.21 170.411,380.17 167.595,375.648 		"/>
		<polyline style="fill:#FFA800;" points="121.601,348.938 138.07,407.136 170.411,380.17 172.63,378.378 		"/>
		<polyline style="fill:#FFA800;" points="230.401,392.544 256.001,443.744 281.601,392.544 		"/>
		<polyline style="fill:#FFA800;" points="281.601,392.544 307.201,435.21 341.59,380.17 344.406,375.648 		"/>
		<polyline style="fill:#FFA800;" points="390.401,348.938 373.931,407.136 341.59,380.17 339.371,378.378 		"/>
	</g>
	<g>
		<path d="M186.534,179.214c-2.899-0.007-5.597-1.485-7.165-3.924c-1.568-2.439-1.791-5.507-0.594-8.147
			c1.442-3.175,2.992-6.258,4.625-9.25c9.699-19.826,24.884-36.454,43.75-47.908c4.158-2.218,9.327-0.646,11.546,3.512
			c2.218,4.158,0.646,9.327-3.512,11.546c-15.906,9.906-28.669,24.13-36.801,41.013c-1.434,2.637-2.8,5.354-4.075,8.154
			C192.924,177.26,189.883,179.217,186.534,179.214L186.534,179.214z"/>
		<path d="M11.484,281.606c-0.494-0.001-0.988-0.043-1.475-0.125c-4.642-0.813-7.749-5.232-6.942-9.875
			c14.8-87.743,85.995-155.03,174.433-164.858c4.69-0.469,8.872,2.952,9.342,7.642c0.469,4.69-2.952,8.872-7.642,9.342
			c-80.828,9.044-145.854,70.598-159.317,150.808C19.171,278.622,15.628,281.602,11.484,281.606L11.484,281.606z"/>
		<path d="M178.359,507.714c-0.287,0-0.573-0.013-0.858-0.042C89.063,497.845,17.867,430.557,3.067,342.814
			c-0.799-4.639,2.308-9.049,6.945-9.857c4.637-0.809,9.053,2.289,9.872,6.924c13.463,80.21,78.489,141.764,159.317,150.808
			c4.527,0.449,7.906,4.37,7.681,8.913S182.908,507.714,178.359,507.714L178.359,507.714z"/>
		<path d="M8.534,315.744c-2.259-0.033-4.422-0.917-6.059-2.475c-3.3-3.365-3.3-8.752,0-12.117c3.421-3.158,8.695-3.158,12.117,0
			c3.3,3.365,3.3,8.752,0,12.117C12.964,314.838,10.796,315.724,8.534,315.744z"/>
		<path d="M325.551,179.464c-2.264,0.003-4.435-0.897-6.033-2.5c-0.872-0.874-1.546-1.926-1.975-3.083
			c-1.233-2.683-2.55-5.292-3.925-7.829c-1.47-2.678-1.395-5.937,0.195-8.544s4.453-4.167,7.506-4.087
			c3.053,0.08,5.831,1.786,7.283,4.473c1.567,2.867,3.047,5.815,4.442,8.846c1.865,3.349,1.269,7.531-1.458,10.225
			C329.986,178.567,327.814,179.467,325.551,179.464z"/>
		<path d="M256.001,512.01c-7.218,0.002-14.403-0.96-21.367-2.859c-2.116-0.583-4.242-1.229-6.467-2.063
			c-17.28-6.567-32.449-17.708-43.883-32.233l-0.258-0.333c-1.127-1.492-1.741-3.309-1.75-5.179
			c-0.001-3.671,2.346-6.93,5.828-8.094c3.481-1.163,7.317,0.031,9.522,2.964c9.486,12.071,22.065,21.346,36.4,26.842
			c1.85,0.692,3.475,1.188,5.108,1.629c11.045,2.997,22.688,2.999,33.733,0.004c1.633-0.446,3.258-0.942,4.966-1.583
			c14.453-5.517,27.13-14.869,36.667-27.05c2.982-3.65,8.359-4.191,12.008-1.208c3.65,2.982,4.191,8.359,1.208,12.008
			c-11.47,14.56-26.69,25.721-44.025,32.283c-2.083,0.783-4.208,1.429-6.325,2.012C270.404,511.051,263.218,512.012,256.001,512.01
			L256.001,512.01z"/>
		<path d="M186.534,179.214c-2.899-0.007-5.597-1.485-7.165-3.924c-1.568-2.439-1.791-5.507-0.594-8.147
			c1.442-3.175,2.992-6.258,4.625-9.25c1.444-2.701,4.226-4.421,7.288-4.505c3.062-0.084,5.934,1.48,7.525,4.097
			c1.591,2.618,1.656,5.888,0.17,8.566c-1.434,2.642-2.8,5.358-4.075,8.158C192.924,177.26,189.883,179.217,186.534,179.214
			L186.534,179.214z"/>
		<path d="M333.642,507.714c-4.549,0-8.298-3.569-8.523-8.112s3.154-8.464,7.681-8.913
			c93.269-10.206,163.483-89.663,162.133-183.479c1.349-93.816-68.864-173.274-162.133-183.479c-4.682-0.478-8.093-4.657-7.625-9.34
			c0.469-4.683,4.641-8.103,9.325-7.643c102.005,11.056,178.874,97.869,177.5,200.462c1.374,102.593-75.495,189.406-177.5,200.462
			C334.215,507.701,333.929,507.715,333.642,507.714z"/>
		<path d="M325.551,179.464c-3.575-0.002-6.77-2.23-8.008-5.583c-1.233-2.683-2.55-5.292-3.925-7.829
			c-8.133-16.881-20.895-31.102-36.8-41.008c-4.158-2.218-5.731-7.388-3.512-11.546s7.388-5.731,11.546-3.512
			c18.866,11.454,34.05,28.08,43.75,47.904c1.567,2.871,3.047,5.821,4.442,8.85c1.865,3.349,1.269,7.531-1.458,10.225
			C329.986,178.567,327.814,179.467,325.551,179.464z"/>
		<path d="M200.959,295.589c-5.576-0.01-11.117-0.884-16.425-2.592c-30.456-8.566-59.545-21.403-86.4-38.129
			c-4.08-2.358-5.477-7.575-3.121-11.656s7.573-5.481,11.655-3.127c25.792,16.119,53.759,28.462,83.05,36.654
			c10.383,3.659,21.91,1.859,30.683-4.792c15.508-12.492,9.267-28.638,4.167-37.15c-1.579-2.615-1.64-5.874-0.16-8.546
			c1.48-2.672,4.276-4.348,7.33-4.396c3.054-0.047,5.901,1.542,7.463,4.167c13.141,21.921,10.042,44.612-8.1,59.217
			C222.532,292.034,211.894,295.687,200.959,295.589z"/>
		<path d="M176.192,321.298c-8.376-0.266-16.687-1.555-24.75-3.837c-21.65-5.421-48.125-16.408-51.233-37.971
			c-1.03-9.652,1.368-19.359,6.775-27.421c1.643-2.569,4.533-4.067,7.58-3.928c3.047,0.139,5.788,1.892,7.192,4.6
			s1.256,5.959-0.388,8.528c-3.164,4.629-4.665,10.195-4.258,15.788c1.308,9.096,16.05,18.233,38.483,23.846
			c9.387,3.207,19.436,3.973,29.2,2.225c6.926-2.381,11.921-8.457,12.917-15.713c0.736-2.961,2.997-5.303,5.93-6.143
			c2.933-0.84,6.091-0.05,8.282,2.073c2.192,2.122,3.083,5.253,2.338,8.212c-2.426,13.224-11.993,24.009-24.833,27.996
			C185.117,320.743,180.663,321.33,176.192,321.298z"/>
		<path d="M311.042,295.589c-10.935,0.1-21.574-3.553-30.141-10.35c-18.142-14.604-21.242-37.296-8.1-59.217
			c1.562-2.625,4.409-4.214,7.463-4.167c3.054,0.047,5.85,1.724,7.33,4.396c1.48,2.672,1.419,5.931-0.16,8.546
			c-5.1,8.513-11.342,24.658,4.167,37.15c8.777,6.643,20.299,8.442,30.683,4.792c29.291-8.192,57.258-20.535,83.05-36.654
			c4.082-2.353,9.299-0.954,11.655,3.127s0.958,9.298-3.121,11.656c-26.855,16.726-55.944,29.563-86.4,38.129
			C322.159,294.705,316.618,295.579,311.042,295.589z"/>
		<path d="M335.809,321.298c-4.471,0.033-8.924-0.555-13.233-1.746c-12.841-3.987-22.407-14.771-24.833-27.996
			c-0.745-2.958,0.146-6.089,2.338-8.212c2.192-2.122,5.35-2.913,8.282-2.073c2.933,0.84,5.194,3.182,5.93,6.143
			c0.996,7.255,5.991,13.332,12.917,15.712c9.765,1.747,19.813,0.981,29.2-2.225c22.433-5.612,37.175-14.75,38.483-23.846
			c0.407-5.593-1.094-11.158-4.258-15.788c-2.528-3.971-1.364-9.239,2.602-11.776s9.236-1.384,11.782,2.576
			c5.407,8.062,7.805,17.769,6.775,27.421c-3.108,21.563-29.583,32.55-51.233,37.971
			C352.496,319.743,344.185,321.031,335.809,321.298L335.809,321.298z"/>
		<path d="M278.826,401.077h-45.65c-25.683-0.006-50.905-6.826-73.092-19.763l-44.85-26.163c-2.639-1.54-5.9-1.551-8.55-0.029
			c-2.65,1.522-4.283,4.344-4.283,7.4c0,4.713-3.821,8.533-8.533,8.533c-4.713,0-8.533-3.821-8.533-8.533
			c0-9.167,4.901-17.634,12.85-22.2c7.949-4.566,17.733-4.532,25.65,0.087l44.85,26.163c19.577,11.414,41.831,17.431,64.492,17.438
			h45.65c22.661-0.006,44.915-6.023,64.492-17.438l44.85-26.163c7.918-4.62,17.701-4.653,25.65-0.087
			c7.949,4.566,12.85,13.033,12.85,22.2c0,4.713-3.82,8.533-8.533,8.533s-8.533-3.821-8.533-8.533c0-3.056-1.634-5.878-4.283-7.4
			c-2.65-1.522-5.911-1.511-8.55,0.029l-44.85,26.163C329.73,394.251,304.509,401.07,278.826,401.077z"/>
		<path d="M204.801,443.744c-2.942,0-5.676-1.517-7.233-4.012l-37.217-59.571c-2.492-3.999-1.27-9.262,2.729-11.754
			c3.999-2.492,9.262-1.27,11.754,2.729l29.817,47.734l18.433-30.717c1.569-2.614,4.413-4.192,7.462-4.141s5.837,1.726,7.317,4.392
			c1.479,2.666,1.424,5.918-0.145,8.532l-25.6,42.667c-1.528,2.547-4.271,4.116-7.242,4.141H204.801z"/>
		<path d="M138.067,415.669c-0.856-0.001-1.707-0.129-2.525-0.379c-2.759-0.855-4.898-3.049-5.683-5.829l-16.467-58.196
			c-0.839-2.935-0.045-6.095,2.081-8.285c2.126-2.191,5.26-3.078,8.219-2.328c2.959,0.75,5.291,3.024,6.117,5.963l12.892,45.55
			l24.583-20.434c2.374-1.917,5.591-2.421,8.437-1.32c2.846,1.1,4.888,3.637,5.355,6.652c0.467,3.015-0.712,6.05-3.092,7.96
			l-2.225,1.792l-32.225,26.875C141.999,414.967,140.065,415.667,138.067,415.669z"/>
		<path d="M256.001,452.277c-3.232,0-6.187-1.826-7.633-4.717l-25.6-51.2c-1.375-2.729-1.187-5.984,0.494-8.536
			c1.681-2.552,4.598-4.01,7.647-3.824c3.05,0.186,5.767,1.989,7.125,4.726l17.967,35.937l17.967-35.938
			c1.358-2.737,4.075-4.54,7.125-4.726s5.967,1.272,7.647,3.824c1.681,2.552,1.869,5.807,0.494,8.536l-25.6,51.2
			C262.188,450.451,259.233,452.277,256.001,452.277L256.001,452.277z"/>
		<path d="M307.201,443.744h-0.075c-2.97-0.026-5.713-1.595-7.242-4.142l-25.6-42.667c-1.569-2.614-1.624-5.866-0.145-8.532
			c1.479-2.666,4.268-4.34,7.317-4.392c3.048-0.052,5.893,1.527,7.462,4.141l18.433,30.717l29.817-47.733
			c2.5-3.982,7.749-5.191,11.739-2.705c3.99,2.486,5.217,7.731,2.745,11.73l-37.217,59.571
			C312.876,442.227,310.142,443.743,307.201,443.744L307.201,443.744z"/>
		<path d="M373.934,415.669c-1.997-0.001-3.931-0.701-5.467-1.979l-34.45-28.667c-3.671-2.955-4.251-8.326-1.296-11.996
			c2.955-3.671,8.326-4.251,11.996-1.296l2.225,1.792l22.358,18.642l12.892-45.55c0.825-2.939,3.158-5.213,6.117-5.963
			c2.959-0.75,6.093,0.137,8.219,2.328s2.919,5.35,2.081,8.285l-16.467,58.196c-0.785,2.78-2.924,4.974-5.683,5.829
			C375.641,415.54,374.79,415.668,373.934,415.669L373.934,415.669z"/>
		<path d="M284.376,119.873c-3.554,0-6.736-2.205-7.983-5.533c-0.925-2.462-22.167-60.713,16.617-95.113
			c3.532-3.061,8.87-2.711,11.972,0.786c3.102,3.497,2.813,8.838-0.647,11.981c-29.967,26.579-12.142,75.875-11.958,76.367
			c0.975,2.62,0.605,5.552-0.991,7.847C289.79,118.503,287.171,119.872,284.376,119.873L284.376,119.873z"/>
		<path d="M239.384,119.473c-3.259,0.003-6.235-1.852-7.667-4.779c-1.167-2.383-28.242-58.988,0.2-110.288
			c1.927-3.479,6.003-5.165,9.825-4.062l59.283,17.067c2.93,0.843,5.187,3.184,5.922,6.142c0.735,2.958-0.164,6.084-2.358,8.2
			c-2.194,2.116-5.351,2.9-8.281,2.058l-52.483-15.108c-18.892,41.929,2.992,88.021,3.233,88.504
			c1.284,2.645,1.117,5.765-0.443,8.257C245.057,117.956,242.324,119.471,239.384,119.473L239.384,119.473z"/>
		<path d="M78.593,230.414c-2.772-0.003-5.37-1.351-6.968-3.615s-1.999-5.164-1.073-7.777
			c20.2-56.908,59.617-98.779,105.433-112.012c20.629-5.949,42.498-6.102,63.208-0.442c3.506,0.988,5.999,4.092,6.208,7.729
			s-1.913,7.005-5.283,8.388c-1.633,0.651-3.223,1.406-4.758,2.263c-15.983,9.908-28.81,24.168-36.975,41.108
			c-1.434,2.637-2.8,5.354-4.075,8.154c-1.256,2.786-3.905,4.687-6.946,4.986c-3.041,0.298-6.009-1.052-7.782-3.54
			c-1.773-2.488-2.08-5.735-0.805-8.512c1.442-3.175,2.992-6.258,4.625-9.25c7.524-14.474,17.622-27.455,29.8-38.308
			c-10.961-0.508-21.931,0.783-32.475,3.821c-40.55,11.713-75.725,49.592-94.092,101.325
			C85.427,228.136,82.206,230.412,78.593,230.414z"/>
		<path d="M208.467,512.01c-10.993,0.002-21.932-1.548-32.492-4.604c-40.85-11.808-76.692-46.179-98.342-94.296
			c-1.261-2.782-0.938-6.027,0.846-8.506c1.784-2.48,4.757-3.817,7.796-3.506c3.039,0.311,5.68,2.222,6.925,5.012
			c19.583,43.537,51.483,74.483,87.517,84.904c16.873,4.876,34.735,5.203,51.775,0.946c4.563-1.136,9.186,1.632,10.338,6.191
			c1.152,4.559-1.6,9.191-6.155,10.359C227.453,510.834,217.978,512.01,208.467,512.01L208.467,512.01z"/>
		<path d="M433.409,230.414c-3.613-0.002-6.834-2.278-8.042-5.683c-18.366-51.733-53.541-89.613-94.083-101.321
			c-10.538-3.051-21.508-4.343-32.467-3.825c12.167,10.858,22.259,23.837,29.783,38.304c1.567,2.871,3.047,5.821,4.442,8.85
			c1.865,3.349,1.269,7.531-1.458,10.225c-2.058,2.056-5.022,2.923-7.864,2.299c-2.842-0.624-5.17-2.653-6.178-5.382
			c-1.233-2.683-2.55-5.292-3.925-7.829c-8.133-16.881-20.895-31.102-36.8-41.008c-1.591-0.893-3.239-1.681-4.933-2.358
			c-3.37-1.383-5.492-4.751-5.283-8.388s2.702-6.741,6.208-7.729c20.713-5.665,42.586-5.51,63.217,0.446
			c45.808,13.229,85.225,55.1,105.425,112.009c0.925,2.613,0.525,5.512-1.073,7.777C438.778,229.064,436.18,230.412,433.409,230.414
			L433.409,230.414z"/>
		<path d="M303.534,512.01c-9.511-0.001-18.986-1.176-28.208-3.5c-4.555-1.168-7.307-5.8-6.155-10.359
			c1.152-4.559,5.775-7.327,10.338-6.191c17.037,4.257,34.897,3.931,51.767-0.946c36.042-10.421,67.942-41.367,87.525-84.904
			c1.245-2.79,3.886-4.701,6.925-5.012c3.039-0.311,6.012,1.026,7.796,3.506c1.784,2.48,2.107,5.724,0.846,8.506
			c-21.65,48.117-57.492,82.487-98.35,94.296C325.46,510.463,314.525,512.013,303.534,512.01L303.534,512.01z"/>
	</g>
</g>
<g>
</g>
<g>
</g>
<g>
</g>
<g>
</g>
<g>
</g>
<g>
</g>
<g>
</g>
<g>
</g>
<g>
</g>
<g>
</g>
<g>
</g>
<g>
</g>
<g>
</g>
<g>
</g>
<g>
</g>
</svg>
