<?xml version="1.0" encoding="iso-8859-1"?>
<!-- Generator: Adobe Illustrator 19.0.0, SVG Export Plug-In . SVG Version: 6.00 Build 0)  -->
<svg version="1.1" id="Capa_1" xmlns="http://www.w3.org/2000/svg" xmlns:xlink="http://www.w3.org/1999/xlink" x="0px" y="0px"
	 viewBox="0 0 512.021 512.021" style="enable-background:new 0 0 512.021 512.021;" xml:space="preserve">
<g transform="translate(0 -1)">
	<g>
		<path style="fill:#FFA800;" d="M481.789,309.643h-20.227c-2.379-0.002-4.649,0.995-6.258,2.747
			c-1.609,1.752-2.409,4.099-2.205,6.469c0.861,16.019,5.72,31.568,14.133,45.227c1.968,2.579,2.319,6.046,0.906,8.967
			c-1.413,2.921-4.348,4.799-7.592,4.857h-50.271l-1.693-0.427c2.09-9.272,2.406-18.856,0.931-28.245
			c-2.369-16.896-10.41-32.513-11.933-49.493c-0.622-16.722,0.799-33.457,4.232-49.835c16.778-34.712,16.934-75.155,0.423-109.995
			c-8.098-17.05-19.521-32.311-33.599-44.885c-14.675-12.949-31.522-23.204-49.764-30.293c-4.232-1.621-8.633-3.072-13.118-4.352
			c-2.539-0.768-5.163-1.451-7.786-2.048c-2.369-0.597-4.824-1.109-7.278-1.536c-2.708-0.597-5.332-1.024-8.04-1.365
			c-2.708-0.427-5.416-0.768-8.124-1.024c-5.417-0.512-11.003-0.768-16.588-0.768c-20.819-0.057-41.472,3.703-60.935,11.093
			c-18.315,6.942-35.186,17.212-49.764,30.293c-14.077,12.575-25.5,27.835-33.599,44.885c-16.511,34.84-16.355,75.283,0.423,109.995
			c3.433,16.378,4.854,33.113,4.232,49.835c-1.523,16.981-9.563,32.597-11.933,49.493c-1.475,9.389-1.159,18.973,0.931,28.245
			l-1.693,0.427H55.329c-3.244-0.058-6.179-1.936-7.592-4.857c-1.413-2.921-1.062-6.388,0.906-8.967
			c8.413-13.659,13.272-29.208,14.133-45.227c0.204-2.37-0.596-4.717-2.205-6.469c-1.609-1.752-3.879-2.749-6.258-2.747H34.086
			c-0.919-0.01-1.831-0.154-2.708-0.427c-1.983-0.689-3.641-2.087-4.655-3.925c-1.569-2.716-1.47-6.084,0.254-8.704
			c14.218-22.272,19.381-63.744,19.381-63.744h0.17c-0.085-2.816-0.169-5.717-0.169-8.533
			c-0.24-56.349,21.918-110.485,61.599-150.494s93.632-62.614,149.981-62.839c38.251-0.061,75.783,10.389,108.498,30.208
			C430.579,79.881,469.71,149.398,469.518,224.31c0,2.816-0.085,5.717-0.169,8.533h0.169c0,0,5.163,41.472,19.381,63.744
			c1.659,2.607,1.772,5.91,0.294,8.624C487.715,307.925,484.88,309.622,481.789,309.643z"/>
		<path style="fill:#FFA800;" d="M408.844,349.238c1.487,9.389,1.169,18.976-0.939,28.245c-2.333,10.75-8.263,20.382-16.811,27.307
			c-12.774,9.668-24.681,20.433-35.584,32.171c-4.747,5.515-8.974,11.457-12.629,17.749c-5.035,8.363-9.472,17.067-14.677,25.515
			c-15.275,24.747-45.739,25.685-72.192,25.685c-3.84,0-7.765,0-11.691-0.171c-1.195,0-2.304,0-3.499-0.085
			c-5.114-0.155-10.214-0.611-15.275-1.365c-3.303-0.481-6.579-1.136-9.813-1.963c-1.362-0.308-2.702-0.707-4.011-1.195
			c-0.597-0.171-1.109-0.341-1.621-0.512c-1.256-0.395-2.483-0.879-3.669-1.451c-1.067-0.351-2.096-0.808-3.072-1.365
			c-0.926-0.399-1.811-0.884-2.645-1.451c-3.934-2.165-7.528-4.896-10.667-8.107c-0.853-0.939-1.792-1.963-2.645-2.987
			c-0.171-0.256-0.341-0.427-0.512-0.683c-1.12-1.381-2.146-2.835-3.072-4.352c-5.205-8.448-9.643-17.152-14.677-25.515
			c-3.655-6.292-7.883-12.234-12.629-17.749c-10.903-11.738-22.81-22.502-35.584-32.171c-8.547-6.924-14.478-16.557-16.811-27.307
			c-2.107-9.27-2.426-18.856-0.939-28.245c2.389-16.896,10.496-32.513,12.032-49.493c0.627-16.724-0.806-33.461-4.267-49.835
			c-16.917-34.679-17.074-75.185-0.427-109.995c8.183-17.073,19.702-32.335,33.877-44.885
			c14.722-13.095,31.731-23.365,50.176-30.293c19.638-7.393,40.457-11.152,61.44-11.093c5.632,0,11.264,0.256,16.725,0.768
			c2.731,0.256,5.461,0.597,8.192,1.024c2.731,0.341,5.376,0.768,8.107,1.365c2.475,0.427,4.949,0.939,7.339,1.536
			c2.645,0.597,5.291,1.28,7.851,2.048c4.523,1.28,8.96,2.731,13.227,4.352c18.445,6.928,35.454,17.198,50.176,30.293
			c14.176,12.55,25.694,27.812,33.877,44.885c16.647,34.81,16.49,75.315-0.427,109.995c-3.461,16.374-4.894,33.111-4.267,49.835
			C398.348,316.725,406.455,332.341,408.844,349.238z"/>
	</g>
	<path style="fill:#FEDD0A;" d="M385.265,340.704c2.967,20.48-0.96,42.069-18.146,55.552c-13.037,9.648-25.21,20.412-36.381,32.171
		c-10.55,13.579-19.892,28.056-27.918,43.264c-15.617,24.747-46.763,25.685-73.808,25.685c-8.678,0.122-17.357-0.219-25.999-1.024
		c-4.011-2.157-7.685-4.888-10.906-8.107c-0.873-0.939-1.832-1.963-2.705-2.987c-0.175-0.256-0.349-0.427-0.523-0.683
		c-1.144-1.379-2.193-2.832-3.141-4.352c-5.322-8.448-9.859-17.152-15.006-25.515c-3.745-6.304-8.067-12.246-12.912-17.749
		c-11.171-11.759-23.344-22.523-36.381-32.171c-8.697-6.857-14.766-16.5-17.187-27.307c-2.154-9.263-2.48-18.857-0.96-28.245
		c2.443-16.896,10.731-32.513,12.301-49.493c0.641-16.729-0.825-33.472-4.362-49.835c-17.295-34.59-17.457-75.269-0.436-109.995
		c8.414-17.136,20.193-32.401,34.636-44.885c15.115-13.133,32.5-23.399,51.299-30.293c20.113-7.4,41.384-11.156,62.816-11.093
		c5.758,0,11.516,0.256,17.1,0.768c2.792,0.256,5.584,0.597,8.375,1.024c2.792,0.341,5.496,0.768,8.288,1.365
		c18.239,6.858,35.109,16.914,49.816,29.696c14.442,12.484,26.221,27.75,34.636,44.885c17.021,34.726,16.859,75.405-0.436,109.995
		c-3.537,16.363-5.003,33.106-4.362,49.835C374.534,308.192,382.822,323.808,385.265,340.704z"/>
	<g>
		<path style="fill:#FFA800;" d="M153.612,270.961c0,0,17.067-19.559,34.133-9.779c17.067,9.78,25.6,19.559,34.133,19.559
			c8.533,0-17.067,19.559-34.133,19.559S153.612,290.519,153.612,270.961z"/>
		<path style="fill:#FFA800;" d="M358.412,270.96c0,0-17.067-19.559-34.133-9.779c-17.067,9.78-25.6,19.559-34.133,19.559
			s17.067,19.559,34.133,19.559C341.346,300.299,358.412,290.519,358.412,270.96z"/>
	</g>
	<path style="fill:#D22047;" d="M298.679,339.51c0,16.469-19.115,29.867-42.667,29.867c-4.277,0.033-8.543-0.425-12.715-1.365
		h-0.171c-17.237-3.84-29.781-15.189-29.781-28.501c0-13.312,12.544-24.661,29.781-28.501h0.171
		c4.172-0.94,8.438-1.398,12.715-1.365C279.564,309.643,298.679,323.04,298.679,339.51z"/>
	<path style="fill:#DB4E6C;" d="M273.079,339.51c0,13.312-12.544,24.661-29.781,28.501h-0.171
		c-17.237-3.84-29.781-15.189-29.781-28.501c0-13.312,12.544-24.661,29.781-28.501h0.171
		C260.535,314.848,273.079,326.198,273.079,339.51z"/>
	<path style="fill:#FFA800;" d="M315.66,394.293c-0.939,2.56-16.981,43.093-16.981,59.648c0,11.861-20.907,2.731-33.451,1.28
		c-6.125-0.683-12.307-0.683-18.432,0c-12.544,1.451-33.451,10.581-33.451-1.28c0-16.555-16.043-57.088-16.981-59.648
		c18.122,10.625,38.647,16.469,59.648,16.981C277.013,410.762,297.539,404.918,315.66,394.293L315.66,394.293z"/>
	<path style="fill:#FEDD0A;" d="M169.143,454.71H99.511c-3.112,0.027-5.988-1.657-7.486-4.386s-1.376-6.059,0.318-8.67
		c14.677-21.931,10.069-63.744,10.069-63.744l1.707-0.427c2.333,10.75,8.263,20.383,16.811,27.307
		c12.774,9.668,24.681,20.433,35.584,32.171C161.26,442.476,165.488,448.417,169.143,454.71L169.143,454.71z"/>
	<path style="fill:#FFA800;" d="M27.575,309.245c-1.995-0.685-3.666-2.083-4.693-3.925C24.909,305.946,26.6,307.36,27.575,309.245
		L27.575,309.245z"/>
	<g>
		<path style="fill:#FFFFFF;" d="M69.132,224.338c0,2.816,0.085,5.717,0.171,8.533h-0.171c0,0-5.205,41.472-19.541,63.744
			c-1.739,2.615-1.838,5.991-0.256,8.704c2.027,0.627,3.718,2.041,4.693,3.925c0.085,0,0.171,0.085,0.256,0.085l-0.256,1.024
			c-1.053-0.447-2.184-0.679-3.328-0.683H30.306c-0.926-0.01-1.846-0.154-2.731-0.427c-0.976-1.884-2.666-3.298-4.693-3.925
			c-1.582-2.713-1.483-6.089,0.256-8.704c14.336-22.272,19.541-63.744,19.541-63.744h0.171c-0.085-2.816-0.171-5.717-0.171-8.533
			c-0.008-56.582,22.465-110.849,62.475-150.859s94.277-62.483,150.859-62.475c4.437,0,8.96,0.171,13.312,0.427
			C156.818,18.351,69.12,111.619,69.132,224.338L69.132,224.338z"/>
		<path style="fill:#FFFFFF;" d="M78.178,377.938H51.724c-3.256-0.033-6.214-1.903-7.641-4.829c-1.427-2.927-1.079-6.408,0.9-8.994
			c8.477-13.638,13.378-29.193,14.251-45.227c0.32-3.677-1.789-7.135-5.205-8.533l0.256-1.024c0.81,0.203,1.64,0.317,2.475,0.341
			h20.395c2.388-0.013,4.672,0.978,6.295,2.73c1.623,1.752,2.435,4.106,2.239,6.486c-0.873,16.034-5.774,31.589-14.251,45.227
			c-1.979,2.586-2.327,6.068-0.9,8.994S74.922,377.905,78.178,377.938z"/>
	</g>
	<g>
		<path style="fill:#FEDD0A;" d="M453.73,304.551c-0.741,0.251-1.522,0.366-2.304,0.341h-20.395
			c-2.548,0.015-4.944,1.213-6.485,3.243c-1.507,1.876-2.239,4.257-2.048,6.656c0.842,16.666,5.546,32.908,13.739,47.445
			c0.119,0.339,0.292,0.656,0.512,0.939c3.011,4.283,2.065,10.184-2.133,13.312c-1.337,0.972-2.955,1.481-4.608,1.451h-20.395
			l-1.707-0.427c2.107-9.27,2.426-18.856,0.939-28.245c-2.389-16.896-10.496-32.512-12.032-49.493
			c-0.627-16.724,0.806-33.461,4.267-49.835c16.917-34.679,17.074-75.185,0.427-109.995c-8.183-17.073-19.702-32.335-33.877-44.885
			c-14.821-12.961-31.805-23.214-50.176-30.293c-4.267-1.621-8.704-3.072-13.227-4.352c-2.56-0.768-5.205-1.451-7.851-2.048
			c-2.389-0.597-4.864-1.109-7.339-1.536c-2.731-0.597-5.376-1.024-8.107-1.365c-2.731-0.427-5.461-0.768-8.192-1.024
			c-1.109-0.085-2.133-0.171-3.243-0.256c-4.437-0.341-8.96-0.512-13.483-0.512c-20.983-0.058-41.802,3.7-61.44,11.093
			c-18.445,6.928-35.454,17.198-50.176,30.293c-14.176,12.55-25.694,27.812-33.877,44.885c-16.647,34.81-16.49,75.315,0.427,109.995
			c3.461,16.374,4.894,33.111,4.267,49.835c-1.536,16.981-9.643,32.597-12.032,49.493c-1.487,9.389-1.169,18.976,0.939,28.245
			l-1.707,0.427H78.178c-3.256-0.033-6.214-1.903-7.641-4.83s-1.079-6.408,0.9-8.994c8.477-13.638,13.378-29.193,14.251-45.227
			c0.196-2.38-0.616-4.733-2.239-6.486c-1.623-1.752-3.907-2.743-6.295-2.73H56.759c-0.835-0.024-1.665-0.139-2.475-0.341
			c-0.085,0-0.171-0.085-0.256-0.085c-0.976-1.884-2.666-3.298-4.693-3.925c-1.582-2.713-1.483-6.089,0.256-8.704
			c14.336-22.272,19.541-63.744,19.541-63.744h0.171c-0.085-2.816-0.171-5.717-0.171-8.533
			C69.12,111.619,156.818,18.351,269.324,11.431c33.96,2.039,66.925,12.257,96.085,29.781c28.598,26.69,49.92,60.229,61.952,97.451
			c7.617,23.811,11.56,48.644,11.691,73.643v1.28c0,3.072-0.085,6.144-0.171,9.131h0.171c0,0,5.205,44.373,19.541,68.267
			c1.48,2.385,1.79,5.316,0.843,7.958C458.489,301.584,456.388,303.649,453.73,304.551z"/>
		<path style="fill:#FEDD0A;" d="M412.514,454.71h-69.632c3.655-6.292,7.883-12.234,12.629-17.749
			c10.903-11.738,22.81-22.502,35.584-32.171c8.547-6.924,14.478-16.557,16.811-27.307l1.707,0.427c0,0-4.608,41.813,10.069,63.744
			c1.694,2.611,1.816,5.942,0.318,8.67C418.502,453.052,415.626,454.737,412.514,454.71z"/>
	</g>
	<g>
		<path d="M187.746,307.408c-21.204,0-42.667-13.008-42.667-37.871c0-2.064,0.747-4.057,2.104-5.612
			c8.05-9.217,26.546-22.046,44.804-11.571c6.875,3.938,12.483,7.913,16.987,11.1c3.762,3.291,8.151,5.784,12.904,7.33
			c2.001,0.088,3.959,0.605,5.742,1.517c2.679,1.811,4.343,4.783,4.488,8.013C232.108,290.125,206.462,307.408,187.746,307.408z
			 M162.383,272.867c2.021,13.696,16.533,17.475,25.363,17.475c7.136-0.751,13.988-3.2,19.983-7.142
			c-2.742-1.654-5.563-3.65-8.617-5.817c-4.429-3.138-9.446-6.687-15.608-10.221C175.567,262.616,166.546,269.141,162.383,272.867
			L162.383,272.867z"/>
		<path d="M230.417,247.675h-0.146c-16.564-0.491-32.504-6.428-45.354-16.892c-5.203-5.06-12.175-7.89-19.433-7.888
			c-8.799,0.458-17.398,2.797-25.217,6.858c-4.234,2.013-9.3,0.234-11.344-3.985c-2.044-4.219-0.302-9.298,3.902-11.373
			c10.023-5.142,21.037-8.064,32.292-8.567c11.237-0.002,22.08,4.137,30.458,11.625c9.898,8.109,22.191,12.732,34.979,13.154
			c4.684,0.078,8.429,3.917,8.391,8.601C238.907,243.894,235.101,247.672,230.417,247.675L230.417,247.675z"/>
		<path d="M324.279,307.408c-18.717,0-44.362-17.283-44.362-27.096c-0.012-3.273,1.69-6.313,4.487-8.013
			c1.736-1.03,3.724-1.555,5.742-1.516c4.753-1.545,9.143-4.039,12.904-7.329c4.504-3.188,10.112-7.163,16.987-11.1
			c18.267-10.475,36.758,2.35,44.804,11.571c1.357,1.555,2.104,3.549,2.104,5.612C366.946,294.4,345.483,307.408,324.279,307.408z
			 M304.296,283.2c5.996,3.941,12.848,6.39,19.983,7.142c8.833,0,23.342-3.779,25.363-17.479c-4.175-3.738-13.171-10.246-21.121-5.7
			c-6.163,3.533-11.179,7.083-15.608,10.221C309.858,279.55,307.037,281.545,304.296,283.2L304.296,283.2z"/>
		<path d="M281.608,247.675c-4.684-0.003-8.491-3.781-8.528-8.465s3.707-8.523,8.391-8.601c12.788-0.422,25.081-5.045,34.979-13.154
			c8.38-7.485,19.222-11.623,30.458-11.625c11.254,0.503,22.268,3.424,32.291,8.567c4.204,2.075,5.947,7.154,3.902,11.373
			c-2.044,4.219-7.11,5.999-11.344,3.985c-7.819-4.061-16.418-6.4-25.217-6.858c-7.257-0.003-14.229,2.825-19.433,7.883
			c-12.848,10.467-28.789,16.405-45.354,16.896L281.608,247.675z"/>
		<path d="M256.012,376.487c-28.708,0-51.2-16.867-51.2-38.4s22.492-38.4,51.2-38.4s51.2,16.867,51.2,38.4
			S284.721,376.487,256.012,376.487z M256.012,316.754c-18.504,0-34.133,9.771-34.133,21.333s15.629,21.333,34.133,21.333
			c18.504,0,34.133-9.771,34.133-21.333S274.517,316.754,256.012,316.754z"/>
		<path d="M153.646,375.596c-3.434,0.006-6.536-2.054-7.862-5.222c-1.327-3.168-0.618-6.823,1.796-9.266
			c8.748-7.583,20.067-11.531,31.633-11.033c10.702-1.69,20.566-6.805,28.112-14.579c3.338-3.312,8.727-3.298,12.049,0.031
			c3.322,3.328,3.324,8.717,0.006,12.049c-2,2.004-20.142,19.567-40.166,19.567c-7.077-0.382-14.056,1.793-19.663,6.129
			C157.948,374.767,155.838,375.598,153.646,375.596z"/>
		<path d="M358.412,375.675c-2.264,0.003-4.435-0.897-6.033-2.5c-5.6-4.268-12.535-6.406-19.567-6.033
			c-20.025,0-38.167-17.563-40.166-19.567c-3.319-3.332-3.316-8.72,0.006-12.049c3.322-3.328,8.71-3.342,12.049-0.031
			c7.546,7.774,17.411,12.89,28.112,14.579c11.567-0.498,22.885,3.45,31.633,11.034c2.44,2.441,3.169,6.11,1.849,9.298
			C364.974,373.595,361.863,375.674,358.412,375.675L358.412,375.675z"/>
		<path d="M256.012,418.342c-22.37-0.464-44.249-6.649-63.55-17.967c-3.114-2.151-7.261-2.047-10.263,0.258
			c-1.568,1.225-2.887,2.738-3.888,4.458c-1.358,2.737-4.075,4.54-7.125,4.726c-3.05,0.186-5.967-1.272-7.647-3.824
			s-1.869-5.807-0.494-8.536c3.115-6.701,8.853-11.823,15.863-14.16s14.674-1.682,21.187,1.81
			c16.951,10.08,36.202,15.646,55.917,16.167c4.713,0,8.533,3.821,8.533,8.533C264.546,414.521,260.725,418.342,256.012,418.342z"/>
		<path d="M256.012,418.342c-4.713,0-8.533-3.821-8.533-8.533c0-4.713,3.821-8.533,8.533-8.533
			c19.714-0.521,38.966-6.087,55.917-16.167c6.512-3.497,14.177-4.155,21.189-1.818c7.012,2.337,12.75,7.463,15.861,14.168
			c2.097,4.202,0.405,9.309-3.787,11.427c-4.191,2.119-9.307,0.453-11.447-3.728c-1.048-2.693-3.236-4.782-5.974-5.705
			c-2.738-0.923-5.744-0.586-8.209,0.922C300.261,411.693,278.382,417.878,256.012,418.342L256.012,418.342z"/>
		<path d="M291.154,467.075c-5.68-0.296-11.31-1.216-16.788-2.746c-3.33-0.857-6.703-1.537-10.104-2.038
			c-5.481-0.625-11.015-0.625-16.496,0c-3.403,0.5-6.777,1.18-10.108,2.038c-10.704,2.517-20.804,4.896-27.725-0.579
			c-3.37-2.755-5.263-6.924-5.121-11.275c0-12.638-11.879-45.117-16.458-56.567c-1.738-4.374,0.392-9.33,4.763-11.077
			c4.37-1.747,9.331,0.373,11.087,4.74c1.729,4.329,16.329,41.308,17.587,60.425c4.032-0.495,8.027-1.257,11.958-2.279
			c3.978-1.021,8.011-1.816,12.079-2.383c6.768-0.771,13.602-0.771,20.371,0c4.066,0.568,8.098,1.363,12.075,2.383
			c3.932,1.022,7.926,1.784,11.958,2.279c1.288-19.188,15.858-56.1,17.587-60.425c1.757-4.367,6.717-6.487,11.087-4.74
			c4.37,1.747,6.501,6.703,4.763,11.077c-4.578,11.45-16.457,43.929-16.457,56.567c0.142,4.351-1.751,8.519-5.121,11.275
			C298.94,466.089,295.075,467.264,291.154,467.075L291.154,467.075z"/>
		<path d="M256.012,513.021c-24.325,0-61.087,0-79.487-29.742c-2.95-4.771-5.646-9.609-8.321-14.421
			c-5.012-9.865-11.086-19.152-18.116-27.696c-10.578-11.342-22.101-21.763-34.446-31.15
			c-17.284-13.804-24.709-36.313-20.896-63.383c1.375-8.286,3.423-16.446,6.121-24.4c2.81-7.978,4.767-16.231,5.837-24.621
			c0.616-14.748-0.582-29.515-3.567-43.971l-0.425-2.608c-17.51-36.754-17.465-79.453,0.121-116.171
			c8.639-18.116,20.834-34.31,35.859-47.617c15.494-13.807,33.414-24.621,52.85-31.896c41.588-15.475,87.354-15.475,128.942,0
			c19.436,7.275,37.356,18.089,52.85,31.896c15.025,13.306,27.219,29.5,35.854,47.617c17.59,36.716,17.636,79.417,0.125,116.171
			l-0.425,2.608c-2.985,14.456-4.183,29.223-3.567,43.971c1.073,8.389,3.029,16.642,5.833,24.621
			c2.706,7.952,4.754,16.113,6.125,24.4c3.808,27.071-3.617,49.579-20.896,63.379c-12.345,9.39-23.868,19.814-34.446,31.158
			c-7.031,8.542-13.106,17.828-18.116,27.692c-2.675,4.813-5.371,9.65-8.321,14.421C317.1,513.021,280.337,513.021,256.012,513.021z
			 M256.012,60.754c-19.955-0.058-39.754,3.517-58.429,10.55c-17.471,6.534-33.579,16.249-47.508,28.654
			c-13.327,11.789-24.146,26.139-31.812,42.196c-15.585,32.488-15.437,70.322,0.4,102.687c0.341,0.726,0.58,1.496,0.708,2.288
			l0.613,3.758c3.259,15.854,4.509,32.055,3.721,48.221c-1.16,9.601-3.351,19.049-6.537,28.179
			c-2.419,7.079-4.265,14.342-5.521,21.717c-1.7,12.079-2.058,34.333,14.646,47.671c13.124,9.989,25.363,21.091,36.58,33.183
			c7.86,9.459,14.651,19.758,20.25,30.708c2.55,4.579,5.108,9.192,7.921,13.737c12.383,20.021,36.75,21.65,64.971,21.65
			c28.221,0,52.588-1.629,64.971-21.65c2.813-4.546,5.371-9.158,7.921-13.737c5.598-10.95,12.389-21.247,20.25-30.704
			c11.217-12.095,23.455-23.2,36.579-33.192c16.696-13.333,16.346-35.587,14.646-47.667c-1.256-7.375-3.102-14.637-5.521-21.717
			c-3.186-9.131-5.378-18.578-6.537-28.179c-0.789-16.166,0.461-32.367,3.721-48.221l0.612-3.758
			c0.128-0.793,0.367-1.563,0.713-2.288c15.836-32.368,15.979-70.205,0.387-102.692c-7.661-16.056-18.478-30.405-31.804-42.192
			c-13.93-12.405-30.038-22.12-47.508-28.654C295.766,64.271,275.967,60.696,256.012,60.754z"/>
		<path d="M469.188,239.954l-0.258-0.004c-4.713-0.138-8.421-4.071-8.283-8.783c0.083-2.733,0.167-5.546,0.167-8.279
			c-0.019-100.297-72.659-185.83-171.629-202.09S94.025,62.331,61.917,157.35c-0.975,2.889-3.417,5.039-6.407,5.639
			c-2.99,0.6-6.073-0.44-8.088-2.729c-2.015-2.289-2.655-5.479-1.68-8.369C80.524,48.953,184.728-13.659,291.947,3.956
			s185.913,110.276,185.932,218.932c0,2.9-0.083,5.887-0.167,8.788C477.571,236.283,473.798,239.948,469.188,239.954z"/>
		<path d="M169.142,461.821H99.512c-6.342,0.004-12.165-3.502-15.129-9.108c-2.927-5.474-2.584-12.119,0.892-17.262
			c8.663-12.942,9.725-36.446,9.183-50.429H51.725c-6.369,0.03-12.211-3.532-15.1-9.208c-2.97-5.836-2.394-12.847,1.488-18.121
			c7.484-12.441,11.819-26.521,12.629-41.017l-20.438,0.079c-6.233,0.003-11.97-3.401-14.954-8.873s-2.738-12.139,0.642-17.377
			c13.075-20.312,18.171-59.754,18.221-60.15c0.017-0.125,0.033-0.254,0.058-0.379c-0.071-2.358-0.125-4.75-0.125-7.088
			c0-4.713,3.821-8.533,8.533-8.533s8.533,3.821,8.533,8.533c0,2.729,0.083,5.538,0.167,8.267c0.033,1.042-0.125,2.082-0.467,3.067
			c-1.196,8.404-6.942,44.346-20.6,65.563l20.417-0.096c4.784-0.008,9.35,1.995,12.585,5.519c3.235,3.524,4.84,8.245,4.423,13.011
			c-0.971,17.576-6.414,34.612-15.812,49.496l50.487,0.242c4.351,0.002,8.005,3.275,8.483,7.6c0.2,1.833,4.763,45.183-11.462,69.425
			l69.708-0.225c4.713,0,8.533,3.82,8.533,8.533S173.854,461.821,169.142,461.821z"/>
		<path d="M46.092,197.287c-1.119,0.03-2.23-0.205-3.242-0.683c-1.033-0.434-1.986-1.04-2.817-1.792
			c-1.573-1.627-2.459-3.796-2.475-6.059c0.011-1.116,0.244-2.219,0.683-3.245c0.431-1.034,1.037-1.985,1.792-2.813
			c0.83-0.754,1.782-1.362,2.816-1.796c2.078-0.85,4.406-0.85,6.483,0c1.034,0.434,1.987,1.041,2.817,1.796
			c0.753,0.829,1.359,1.78,1.792,2.813c0.479,1.014,0.713,2.125,0.683,3.246c-0.016,0.571-0.073,1.141-0.171,1.704
			c-0.095,0.535-0.268,1.053-0.513,1.538c-0.186,0.544-0.444,1.061-0.767,1.538c-0.341,0.425-0.683,0.85-1.025,1.279
			c-0.831,0.752-1.783,1.358-2.817,1.792C48.321,197.083,47.211,197.317,46.092,197.287L46.092,197.287z"/>
		<path d="M412.512,461.821h-69.629c-4.713,0-8.533-3.82-8.533-8.533s3.821-8.533,8.533-8.533h69.629
			c-16.146-24.017-11.583-67.367-11.383-69.2c0.477-4.326,4.132-7.6,8.483-7.6h50.692c-9.513-14.929-15.029-32.054-16.017-49.729
			c-0.421-4.767,1.183-9.492,4.418-13.018c3.236-3.526,7.805-5.529,12.591-5.519h20.425c-15.217-23.538-20.617-65.434-20.842-67.204
			c-0.38-3.025,0.882-6.023,3.311-7.865c2.429-1.842,5.657-2.248,8.467-1.065c2.81,1.183,4.775,3.775,5.155,6.8
			c0.05,0.396,5.15,39.838,18.25,60.196c3.354,5.241,3.582,11.894,0.594,17.352c-2.987,5.458-8.714,8.852-14.936,8.852h-20.425
			c0.811,14.47,5.145,28.524,12.625,40.937c3.876,5.277,4.45,12.288,1.483,18.125c-2.891,5.674-8.732,9.234-15.1,9.204h-42.733
			c-0.55,13.983,0.525,37.495,9.2,50.467c3.457,5.137,3.79,11.763,0.867,17.221C424.678,458.318,418.855,461.827,412.512,461.821
			L412.512,461.821z"/>
	</g>
</g>
<g>
</g>
<g>
</g>
<g>
</g>
<g>
</g>
<g>
</g>
<g>
</g>
<g>
</g>
<g>
</g>
<g>
</g>
<g>
</g>
<g>
</g>
<g>
</g>
<g>
</g>
<g>
</g>
<g>
</g>
</svg>
