<?xml version="1.0" encoding="iso-8859-1"?>
<!-- Generator: Adobe Illustrator 19.0.0, SVG Export Plug-In . SVG Version: 6.00 Build 0)  -->
<svg version="1.1" id="Capa_1" xmlns="http://www.w3.org/2000/svg" xmlns:xlink="http://www.w3.org/1999/xlink" x="0px" y="0px"
	 viewBox="0 0 503.399 503.399" style="enable-background:new 0 0 503.399 503.399;" xml:space="preserve">
<g>
	<path style="fill:#FFFFFF;" d="M211.978,10.088c-0.429,0.073-0.851,0.185-1.259,0.336C118.806,38.321,55.61,122.616,54.601,218.665
		c-0.007,19.994,2.818,39.889,8.393,59.09v55.649c-21.947-34.242-33.6-74.066-33.574-114.738
		C30.43,122.616,93.626,38.321,185.539,10.423C194.14,7.796,203.313,7.68,211.978,10.088z"/>
	<path style="fill:#FFA800;" d="M449.093,178.964v158.804c0.016,4.527-0.349,9.047-1.091,13.513
		c-2.1,12.904-7.443,25.062-15.528,35.336c-3.399,4.547-7.221,8.763-11.415,12.59l-63.454,56.991
		c-14.782,13.327-32.074,23.571-50.864,30.132h-0.084c-15.685,5.566-32.207,8.404-48.85,8.393h-3.525
		c-16.67,0.011-33.22-2.828-48.934-8.393c-18.79-6.562-36.082-16.806-50.864-30.132l-63.454-56.991
		c-4.991-4.529-9.467-9.596-13.346-15.108c-7.021-9.734-11.676-20.971-13.597-32.818c-0.742-4.466-1.107-8.986-1.091-13.513V211.195
		c-0.037-18.711,5.968-36.933,17.123-51.955c3.367,25.298,9.301,50.187,17.71,74.282c2.518,7.638,5.204,15.108,7.806,22.159
		c4.532,12.003,8.981,22.83,12.842,31.811c6.715,15.864,11.667,25.852,11.667,25.852c-1.427-5.959-2.602-11.919-3.609-17.962
		c-2-13.22-2.87-26.585-2.602-39.953c0.084-5.959,0.504-11.835,1.091-17.71c0.915-9.11,2.344-18.162,4.281-27.111
		c0.42-1.93,0.923-3.945,1.343-5.875c1.756-7.249,3.914-14.394,6.463-21.403c4.312-12.6,10.388-24.525,18.046-35.42
		c6.192-8.425,13.506-15.965,21.739-22.41c11.667-9.317,24.593-17.039,37.183-25.6c0.111,8.585,0.925,17.147,2.434,25.6
		c0.168,0.839,0.252,1.511,0.42,2.266c3.243,16.705,7.904,33.104,13.933,49.018c2.267-16.741,6.377-33.18,12.254-49.018h47.087
		c5.004-0.024,9.74-2.268,12.926-6.127l3.357-4.113l5.624-6.883h11.163c9.349,0.127,16.845,7.773,16.787,17.123v8.477
		c-0.088,9.362,7.425,17.025,16.787,17.123h49.773c0.62-0.027,1.241,0.029,1.847,0.168c4.932,0.526,9.368,3.237,12.087,7.386
		l6.799,10.408c2.941,4.554,7.928,7.377,13.346,7.554c0.217,0.069,0.444,0.098,0.671,0.084H449.093z"/>
	<path style="fill:#FFFFFF;" d="M256.044,492.795c-4.197,0.755-8.393,1.175-12.59,1.511c-13.006-0.913-25.826-3.596-38.106-7.974
		c-18.79-6.562-36.082-16.806-50.864-30.132l-63.454-56.991c-4.991-4.529-9.467-9.596-13.346-15.108
		c-7.021-9.734-11.676-20.971-13.597-32.818c-0.742-4.466-1.107-8.986-1.091-13.513V211.195c-0.002-2.805,0.166-5.608,0.504-8.393
		v-0.084c1.459-15.74,7.207-30.778,16.619-43.478c1.766,14.686,4.628,29.219,8.561,43.478v0.168
		c-0.337,2.757-0.506,5.532-0.504,8.31v126.573c-0.016,4.527,0.349,9.047,1.091,13.513c1.921,11.847,6.577,23.084,13.597,32.818
		c3.879,5.512,8.354,10.579,13.346,15.108l63.454,56.991c14.782,13.327,32.074,23.571,50.864,30.132
		C238.812,489.28,247.355,491.444,256.044,492.795z"/>
	<path style="fill:#FEDD0A;" d="M423.913,166.038v171.73c0.016,4.527-0.349,9.047-1.091,13.513
		c-2.1,12.904-7.443,25.062-15.528,35.336c-3.399,4.547-7.221,8.763-11.415,12.59l-63.454,56.991
		c-14.782,13.327-32.074,23.571-50.864,30.132h-0.084c-8.259,2.938-16.773,5.102-25.432,6.463
		c-8.689-1.351-17.232-3.514-25.516-6.463c-18.79-6.562-36.082-16.806-50.864-30.132l-63.454-56.991
		c-4.991-4.529-9.467-9.596-13.346-15.108c-7.021-9.734-11.676-20.971-13.597-32.818c-0.742-4.466-1.107-8.986-1.091-13.513V211.195
		c-0.002-2.778,0.166-5.553,0.504-8.31c2.686,10.408,5.875,20.732,9.149,30.636c0.587,1.847,1.259,3.693,1.93,5.54
		c1.93,5.708,3.945,11.331,5.875,16.619c4.532,12.003,8.981,22.83,12.842,31.811c6.715,15.864,11.667,25.852,11.667,25.852
		c-1.427-5.959-2.602-11.919-3.609-17.962c-2-13.22-2.87-26.585-2.602-39.953c0.084-5.54,0.42-10.911,1.007-16.367v-0.084
		c-0.014-0.421,0.014-0.843,0.084-1.259c0.915-9.11,2.344-18.162,4.281-27.111c0.42-1.93,0.923-3.945,1.343-5.875
		c1.756-7.249,3.914-14.394,6.463-21.403c4.312-12.6,10.388-24.525,18.046-35.42c6.192-8.425,13.506-15.965,21.739-22.41
		c4.197-3.357,8.561-6.547,13.094-9.569c7.89-5.456,16.031-10.576,24.089-16.031c0.038,5.361,0.402,10.715,1.091,16.031
		c0.336,3.19,0.839,6.379,1.343,9.569c0.168,0.839,0.252,1.511,0.42,2.266c0.084,0.588,0.252,1.259,0.336,1.847
		c3.238,16.068,7.786,31.845,13.597,47.171c2.177-16.09,6.06-31.903,11.583-47.171c0.252-0.671,0.42-1.259,0.671-1.847h47.087
		c5.004-0.024,9.74-2.268,12.926-6.127l3.357-4.113l2.35-2.854l3.273-4.029h11.163c3.934,0.011,7.738,1.408,10.744,3.945v0.084
		c3.853,3.255,6.066,8.05,6.043,13.094v8.477c-0.088,9.362,7.425,17.025,16.787,17.123h49.773c0.62-0.027,1.241,0.029,1.847,0.168
		c4.932,0.526,9.368,3.237,12.087,7.386l0.42,0.588L423.913,166.038z"/>
	<ellipse style="fill:#15A143;" cx="159.519" cy="251.483" rx="54.557" ry="55.489"/>
	<ellipse style="fill:#1CD759;" cx="148.692" cy="251.483" rx="43.73" ry="55.489"/>
	<path style="fill:#FFA800;" d="M312.112,110.641l-8.981,10.995c-3.186,3.859-7.922,6.103-12.926,6.127h-22.494
		c5.004-0.024,9.74-2.268,12.926-6.127l-7.806-10.995c-7.722,0,2.77-6.379,2.77-14.185V85.041
		c0.031-7.554-4.927-14.222-12.171-16.367c-1.499-0.44-3.054-0.666-4.616-0.671h-12.59c-5.196-0.046-10.071-2.523-13.17-6.694
		s-4.065-9.553-2.61-14.541l0.168-0.588c1.796-7.26-1.288-14.851-7.638-18.801l-21.319-12.254c-0.588-0.336-1.091-0.588-1.679-0.923
		c3.525-1.427,7.134-2.602,10.744-3.777c0.408-0.151,0.83-0.263,1.259-0.336h0.084c4.23,1.147,8.293,2.84,12.087,5.036
		l21.319,12.254c6.35,3.951,9.434,11.541,7.638,18.801l-0.168,0.588c-2.498,8.629,2.29,17.686,10.828,20.48
		c1.6,0.515,3.272,0.77,4.952,0.755h12.59c9.333,0.087,16.839,7.705,16.787,17.039v11.415
		C298.066,104.237,304.332,110.578,312.112,110.641z"/>
	<path style="fill:#FEDD0A;" d="M289.618,125.498l-8.981-3.861c-3.186,3.859-7.922,6.103-12.926,6.127h-24.593
		c-0.252,0.588-0.42,1.175-0.671,1.847c-5.523,15.268-9.406,31.081-11.583,47.171c-5.224-13.775-9.432-27.913-12.59-42.303v-0.084
		c-0.504-2.182-0.923-4.365-1.343-6.631c-0.168-0.755-0.252-1.427-0.42-2.266c-0.504-3.19-1.007-6.379-1.343-9.569
		c-0.689-5.317-1.054-10.67-1.091-16.031c-7.218,4.868-14.437,9.484-21.571,14.269c-5.372,3.609-10.576,7.302-15.612,11.331
		c-8.233,6.445-15.547,13.985-21.739,22.41c-7.658,10.895-13.734,22.821-18.046,35.42c-3.203,8.91-5.811,18.023-7.806,27.279
		c-1.937,8.949-3.366,18-4.281,27.111c-0.07,0.444-0.098,0.894-0.084,1.343c-0.588,5.456-0.923,10.828-1.007,16.367
		c-0.459,19.493,1.629,38.962,6.211,57.915c-10.577-22.128-19.99-44.793-28.202-67.903c-1.427-3.861-2.77-7.89-4.113-11.919
		c-3.273-9.904-6.463-20.228-9.149-30.72c-3.934-14.287-6.795-28.848-8.561-43.562c-11.046,15.079-17.039,33.264-17.123,51.955
		v66.56c-9.874-34.139-11.057-70.205-3.441-104.918C76.408,99.555,129.281,39.824,199.976,14.2c0.588,0.336,1.091,0.588,1.679,0.923
		l21.319,12.254c6.35,3.95,9.434,11.541,7.638,18.801l-0.168,0.588c-1.456,4.988-0.49,10.37,2.61,14.541s7.974,6.649,13.17,6.694
		h12.59c1.563,0.005,3.117,0.231,4.616,0.671c7.243,2.145,12.201,8.813,12.171,16.367v11.415
		C275.601,104.262,281.896,125.498,289.618,125.498z"/>
	<path style="fill:#FFA800;" d="M440.7,143.259l-0.252,35.621c-5.419-0.182-10.402-3.016-13.329-7.579l-6.79-10.442
		c-0.733-1.167-1.637-2.217-2.682-3.116c-2.565-2.436-5.869-3.948-9.389-4.295c-0.604-0.139-1.225-0.196-1.844-0.168h-49.708
		c-9.371-0.119-16.874-7.808-16.765-17.179v-8.505c0.079-9.359-7.407-17.03-16.765-17.179h-11.149
		c-7.788-0.082-14.046-6.443-13.999-14.231V84.733c0.073-9.343-7.423-16.986-16.765-17.095h-12.574
		c-5.203-0.062-10.076-2.556-13.17-6.739c-3.094-4.183-4.052-9.573-2.589-14.566l0.168-0.59c1.797-7.275-1.279-14.882-7.628-18.863
		l2.263-2.105h46.188c13.413,0.059,26.244,5.488,35.626,15.073l3.018,3.116c4.67,4.794,11.079,7.497,17.771,7.495h5.281
		c15.559,0.146,29.014,10.882,32.609,26.021l0.67,2.863c0.741,3.153,3.551,5.384,6.79,5.39h0.084
		c11.623,0.142,21.669,8.152,24.394,19.452l2.766,11.452c0.472,2.132,1.892,3.931,3.856,4.884v0.084
		C435.286,124.97,440.651,133.704,440.7,143.259L440.7,143.259z"/>
	<path style="fill:#FEDD0A;" d="M417.731,143.259l-0.083,14.484c-2.565-2.436-5.869-3.948-9.389-4.295
		c-0.604-0.139-1.225-0.196-1.844-0.168h-49.709c-9.371-0.119-16.874-7.808-16.765-17.179v-8.505
		c0.079-9.359-7.407-17.03-16.765-17.179h-11.149c-7.788-0.082-14.046-6.443-13.999-14.231V84.733
		c0.073-9.343-7.423-16.986-16.765-17.095h-12.574c-5.203-0.062-10.076-2.556-13.17-6.739c-3.094-4.183-4.052-9.573-2.589-14.566
		l0.168-0.59c1.797-7.275-1.279-14.882-7.628-18.863l2.263-2.105h23.22c13.413,0.059,26.244,5.488,35.626,15.073l3.018,3.116
		c4.67,4.794,11.079,7.497,17.771,7.495h5.281c15.559,0.146,29.014,10.882,32.609,26.021l0.67,2.863
		c0.741,3.153,3.551,5.384,6.79,5.39h0.084c11.623,0.142,21.669,8.152,24.394,19.452l2.766,11.452
		c0.472,2.132,1.892,3.931,3.856,4.884v0.084C412.318,124.97,417.682,133.704,417.731,143.259L417.731,143.259z"/>
	<path style="fill:#FFFFFF;" d="M205.348,486.332c-2.015,0.504-3.945,1.007-5.875,1.343
		c-75.793,17.794-118.264-0.671-140.338-18.885c-8.767-6.799-15.955-15.418-21.068-25.264c33.574-7.134,41.967-51.284,41.967-51.284
		L205.348,486.332z"/>
	<g>
		<path style="fill:#FEDD0A;" d="M199.472,487.675c-75.793,17.794-118.264-0.671-140.338-18.885
			c-1.483-2.135-2.802-4.38-3.945-6.715c33.574-7.051,41.967-51.2,41.967-51.2L199.472,487.675z"/>
		<path style="fill:#FEDD0A;" d="M432.013,392.266c0,0,8.393,44.133,41.967,51.218c0,0-33.49,76.571-167.281,42.852"/>
	</g>
	<g>
		<path d="M257.807,503.096h-3.525c-38.952-0.049-76.506-14.527-105.41-40.639l-63.455-57.045
			C69.79,391.71,59.333,373.066,55.79,352.588c-0.807-4.907-1.205-9.872-1.189-14.844V211.198
			c-0.08-20.529,6.512-40.529,18.783-56.988c2.768-3.719,8.027-4.49,11.746-1.721c3.719,2.768,4.49,8.027,1.721,11.746
			c-10.108,13.565-15.535,30.047-15.463,46.963v126.545c-0.11,21.225,9.136,41.42,25.275,55.205l63.43,57.025
			c25.824,23.339,59.38,36.284,94.188,36.336h3.525c34.809-0.051,68.364-12.996,94.189-36.336l63.455-57.045
			c16.125-13.784,25.361-33.971,25.25-55.184V178.965c0-4.636,3.758-8.393,8.393-8.393c4.636,0,8.393,3.758,8.393,8.393v158.779
			c0.103,25.963-11.145,50.674-30.791,67.648l-63.48,57.066C334.312,488.569,296.759,503.047,257.807,503.096z"/>
		<path d="M274.696,349.547c-3.566-0.132-7.076-0.924-10.352-2.336l-1.246-0.459c-3.296-1.173-6.846-1.446-10.283-0.791
			c-1.47,0.319-2.916,0.745-4.324,1.275c-3.541,1.398-7.294,2.179-11.098,2.311c-8.293-0.9-15.91-4.99-21.242-11.406
			c-1.98-2.257-2.603-5.399-1.635-8.241c0.968-2.842,3.38-4.95,6.326-5.53c2.946-0.579,5.977,0.458,7.949,2.722
			c2.23,2.714,5.229,4.69,8.602,5.668c1.954-0.19,3.869-0.667,5.684-1.414c2.174-0.791,4.402-1.423,6.668-1.889
			c6.364-1.19,12.929-0.674,19.029,1.496l1.443,0.533c1.424,0.639,2.933,1.069,4.479,1.275c3.369-0.988,6.365-2.962,8.602-5.668
			c1.972-2.263,5.003-3.301,7.949-2.722c2.946,0.579,5.358,2.688,6.326,5.53c0.968,2.842,0.345,5.984-1.635,8.241
			C290.606,344.556,282.988,348.646,274.696,349.547z"/>
		<path d="M141.806,503.399c-85.475,0-110.172-53.77-111.385-56.549c-1.012-2.313-0.93-4.959,0.225-7.205
			c1.155-2.245,3.259-3.852,5.73-4.373c27.783-5.865,35.381-44.189,35.455-44.578c0.872-4.548,5.264-7.531,9.813-6.665
			c4.55,0.866,7.538,5.253,6.678,9.804c-0.348,1.82-8.058,40.553-37.66,54.275c12.697,17.475,52.881,55.25,152.672,30.086
			c4.495-1.134,9.059,1.591,10.193,6.086c1.134,4.495-1.591,9.059-6.086,10.193C186.014,500.138,163.969,503.136,141.806,503.399
			L141.806,503.399z"/>
		<path d="M370.282,503.399c-22.162-0.262-44.208-3.26-65.635-8.926c-4.482-1.145-7.192-5.701-6.061-10.186
			c1.132-4.485,5.679-7.21,10.167-6.092c99.754,25.131,139.947-12.586,152.668-30.086c-29.598-13.725-37.307-52.455-37.656-54.275
			c-0.855-4.548,2.132-8.93,6.678-9.797c4.546-0.866,8.936,2.109,9.814,6.653c0.156,0.779,7.979,38.783,35.455,44.582
			c2.471,0.522,4.575,2.128,5.73,4.373c1.155,2.245,1.238,4.891,0.225,7.205C480.454,449.629,455.741,503.399,370.282,503.399z"/>
		<path d="M63.003,341.78c-2.868,0.004-5.54-1.458-7.082-3.877c-16.589-25.839-27.586-54.865-32.283-85.209
			c-0.46-2.964,0.696-5.947,3.033-7.827c2.337-1.88,5.499-2.37,8.295-1.287c2.796,1.084,4.802,3.577,5.262,6.54
			c4.343,28.045,14.508,54.87,29.84,78.75c1.649,2.583,1.759,5.858,0.288,8.546C68.886,340.105,66.067,341.777,63.003,341.78
			L63.003,341.78z"/>
		<path d="M32.208,192.649c-0.456-0.001-0.911-0.038-1.361-0.111c-4.574-0.747-7.677-5.061-6.93-9.635
			C38.426,97.46,100.024,27.579,182.97,2.461c15.223-4.626,31.687-2.673,45.406,5.385l21.279,12.238
			c9.578,5.797,14.281,17.144,11.611,28.016c-0.025,0.107-0.221,0.811-0.25,0.918c-0.731,2.551-0.215,5.298,1.393,7.41
			c1.479,1.993,3.813,3.169,6.295,3.172h12.602c13.978,0.094,25.243,11.485,25.18,25.463v11.356
			c-0.021,3.155,2.474,5.753,5.627,5.861h11.16c13.979,0.096,25.243,11.488,25.18,25.467v8.537
			c-0.071,4.711,3.683,8.591,8.393,8.676h49.775c1.112-0.023,2.224,0.073,3.315,0.287c7.24,0.928,13.702,5.002,17.66,11.135
			l6.787,10.393c1.537,2.366,4.166,3.795,6.988,3.795h7.722c4.636,0,8.393,3.758,8.393,8.393s-3.758,8.393-8.393,8.393h-7.721
			c-8.457-0.021-16.342-4.278-21-11.336l-6.844-10.479c-1.319-2.06-3.502-3.409-5.934-3.668c-0.271-0.029-0.537-0.07-0.799-0.123
			l-49.947-0.004c-13.978-0.094-25.243-11.485-25.18-25.463v-8.537c0.072-4.712-3.682-8.594-8.393-8.68h-11.16
			c-12.438-0.078-22.464-10.21-22.414-22.648V85.063c0.071-4.711-3.683-8.591-8.393-8.676h-12.602
			c-7.741,0.017-15.036-3.623-19.676-9.82c-4.801-6.296-6.348-14.489-4.172-22.102c1.087-3.781-0.442-7.826-3.758-9.943
			l-21.09-12.127c-9.644-5.712-21.236-7.136-31.975-3.926C111.495,42.255,54.593,106.712,40.483,185.608
			C39.82,189.665,36.318,192.645,32.208,192.649z M406.122,161.584l0.012,0.004L406.122,161.584z"/>
		<path d="M29.421,226.219c-2.222-0.033-4.35-0.902-5.959-2.434c-0.361-0.399-0.698-0.819-1.008-1.258
			c-0.319-0.468-0.574-0.977-0.758-1.512c-0.241-0.476-0.41-0.986-0.5-1.513c-0.098-0.554-0.155-1.114-0.168-1.676
			c0.031-2.222,0.9-4.351,2.434-5.959c3.365-3.107,8.553-3.107,11.918,0c3.246,3.31,3.246,8.608,0,11.918
			c-0.399,0.36-0.819,0.695-1.258,1.004c-0.468,0.319-0.977,0.574-1.512,0.758c-0.477,0.241-0.986,0.411-1.512,0.504
			C30.543,226.147,29.983,226.203,29.421,226.219z"/>
		<path d="M440.7,187.358h-0.057c-4.635-0.032-8.368-3.815-8.336-8.451l0.246-35.598c-0.071-6.366-3.664-12.169-9.332-15.07
			c-4.118-2.096-7.117-5.884-8.213-10.373l-2.803-11.398c-1.774-7.574-8.5-12.951-16.279-13.012
			c-7.129-0.007-13.328-4.888-15.008-11.816l-0.701-2.852c-2.668-11.35-12.759-19.398-24.418-19.475h-5.324
			c-8.947-0.034-17.51-3.637-23.791-10.008l-3.053-3.102c-7.779-8.001-18.467-12.511-29.627-12.5h-46.287
			c-4.636,0-8.393-3.758-8.393-8.393s3.758-8.393,8.393-8.393h46.287c15.645,0.064,30.618,6.368,41.598,17.512l3.053,3.102
			c3.101,3.197,7.366,5,11.82,4.996h5.324c19.392,0.063,36.22,13.392,40.721,32.254l0.467,1.906
			c15.105,0.532,28,11.076,31.52,25.775l2.799,11.393c11.092,5.603,18.071,16.987,18.033,29.414l-0.246,35.755
			C449.061,183.635,445.313,187.357,440.7,187.358z"/>
		<path d="M323.257,84.924c-4.636,0-8.393-3.758-8.393-8.393c0-4.636,3.758-8.393,8.393-8.393c4.712-0.086,8.466-3.968,8.393-8.68
			V50.92c0-4.636,3.758-8.393,8.393-8.393s8.393,3.758,8.393,8.393v8.537C348.5,73.436,337.236,84.828,323.257,84.924
			L323.257,84.924z"/>
		<path d="M373.618,127.604c-4.636,0-8.393-3.758-8.393-8.393c0-4.636,3.758-8.393,8.393-8.393c4.712-0.086,8.466-3.968,8.393-8.68
			V85.063c0-4.636,3.758-8.393,8.393-8.393s8.393,3.758,8.393,8.393v17.074C398.861,116.116,387.597,127.509,373.618,127.604z"/>
	</g>
	<path style="fill:#FFA800;" d="M314.798,422.249c0,21.215-26.305,21.341-58.754,21.341s-58.754-0.126-58.754-21.341
		s26.305-38.413,58.754-38.413S314.798,401.034,314.798,422.249z"/>
	<path d="M256.044,451.981c-33.012,0-67.148,0-67.148-29.734c0-26.246,29.496-46.807,67.148-46.807s67.148,20.561,67.148,46.808
		C323.192,451.981,289.056,451.981,256.044,451.981z M256.044,392.227c-27.299,0-50.361,13.746-50.361,30.021
		c0,11.668,16.127,12.947,50.361,12.947s50.361-1.279,50.361-12.947C306.405,405.973,283.343,392.227,256.044,392.227z"/>
	<ellipse style="fill:#15A143;" cx="352.569" cy="251.483" rx="54.557" ry="55.489"/>
	<ellipse style="fill:#1CD759;" cx="341.741" cy="251.483" rx="43.73" ry="55.489"/>
	<g>
		<path d="M352.569,315.403c-25.922,0.379-49.503-14.943-59.686-38.784c-10.183-23.841-4.95-51.471,13.246-69.937
			c18.196-18.465,45.747-24.103,69.735-14.271c23.987,9.833,39.655,33.186,39.655,59.111
			C415.736,286.529,387.575,315.106,352.569,315.403z M352.569,204.432c-19.133-0.381-36.594,10.852-44.18,28.42
			c-7.586,17.568-3.789,37.98,9.607,51.646s33.729,17.867,51.445,10.631c17.716-7.236,29.293-24.47,29.292-43.607
			C398.957,225.783,378.307,204.719,352.569,204.432z"/>
		<path d="M159.519,315.403c-13.781,0.036-27.176-4.552-38.041-13.029c-2.383-1.832-3.604-4.798-3.202-7.777
			c0.402-2.979,2.367-5.515,5.15-6.649c2.783-1.134,5.961-0.694,8.33,1.155c7.93,6.186,17.705,9.536,27.762,9.512
			c25.642-0.511,46.163-21.445,46.163-47.092s-20.52-46.581-46.163-47.092c-8.609,0.011-17.039,2.463-24.311,7.07
			c-2.536,1.6-5.733,1.726-8.387,0.33c-2.654-1.396-4.362-4.102-4.479-7.098s1.372-5.828,3.908-7.429
			c9.953-6.301,21.49-9.651,33.27-9.66c34.915,0.511,62.951,28.96,62.951,63.879S194.434,314.892,159.519,315.403z"/>
		<path d="M290.204,136.141h-47.086c-4.636,0-8.393-3.758-8.393-8.393s3.758-8.393,8.393-8.393h47.086
			c2.484-0.009,4.834-1.125,6.41-3.045l9.016-10.967c2.945-3.581,8.235-4.096,11.816-1.152c3.581,2.945,4.096,8.235,1.152,11.816
			l-8.984,10.926C304.867,132.776,297.733,136.161,290.204,136.141z"/>
		<path d="M130.142,321.719c-3.2,0.001-6.122-1.82-7.533-4.693c-12.545-26.265-23.48-53.268-32.746-80.861
			c-8.626-24.641-14.686-50.107-18.086-75.992c-0.495-4.596,2.819-8.727,7.413-9.239c4.594-0.512,8.737,2.787,9.267,7.378
			c3.272,24.711,9.08,49.02,17.332,72.541c3.152,9.451,6.459,18.553,9.705,27.012c0.012-0.865,0.026-1.731,0.041-2.598
			c0.082-5.553,0.455-11.594,1.135-18.41c0.947-9.412,2.426-18.763,4.43-28.008c2.071-9.642,4.785-19.134,8.123-28.414
			c4.584-13.314,11.017-25.916,19.111-37.438c6.629-9.054,14.483-17.145,23.336-24.041c8.529-6.803,17.742-12.836,26.647-18.668
			c3.685-2.41,7.381-4.832,11.049-7.316c2.572-1.742,5.896-1.922,8.64-0.467s4.461,4.307,4.462,7.413
			c0.108,8.125,0.883,16.228,2.32,24.225l0.201,1.066c0.02,0.086,0.176,0.922,0.193,1.008c1.123,6.061,2.496,11.984,3.934,17.475
			c1.803-6.549,3.854-12.855,6.152-18.918c1.056-2.812,3.534-4.845,6.498-5.331c2.964-0.486,5.961,0.649,7.86,2.976
			c1.899,2.327,2.409,5.491,1.339,8.297c-5.648,15.255-9.602,31.085-11.791,47.205c-0.535,3.77-3.542,6.708-7.324,7.155
			c-3.782,0.447-7.391-1.708-8.791-5.249c-6.245-16.404-11.058-33.319-14.385-50.553l-0.225-1.213
			c-0.029-0.135-0.193-1.016-0.217-1.156c-0.705-4.214-1.258-8.184-1.672-11.951c-8.627,5.652-16.787,11.033-24.434,17.131
			c-7.646,5.944-14.433,12.917-20.168,20.721c-7.179,10.255-12.881,21.469-16.939,33.311c-3.091,8.597-5.604,17.391-7.521,26.324
			c-1.867,8.613-3.243,17.325-4.123,26.094c-0.643,6.418-0.98,11.832-1.053,17.029c-0.449,18.768,1.558,37.515,5.971,55.762
			c0.613,2.503,0.042,5.15-1.549,7.178C135.154,320.535,132.72,321.719,130.142,321.719L130.142,321.719z"/>
		<path d="M298.077,187.358c-4.636,0-8.393-3.758-8.393-8.393v-51.217c0-4.636,3.758-8.393,8.393-8.393
			c4.636,0,8.393,3.758,8.393,8.393v51.217C306.47,183.6,302.712,187.358,298.077,187.358z"/>
		<path d="M264.503,161.748c-4.636,0-8.393-3.758-8.393-8.393v-25.607c0-4.636,3.758-8.393,8.393-8.393
			c4.636,0,8.393,3.758,8.393,8.393v25.607C272.896,157.99,269.139,161.748,264.503,161.748z"/>
		<path d="M214.077,306.866c-4.636,0-8.393-3.758-8.393-8.393v-51.217c0-4.636,3.758-8.393,8.393-8.393
			c4.636,0,8.393,3.758,8.393,8.393v51.217C222.47,303.109,218.712,306.866,214.077,306.866z"/>
		<path d="M298.011,306.866c-4.636,0-8.393-3.758-8.393-8.393v-51.217c0-4.636,3.758-8.393,8.393-8.393
			c4.636,0,8.393,3.758,8.393,8.393v51.217C306.405,303.109,302.647,306.866,298.011,306.866z"/>
		<path d="M188.896,332.473c-4.636,0-8.393-3.758-8.393-8.393v-25.607c0-4.636,3.758-8.393,8.393-8.393
			c4.636,0,8.393,3.758,8.393,8.393v25.607C197.29,328.715,193.532,332.473,188.896,332.473L188.896,332.473z"/>
		<path d="M331.585,332.473c-4.636,0-8.393-3.758-8.393-8.393v-17.07c0-4.636,3.758-8.393,8.393-8.393s8.393,3.758,8.393,8.393
			v17.07C339.978,328.715,336.221,332.473,331.585,332.473z"/>
		<path d="M365.159,349.547c-4.636,0-8.393-3.758-8.393-8.393V307.01c0-4.636,3.758-8.393,8.393-8.393s8.393,3.758,8.393,8.393
			v34.143C373.552,345.789,369.794,349.547,365.159,349.547z"/>
	</g>
</g>
<g>
</g>
<g>
</g>
<g>
</g>
<g>
</g>
<g>
</g>
<g>
</g>
<g>
</g>
<g>
</g>
<g>
</g>
<g>
</g>
<g>
</g>
<g>
</g>
<g>
</g>
<g>
</g>
<g>
</g>
</svg>
