<?xml version="1.0" encoding="iso-8859-1"?>
<!-- Generator: Adobe Illustrator 19.0.0, SVG Export Plug-In . SVG Version: 6.00 Build 0)  -->
<svg version="1.1" id="Capa_1" xmlns="http://www.w3.org/2000/svg" xmlns:xlink="http://www.w3.org/1999/xlink" x="0px" y="0px"
	 viewBox="0 0 512 512" style="enable-background:new 0 0 512 512;" xml:space="preserve">
<g>
	<path style="fill:#FFA800;" d="M503.467,436.855c0-5.459-0.087-10.898-0.261-16.316C497.517,251.943,407.956,97.34,264.532,8.533
		C121.109,97.341,31.55,251.944,25.861,420.54c-0.173,5.417-0.26,10.856-0.261,16.316l225.787,64.761
		c8.59,2.468,17.702,2.468,26.292,0L503.467,436.855z"/>
	<path style="fill:#FFFFFF;" d="M251.819,501.589c1.364,0.434,2.763,0.748,4.181,0.939c-7.052,1.44-14.35,1.117-21.248-0.939
		L8.533,436.821c0-5.461,0.085-10.837,0.256-16.299C14.165,246.955,113.237,95.403,247.467,8.533
		c2.901,1.877,5.717,3.755,8.533,5.717C121.231,106.281,38.806,257.389,34.389,420.523c-0.171,5.461-0.256,10.837-0.256,16.299
		L251.819,501.589z"/>
	<path style="fill:#FEDD0A;" d="M477.867,436.821l-217.685,64.768c-1.364,0.434-2.763,0.748-4.181,0.939
		c-1.418-0.191-2.818-0.505-4.181-0.939L34.133,436.821c0-5.461,0.085-10.837,0.256-16.299
		C38.806,257.389,121.231,106.281,256,14.251c134.769,92.03,217.194,243.138,221.611,406.272
		C477.781,425.984,477.867,431.36,477.867,436.821z"/>
	<path id="SVGCleanerId_0" style="fill:#FFA800;" d="M447.573,297.301v0.085c-3.554,11.973-9.218,23.214-16.725,33.195
		c-4.968,6.646-10.696,12.689-17.067,18.005c-5.632,4.693-11.605,9.984-17.664,15.957c-19.093,18.452-34.881,40.041-46.677,63.829
		c-0.427,0.939-0.853,1.963-1.365,3.072c-1.963,4.096-3.755,8.363-5.376,12.715l-77.653,21.419c-5.921,1.621-12.169,1.621-18.091,0
		l-77.653-21.419c-15.101-37.429-39.58-70.343-71.083-95.573c-16.065-13.362-27.821-31.175-33.792-51.2v-0.085
		c31.141-94.812,91.628-177.263,172.715-235.435c6.144-4.523,12.459-8.875,18.859-13.056
		C346.294,107.406,413.879,195.07,447.573,297.301z"/>
	<path id="SVGCleanerId_1" style="fill:#FEDD0A;" d="M430.848,330.581c-4.968,6.646-10.696,12.689-17.067,18.005
		c-5.632,4.693-11.605,9.984-17.664,15.957c-1.27,0.676-2.471,1.477-3.584,2.389c-20.053,16.555-30.037,31.744-43.093,61.44
		c-0.427,0.939-0.853,1.963-1.365,3.072c-1.963,4.096-3.755,8.363-5.376,12.715l-77.653,21.419c-5.921,1.621-12.169,1.621-18.091,0
		l-77.653-21.419c-15.101-37.429-39.58-70.343-71.083-95.573c-16.065-13.362-27.821-31.175-33.792-51.2v-0.085
		c31.141-94.812,91.628-177.263,172.715-235.435c88.875,58.566,155.36,145.438,188.672,246.528L430.848,330.581z"/>
	<path style="fill:#FFA800;" d="M43.4,409.412C51.7,264.379,130.179,131.55,256,48.838c125.821,82.712,204.3,215.538,212.6,360.575
		l-203.523,56.142c-5.94,1.639-12.213,1.639-18.153,0L43.4,409.412z"/>
	<path style="fill:#FEDD0A;" d="M42.667,409.412C50.371,264.739,124.36,131.702,243.2,48.838
		c118.841,82.864,192.83,215.902,200.533,360.575l-191.972,56.142c-5.59,1.639-11.533,1.639-17.123,0L42.667,409.412z"/>
	<g>
		<path id="SVGCleanerId_0_1_" style="fill:#FFA800;" d="M447.573,297.301v0.085c-3.554,11.973-9.218,23.214-16.725,33.195
			c-4.968,6.646-10.696,12.689-17.067,18.005c-5.632,4.693-11.605,9.984-17.664,15.957c-19.093,18.452-34.881,40.041-46.677,63.829
			c-0.427,0.939-0.853,1.963-1.365,3.072c-1.963,4.096-3.755,8.363-5.376,12.715l-77.653,21.419c-5.921,1.621-12.169,1.621-18.091,0
			l-77.653-21.419c-15.101-37.429-39.58-70.343-71.083-95.573c-16.065-13.362-27.821-31.175-33.792-51.2v-0.085
			c31.141-94.812,91.628-177.263,172.715-235.435c6.144-4.523,12.459-8.875,18.859-13.056
			C346.294,107.406,413.879,195.07,447.573,297.301z"/>
	</g>
	<g>
		<path id="SVGCleanerId_1_1_" style="fill:#FEDD0A;" d="M430.848,330.581c-4.968,6.646-10.696,12.689-17.067,18.005
			c-5.632,4.693-11.605,9.984-17.664,15.957c-1.27,0.676-2.471,1.477-3.584,2.389c-20.053,16.555-30.037,31.744-43.093,61.44
			c-0.427,0.939-0.853,1.963-1.365,3.072c-1.963,4.096-3.755,8.363-5.376,12.715l-77.653,21.419c-5.921,1.621-12.169,1.621-18.091,0
			l-77.653-21.419c-15.101-37.429-39.58-70.343-71.083-95.573c-16.065-13.362-27.821-31.175-33.792-51.2v-0.085
			c31.141-94.812,91.628-177.263,172.715-235.435c88.875,58.566,155.36,145.438,188.672,246.528L430.848,330.581z"/>
	</g>
	<g>
		<path d="M256,512c-5.37,0-10.716-0.726-15.892-2.158L6.254,445.079c-3.696-1.025-6.255-4.389-6.254-8.225
			c0-5.554,0.092-11.086,0.275-16.596c0.125-3.721,0.289-7.429,0.492-11.125c0.167-3.044,1.945-5.768,4.665-7.146
			c2.72-1.378,5.968-1.2,8.521,0.467s4.023,4.568,3.856,7.613c-0.196,3.579-0.354,7.165-0.475,10.758
			c-0.104,3.175-0.179,6.358-0.225,9.55l227.554,63.017c7.42,2.058,15.26,2.058,22.679,0l227.55-63.017
			c-0.046-3.191-0.121-6.375-0.225-9.55c-5.421-163.55-94.533-313.567-238.667-402.3C137.796,90.197,54.625,207.697,26.321,343.004
			c-0.594,2.992-2.741,5.438-5.629,6.418c-2.889,0.979-6.08,0.342-8.371-1.672s-3.333-5.097-2.733-8.088
			C39.226,197.904,127.035,75.107,251.596,1.225c2.709-1.633,6.099-1.633,8.808,0c151.7,91.367,245.654,248.017,251.321,419.033
			c0.183,5.513,0.275,11.045,0.275,16.596c0.001,3.836-2.558,7.201-6.254,8.225l-233.85,64.763
			C266.719,511.273,261.372,511.999,256,512z"/>
		<path d="M11.946,384c-0.573-0.016-1.144-0.073-1.708-0.171c-0.534-0.094-1.05-0.267-1.533-0.513
			c-0.544-0.187-1.062-0.447-1.538-0.771c-0.425-0.338-0.854-0.679-1.279-1.021c-0.772-0.815-1.381-1.772-1.792-2.817
			c-0.439-1.025-0.671-2.127-0.683-3.242c0.013-0.573,0.07-1.144,0.171-1.708c0.091-0.536,0.264-1.054,0.513-1.537
			c0.187-0.543,0.445-1.058,0.767-1.533c0.314-0.448,0.656-0.876,1.025-1.279l1.279-1.025c0.476-0.324,0.993-0.583,1.537-0.77
			c0.482-0.246,1-0.418,1.534-0.509c1.663-0.348,3.393-0.171,4.95,0.508c1.045,0.414,2.001,1.024,2.817,1.796
			c0.341,0.425,0.683,0.85,1.025,1.279c0.322,0.475,0.58,0.991,0.767,1.533c0.245,0.485,0.418,1.003,0.513,1.538
			c0.098,0.565,0.155,1.136,0.171,1.708c-0.014,1.115-0.246,2.216-0.683,3.242c-0.413,1.044-1.021,2-1.792,2.817
			c-0.817,0.77-1.773,1.378-2.817,1.792C14.162,383.754,13.061,383.986,11.946,384L11.946,384z"/>
		<path d="M256,475.317c-3.833,0-7.648-0.517-11.342-1.538L41.129,417.638c-3.876-1.069-6.479-4.699-6.25-8.713
			c8.504-148.542,87.388-282.387,216.433-367.217c2.844-1.875,6.531-1.875,9.375,0c129.046,84.829,207.933,218.675,216.433,367.217
			c0.229,4.014-2.374,7.643-6.25,8.713l-203.525,56.142C263.65,474.8,259.834,475.317,256,475.317L256,475.317z M52.367,403.033
			l196.829,54.296c4.455,1.225,9.158,1.225,13.612,0l196.825-54.296c-10.058-138.55-83.9-263.3-203.633-343.946
			C136.267,139.733,62.425,264.483,52.367,403.033z"/>
		<path d="M169.3,452.696c-3.547-0.001-6.723-2.196-7.979-5.513c-14.611-36.023-38.207-67.703-68.538-92.017
			c-17.378-14.429-30.091-33.684-36.533-55.333c-0.907-2.993-0.107-6.242,2.087-8.471s5.43-3.081,8.437-2.222
			c3.007,0.859,5.304,3.292,5.989,6.344c5.528,18.203,16.274,34.385,30.908,46.542c32.608,26.198,57.951,60.321,73.609,99.108
			c0.991,2.623,0.632,5.564-0.96,7.872S172.104,452.692,169.3,452.696L169.3,452.696z"/>
		<path d="M342.7,452.696c-2.803-0.004-5.426-1.384-7.019-3.691c-1.592-2.307-1.951-5.249-0.96-7.872
			c15.661-38.795,41.012-72.924,73.629-99.125c14.715-12.23,25.494-28.53,30.988-46.858c1.099-4.132,5.086-6.812,9.327-6.268
			c4.241,0.544,7.423,4.143,7.444,8.418c0,0.857-0.121,1.71-0.358,2.533c-6.439,21.641-19.144,40.89-36.513,55.317
			c-30.34,24.317-53.943,56.002-68.558,92.033C349.423,450.5,346.247,452.695,342.7,452.696L342.7,452.696z"/>
		<polygon points="402.517,366.933 109.483,366.933 109.397,349.867 402.517,349.867 		"/>
		<path d="M153.6,366.933h-8.533c-4.713,0-8.533-3.821-8.533-8.533c0-4.713,3.821-8.533,8.533-8.533h8.533
			c4.71-0.006,8.527-3.823,8.533-8.533v-17.067c0-4.713,3.821-8.533,8.533-8.533s8.533,3.821,8.533,8.533v17.067
			C179.185,355.466,167.732,366.918,153.6,366.933L153.6,366.933z"/>
		<path d="M196.267,366.933h-8.533c-14.132-0.015-25.585-11.468-25.6-25.6v-17.067c0-4.713,3.821-8.533,8.533-8.533
			s8.533,3.821,8.533,8.533v17.067c0.006,4.71,3.823,8.527,8.533,8.533h8.533c4.713,0,8.533,3.821,8.533,8.533
			C204.8,363.113,200.98,366.933,196.267,366.933z"/>
		<path d="M109.483,366.933c-3.049,0.016-5.874-1.596-7.412-4.229c-1.538-2.632-1.555-5.885-0.044-8.533
			c1.511-2.648,4.32-4.289,7.368-4.305h1.537c4.698-0.035,8.498-3.835,8.533-8.533v-17.067c0-4.713,3.821-8.533,8.533-8.533
			c4.713,0,8.533,3.821,8.533,8.533v17.067c-0.06,13.92-11.184,25.266-25.1,25.6H109.483z"/>
		<path d="M153.6,366.933h-8.533c-14.132-0.015-25.585-11.468-25.6-25.6v-17.067c0-4.713,3.821-8.533,8.533-8.533
			c4.713,0,8.533,3.821,8.533,8.533v17.067c0.006,4.71,3.823,8.527,8.533,8.533h8.533c4.713,0,8.533,3.821,8.533,8.533
			C162.133,363.113,158.313,366.933,153.6,366.933z"/>
		<path d="M196.267,366.933h-8.533c-4.713,0-8.533-3.821-8.533-8.533c0-4.713,3.82-8.533,8.533-8.533h8.533
			c4.71-0.006,8.527-3.823,8.533-8.533c0-4.713,3.821-8.533,8.533-8.533s8.533,3.82,8.533,8.533
			C221.851,355.466,210.399,366.918,196.267,366.933L196.267,366.933z"/>
		<path d="M238.933,366.933H230.4c-14.132-0.015-25.585-11.468-25.6-25.6c0-4.713,3.821-8.533,8.533-8.533s8.533,3.82,8.533,8.533
			c0.006,4.71,3.823,8.527,8.533,8.533h8.533c4.713,0,8.533,3.821,8.533,8.533C247.467,363.113,243.646,366.933,238.933,366.933
			L238.933,366.933z"/>
		<path d="M238.933,366.933H230.4c-4.713,0-8.533-3.821-8.533-8.533c0-4.713,3.821-8.533,8.533-8.533h8.533
			c4.71-0.006,8.527-3.823,8.533-8.533c0-4.713,3.821-8.533,8.533-8.533c4.713,0,8.533,3.82,8.533,8.533
			C264.518,355.466,253.065,366.918,238.933,366.933L238.933,366.933z"/>
		<path d="M281.6,366.933h-8.533c-14.132-0.015-25.585-11.468-25.6-25.6c0-4.713,3.821-8.533,8.533-8.533
			c4.713,0,8.533,3.82,8.533,8.533c0.006,4.71,3.823,8.527,8.533,8.533h8.533c4.713,0,8.533,3.821,8.533,8.533
			C290.133,363.113,286.313,366.933,281.6,366.933L281.6,366.933z"/>
		<path d="M281.6,366.933h-8.533c-4.713,0-8.533-3.821-8.533-8.533c0-4.713,3.82-8.533,8.533-8.533h8.533
			c4.71-0.006,8.527-3.823,8.533-8.533c0-4.713,3.821-8.533,8.533-8.533s8.533,3.82,8.533,8.533
			C307.185,355.466,295.732,366.918,281.6,366.933L281.6,366.933z"/>
		<path d="M324.267,366.933h-8.533c-14.132-0.015-25.585-11.468-25.6-25.6c0-4.713,3.821-8.533,8.533-8.533s8.533,3.82,8.533,8.533
			c0.006,4.71,3.823,8.527,8.533,8.533h8.533c4.713,0,8.533,3.821,8.533,8.533C332.8,363.113,328.98,366.933,324.267,366.933
			L324.267,366.933z"/>
		<path d="M213.333,401.067c-4.713,0-8.533-3.82-8.533-8.533v-17.067c-0.006-4.71-3.823-8.527-8.533-8.533h-8.533
			c-4.713,0-8.533-3.821-8.533-8.533c0-4.713,3.82-8.533,8.533-8.533h8.533c14.132,0.015,25.585,11.468,25.6,25.6v17.067
			C221.867,397.246,218.046,401.067,213.333,401.067z"/>
		<path d="M213.333,401.067c-4.713,0-8.533-3.82-8.533-8.533v-17.067c0.015-14.132,11.468-25.585,25.6-25.6h8.533
			c4.713,0,8.533,3.821,8.533,8.533c0,4.713-3.821,8.533-8.533,8.533H230.4c-4.71,0.006-8.527,3.823-8.533,8.533v17.067
			C221.867,397.246,218.046,401.067,213.333,401.067z"/>
		<path d="M170.667,384c-4.713,0-8.533-3.82-8.533-8.533c-0.006-4.71-3.823-8.527-8.533-8.533h-8.533
			c-4.713,0-8.533-3.821-8.533-8.533c0-4.713,3.821-8.533,8.533-8.533h8.533c14.132,0.015,25.585,11.468,25.6,25.6
			C179.2,380.18,175.38,384,170.667,384z"/>
		<path d="M170.667,384c-4.713,0-8.533-3.82-8.533-8.533c0.015-14.132,11.468-25.585,25.6-25.6h8.533
			c4.713,0,8.533,3.821,8.533,8.533c0,4.713-3.821,8.533-8.533,8.533h-8.533c-4.71,0.006-8.527,3.823-8.533,8.533
			C179.2,380.18,175.38,384,170.667,384z"/>
		<path d="M256,401.067c-4.713,0-8.533-3.82-8.533-8.533v-17.067c-0.006-4.71-3.823-8.527-8.533-8.533H230.4
			c-4.713,0-8.533-3.821-8.533-8.533c0-4.713,3.821-8.533,8.533-8.533h8.533c14.132,0.015,25.585,11.468,25.6,25.6v17.067
			C264.533,397.246,260.713,401.067,256,401.067z"/>
		<path d="M256,401.067c-4.713,0-8.533-3.82-8.533-8.533v-17.067c0.015-14.132,11.468-25.585,25.6-25.6h8.533
			c4.713,0,8.533,3.821,8.533,8.533c0,4.713-3.82,8.533-8.533,8.533h-8.533c-4.71,0.006-8.527,3.823-8.533,8.533v17.067
			C264.533,397.246,260.713,401.067,256,401.067z"/>
		<path d="M298.667,401.067c-4.713,0-8.533-3.82-8.533-8.533v-17.067c-0.006-4.71-3.823-8.527-8.533-8.533h-8.533
			c-4.713,0-8.533-3.821-8.533-8.533c0-4.713,3.82-8.533,8.533-8.533h8.533c14.132,0.015,25.585,11.468,25.6,25.6v17.067
			C307.2,397.246,303.38,401.067,298.667,401.067z"/>
		<path d="M298.667,401.067c-4.713,0-8.533-3.82-8.533-8.533v-17.067c0.015-14.132,11.468-25.585,25.6-25.6h8.533
			c4.713,0,8.533,3.821,8.533,8.533c0,4.713-3.821,8.533-8.533,8.533h-8.533c-4.71,0.006-8.527,3.823-8.533,8.533v17.067
			C307.2,397.246,303.38,401.067,298.667,401.067z"/>
		<path d="M341.333,384c-4.713,0-8.533-3.82-8.533-8.533c-0.006-4.71-3.823-8.527-8.533-8.533h-8.533
			c-4.713,0-8.533-3.821-8.533-8.533c0-4.713,3.82-8.533,8.533-8.533h8.533c14.132,0.015,25.585,11.468,25.6,25.6
			C349.867,380.18,346.046,384,341.333,384z"/>
		<path d="M341.333,384c-4.713,0-8.533-3.82-8.533-8.533c0.015-14.132,11.468-25.585,25.6-25.6h8.533
			c4.713,0,8.533,3.821,8.533,8.533c0,4.713-3.82,8.533-8.533,8.533H358.4c-4.71,0.006-8.527,3.823-8.533,8.533
			C349.867,380.18,346.046,384,341.333,384z"/>
		<path d="M324.267,366.933h-8.533c-4.713,0-8.533-3.821-8.533-8.533c0-4.713,3.82-8.533,8.533-8.533h8.533
			c4.71-0.006,8.527-3.823,8.533-8.533v-17.067c0-4.713,3.82-8.533,8.533-8.533s8.533,3.821,8.533,8.533v17.067
			C349.851,355.466,338.399,366.918,324.267,366.933L324.267,366.933z"/>
		<path d="M366.933,366.933H358.4c-14.132-0.015-25.585-11.468-25.6-25.6v-17.067c0-4.713,3.82-8.533,8.533-8.533
			s8.533,3.821,8.533,8.533v17.067c0.006,4.71,3.823,8.527,8.533,8.533h8.533c4.713,0,8.533,3.821,8.533,8.533
			C375.467,363.113,371.646,366.933,366.933,366.933z"/>
		<path d="M366.933,366.933H358.4c-4.713,0-8.533-3.821-8.533-8.533c0-4.713,3.821-8.533,8.533-8.533h8.533
			c4.71-0.006,8.527-3.823,8.533-8.533v-17.067c0-4.713,3.821-8.533,8.533-8.533c4.713,0,8.533,3.821,8.533,8.533v17.067
			C392.518,355.466,381.065,366.918,366.933,366.933L366.933,366.933z"/>
		<path d="M402.517,366.933h-1.45c-14.132-0.015-25.585-11.468-25.6-25.6v-17.067c0-4.713,3.821-8.533,8.533-8.533
			c4.713,0,8.533,3.821,8.533,8.533v17.067c0.006,4.71,3.823,8.527,8.533,8.533h1.45c4.713,0,8.533,3.821,8.533,8.533
			C411.05,363.113,407.23,366.933,402.517,366.933z"/>
	</g>
	<g>
		<path style="fill:#FC7308;" d="M206.336,254.635c-15.656,15.244-37.511,22.34-59.136,19.2c-0.022,0.023-0.053,0.036-0.085,0.036
			s-0.063-0.013-0.085-0.036c-10.313-1.798-19.754-6.923-26.88-14.592c-20.651-22.357-15.616-60.587,11.349-85.504
			c10.674-10.075,24.098-16.756,38.571-19.2h0.171c17.269-3.543,35.152,1.957,47.445,14.592
			C238.336,191.488,233.301,229.803,206.336,254.635z"/>
		<path style="fill:#FC7308;" d="M391.851,259.243c-12.293,12.635-30.177,18.136-47.445,14.592h-0.171
			c-14.461-2.48-27.874-9.157-38.571-19.2c-26.965-24.832-32-63.147-11.349-85.504c7.149-7.639,16.579-12.759,26.88-14.592
			c0.022-0.023,0.053-0.037,0.085-0.037c0.032,0,0.063,0.013,0.085,0.037c21.625-3.14,43.48,3.956,59.136,19.2
			C407.467,198.656,412.501,236.885,391.851,259.243z"/>
	</g>
	<g>
		<path style="fill:#FFA800;" d="M185.771,254.635c-10.697,10.043-24.11,16.719-38.571,19.2c-0.022,0.023-0.053,0.036-0.085,0.036
			s-0.063-0.013-0.085-0.036c-10.313-1.798-19.754-6.923-26.88-14.592c-20.651-22.357-15.616-60.587,11.349-85.504
			c10.674-10.075,24.098-16.756,38.571-19.2h0.171c10.301,1.833,19.731,6.953,26.88,14.592
			C217.771,191.488,212.736,229.803,185.771,254.635z"/>
		<path style="fill:#FFA800;" d="M371.285,259.243c-7.126,7.669-16.567,12.794-26.88,14.592h-0.171
			c-14.461-2.48-27.874-9.157-38.571-19.2c-26.965-24.832-32-63.147-11.349-85.504c7.149-7.639,16.579-12.759,26.88-14.592
			c0.022-0.023,0.053-0.037,0.085-0.037c0.032,0,0.063,0.013,0.085,0.037c14.461,2.48,27.874,9.157,38.571,19.2
			C386.901,198.656,391.936,236.885,371.285,259.243z"/>
	</g>
	<g>
		<path d="M157.496,283.321c-16.473,0.369-32.331-6.263-43.638-18.25c-11.908-13.243-17.183-31.163-14.35-48.746
			c6.223-38.622,38.016-68,77.008-71.158c17.785-1.684,35.337,5.027,47.46,18.148c12.124,13.121,17.43,31.147,14.348,48.744
			c-6.223,38.622-38.016,68-77.008,71.158C160.033,283.288,158.76,283.322,157.496,283.321z M180.292,162.133
			c-0.946,0-1.9,0.025-2.863,0.075c-30.794,2.718-55.867,25.888-61.004,56.371c-2.412,12.558,1.288,25.516,9.966,34.908
			s21.304,14.102,34.013,12.688c30.794-2.718,55.867-25.888,61.004-56.371c2.118-12.544-1.545-25.373-9.967-34.908l0,0
			C203.329,166.43,192.012,161.793,180.292,162.133L180.292,162.133z"/>
		<path d="M354.504,283.321c-1.263,0-2.536-0.035-3.821-0.104c-38.992-3.158-70.786-32.537-77.008-71.158
			c-2.833-17.583,2.442-35.503,14.35-48.746l0,0c12.259-12.918,29.708-19.59,47.458-18.146
			c38.992,3.158,70.786,32.537,77.008,71.158c2.833,17.583-2.442,35.503-14.35,48.746
			C386.835,277.058,370.978,283.69,354.504,283.321L354.504,283.321z M331.708,162.133c-11.721-0.341-23.038,4.296-31.15,12.763l0,0
			c-8.422,9.535-12.085,22.364-9.967,34.908c5.137,30.484,30.211,53.653,61.004,56.371c12.709,1.414,25.335-3.296,34.013-12.688
			c8.679-9.392,12.378-22.349,9.966-34.908c-5.137-30.484-30.211-53.653-61.004-56.371
			C333.608,162.158,332.654,162.133,331.708,162.133z"/>
	</g>
	<g>
		<path style="fill:#FFA800;" d="M229.989,274.244l-13.428,13.653c-7.651,7.779-0.842,19.302,11.405,19.302h13.428
			c7.29,0.672,13.779-4.607,14.606-11.881v-13.653C256,270.435,238.614,265.475,229.989,274.244z"/>
		<path style="fill:#FFA800;" d="M282.011,274.244l13.428,13.653c7.651,7.779,0.842,19.302-11.405,19.302h-13.428
			c-7.29,0.672-13.779-4.607-14.606-11.881v-13.653C256,270.435,273.386,265.475,282.011,274.244z"/>
	</g>
	<g>
		<path d="M241.396,315.733h-13.429c-9.259,0.338-17.816-4.911-21.712-13.317c-2.928-7.055-1.254-15.182,4.225-20.504l13.425-13.65
			c7.274-7.03,18.045-9.031,27.358-5.083c7.816,2.833,13.087,10.177,13.271,18.488v13.654
			C263.722,307.318,253.4,316.423,241.396,315.733L241.396,315.733z M241.246,278.296c-1.914-0.071-3.777,0.625-5.175,1.933l0,0
			l-13.425,13.65c-1.025,1.042-0.8,1.583-0.65,1.942c1.291,2.003,3.602,3.104,5.971,2.846h13.429c3.65,0,6.071-2.013,6.071-3.346
			v-13.654c0-1.483-2.046-2.433-2.671-2.692C243.666,278.525,242.462,278.295,241.246,278.296z"/>
		<path d="M284.033,315.733h-13.429c-12.005,0.69-22.326-8.416-23.138-20.413v-13.654c0.184-8.311,5.455-15.655,13.271-18.487
			c9.314-3.947,20.084-1.945,27.358,5.083l13.425,13.65c5.479,5.322,7.153,13.45,4.225,20.504
			C301.85,310.822,293.292,316.071,284.033,315.733L284.033,315.733z M270.754,278.296c-1.216-0.001-2.421,0.229-3.55,0.679
			c-0.625,0.258-2.671,1.208-2.671,2.692v13.654c0,1.333,2.421,3.346,6.071,3.346h13.429c2.369,0.259,4.68-0.843,5.971-2.846
			c0.15-0.358,0.375-0.9-0.65-1.942l-13.425-13.65l0,0C274.531,278.92,272.668,278.224,270.754,278.296L270.754,278.296z"/>
	</g>
</g>
<g>
</g>
<g>
</g>
<g>
</g>
<g>
</g>
<g>
</g>
<g>
</g>
<g>
</g>
<g>
</g>
<g>
</g>
<g>
</g>
<g>
</g>
<g>
</g>
<g>
</g>
<g>
</g>
<g>
</g>
</svg>
