<?xml version="1.0" encoding="iso-8859-1"?>
<!-- Generator: Adobe Illustrator 19.0.0, SVG Export Plug-In . SVG Version: 6.00 Build 0)  -->
<svg version="1.1" id="Capa_1" xmlns="http://www.w3.org/2000/svg" xmlns:xlink="http://www.w3.org/1999/xlink" x="0px" y="0px"
	 viewBox="0 0 512 512" style="enable-background:new 0 0 512 512;" xml:space="preserve">
<g>
	<path style="fill:#FFA800;" d="M503.467,436.855c0-5.459-0.087-10.898-0.261-16.316C497.517,251.943,407.956,97.34,264.532,8.533
		C121.109,97.341,31.55,251.944,25.861,420.54c-0.173,5.417-0.26,10.856-0.261,16.316l225.787,64.761
		c8.59,2.468,17.702,2.468,26.292,0L503.467,436.855z"/>
	<path style="fill:#FFFFFF;" d="M251.819,501.589c1.364,0.434,2.763,0.748,4.181,0.939c-7.052,1.44-14.35,1.117-21.248-0.939
		L8.533,436.821c0-5.461,0.085-10.837,0.256-16.299C14.165,246.955,113.237,95.403,247.467,8.533
		c2.901,1.877,5.717,3.755,8.533,5.717C121.231,106.281,38.806,257.389,34.389,420.523c-0.171,5.461-0.256,10.837-0.256,16.299
		L251.819,501.589z"/>
	<path style="fill:#FEDD0A;" d="M477.867,436.821l-217.685,64.768c-1.364,0.434-2.763,0.748-4.181,0.939
		c-1.418-0.191-2.818-0.505-4.181-0.939L34.133,436.821c0-5.461,0.085-10.837,0.256-16.299
		C38.806,257.389,121.231,106.281,256,14.251c134.769,92.03,217.194,243.138,221.611,406.272
		C477.781,425.984,477.867,431.36,477.867,436.821z"/>
	<path style="fill:#FFA800;" d="M43.4,409.412C51.7,264.379,130.179,131.55,256,48.838c125.821,82.712,204.3,215.538,212.6,360.575
		l-203.523,56.142c-5.94,1.639-12.213,1.639-18.153,0L43.4,409.412z"/>
	<path style="fill:#FEDD0A;" d="M42.667,409.412C50.371,264.739,124.36,131.702,243.2,48.838
		c118.841,82.864,192.83,215.902,200.533,360.575l-191.972,56.142c-5.59,1.639-11.533,1.639-17.123,0L42.667,409.412z"/>
	<path style="fill:#FFA800;" d="M447.573,297.301v0.085c-3.554,11.973-9.218,23.214-16.725,33.195
		c-4.968,6.646-10.696,12.689-17.067,18.005c-5.632,4.693-11.605,9.984-17.664,15.957c-19.093,18.452-34.881,40.041-46.677,63.829
		c-0.427,0.939-0.853,1.963-1.365,3.072c-1.963,4.096-3.755,8.363-5.376,12.715l-77.653,21.419c-5.921,1.621-12.169,1.621-18.091,0
		l-77.653-21.419c-15.101-37.429-39.58-70.343-71.083-95.573c-16.065-13.362-27.821-31.175-33.792-51.2v-0.085
		c31.141-94.812,91.628-177.263,172.715-235.435c6.144-4.523,12.459-8.875,18.859-13.056
		C346.294,107.406,413.879,195.07,447.573,297.301z"/>
	<path style="fill:#FEDD0A;" d="M430.848,330.581c-4.968,6.646-10.696,12.689-17.067,18.005
		c-5.632,4.693-11.605,9.984-17.664,15.957c-1.27,0.676-2.471,1.477-3.584,2.389c-20.053,16.555-30.037,31.744-43.093,61.44
		c-0.427,0.939-0.853,1.963-1.365,3.072c-1.963,4.096-3.755,8.363-5.376,12.715l-77.653,21.419c-5.921,1.621-12.169,1.621-18.091,0
		l-77.653-21.419c-15.101-37.429-39.58-70.343-71.083-95.573c-16.065-13.362-27.821-31.175-33.792-51.2v-0.085
		c31.141-94.812,91.628-177.263,172.715-235.435c88.875,58.566,155.36,145.438,188.672,246.528L430.848,330.581z"/>
	<g>
		<path style="fill:#D22047;" d="M218.112,254.805c-12.288,10.496-69.035,51.797-104.619-40.789
			c13.868,0.94,27.787,0.855,41.643-0.256C189.013,211.456,208.811,237.568,218.112,254.805z"/>
		<path style="fill:#D22047;" d="M398.251,214.016c-35.584,92.587-92.331,51.285-104.533,40.789
			c9.216-17.237,29.013-43.349,62.891-41.045C370.464,214.871,384.382,214.956,398.251,214.016L398.251,214.016z"/>
	</g>
	<g>
		<path d="M256,512c-5.37,0-10.716-0.726-15.892-2.158L6.254,445.079c-3.696-1.025-6.255-4.389-6.254-8.225
			c0-5.554,0.092-11.086,0.275-16.596c0.125-3.721,0.289-7.429,0.492-11.125c0.167-3.044,1.945-5.768,4.665-7.146
			c2.72-1.378,5.968-1.2,8.521,0.467s4.023,4.568,3.856,7.613c-0.196,3.579-0.354,7.165-0.475,10.758
			c-0.104,3.175-0.179,6.358-0.225,9.55l227.554,63.017c7.42,2.058,15.26,2.058,22.679,0l227.55-63.017
			c-0.046-3.191-0.121-6.375-0.225-9.55c-5.421-163.55-94.533-313.567-238.667-402.3C137.796,90.197,54.625,207.697,26.321,343.004
			c-0.594,2.992-2.741,5.438-5.629,6.418c-2.889,0.979-6.08,0.342-8.371-1.672s-3.333-5.097-2.733-8.088
			C39.226,197.904,127.035,75.107,251.596,1.225c2.709-1.633,6.099-1.633,8.808,0c151.7,91.367,245.654,248.017,251.321,419.033
			c0.183,5.513,0.275,11.045,0.275,16.596c0.001,3.836-2.558,7.201-6.254,8.225l-233.85,64.763
			C266.719,511.273,261.372,511.999,256,512z"/>
		<path d="M11.946,384c-0.573-0.016-1.144-0.073-1.708-0.171c-0.534-0.094-1.05-0.267-1.533-0.513
			c-0.544-0.187-1.062-0.447-1.538-0.771c-0.425-0.338-0.854-0.679-1.279-1.021c-0.79-0.801-1.401-1.761-1.792-2.817
			c-0.439-1.025-0.671-2.127-0.683-3.242c0.031-2.259,0.915-4.423,2.475-6.059l1.279-1.025c0.476-0.324,0.993-0.583,1.538-0.77
			c0.482-0.246,1-0.418,1.534-0.509c1.663-0.348,3.393-0.171,4.95,0.508c1.045,0.414,2.001,1.024,2.817,1.796
			c0.368,0.405,0.71,0.832,1.025,1.279c0.322,0.475,0.58,0.991,0.767,1.533c0.245,0.485,0.418,1.003,0.513,1.538
			c0.098,0.565,0.155,1.136,0.171,1.708c-0.014,1.115-0.246,2.216-0.683,3.242c-0.413,1.044-1.021,2-1.792,2.817
			c-0.817,0.77-1.773,1.378-2.817,1.792C14.162,383.754,13.061,383.986,11.946,384z"/>
		<path d="M256,475.317c-3.833,0-7.648-0.517-11.342-1.538L41.129,417.638c-3.876-1.069-6.479-4.699-6.25-8.713
			c8.504-148.542,87.388-282.387,216.433-367.217c2.844-1.875,6.531-1.875,9.375,0c129.046,84.829,207.933,218.675,216.433,367.217
			c0.229,4.014-2.374,7.643-6.25,8.713l-203.525,56.142C263.65,474.8,259.834,475.317,256,475.317L256,475.317z M52.367,403.033
			l196.829,54.296c4.455,1.225,9.158,1.225,13.612,0l196.825-54.296c-10.058-138.55-83.9-263.3-203.633-343.946
			C136.267,139.733,62.425,264.483,52.367,403.033z"/>
		<path d="M169.3,452.696c-3.547-0.001-6.723-2.196-7.979-5.513c-14.611-36.023-38.207-67.703-68.538-92.017
			c-17.378-14.429-30.091-33.684-36.533-55.333c-0.907-2.993-0.107-6.242,2.087-8.471s5.43-3.081,8.437-2.222
			c3.007,0.859,5.304,3.292,5.989,6.344c5.528,18.203,16.274,34.385,30.908,46.542c32.608,26.198,57.951,60.321,73.609,99.108
			c0.991,2.623,0.632,5.564-0.96,7.872S172.104,452.692,169.3,452.696L169.3,452.696z"/>
		<path d="M342.7,452.696c-2.803-0.004-5.426-1.384-7.019-3.691c-1.592-2.307-1.951-5.249-0.96-7.872
			c15.661-38.795,41.012-72.924,73.629-99.125c14.715-12.23,25.494-28.53,30.988-46.858c1.099-4.132,5.086-6.812,9.327-6.268
			c4.241,0.544,7.423,4.143,7.444,8.418c0,0.857-0.121,1.71-0.358,2.533c-6.439,21.641-19.144,40.89-36.513,55.317
			c-30.34,24.317-53.943,56.002-68.558,92.033C349.423,450.5,346.247,452.695,342.7,452.696L342.7,452.696z"/>
		<polygon points="402.517,366.933 109.483,366.933 109.397,349.867 402.517,349.867 		"/>
		<path d="M153.6,366.933h-8.533c-4.713,0-8.533-3.821-8.533-8.533c0-4.713,3.821-8.533,8.533-8.533h8.533
			c4.71-0.006,8.527-3.823,8.533-8.533v-17.067c0-4.713,3.821-8.533,8.533-8.533s8.533,3.821,8.533,8.533v17.067
			C179.185,355.466,167.732,366.918,153.6,366.933L153.6,366.933z"/>
		<path d="M196.267,366.933h-8.533c-14.132-0.015-25.585-11.468-25.6-25.6v-17.067c0-4.713,3.821-8.533,8.533-8.533
			s8.533,3.821,8.533,8.533v17.067c0.006,4.71,3.823,8.527,8.533,8.533h8.533c4.713,0,8.533,3.821,8.533,8.533
			C204.8,363.113,200.98,366.933,196.267,366.933z"/>
		<path d="M109.483,366.933c-3.049,0.016-5.874-1.596-7.412-4.229c-1.538-2.632-1.555-5.885-0.044-8.533
			c1.511-2.648,4.32-4.289,7.368-4.305h1.537c4.698-0.035,8.498-3.835,8.533-8.533v-17.067c0-4.713,3.821-8.533,8.533-8.533
			c4.713,0,8.533,3.821,8.533,8.533v17.067c-0.06,13.92-11.184,25.266-25.1,25.6H109.483z"/>
		<path d="M153.6,366.933h-8.533c-14.132-0.015-25.585-11.468-25.6-25.6v-17.067c0-4.713,3.821-8.533,8.533-8.533
			c4.713,0,8.533,3.821,8.533,8.533v17.067c0.006,4.71,3.823,8.527,8.533,8.533h8.533c4.713,0,8.533,3.821,8.533,8.533
			C162.133,363.113,158.313,366.933,153.6,366.933z"/>
		<path d="M196.267,366.933h-8.533c-4.713,0-8.533-3.821-8.533-8.533c0-4.713,3.82-8.533,8.533-8.533h8.533
			c4.71-0.006,8.527-3.823,8.533-8.533c0-4.713,3.821-8.533,8.533-8.533s8.533,3.82,8.533,8.533
			C221.851,355.466,210.399,366.918,196.267,366.933L196.267,366.933z"/>
		<path d="M238.933,366.933H230.4c-14.132-0.015-25.585-11.468-25.6-25.6c0-4.713,3.821-8.533,8.533-8.533s8.533,3.82,8.533,8.533
			c0.006,4.71,3.823,8.527,8.533,8.533h8.533c4.713,0,8.533,3.821,8.533,8.533C247.467,363.113,243.646,366.933,238.933,366.933
			L238.933,366.933z"/>
		<path d="M238.933,366.933H230.4c-4.713,0-8.533-3.821-8.533-8.533c0-4.713,3.821-8.533,8.533-8.533h8.533
			c4.71-0.006,8.527-3.823,8.533-8.533c0-4.713,3.821-8.533,8.533-8.533c4.713,0,8.533,3.82,8.533,8.533
			C264.518,355.466,253.065,366.918,238.933,366.933L238.933,366.933z"/>
		<path d="M281.6,366.933h-8.533c-14.132-0.015-25.585-11.468-25.6-25.6c0-4.713,3.821-8.533,8.533-8.533
			c4.713,0,8.533,3.82,8.533,8.533c0.006,4.71,3.823,8.527,8.533,8.533h8.533c4.713,0,8.533,3.821,8.533,8.533
			C290.133,363.113,286.313,366.933,281.6,366.933L281.6,366.933z"/>
		<path d="M281.6,366.933h-8.533c-4.713,0-8.533-3.821-8.533-8.533c0-4.713,3.82-8.533,8.533-8.533h8.533
			c4.71-0.006,8.527-3.823,8.533-8.533c0-4.713,3.821-8.533,8.533-8.533s8.533,3.82,8.533,8.533
			C307.185,355.466,295.732,366.918,281.6,366.933L281.6,366.933z"/>
		<path d="M324.267,366.933h-8.533c-14.132-0.015-25.585-11.468-25.6-25.6c0-4.713,3.821-8.533,8.533-8.533s8.533,3.82,8.533,8.533
			c0.006,4.71,3.823,8.527,8.533,8.533h8.533c4.713,0,8.533,3.821,8.533,8.533C332.8,363.113,328.98,366.933,324.267,366.933
			L324.267,366.933z"/>
		<path d="M213.333,401.067c-4.713,0-8.533-3.82-8.533-8.533v-17.067c-0.006-4.71-3.823-8.527-8.533-8.533h-8.533
			c-4.713,0-8.533-3.821-8.533-8.533c0-4.713,3.82-8.533,8.533-8.533h8.533c14.132,0.015,25.585,11.468,25.6,25.6v17.067
			C221.867,397.246,218.046,401.067,213.333,401.067z"/>
		<path d="M213.333,401.067c-4.713,0-8.533-3.82-8.533-8.533v-17.067c0.015-14.132,11.468-25.585,25.6-25.6h8.533
			c4.713,0,8.533,3.821,8.533,8.533c0,4.713-3.821,8.533-8.533,8.533H230.4c-4.71,0.006-8.527,3.823-8.533,8.533v17.067
			C221.867,397.246,218.046,401.067,213.333,401.067z"/>
		<path d="M170.667,384c-4.713,0-8.533-3.82-8.533-8.533c-0.006-4.71-3.823-8.527-8.533-8.533h-8.533
			c-4.713,0-8.533-3.821-8.533-8.533c0-4.713,3.821-8.533,8.533-8.533h8.533c14.132,0.015,25.585,11.468,25.6,25.6
			C179.2,380.18,175.38,384,170.667,384z"/>
		<path d="M170.667,384c-4.713,0-8.533-3.82-8.533-8.533c0.015-14.132,11.468-25.585,25.6-25.6h8.533
			c4.713,0,8.533,3.821,8.533,8.533c0,4.713-3.821,8.533-8.533,8.533h-8.533c-4.71,0.006-8.527,3.823-8.533,8.533
			C179.2,380.18,175.38,384,170.667,384z"/>
		<path d="M256,401.067c-4.713,0-8.533-3.82-8.533-8.533v-17.067c-0.006-4.71-3.823-8.527-8.533-8.533H230.4
			c-4.713,0-8.533-3.821-8.533-8.533c0-4.713,3.821-8.533,8.533-8.533h8.533c14.132,0.015,25.585,11.468,25.6,25.6v17.067
			C264.533,397.246,260.713,401.067,256,401.067z"/>
		<path d="M256,401.067c-4.713,0-8.533-3.82-8.533-8.533v-17.067c0.015-14.132,11.468-25.585,25.6-25.6h8.533
			c4.713,0,8.533,3.821,8.533,8.533c0,4.713-3.82,8.533-8.533,8.533h-8.533c-4.71,0.006-8.527,3.823-8.533,8.533v17.067
			C264.533,397.246,260.713,401.067,256,401.067z"/>
		<path d="M298.667,401.067c-4.713,0-8.533-3.82-8.533-8.533v-17.067c-0.006-4.71-3.823-8.527-8.533-8.533h-8.533
			c-4.713,0-8.533-3.821-8.533-8.533c0-4.713,3.82-8.533,8.533-8.533h8.533c14.132,0.015,25.585,11.468,25.6,25.6v17.067
			C307.2,397.246,303.38,401.067,298.667,401.067z"/>
		<path d="M298.667,401.067c-4.713,0-8.533-3.82-8.533-8.533v-17.067c0.015-14.132,11.468-25.585,25.6-25.6h8.533
			c4.713,0,8.533,3.821,8.533,8.533c0,4.713-3.821,8.533-8.533,8.533h-8.533c-4.71,0.006-8.527,3.823-8.533,8.533v17.067
			C307.2,397.246,303.38,401.067,298.667,401.067z"/>
		<path d="M341.333,384c-4.713,0-8.533-3.82-8.533-8.533c-0.006-4.71-3.823-8.527-8.533-8.533h-8.533
			c-4.713,0-8.533-3.821-8.533-8.533c0-4.713,3.82-8.533,8.533-8.533h8.533c14.132,0.015,25.585,11.468,25.6,25.6
			C349.867,380.18,346.046,384,341.333,384z"/>
		<path d="M341.333,384c-4.713,0-8.533-3.82-8.533-8.533c0.015-14.132,11.468-25.585,25.6-25.6h8.533
			c4.713,0,8.533,3.821,8.533,8.533c0,4.713-3.82,8.533-8.533,8.533H358.4c-4.71,0.006-8.527,3.823-8.533,8.533
			C349.867,380.18,346.046,384,341.333,384z"/>
		<path d="M324.267,366.933h-8.533c-4.713,0-8.533-3.821-8.533-8.533c0-4.713,3.82-8.533,8.533-8.533h8.533
			c4.71-0.006,8.527-3.823,8.533-8.533v-17.067c0-4.713,3.82-8.533,8.533-8.533s8.533,3.821,8.533,8.533v17.067
			C349.851,355.466,338.399,366.918,324.267,366.933L324.267,366.933z"/>
		<path d="M366.933,366.933H358.4c-14.132-0.015-25.585-11.468-25.6-25.6v-17.067c0-4.713,3.82-8.533,8.533-8.533
			s8.533,3.821,8.533,8.533v17.067c0.006,4.71,3.823,8.527,8.533,8.533h8.533c4.713,0,8.533,3.821,8.533,8.533
			C375.467,363.113,371.646,366.933,366.933,366.933z"/>
		<path d="M366.933,366.933H358.4c-4.713,0-8.533-3.821-8.533-8.533c0-4.713,3.821-8.533,8.533-8.533h8.533
			c4.71-0.006,8.527-3.823,8.533-8.533v-17.067c0-4.713,3.821-8.533,8.533-8.533c4.713,0,8.533,3.821,8.533,8.533v17.067
			C392.518,355.466,381.065,366.918,366.933,366.933L366.933,366.933z"/>
		<path d="M402.517,366.933h-1.45c-14.132-0.015-25.585-11.468-25.6-25.6v-17.067c0-4.713,3.821-8.533,8.533-8.533
			c4.713,0,8.533,3.821,8.533,8.533v17.067c0.006,4.71,3.823,8.527,8.533,8.533h1.45c4.713,0,8.533,3.821,8.533,8.533
			C411.05,363.113,407.23,366.933,402.517,366.933z"/>
		<path d="M224.683,277.838c-3.676-0.002-6.938-2.354-8.1-5.842c-1.635-4.518-3.627-8.899-5.958-13.1
			c-9.596-17.783-26.996-38.454-54.908-36.625c-14.283,1.133-28.63,1.216-42.925,0.25c-4.328-0.326-8.627-0.963-12.862-1.908
			c-4.586-1.082-7.427-5.676-6.346-10.263c1.082-4.586,5.676-7.427,10.263-6.346c3.422,0.745,6.891,1.251,10.383,1.513
			c13.433,0.893,26.913,0.803,40.333-0.271c38.983-2.692,61.275,27.371,71.058,45.508c2.827,5.088,5.225,10.404,7.167,15.892
			c0.852,2.599,0.406,5.448-1.198,7.663S227.418,277.836,224.683,277.838L224.683,277.838z"/>
		<path d="M174.342,281.588c-4.413,0.007-8.809-0.536-13.087-1.617c-23.163-5.858-41.9-27.029-55.692-62.921l7.95-3.117l8.154-2.508
			l0.017,0.054c11.496,29.862,26.283,47.525,43.754,51.946c21.121,5.338,41.417-10.2,47.129-15.092
			c2.315-1.983,5.512-2.58,8.386-1.567c2.875,1.013,4.99,3.483,5.55,6.479c0.56,2.996-0.521,6.063-2.836,8.046
			C209.963,273.392,192.593,280.539,174.342,281.588L174.342,281.588z"/>
		<path d="M287.146,277.838c-2.735-0.002-5.303-1.314-6.907-3.529c-1.604-2.215-2.049-5.064-1.198-7.663
			c1.948-5.502,4.352-10.832,7.188-15.933c9.667-18.079,31.771-48.117,70.958-45.467c13.43,1.062,26.92,1.151,40.363,0.267
			c3.64-0.297,7.258-0.819,10.833-1.563c4.616-0.955,9.133,2.013,10.088,6.629c0.955,4.616-2.013,9.133-6.629,10.088
			c-4.251,0.881-8.552,1.5-12.879,1.854c-14.297,0.956-28.644,0.872-42.929-0.25c-28.233-1.921-45.313,18.825-54.792,36.558
			c-2.346,4.222-4.351,8.625-5.996,13.167C294.083,275.482,290.821,277.834,287.146,277.838z"/>
		<path d="M337.463,281.588c-18.251-1.051-35.621-8.196-49.329-20.292c-3.563-3.07-3.971-8.443-0.913-12.016
			c3.058-3.573,8.431-3.998,12.013-0.951c5.717,4.896,26.013,20.433,47.133,15.095c17.45-4.417,32.217-22.038,43.895-52.379
			c1.54-4.234,6.107-6.541,10.428-5.269s6.911,5.684,5.913,10.077c-0.096,0.406-0.217,0.805-0.363,1.196
			c-13.792,35.888-32.529,57.058-55.688,62.921C346.274,281.05,341.876,281.593,337.463,281.588z"/>
	</g>
</g>
<g>
</g>
<g>
</g>
<g>
</g>
<g>
</g>
<g>
</g>
<g>
</g>
<g>
</g>
<g>
</g>
<g>
</g>
<g>
</g>
<g>
</g>
<g>
</g>
<g>
</g>
<g>
</g>
<g>
</g>
</svg>
