<?xml version="1.0" encoding="iso-8859-1"?>
<!-- Generator: Adobe Illustrator 19.0.0, SVG Export Plug-In . SVG Version: 6.00 Build 0)  -->
<svg version="1.1" id="Capa_1" xmlns="http://www.w3.org/2000/svg" xmlns:xlink="http://www.w3.org/1999/xlink" x="0px" y="0px"
	 viewBox="0 0 504.004 504.004" style="enable-background:new 0 0 504.004 504.004;" xml:space="preserve">
<g transform="translate(0 -1)">
	<path style="fill:#FEDD0A;" d="M427.971,393.772c0,0,8.393,44.133,41.967,51.218c0,0-33.49,76.571-167.281,42.852"/>
	<g>
		<path style="fill:#FFA800;" d="M445.051,217.485v124.391c0.016,4.471-0.349,8.936-1.091,13.346
			c-3.286,18.332-12.804,34.965-26.943,47.087l-63.454,56.068c-27.523,24.388-63.024,37.854-99.798,37.854h-3.525
			c-3.609,0-7.218-0.168-10.828-0.42c-32.959-2.387-64.219-15.54-88.97-37.435l-63.454-56.068
			c-14.139-12.122-23.657-28.756-26.943-47.087c-0.742-4.409-1.107-8.874-1.091-13.346V217.485c-0.002-2.778,0.166-5.553,0.504-8.31
			c1.408-15.547,7.168-30.382,16.619-42.807c3.371,24.886,9.306,49.357,17.71,73.023c0.587,1.847,1.259,3.693,1.93,5.456
			c8.75,24.892,18.894,49.271,30.384,73.023c-4.581-18.61-6.67-37.747-6.211-56.908c0.084-5.875,0.504-11.667,1.091-17.458
			c0.915-8.944,2.344-17.828,4.281-26.607c1.996-9.118,4.604-18.091,7.806-26.859c4.334-12.407,10.411-24.136,18.046-34.833
			c6.199-8.296,13.515-15.696,21.739-21.991c4.197-3.273,8.561-6.379,13.094-9.401c7.89-5.372,16.031-10.408,24.089-15.78
			c0.115,8.446,0.929,16.868,2.434,25.18c0.252,1.343,0.504,2.686,0.755,3.945c3.258,15.79,7.805,31.286,13.597,46.332
			c2.297-16.742,6.521-33.162,12.59-48.934v-0.084l0.504-1.259c3.306-8.238,7.352-16.161,12.087-23.669
			c4.769,7.489,8.817,15.415,12.087,23.669c0.504,1.259,1.007,2.602,1.511,3.945c5.552,15,9.436,30.566,11.583,46.416
			c6.281-16.324,11.085-33.178,14.353-50.361c0.504-3.106,1.007-6.295,1.343-9.401c0.689-5.232,1.053-10.502,1.091-15.78
			c12.59,8.393,25.516,16.031,37.183,25.18c8.224,6.295,15.54,13.695,21.739,21.991c7.635,10.697,13.711,22.425,18.046,34.833
			c3.202,8.768,5.81,17.741,7.806,26.859c1.937,8.78,3.366,17.663,4.281,26.607c0.07,0.444,0.098,0.894,0.084,1.343
			c0.588,5.372,0.923,10.66,1.007,16.115c0.459,19.161-1.63,38.297-6.211,56.908c12.353-25.48,23.145-51.688,32.315-78.479
			c3.357-9.736,6.463-19.976,9.149-30.216c3.923-14.034,6.785-28.343,8.561-42.807C439.073,181.077,445.087,199.033,445.051,217.485
			z"/>
		<path style="fill:#FFA800;" d="M445.673,337.596v-120.11c0.052-18.404-5.843-36.333-16.805-51.116
			c-3.304,24.867-9.129,49.334-17.383,73.023c-8.991,26.771-19.582,52.978-31.716,78.479c4.498-18.623,6.547-37.754,6.096-56.908
			c-0.082-5.875-0.494-11.667-1.071-17.458c-0.898-8.941-2.3-17.824-4.202-26.607c-1.957-9.112-4.517-18.085-7.661-26.859
			c-4.242-12.384-10.204-24.109-17.711-34.833c-6.066-8.277-13.246-15.677-21.337-21.991c-11.451-9.149-24.137-16.787-36.495-25.18
			c-0.113,8.444-0.912,16.865-2.389,25.18c-3.203,17.169-7.917,34.021-14.087,50.361c-2.305-17.231-6.618-34.132-12.851-50.361
			c-3.204-8.244-7.175-16.169-11.862-23.669c-4.653,7.52-8.623,15.441-11.863,23.669c-6.233,16.228-10.546,33.13-12.851,50.361
			c-6.17-16.339-10.884-33.192-14.087-50.361c-1.477-8.315-2.276-16.736-2.389-25.18c-12.357,8.393-25.043,16.031-36.495,25.18
			c-8.09,6.313-15.27,13.714-21.337,21.991c-7.507,10.723-13.469,22.449-17.711,34.833c-3.145,8.774-5.704,17.747-7.661,26.859
			c-1.901,8.783-3.304,17.666-4.202,26.607c-0.577,5.791-0.989,11.583-1.071,17.458c-0.451,19.154,1.598,38.284,6.096,56.908
			c-12.134-25.501-22.725-51.708-31.716-78.479c-8.254-23.689-14.078-48.156-17.383-73.023
			c-10.963,14.783-16.857,32.712-16.805,51.116v120.11c-21.552-33.675-32.988-72.827-32.951-112.808
			c0-118.935,99.598-215.376,222.426-215.376s222.426,96.441,222.426,215.376C478.661,264.769,467.225,303.921,445.673,337.596z"/>
	</g>
	<path style="fill:#FFFFFF;" d="M50.559,224.788c-0.008,19.664,2.819,39.226,8.393,58.083v54.725
		c-10.991-16.931-19.473-35.364-25.18-54.725c-5.575-18.857-8.401-38.419-8.393-58.083c0-114.906,94.762-208.829,214.033-215.04
		c4.197,0.252,8.477,0.588,12.59,1.007C138.691,22.674,50.559,113.994,50.559,224.788z"/>
	<path style="fill:#FEDD0A;" d="M445.051,282.87v-65.385c0.002-2.778-0.166-5.553-0.504-8.31v-0.084
		c-1.461-15.509-7.216-30.303-16.619-42.723c-1.776,14.463-4.638,28.773-8.561,42.807c-2.685,10.24-5.791,20.48-9.149,30.216
		c-0.587,1.847-1.259,3.693-1.93,5.456v0.084c-8.74,24.868-18.884,49.22-30.384,72.939c4.582-18.61,6.67-37.747,6.211-56.908
		c-0.084-5.456-0.42-10.744-1.007-16.115c0.014-0.449-0.014-0.899-0.084-1.343c-0.915-8.944-2.344-17.828-4.281-26.607
		c-1.996-9.118-4.604-18.092-7.806-26.859c-4.334-12.407-10.41-24.136-18.045-34.833c-6.199-8.296-13.515-15.696-21.74-21.991
		c-4.197-3.273-8.561-6.379-13.093-9.401c-7.89-5.372-16.031-10.408-24.089-15.78c-0.038,5.277-0.402,10.547-1.091,15.78
		c-0.335,3.106-0.839,6.295-1.343,9.401c-0.252,1.343-0.503,2.686-0.755,3.945c-3.245,15.82-7.792,31.345-13.597,46.416
		c-2.148-15.85-6.032-31.415-11.583-46.416c-0.335-0.923-0.671-1.763-1.007-2.602v-0.084l-0.504-1.259
		c-3.27-8.255-7.317-16.18-12.086-23.669c-4.735,7.509-8.78,15.431-12.086,23.669l-0.504,1.259v0.084
		c-0.336,0.839-0.672,1.679-1.007,2.602c-5.513,14.983-9.396,30.517-11.583,46.332c-5.793-15.046-10.34-30.542-13.597-46.332
		c-0.252-1.259-0.503-2.602-0.755-3.945c-0.504-3.106-1.008-6.295-1.343-9.401c-0.689-5.232-1.053-10.502-1.091-15.78
		c-8.058,5.372-16.199,10.408-24.089,15.78c-4.532,3.022-8.897,6.127-13.093,9.401c-8.224,6.294-15.54,13.695-21.74,21.991
		c-7.635,10.697-13.711,22.425-18.045,34.833c-3.203,8.767-5.811,17.741-7.807,26.859c-1.937,8.779-3.366,17.663-4.281,26.607
		c-0.07,0.416-0.098,0.838-0.084,1.259v0.084c-0.587,5.372-0.923,10.66-1.007,16.115c-0.459,19.161,1.629,38.297,6.211,56.908
		c-11.49-23.752-21.634-48.131-30.384-73.023c-0.671-1.763-1.343-3.609-1.93-5.456c-3.273-9.736-6.463-19.893-9.149-30.132v-0.084
		c-3.924-14.034-6.785-28.343-8.561-42.807c-9.452,12.424-15.212,27.26-16.619,42.807c-0.338,2.757-0.506,5.532-0.504,8.31v65.385
		c-5.575-18.857-8.401-38.419-8.393-58.083c0-110.793,88.131-202.114,201.443-214.033c100.049,10.492,180.459,82.927,197.918,176.01
		C455.914,218.735,454.245,251.67,445.051,282.87L445.051,282.87z"/>
	<path style="fill:#FFFFFF;" d="M201.306,487.838c-1.258,0.336-2.601,0.671-3.861,0.923l-104.33-78.311c0,0-8.393,44.15-41.967,51.2
		c1.992,4.025,4.412,7.824,7.217,11.331c-10.2-7.272-18.539-16.848-24.34-27.95c33.574-7.134,41.967-51.284,41.967-51.284
		L201.306,487.838z"/>
	<path style="fill:#FEDD0A;" d="M197.445,488.761c-73.443,17.626-115.914,1.595-139.08-15.78c-2.805-3.507-5.225-7.306-7.217-11.331
		c33.574-7.05,41.967-51.2,41.967-51.2L197.445,488.761z"/>
	<path style="fill:#FFFFFF;" d="M252.002,494.385c-4.197,0.671-8.393,1.091-12.59,1.427c-32.959-2.387-64.219-15.541-88.97-37.435
		l-63.454-56.068c-14.14-12.121-23.658-28.755-26.944-47.087c-0.742-4.41-1.107-8.874-1.091-13.346V217.485
		c-0.002-2.778,0.166-5.553,0.504-8.31c1.407-15.547,7.167-30.383,16.619-42.807c1.776,14.463,4.638,28.773,8.561,42.807v0.084
		c-0.338,2.729-0.506,5.476-0.504,8.226v124.391c-0.015,4.471,0.35,8.936,1.091,13.346c3.286,18.332,12.804,34.966,26.944,47.087
		l63.454,56.068C197.154,477.377,223.644,489.865,252.002,494.385L252.002,494.385z"/>
	<path style="fill:#FEDD0A;" d="M419.871,217.485v124.391c0.015,4.471-0.35,8.936-1.091,13.346
		c-3.286,18.332-12.804,34.966-26.944,47.087l-63.454,56.068c-21.533,19-48.022,31.487-76.38,36.008
		c-28.358-4.521-54.848-17.008-76.38-36.008l-63.454-56.068c-14.14-12.121-23.658-28.755-26.944-47.087
		c-0.742-4.41-1.107-8.874-1.091-13.346V217.485c-0.002-2.75,0.166-5.497,0.504-8.226c2.685,10.24,5.875,20.396,9.149,30.132
		c0.587,1.847,1.259,3.693,1.93,5.456c8.75,24.892,18.894,49.271,30.384,73.023c-4.582-18.61-6.67-37.747-6.211-56.908
		c0.084-5.456,0.42-10.744,1.007-16.115v-0.084c-0.014-0.421,0.014-0.843,0.084-1.259c0.915-8.944,2.344-17.828,4.281-26.607
		c1.996-9.118,4.604-18.092,7.806-26.859c4.334-12.407,10.41-24.136,18.045-34.833c6.199-8.296,13.515-15.696,21.74-21.991
		c4.197-3.273,8.561-6.379,13.093-9.401c7.89-5.372,16.031-10.408,24.089-15.78c0.038,5.277,0.402,10.547,1.091,15.78
		c0.335,3.106,0.839,6.295,1.343,9.401c0.252,1.343,0.503,2.686,0.755,3.945c3.257,15.79,7.805,31.286,13.597,46.332
		c2.187-15.815,6.07-31.348,11.583-46.332c0.335-0.923,0.671-1.763,1.007-2.602v-0.084l0.504-1.259
		c3.306-8.238,7.351-16.16,12.086-23.669c4.769,7.489,8.816,15.415,12.086,23.669l0.504,1.259v0.084
		c0.336,0.839,0.672,1.679,1.007,2.602c5.551,15,9.435,30.566,11.583,46.416c5.805-15.07,10.353-30.595,13.597-46.416
		c0.252-1.259,0.503-2.602,0.755-3.945c0.504-3.106,1.008-6.295,1.343-9.401c0.689-5.232,1.053-10.502,1.091-15.78
		c8.058,5.372,16.199,10.408,24.089,15.78c4.532,3.022,8.897,6.127,13.093,9.401c8.224,6.294,15.54,13.695,21.74,21.991
		c7.635,10.697,13.711,22.425,18.045,34.833c3.203,8.767,5.811,17.741,7.807,26.859c1.937,8.779,3.366,17.663,4.281,26.607
		c0.07,0.444,0.098,0.894,0.084,1.343c0.587,5.372,0.923,10.66,1.007,16.115c0.459,19.161-1.629,38.297-6.211,56.908
		c11.5-23.719,21.644-48.071,30.384-72.939v-0.084c0.672-1.763,1.343-3.609,1.931-5.456c3.357-9.736,6.463-19.976,9.149-30.216
		C419.705,211.933,419.873,214.708,419.871,217.485L419.871,217.485z"/>
	<g>
		<path d="M253.765,504.709h-3.525c-38.819-0.006-76.294-14.216-105.357-39.951l-63.455-56.09
			c-15.603-13.404-26.089-31.791-29.68-52.045c-0.807-4.838-1.205-9.735-1.189-14.639V217.557
			c-0.068-20.283,6.547-40.023,18.824-56.168c2.798-3.696,8.062-4.425,11.758-1.627c3.696,2.798,4.425,8.062,1.627,11.758
			c-10.06,13.234-15.48,29.414-15.422,46.037v124.426c-0.013,3.997,0.311,7.988,0.967,11.93
			c2.975,16.443,11.544,31.353,24.254,42.201l63.43,56.07c25.997,23.018,59.518,35.73,94.242,35.738h3.525
			c34.722-0.007,68.242-12.719,94.237-35.738l63.459-56.09c12.671-10.812,21.22-25.666,24.205-42.053
			c0.672-3.984,1.004-8.017,0.992-12.057V217.557c0.058-16.623-5.362-32.803-15.422-46.037c-1.81-2.391-2.206-5.566-1.04-8.329
			c1.166-2.763,3.717-4.694,6.693-5.065c2.976-0.372,5.923,0.872,7.733,3.263c12.277,16.145,18.892,35.885,18.824,56.168v124.426
			c0.015,4.948-0.39,9.888-1.213,14.766c-3.601,20.197-14.068,38.53-29.631,51.898l-63.48,56.111
			C330.058,490.493,292.583,504.703,253.765,504.709z"/>
		<path d="M126.1,326.348c-3.179-0.001-6.085-1.796-7.508-4.639c-12.538-25.816-23.477-52.378-32.754-79.537
			c-8.628-24.223-14.695-49.283-18.102-74.77c-0.523-4.606,2.787-8.764,7.393-9.287c4.606-0.523,8.764,2.787,9.287,7.393
			c3.273,24.295,9.076,48.182,17.316,71.27c3.16,9.303,6.471,18.271,9.721,26.598c0.012-0.836,0.025-1.676,0.041-2.512
			c0.082-5.467,0.455-11.414,1.139-18.127c0.947-9.266,2.426-18.47,4.43-27.566c2.077-9.497,4.795-18.842,8.135-27.971
			c4.599-13.132,11.042-25.543,19.135-36.861c6.653-8.925,14.511-16.886,23.348-23.656c8.521-6.68,17.721-12.602,26.615-18.332
			c3.697-2.377,7.406-4.766,11.082-7.217c2.575-1.717,5.887-1.878,8.616-0.417s4.433,4.305,4.433,7.401
			c0.108,7.976,0.883,15.928,2.316,23.775c1.189,6.648,2.717,13.18,4.324,19.189c1.974-7.092,4.329-14.072,7.057-20.91
			c4.878-13.223,12.027-25.493,21.123-36.258c3.202-3.353,8.516-3.476,11.869-0.274c3.353,3.202,3.476,8.516,0.274,11.869
			c-7.57,9.266-13.55,19.723-17.697,30.947c-6.087,15.582-10.305,31.831-12.566,48.406c-0.543,3.759-3.541,6.684-7.312,7.135
			s-7.374-1.687-8.786-5.213c-6.505-16.85-11.467-34.256-14.824-52.004c-0.705-4.156-1.262-8.061-1.676-11.762
			c-8.652,5.574-16.836,10.877-24.5,16.889c-7.626,5.823-14.409,12.673-20.156,20.357c-7.157,10.046-12.85,21.058-16.909,32.705
			c-3.089,8.438-5.601,17.077-7.516,25.857c-1.861,8.455-3.236,17.01-4.119,25.623c-0.639,6.303-0.975,11.619-1.049,16.725
			c-0.449,18.436,1.556,36.851,5.963,54.758c0.622,2.506,0.057,5.159-1.534,7.193S128.682,326.347,126.1,326.348z"/>
		<path d="M58.961,346.074c-2.843,0.004-5.495-1.432-7.045-3.816c-17.41-26.589-28.67-56.726-32.959-88.217
			c-0.406-2.971,0.805-5.932,3.175-7.769c2.37-1.837,5.54-2.269,8.316-1.135s4.735,3.663,5.141,6.634
			c3.96,29.034,14.346,56.819,30.402,81.332c1.679,2.579,1.811,5.871,0.345,8.577C64.869,344.385,62.039,346.072,58.961,346.074z"/>
		<path d="M29.121,194.152c-0.538,0-1.074-0.051-1.602-0.152c-4.55-0.883-7.526-5.285-6.648-9.836
			C41.371,78.09,138.576,1.102,252.002,1.102c4.636,0,8.393,3.758,8.393,8.393s-3.758,8.393-8.393,8.393
			c-105.398,0-195.672,71.27-214.648,169.463C36.591,191.297,33.139,194.148,29.121,194.152z"/>
		<path d="M25.379,227.725c-2.222-0.033-4.35-0.902-5.959-2.434c-0.361-0.399-0.698-0.819-1.008-1.258
			c-0.319-0.468-0.574-0.977-0.758-1.512c-0.241-0.476-0.41-0.986-0.5-1.513c-0.098-0.554-0.155-1.114-0.168-1.676
			c0.031-2.222,0.9-4.351,2.434-5.959c3.365-3.107,8.553-3.107,11.918,0c0.336,0.418,0.672,0.836,1.004,1.258
			c0.318,0.467,0.573,0.974,0.758,1.508c0.254,0.502,0.424,1.042,0.504,1.598c0.097,0.526,0.153,1.06,0.168,1.595
			c-0.015,0.562-0.071,1.122-0.168,1.676c-0.093,0.526-0.263,1.036-0.504,1.512c-0.184,0.536-0.439,1.044-0.758,1.512
			c-0.332,0.418-0.668,0.836-1.004,1.258c-0.399,0.36-0.819,0.695-1.258,1.004c-0.468,0.319-0.977,0.574-1.512,0.758
			c-0.477,0.241-0.986,0.411-1.512,0.504C26.501,227.654,25.941,227.71,25.379,227.725z"/>
		<path d="M137.801,505.004c-85.475,0-110.184-52.902-111.402-55.639c-1.031-2.319-0.957-4.981,0.202-7.239
			c1.158-2.259,3.276-3.872,5.762-4.388c27.607-5.73,35.361-43.373,35.434-43.754c0.885-4.551,5.292-7.522,9.842-6.637
			c4.551,0.885,7.522,5.292,6.637,9.842c-0.348,1.791-8.049,39.824-37.537,53.389c12.844,17.242,53.139,54.012,152.586,29.365
			c2.913-0.728,5.993,0.155,8.077,2.317c2.084,2.161,2.856,5.271,2.023,8.156s-3.143,5.105-6.059,5.822
			C181.947,501.802,159.93,504.746,137.801,505.004z"/>
	</g>
	<g>
		<path style="fill:#1CD759;" d="M214.904,285.304c-11.164,9.569-60.098,45.325-95.014-22.662v-1.595c0-2.35,0.084-4.7,0.252-6.967
			c0.168-3.022,0.42-6.043,0.671-9.065l42.639-0.336c13.432-0.104,26.101,6.231,34.077,17.039L214.904,285.304z"/>
		<path style="fill:#1CD759;" d="M384.115,261.047v2.014c-29.965,58.083-70.337,39.701-88.131,27.447
			c-2.854-2.014-5.12-3.861-6.715-5.204l17.207-23.418c7.954-10.899,20.669-17.304,34.162-17.207l42.47,0.336
			c0.335,3.022,0.587,6.043,0.755,9.065C384.031,256.347,384.115,258.697,384.115,261.047z"/>
	</g>
	<path style="fill:#FEDD0A;" d="M234.124,99.641c-2.713,3.086-5.156,6.4-7.302,9.904"/>
	<g>
		<path d="M284.568,305.754c-2.69-0.002-5.216-1.292-6.793-3.471c-1.578-2.179-2.016-4.981-1.178-7.537
			c1.916-5.411,4.281-10.651,7.07-15.668c9.701-17.816,31.746-47.324,70.131-44.722c9.633,0.737,19.297,0.983,28.955,0.738
			c2.997-0.097,5.818,1.413,7.401,3.96c1.582,2.547,1.685,5.745,0.27,8.389c-1.415,2.644-4.133,4.332-7.13,4.429
			c-8.877,0.275-19.188,0.025-30.648-0.771c-27.664-1.926-44.734,18.55-54.242,36.012c-2.297,4.135-4.259,8.446-5.869,12.893
			C291.391,303.437,288.183,305.751,284.568,305.754z"/>
		<path d="M334.256,309.443c-18-1.029-35.138-8.056-48.68-19.959c-3.516-3.015-3.926-8.307-0.916-11.828
			c3.009-3.52,8.301-3.939,11.826-0.935c5.275,4.508,24,18.963,44.098,15.385c13.717-2.43,25.93-13,36.299-31.422
			c2.275-4.04,7.394-5.471,11.434-3.197c4.04,2.275,5.471,7.394,3.197,11.434c-12.951,23.004-29.102,36.365-48.004,39.713
			C340.455,309.176,337.359,309.446,334.256,309.443z"/>
		<path d="M288.42,240.385c-0.624,0-1.245-0.072-1.852-0.213c-4.452-0.985-7.284-5.368-6.353-9.832
			c0.377-1.787,10.131-43.758,90.307-48.533c2.228-0.161,4.428,0.585,6.099,2.068c1.671,1.483,2.673,3.578,2.778,5.809
			c0.134,2.222-0.622,4.406-2.099,6.071c-1.477,1.665-3.556,2.674-5.778,2.806c-66.336,3.955-74.594,34.103-74.914,35.381
			C295.671,237.708,292.301,240.36,288.42,240.385L288.42,240.385z"/>
		<path d="M220.527,305.754c-3.615-0.002-6.824-2.316-7.967-5.746c-1.608-4.443-3.567-8.75-5.861-12.881
			c-9.516-17.471-26.697-37.77-54.262-36.025c-10.553,0.803-21.141,1.06-31.721,0.771c-4.633-0.147-8.27-4.022-8.123-8.656
			s4.022-8.27,8.656-8.123c10.009,0.273,20.025,0.027,30.008-0.738c38.447-2.636,60.471,26.906,70.18,44.734
			c2.786,5.013,5.148,10.25,7.061,15.656c0.838,2.556,0.399,5.359-1.178,7.537S223.216,305.752,220.527,305.754z"/>
		<path d="M170.982,309.479c-3.343,0.003-6.678-0.307-9.963-0.926c-19.217-3.611-35.537-17.639-48.516-41.693
			c-2.151-4.072-0.619-9.118,3.434-11.306c4.053-2.188,9.112-0.702,11.337,3.331c10.459,19.381,22.857,30.541,36.848,33.172
			c20.066,3.766,39.143-10.799,44.508-15.352c3.533-3.001,8.831-2.57,11.832,0.963c3.001,3.533,2.57,8.831-0.963,11.832
			C206.051,301.456,188.948,308.499,170.982,309.479z"/>
		<path d="M216.658,240.463c-3.917-0.003-7.311-2.716-8.176-6.537c-0.406-1.59-9.021-31.734-75.877-35.443
			c-2.998-0.16-5.683-1.909-7.04-4.588s-1.18-5.878,0.464-8.39c1.644-2.513,4.505-3.956,7.503-3.784
			c81.111,4.5,90.967,46.816,91.348,48.615c0.524,2.477-0.099,5.059-1.695,7.025C221.588,239.326,219.19,240.467,216.658,240.463
			L216.658,240.463z"/>
		<path d="M377.904,326.246c-2.582-0.001-5.02-1.191-6.61-3.225s-2.156-4.687-1.534-7.193c4.401-17.889,6.407-36.284,5.963-54.701
			c-0.074-5.098-0.418-10.57-1.049-16.791c-0.884-8.621-2.262-17.184-4.127-25.648c-1.908-8.741-4.407-17.343-7.479-25.746
			c-4.069-11.685-9.778-22.732-16.955-32.811c-5.74-7.669-12.513-14.507-20.127-20.32c-7.676-6.021-15.861-11.324-24.512-16.898
			c-0.41,3.685-0.963,7.57-1.664,11.689c-3.358,17.773-8.323,35.204-14.836,52.078c-1.412,3.525-5.016,5.663-8.786,5.213
			s-6.769-3.376-7.312-7.135c-2.262-16.585-6.484-32.844-12.578-48.434c-3.072-7.756-6.87-15.205-11.344-22.246
			c-1.627-2.518-1.786-5.713-0.419-8.382c1.368-2.668,4.055-4.404,7.049-4.553c2.994-0.15,5.841,1.31,7.468,3.828
			c5.057,7.938,9.35,16.337,12.82,25.086c2.731,6.838,5.088,13.82,7.061,20.914c1.611-6.033,3.148-12.586,4.34-19.254
			c1.426-7.822,2.197-15.75,2.303-23.701c0-3.096,1.703-5.94,4.433-7.4c2.729-1.461,6.041-1.3,8.616,0.417
			c3.68,2.455,7.389,4.84,11.086,7.221c8.893,5.725,18.09,11.648,26.623,18.34c8.828,6.757,16.676,14.706,23.32,23.619
			c8.112,11.35,14.571,23.796,19.18,36.963c3.326,9.093,6.031,18.402,8.098,27.861c2.008,9.104,3.49,18.316,4.439,27.59
			c0.684,6.717,1.058,12.664,1.139,18.193c0.016,0.82,0.03,1.637,0.041,2.451c3.25-8.324,6.561-17.291,9.721-26.594
			c8.24-23.09,14.044-46.978,17.316-71.275c0.338-2.98,2.24-5.553,4.99-6.749c2.75-1.197,5.929-0.836,8.34,0.947
			c2.411,1.783,3.688,4.717,3.35,7.696c-3.405,25.488-9.471,50.55-18.098,74.774c-9.28,27.158-20.22,53.721-32.758,79.537
			C383.989,324.45,381.083,326.245,377.904,326.246L377.904,326.246z"/>
		<path d="M445.043,345.967c-3.078-0.002-5.908-1.688-7.374-4.394c-1.466-2.706-1.334-5.997,0.345-8.577
			c21.011-32.174,32.205-69.766,32.217-108.193c0-114.148-97.898-207.016-218.23-207.016c-4.636,0-8.393-3.758-8.393-8.393
			S247.367,1,252.002,1c129.59,0,235.016,100.398,235.016,223.803c-0.011,41.677-12.147,82.45-34.93,117.349
			C450.538,344.535,447.886,345.971,445.043,345.967z"/>
		<path d="M252.002,68.148c-4.636,0-8.393-3.758-8.393-8.393c-0.006-4.633-3.76-8.387-8.393-8.393c-4.636,0-8.393-3.758-8.393-8.393
			s3.758-8.393,8.393-8.393c13.9,0.015,25.165,11.28,25.18,25.18c0,2.226-0.884,4.361-2.458,5.935S254.228,68.148,252.002,68.148z"
			/>
		<path d="M252.002,68.148c-4.636,0-8.393-3.758-8.393-8.393c0.015-13.9,11.28-25.165,25.18-25.18c4.636,0,8.393,3.758,8.393,8.393
			s-3.758,8.393-8.393,8.393c-4.633,0.006-8.387,3.76-8.393,8.393c0,2.226-0.884,4.361-2.458,5.935S254.228,68.148,252.002,68.148z"
			/>
		<path d="M366.207,504.898c-22.131-0.255-44.149-3.197-65.57-8.762c-2.916-0.717-5.226-2.938-6.059-5.822
			c-0.833-2.885-0.062-5.995,2.023-8.156c2.084-2.161,5.164-3.045,8.078-2.317c99.43,24.643,139.709-12.086,152.582-29.369
			c-29.488-13.561-37.184-51.594-37.533-53.385c-0.884-4.551,2.089-8.956,6.639-9.84c4.551-0.884,8.956,2.089,9.84,6.639
			c0.119,0.594,7.91,38.037,35.434,43.75c2.486,0.515,4.605,2.128,5.763,4.387c1.158,2.259,1.232,4.921,0.2,7.24
			C476.387,452,451.666,504.898,366.207,504.898z"/>
		<rect x="84.133" y="387.201" width="335.738" height="16.787"/>
		<path d="M151.281,403.988h-8.393c-4.636,0-8.393-3.758-8.393-8.393s3.758-8.393,8.393-8.393h8.393
			c4.633-0.006,8.387-3.76,8.393-8.393v-16.787c0-4.636,3.758-8.393,8.393-8.393s8.393,3.758,8.393,8.393v16.787
			C176.446,392.708,165.181,403.973,151.281,403.988z"/>
		<path d="M193.248,403.988h-8.393c-13.9-0.015-25.165-11.28-25.18-25.18v-16.787c0-4.636,3.758-8.393,8.393-8.393
			s8.393,3.758,8.393,8.393v16.787c0.006,4.633,3.76,8.387,8.393,8.393h8.393c4.636,0,8.393,3.758,8.393,8.393
			S197.884,403.988,193.248,403.988L193.248,403.988z"/>
		<path d="M109.314,403.988h-8.393c-4.636,0-8.393-3.758-8.393-8.393s3.758-8.393,8.393-8.393h8.393
			c4.633-0.006,8.387-3.76,8.393-8.393v-16.787c0-4.636,3.758-8.393,8.393-8.393c4.636,0,8.393,3.758,8.393,8.393v16.787
			C134.479,392.708,123.214,403.973,109.314,403.988z"/>
		<path d="M151.281,403.988h-8.393c-13.9-0.015-25.165-11.28-25.18-25.18v-16.787c0-4.636,3.758-8.393,8.393-8.393
			c4.636,0,8.393,3.758,8.393,8.393v16.787c0.006,4.633,3.76,8.387,8.393,8.393h8.393c4.636,0,8.393,3.758,8.393,8.393
			S155.916,403.988,151.281,403.988L151.281,403.988z"/>
		<path d="M193.248,403.988h-8.393c-4.636,0-8.393-3.758-8.393-8.393s3.758-8.393,8.393-8.393h8.393
			c4.633-0.006,8.387-3.76,8.393-8.393c0-4.636,3.758-8.393,8.393-8.393c4.636,0,8.393,3.758,8.393,8.393
			C218.413,392.708,207.148,403.973,193.248,403.988L193.248,403.988z"/>
		<path d="M235.215,403.988h-8.393c-13.9-0.015-25.165-11.28-25.18-25.18c0-4.636,3.758-8.393,8.393-8.393
			c4.636,0,8.393,3.758,8.393,8.393c0.006,4.633,3.76,8.387,8.393,8.393h8.393c4.636,0,8.393,3.758,8.393,8.393
			S239.851,403.988,235.215,403.988L235.215,403.988z"/>
		<path d="M235.215,403.988h-8.393c-4.636,0-8.393-3.758-8.393-8.393s3.758-8.393,8.393-8.393h8.393
			c4.633-0.006,8.387-3.76,8.393-8.393c0-4.636,3.758-8.393,8.393-8.393c4.636,0,8.393,3.758,8.393,8.393
			C260.38,392.708,249.116,403.973,235.215,403.988z"/>
		<path d="M277.182,403.988h-8.393c-13.9-0.015-25.165-11.28-25.18-25.18c0-4.636,3.758-8.393,8.393-8.393
			c4.636,0,8.393,3.758,8.393,8.393c0.006,4.633,3.76,8.387,8.393,8.393h8.393c4.636,0,8.393,3.758,8.393,8.393
			S281.818,403.988,277.182,403.988L277.182,403.988z"/>
		<path d="M277.182,403.988h-8.393c-4.636,0-8.393-3.758-8.393-8.393s3.758-8.393,8.393-8.393h8.393
			c4.633-0.006,8.387-3.76,8.393-8.393c0-4.636,3.758-8.393,8.393-8.393s8.393,3.758,8.393,8.393
			C302.348,392.708,291.083,403.973,277.182,403.988z"/>
		<path d="M319.15,403.988h-8.393c-13.9-0.015-25.165-11.28-25.18-25.18c0-4.636,3.758-8.393,8.393-8.393s8.393,3.758,8.393,8.393
			c0.006,4.633,3.76,8.387,8.393,8.393h8.393c4.636,0,8.393,3.758,8.393,8.393S323.785,403.988,319.15,403.988L319.15,403.988z"/>
		<path d="M210.035,437.561c-4.636,0-8.393-3.758-8.393-8.393v-16.787c-0.006-4.633-3.76-8.387-8.393-8.393h-8.393
			c-4.636,0-8.393-3.758-8.393-8.393s3.758-8.393,8.393-8.393h8.393c13.9,0.015,25.165,11.28,25.18,25.18v16.787
			C218.428,433.804,214.67,437.561,210.035,437.561z"/>
		<path d="M210.035,437.561c-4.636,0-8.393-3.758-8.393-8.393v-16.787c0.015-13.9,11.28-25.165,25.18-25.18h8.393
			c4.636,0,8.393,3.758,8.393,8.393s-3.758,8.393-8.393,8.393h-8.393c-4.633,0.006-8.387,3.76-8.393,8.393v16.787
			C218.428,433.804,214.67,437.561,210.035,437.561z"/>
		<path d="M168.068,437.561c-4.636,0-8.393-3.758-8.393-8.393v-16.787c-0.006-4.633-3.76-8.387-8.393-8.393h-8.393
			c-4.636,0-8.393-3.758-8.393-8.393s3.758-8.393,8.393-8.393h8.393c13.9,0.015,25.165,11.28,25.18,25.18v16.787
			C176.461,433.804,172.703,437.561,168.068,437.561z"/>
		<path d="M168.068,437.561c-4.636,0-8.393-3.758-8.393-8.393v-16.787c0.015-13.9,11.28-25.165,25.18-25.18h8.393
			c4.636,0,8.393,3.758,8.393,8.393s-3.758,8.393-8.393,8.393h-8.393c-4.633,0.006-8.387,3.76-8.393,8.393v16.787
			C176.461,433.804,172.703,437.561,168.068,437.561z"/>
		<path d="M252.002,437.561c-4.636,0-8.393-3.758-8.393-8.393v-16.787c-0.006-4.633-3.76-8.387-8.393-8.393h-8.393
			c-4.636,0-8.393-3.758-8.393-8.393s3.758-8.393,8.393-8.393h8.393c13.9,0.015,25.165,11.28,25.18,25.18v16.787
			C260.396,433.804,256.638,437.561,252.002,437.561z"/>
		<path d="M252.002,437.561c-4.636,0-8.393-3.758-8.393-8.393v-16.787c0.015-13.9,11.28-25.165,25.18-25.18h8.393
			c4.636,0,8.393,3.758,8.393,8.393s-3.758,8.393-8.393,8.393h-8.393c-4.633,0.006-8.387,3.76-8.393,8.393v16.787
			C260.396,433.804,256.638,437.561,252.002,437.561z"/>
		<path d="M293.969,437.561c-4.636,0-8.393-3.758-8.393-8.393v-16.787c-0.006-4.633-3.76-8.387-8.393-8.393h-8.393
			c-4.636,0-8.393-3.758-8.393-8.393s3.758-8.393,8.393-8.393h8.393c13.9,0.015,25.165,11.28,25.18,25.18v16.787
			C302.363,433.804,298.605,437.561,293.969,437.561z"/>
		<path d="M293.969,437.561c-4.636,0-8.393-3.758-8.393-8.393v-16.787c0.015-13.9,11.28-25.165,25.18-25.18h8.393
			c4.636,0,8.393,3.758,8.393,8.393s-3.758,8.393-8.393,8.393h-8.393c-4.633,0.006-8.387,3.76-8.393,8.393v16.787
			C302.363,433.804,298.605,437.561,293.969,437.561z"/>
		<path d="M335.936,437.561c-4.636,0-8.393-3.758-8.393-8.393v-16.787c-0.006-4.633-3.76-8.387-8.393-8.393h-8.393
			c-4.636,0-8.393-3.758-8.393-8.393s3.758-8.393,8.393-8.393h8.393c13.9,0.015,25.165,11.28,25.18,25.18v16.787
			C344.33,433.804,340.572,437.561,335.936,437.561z"/>
		<path d="M335.936,437.561c-4.636,0-8.393-3.758-8.393-8.393v-16.787c0.015-13.9,11.28-25.165,25.18-25.18h8.393
			c4.636,0,8.393,3.758,8.393,8.393s-3.758,8.393-8.393,8.393h-8.393c-4.633,0.006-8.387,3.76-8.393,8.393v16.787
			C344.33,433.804,340.572,437.561,335.936,437.561z"/>
		<path d="M319.15,403.988h-8.393c-4.636,0-8.393-3.758-8.393-8.393s3.758-8.393,8.393-8.393h8.393
			c4.633-0.006,8.387-3.76,8.393-8.393v-16.787c0-4.636,3.758-8.393,8.393-8.393s8.393,3.758,8.393,8.393v16.787
			C344.315,392.708,333.05,403.973,319.15,403.988z"/>
		<path d="M361.117,403.988h-8.393c-13.9-0.015-25.165-11.28-25.18-25.18v-16.787c0-4.636,3.758-8.393,8.393-8.393
			s8.393,3.758,8.393,8.393v16.787c0.006,4.633,3.76,8.387,8.393,8.393h8.393c4.636,0,8.393,3.758,8.393,8.393
			S365.752,403.988,361.117,403.988L361.117,403.988z"/>
		<path d="M361.117,403.988h-8.393c-4.636,0-8.393-3.758-8.393-8.393s3.758-8.393,8.393-8.393h8.393
			c4.633-0.006,8.387-3.76,8.393-8.393v-16.787c0-4.636,3.758-8.393,8.393-8.393c4.636,0,8.393,3.758,8.393,8.393v16.787
			C386.282,392.708,375.017,403.973,361.117,403.988z"/>
		<path d="M403.084,403.988h-8.393c-13.9-0.015-25.165-11.28-25.18-25.18v-16.787c0-4.636,3.758-8.393,8.393-8.393
			c4.636,0,8.393,3.758,8.393,8.393v16.787c0.006,4.633,3.76,8.387,8.393,8.393h8.393c4.636,0,8.393,3.758,8.393,8.393
			S407.72,403.988,403.084,403.988L403.084,403.988z"/>
	</g>
</g>
<g>
</g>
<g>
</g>
<g>
</g>
<g>
</g>
<g>
</g>
<g>
</g>
<g>
</g>
<g>
</g>
<g>
</g>
<g>
</g>
<g>
</g>
<g>
</g>
<g>
</g>
<g>
</g>
<g>
</g>
</svg>
