<?xml version="1.0" encoding="iso-8859-1"?>
<!-- Generator: Adobe Illustrator 19.0.0, SVG Export Plug-In . SVG Version: 6.00 Build 0)  -->
<svg version="1.1" id="Capa_1" xmlns="http://www.w3.org/2000/svg" xmlns:xlink="http://www.w3.org/1999/xlink" x="0px" y="0px"
	 viewBox="0 0 503.902 503.902" style="enable-background:new 0 0 503.902 503.902;" xml:space="preserve">
<g>
	<path style="fill:#FEDD0A;" d="M427.921,392.67c0,0,8.393,44.133,41.967,51.218c0,0-33.49,76.571-167.281,42.852"/>
	<g>
		<path style="fill:#FFA800;" d="M445.001,216.383v124.391c0.016,4.471-0.349,8.936-1.091,13.346
			c-3.286,18.332-12.804,34.965-26.943,47.087l-63.454,56.068c-27.524,24.388-63.024,37.854-99.798,37.854h-3.525
			c-3.609,0-7.218-0.168-10.828-0.42c-32.959-2.387-64.219-15.54-88.97-37.435l-63.454-56.068
			c-14.139-12.122-23.657-28.756-26.943-47.087c-0.742-4.409-1.107-8.874-1.091-13.346V216.383c-0.002-2.778,0.166-5.553,0.504-8.31
			c1.408-15.547,7.168-30.382,16.619-42.807c3.371,24.886,9.306,49.357,17.71,73.023c0.587,1.847,1.259,3.693,1.93,5.456
			c8.75,24.892,18.894,49.271,30.384,73.023c-4.581-18.61-6.67-37.747-6.211-56.908c0.084-5.875,0.504-11.667,1.091-17.458
			c0.915-8.944,2.344-17.828,4.281-26.607c1.996-9.118,4.604-18.091,7.806-26.859c4.334-12.407,10.411-24.136,18.046-34.833
			c6.199-8.296,13.515-15.696,21.739-21.991c4.197-3.273,8.561-6.379,13.094-9.401c7.89-5.372,16.031-10.408,24.089-15.78
			c0.115,8.446,0.929,16.868,2.434,25.18c0.252,1.343,0.504,2.686,0.755,3.945c3.258,15.79,7.805,31.286,13.597,46.332
			c2.297-16.742,6.521-33.162,12.59-48.934v-0.084l0.504-1.259c3.306-8.238,7.352-16.161,12.087-23.67
			c4.769,7.489,8.817,15.415,12.087,23.67c0.504,1.259,1.007,2.602,1.511,3.945c5.552,15,9.436,30.566,11.583,46.416
			c6.281-16.324,11.085-33.178,14.353-50.361c0.504-3.106,1.007-6.295,1.343-9.401c0.689-5.232,1.053-10.502,1.091-15.78
			c12.59,8.393,25.516,16.031,37.183,25.18c8.224,6.295,15.54,13.695,21.739,21.991c7.635,10.697,13.711,22.425,18.046,34.833
			c3.202,8.768,5.81,17.741,7.806,26.859c1.937,8.78,3.366,17.663,4.281,26.607c0.07,0.444,0.098,0.894,0.084,1.343
			c0.588,5.372,0.923,10.66,1.007,16.115c0.459,19.161-1.63,38.297-6.211,56.908c12.353-25.48,23.145-51.688,32.315-78.479
			c3.357-9.736,6.463-19.976,9.149-30.216c3.923-14.034,6.785-28.343,8.561-42.807C439.023,179.975,445.038,197.93,445.001,216.383z
			"/>
		<path style="fill:#FFA800;" d="M445.623,336.493v-120.11c0.052-18.404-5.843-36.333-16.805-51.116
			c-3.304,24.867-9.129,49.334-17.383,73.023c-8.991,26.771-19.582,52.978-31.716,78.479c4.498-18.623,6.547-37.754,6.096-56.908
			c-0.082-5.875-0.494-11.667-1.071-17.458c-0.898-8.941-2.3-17.824-4.202-26.607c-1.957-9.112-4.517-18.085-7.661-26.859
			c-4.242-12.384-10.204-24.109-17.711-34.833c-6.066-8.277-13.246-15.677-21.337-21.991c-11.451-9.149-24.137-16.787-36.495-25.18
			c-0.113,8.444-0.912,16.865-2.389,25.18c-3.203,17.169-7.917,34.021-14.087,50.361c-2.305-17.231-6.618-34.132-12.851-50.361
			c-3.204-8.244-7.175-16.169-11.862-23.67c-4.653,7.52-8.623,15.441-11.863,23.67c-6.233,16.228-10.546,33.13-12.851,50.361
			c-6.17-16.339-10.884-33.192-14.087-50.361c-1.477-8.315-2.276-16.736-2.389-25.18c-12.357,8.393-25.043,16.031-36.495,25.18
			c-8.09,6.313-15.27,13.714-21.337,21.991c-7.507,10.723-13.469,22.449-17.711,34.833c-3.145,8.774-5.704,17.747-7.661,26.859
			c-1.901,8.783-3.304,17.666-4.202,26.607c-0.577,5.791-0.989,11.583-1.071,17.458c-0.451,19.154,1.598,38.284,6.096,56.908
			c-12.134-25.501-22.725-51.708-31.716-78.479c-8.254-23.689-14.078-48.156-17.383-73.023
			c-10.963,14.783-16.857,32.712-16.805,51.116v120.11c-21.552-33.675-32.988-72.827-32.951-112.808
			C33.723,104.75,133.32,8.31,256.149,8.31s222.426,96.441,222.426,215.376C478.612,263.666,467.175,302.818,445.623,336.493z"/>
	</g>
	<path style="fill:#FFFFFF;" d="M50.51,223.685c-0.008,19.664,2.819,39.226,8.393,58.083v54.725
		c-10.991-16.931-19.473-35.364-25.18-54.725c-5.575-18.857-8.401-38.419-8.393-58.083c0-114.906,94.762-208.829,214.033-215.04
		c4.197,0.252,8.477,0.588,12.59,1.007C138.641,21.571,50.51,112.892,50.51,223.685z"/>
	<path style="fill:#FEDD0A;" d="M445.001,281.768v-65.385c0.002-2.778-0.166-5.553-0.504-8.31v-0.084
		c-1.461-15.509-7.216-30.303-16.619-42.723c-1.776,14.463-4.638,28.773-8.561,42.807c-2.685,10.24-5.791,20.48-9.149,30.216
		c-0.587,1.847-1.259,3.693-1.93,5.456v0.084c-8.74,24.868-18.884,49.22-30.384,72.939c4.582-18.61,6.67-37.747,6.211-56.908
		c-0.084-5.456-0.42-10.744-1.007-16.115c0.014-0.449-0.014-0.899-0.084-1.343c-0.915-8.944-2.344-17.828-4.281-26.607
		c-1.996-9.118-4.604-18.092-7.806-26.859c-4.334-12.407-10.41-24.136-18.045-34.833c-6.199-8.296-13.515-15.697-21.74-21.991
		c-4.197-3.273-8.561-6.379-13.093-9.401c-7.89-5.372-16.031-10.408-24.089-15.78c-0.038,5.277-0.402,10.547-1.091,15.78
		c-0.335,3.106-0.839,6.295-1.343,9.401c-0.252,1.343-0.503,2.686-0.755,3.945c-3.245,15.82-7.792,31.345-13.597,46.416
		c-2.148-15.85-6.032-31.415-11.583-46.416c-0.335-0.923-0.671-1.763-1.007-2.602v-0.084l-0.504-1.259
		c-3.27-8.255-7.317-16.18-12.086-23.67c-4.735,7.509-8.78,15.431-12.086,23.67l-0.504,1.259v0.084
		c-0.336,0.839-0.672,1.679-1.007,2.602c-5.513,14.983-9.396,30.517-11.583,46.332c-5.793-15.046-10.34-30.542-13.597-46.332
		c-0.252-1.259-0.503-2.602-0.755-3.945c-0.504-3.106-1.008-6.295-1.343-9.401c-0.689-5.232-1.053-10.502-1.091-15.78
		c-8.058,5.372-16.199,10.408-24.089,15.78c-4.532,3.022-8.897,6.127-13.093,9.401c-8.224,6.294-15.54,13.695-21.74,21.991
		c-7.635,10.697-13.711,22.425-18.045,34.833c-3.203,8.767-5.811,17.741-7.807,26.859c-1.937,8.779-3.366,17.663-4.281,26.607
		c-0.07,0.416-0.098,0.838-0.084,1.259v0.084c-0.587,5.372-0.923,10.66-1.007,16.115c-0.459,19.161,1.629,38.297,6.211,56.908
		c-11.49-23.752-21.634-48.131-30.384-73.023c-0.671-1.763-1.343-3.609-1.93-5.456c-3.273-9.736-6.463-19.893-9.149-30.132v-0.084
		c-3.924-14.034-6.785-28.343-8.561-42.807c-9.452,12.424-15.212,27.26-16.619,42.807c-0.338,2.757-0.506,5.532-0.504,8.31v65.385
		c-5.575-18.857-8.401-38.419-8.393-58.083c0-110.793,88.131-202.114,201.443-214.033C352.001,20.144,432.411,92.58,449.87,185.663
		C455.864,217.633,454.195,250.568,445.001,281.768L445.001,281.768z"/>
	<path style="fill:#FFFFFF;" d="M201.256,486.736c-1.258,0.336-2.601,0.671-3.861,0.923l-104.33-78.311c0,0-8.393,44.15-41.967,51.2
		c1.992,4.025,4.412,7.824,7.217,11.331c-10.2-7.272-18.539-16.848-24.34-27.95c33.574-7.134,41.967-51.284,41.967-51.284
		L201.256,486.736z"/>
	<path style="fill:#FEDD0A;" d="M197.395,487.659c-73.443,17.626-115.914,1.595-139.08-15.78c-2.805-3.507-5.225-7.306-7.217-11.331
		c33.574-7.05,41.967-51.2,41.967-51.2L197.395,487.659z"/>
	<path style="fill:#FFFFFF;" d="M251.952,493.283c-4.197,0.671-8.393,1.091-12.59,1.427c-32.959-2.387-64.219-15.541-88.97-37.435
		l-63.454-56.068c-14.14-12.121-23.658-28.755-26.944-47.087c-0.742-4.41-1.107-8.874-1.091-13.346V216.383
		c-0.002-2.778,0.166-5.553,0.504-8.31c1.407-15.547,7.167-30.383,16.619-42.807c1.776,14.463,4.638,28.773,8.561,42.807v0.084
		c-0.338,2.729-0.506,5.476-0.504,8.226v124.391c-0.015,4.471,0.35,8.936,1.091,13.346c3.286,18.332,12.804,34.966,26.944,47.087
		l63.454,56.068C197.104,476.274,223.594,488.762,251.952,493.283L251.952,493.283z"/>
	<path style="fill:#FEDD0A;" d="M419.821,216.383v124.391c0.015,4.471-0.35,8.936-1.091,13.346
		c-3.286,18.332-12.804,34.966-26.944,47.087l-63.454,56.068c-21.533,18.999-48.022,31.487-76.38,36.008
		c-28.358-4.521-54.848-17.008-76.38-36.008l-63.454-56.068c-14.14-12.121-23.658-28.755-26.944-47.087
		c-0.742-4.41-1.107-8.874-1.091-13.346V216.383c-0.002-2.75,0.166-5.497,0.504-8.226c2.685,10.24,5.875,20.396,9.149,30.132
		c0.587,1.847,1.259,3.693,1.93,5.456c8.75,24.892,18.894,49.271,30.384,73.023c-4.582-18.61-6.67-37.747-6.211-56.908
		c0.084-5.456,0.42-10.744,1.007-16.115v-0.084c-0.014-0.421,0.014-0.843,0.084-1.259c0.915-8.944,2.344-17.828,4.281-26.607
		c1.996-9.118,4.604-18.092,7.806-26.859c4.334-12.407,10.41-24.136,18.045-34.833c6.199-8.296,13.515-15.697,21.74-21.991
		c4.197-3.273,8.561-6.379,13.093-9.401c7.89-5.372,16.031-10.408,24.089-15.78c0.038,5.277,0.402,10.547,1.091,15.78
		c0.335,3.106,0.839,6.295,1.343,9.401c0.252,1.343,0.503,2.686,0.755,3.945c3.257,15.79,7.805,31.286,13.597,46.332
		c2.187-15.815,6.07-31.348,11.583-46.332c0.335-0.923,0.671-1.763,1.007-2.602v-0.084l0.504-1.259
		c3.306-8.238,7.351-16.16,12.086-23.67c4.769,7.489,8.816,15.415,12.086,23.67l0.504,1.259v0.084
		c0.336,0.839,0.672,1.679,1.007,2.602c5.551,15,9.435,30.566,11.583,46.416c5.805-15.07,10.353-30.595,13.597-46.416
		c0.252-1.259,0.503-2.602,0.755-3.945c0.504-3.106,1.008-6.295,1.343-9.401c0.689-5.232,1.053-10.502,1.091-15.78
		c8.058,5.372,16.199,10.408,24.089,15.78c4.532,3.022,8.897,6.127,13.093,9.401c8.224,6.294,15.54,13.695,21.74,21.991
		c7.635,10.697,13.711,22.425,18.045,34.833c3.203,8.767,5.811,17.741,7.807,26.859c1.937,8.779,3.366,17.663,4.281,26.607
		c0.07,0.444,0.098,0.894,0.084,1.343c0.587,5.372,0.923,10.66,1.007,16.115c0.459,19.161-1.629,38.297-6.211,56.908
		c11.5-23.719,21.644-48.071,30.384-72.939v-0.084c0.672-1.763,1.343-3.609,1.931-5.456c3.357-9.736,6.463-19.976,9.149-30.216
		C419.655,210.83,419.823,213.605,419.821,216.383L419.821,216.383z"/>
	<path d="M253.715,503.607h-3.525c-38.818-0.007-76.291-14.217-105.352-39.951L81.378,407.57
		c-15.603-13.405-26.089-31.795-29.68-52.049c-0.805-4.838-1.203-9.735-1.189-14.639V216.455
		c-0.069-20.283,6.548-40.024,18.828-56.168c1.805-2.404,4.758-3.659,7.741-3.29s5.541,2.306,6.705,5.078
		c1.164,2.772,0.756,5.954-1.069,8.343c-10.055,13.236-15.473,29.415-15.418,46.037v124.426c-0.013,3.997,0.311,7.988,0.967,11.93
		c2.975,16.443,11.544,31.352,24.254,42.201l63.434,56.066c25.996,23.019,59.515,35.732,94.237,35.742h3.525
		c34.722-0.01,68.24-12.721,94.237-35.738l63.459-56.09c12.67-10.812,21.22-25.666,24.205-42.053
		c0.672-3.984,1.004-8.017,0.992-12.057V216.455c0.055-16.622-5.363-32.801-15.418-46.037c-1.825-2.389-2.233-5.571-1.069-8.343
		c1.164-2.772,3.722-4.709,6.705-5.078c2.983-0.369,5.936,0.886,7.741,3.29c12.28,16.144,18.897,35.885,18.828,56.168v124.426
		c0.013,4.948-0.392,9.887-1.213,14.766c-3.6,20.197-14.068,38.531-29.631,51.898l-63.484,56.111
		C330.006,489.39,292.532,503.6,253.715,503.607L253.715,503.607z"/>
	<path id="SVGCleanerId_0" d="M126.051,325.246c-3.18,0.001-6.087-1.795-7.508-4.639c-12.54-25.815-23.479-52.377-32.754-79.537
		c-8.627-24.223-14.693-49.283-18.098-74.77c-0.524-4.603,2.782-8.76,7.385-9.287c2.218-0.282,4.455,0.345,6.204,1.737
		c1.749,1.392,2.861,3.432,3.083,5.657c3.276,24.296,9.084,48.182,17.328,71.27c3.156,9.307,6.467,18.275,9.713,26.598
		c0.008-0.836,0.025-1.672,0.041-2.512c0.074-5.418,0.434-11.193,1.131-18.115c0.952-9.271,2.435-18.48,4.443-27.582
		c2.07-9.497,4.786-18.841,8.131-27.967c4.6-13.133,11.044-25.546,19.139-36.865c6.656-8.923,14.515-16.882,23.352-23.652
		c8.516-6.68,17.721-12.607,26.615-18.336c3.697-2.377,7.402-4.762,11.074-7.213c2.575-1.717,5.887-1.878,8.616-0.417
		c2.729,1.461,4.433,4.305,4.433,7.4c0.106,7.976,0.882,15.929,2.32,23.775c1.18,6.643,2.713,13.172,4.32,19.189
		c1.97-7.092,4.326-14.071,7.057-20.906c4.876-13.225,12.024-25.497,21.123-36.262c3.205-3.336,8.505-3.45,11.85-0.255
		s3.475,8.495,0.289,11.849c-7.569,9.266-13.549,19.724-17.697,30.947c-6.081,15.584-10.299,31.832-12.566,48.406
		c-0.54,3.758-3.538,6.685-7.308,7.135c-3.77,0.45-7.372-1.688-8.783-5.213c-6.51-16.85-11.473-34.258-14.828-52.008
		c-0.705-4.152-1.262-8.058-1.672-11.758c-8.656,5.574-16.836,10.877-24.5,16.889c-7.627,5.822-14.41,12.672-20.156,20.357
		c-7.157,10.049-12.853,21.061-16.918,32.709c-3.087,8.434-5.596,17.069-7.508,25.844c-1.863,8.459-3.24,17.018-4.123,25.635
		c-0.648,6.406-0.984,11.726-1.049,16.717c-0.448,18.438,1.559,36.854,5.967,54.762c0.622,2.507,0.056,5.16-1.535,7.194
		C131.072,324.057,128.633,325.246,126.051,325.246L126.051,325.246z"/>
	<g>
		<path d="M58.911,344.971c-2.842,0.005-5.493-1.432-7.041-3.816c-17.411-26.589-28.674-56.726-32.967-88.217
			c-0.612-4.587,2.603-8.804,7.188-9.43s8.812,2.576,9.452,7.16c3.958,29.033,14.341,56.818,30.393,81.332
			c1.679,2.579,1.811,5.869,0.346,8.575C64.817,343.281,61.988,344.968,58.911,344.971L58.911,344.971z"/>
		<path d="M29.075,193.049c-0.536,0-1.072-0.051-1.598-0.152c-2.186-0.42-4.116-1.693-5.363-3.537
			c-1.247-1.844-1.709-4.109-1.285-6.295C41.321,76.988,138.518,0,251.952,0c4.636,0,8.393,3.758,8.393,8.393
			s-3.758,8.393-8.393,8.393c-105.402,0-195.672,71.27-214.648,169.459C36.546,190.193,33.094,193.046,29.075,193.049z"/>
		<path d="M25.329,226.623c-2.222-0.033-4.35-0.902-5.959-2.434c-0.776-0.789-1.377-1.733-1.763-2.771
			c-0.472-0.995-0.702-2.088-0.671-3.189c0.014-0.535,0.069-1.068,0.164-1.594c0.081-0.557,0.253-1.097,0.508-1.598
			c0.182-0.535,0.436-1.042,0.754-1.508c0.336-0.422,0.672-0.84,1.008-1.258c0.802-0.76,1.743-1.36,2.771-1.766
			c1.532-0.668,3.233-0.843,4.869-0.5c0.525,0.091,1.033,0.26,1.508,0.5c0.516,0.168,0.998,0.425,1.426,0.758
			c0.5,0.336,0.926,0.672,1.344,1.008c0.336,0.418,0.672,0.836,1.008,1.258c0.315,0.468,0.569,0.975,0.754,1.508
			c0.256,0.501,0.425,1.041,0.5,1.598c0.102,0.526,0.16,1.059,0.172,1.594c-0.034,2.222-0.903,4.349-2.434,5.959
			c-0.818,0.739-1.755,1.335-2.771,1.763c-0.476,0.24-0.984,0.409-1.508,0.504C26.454,226.551,25.893,226.607,25.329,226.623
			L25.329,226.623z"/>
		<path d="M137.747,503.902c-85.467,0-110.181-52.902-111.402-55.639c-1.029-2.32-0.953-4.981,0.206-7.239
			c1.159-2.258,3.277-3.871,5.761-4.388c27.607-5.73,35.361-43.373,35.434-43.754c0.885-4.55,5.291-7.52,9.84-6.635
			c4.55,0.885,7.52,5.291,6.635,9.84c-0.344,1.791-8.041,39.824-37.533,53.389c12.844,17.25,53.123,54.02,152.59,29.365
			c2.916-0.735,6.003,0.146,8.091,2.31c2.089,2.164,2.86,5.28,2.021,8.168c-0.838,2.888-3.158,5.107-6.08,5.817
			C181.893,500.701,159.877,503.644,137.747,503.902z"/>
	</g>
	<path style="fill:#FFA800;" d="M342.065,334.231c-20.538,11.98-43.889,18.293-67.665,18.293h-44.896
		c-23.777,0-47.127-6.313-67.665-18.293l-44.117-25.734c-5.192-3.029-11.607-3.05-16.819-0.056
		c-5.212,2.994-8.426,8.546-8.426,14.556v25.917c0,12.878,5.913,25.043,16.039,32.999l69.512,54.616
		c18.81,14.747,41.671,23.403,65.531,24.814v0.296h16.787v-0.296c23.86-1.41,46.721-10.067,65.531-24.814l69.512-54.616
		c10.126-7.956,16.039-20.122,16.039-33v-25.917c0-6.011-3.214-11.563-8.426-14.557c-5.212-2.994-11.627-2.972-16.819,0.056
		L342.065,334.231z"/>
	<path style="fill:#FEDD0A;" d="M384.149,309.634l-16.199,57.243l-31.811-26.523l-33.826,54.138l-25.18-41.967l-25.18,50.361
		l-25.18-50.361l-25.18,41.967l-33.826-54.138l-31.811,26.523l-16.199-57.243l42.051,24.593
		c19.743,11.522,42.11,17.793,64.965,18.214c0.923,0.084,1.847,0.084,2.771,0.084h44.82c0.924,0,1.847,0,2.771-0.084
		c22.856-0.421,45.222-6.692,64.965-18.214L384.149,309.634z"/>
	<g>
		<path style="fill:#1CD759;" d="M214.854,284.202c-11.164,9.569-60.098,45.325-95.014-22.662v-1.595c0-2.35,0.084-4.7,0.252-6.967
			c0.168-3.022,0.42-6.043,0.671-9.065l42.639-0.336c13.432-0.104,26.101,6.231,34.077,17.039L214.854,284.202z"/>
		<path style="fill:#1CD759;" d="M384.065,259.945v2.014c-29.965,58.083-70.337,39.701-88.131,27.447
			c-2.854-2.014-5.12-3.861-6.715-5.204l17.207-23.418c7.954-10.899,20.669-17.304,34.162-17.207l42.47,0.336
			c0.335,3.022,0.587,6.043,0.755,9.065C383.981,255.245,384.065,257.595,384.065,259.945z"/>
	</g>
	<g>
		<path d="M284.518,304.758c-2.69,0-5.218-1.291-6.796-3.469c-1.579-2.179-2.017-4.982-1.179-7.539
			c1.922-5.41,4.288-10.652,7.074-15.672c9.705-17.816,31.713-47.402,70.123-44.721c9.64,0.737,19.311,0.984,28.975,0.742
			c4.618-0.122,8.467,3.511,8.611,8.128s-3.47,8.484-8.087,8.65c-8.885,0.283-19.205,0.02-30.648-0.775
			c-27.689-1.971-44.729,18.553-54.238,36.012c-2.298,4.135-4.261,8.448-5.869,12.898
			C291.341,302.441,288.133,304.755,284.518,304.758L284.518,304.758z"/>
		<path d="M334.206,308.442c-18.001-1.029-35.14-8.057-48.68-19.963c-3.505-3.019-3.906-8.305-0.898-11.819
			c3.008-3.514,8.292-3.932,11.816-0.935c5.263,4.508,24.098,18.975,44.09,15.381c13.713-2.426,25.934-13,36.303-31.418
			c1.469-2.617,4.224-4.251,7.225-4.284c3.001-0.033,5.791,1.539,7.318,4.123s1.557,5.787,0.08,8.399
			c-12.951,23.004-29.098,36.365-48,39.713C340.405,308.176,337.309,308.445,334.206,308.442L334.206,308.442z"/>
		<path d="M288.37,239.385c-0.624,0-1.245-0.072-1.852-0.213c-4.453-0.986-7.285-5.371-6.353-9.836
			c0.377-1.783,10.139-43.754,90.303-48.525c4.626-0.276,8.601,3.251,8.877,7.877c0.276,4.626-3.251,8.601-7.877,8.877
			c-66.328,3.951-74.59,34.098-74.91,35.381C295.619,236.711,292.25,239.36,288.37,239.385z"/>
		<path d="M220.477,304.762c-3.616-0.005-6.824-2.32-7.967-5.75c-1.606-4.446-3.566-8.756-5.861-12.889
			c-9.516-17.467-26.713-37.898-54.262-36.02c-10.553,0.807-21.141,1.065-31.721,0.775c-4.633-0.146-8.272-4.018-8.131-8.652
			c0.033-2.238,0.973-4.367,2.605-5.899c1.632-1.532,3.815-2.336,6.051-2.228c10.012,0.273,20.031,0.025,30.016-0.742
			c38.533-2.541,60.475,26.906,70.18,44.729c2.781,5.019,5.144,10.258,7.066,15.664c0.834,2.557,0.394,5.359-1.183,7.537
			C225.691,303.465,223.166,304.757,220.477,304.762L220.477,304.762z"/>
		<path d="M170.936,308.484c-3.341,0.002-6.675-0.306-9.959-0.922c-19.221-3.615-35.549-17.643-48.525-41.697
			c-2.151-4.072-0.619-9.118,3.434-11.306c4.053-2.188,9.112-0.702,11.337,3.331c10.459,19.381,22.861,30.541,36.852,33.172
			c20.041,3.787,39.139-10.799,44.508-15.357c3.533-3.001,8.831-2.57,11.832,0.963c3.001,3.533,2.57,8.831-0.963,11.832
			C206.008,300.46,188.903,307.505,170.936,308.484L170.936,308.484z"/>
		<path d="M216.608,239.463c-3.917-0.005-7.311-2.717-8.18-6.537c-0.393-1.553-8.975-31.729-75.877-35.443
			c-2.222-0.124-4.303-1.125-5.787-2.784c-1.483-1.659-2.247-3.839-2.123-6.06c0.074-2.24,1.06-4.353,2.73-5.849
			c1.67-1.495,3.879-2.243,6.114-2.069c81.107,4.5,90.967,46.816,91.344,48.615c0.958,4.535-1.941,8.988-6.475,9.947
			C217.78,239.403,217.195,239.463,216.608,239.463L216.608,239.463z"/>
		<path d="M377.854,325.246c-2.583,0-5.022-1.189-6.613-3.223c-1.591-2.034-2.157-4.688-1.535-7.195
			c4.405-17.887,6.412-36.281,5.967-54.697c-0.066-5.057-0.402-10.377-1.049-16.804c-0.885-8.616-2.264-17.174-4.131-25.631
			c-1.901-8.745-4.399-17.35-7.475-25.754c-4.07-11.682-9.78-22.725-16.959-32.799c-5.737-7.674-12.509-14.516-20.123-20.332
			c-7.68-6.021-15.861-11.324-24.516-16.897c-0.41,3.685-0.959,7.57-1.656,11.689c-3.358,17.774-8.327,35.205-14.844,52.078
			c-1.41,3.525-5.013,5.663-8.783,5.213c-3.77-0.45-6.767-3.377-7.308-7.135c-2.27-16.585-6.49-32.844-12.573-48.439
			c-3.079-7.752-6.879-15.197-11.352-22.238c-1.627-2.518-1.786-5.713-0.419-8.381c1.368-2.668,4.055-4.404,7.049-4.553
			c2.994-0.15,5.841,1.31,7.468,3.828c5.057,7.938,9.352,16.336,12.827,25.083c2.726,6.841,5.082,13.824,7.057,20.918
			c1.607-6.033,3.148-12.586,4.336-19.254c1.428-7.824,2.199-15.753,2.303-23.705c0-3.096,1.703-5.94,4.433-7.4
			c2.729-1.461,6.041-1.3,8.616,0.417c3.672,2.451,7.377,4.836,11.074,7.213c8.893,5.73,18.098,11.656,26.631,18.344
			c8.825,6.763,16.673,14.714,23.32,23.627c8.117,11.344,14.575,23.788,19.18,36.955c3.334,9.096,6.04,18.41,8.098,27.877
			c2.011,9.1,3.497,18.307,4.451,27.578c0.697,6.943,1.058,12.717,1.131,18.201c0.017,0.816,0.033,1.631,0.041,2.442
			c3.246-8.324,6.557-17.291,9.713-26.594c8.244-23.088,14.052-46.975,17.328-71.271c0.222-2.224,1.334-4.265,3.083-5.657
			c1.749-1.392,3.986-2.019,6.204-1.736c2.211,0.251,4.232,1.371,5.617,3.113c1.385,1.742,2.021,3.963,1.768,6.174
			c-3.405,25.487-9.471,50.547-18.098,74.77c-9.275,27.159-20.214,53.722-32.754,79.537
			C383.939,323.449,381.033,325.245,377.854,325.246L377.854,325.246z"/>
		<path d="M444.993,344.971c-3.077-0.003-5.905-1.69-7.371-4.396c-1.465-2.706-1.332-5.996,0.346-8.575
			c21.007-32.177,32.2-69.77,32.213-108.197c0-114.148-97.893-207.016-218.23-207.016c-4.636,0-8.393-3.758-8.393-8.393
			S247.317,0,251.952,0c129.59,0,235.016,100.398,235.016,223.803c-0.013,41.678-12.151,82.452-34.934,117.353
			C450.486,343.539,447.835,344.976,444.993,344.971z"/>
	</g>
	<g>
		<path id="SVGCleanerId_0_1_" d="M126.051,325.246c-3.18,0.001-6.087-1.795-7.508-4.639c-12.54-25.815-23.479-52.377-32.754-79.537
			c-8.627-24.223-14.693-49.283-18.098-74.77c-0.524-4.603,2.782-8.76,7.385-9.287c2.218-0.282,4.455,0.345,6.204,1.737
			c1.749,1.392,2.861,3.432,3.083,5.657c3.276,24.296,9.084,48.182,17.328,71.27c3.156,9.307,6.467,18.275,9.713,26.598
			c0.008-0.836,0.025-1.672,0.041-2.512c0.074-5.418,0.434-11.193,1.131-18.115c0.952-9.271,2.435-18.48,4.443-27.582
			c2.07-9.497,4.786-18.841,8.131-27.967c4.6-13.133,11.044-25.546,19.139-36.865c6.656-8.923,14.515-16.882,23.352-23.652
			c8.516-6.68,17.721-12.607,26.615-18.336c3.697-2.377,7.402-4.762,11.074-7.213c2.575-1.717,5.887-1.878,8.616-0.417
			c2.729,1.461,4.433,4.305,4.433,7.4c0.106,7.976,0.882,15.929,2.32,23.775c1.18,6.643,2.713,13.172,4.32,19.189
			c1.97-7.092,4.326-14.071,7.057-20.906c4.876-13.225,12.024-25.497,21.123-36.262c3.205-3.336,8.505-3.45,11.85-0.255
			s3.475,8.495,0.289,11.849c-7.569,9.266-13.549,19.724-17.697,30.947c-6.081,15.584-10.299,31.832-12.566,48.406
			c-0.54,3.758-3.538,6.685-7.308,7.135c-3.77,0.45-7.372-1.688-8.783-5.213c-6.51-16.85-11.473-34.258-14.828-52.008
			c-0.705-4.152-1.262-8.058-1.672-11.758c-8.656,5.574-16.836,10.877-24.5,16.889c-7.627,5.822-14.41,12.672-20.156,20.357
			c-7.157,10.049-12.853,21.061-16.918,32.709c-3.087,8.434-5.596,17.069-7.508,25.844c-1.863,8.459-3.24,17.018-4.123,25.635
			c-0.648,6.406-0.984,11.726-1.049,16.717c-0.448,18.438,1.559,36.854,5.967,54.762c0.622,2.507,0.056,5.16-1.535,7.194
			C131.072,324.057,128.633,325.246,126.051,325.246L126.051,325.246z"/>
	</g>
	<g>
		<path d="M251.952,67.148c-2.226,0.001-4.361-0.884-5.936-2.458c-1.574-1.574-2.458-3.709-2.458-5.936
			c-0.005-4.634-3.76-8.389-8.393-8.393c-4.636,0-8.393-3.758-8.393-8.393s3.758-8.393,8.393-8.393
			c13.9,0.015,25.165,11.28,25.18,25.18c0.001,2.226-0.884,4.361-2.458,5.936C256.314,66.264,254.178,67.148,251.952,67.148z"/>
		<path d="M251.952,67.148c-2.226,0.001-4.361-0.884-5.936-2.458c-1.574-1.574-2.458-3.709-2.458-5.936
			c0.015-13.9,11.28-25.165,25.18-25.18c4.636,0,8.393,3.758,8.393,8.393s-3.758,8.393-8.393,8.393
			c-4.634,0.005-8.389,3.76-8.393,8.393c0.001,2.226-0.884,4.361-2.458,5.936C256.314,66.264,254.178,67.148,251.952,67.148z"/>
		<path d="M366.157,503.902c-22.13-0.256-44.146-3.2-65.566-8.766c-2.922-0.71-5.242-2.929-6.08-5.817
			c-0.838-2.888-0.067-6.004,2.021-8.168s5.175-3.045,8.091-2.31c98.779,24.467,139.475-12.279,152.5-29.41
			c-29.418-13.598-37.098-51.553-37.443-53.344c-0.869-4.543,2.102-8.932,6.642-9.814s8.938,2.076,9.833,6.613
			c0.123,0.594,7.91,38.037,35.434,43.75c2.485,0.517,4.603,2.13,5.762,4.388c1.159,2.258,1.234,4.919,0.206,7.239
			C476.337,451,451.608,503.902,366.157,503.902z"/>
		<path d="M260.346,470.033h-16.787c-0.943,0.001-1.88-0.157-2.771-0.467c-24.77-1.881-48.423-11.084-67.951-26.439l-69.508-54.615
			c-12.189-9.517-19.293-24.134-19.246-39.598v-25.918c0-9.017,4.82-17.345,12.639-21.836c7.819-4.491,17.442-4.458,25.23,0.086
			l44.115,25.734c19.256,11.227,41.145,17.146,63.434,17.152h44.902c22.29-0.006,44.179-5.925,63.434-17.152l0,0l44.115-25.734
			c7.788-4.544,17.411-4.577,25.23-0.086c7.819,4.491,12.64,12.819,12.639,21.836v25.918c0.047,15.467-7.061,30.086-19.254,39.602
			l-69.5,54.611c-19.561,15.382-43.259,24.589-68.074,26.447C262.144,469.879,261.248,470.034,260.346,470.033L260.346,470.033z
			 M245.772,453.246h12.41c0.54-0.153,1.095-0.247,1.656-0.279c22.162-1.279,43.4-9.319,60.852-23.037l69.508-54.615
			c8.127-6.345,12.865-16.091,12.836-26.402v-25.918c0-3.005-1.607-5.782-4.213-7.279c-2.606-1.497-5.814-1.486-8.41,0.029
			l-44.115,25.734c-21.823,12.725-46.631,19.432-71.893,19.439h-44.902c-25.262-0.006-50.07-6.714-71.893-19.439l-44.115-25.734
			c-2.596-1.514-5.804-1.525-8.41-0.029c-2.606,1.497-4.213,4.273-4.213,7.279v25.918c-0.03,10.308,4.705,20.051,12.828,26.397
			l69.516,54.619c17.453,13.718,38.691,21.758,60.852,23.037C244.643,453.001,245.215,453.095,245.772,453.246L245.772,453.246z"/>
		<path d="M201.592,402.885c-2.894,0-5.583-1.492-7.115-3.947l-36.607-58.595c-2.451-3.934-1.249-9.11,2.684-11.562
			c3.934-2.451,9.11-1.249,11.562,2.684l29.328,46.952l18.131-30.213c1.543-2.571,4.341-4.124,7.339-4.073s5.742,1.698,7.197,4.32
			c1.455,2.622,1.401,5.821-0.143,8.392l-25.18,41.967c-1.503,2.505-4.201,4.048-7.123,4.073H201.592z"/>
		<path d="M135.952,375.271c-0.842-0.001-1.679-0.126-2.484-0.373c-2.714-0.841-4.818-2.999-5.59-5.734l-16.197-57.242
			c-0.825-2.887-0.044-5.995,2.047-8.149c2.091-2.155,5.174-3.028,8.084-2.29c2.91,0.738,5.205,2.975,6.016,5.865l12.68,44.803
			l24.18-20.099c2.335-1.886,5.499-2.381,8.298-1.299c2.799,1.082,4.808,3.577,5.267,6.543c0.459,2.966-0.7,5.951-3.041,7.83
			l-2.189,1.763l-31.697,26.434C139.819,374.58,137.917,375.269,135.952,375.271z"/>
		<path d="M251.952,411.279c-3.179,0-6.086-1.796-7.508-4.639l-25.18-50.361c-1.353-2.684-1.167-5.886,0.486-8.396
			c1.653-2.51,4.522-3.944,7.522-3.761c3,0.183,5.673,1.956,7.008,4.649l17.672,35.348l17.672-35.348
			c1.336-2.692,4.008-4.465,7.008-4.649s5.869,1.251,7.522,3.761s1.839,5.712,0.486,8.396l-25.18,50.361
			C258.038,409.482,255.131,411.278,251.952,411.279L251.952,411.279z"/>
		<path d="M302.313,402.885h-0.074c-2.922-0.025-5.62-1.568-7.123-4.074l-25.18-41.967c-1.543-2.571-1.598-5.77-0.143-8.392
			c1.455-2.622,4.198-4.269,7.197-4.32c2.998-0.051,5.796,1.502,7.339,4.073l18.131,30.213l29.328-46.951
			c2.459-3.916,7.622-5.106,11.546-2.661c3.925,2.445,5.132,7.605,2.7,11.537l-36.607,58.595
			C307.896,401.393,305.206,402.885,302.313,402.885L302.313,402.885z"/>
		<path d="M367.952,375.271c-1.965-0.001-3.867-0.69-5.377-1.947l-33.885-28.197c-3.61-2.906-4.181-8.189-1.275-11.799
			c2.906-3.61,8.189-4.181,11.799-1.275l2.189,1.763l21.992,18.336l12.68-44.803c0.812-2.891,3.106-5.127,6.016-5.865
			c2.91-0.738,5.993,0.135,8.084,2.29s2.872,5.262,2.047,8.149l-16.197,57.242c-0.772,2.735-2.876,4.893-5.59,5.734
			C369.631,375.144,368.794,375.27,367.952,375.271L367.952,375.271z"/>
	</g>
</g>
<g>
</g>
<g>
</g>
<g>
</g>
<g>
</g>
<g>
</g>
<g>
</g>
<g>
</g>
<g>
</g>
<g>
</g>
<g>
</g>
<g>
</g>
<g>
</g>
<g>
</g>
<g>
</g>
<g>
</g>
</svg>
