<?xml version="1.0" encoding="iso-8859-1"?>
<!-- Generator: Adobe Illustrator 19.0.0, SVG Export Plug-In . SVG Version: 6.00 Build 0)  -->
<svg version="1.1" id="Capa_1" xmlns="http://www.w3.org/2000/svg" xmlns:xlink="http://www.w3.org/1999/xlink" x="0px" y="0px"
	 viewBox="0 0 503.902 503.902" style="enable-background:new 0 0 503.902 503.902;" xml:space="preserve">
<g>
	<g>
		<path style="fill:#FFA800;" d="M445,216.383v124.391c0.016,4.471-0.349,8.936-1.091,13.346
			c-3.286,18.332-12.804,34.965-26.943,47.087l-63.454,56.068c-27.523,24.388-63.024,37.854-99.798,37.854h-3.525
			c-3.609,0-7.218-0.168-10.828-0.42c-32.959-2.387-64.219-15.54-88.97-37.435l-63.454-56.068
			c-14.139-12.122-23.657-28.756-26.943-47.087c-0.742-4.409-1.107-8.874-1.091-13.346V216.383c-0.002-2.778,0.166-5.553,0.504-8.31
			c1.408-15.547,7.168-30.382,16.619-42.807c3.371,24.886,9.306,49.357,17.71,73.023c0.587,1.847,1.259,3.693,1.93,5.456
			c8.75,24.892,18.894,49.271,30.384,73.023c-4.581-18.61-6.67-37.747-6.211-56.908c0.084-5.875,0.504-11.667,1.091-17.458
			c0.915-8.944,2.344-17.828,4.281-26.607c1.996-9.118,4.604-18.091,7.806-26.859c4.334-12.407,10.411-24.136,18.046-34.833
			c6.199-8.296,13.515-15.696,21.739-21.991c4.197-3.273,8.561-6.379,13.094-9.401c7.89-5.372,16.031-10.408,24.089-15.78
			c0.115,8.446,0.929,16.868,2.434,25.18c0.252,1.343,0.504,2.686,0.755,3.945c3.258,15.79,7.805,31.286,13.597,46.332
			c2.297-16.742,6.521-33.162,12.59-48.934v-0.084l0.504-1.259c3.306-8.238,7.352-16.161,12.087-23.67
			c4.769,7.489,8.816,15.415,12.087,23.67c0.504,1.259,1.007,2.602,1.511,3.945c5.552,15,9.436,30.566,11.583,46.416
			c6.281-16.324,11.085-33.178,14.353-50.361c0.504-3.106,1.007-6.295,1.343-9.401c0.689-5.232,1.053-10.502,1.091-15.78
			c12.59,8.393,25.516,16.031,37.183,25.18c8.224,6.295,15.54,13.695,21.739,21.991c7.635,10.697,13.711,22.425,18.046,34.833
			c3.202,8.768,5.81,17.741,7.806,26.859c1.937,8.78,3.366,17.663,4.281,26.607c0.07,0.444,0.098,0.894,0.084,1.343
			c0.588,5.372,0.923,10.66,1.007,16.115c0.459,19.161-1.63,38.297-6.211,56.908c12.353-25.48,23.145-51.688,32.315-78.479
			c3.357-9.736,6.463-19.976,9.149-30.216c3.923-14.034,6.785-28.343,8.561-42.807C439.022,179.975,445.036,197.93,445,216.383z"/>
		<path style="fill:#FFA800;" d="M445.622,336.493v-120.11c0.052-18.404-5.843-36.333-16.805-51.116
			c-3.304,24.867-9.129,49.334-17.383,73.023c-8.991,26.771-19.582,52.978-31.716,78.479c4.498-18.623,6.547-37.754,6.096-56.908
			c-0.082-5.875-0.494-11.667-1.071-17.458c-0.898-8.941-2.3-17.824-4.202-26.607c-1.957-9.112-4.517-18.085-7.661-26.859
			c-4.242-12.384-10.204-24.109-17.711-34.833c-6.066-8.277-13.246-15.677-21.337-21.991c-11.451-9.149-24.137-16.787-36.495-25.18
			c-0.113,8.444-0.912,16.865-2.389,25.18c-3.203,17.169-7.918,34.021-14.087,50.361c-2.305-17.231-6.618-34.132-12.851-50.361
			c-3.204-8.244-7.175-16.169-11.862-23.67c-4.653,7.52-8.623,15.441-11.863,23.67c-6.233,16.228-10.546,33.13-12.851,50.361
			c-6.17-16.339-10.884-33.192-14.087-50.361c-1.477-8.315-2.276-16.736-2.389-25.18c-12.357,8.393-25.043,16.031-36.495,25.18
			c-8.09,6.313-15.27,13.714-21.337,21.991c-7.507,10.723-13.469,22.449-17.711,34.833c-3.145,8.774-5.704,17.747-7.661,26.859
			c-1.901,8.783-3.304,17.666-4.202,26.607c-0.577,5.791-0.988,11.583-1.071,17.458c-0.451,19.154,1.598,38.284,6.096,56.908
			c-12.134-25.501-22.725-51.708-31.716-78.479c-8.254-23.689-14.078-48.156-17.383-73.023
			c-10.963,14.783-16.857,32.712-16.805,51.116v120.11c-21.552-33.675-32.988-72.827-32.951-112.808
			C33.721,104.75,133.319,8.31,256.148,8.31s222.426,96.441,222.426,215.376C478.61,263.666,467.174,302.818,445.622,336.493z"/>
	</g>
	<path style="fill:#FFFFFF;" d="M50.508,223.685c-0.008,19.664,2.819,39.226,8.393,58.083v54.725
		c-10.991-16.931-19.473-35.364-25.18-54.725c-5.575-18.857-8.401-38.419-8.393-58.083c0-114.906,94.762-208.829,214.033-215.04
		c4.197,0.252,8.477,0.588,12.59,1.007C138.64,21.571,50.508,112.892,50.508,223.685z"/>
	<path style="fill:#FEDD0A;" d="M445,281.768v-65.385c0.002-2.778-0.166-5.553-0.504-8.31v-0.084
		c-1.461-15.509-7.216-30.303-16.619-42.723c-1.776,14.463-4.638,28.773-8.561,42.807c-2.685,10.24-5.791,20.48-9.149,30.216
		c-0.587,1.847-1.259,3.693-1.93,5.456v0.084c-8.74,24.868-18.884,49.22-30.384,72.939c4.582-18.61,6.67-37.747,6.211-56.908
		c-0.084-5.456-0.42-10.744-1.007-16.115c0.014-0.449-0.014-0.899-0.084-1.343c-0.915-8.944-2.344-17.828-4.281-26.607
		c-1.996-9.118-4.604-18.092-7.806-26.859c-4.334-12.407-10.41-24.136-18.045-34.833c-6.2-8.296-13.515-15.697-21.74-21.991
		c-4.197-3.273-8.561-6.379-13.093-9.401c-7.89-5.372-16.031-10.408-24.089-15.78c-0.038,5.277-0.402,10.547-1.091,15.78
		c-0.335,3.106-0.839,6.295-1.343,9.401c-0.252,1.343-0.503,2.686-0.755,3.945c-3.244,15.82-7.792,31.345-13.597,46.416
		c-2.148-15.85-6.032-31.415-11.583-46.416c-0.335-0.923-0.671-1.763-1.007-2.602v-0.084l-0.504-1.259
		c-3.27-8.255-7.317-16.18-12.086-23.67c-4.735,7.509-8.78,15.431-12.086,23.67l-0.504,1.259v0.084
		c-0.336,0.839-0.672,1.679-1.007,2.602c-5.513,14.983-9.396,30.517-11.583,46.332c-5.793-15.046-10.34-30.542-13.597-46.332
		c-0.252-1.259-0.503-2.602-0.755-3.945c-0.504-3.106-1.008-6.295-1.343-9.401c-0.689-5.232-1.053-10.502-1.091-15.78
		c-8.058,5.372-16.199,10.408-24.089,15.78c-4.532,3.022-8.897,6.127-13.093,9.401c-8.224,6.294-15.54,13.695-21.74,21.991
		c-7.635,10.697-13.711,22.425-18.045,34.833c-3.203,8.767-5.811,17.741-7.807,26.859c-1.937,8.779-3.366,17.663-4.281,26.607
		c-0.07,0.416-0.098,0.838-0.084,1.259v0.084c-0.587,5.372-0.923,10.66-1.007,16.115c-0.459,19.161,1.629,38.297,6.211,56.908
		c-11.49-23.752-21.634-48.131-30.384-73.023c-0.671-1.763-1.343-3.609-1.93-5.456c-3.273-9.736-6.463-19.893-9.149-30.132v-0.084
		c-3.924-14.034-6.785-28.343-8.561-42.807c-9.452,12.424-15.212,27.26-16.619,42.807c-0.338,2.757-0.506,5.532-0.504,8.31v65.385
		c-5.575-18.857-8.401-38.419-8.393-58.083c0-110.793,88.131-202.114,201.443-214.033C352,20.144,432.41,92.58,449.869,185.663
		C455.863,217.633,454.194,250.568,445,281.768L445,281.768z"/>
	<path style="fill:#FFFFFF;" d="M201.255,486.736c-1.258,0.336-2.601,0.671-3.861,0.923l-104.33-78.311c0,0-8.393,44.15-41.967,51.2
		c1.992,4.025,4.412,7.824,7.217,11.331c-10.2-7.272-18.539-16.848-24.34-27.95c33.574-7.134,41.967-51.284,41.967-51.284
		L201.255,486.736z"/>
	<g>
		<path style="fill:#FEDD0A;" d="M197.394,487.659c-73.443,17.626-115.914,1.595-139.08-15.78
			c-2.805-3.507-5.225-7.306-7.217-11.331c33.574-7.05,41.967-51.2,41.967-51.2L197.394,487.659z"/>
		<path style="fill:#FEDD0A;" d="M427.919,392.67c0,0,8.393,44.133,41.967,51.218c0,0-33.49,76.571-167.281,42.852"/>
	</g>
	<path style="fill:#FFFFFF;" d="M251.951,493.283c-4.197,0.671-8.393,1.091-12.59,1.427c-32.959-2.387-64.219-15.541-88.97-37.435
		l-63.454-56.068c-14.14-12.121-23.658-28.755-26.944-47.087c-0.742-4.41-1.107-8.874-1.091-13.346V216.383
		c-0.002-2.778,0.166-5.553,0.504-8.31c1.407-15.547,7.167-30.383,16.619-42.807c1.776,14.463,4.638,28.773,8.561,42.807v0.084
		c-0.338,2.729-0.506,5.476-0.504,8.226v124.391c-0.015,4.471,0.35,8.936,1.091,13.346c3.286,18.332,12.804,34.966,26.944,47.087
		l63.454,56.068C197.103,476.274,223.593,488.762,251.951,493.283L251.951,493.283z"/>
	<path style="fill:#FEDD0A;" d="M419.82,216.383v124.391c0.015,4.471-0.35,8.936-1.091,13.346
		c-3.286,18.332-12.804,34.966-26.944,47.087l-63.454,56.068c-21.533,18.999-48.022,31.487-76.38,36.008
		c-28.358-4.521-54.848-17.008-76.38-36.008l-63.454-56.068c-14.14-12.121-23.658-28.755-26.944-47.087
		c-0.742-4.41-1.107-8.874-1.091-13.346V216.383c-0.002-2.75,0.166-5.497,0.504-8.226c2.685,10.24,5.875,20.396,9.149,30.132
		c0.587,1.847,1.259,3.693,1.93,5.456c8.75,24.892,18.894,49.271,30.384,73.023c-4.582-18.61-6.67-37.747-6.211-56.908
		c0.084-5.456,0.42-10.744,1.007-16.115v-0.084c-0.014-0.421,0.014-0.843,0.084-1.259c0.915-8.944,2.344-17.828,4.281-26.607
		c1.996-9.118,4.604-18.092,7.806-26.859c4.334-12.407,10.41-24.136,18.045-34.833c6.199-8.296,13.515-15.697,21.74-21.991
		c4.197-3.273,8.561-6.379,13.093-9.401c7.89-5.372,16.031-10.408,24.089-15.78c0.038,5.277,0.402,10.547,1.091,15.78
		c0.335,3.106,0.839,6.295,1.343,9.401c0.252,1.343,0.503,2.686,0.755,3.945c3.257,15.79,7.805,31.286,13.597,46.332
		c2.187-15.815,6.07-31.348,11.583-46.332c0.335-0.923,0.671-1.763,1.007-2.602v-0.084l0.504-1.259
		c3.306-8.238,7.351-16.16,12.086-23.67c4.769,7.489,8.816,15.415,12.086,23.67l0.504,1.259v0.084
		c0.336,0.839,0.672,1.679,1.007,2.602c5.551,15,9.435,30.566,11.583,46.416c5.805-15.07,10.353-30.595,13.597-46.416
		c0.252-1.259,0.503-2.602,0.755-3.945c0.504-3.106,1.008-6.295,1.343-9.401c0.689-5.232,1.053-10.502,1.091-15.78
		c8.058,5.372,16.199,10.408,24.089,15.78c4.532,3.022,8.897,6.127,13.093,9.401c8.224,6.294,15.54,13.695,21.74,21.991
		c7.635,10.697,13.711,22.425,18.045,34.833c3.203,8.767,5.811,17.741,7.807,26.859c1.937,8.779,3.366,17.663,4.281,26.607
		c0.07,0.444,0.098,0.894,0.084,1.343c0.587,5.372,0.923,10.66,1.007,16.115c0.459,19.161-1.629,38.297-6.211,56.908
		c11.5-23.719,21.644-48.071,30.384-72.939v-0.084c0.671-1.763,1.343-3.609,1.93-5.456c3.357-9.736,6.463-19.976,9.149-30.216
		C419.654,210.83,419.822,213.605,419.82,216.383L419.82,216.383z"/>
	<g>
		<path style="fill:#1CD759;" d="M214.853,284.202c-11.164,9.569-60.098,45.325-95.014-22.662v-1.595c0-2.35,0.084-4.7,0.252-6.967
			c0.168-3.022,0.42-6.043,0.671-9.065l42.639-0.336c13.432-0.104,26.101,6.231,34.077,17.039L214.853,284.202z"/>
		<path style="fill:#1CD759;" d="M384.064,259.945v2.014c-29.965,58.083-70.337,39.701-88.131,27.447
			c-2.854-2.014-5.12-3.861-6.715-5.204l17.207-23.418c7.954-10.899,20.669-17.304,34.162-17.207l42.47,0.336
			c0.335,3.022,0.587,6.043,0.755,9.065C383.98,255.245,384.064,257.595,384.064,259.945z"/>
	</g>
	<g>
		<path d="M253.714,503.607h-3.525c-38.818-0.007-76.291-14.217-105.352-39.951L81.377,407.57
			c-15.603-13.405-26.089-31.795-29.68-52.049c-0.805-4.838-1.203-9.735-1.189-14.639V216.455
			c-0.069-20.283,6.548-40.024,18.828-56.168c1.805-2.404,4.758-3.659,7.741-3.29c2.983,0.369,5.541,2.306,6.705,5.078
			c1.164,2.772,0.756,5.954-1.069,8.343c-10.055,13.236-15.473,29.415-15.418,46.037v124.426c-0.013,3.997,0.311,7.988,0.967,11.93
			c2.975,16.443,11.544,31.352,24.254,42.201l63.434,56.066c25.996,23.019,59.515,35.732,94.237,35.742h3.525
			c34.722-0.01,68.24-12.721,94.237-35.738l63.459-56.09c12.67-10.812,21.22-25.666,24.205-42.053
			c0.672-3.984,1.004-8.017,0.992-12.057V216.455c0.055-16.622-5.363-32.801-15.418-46.037c-1.825-2.389-2.233-5.571-1.069-8.343
			c1.164-2.772,3.722-4.709,6.705-5.078c2.983-0.369,5.936,0.886,7.741,3.29c12.28,16.144,18.897,35.885,18.828,56.168v124.426
			c0.013,4.948-0.392,9.887-1.213,14.766c-3.6,20.197-14.068,38.531-29.631,51.898l-63.484,56.111
			C330.004,489.39,292.531,503.6,253.714,503.607L253.714,503.607z"/>
		<path d="M284.517,304.758c-2.69,0-5.218-1.291-6.796-3.469c-1.579-2.179-2.017-4.982-1.179-7.539
			c1.922-5.41,4.288-10.652,7.074-15.672c9.705-17.816,31.738-47.402,70.123-44.721c9.64,0.737,19.311,0.984,28.975,0.742
			c2.231-0.096,4.406,0.712,6.034,2.241c1.628,1.529,2.57,3.649,2.614,5.882c0.072,2.225-0.744,4.388-2.267,6.012
			c-1.524,1.624-3.63,2.575-5.856,2.644c-8.885,0.283-19.205,0.02-30.648-0.775c-27.631-1.971-44.738,18.553-54.238,36.012
			c-2.298,4.135-4.261,8.448-5.869,12.898C291.34,302.441,288.131,304.755,284.517,304.758L284.517,304.758z"/>
		<path d="M334.205,308.442c-18.001-1.029-35.14-8.057-48.68-19.963c-3.505-3.019-3.906-8.305-0.898-11.819
			c3.008-3.514,8.292-3.932,11.816-0.935c5.271,4.508,24.09,18.975,44.09,15.381c13.713-2.426,25.934-13,36.303-31.418
			c1.469-2.617,4.224-4.251,7.225-4.284c3.001-0.033,5.792,1.539,7.318,4.123s1.557,5.787,0.08,8.399
			c-12.951,23.004-29.098,36.365-48,39.713C340.404,308.176,337.307,308.445,334.205,308.442L334.205,308.442z"/>
		<path d="M288.369,239.385c-0.624,0-1.245-0.072-1.852-0.213c-4.453-0.986-7.285-5.371-6.353-9.836
			c0.377-1.783,10.139-43.754,90.303-48.525c4.626-0.276,8.601,3.251,8.877,7.877c0.276,4.626-3.251,8.601-7.877,8.877
			c-66.328,3.951-74.59,34.098-74.91,35.381C295.618,236.711,292.248,239.36,288.369,239.385z"/>
		<path d="M220.476,304.762c-3.616-0.005-6.824-2.32-7.967-5.75c-1.606-4.446-3.566-8.756-5.861-12.889
			c-9.516-17.467-26.656-37.898-54.262-36.02c-10.553,0.807-21.141,1.066-31.721,0.775c-3.007-0.08-5.742-1.762-7.168-4.411
			c-1.426-2.649-1.326-5.858,0.263-8.413c1.589-2.554,4.423-4.063,7.43-3.955c10.012,0.273,20.031,0.025,30.016-0.742
			c38.451-2.541,60.467,26.906,70.18,44.729c2.781,5.019,5.144,10.258,7.066,15.664c0.834,2.557,0.394,5.359-1.183,7.537
			C225.69,303.466,223.165,304.757,220.476,304.762L220.476,304.762z"/>
		<path d="M170.935,308.484c-3.341,0.002-6.675-0.306-9.959-0.922c-19.221-3.615-35.549-17.643-48.525-41.697
			c-2.151-4.072-0.619-9.118,3.434-11.306c4.053-2.188,9.112-0.702,11.337,3.331c10.459,19.381,22.861,30.541,36.852,33.172
			c20.033,3.787,39.139-10.799,44.508-15.357c3.533-3.001,8.831-2.57,11.832,0.963c3.001,3.533,2.57,8.831-0.963,11.832
			C206.006,300.46,188.902,307.505,170.935,308.484L170.935,308.484z"/>
		<path d="M216.607,239.463c-3.917-0.005-7.311-2.717-8.18-6.537c-0.393-1.553-8.975-31.729-75.877-35.443
			c-2.222-0.124-4.303-1.125-5.787-2.784c-1.483-1.659-2.247-3.839-2.123-6.06c0.078-2.239,1.065-4.35,2.734-5.844
			c1.669-1.494,3.876-2.243,6.11-2.074c81.107,4.5,90.967,46.816,91.344,48.615c0.958,4.535-1.941,8.988-6.475,9.947
			C217.779,239.403,217.193,239.463,216.607,239.463z"/>
		<path d="M270.607,367.213c-3.548-0.129-7.042-0.904-10.311-2.287l-1.246-0.451c-3.322-1.152-6.886-1.425-10.344-0.791
			c-1.478,0.319-2.933,0.741-4.352,1.262c-3.532,1.371-7.27,2.137-11.057,2.266c-8.243-0.871-15.832-4.888-21.188-11.213
			c-2.003-2.239-2.657-5.377-1.713-8.229c0.943-2.852,3.34-4.982,6.283-5.584c2.943-0.602,5.983,0.414,7.972,2.666
			c2.258,2.683,5.271,4.625,8.648,5.574c1.968-0.185,3.898-0.656,5.73-1.398c2.172-0.777,4.396-1.397,6.656-1.857
			c6.341-1.162,12.875-0.654,18.959,1.475l1.434,0.52c1.443,0.634,2.969,1.058,4.532,1.258c3.372-0.958,6.383-2.898,8.648-5.574
			c1.989-2.247,5.028-3.261,7.968-2.658c2.94,0.603,5.334,2.731,6.278,5.58s0.294,5.986-1.705,8.225
			C286.439,362.325,278.85,366.342,270.607,367.213L270.607,367.213z"/>
	</g>
	<path style="fill:#FFA800;" d="M321.533,415.727v0.168c-4.113,24.593-33.658,43.646-69.582,43.646
		c-35.84,0-65.469-19.053-69.582-43.646v-0.168c8.241,1.469,16.547-2.219,20.984-9.317c3.458-4.927,8.069-8.932,13.43-11.667
		c6.412-3.178,13.953-3.116,20.311,0.168c4.617,2.341,9.684,3.658,14.856,3.861c5.172-0.203,10.24-1.52,14.856-3.861
		c6.358-3.284,13.9-3.346,20.311-0.168c5.362,2.735,9.972,6.74,13.43,11.667C304.986,413.508,313.292,417.196,321.533,415.727
		L321.533,415.727z"/>
	<g>
		<path d="M185.746,424.475c-4.462,0.02-8.876-0.92-12.943-2.754c-2.709-1.288-4.524-3.924-4.763-6.914
			c-0.239-2.99,1.136-5.88,3.607-7.582c2.47-1.702,5.661-1.956,8.369-0.668c5.957,2.723,13.01,0.613,16.492-4.934
			c4.208-6.075,9.862-11.007,16.451-14.353c8.739-4.379,19.035-4.365,27.762,0.037c6.954,3.981,15.495,3.982,22.451,0.004
			c8.73-4.406,19.029-4.419,27.77-0.037c6.588,3.341,12.239,8.271,16.443,14.344c3.504,5.583,10.616,7.682,16.59,4.898
			c4.206-1.88,9.142-0.039,11.09,4.135c1.943,4.153,0.171,9.096-3.967,11.07c-13.357,6.25-29.277,1.802-37.459-10.467
			c-2.622-3.808-6.152-6.901-10.27-9c-4.105-2.032-8.94-1.951-12.975,0.217c-11.519,6.191-25.376,6.19-36.893-0.004
			c-4.031-2.174-8.866-2.255-12.967-0.217c-4.12,2.104-7.652,5.2-10.279,9.008C204.867,419.548,195.633,424.528,185.746,424.475z"/>
		<path d="M251.951,467.934c-39.516,0-73-21.783-77.885-50.672c-0.772-4.572,2.309-8.904,6.881-9.676
			c4.572-0.772,8.904,2.309,9.676,6.881c3.475,20.57,30.41,36.68,61.328,36.68s57.852-16.111,61.328-36.68
			c0.772-4.572,5.104-7.653,9.676-6.881s7.653,5.104,6.881,9.676C324.951,446.152,291.467,467.934,251.951,467.934z"/>
		<path d="M377.853,325.246c-2.583,0-5.022-1.189-6.613-3.223s-2.157-4.688-1.535-7.195c4.405-17.887,6.412-36.281,5.967-54.697
			c-0.066-5.057-0.402-10.377-1.049-16.804c-0.885-8.616-2.264-17.174-4.131-25.631c-1.901-8.745-4.399-17.35-7.475-25.754
			c-4.07-11.682-9.78-22.725-16.959-32.799c-5.737-7.674-12.509-14.516-20.123-20.332c-7.68-6.021-15.861-11.324-24.516-16.897
			c-0.41,3.685-0.959,7.57-1.656,11.689c-3.358,17.774-8.327,35.205-14.844,52.078c-1.437,3.5-5.018,5.627-8.779,5.213
			c-3.771-0.45-6.769-3.377-7.311-7.135c-2.27-16.585-6.49-32.844-12.573-48.439c-3.079-7.752-6.879-15.197-11.352-22.238
			c-1.627-2.518-1.786-5.713-0.419-8.382c1.368-2.668,4.055-4.404,7.049-4.553c2.994-0.15,5.841,1.31,7.468,3.828
			c5.057,7.938,9.352,16.336,12.827,25.083c2.726,6.841,5.082,13.824,7.057,20.918c1.607-6.033,3.148-12.586,4.336-19.254
			c1.428-7.824,2.199-15.753,2.303-23.705c0-3.096,1.704-5.94,4.433-7.4c2.729-1.461,6.041-1.3,8.616,0.417
			c3.672,2.451,7.377,4.836,11.074,7.213c8.893,5.73,18.098,11.656,26.631,18.344c8.825,6.763,16.673,14.714,23.32,23.627
			c8.117,11.344,14.575,23.788,19.18,36.955c3.334,9.096,6.04,18.41,8.098,27.877c2.011,9.1,3.497,18.307,4.451,27.578
			c0.697,6.943,1.058,12.717,1.131,18.201c0.017,0.816,0.033,1.631,0.041,2.442c3.246-8.324,6.557-17.291,9.713-26.594
			c8.244-23.088,14.052-46.975,17.328-71.271c0.216-2.227,1.326-4.271,3.077-5.665c1.75-1.394,3.991-2.017,6.21-1.729
			c2.211,0.251,4.232,1.371,5.617,3.113s2.021,3.963,1.768,6.174c-3.405,25.487-9.471,50.547-18.098,74.77
			c-9.275,27.159-20.214,53.722-32.754,79.537C383.938,323.449,381.032,325.245,377.853,325.246L377.853,325.246z"/>
		<path d="M444.992,344.971c-3.077-0.003-5.905-1.69-7.371-4.396c-1.465-2.706-1.332-5.996,0.346-8.575
			c21.007-32.177,32.2-69.77,32.213-108.197c0-114.148-97.893-207.016-218.229-207.016c-4.636,0-8.393-3.758-8.393-8.393
			S247.315,0,251.951,0c129.59,0,235.016,100.398,235.016,223.803c-0.013,41.678-12.151,82.452-34.934,117.353
			C450.485,343.539,447.834,344.976,444.992,344.971z"/>
		<path d="M126.049,325.246c-3.18,0.001-6.087-1.795-7.508-4.639c-12.54-25.815-23.479-52.377-32.754-79.537
			c-8.627-24.223-14.693-49.283-18.098-74.77c-0.524-4.603,2.782-8.76,7.385-9.287c2.216-0.275,4.45,0.353,6.198,1.744
			c1.747,1.391,2.861,3.427,3.089,5.649c3.276,24.296,9.084,48.182,17.328,71.27c3.156,9.307,6.467,18.275,9.713,26.598
			c0.008-0.836,0.025-1.672,0.041-2.512c0.074-5.418,0.434-11.193,1.131-18.115c0.952-9.271,2.435-18.48,4.443-27.582
			c2.07-9.497,4.786-18.841,8.131-27.967c4.6-13.133,11.044-25.546,19.139-36.865c6.656-8.923,14.515-16.882,23.352-23.652
			c8.516-6.68,17.721-12.607,26.615-18.336c3.697-2.377,7.402-4.762,11.074-7.213c2.575-1.717,5.887-1.878,8.616-0.417
			c2.729,1.461,4.433,4.305,4.433,7.4c0.106,7.976,0.882,15.929,2.32,23.775c1.18,6.643,2.713,13.172,4.32,19.189
			c1.97-7.092,4.326-14.071,7.057-20.906c4.876-13.225,12.024-25.497,21.123-36.262c3.205-3.336,8.505-3.45,11.85-0.255
			s3.475,8.495,0.289,11.849c-7.569,9.266-13.549,19.724-17.697,30.947c-6.081,15.584-10.299,31.832-12.566,48.406
			c-0.542,3.759-3.541,6.685-7.311,7.135c-3.762,0.415-7.343-1.712-8.779-5.213c-6.51-16.85-11.473-34.258-14.828-52.008
			c-0.705-4.152-1.262-8.058-1.672-11.758c-8.656,5.574-16.836,10.877-24.5,16.889c-7.627,5.822-14.41,12.672-20.156,20.357
			c-7.157,10.049-12.853,21.061-16.918,32.709c-3.087,8.434-5.596,17.069-7.508,25.844c-1.863,8.459-3.24,17.018-4.123,25.635
			c-0.648,6.406-0.984,11.726-1.049,16.717c-0.448,18.438,1.559,36.854,5.967,54.762c0.622,2.507,0.056,5.16-1.535,7.194
			C131.071,324.057,128.632,325.246,126.049,325.246z"/>
		<path d="M58.91,344.971c-2.842,0.005-5.493-1.432-7.041-3.816c-17.411-26.589-28.674-56.726-32.967-88.217
			c-0.612-4.587,2.603-8.804,7.188-9.43s8.812,2.576,9.452,7.16c3.958,29.033,14.341,56.818,30.393,81.332
			c1.679,2.579,1.811,5.869,0.346,8.575C64.816,343.281,61.987,344.968,58.91,344.971L58.91,344.971z"/>
		<path d="M29.074,193.049c-0.536,0-1.072-0.051-1.598-0.152c-2.186-0.42-4.116-1.693-5.363-3.537
			c-1.247-1.844-1.709-4.109-1.285-6.295C41.32,76.988,138.517,0,251.951,0c4.636,0,8.393,3.758,8.393,8.393
			s-3.758,8.393-8.393,8.393c-105.402,0-195.672,71.27-214.648,169.459C36.545,190.193,33.093,193.046,29.074,193.049z"/>
		<path d="M25.328,226.623c-2.225-0.016-4.359-0.887-5.959-2.434c-3.246-3.31-3.246-8.608,0-11.918
			c2.431-2.346,6.017-3.039,9.148-1.766c0.534,0.184,1.041,0.439,1.508,0.758c0.442,0.309,0.863,0.646,1.263,1.008
			c3.246,3.31,3.246,8.608,0,11.918c-0.418,0.336-0.844,0.672-1.262,1.004c-0.467,0.319-0.974,0.574-1.508,0.758
			C27.508,226.381,26.425,226.609,25.328,226.623L25.328,226.623z"/>
		<path d="M251.951,67.148c-2.226,0.001-4.361-0.884-5.936-2.458c-1.574-1.574-2.458-3.709-2.458-5.936
			c-0.005-4.634-3.76-8.389-8.393-8.393c-4.636,0-8.393-3.758-8.393-8.393s3.758-8.393,8.393-8.393
			c13.9,0.015,25.165,11.28,25.18,25.18c0.001,2.226-0.884,4.361-2.458,5.936C256.313,66.264,254.177,67.148,251.951,67.148z"/>
		<path d="M251.951,67.148c-2.226,0.001-4.361-0.884-5.936-2.458c-1.574-1.574-2.458-3.709-2.458-5.936
			c0.015-13.9,11.28-25.165,25.18-25.18c4.636,0,8.393,3.758,8.393,8.393s-3.758,8.393-8.393,8.393
			c-4.634,0.005-8.389,3.76-8.393,8.393c0.001,2.226-0.884,4.361-2.458,5.936C256.313,66.264,254.177,67.148,251.951,67.148z"/>
		<path d="M137.746,503.902c-85.467,0-110.181-52.902-111.402-55.639c-1.029-2.32-0.953-4.981,0.206-7.239
			c1.159-2.258,3.277-3.871,5.761-4.388c27.607-5.73,35.361-43.373,35.434-43.754c0.885-4.55,5.291-7.52,9.84-6.635
			c4.55,0.885,7.52,5.291,6.635,9.84c-0.344,1.791-8.041,39.824-37.533,53.389c12.844,17.25,53.131,54.02,152.59,29.365
			c2.916-0.735,6.003,0.146,8.091,2.31c2.089,2.164,2.86,5.28,2.021,8.168c-0.838,2.888-3.158,5.107-6.08,5.817
			C181.892,500.701,159.875,503.644,137.746,503.902z"/>
		<path d="M366.156,503.902c-22.13-0.256-44.146-3.2-65.566-8.766c-2.922-0.71-5.242-2.929-6.08-5.817
			c-0.838-2.888-0.067-6.004,2.021-8.168s5.175-3.045,8.091-2.31c98.779,24.467,139.475-12.279,152.5-29.41
			c-29.418-13.598-37.098-51.553-37.443-53.344c-0.869-4.543,2.102-8.932,6.642-9.814c4.54-0.882,8.938,2.076,9.833,6.613
			c0.123,0.594,7.91,38.037,35.434,43.75c2.485,0.517,4.603,2.13,5.762,4.388c1.159,2.258,1.234,4.919,0.206,7.239
			C476.336,451,451.607,503.902,366.156,503.902z"/>
	</g>
</g>
<g>
</g>
<g>
</g>
<g>
</g>
<g>
</g>
<g>
</g>
<g>
</g>
<g>
</g>
<g>
</g>
<g>
</g>
<g>
</g>
<g>
</g>
<g>
</g>
<g>
</g>
<g>
</g>
<g>
</g>
</svg>
