<?xml version="1.0" encoding="iso-8859-1"?>
<!-- Generator: Adobe Illustrator 19.0.0, SVG Export Plug-In . SVG Version: 6.00 Build 0)  -->
<svg version="1.1" id="Capa_1" xmlns="http://www.w3.org/2000/svg" xmlns:xlink="http://www.w3.org/1999/xlink" x="0px" y="0px"
	 viewBox="0 0 512.001 512.001" style="enable-background:new 0 0 512.001 512.001;" xml:space="preserve">
<g>
	<path style="fill:#FFA800;" d="M494.934,281.601V145.068c0.33-35.89-13.614-70.44-38.763-96.046S396.729,8.851,360.839,8.535
		H159.696c-35.89,0.316-70.183,14.88-95.332,40.487s-39.093,60.157-38.763,96.046v136.533H494.934z"/>
	<path style="fill:#FFFFFF;" d="M171.862,8.535c-71.339,0-129.195,61.099-129.195,136.533v136.533h-25.6V145.068
		c0-75.435,57.856-136.533,129.195-136.533H171.862z"/>
	<path style="fill:#FEDD0A;" d="M469.334,145.068v136.533H42.667V145.068c0-75.435,57.856-136.533,129.195-136.533h168.277
		C411.478,8.535,469.334,69.633,469.334,145.068z"/>
	<path style="fill:#FFA800;" d="M471.979,403.116c4.581,21.039-3.317,42.84-20.309,56.064
		c-27.307,20.309-80.299,44.288-178.603,44.288h-34.133c-98.304,0-151.296-23.979-178.603-44.288
		c-16.993-13.224-24.89-35.025-20.309-56.064l11.179-53.248l1.877-4.181c-30.805-24.064-36.011-44.117-36.011-64.085
		c0-25.6,25.6-93.867,25.6-93.867l0.597-0.085c-3.908-20.607,6.1-41.349,24.661-51.115c0,0,0.341-102.4,85.675-85.333
		s102.4,59.733,102.4,59.733s17.067-42.667,102.4-59.733s85.675,85.333,85.675,85.333c18.561,9.766,28.569,30.508,24.661,51.115
		l0.597,0.085c0,0,25.6,68.267,25.6,93.867c0,20.821-5.632,41.643-39.765,66.987l5.632,1.28L471.979,403.116z"/>
	<path style="fill:#FFFFFF;" d="M255.233,503.383c-2.56,0.085-5.12,0.085-7.765,0.085h-14.08
		c-94.805-0.939-146.261-24.32-173.056-44.288c-16.993-13.224-24.89-35.025-20.309-56.064l11.179-53.248l1.877-4.181
		c-30.805-24.064-36.011-44.117-36.011-64.085c0-25.6,25.6-93.867,25.6-93.867l0.597-0.085c-3.908-20.607,6.1-41.349,24.661-51.115
		c0,0,0.256-76.373,55.211-86.187c8.475-1.413,17.125-1.413,25.6,0c-54.955,9.813-55.211,86.187-55.211,86.187
		c-18.561,9.766-28.569,30.508-24.661,51.115l-0.597,0.085c0,0-25.6,68.267-25.6,93.867c0,19.968,5.205,40.021,36.011,64.085
		l-1.877,4.181l-11.179,53.248c-4.581,21.039,3.317,42.84,20.309,56.064C112.385,478.892,162.817,501.932,255.233,503.383z"/>
	<path style="fill:#FEDD0A;" d="M446.379,403.116c4.581,21.039-3.317,42.84-20.309,56.064
		c-26.453,19.712-76.971,42.752-169.557,44.203c-0.426,0.043-0.854,0.043-1.28,0c-92.416-1.451-142.848-24.491-169.301-44.203
		c-16.993-13.224-24.89-35.025-20.309-56.064l11.179-53.248l1.877-4.181c-30.805-24.064-36.011-44.117-36.011-64.085
		c0-25.6,25.6-93.867,25.6-93.867l0.597-0.085c-3.908-20.607,6.1-41.349,24.661-51.115c0,0,0.256-76.373,55.211-86.187
		c1.621,0.256,3.243,0.512,4.864,0.853c49.579,9.899,76.032,28.416,89.6,42.24c5.29,5.009,9.627,10.936,12.8,17.493
		c3.173-6.558,7.51-12.485,12.8-17.493c13.568-13.824,40.021-32.341,89.6-42.24c1.621-0.341,3.243-0.597,4.864-0.853
		c3.711,0.638,7.344,1.668,10.837,3.072c44.117,17.152,44.373,83.115,44.373,83.115c18.561,9.766,28.569,30.508,24.661,51.115
		l0.597,0.085c0,0,25.6,68.267,25.6,93.867c0,20.821-5.632,41.643-39.765,66.987l5.632,1.28L446.379,403.116z"/>
	<path d="M67.926,305.889c-3.762,0.003-7.082-2.457-8.174-6.057c-1.092-3.6,0.302-7.49,3.432-9.577
		c15.267-9.34,32.778-14.372,50.675-14.562c24.658,0,47.95,0,58.542-15.892c1.682-2.559,4.606-4.021,7.662-3.831
		c3.056,0.19,5.777,2.004,7.128,4.752c1.351,2.748,1.126,6.01-0.59,8.546c-15.659,23.492-45.983,23.492-72.742,23.492
		c-14.53,0.178-28.751,4.214-41.208,11.696C71.253,305.391,69.608,305.89,67.926,305.889z"/>
	<g>
		<path style="fill:#D22047;" d="M113.863,205.458c-4.275,6.35-6.224,13.983-5.516,21.606c2.587,17.979,30.204,27.233,44.901,30.907
			c10.828,3.628,22.415,4.373,33.618,2.16c9.88-3.192,17.163-11.615,18.895-21.852"/>
		<path style="fill:#D22047;" d="M397.785,205.458c4.275,6.35,6.224,13.983,5.516,21.606c-2.587,17.979-30.205,27.233-44.901,30.907
			c-10.828,3.628-22.415,4.373-33.618,2.16c-9.88-3.192-17.163-11.615-18.895-21.852"/>
	</g>
	<g>
		<path d="M175.934,270.089c-8.378-0.266-16.693-1.554-24.758-3.838c-21.675-5.421-48.175-16.408-51.275-37.975
			c-1.032-9.647,1.363-19.35,6.767-27.408c1.64-2.569,4.527-4.068,7.572-3.932c3.045,0.136,5.787,1.886,7.192,4.592
			c1.405,2.705,1.26,5.955-0.381,8.524c-3.157,4.633-4.658,10.196-4.258,15.788c1.308,9.104,16.075,18.242,38.525,23.854
			c9.397,3.215,19.458,3.981,29.233,2.225c6.932-2.376,11.934-8.453,12.933-15.713c0.736-2.961,2.997-5.303,5.93-6.143
			c2.933-0.84,6.091-0.05,8.282,2.073c2.192,2.122,3.083,5.253,2.338,8.212c-2.429,13.231-12.007,24.018-24.858,27.996
			C184.864,269.534,180.408,270.122,175.934,270.089L175.934,270.089z"/>
		<path d="M443.725,305.889c-1.675,0.001-3.313-0.493-4.708-1.421c-12.483-7.444-26.701-11.482-41.233-11.708
			c-26.75,0-57.075,0-72.742-23.492c-1.717-2.537-1.943-5.799-0.592-8.548c1.351-2.749,4.072-4.563,7.129-4.753
			c3.057-0.19,5.982,1.273,7.663,3.834c10.6,15.892,33.883,15.892,58.542,15.892c17.899,0.19,35.413,5.222,50.683,14.562
			c3.13,2.087,4.524,5.977,3.432,9.577C450.807,303.432,447.487,305.892,443.725,305.889L443.725,305.889z"/>
		<path d="M335.709,270.089c-4.473,0.033-8.93-0.555-13.242-1.746c-12.85-3.979-22.427-14.765-24.858-27.996
			c-0.745-2.958,0.146-6.089,2.338-8.212c2.192-2.122,5.35-2.913,8.282-2.073c2.933,0.84,5.194,3.182,5.93,6.143
			c1,7.259,6.003,13.335,12.933,15.713c9.779,1.734,19.838,0.969,29.242-2.225c22.45-5.612,37.217-14.75,38.517-23.842
			c0.408-5.594-1.093-11.161-4.258-15.792c-2.498-3.97-1.325-9.211,2.626-11.738c3.951-2.527,9.201-1.394,11.757,2.538
			c5.407,8.062,7.805,17.769,6.775,27.421c-3.1,21.563-29.6,32.55-51.283,37.971C352.402,268.534,344.087,269.823,335.709,270.089
			L335.709,270.089z"/>
		<path d="M203.159,340.347c-2.12,0.006-4.227-0.328-6.242-0.987c-6.548-2.387-11.664-7.609-13.917-14.204
			c-9.092-22.017,19.833-40.308,23.158-42.321c2.607-1.581,5.859-1.651,8.531-0.184c2.672,1.467,4.359,4.248,4.425,7.296
			c0.066,3.048-1.499,5.899-4.106,7.48c-6.967,4.25-18.875,14.829-16.242,21.208c0.542,1.876,1.767,3.481,3.433,4.5
			c1.399,0.255,2.843,0.015,4.083-0.679c4.078-2.275,9.227-0.881,11.6,3.142c2.361,3.987,1.071,9.132-2.892,11.533
			C211.385,339.19,207.313,340.297,203.159,340.347z"/>
		<path d="M308.842,340.347c-4.154-0.05-8.226-1.157-11.833-3.217c-4.024-2.443-5.31-7.683-2.873-11.71
			c2.437-4.028,7.675-5.321,11.706-2.89c1.212,0.646,2.609,0.859,3.958,0.604c1.667-1.019,2.892-2.626,3.433-4.504
			c2.633-6.375-9.275-16.954-16.242-21.204c-4.03-2.444-5.315-7.692-2.871-11.721c2.444-4.029,7.692-5.315,11.721-2.871
			c3.325,2.013,32.25,20.304,23.158,42.317c-2.251,6.597-7.368,11.821-13.917,14.208
			C313.069,340.019,310.962,340.352,308.842,340.347z"/>
		<path d="M256.001,358.401c-6.312,0.739-12.649-1.171-17.5-5.276c-4.852-4.105-7.784-10.038-8.1-16.386
			c0.002-4.671,3.758-8.473,8.428-8.531c4.67-0.058,8.52,3.649,8.638,8.318c0.158,2.204,1.783,4.808,8.533,4.808
			c4.713,0,8.533,3.82,8.533,8.533S260.714,358.401,256.001,358.401L256.001,358.401z"/>
		<path d="M256.001,358.401c-4.713,0-8.533-3.82-8.533-8.533s3.821-8.533,8.533-8.533c6.783,0,8.392-2.633,8.542-4.846
			c0.214-4.663,4.143-8.283,8.808-8.116c4.567,0.083,8.231,3.799,8.25,8.366c-0.315,6.348-3.248,12.281-8.1,16.386
			C268.649,357.23,262.313,359.141,256.001,358.401z"/>
		<path d="M50.859,221.872c-3.376,0.001-6.436-1.986-7.808-5.071c-23.183-52.175,4.675-77.35,16.525-85.229
			c0.875-14.046,5.75-54.229,32.717-76.258c16.358-13.367,37.525-17.571,62.983-12.479c88.842,17.766,107.883,63.013,108.65,64.929
			c1.737,4.374-0.393,9.328-4.762,11.076c-4.369,1.748-9.329-0.37-11.088-4.735c-0.133-0.308-17.267-38.758-96.15-54.537
			c-16.77-4.7-34.771-1.407-48.792,8.925c-26.109,21.27-26.684,67.617-26.684,68.083c-0.018,3.343-1.985,6.369-5.033,7.742
			c-3.5,1.637-34.066,17.625-12.767,65.55c1.912,4.307-0.028,9.348-4.333,11.262C53.23,221.619,52.051,221.872,50.859,221.872z"/>
		<path d="M461.142,221.872c-1.192,0-2.371-0.253-3.458-0.742c-4.306-1.914-6.246-6.956-4.333-11.262
			c21.9-49.271-11.342-64.908-12.767-65.55c-3.049-1.373-5.016-4.398-5.033-7.742c0-0.467-0.575-46.813-26.684-68.083
			c-14.02-10.334-32.021-13.626-48.792-8.925c-78.883,15.779-96.017,54.229-96.183,54.617c-1.806,4.316-6.75,6.374-11.085,4.614
			c-4.335-1.76-6.445-6.681-4.732-11.035c0.767-1.917,19.808-47.163,108.65-64.929c21.793-5.855,45.069-1.243,62.983,12.479
			c26.967,22.029,31.842,62.213,32.717,76.258c11.85,7.879,39.708,33.054,16.525,85.229
			C467.578,219.886,464.518,221.873,461.142,221.872L461.142,221.872z"/>
		<path d="M85.325,375.468c-1.482,0-2.939-0.388-4.225-1.125C20.876,339.931,8.534,312.38,8.534,281.601
			c0-26.837,25.075-94.017,26.142-96.862c1.058-2.872,3.573-4.959,6.591-5.467c3.019-0.508,6.078,0.639,8.019,3.006
			c1.94,2.367,2.464,5.593,1.373,8.453c-6.975,18.587-25.058,71.15-25.058,90.871c0,20.933,4.942,44.196,63.967,77.925
			c3.36,1.921,5.007,5.862,4.011,9.603S89.196,375.471,85.325,375.468z"/>
		<path d="M426.676,375.468c-3.87,0.003-7.258-2.599-8.253-6.339c-0.995-3.74,0.651-7.682,4.011-9.602
			c59.025-33.729,63.966-56.992,63.966-77.925c0-19.733-18.083-72.287-25.058-90.871c-1.091-2.86-0.567-6.085,1.373-8.453
			c1.94-2.367,5-3.514,8.019-3.006c3.019,0.508,5.534,2.594,6.591,5.467c1.067,2.846,26.142,70.025,26.142,96.863
			c0,30.779-12.342,58.329-72.567,92.742C429.615,375.08,428.158,375.468,426.676,375.468L426.676,375.468z"/>
		<path d="M273.067,512.001h-34.133c-100.792,0-155.517-25.017-183.675-46c-19.729-15.132-28.924-40.31-23.592-64.596l11.183-53.292
			c0.994-4.585,5.502-7.507,10.093-6.543s7.542,5.454,6.607,10.051l-11.183,53.292c-3.973,17.779,2.687,36.251,17.091,47.404
			c26.083,19.442,77.358,42.617,173.475,42.617h34.133c96.117,0,147.392-23.175,173.475-42.617
			c14.404-11.153,21.064-29.626,17.091-47.404l-11.183-53.292c-0.935-4.597,2.016-9.086,6.607-10.051
			c4.591-0.964,9.099,1.958,10.093,6.543l11.183,53.292c5.333,24.285-3.863,49.463-23.592,64.596
			C428.584,486.985,373.859,512.001,273.067,512.001z"/>
		<path d="M145.067,409.601c-2.263,0.001-4.434-0.898-6.035-2.499c-1.6-1.6-2.499-3.771-2.499-6.035
			c0-59.054,32.742-59.733,34.133-59.733c4.656,0.013,8.442,3.757,8.508,8.412c0.066,4.656-3.613,8.505-8.266,8.65
			c-6.008,0.479-17.308,9.996-17.308,42.671c0.001,2.263-0.898,4.434-2.499,6.035C149.502,408.703,147.331,409.602,145.067,409.601
			L145.067,409.601z"/>
		<path d="M366.934,409.601c-2.263,0.001-4.434-0.898-6.035-2.499c-1.6-1.6-2.499-3.771-2.499-6.035
			c0-32.75-11.35-42.233-17.35-42.675c-4.613-0.323-8.164-4.205-8.075-8.829c0.088-4.558,3.799-8.212,8.358-8.229
			c1.392,0,34.133,0.679,34.133,59.733c0.001,2.263-0.898,4.434-2.499,6.035C371.368,408.703,369.197,409.602,366.934,409.601
			L366.934,409.601z"/>
		<path d="M332.801,426.668h-153.6c-4.713,0-8.533-3.82-8.533-8.533s3.82-8.533,8.533-8.533h153.6c4.713,0,8.533,3.82,8.533,8.533
			S337.514,426.668,332.801,426.668z"/>
		<path d="M187.734,426.668c-4.713,0-8.533-3.82-8.533-8.533s3.821-8.533,8.533-8.533c4.711-0.005,8.529-3.822,8.533-8.533v-8.533
			c0-4.713,3.821-8.533,8.533-8.533s8.533,3.82,8.533,8.533v8.533C213.319,415.2,201.866,426.653,187.734,426.668L187.734,426.668z"
			/>
		<path d="M221.867,426.668c-14.132-0.015-25.585-11.468-25.6-25.6v-8.533c0-4.713,3.821-8.533,8.533-8.533s8.533,3.82,8.533,8.533
			v8.533c0.005,4.711,3.822,8.529,8.533,8.533c4.713,0,8.533,3.82,8.533,8.533S226.58,426.668,221.867,426.668L221.867,426.668z"/>
		<path d="M221.867,426.668c-4.713,0-8.533-3.82-8.533-8.533s3.821-8.533,8.533-8.533c4.711-0.005,8.529-3.822,8.533-8.533v-8.533
			c0-4.713,3.82-8.533,8.533-8.533s8.533,3.82,8.533,8.533v8.533C247.452,415.2,235.999,426.653,221.867,426.668L221.867,426.668z"
			/>
		<path d="M256.001,426.668c-14.132-0.015-25.585-11.468-25.6-25.6v-8.533c0-4.713,3.82-8.533,8.533-8.533s8.533,3.82,8.533,8.533
			v8.533c0.005,4.711,3.822,8.529,8.533,8.533c4.713,0,8.533,3.82,8.533,8.533S260.714,426.668,256.001,426.668L256.001,426.668z"/>
		<path d="M256.001,426.668c-4.713,0-8.533-3.82-8.533-8.533s3.821-8.533,8.533-8.533c4.711-0.005,8.529-3.822,8.533-8.533v-8.533
			c0-4.713,3.82-8.533,8.533-8.533s8.533,3.82,8.533,8.533v8.533C281.585,415.2,270.133,426.653,256.001,426.668L256.001,426.668z"
			/>
		<path d="M290.134,426.668c-14.132-0.015-25.585-11.468-25.6-25.6v-8.533c0-4.713,3.82-8.533,8.533-8.533s8.533,3.82,8.533,8.533
			v8.533c0.005,4.711,3.822,8.529,8.533,8.533c4.713,0,8.533,3.82,8.533,8.533S294.847,426.668,290.134,426.668L290.134,426.668z"/>
		<path d="M290.134,426.668c-4.713,0-8.533-3.82-8.533-8.533s3.821-8.533,8.533-8.533c4.711-0.005,8.529-3.822,8.533-8.533v-8.533
			c0-4.713,3.82-8.533,8.533-8.533s8.533,3.82,8.533,8.533v8.533C315.719,415.2,304.266,426.653,290.134,426.668L290.134,426.668z"
			/>
		<path d="M324.267,426.668c-14.132-0.015-25.585-11.468-25.6-25.6v-8.533c0-4.713,3.82-8.533,8.533-8.533s8.533,3.82,8.533,8.533
			v8.533c0.005,4.711,3.822,8.529,8.533,8.533c4.713,0,8.533,3.82,8.533,8.533S328.98,426.668,324.267,426.668L324.267,426.668z"/>
		<path d="M256.001,512.001c-33.925,0-68.267-11.725-68.267-34.133c0-4.713,3.821-8.533,8.533-8.533c4.713,0,8.533,3.82,8.533,8.533
			c0,6.017,19.442,17.067,51.2,17.067s51.2-11.05,51.2-17.067c0-4.713,3.821-8.533,8.533-8.533c4.713,0,8.533,3.82,8.533,8.533
			C324.267,500.277,289.926,512.001,256.001,512.001z"/>
		<path d="M17.067,290.135c-2.263,0.001-4.434-0.898-6.035-2.499c-1.6-1.6-2.499-3.771-2.499-6.035v-128
			c0-4.713,3.821-8.533,8.533-8.533s8.533,3.821,8.533,8.533v128c0.001,2.263-0.898,4.434-2.499,6.035
			C21.502,289.236,19.331,290.135,17.067,290.135L17.067,290.135z"/>
		<path d="M494.934,290.135c-2.263,0.001-4.434-0.898-6.035-2.499c-1.6-1.6-2.499-3.771-2.499-6.035V145.068
			c-0.079-70.66-57.34-127.921-128-128h-204.8c-49.054-0.213-93.858,27.803-115.142,72c-2.064,4.239-7.174,6.002-11.413,3.937
			c-4.239-2.064-6.002-7.174-3.937-11.413c24.125-50.084,74.9-81.832,130.492-81.591h204.8
			c80.081,0.089,144.977,64.986,145.067,145.067v136.533c0.001,2.263-0.898,4.434-2.499,6.035
			C499.368,289.236,497.197,290.135,494.934,290.135L494.934,290.135z"/>
		<path d="M19.626,128.001c-0.573-0.016-1.144-0.073-1.708-0.171c-0.533-0.095-1.05-0.268-1.533-0.513
			c-0.544-0.186-1.06-0.445-1.533-0.771c-0.433-0.338-0.858-0.679-1.283-1.021c-0.366-0.407-0.708-0.834-1.025-1.279
			c-0.325-0.475-0.582-0.992-0.767-1.538c-0.246-0.485-0.42-1.003-0.517-1.538c-0.093-0.564-0.148-1.133-0.167-1.704
			c0.033-2.259,0.917-4.422,2.475-6.059c2.492-2.347,6.114-3.046,9.3-1.796c1.035,0.433,1.987,1.041,2.817,1.796
			c1.558,1.636,2.441,3.8,2.475,6.059c-0.018,0.571-0.074,1.14-0.167,1.704c-0.096,0.535-0.27,1.053-0.517,1.538
			c-0.184,0.545-0.442,1.062-0.767,1.538c-0.341,0.425-0.683,0.85-1.025,1.279C24.046,127.083,21.884,127.966,19.626,128.001
			L19.626,128.001z"/>
		<path d="M200.734,244.381c-5.581-0.01-11.128-0.884-16.442-2.592c-40.875-13.033-79.767-35.433-114.075-55.192
			c-4.056-2.365-5.44-7.562-3.097-11.631c2.343-4.069,7.532-5.481,11.614-3.161c33.567,19.333,71.617,41.246,110.742,53.725
			c10.395,3.651,21.928,1.852,30.717-4.792c15.525-12.492,9.283-28.638,4.175-37.146c-1.569-2.614-1.624-5.866-0.145-8.532
			c1.479-2.666,4.268-4.34,7.317-4.392c3.048-0.052,5.893,1.527,7.462,4.141c13.158,21.925,10.05,44.621-8.108,59.225
			C222.318,240.83,211.674,244.481,200.734,244.381L200.734,244.381z"/>
		<path d="M310.917,244.381c-10.942,0.1-21.589-3.552-30.167-10.346c-18.15-14.604-21.258-37.296-8.1-59.225
			c2.425-4.041,7.667-5.35,11.708-2.925c4.041,2.425,5.35,7.667,2.925,11.708c-5.108,8.513-11.358,24.658,4.167,37.142
			c8.789,6.644,20.321,8.445,30.717,4.796c39.158-12.483,77.183-34.392,110.742-53.725c4.082-2.32,9.271-0.908,11.613,3.161
			c2.343,4.069,0.959,9.266-3.097,11.631c-34.3,19.758-73.175,42.154-114.075,55.192
			C322.039,243.496,316.496,244.37,310.917,244.381L310.917,244.381z"/>
	</g>
</g>
<g>
</g>
<g>
</g>
<g>
</g>
<g>
</g>
<g>
</g>
<g>
</g>
<g>
</g>
<g>
</g>
<g>
</g>
<g>
</g>
<g>
</g>
<g>
</g>
<g>
</g>
<g>
</g>
<g>
</g>
</svg>
