<?xml version="1.0" encoding="iso-8859-1"?>
<!-- Generator: Adobe Illustrator 19.0.0, SVG Export Plug-In . SVG Version: 6.00 Build 0)  -->
<svg version="1.1" id="Capa_1" xmlns="http://www.w3.org/2000/svg" xmlns:xlink="http://www.w3.org/1999/xlink" x="0px" y="0px"
	 viewBox="0 0 512.001 512.001" style="enable-background:new 0 0 512.001 512.001;" xml:space="preserve">
<g>
	<path style="fill:#FFA800;" d="M313.002,102.401l-8.843,10.923c-3.09,3.873-7.772,6.134-12.726,6.144H150.202
		c-9.761-0.002-19.284,3.008-27.271,8.619c-8.118,5.651-14.339,13.622-17.85,22.869l-37.353,96.427
		c-4.414,0.011-8.635-1.813-11.652-5.035c-3.157-3.205-4.911-7.533-4.876-12.032v-93.867C50.163,66.918,105.63,9.682,175.159,8.534
		h55.121l17.107,10.581c6.27,4,9.295,11.551,7.521,18.773l-0.165,0.597c-1.319,5.021-0.265,10.369,2.862,14.513
		c3.127,4.144,7.98,6.626,13.17,6.735h11.9c9.264,0.178,16.647,7.802,16.528,17.067V88.15
		C299.093,95.89,305.263,102.261,313.002,102.401z"/>
	<path id="SVGCleanerId_0" style="fill:#FFA800;" d="M443.733,137.525l-0.256,36.214c-5.509-0.185-10.575-3.066-13.551-7.706
		l-6.903-10.616c-0.746-1.186-1.665-2.254-2.727-3.168c-2.607-2.477-5.966-4.013-9.545-4.366c-0.614-0.141-1.245-0.199-1.875-0.171
		h-50.537c-9.528-0.121-17.156-7.938-17.045-17.465v-8.647c0.081-9.515-7.53-17.314-17.045-17.465h-11.335
		c-7.918-0.083-14.28-6.55-14.232-14.469V78.024c0.074-9.499-7.546-17.269-17.045-17.38h-12.783
		c-5.289-0.063-10.244-2.599-13.39-6.851c-3.146-4.253-4.12-9.732-2.632-14.809l0.171-0.599c1.827-7.396-1.301-15.13-7.756-19.177
		l2.301-2.14h46.958c13.637,0.06,26.681,5.579,36.22,15.325l3.068,3.168c4.748,4.874,11.263,7.622,18.067,7.62h5.369
		c15.818,0.148,29.497,11.064,33.152,26.455l0.681,2.911c0.753,3.206,3.611,5.473,6.903,5.479h0.085
		c11.817,0.144,22.03,8.288,24.8,19.777l2.812,11.643c0.48,2.167,1.924,3.996,3.92,4.966v0.085
		C438.229,118.931,443.683,127.81,443.733,137.525L443.733,137.525z"/>
	<path id="SVGCleanerId_1" style="fill:#FEDD0A;" d="M420.381,137.525l-0.085,14.725c-2.607-2.477-5.966-4.013-9.545-4.366
		c-0.614-0.141-1.245-0.199-1.875-0.171h-50.537c-9.528-0.121-17.156-7.938-17.045-17.465v-8.647
		c0.081-9.515-7.53-17.314-17.045-17.465h-11.335c-7.918-0.083-14.28-6.55-14.232-14.469V78.024
		c0.074-9.499-7.546-17.269-17.045-17.38h-12.783c-5.289-0.063-10.244-2.599-13.39-6.851c-3.146-4.253-4.12-9.732-2.632-14.809
		l0.171-0.599c1.827-7.396-1.301-15.13-7.756-19.177l2.301-2.14h23.607c13.637,0.06,26.681,5.579,36.22,15.325l3.068,3.168
		c4.748,4.874,11.263,7.622,18.067,7.62h5.369c15.818,0.148,29.497,11.064,33.152,26.455l0.681,2.911
		c0.753,3.206,3.611,5.473,6.903,5.479h0.085c11.817,0.144,22.03,8.288,24.8,19.777l2.812,11.643c0.48,2.167,1.924,3.996,3.92,4.966
		v0.085C414.878,118.931,420.332,127.81,420.381,137.525L420.381,137.525z"/>
	<path style="fill:#FFA800;" d="M452.266,170.667v176.896c0.016,4.518-0.355,9.028-1.109,13.483
		c-3.348,18.539-13.03,35.339-27.392,47.531l-64.512,56.661c-28.05,24.652-64.118,38.242-101.461,38.229h-3.584
		c-37.343,0.013-73.412-13.577-101.461-38.229l-64.512-56.661c-14.361-12.192-24.044-28.992-27.392-47.531
		c-0.754-4.454-1.125-8.965-1.109-13.483V247.382l38.571-96.427c3.682-9.317,10.11-17.293,18.432-22.869
		c8.311-5.631,18.122-8.633,28.16-8.619H290.73c5.076,0.008,9.893-2.244,13.141-6.144l3.413-4.096l5.717-6.827h11.349
		c9.414,0.028,17.039,7.652,17.067,17.067v8.533c-0.001,4.527,1.797,8.868,4.997,12.069c3.201,3.201,7.543,4.999,12.069,4.997
		h50.603c0.631-0.028,1.262,0.03,1.877,0.171c5.004,0.501,9.517,3.228,12.288,7.424l6.912,10.411
		c3.034,4.559,8.094,7.359,13.568,7.509c0.22,0.07,0.452,0.099,0.683,0.085H452.266z"/>
	<path style="fill:#FFFFFF;" d="M256,501.59c-4.267,0.683-8.533,1.109-12.8,1.451c-33.464-2.411-65.225-15.684-90.453-37.803
		l-64.512-56.661c-14.361-12.192-24.044-28.992-27.392-47.531c-0.754-4.454-1.125-8.965-1.109-13.483V247.382l38.571-96.427
		c3.682-9.317,10.11-17.293,18.432-22.869c8.311-5.631,18.122-8.633,28.16-8.619h25.6c-10.038-0.015-19.849,2.988-28.16,8.619
		c-8.322,5.577-14.751,13.553-18.432,22.869l-38.571,96.427v100.181c-0.016,4.518,0.355,9.028,1.109,13.483
		c3.348,18.539,13.031,35.339,27.392,47.531l64.512,56.661C200.277,484.447,227.201,497.051,256,501.59z"/>
	<path style="fill:#FEDD0A;" d="M426.666,157.782v189.781c0.016,4.518-0.355,9.028-1.109,13.483
		c-3.348,18.539-13.031,35.339-27.392,47.531l-64.512,56.661c-21.931,19.209-48.855,31.813-77.653,36.352
		c-28.799-4.539-55.722-17.143-77.653-36.352l-64.512-56.661c-14.361-12.192-24.044-28.992-27.392-47.531
		c-0.754-4.454-1.125-8.965-1.109-13.483V247.382l38.571-96.427c3.682-9.317,10.11-17.293,18.432-22.869
		c8.311-5.631,18.122-8.633,28.16-8.619H290.73c5.076,0.008,9.893-2.244,13.141-6.144l3.413-4.096l2.389-2.816l3.328-4.011h11.349
		c3.983,0.021,7.838,1.407,10.923,3.925v0.085c3.894,3.217,6.147,8.005,6.144,13.056v8.533c-0.001,4.527,1.797,8.868,4.997,12.069
		c3.201,3.201,7.543,4.999,12.069,4.997h50.603c0.631-0.028,1.262,0.03,1.877,0.171c4.017,0.395,7.751,2.247,10.496,5.205
		c0.668,0.679,1.269,1.422,1.792,2.219L426.666,157.782z"/>
	<path style="fill:#FFFFFF;" d="M59.733,247.467v76.8H38.144c-8.797,0.323-16.577-5.664-18.517-14.251L8.96,251.649
		c-1.022-7.805,1.491-15.659,6.856-21.419c5.364-5.761,13.02-8.827,20.877-8.362h5.973"/>
	<path style="fill:#FFA800;" d="M452.266,221.867h23.04c7.858-0.465,15.513,2.601,20.877,8.362
		c5.364,5.761,7.878,13.614,6.856,21.419l-10.667,58.368c-1.941,8.586-9.72,14.573-18.517,14.251h-21.589V221.867z"/>
	<path style="fill:#FFFFFF;" d="M196.266,8.534c-70.653,0.016-127.937,57.262-128,127.915v89.6l-8.533,21.333
		c-4.528,0.024-8.871-1.793-12.032-5.035c-2.719-2.636-4.439-6.135-4.864-9.899c-0.103-0.707-0.16-1.419-0.171-2.133v-93.867
		c0.063-70.653,57.347-127.899,128-127.915H196.266z"/>
	<path style="fill:#FEDD0A;" d="M290.133,119.467H144.896c-10.038-0.015-19.849,2.988-28.16,8.619
		c-8.322,5.577-14.75,13.553-18.432,22.869l-30.037,75.093v-89.6c0.063-70.653,57.347-127.899,128-127.915h8.448l17.664,10.581
		c6.424,3.879,9.572,11.49,7.765,18.773l-0.171,0.597c-1.292,5.104-0.155,10.519,3.081,14.672c3.236,4.153,8.208,6.58,13.473,6.576
		h12.288c9.414,0.028,17.039,7.652,17.067,17.067V88.15c0.682,9.746,3.665,19.192,8.704,27.563v0.085
		C285.8,117.783,287.831,119.127,290.133,119.467z"/>
	<g>
		<path d="M65.508,255.917h-5.775c-14.111-0.066-25.534-11.489-25.6-25.6v-25.521c0-4.713,3.821-8.533,8.533-8.533
			s8.533,3.821,8.533,8.533v25.521c-0.024,2.222,0.861,4.358,2.45,5.912c0.31,0.321,0.644,0.618,1,0.887l35.725-89.333
			c4.308-10.91,11.837-20.249,21.583-26.775c9.722-6.585,21.199-10.095,32.942-10.075c4.713,0,8.533,3.821,8.533,8.533
			c0,4.713-3.821,8.533-8.533,8.533c-8.335-0.018-16.483,2.474-23.383,7.15c-6.898,4.607-12.227,11.21-15.275,18.925L65.508,255.917
			z"/>
		<path d="M42.666,144.984c-2.263,0.001-4.434-0.898-6.035-2.499c-1.6-1.6-2.499-3.771-2.499-6.035
			C34.242,61.104,95.32,0.064,170.666,0.001h56.917c4.713,0,8.533,3.821,8.533,8.533s-3.821,8.533-8.533,8.533h-56.917
			C104.74,17.118,51.296,70.525,51.2,136.451c0.001,2.263-0.898,4.434-2.499,6.035S44.93,144.985,42.666,144.984z"/>
		<path d="M42.666,179.201c-2.262-0.016-4.432-0.902-6.059-2.475c-3.3-3.365-3.3-8.752,0-12.117l1.275-1.025
			c0.477-0.324,0.996-0.583,1.542-0.771c0.483-0.246,1-0.417,1.534-0.509c3.198-0.671,6.498,0.542,8.501,3.124
			c2.003,2.582,2.356,6.08,0.911,9.011C48.924,177.369,45.934,179.218,42.666,179.201z"/>
		<path d="M257.792,512.001h-3.584c-39.414,0.008-77.482-14.336-107.092-40.35L82.6,414.988
			c-15.85-13.518-26.52-32.115-30.192-52.621c-0.819-4.892-1.223-9.844-1.208-14.804V247.467h17.067v100.096
			c-0.013,4.03,0.316,8.055,0.983,12.029c3.033,16.623,11.743,31.677,24.642,42.592l64.492,56.642
			c26.492,23.281,60.557,36.117,95.825,36.108h3.584c35.268,0.008,69.333-12.828,95.825-36.108l64.516-56.662
			c12.857-10.878,21.547-25.874,24.592-42.437c0.683-4.018,1.02-8.087,1.008-12.162V247.467H460.8v100.096
			c0.013,5.005-0.399,10.002-1.233,14.938c-3.682,20.447-14.333,38.986-30.142,52.467l-64.542,56.683
			C335.274,497.665,297.205,512.009,257.792,512.001L257.792,512.001z"/>
		<path d="M59.733,332.801H38.141c-12.951,0.374-24.301-8.606-26.917-21.296L0.566,253.184c-1.718-9.488,0.885-19.248,7.1-26.621
			c7.221-8.514,17.862-13.364,29.025-13.229h5.975c4.713,0,8.533,3.821,8.533,8.533c0,4.713-3.821,8.533-8.533,8.533h-5.975
			c-6.091-0.124-11.921,2.469-15.908,7.075c-2.992,3.471-4.254,8.108-3.433,12.617l10.667,58.392
			c1.23,4.511,5.458,7.539,10.125,7.25H51.2v-68.267c0-4.713,3.821-8.533,8.533-8.533s8.533,3.821,8.533,8.533v76.8
			c0.001,2.263-0.898,4.434-2.499,6.035C64.167,331.902,61.996,332.801,59.733,332.801L59.733,332.801z"/>
	</g>
	<g>
		<path id="SVGCleanerId_0_1_" style="fill:#FFA800;" d="M443.733,137.525l-0.256,36.214c-5.509-0.185-10.575-3.066-13.551-7.706
			l-6.903-10.616c-0.746-1.186-1.665-2.254-2.727-3.168c-2.607-2.477-5.966-4.013-9.545-4.366c-0.614-0.141-1.245-0.199-1.875-0.171
			h-50.537c-9.528-0.121-17.156-7.938-17.045-17.465v-8.647c0.081-9.515-7.53-17.314-17.045-17.465h-11.335
			c-7.918-0.083-14.28-6.55-14.232-14.469V78.024c0.074-9.499-7.546-17.269-17.045-17.38h-12.783
			c-5.289-0.063-10.244-2.599-13.39-6.851c-3.146-4.253-4.12-9.732-2.632-14.809l0.171-0.599c1.827-7.396-1.301-15.13-7.756-19.177
			l2.301-2.14h46.958c13.637,0.06,26.681,5.579,36.22,15.325l3.068,3.168c4.748,4.874,11.263,7.622,18.067,7.62h5.369
			c15.818,0.148,29.497,11.064,33.152,26.455l0.681,2.911c0.753,3.206,3.611,5.473,6.903,5.479h0.085
			c11.817,0.144,22.03,8.288,24.8,19.777l2.812,11.643c0.48,2.167,1.924,3.996,3.92,4.966v0.085
			C438.229,118.931,443.683,127.81,443.733,137.525L443.733,137.525z"/>
	</g>
	<g>
		<path id="SVGCleanerId_1_1_" style="fill:#FEDD0A;" d="M420.381,137.525l-0.085,14.725c-2.607-2.477-5.966-4.013-9.545-4.366
			c-0.614-0.141-1.245-0.199-1.875-0.171h-50.537c-9.528-0.121-17.156-7.938-17.045-17.465v-8.647
			c0.081-9.515-7.53-17.314-17.045-17.465h-11.335c-7.918-0.083-14.28-6.55-14.232-14.469V78.024
			c0.074-9.499-7.546-17.269-17.045-17.38h-12.783c-5.289-0.063-10.244-2.599-13.39-6.851c-3.146-4.253-4.12-9.732-2.632-14.809
			l0.171-0.599c1.827-7.396-1.301-15.13-7.756-19.177l2.301-2.14h23.607c13.637,0.06,26.681,5.579,36.22,15.325l3.068,3.168
			c4.748,4.874,11.263,7.622,18.067,7.62h5.369c15.818,0.148,29.497,11.064,33.152,26.455l0.681,2.911
			c0.753,3.206,3.611,5.473,6.903,5.479h0.085c11.817,0.144,22.03,8.288,24.8,19.777l2.812,11.643
			c0.48,2.167,1.924,3.996,3.92,4.966v0.085C414.878,118.931,420.332,127.81,420.381,137.525L420.381,137.525z"/>
	</g>
	<g>
		<path style="fill:#FFA800;" d="M341.333,366.934v17.067c0,9.426-7.641,17.067-17.067,17.067h-8.533
			c-9.426,0-17.067-7.641-17.067-17.067l0,0c0,9.426-7.641,17.067-17.067,17.067h-8.533c-9.426,0-17.067-7.641-17.067-17.067l0,0
			c0,9.426-7.641,17.067-17.067,17.067H230.4c-9.426,0-17.067-7.641-17.067-17.067l0,0c0,9.426-7.641,17.067-17.067,17.067h-8.533
			c-9.426,0-17.067-7.641-17.067-17.067l0,0c0,9.426-7.641,17.067-17.067,17.067h-8.533c-9.426,0-17.067-7.641-17.067-17.067
			v-17.067H341.333z"/>
		<path style="fill:#FFA800;" d="M238.933,401.067H230.4c-9.426,0-17.067,7.641-17.067,17.067v17.067
			c0,9.426,7.641,17.067,17.067,17.067h8.533c9.426,0,17.067-7.641,17.067-17.067v-17.067
			C256,408.708,248.359,401.067,238.933,401.067H230.4"/>
		<path style="fill:#FFA800;" d="M281.6,401.067h-8.533c-9.426,0-17.067,7.641-17.067,17.067v17.067
			c0,9.426,7.641,17.067,17.067,17.067h8.533c9.426,0,17.067-7.641,17.067-17.067v-17.067
			C298.666,408.708,291.025,401.067,281.6,401.067h-8.533"/>
		<path style="fill:#FFA800;" d="M196.266,401.067h-8.533c-9.426,0-17.067,7.641-17.067,17.067v8.533
			c0,9.426,7.641,17.067,17.067,17.067h8.533c9.426,0,17.067-7.641,17.067-17.067v-8.533
			C213.333,408.708,205.692,401.067,196.266,401.067h-8.533"/>
		<path style="fill:#FFA800;" d="M324.266,401.067h-8.533c-9.426,0-17.067,7.641-17.067,17.067v8.533
			c0,9.426,7.641,17.067,17.067,17.067h8.533c9.426,0,17.067-7.641,17.067-17.067v-8.533
			C341.333,408.708,333.692,401.067,324.266,401.067h-8.533"/>
	</g>
	<g>
		<path d="M153.6,409.601h-8.533c-4.713,0-8.533-3.82-8.533-8.533s3.821-8.533,8.533-8.533h8.533
			c4.711-0.005,8.529-3.822,8.533-8.533v-17.067c0-4.713,3.82-8.533,8.533-8.533s8.533,3.82,8.533,8.533v17.067
			C179.184,398.133,167.732,409.585,153.6,409.601z"/>
		<path d="M196.266,409.601h-8.533c-14.132-0.015-25.585-11.468-25.6-25.6v-17.067c0-4.713,3.82-8.533,8.533-8.533
			s8.533,3.82,8.533,8.533v17.067c0.005,4.711,3.822,8.529,8.533,8.533h8.533c4.713,0,8.533,3.82,8.533,8.533
			S200.979,409.601,196.266,409.601z"/>
		<path d="M153.6,409.601h-8.533c-14.132-0.015-25.585-11.468-25.6-25.6v-17.067c0-4.713,3.821-8.533,8.533-8.533
			c4.713,0,8.533,3.82,8.533,8.533v17.067c0.005,4.711,3.822,8.529,8.533,8.533h8.533c4.713,0,8.533,3.82,8.533,8.533
			S158.312,409.601,153.6,409.601z"/>
		<path d="M196.266,409.601h-8.533c-4.713,0-8.533-3.82-8.533-8.533s3.821-8.533,8.533-8.533h8.533
			c4.711-0.005,8.529-3.822,8.533-8.533v-17.067c0-4.713,3.821-8.533,8.533-8.533s8.533,3.82,8.533,8.533v17.067
			C221.851,398.133,210.398,409.585,196.266,409.601L196.266,409.601z"/>
		<path d="M238.933,409.601H230.4c-14.132-0.015-25.585-11.468-25.6-25.6v-17.067c0-4.713,3.821-8.533,8.533-8.533
			s8.533,3.82,8.533,8.533v17.067c0.005,4.711,3.822,8.529,8.533,8.533h8.533c4.713,0,8.533,3.82,8.533,8.533
			S243.646,409.601,238.933,409.601z"/>
		<path d="M238.933,460.801H230.4c-14.132-0.015-25.585-11.468-25.6-25.6v-17.067c0.015-14.126,11.457-25.576,25.583-25.6h8.567
			c14.126,0.024,25.568,11.474,25.583,25.6v17.067C264.517,449.333,253.065,460.785,238.933,460.801z M230.4,409.601
			c-4.711,0.005-8.529,3.822-8.533,8.533v17.067c0.005,4.711,3.822,8.529,8.533,8.533h8.533c4.711-0.005,8.529-3.822,8.533-8.533
			v-17.067c-0.005-4.711-3.822-8.529-8.533-8.533H230.4z"/>
		<path d="M281.6,460.801h-8.533c-14.132-0.015-25.585-11.468-25.6-25.6v-17.067c0.015-14.126,11.457-25.576,25.583-25.6h8.567
			c14.126,0.024,25.568,11.474,25.583,25.6v17.067C307.184,449.333,295.732,460.785,281.6,460.801z M273.066,409.601
			c-4.711,0.005-8.529,3.822-8.533,8.533v17.067c0.005,4.711,3.822,8.529,8.533,8.533h8.533c4.711-0.005,8.529-3.822,8.533-8.533
			v-17.067c-0.005-4.711-3.822-8.529-8.533-8.533H273.066z"/>
		<path d="M196.266,452.267h-8.533c-14.132-0.015-25.585-11.468-25.6-25.6v-8.533c0.015-14.126,11.457-25.576,25.583-25.6h8.567
			c14.126,0.024,25.568,11.474,25.583,25.6v8.533C221.851,440.799,210.398,452.252,196.266,452.267L196.266,452.267z
			 M187.733,409.601c-4.711,0.005-8.529,3.822-8.533,8.533v8.533c0.005,4.711,3.822,8.529,8.533,8.533h8.533
			c4.711-0.005,8.529-3.822,8.533-8.533v-8.533c-0.005-4.711-3.822-8.529-8.533-8.533H187.733z"/>
		<path d="M238.933,409.601H230.4c-4.713,0-8.533-3.82-8.533-8.533s3.82-8.533,8.533-8.533h8.533
			c4.711-0.005,8.529-3.822,8.533-8.533v-17.067c0-4.713,3.821-8.533,8.533-8.533s8.533,3.82,8.533,8.533v17.067
			C264.517,398.133,253.065,409.585,238.933,409.601z"/>
		<path d="M281.6,409.601h-8.533c-14.132-0.015-25.585-11.468-25.6-25.6v-17.067c0-4.713,3.821-8.533,8.533-8.533
			s8.533,3.82,8.533,8.533v17.067c0.005,4.711,3.822,8.529,8.533,8.533h8.533c4.713,0,8.533,3.82,8.533,8.533
			S286.312,409.601,281.6,409.601z"/>
		<path d="M281.6,409.601h-8.533c-4.713,0-8.533-3.82-8.533-8.533s3.821-8.533,8.533-8.533h8.533
			c4.711-0.005,8.529-3.822,8.533-8.533v-17.067c0-4.713,3.82-8.533,8.533-8.533s8.533,3.82,8.533,8.533v17.067
			C307.184,398.133,295.732,409.585,281.6,409.601z"/>
		<path d="M324.266,452.267h-8.533c-14.132-0.015-25.585-11.468-25.6-25.6v-8.533c0.015-14.126,11.457-25.576,25.583-25.6h8.567
			c14.126,0.024,25.568,11.474,25.583,25.6v8.533C349.851,440.799,338.398,452.252,324.266,452.267z M315.733,409.601
			c-4.711,0.005-8.529,3.822-8.533,8.533v8.533c0.005,4.711,3.822,8.529,8.533,8.533h8.533c4.711-0.005,8.529-3.822,8.533-8.533
			v-8.533c-0.005-4.711-3.822-8.529-8.533-8.533H315.733z"/>
		<path d="M324.266,409.601h-8.533c-14.132-0.015-25.585-11.468-25.6-25.6v-17.067c0-4.713,3.82-8.533,8.533-8.533
			s8.533,3.82,8.533,8.533v17.067c0.005,4.711,3.822,8.529,8.533,8.533h8.533c4.713,0,8.533,3.82,8.533,8.533
			S328.979,409.601,324.266,409.601z"/>
		<path d="M324.266,409.601h-8.533c-4.713,0-8.533-3.82-8.533-8.533s3.82-8.533,8.533-8.533h8.533
			c4.711-0.005,8.529-3.822,8.533-8.533v-17.067c0-4.713,3.821-8.533,8.533-8.533s8.533,3.82,8.533,8.533v17.067
			C349.851,398.133,338.398,409.585,324.266,409.601z"/>
		<path d="M274.966,341.334c-3.607-0.131-7.159-0.919-10.483-2.325l-1.267-0.458c-3.377-1.175-7.001-1.452-10.517-0.804
			c-1.503,0.324-2.982,0.753-4.425,1.283c-3.591,1.394-7.392,2.173-11.242,2.304c-8.38-0.886-16.096-4.969-21.542-11.4
			c-2.037-2.276-2.701-5.467-1.742-8.366c0.959-2.9,3.395-5.065,6.387-5.678c2.992-0.613,6.083,0.421,8.104,2.711
			c2.296,2.728,5.359,4.702,8.792,5.667c2-0.189,3.963-0.667,5.825-1.421c2.208-0.79,4.469-1.42,6.767-1.888
			c6.446-1.182,13.089-0.665,19.275,1.5l1.458,0.529c1.467,0.644,3.019,1.075,4.608,1.279c3.428-0.973,6.489-2.946,8.792-5.667
			c2.023-2.285,5.112-3.315,8.101-2.702c2.989,0.613,5.423,2.777,6.383,5.673s0.298,6.085-1.734,8.362
			C291.062,336.365,283.346,340.448,274.966,341.334L274.966,341.334z"/>
		<path d="M409.6,426.667h-34.133c-23.553-0.028-42.639-19.114-42.667-42.667v-8.533H68.266c-4.713,0-8.533-3.82-8.533-8.533
			s3.821-8.533,8.533-8.533h273.067c2.263-0.001,4.434,0.898,6.035,2.499c1.6,1.6,2.499,3.771,2.499,6.035v17.067
			c0.015,14.132,11.468,25.585,25.6,25.6H409.6c4.713,0,8.533,3.821,8.533,8.533C418.133,422.847,414.312,426.667,409.6,426.667
			L409.6,426.667z"/>
		<path d="M473.858,332.801h-21.592c-2.263,0.001-4.434-0.898-6.035-2.499c-1.6-1.6-2.499-3.771-2.499-6.035V179.192
			c-8.299-0.231-15.978-4.449-20.625-11.329l-6.967-10.475c-1.362-2.07-3.585-3.416-6.05-3.663
			c-0.275-0.029-0.542-0.067-0.808-0.121l-50.8-0.004c-14.132-0.015-25.585-11.468-25.6-25.6v-8.533
			c-0.005-4.711-3.822-8.529-8.533-8.533H313c-12.578-0.013-22.77-10.206-22.783-22.783v-11.35
			c-0.005-4.711-3.822-8.529-8.533-8.533H269.4c-7.898,0.007-15.356-3.633-20.21-9.863c-4.854-6.23-6.56-14.352-4.623-22.008
			c0.025-0.104,0.233-0.808,0.267-0.912c0.759-3.558-0.842-7.202-3.975-9.05L223.2,15.855c-4.043-2.421-5.358-7.661-2.938-11.704
			s7.661-5.358,11.704-2.938l17.667,10.583c9.664,5.774,14.407,17.196,11.675,28.117c-0.033,0.125-0.242,0.85-0.275,0.975
			c-0.55,2.463,0.044,5.043,1.617,7.017c1.615,2.089,4.11,3.307,6.75,3.296h12.283c14.132,0.015,25.585,11.468,25.6,25.6v11.35
			c0.004,3.156,2.561,5.713,5.717,5.717h11.35c14.132,0.015,25.585,11.468,25.6,25.6v8.533c0.005,4.711,3.822,8.529,8.533,8.533
			h50.608c1.118-0.023,2.235,0.072,3.333,0.283c7.326,0.91,13.886,4.983,17.95,11.146l6.9,10.383
			c1.595,2.38,4.277,3.802,7.142,3.788h7.85c2.263-0.001,4.434,0.898,6.035,2.499c1.6,1.6,2.499,3.771,2.499,6.035v42.667h14.508
			c11.163-0.135,21.804,4.715,29.025,13.229c6.218,7.381,8.821,17.15,7.1,26.646l-10.667,58.342
			C498.135,324.221,486.793,333.179,473.858,332.801z M460.8,315.734h13.058c4.651,0.291,8.871-2.714,10.117-7.204l10.675-58.412
			c0.824-4.516-0.438-9.163-3.433-12.642c-3.987-4.606-9.818-7.199-15.909-7.075H460.8V315.734z M408.633,153.447l0.009,0.004
			L408.633,153.447z"/>
		<path d="M443.733,179.201h-0.058c-2.263-0.015-4.428-0.929-6.018-2.54c-1.59-1.611-2.474-3.788-2.457-6.052l0.25-35.588
			c-0.104-6.343-3.745-12.096-9.433-14.904c-4.204-2.093-7.275-5.928-8.4-10.487l-2.842-11.366
			c-1.896-7.604-8.73-12.938-16.567-12.929c-7.209,0.012-13.498-4.892-15.242-11.888l-0.717-2.867
			c-2.841-11.398-13.086-19.393-24.833-19.379H352c-9.048-0.025-17.72-3.618-24.133-10l-3.108-3.108
			c-7.985-8.024-18.847-12.521-30.167-12.492h-47.058c-4.713,0-8.533-3.821-8.533-8.533s3.82-8.533,8.533-8.533h47.058
			c15.851-0.041,31.06,6.257,42.242,17.492l3.108,3.113c3.204,3.189,7.538,4.985,12.058,4.996h5.417
			c19.586-0.023,36.664,13.31,41.392,32.317l0.458,1.833c15.269,0.454,28.371,11.013,32.058,25.837l2.742,10.942
			c11.23,5.773,18.334,17.295,18.45,29.921l-0.25,35.742C452.233,175.415,448.423,179.2,443.733,179.201z"/>
		<path d="M324.333,76.801c-4.713,0-8.533-3.82-8.533-8.533c0-4.713,3.821-8.533,8.533-8.533c4.711-0.005,8.529-3.822,8.533-8.533
			v-8.533c0-4.713,3.82-8.533,8.533-8.533s8.533,3.821,8.533,8.533v8.533C349.917,65.333,338.465,76.785,324.333,76.801z"/>
		<path d="M375.533,119.467c-4.713,0-8.533-3.821-8.533-8.533c0-4.713,3.82-8.533,8.533-8.533c4.711-0.005,8.529-3.822,8.533-8.533
			V76.801c0-4.713,3.82-8.533,8.533-8.533s8.533,3.821,8.533,8.533v17.067C401.117,107.999,389.665,119.452,375.533,119.467
			L375.533,119.467z"/>
	</g>
	<g>
		<path style="fill:#34A9F7;" d="M221.866,234.667c0,14.711-5.843,28.819-16.245,39.221c-10.402,10.402-24.511,16.246-39.221,16.245
			c-4.314,0.015-8.612-0.501-12.8-1.536c-25.014-5.898-42.683-28.231-42.667-53.931c-0.195-3.462,0.358-6.925,1.621-10.155
			c4.864-11.008,20.821,0.341,41.045,4.523c4.208,0.894,8.498,1.352,12.8,1.365c9.68-0.352,19.231-2.343,28.245-5.888
			C210.944,219.137,221.866,214.358,221.866,234.667z"/>
		<circle style="fill:#34A9F7;" cx="354.133" cy="243.201" r="55.467"/>
	</g>
	<g>
		<path style="fill:#55C9FC;" d="M196.266,234.667c0.016,25.7-17.653,48.033-42.667,53.931
			c-25.014-5.898-42.683-28.231-42.667-53.931c-0.195-3.462,0.358-6.925,1.621-10.155c9.015,3.545,18.565,5.536,28.245,5.888
			c4.302-0.014,8.592-0.471,12.8-1.365c4.208,0.894,8.498,1.352,12.8,1.365c9.68-0.352,19.231-2.343,28.245-5.888
			C195.908,227.742,196.461,231.205,196.266,234.667L196.266,234.667z"/>
		<ellipse style="fill:#55C9FC;" cx="341.333" cy="243.201" rx="42.667" ry="55.467"/>
	</g>
	<g>
		<path d="M166.4,298.667c-35.33-0.039-63.961-28.67-64-64c-0.844-7.633,2.019-15.208,7.7-20.375
			c7.825-5.588,17.4-2.321,28.492,1.458c8.872,3.549,18.266,5.615,27.808,6.117c9.542-0.502,18.937-2.568,27.808-6.117
			c11.1-3.779,20.675-7.046,28.492-1.458c5.681,5.167,8.544,12.742,7.7,20.375C230.361,269.998,201.73,298.629,166.4,298.667z
			 M120.166,228.359c-0.56,2.054-0.796,4.182-0.7,6.308c0,25.921,21.013,46.933,46.933,46.933s46.933-21.013,46.933-46.933
			c0.096-2.126-0.14-4.255-0.7-6.308h-0.009c-4.416,0.71-8.741,1.897-12.9,3.541c-10.637,4.191-21.902,6.569-33.325,7.034
			c-11.423-0.465-22.688-2.842-33.325-7.033c-4.159-1.644-8.485-2.831-12.9-3.541L120.166,228.359z"/>
		<path d="M354.133,307.201c-35.346,0-64-28.654-64-64s28.654-64,64-64s64,28.654,64,64
			C418.094,278.531,389.463,307.162,354.133,307.201L354.133,307.201z M354.133,196.267c-18.983,0-36.096,11.435-43.361,28.973
			c-7.264,17.538-3.249,37.725,10.174,51.148s33.61,17.438,51.148,10.174c17.538-7.264,28.973-24.378,28.973-43.361
			C401.035,217.293,380.041,196.298,354.133,196.267L354.133,196.267z"/>
		<path d="M290.708,128.001H144.9c-4.713,0-8.533-3.821-8.533-8.533c0-4.713,3.82-8.533,8.533-8.533h145.808
			c2.546,0.006,4.962-1.123,6.592-3.079l9.133-10.929c3.024-3.617,8.408-4.099,12.025-1.075s4.099,8.408,1.075,12.025l-9.133,10.925
			C305.528,124.64,298.312,128.011,290.708,128.001z"/>
		<path d="M221.866,290.134c-2.263,0.001-4.434-0.898-6.035-2.499c-1.6-1.6-2.499-3.771-2.499-6.035v-51.2
			c0-4.713,3.821-8.533,8.533-8.533c4.713,0,8.533,3.821,8.533,8.533v51.2c0.001,2.263-0.898,4.434-2.499,6.035
			C226.3,289.236,224.13,290.135,221.866,290.134L221.866,290.134z"/>
		<path d="M136.533,315.734c-2.263,0.001-4.434-0.898-6.035-2.499c-1.6-1.6-2.499-3.771-2.499-6.035v-25.6
			c0-4.713,3.821-8.533,8.533-8.533s8.533,3.82,8.533,8.533v25.6c0.001,2.263-0.898,4.434-2.499,6.035
			C140.967,314.836,138.796,315.735,136.533,315.734L136.533,315.734z"/>
		<path d="M110.933,288.117c-2.263,0.001-4.434-0.898-6.035-2.499c-1.6-1.6-2.499-3.771-2.499-6.035v-42.667
			c0-4.713,3.821-8.533,8.533-8.533c4.713,0,8.533,3.821,8.533,8.533v42.667c0.001,2.263-0.898,4.434-2.499,6.035
			C115.367,287.219,113.196,288.118,110.933,288.117z"/>
		<path d="M298.666,298.667c-2.263,0.001-4.434-0.898-6.035-2.499c-1.6-1.6-2.499-3.771-2.499-6.035v-51.2
			c0-4.713,3.82-8.533,8.533-8.533s8.533,3.821,8.533,8.533v51.2c0.001,2.263-0.898,4.434-2.499,6.035
			S300.93,298.668,298.666,298.667z"/>
		<path d="M332.8,324.267c-2.263,0.001-4.434-0.898-6.035-2.499c-1.6-1.6-2.499-3.771-2.499-6.035v-17.067
			c0-4.713,3.821-8.533,8.533-8.533c4.713,0,8.533,3.821,8.533,8.533v17.067c0.001,2.263-0.898,4.434-2.499,6.035
			C337.234,323.369,335.063,324.268,332.8,324.267z"/>
		<path d="M298.733,179.201c-2.263,0.001-4.434-0.898-6.035-2.499c-1.6-1.6-2.499-3.771-2.499-6.035v-51.2
			c0-4.713,3.82-8.533,8.533-8.533s8.533,3.821,8.533,8.533v51.2c0.001,2.263-0.898,4.434-2.499,6.035
			C303.167,178.302,300.996,179.201,298.733,179.201L298.733,179.201z"/>
		<path d="M264.6,153.601c-2.263,0.001-4.434-0.898-6.035-2.499c-1.6-1.6-2.499-3.771-2.499-6.035v-25.6
			c0-4.713,3.82-8.533,8.533-8.533s8.533,3.821,8.533,8.533v25.6c0.001,2.263-0.898,4.434-2.499,6.035
			C269.034,152.702,266.863,153.601,264.6,153.601L264.6,153.601z"/>
	</g>
</g>
<g>
</g>
<g>
</g>
<g>
</g>
<g>
</g>
<g>
</g>
<g>
</g>
<g>
</g>
<g>
</g>
<g>
</g>
<g>
</g>
<g>
</g>
<g>
</g>
<g>
</g>
<g>
</g>
<g>
</g>
</svg>
