<?xml version="1.0" encoding="iso-8859-1"?>
<!-- Generator: Adobe Illustrator 19.0.0, SVG Export Plug-In . SVG Version: 6.00 Build 0)  -->
<svg version="1.1" id="Capa_1" xmlns="http://www.w3.org/2000/svg" xmlns:xlink="http://www.w3.org/1999/xlink" x="0px" y="0px"
	 viewBox="0 0 512 512" style="enable-background:new 0 0 512 512;" xml:space="preserve">
<g>
	<path style="fill:#FFA800;" d="M452.267,247.381v100.181c0.016,4.518-0.355,9.028-1.109,13.483
		c-3.348,18.539-13.031,35.339-27.392,47.531l-64.512,56.661c-28.05,24.652-64.118,38.242-101.461,38.229h-3.584
		c-37.343,0.013-73.412-13.577-101.461-38.229l-64.512-56.661c-14.361-12.192-24.044-28.992-27.392-47.531
		c-0.754-4.454-1.125-8.965-1.109-13.483V247.381l38.571-96.427c3.682-9.317,10.11-17.293,18.432-22.869
		c8.311-5.631,18.122-8.633,28.16-8.619c11.143,0.019,21.969,3.708,30.805,10.496l49.749,38.656
		c17.962,13.994,43.136,13.994,61.099,0l49.749-38.656c8.836-6.788,19.663-10.477,30.805-10.496
		c10.038-0.015,19.849,2.988,28.16,8.619c8.322,5.577,14.75,13.553,18.432,22.869L452.267,247.381z"/>
	<path style="fill:#FFFFFF;" d="M59.734,247.467v76.8H38.144c-8.797,0.323-16.577-5.664-18.517-14.251L8.96,251.648
		c-1.022-7.805,1.491-15.659,6.856-21.419s13.02-8.827,20.877-8.362h5.973"/>
	<g>
		<path style="fill:#FFA800;" d="M469.334,221.867h5.973c7.858-0.465,15.513,2.601,20.877,8.362
			c5.364,5.761,7.878,13.614,6.856,21.419l-10.667,58.368c-1.941,8.586-9.72,14.573-18.517,14.251h-21.589v-76.8"/>
		<path style="fill:#FFA800;" d="M469.334,136.488v93.833c0.031,4.508-1.746,8.84-4.934,12.027
			c-3.071,3.228-7.336,5.049-11.791,5.033l-37.799-96.393c-3.594-9.281-9.886-17.273-18.063-22.946
			c-17.583-12.176-41.07-11.379-57.786,1.962l-48.754,38.642c-17.507,13.99-42.37,13.99-59.877,0l-48.754-38.642
			c-16.716-13.34-40.204-14.138-57.786-1.962c-8.177,5.673-14.469,13.665-18.063,22.946l-37.8,96.393
			c-4.455,0.016-8.72-1.805-11.791-5.033c-3.188-3.187-4.965-7.52-4.934-12.027v-93.833C50.538,66.528,106.681,9.26,176.64,8.533
			h167.253C413.853,9.26,469.996,66.528,469.334,136.488z"/>
	</g>
	<path style="fill:#FFFFFF;" d="M196.267,8.533c-70.653,0.016-127.937,57.262-128,127.915v89.6l-8.533,21.333
		c-9.397-0.068-16.999-7.669-17.067-17.067v-93.867c0.063-70.653,57.347-127.899,128-127.915H196.267z"/>
	<path style="fill:#FEDD0A;" d="M443.734,136.448v89.6l-30.037-75.093c-3.682-9.317-10.11-17.293-18.432-22.869
		c-4.651-3.174-9.82-5.514-15.275-6.912h-0.085c-8.382-2.276-17.218-2.276-25.6,0c-6.534,1.682-12.66,4.672-18.005,8.789
		l-49.749,38.656c-5.242,4.079-11.249,7.068-17.664,8.789H268.8c-8.382,2.276-17.218,2.276-25.6,0
		c-6.469-1.649-12.517-4.644-17.749-8.789l-49.749-38.656c-5.335-4.083-11.425-7.071-17.92-8.789h-0.085
		c-8.382-2.276-17.218-2.276-25.6,0c-5.481,1.398-10.679,3.737-15.36,6.912c-8.322,5.577-14.75,13.553-18.432,22.869l-30.037,75.093
		v-89.6c0.063-70.653,57.347-127.899,128-127.915h119.467C386.386,8.549,443.671,65.795,443.734,136.448z"/>
	<path style="fill:#FFFFFF;" d="M256,501.589c-4.267,0.683-8.533,1.109-12.8,1.451c-33.464-2.411-65.225-15.684-90.453-37.803
		l-64.512-56.661c-14.361-12.192-24.044-28.992-27.392-47.531c-0.754-4.454-1.125-8.965-1.109-13.483V247.381l38.571-96.427
		c3.682-9.317,10.11-17.293,18.432-22.869c8.346-5.556,18.134-8.551,28.16-8.619c4.323,0.01,8.626,0.584,12.8,1.707
		c-5.481,1.398-10.679,3.737-15.36,6.912c-8.322,5.577-14.75,13.553-18.432,22.869l-38.571,96.427v100.181
		c-0.016,4.518,0.355,9.028,1.109,13.483c3.348,18.539,13.031,35.339,27.392,47.531l64.512,56.661
		C200.278,484.446,227.202,497.05,256,501.589z"/>
	<path style="fill:#FEDD0A;" d="M426.667,247.381v100.181c0.016,4.518-0.355,9.028-1.109,13.483
		c-3.348,18.539-13.031,35.339-27.392,47.531l-64.512,56.661c-21.931,19.209-48.855,31.813-77.653,36.352
		c-28.799-4.539-55.722-17.143-77.653-36.352l-64.512-56.661c-14.361-12.192-24.044-28.992-27.392-47.531
		c-0.754-4.454-1.125-8.965-1.109-13.483V247.381l38.571-96.427c3.682-9.317,10.11-17.293,18.432-22.869
		c4.681-3.175,9.879-5.514,15.36-6.912h0.085c6.495,1.719,12.585,4.706,17.92,8.789l49.749,38.656
		c5.232,4.146,11.281,7.141,17.749,8.789c8.382,2.276,17.218,2.276,25.6,0h0.085c6.415-1.722,12.422-4.71,17.664-8.789
		l49.749-38.656c5.346-4.117,11.471-7.108,18.005-8.789c4.506,1.117,8.82,2.9,12.8,5.291c0.853,0.512,1.707,1.024,2.56,1.621
		c8.322,5.577,14.75,13.553,18.432,22.869L426.667,247.381z"/>
	<g>
		<path d="M452.267,255.917h-5.775l-40.717-101.758c-3.076-7.755-8.418-14.403-15.329-19.075c-15.03-9.79-34.58-9.127-48.912,1.658
			l-49.75,38.642c-21.055,16.391-50.554,16.382-71.6-0.021l-49.717-38.621c-14.342-10.802-33.916-11.455-48.946-1.633
			c-6.884,4.656-12.206,11.277-15.275,19L65.509,255.917h-5.775c-14.109-0.066-25.532-11.486-25.6-25.596v-25.525
			c0-4.713,3.821-8.533,8.533-8.533s8.533,3.821,8.533,8.533v25.525c-0.022,2.222,0.863,4.357,2.45,5.912
			c0.312,0.319,0.646,0.616,1,0.887l35.733-89.304c4.321-10.9,11.827-20.245,21.538-26.817
			c21.176-13.888,48.793-12.981,69.012,2.267l49.75,38.642c14.999,11.219,35.592,11.227,50.6,0.021l49.783-38.662
			c20.212-15.227,47.801-16.143,68.979-2.292c9.738,6.588,17.263,15.96,21.592,26.892l35.72,89.271
			c2.095-1.654,3.355-4.148,3.442-6.817v-93.833c-0.086-65.936-53.53-119.36-119.467-119.421H170.667
			C104.731,17.128,51.287,70.551,51.2,136.488c0,4.713-3.821,8.533-8.533,8.533s-8.533-3.821-8.533-8.533
			C34.232,61.131,95.31,0.073,170.667,0h170.667c75.357,0.073,136.435,61.131,136.533,136.488v93.833
			C477.799,244.43,466.376,255.851,452.267,255.917L452.267,255.917z"/>
		<path d="M42.667,179.2c-3.45-0.014-6.556-2.096-7.879-5.282c-1.323-3.187-0.606-6.856,1.82-9.31
			c2.063-1.977,4.955-2.835,7.763-2.304c0.535,0.091,1.053,0.263,1.538,0.508c0.544,0.187,1.062,0.447,1.538,0.771
			c0.425,0.341,0.85,0.683,1.279,1.025c2.461,2.441,3.201,6.129,1.872,9.331C49.268,177.141,46.134,179.22,42.667,179.2
			L42.667,179.2z"/>
		<path d="M257.792,512h-3.584c-39.415,0.009-77.485-14.335-107.096-40.35L82.6,414.988c-15.849-13.518-26.518-32.115-30.188-52.621
			c-0.822-4.892-1.228-9.844-1.213-14.804V247.467h17.067v100.096c-0.015,4.03,0.314,8.055,0.983,12.029
			c3.033,16.622,11.741,31.675,24.638,42.592l64.492,56.642c26.494,23.28,60.56,36.116,95.829,36.108h3.584
			c35.269,0.008,69.335-12.828,95.829-36.108l64.512-56.662c12.857-10.878,21.548-25.874,24.596-42.437
			c0.682-4.018,1.017-8.087,1.004-12.162V247.467H460.8v100.096c0.013,5.005-0.399,10.002-1.233,14.938
			c-3.684,20.447-14.336,38.987-30.146,52.467l-64.533,56.683C335.277,497.665,297.208,512.009,257.792,512z"/>
		<path d="M59.734,332.8H38.146c-12.95,0.37-24.298-8.605-26.921-21.292L0.563,253.183c-1.715-9.488,0.887-19.247,7.1-26.621
			c7.222-8.514,17.865-13.364,29.029-13.229h5.975c4.713,0,8.533,3.821,8.533,8.533c0,4.713-3.821,8.533-8.533,8.533h-5.975
			c-6.09-0.126-11.92,2.467-15.904,7.075c-2.997,3.468-4.261,8.108-3.437,12.617l10.671,58.392c1.232,4.51,5.459,7.537,10.125,7.25
			H51.2v-68.267c0-4.713,3.821-8.533,8.533-8.533s8.533,3.821,8.533,8.533v76.8C68.267,328.98,64.447,332.8,59.734,332.8z"/>
		<path d="M473.855,332.8h-21.588c-4.713,0-8.533-3.82-8.533-8.533v-76.8c0-4.713,3.821-8.533,8.533-8.533s8.533,3.821,8.533,8.533
			v68.267h13.054c4.652,0.288,8.872-2.717,10.121-7.208l10.671-58.408c0.83-4.516-0.432-9.165-3.433-12.642
			c-3.984-4.608-9.814-7.201-15.904-7.075h-5.975c-4.713,0-8.533-3.821-8.533-8.533c0-4.713,3.82-8.533,8.533-8.533h5.975
			c11.164-0.135,21.807,4.715,29.029,13.229c6.217,7.381,8.818,17.15,7.096,26.646l-10.663,58.342
			C498.132,324.219,486.79,333.173,473.855,332.8L473.855,332.8z"/>
		<path d="M274.963,366.933c-3.597-0.131-7.139-0.916-10.454-2.317l-1.283-0.463c-3.38-1.18-7.009-1.459-10.529-0.808
			c-1.502,0.324-2.979,0.753-4.421,1.283c-3.59,1.394-7.389,2.173-11.237,2.304c-8.383-0.885-16.101-4.968-21.55-11.4
			c-2.024-2.279-2.679-5.465-1.718-8.358c0.961-2.893,3.393-5.053,6.379-5.667c2.986-0.614,6.073,0.412,8.097,2.691
			c2.296,2.728,5.359,4.702,8.792,5.667c1.998-0.189,3.957-0.667,5.817-1.421c2.21-0.788,4.472-1.419,6.771-1.888
			c6.445-1.187,13.088-0.67,19.271,1.5l1.483,0.533c1.459,0.642,3.002,1.071,4.583,1.275c3.429-0.973,6.49-2.945,8.792-5.667
			c3.13-3.523,8.523-3.842,12.046-0.712c3.523,3.13,3.842,8.523,0.712,12.046C291.064,361.965,283.346,366.048,274.963,366.933z"/>
		<path d="M279.146,324.284c-2.572,0.002-5.008-1.157-6.629-3.154c-4.568-3.924-10.512-5.866-16.517-5.396
			c-6.003-0.466-11.945,1.473-16.517,5.392c-1.922,2.374-4.966,3.539-7.981,3.056c-3.016-0.483-5.543-2.541-6.627-5.396
			s-0.56-6.072,1.375-8.435c7.776-7.99,18.615-12.246,29.75-11.683c11.145-0.566,21.992,3.699,29.767,11.704
			c2.075,2.555,2.495,6.075,1.081,9.046C285.434,322.389,282.437,324.283,279.146,324.284L279.146,324.284z"/>
	</g>
	<path style="fill:#FFA800;" d="M300.445,445.076l-110.152-24.478c-6.481-1.44-11.092-7.189-11.092-13.828v-0.072
		c0-7.823,6.342-14.165,14.165-14.165h112.847c14.684,0,26.588,11.904,26.588,26.588l0,0c0,8.065-3.66,15.694-9.951,20.74
		C316.558,444.908,308.317,446.826,300.445,445.076L300.445,445.076z"/>
	<g>
		<path d="M306.275,454.254c-2.583-0.003-5.158-0.288-7.679-0.85l-110.154-24.475c-11.305-2.529-18.902-13.153-17.64-24.668
			c1.262-11.516,10.98-20.241,22.565-20.261h112.846c19.383,0.008,35.096,15.713,35.113,35.096
			C341.344,438.479,325.658,454.212,306.275,454.254L306.275,454.254z M193.367,401.067c-2.88,0.02-5.289,2.195-5.601,5.058
			s1.571,5.506,4.38,6.146l110.15,24.475l0,0c6.758,1.501,13.779-0.993,18.074-6.422c4.295-5.429,5.108-12.836,2.093-19.067
			c-3.015-6.231-9.328-10.19-16.251-10.19H193.367z"/>
		<path d="M196.267,452.267c-4.713,0-8.533-3.821-8.533-8.533v-17.067c0-4.713,3.821-8.533,8.533-8.533
			c4.713,0,8.533,3.82,8.533,8.533v17.067C204.8,448.446,200.98,452.267,196.267,452.267z"/>
		<path d="M230.4,477.867c-4.713,0-8.533-3.821-8.533-8.533V435.2c0-4.713,3.821-8.533,8.533-8.533s8.533,3.82,8.533,8.533v34.133
			C238.934,474.046,235.113,477.867,230.4,477.867z"/>
	</g>
	<g>
		<path style="fill:#34A9F7;" d="M221.867,234.667c0,14.711-5.843,28.819-16.245,39.221c-10.402,10.402-24.511,16.246-39.221,16.245
			c-4.314,0.015-8.612-0.501-12.8-1.536c-25.014-5.898-42.683-28.231-42.667-53.931c-0.195-3.462,0.358-6.925,1.621-10.155
			c4.864-11.008,20.821,0.341,41.045,4.523c4.208,0.894,8.498,1.352,12.8,1.365c9.68-0.352,19.231-2.343,28.245-5.888
			C210.944,219.136,221.867,214.357,221.867,234.667z"/>
		<path style="fill:#34A9F7;" d="M401.067,234.667c0,14.711-5.843,28.819-16.245,39.221c-10.402,10.402-24.511,16.246-39.221,16.245
			c-4.314,0.015-8.612-0.501-12.8-1.536c-25.014-5.898-42.683-28.231-42.667-53.931c-0.195-3.462,0.358-6.925,1.621-10.155
			c4.864-11.008,20.821,0.341,41.045,4.523c4.208,0.894,8.498,1.352,12.8,1.365c9.68-0.352,19.231-2.343,28.245-5.888
			C390.144,219.136,401.067,214.357,401.067,234.667z"/>
	</g>
	<g>
		<path style="fill:#55C9FC;" d="M196.267,234.667c0.016,25.7-17.653,48.033-42.667,53.931
			c-25.014-5.898-42.683-28.231-42.667-53.931c-0.195-3.462,0.358-6.925,1.621-10.155c9.015,3.545,18.565,5.536,28.245,5.888
			c4.302-0.014,8.592-0.471,12.8-1.365c4.208,0.894,8.498,1.352,12.8,1.365c9.68-0.352,19.231-2.343,28.245-5.888
			C195.909,227.741,196.462,231.205,196.267,234.667L196.267,234.667z"/>
		<path style="fill:#55C9FC;" d="M375.467,234.667c0.016,25.7-17.653,48.033-42.667,53.931
			c-25.014-5.898-42.683-28.231-42.667-53.931c-0.195-3.462,0.358-6.925,1.621-10.155c9.015,3.545,18.565,5.536,28.245,5.888
			c4.302-0.014,8.592-0.471,12.8-1.365c4.208,0.894,8.498,1.352,12.8,1.365c9.68-0.352,19.231-2.343,28.245-5.888
			C375.109,227.741,375.662,231.205,375.467,234.667z"/>
	</g>
	<g>
		<path d="M166.4,298.667c-35.33-0.039-63.961-28.67-64-64c-0.844-7.633,2.019-15.208,7.7-20.375
			c7.834-5.596,17.404-2.329,28.488,1.458c8.873,3.548,18.269,5.614,27.813,6.117c9.543-0.503,18.939-2.569,27.813-6.117
			c11.083-3.788,20.654-7.054,28.488-1.458c5.681,5.167,8.544,12.742,7.7,20.375C230.362,269.997,201.731,298.628,166.4,298.667z
			 M120.167,228.358c-0.56,2.054-0.796,4.182-0.7,6.308c0,25.921,21.013,46.933,46.933,46.933s46.933-21.013,46.933-46.933
			c0.096-2.126-0.14-4.255-0.7-6.308h-0.013c-4.415,0.711-8.741,1.898-12.9,3.541c-10.635,4.192-21.899,6.569-33.321,7.034
			c-11.422-0.464-22.685-2.842-33.321-7.033c-4.16-1.643-8.485-2.83-12.9-3.541L120.167,228.358z"/>
		<path d="M345.6,298.667c-35.33-0.039-63.961-28.67-64-64c-0.844-7.633,2.019-15.208,7.7-20.375
			c7.825-5.596,17.408-2.329,28.487,1.458c8.873,3.548,18.269,5.614,27.813,6.117c9.543-0.503,18.939-2.569,27.813-6.117
			c11.088-3.788,20.658-7.054,28.488-1.458c5.681,5.167,8.544,12.742,7.7,20.375C409.562,269.997,380.931,298.628,345.6,298.667z
			 M299.367,228.358c-0.56,2.054-0.796,4.182-0.7,6.308c0,25.921,21.013,46.933,46.933,46.933c25.921,0,46.933-21.013,46.933-46.933
			c0.096-2.126-0.14-4.255-0.7-6.308h-0.013c-4.415,0.711-8.741,1.898-12.9,3.541c-10.635,4.192-21.899,6.569-33.321,7.034
			c-11.422-0.464-22.685-2.842-33.321-7.033c-4.16-1.643-8.485-2.83-12.9-3.541L299.367,228.358z"/>
		<path d="M221.867,290.133c-4.713,0-8.533-3.821-8.533-8.533v-51.2c0-4.713,3.821-8.533,8.533-8.533
			c4.713,0,8.533,3.82,8.533,8.533v51.2C230.4,286.313,226.58,290.133,221.867,290.133z"/>
		<path d="M290.134,290.133c-4.713,0-8.533-3.821-8.533-8.533v-51.2c0-4.713,3.821-8.533,8.533-8.533
			c4.713,0,8.533,3.82,8.533,8.533v51.2C298.667,286.313,294.847,290.133,290.134,290.133z"/>
		<path d="M136.534,315.733c-4.713,0-8.533-3.82-8.533-8.533v-25.6c0-4.713,3.821-8.533,8.533-8.533c4.713,0,8.533,3.82,8.533,8.533
			v25.6C145.067,311.913,141.247,315.733,136.534,315.733z"/>
		<path d="M110.934,288.117c-4.713,0-8.533-3.82-8.533-8.533v-42.667c0-4.713,3.821-8.533,8.533-8.533
			c4.713,0,8.533,3.821,8.533,8.533v42.667C119.467,284.296,115.647,288.117,110.934,288.117z"/>
		<path d="M375.467,315.733c-4.713,0-8.533-3.82-8.533-8.533v-25.6c0-4.713,3.82-8.533,8.533-8.533S384,276.887,384,281.6v25.6
			C384,311.913,380.18,315.733,375.467,315.733z"/>
		<path d="M401.067,288.117c-4.713,0-8.533-3.82-8.533-8.533v-42.667c0-4.713,3.82-8.533,8.533-8.533s8.533,3.821,8.533,8.533
			v42.667C409.6,284.296,405.78,288.117,401.067,288.117z"/>
	</g>
</g>
<g>
</g>
<g>
</g>
<g>
</g>
<g>
</g>
<g>
</g>
<g>
</g>
<g>
</g>
<g>
</g>
<g>
</g>
<g>
</g>
<g>
</g>
<g>
</g>
<g>
</g>
<g>
</g>
<g>
</g>
</svg>
