<?xml version="1.0" encoding="iso-8859-1"?>
<!-- Generator: Adobe Illustrator 19.0.0, SVG Export Plug-In . SVG Version: 6.00 Build 0)  -->
<svg version="1.1" id="Capa_1" xmlns="http://www.w3.org/2000/svg" xmlns:xlink="http://www.w3.org/1999/xlink" x="0px" y="0px"
	 viewBox="0 0 512.001 512.001" style="enable-background:new 0 0 512.001 512.001;" xml:space="preserve">
<g>
	<g>
		<path style="fill:#FFA800;" d="M313.003,102.401l-8.843,10.923c-3.09,3.873-7.772,6.134-12.726,6.144H150.203
			c-9.761-0.002-19.284,3.008-27.271,8.619c-8.118,5.651-14.339,13.622-17.85,22.869l-37.353,96.427
			c-4.414,0.011-8.635-1.813-11.652-5.035c-3.157-3.205-4.911-7.533-4.876-12.032v-93.867C50.165,66.918,105.631,9.682,175.16,8.534
			h55.121l17.107,10.581c6.27,4,9.295,11.551,7.521,18.773l-0.165,0.597c-1.319,5.021-0.265,10.369,2.862,14.513
			c3.127,4.144,7.98,6.626,13.17,6.735h11.9c9.264,0.178,16.647,7.802,16.528,17.067V88.15
			C299.094,95.89,305.264,102.261,313.003,102.401z"/>
		<path style="fill:#FFA800;" d="M443.734,137.525l-0.256,36.214c-5.509-0.185-10.575-3.066-13.551-7.706l-6.903-10.616
			c-0.746-1.186-1.665-2.254-2.727-3.168c-2.607-2.477-5.966-4.013-9.545-4.366c-0.614-0.141-1.245-0.199-1.875-0.171H358.34
			c-9.528-0.121-17.156-7.938-17.045-17.465v-8.647c0.081-9.515-7.53-17.314-17.045-17.465h-11.335
			c-7.918-0.083-14.28-6.55-14.232-14.469V78.024c0.074-9.499-7.546-17.269-17.045-17.38h-12.783
			c-5.289-0.063-10.244-2.599-13.39-6.851c-3.146-4.253-4.12-9.732-2.632-14.809l0.171-0.599c1.827-7.396-1.301-15.13-7.756-19.177
			l2.301-2.14h46.958c13.637,0.06,26.681,5.579,36.22,15.325l3.068,3.168c4.748,4.874,11.263,7.622,18.067,7.62h5.369
			c15.818,0.148,29.497,11.064,33.152,26.455l0.681,2.911c0.753,3.206,3.611,5.473,6.903,5.479h0.085
			c11.817,0.144,22.03,8.288,24.8,19.777l2.812,11.643c0.48,2.167,1.924,3.996,3.92,4.966v0.085
			C438.23,118.931,443.684,127.81,443.734,137.525L443.734,137.525z"/>
	</g>
	<path style="fill:#FEDD0A;" d="M420.382,137.525l-0.085,14.725c-2.607-2.477-5.966-4.013-9.545-4.366
		c-0.614-0.141-1.245-0.199-1.875-0.171H358.34c-9.528-0.121-17.156-7.938-17.045-17.465v-8.647
		c0.081-9.515-7.53-17.314-17.045-17.465h-11.335c-7.918-0.083-14.28-6.55-14.232-14.469V78.024
		c0.074-9.499-7.546-17.269-17.045-17.38h-12.783c-5.289-0.063-10.244-2.599-13.39-6.851c-3.146-4.253-4.12-9.732-2.632-14.809
		l0.171-0.599c1.827-7.396-1.301-15.13-7.756-19.177l2.301-2.14h23.607c13.637,0.06,26.681,5.579,36.22,15.325l3.068,3.168
		c4.748,4.874,11.263,7.622,18.067,7.62h5.369c15.818,0.148,29.497,11.064,33.152,26.455l0.681,2.911
		c0.753,3.206,3.611,5.473,6.903,5.479h0.085c11.817,0.144,22.03,8.288,24.8,19.777l2.812,11.643c0.48,2.167,1.924,3.996,3.92,4.966
		v0.085C414.879,118.931,420.333,127.81,420.382,137.525L420.382,137.525z"/>
	<path style="fill:#FFA800;" d="M452.267,170.667v176.896c0.016,4.518-0.355,9.028-1.109,13.483
		c-3.348,18.539-13.031,35.339-27.392,47.531l-64.512,56.661c-28.05,24.652-64.118,38.242-101.461,38.229h-3.584
		c-37.343,0.013-73.412-13.577-101.461-38.229l-64.512-56.661c-14.361-12.192-24.044-28.992-27.392-47.531
		c-0.754-4.454-1.125-8.965-1.109-13.483V247.382l38.571-96.427c3.682-9.317,10.11-17.293,18.432-22.869
		c8.311-5.631,18.122-8.633,28.16-8.619h145.835c5.076,0.008,9.893-2.244,13.141-6.144l3.413-4.096l5.717-6.827h11.349
		c9.414,0.028,17.039,7.652,17.067,17.067v8.533c-0.001,4.527,1.797,8.868,4.997,12.069c3.201,3.201,7.543,4.999,12.069,4.997
		h50.603c0.631-0.028,1.262,0.03,1.877,0.171c5.004,0.501,9.517,3.228,12.288,7.424l6.912,10.411
		c3.034,4.559,8.094,7.359,13.568,7.509c0.22,0.07,0.452,0.099,0.683,0.085H452.267z"/>
	<path style="fill:#FFFFFF;" d="M256.001,501.59c-4.267,0.683-8.533,1.109-12.8,1.451c-33.464-2.411-65.225-15.684-90.453-37.803
		l-64.512-56.661c-14.361-12.192-24.044-28.992-27.392-47.531c-0.754-4.454-1.125-8.965-1.109-13.483V247.382l38.571-96.427
		c3.682-9.317,10.11-17.293,18.432-22.869c8.311-5.631,18.122-8.633,28.16-8.619h25.6c-10.038-0.015-19.849,2.988-28.16,8.619
		c-8.322,5.577-14.75,13.553-18.432,22.869l-38.571,96.427v100.181c-0.016,4.518,0.355,9.028,1.109,13.483
		c3.348,18.539,13.031,35.339,27.392,47.531l64.512,56.661C200.278,484.447,227.202,497.051,256.001,501.59z"/>
	<path style="fill:#FEDD0A;" d="M426.667,157.782v189.781c0.016,4.518-0.355,9.028-1.109,13.483
		c-3.348,18.539-13.031,35.339-27.392,47.531l-64.512,56.661c-21.931,19.209-48.855,31.813-77.653,36.352
		c-28.799-4.539-55.722-17.143-77.653-36.352l-64.512-56.661c-14.361-12.192-24.044-28.992-27.392-47.531
		c-0.754-4.454-1.125-8.965-1.109-13.483V247.382l38.571-96.427c3.682-9.317,10.11-17.293,18.432-22.869
		c8.311-5.631,18.122-8.633,28.16-8.619h120.235c5.076,0.008,9.893-2.244,13.141-6.144l3.413-4.096l2.389-2.816l3.328-4.011h11.349
		c3.983,0.021,7.838,1.407,10.923,3.925v0.085c3.894,3.217,6.147,8.005,6.144,13.056v8.533c-0.001,4.527,1.797,8.868,4.997,12.069
		c3.201,3.201,7.543,4.999,12.069,4.997h50.603c0.631-0.028,1.262,0.03,1.877,0.171c4.017,0.395,7.751,2.247,10.496,5.205
		c0.668,0.679,1.269,1.422,1.792,2.219L426.667,157.782z"/>
	<path style="fill:#FFFFFF;" d="M59.734,247.467v76.8H38.145c-8.797,0.323-16.577-5.664-18.517-14.251L8.961,251.649
		c-1.022-7.805,1.491-15.659,6.856-21.419c5.364-5.761,13.02-8.827,20.877-8.362h5.973"/>
	<path style="fill:#FFA800;" d="M452.267,221.867h23.04c7.858-0.465,15.513,2.601,20.877,8.362
		c5.364,5.761,7.878,13.614,6.856,21.419l-10.667,58.368c-1.941,8.586-9.72,14.573-18.517,14.251h-21.589V221.867z"/>
	<path style="fill:#FFFFFF;" d="M196.267,8.534c-70.653,0.016-127.937,57.262-128,127.915v89.6l-8.533,21.333
		c-4.528,0.024-8.871-1.793-12.032-5.035c-2.719-2.636-4.439-6.135-4.864-9.899c-0.103-0.707-0.16-1.419-0.171-2.133v-93.867
		c0.063-70.653,57.347-127.899,128-127.915H196.267z"/>
	<g>
		<path style="fill:#FEDD0A;" d="M290.134,119.467H144.897c-10.038-0.015-19.849,2.988-28.16,8.619
			c-8.322,5.577-14.75,13.553-18.432,22.869l-30.037,75.093v-89.6c0.063-70.653,57.347-127.899,128-127.915h8.448l17.664,10.581
			c6.424,3.879,9.572,11.49,7.765,18.773l-0.171,0.597c-1.292,5.104-0.155,10.519,3.081,14.672s8.208,6.58,13.473,6.576h12.288
			c9.414,0.028,17.039,7.652,17.067,17.067V88.15c0.682,9.746,3.665,19.192,8.704,27.563v0.085
			C285.801,117.783,287.833,119.127,290.134,119.467z"/>
		<path style="fill:#FEDD0A;" d="M290.134,119.467c-2.301-0.34-4.333-1.684-5.547-3.669L290.134,119.467z"/>
	</g>
	<g>
		<path d="M65.513,255.917h-5.779c-14.109-0.07-25.53-11.491-25.6-25.6v-25.521c0-4.713,3.821-8.533,8.533-8.533
			s8.533,3.821,8.533,8.533v25.521c-0.021,2.224,0.865,4.361,2.454,5.917c0.311,0.319,0.643,0.616,0.996,0.887l35.729-89.338
			c4.306-10.915,11.838-20.257,21.592-26.779c9.717-6.582,21.189-10.091,32.925-10.071c4.713,0,8.533,3.821,8.533,8.533
			c0,4.713-3.821,8.533-8.533,8.533c-8.333-0.016-16.477,2.475-23.375,7.15c-6.9,4.605-12.23,11.208-15.275,18.925L65.513,255.917z"
			/>
		<path d="M42.667,144.984c-4.713,0-8.533-3.821-8.533-8.533C34.243,61.104,95.321,0.064,170.667,0.001h56.917
			c4.713,0,8.533,3.821,8.533,8.533s-3.821,8.533-8.533,8.533h-56.917c-65.926,0.051-119.37,53.457-119.467,119.383
			c0,2.263-0.899,4.434-2.499,6.034S44.931,144.984,42.667,144.984z"/>
		<path d="M42.667,179.201c-1.121,0.03-2.232-0.204-3.246-0.683c-1.043-0.413-1.997-1.021-2.813-1.791
			c-3.3-3.365-3.3-8.752,0-12.117c2.451-2.425,6.122-3.134,9.3-1.796c1.034,0.434,1.987,1.041,2.817,1.795
			c3.3,3.365,3.3,8.752,0,12.117c-0.831,0.752-1.783,1.358-2.817,1.792C44.897,178.996,43.787,179.23,42.667,179.201L42.667,179.201
			z"/>
		<path d="M257.793,512.001h-3.584c-39.415,0.009-77.485-14.335-107.096-40.35l-64.512-56.662
			c-15.849-13.518-26.518-32.115-30.188-52.621c-0.822-4.892-1.228-9.844-1.213-14.804V247.467h17.067v100.096
			c-0.015,4.03,0.314,8.055,0.983,12.029c3.033,16.622,11.741,31.675,24.638,42.592l64.492,56.642
			c26.494,23.28,60.56,36.116,95.829,36.108h3.584c35.269,0.008,69.335-12.828,95.829-36.108l64.512-56.662
			c12.857-10.878,21.548-25.874,24.596-42.437c0.682-4.018,1.017-8.087,1.004-12.162V247.467h17.067v100.096
			c0.013,5.005-0.399,10.002-1.233,14.938c-3.684,20.447-14.336,38.987-30.146,52.467l-64.533,56.683
			C335.278,497.666,297.208,512.009,257.793,512.001z"/>
	</g>
	<path style="fill:#55C9FC;" d="M221.14,255.993c0,0-18.679-35.654-56.037-30.561c-37.358,5.093-54.169,25.467-54.169,40.747
		s33.622,25.467,52.301,23.769s18.925-10.054,42.667-10.054c5.481-0.593,10.396-3.643,13.359-8.292
		C222.225,266.956,222.916,261.212,221.14,255.993L221.14,255.993z"/>
	<g>
		<path d="M159.042,298.663c-17.482,0.085-34.516-5.523-48.529-15.975c-4.971-4.066-7.931-10.089-8.113-16.508
			c0-19.658,19.262-43.438,61.55-49.2c42.8-5.825,63.871,33.379,64.746,35.054c0.321,0.611,0.566,1.259,0.729,1.929
			c2.368,8.509,0.617,17.635-4.733,24.663c-4.484,5.913-11.377,9.509-18.792,9.804c-7.483-0.336-14.932,1.205-21.667,4.483
			c-6.35,3.058-13.203,4.934-20.225,5.538C162.438,298.592,160.776,298.663,159.042,298.663z M172.28,233.476
			c-2.014,0.001-4.026,0.139-6.021,0.413c-34.088,4.646-46.792,22.271-46.792,32.292c0.346,1.571,1.254,2.961,2.554,3.908
			c11.826,8.214,26.069,12.215,40.442,11.362c5.183-0.444,10.236-1.855,14.9-4.158c8.896-4.246,18.686-6.28,28.538-5.929
			c2.156-0.328,4.089-1.508,5.367-3.275c1.916-2.591,2.577-5.901,1.804-9.029C204.719,244.141,189.347,234.5,172.28,233.476
			L172.28,233.476z"/>
		<path d="M110.93,213.334c-3.279-0.002-6.266-1.883-7.686-4.839c-1.42-2.956-1.02-6.463,1.027-9.024
			c0.383-0.488,39.446-47.925,104.763-10.612c2.647,1.512,4.286,4.322,4.299,7.37c0.014,3.048-1.6,5.872-4.233,7.408
			c-2.633,1.536-5.886,1.55-8.532,0.038c-52.767-30.158-81.754,4.946-82.971,6.454C115.979,212.158,113.524,213.338,110.93,213.334z
			"/>
		<path d="M274.963,366.934c-3.597-0.131-7.139-0.916-10.454-2.317l-1.283-0.462c-3.38-1.18-7.009-1.459-10.529-0.808
			c-1.502,0.324-2.979,0.753-4.421,1.283c-3.59,1.394-7.389,2.173-11.237,2.304c-8.383-0.885-16.101-4.968-21.55-11.4
			c-2.024-2.279-2.679-5.465-1.718-8.358c0.961-2.893,3.393-5.053,6.379-5.667c2.986-0.614,6.073,0.412,8.097,2.691
			c2.296,2.728,5.359,4.702,8.792,5.667c1.998-0.189,3.957-0.667,5.817-1.421c2.21-0.788,4.472-1.419,6.771-1.888
			c6.445-1.187,13.088-0.67,19.271,1.5l1.483,0.533c1.459,0.642,3.002,1.071,4.583,1.275c3.429-0.973,6.49-2.945,8.792-5.667
			c3.13-3.523,8.523-3.842,12.046-0.712c3.523,3.13,3.842,8.523,0.712,12.046C291.065,361.966,283.346,366.049,274.963,366.934z"/>
		<path d="M279.147,324.284c-2.572,0.002-5.008-1.157-6.629-3.154c-4.568-3.924-10.512-5.866-16.517-5.396
			c-6.003-0.466-11.945,1.473-16.517,5.392c-1.922,2.374-4.966,3.539-7.981,3.056c-3.016-0.483-5.543-2.541-6.627-5.396
			c-1.084-2.855-0.56-6.072,1.375-8.435c7.776-7.99,18.615-12.246,29.75-11.683c11.145-0.566,21.992,3.699,29.767,11.704
			c2.075,2.555,2.495,6.075,1.081,9.046C285.435,322.39,282.438,324.283,279.147,324.284L279.147,324.284z"/>
		<path d="M59.734,332.801H38.147c-12.95,0.37-24.298-8.605-26.921-21.292L0.563,253.184c-1.715-9.488,0.887-19.247,7.1-26.621
			c7.222-8.514,17.865-13.364,29.029-13.229h5.975c4.713,0,8.533,3.821,8.533,8.533c0,4.713-3.821,8.533-8.533,8.533h-5.975
			c-6.09-0.126-11.92,2.467-15.904,7.075c-2.997,3.468-4.261,8.108-3.437,12.617l10.671,58.392c1.232,4.51,5.459,7.537,10.125,7.25
			h13.054v-68.267c0-4.713,3.821-8.533,8.533-8.533s8.533,3.821,8.533,8.533v76.8C68.267,328.98,64.447,332.801,59.734,332.801z"/>
	</g>
	<path style="fill:#FFA800;" d="M315.734,430.934c0,21.208-26.743,21.333-59.733,21.333s-59.733-0.126-59.733-21.333
		s26.743-38.4,59.733-38.4S315.734,409.726,315.734,430.934z"/>
	<g>
		<path d="M256.001,460.801c-33.563,0-68.267,0-68.267-29.867c0-26.317,29.988-46.933,68.267-46.933s68.267,20.617,68.267,46.933
			C324.267,460.801,289.563,460.801,256.001,460.801z M256.001,401.067c-27.754,0-51.2,13.679-51.2,29.867
			c0,11.538,16.396,12.8,51.2,12.8s51.2-1.262,51.2-12.8C307.201,414.746,283.755,401.067,256.001,401.067z"/>
		<path d="M473.855,332.801h-21.588c-4.713,0-8.533-3.821-8.533-8.533V179.192c-8.3-0.231-15.981-4.449-20.629-11.329l-6.958-10.479
			c-1.366-2.069-3.591-3.413-6.059-3.658c-0.271-0.029-0.538-0.067-0.804-0.121l-50.8-0.004c-14.132-0.015-25.585-11.468-25.6-25.6
			v-8.533c-0.006-4.71-3.823-8.527-8.533-8.533h-11.346c-12.578-0.013-22.773-10.205-22.788-22.783v-11.35
			c-0.006-4.71-3.823-8.527-8.533-8.533h-12.288c-7.895,0.003-15.35-3.637-20.203-9.865c-4.853-6.228-6.56-14.347-4.626-22.002
			c0.021-0.092,0.217-0.775,0.242-0.862c0.788-3.568-0.803-7.24-3.946-9.104l-17.662-10.579c-4.043-2.421-5.358-7.661-2.938-11.704
			c2.421-4.043,7.661-5.358,11.704-2.938l17.667,10.583c9.661,5.777,14.401,17.197,11.671,28.117l-0.258,0.921
			c-0.567,2.48,0.025,5.084,1.608,7.075c1.614,2.084,4.105,3.3,6.741,3.292h12.288c14.132,0.015,25.585,11.468,25.6,25.6v11.35
			c0.004,3.157,2.564,5.715,5.721,5.717h11.346c14.132,0.015,25.585,11.468,25.6,25.6v8.533c0.006,4.71,3.823,8.527,8.533,8.533
			h50.604c1.121-0.023,2.241,0.072,3.342,0.283c7.326,0.907,13.886,4.981,17.946,11.146l6.9,10.388
			c1.596,2.378,4.278,3.799,7.142,3.783h7.85c4.713,0,8.533,3.821,8.533,8.533v42.667h14.508
			c11.164-0.135,21.807,4.715,29.029,13.229c6.217,7.381,8.818,17.15,7.096,26.646l-10.663,58.342
			C498.132,324.22,486.79,333.174,473.855,332.801L473.855,332.801z M460.801,315.734h13.054c4.652,0.288,8.872-2.717,10.121-7.208
			l10.671-58.408c0.83-4.516-0.432-9.165-3.433-12.642c-3.984-4.608-9.814-7.201-15.904-7.075h-14.508V315.734z M408.63,153.447
			l0.012,0.004L408.63,153.447z"/>
		<path d="M443.734,179.201h-0.058c-4.713-0.032-8.507-3.879-8.475-8.592l0.25-35.588c-0.105-6.343-3.746-12.095-9.433-14.904
			c-4.189-2.093-7.256-5.912-8.396-10.454l-2.85-11.404c-1.894-7.601-8.725-12.933-16.558-12.925
			c-7.21,0.01-13.5-4.893-15.25-11.888l-0.713-2.854c-2.835-11.405-13.082-19.406-24.833-19.392h-5.413
			c-9.058,0.024-17.75-3.577-24.137-10l-3.1-3.1c-7.985-8.03-18.851-12.531-30.175-12.5h-47.058c-4.713,0-8.533-3.821-8.533-8.533
			s3.82-8.533,8.533-8.533h47.058c15.851-0.043,31.06,6.257,42.238,17.496l3.104,3.1c3.193,3.214,7.54,5.016,12.071,5.004h5.413
			c19.587-0.023,36.665,13.313,41.392,32.321l0.458,1.829c15.268,0.458,28.369,11.015,32.062,25.837l2.733,10.942
			c11.227,5.774,18.333,17.292,18.454,29.917l-0.25,35.746C452.236,175.416,448.424,179.202,443.734,179.201z"/>
		<path d="M324.334,76.801c-4.713,0-8.533-3.82-8.533-8.533c0-4.713,3.82-8.533,8.533-8.533c4.71-0.006,8.527-3.823,8.533-8.533
			v-8.533c0-4.713,3.821-8.533,8.533-8.533c4.713,0,8.533,3.821,8.533,8.533v8.533C349.919,65.333,338.466,76.785,324.334,76.801z"
			/>
		<path d="M375.534,119.467c-4.713,0-8.533-3.821-8.533-8.533c0-4.713,3.821-8.533,8.533-8.533c4.71-0.006,8.527-3.823,8.533-8.533
			V76.801c0-4.713,3.82-8.533,8.533-8.533s8.533,3.821,8.533,8.533v17.067C401.119,107.999,389.666,119.452,375.534,119.467
			L375.534,119.467z"/>
	</g>
	<circle style="fill:#34A9F7;" cx="354.134" cy="243.201" r="55.467"/>
	<ellipse style="fill:#55C9FC;" cx="341.334" cy="243.201" rx="42.667" ry="55.467"/>
	<g>
		<path d="M354.134,307.201c-35.346,0-64-28.654-64-64s28.654-64,64-64s64,28.654,64,64
			C418.096,278.531,389.464,307.162,354.134,307.201L354.134,307.201z M354.134,196.267c-18.983,0-36.096,11.435-43.361,28.973
			c-7.264,17.538-3.249,37.725,10.174,51.148s33.61,17.438,51.147,10.174c17.538-7.264,28.973-24.378,28.973-43.361
			C401.038,217.292,380.043,196.297,354.134,196.267z"/>
		<path d="M290.713,128.001H144.897c-4.713,0-8.533-3.821-8.533-8.533c0-4.713,3.821-8.533,8.533-8.533h145.816
			c2.545,0.005,4.959-1.124,6.588-3.079l9.138-10.929c1.956-2.339,5.011-3.456,8.014-2.931c3.003,0.525,5.499,2.612,6.546,5.475
			c1.047,2.863,0.487,6.068-1.469,8.406l-9.133,10.925C305.529,124.64,298.316,128.011,290.713,128.001L290.713,128.001z"/>
		<path d="M298.667,298.667c-4.713,0-8.533-3.821-8.533-8.533v-51.2c0-4.713,3.821-8.533,8.533-8.533
			c4.713,0,8.533,3.821,8.533,8.533v51.2C307.201,294.847,303.38,298.667,298.667,298.667z"/>
		<path d="M332.801,324.267c-4.713,0-8.533-3.821-8.533-8.533v-17.067c0-4.713,3.821-8.533,8.533-8.533s8.533,3.821,8.533,8.533
			v17.067C341.334,320.447,337.514,324.267,332.801,324.267z"/>
		<path d="M366.934,341.334c-4.713,0-8.533-3.82-8.533-8.533v-34.133c0-4.713,3.82-8.533,8.533-8.533s8.533,3.821,8.533,8.533
			v34.133C375.467,337.514,371.647,341.334,366.934,341.334z"/>
		<path d="M298.734,179.201c-4.713,0-8.533-3.82-8.533-8.533v-51.2c0-4.713,3.82-8.533,8.533-8.533s8.533,3.821,8.533,8.533v51.2
			C307.267,175.38,303.447,179.201,298.734,179.201z"/>
		<path d="M264.601,153.601c-4.713,0-8.533-3.821-8.533-8.533v-25.6c0-4.713,3.82-8.533,8.533-8.533s8.533,3.821,8.533,8.533v25.6
			C273.134,149.78,269.314,153.601,264.601,153.601z"/>
	</g>
</g>
<g>
</g>
<g>
</g>
<g>
</g>
<g>
</g>
<g>
</g>
<g>
</g>
<g>
</g>
<g>
</g>
<g>
</g>
<g>
</g>
<g>
</g>
<g>
</g>
<g>
</g>
<g>
</g>
<g>
</g>
</svg>
