<?xml version="1.0" encoding="iso-8859-1"?>
<!-- Generator: Adobe Illustrator 19.0.0, SVG Export Plug-In . SVG Version: 6.00 Build 0)  -->
<svg version="1.1" id="Capa_1" xmlns="http://www.w3.org/2000/svg" xmlns:xlink="http://www.w3.org/1999/xlink" x="0px" y="0px"
	 viewBox="0 0 512 512" style="enable-background:new 0 0 512 512;" xml:space="preserve">
<g>
	<path style="fill:#FFFFFF;" d="M59.734,247.467v76.8H38.144c-8.797,0.323-16.577-5.664-18.517-14.251L8.96,251.648
		c-1.022-7.805,1.491-15.659,6.856-21.419s13.02-8.827,20.877-8.362h5.973"/>
	<path style="fill:#FEDD0A;" d="M469.334,221.867h5.973c7.858-0.465,15.513,2.601,20.877,8.362
		c5.364,5.761,7.878,13.614,6.856,21.419l-10.667,58.368c-1.941,8.586-9.72,14.573-18.517,14.251h-21.589v-76.8"/>
	<path style="fill:#FFA800;" d="M67.926,247.467c-4.456,0.016-8.721-1.806-11.791-5.035c-3.188-3.189-4.965-7.523-4.934-12.032
		v-93.867c-0.674-69.972,55.468-127.261,125.44-128h167.253c69.972,0.739,126.114,58.028,125.44,128V230.4
		c0.031,4.509-1.746,8.843-4.934,12.032c-3.07,3.229-7.335,5.05-11.791,5.035H67.926z"/>
	<path style="fill:#FFFFFF;" d="M68.267,136.533V230.4c-0.027,4.462,1.652,8.767,4.693,12.032c2.902,3.207,7.025,5.036,11.349,5.035
		h-25.6c-4.325,0.001-8.448-1.828-11.349-5.035c-3.042-3.265-4.721-7.57-4.693-12.032v-93.867c0-70.656,53.931-128,120.32-128h25.6
		C122.198,8.533,68.267,65.877,68.267,136.533z"/>
	<path style="fill:#FEDD0A;" d="M443.734,136.533V230.4c0.027,4.462-1.652,8.767-4.693,12.032
		c-2.902,3.207-7.025,5.036-11.349,5.035H84.31c-4.325,0.001-8.448-1.828-11.349-5.035c-3.042-3.265-4.721-7.57-4.693-12.032
		v-93.867c0-70.656,53.931-128,120.32-128h134.827C389.803,8.533,443.734,65.877,443.734,136.533z"/>
	<g>
		<polygon style="fill:#FFA800;" points="76.8,375.467 76.8,486.4 102.4,460.8 136.534,494.933 136.534,426.667 		"/>
		<polygon style="fill:#FFA800;" points="435.2,379.733 435.2,486.4 409.6,460.8 375.467,494.933 375.467,430.933 		"/>
		<path style="fill:#FFA800;" d="M452.267,247.467v100.096c0.016,4.517-0.347,9.027-1.085,13.483
			c-3.223,18.446-12.683,35.225-26.797,47.531l-63.11,56.661c-27.225,24.569-62.583,38.188-99.255,38.229h-3.506
			c-3.59,0-7.179-0.171-10.769-0.427c-32.865-2.465-63.985-15.76-88.487-37.803l-63.11-56.661
			c-14.114-12.306-23.573-29.085-26.797-47.531c-0.738-4.456-1.101-8.966-1.085-13.483V247.467l37.732-96.427
			c3.584-9.28,9.864-17.274,18.031-22.955c4.515-3.148,9.543-5.487,14.859-6.912c4.135-1.128,8.402-1.702,12.688-1.707
			c6.481,0.022,12.893,1.327,18.866,3.84c1.677,0.751,3.407,1.379,5.176,1.877c7.218,2.314,14.942,2.551,22.289,0.683l14.191-3.669
			l4.925-1.28c7.33-1.942,15.111-1.216,21.955,2.048c2.789,1.432,5.729,2.548,8.765,3.328c4.08,1.122,8.291,1.696,12.522,1.707
			c7.392,0.014,14.684-1.71,21.287-5.035c0.596-0.292,1.21-0.549,1.837-0.768c6.391-2.593,13.45-3.042,20.118-1.28l16.362,4.267
			l2.754,0.683c9.184,2.235,18.852,1.334,27.465-2.56c2.108-0.889,4.286-1.602,6.511-2.133c4.023-1.122,8.179-1.696,12.355-1.707
			c9.847-0.006,19.46,3.001,27.548,8.619c8.167,5.68,14.447,13.675,18.031,22.955L452.267,247.467z"/>
	</g>
	<path style="fill:#FFFFFF;" d="M256,501.589c-4.267,0.683-8.533,1.109-12.8,1.451c-33.464-2.411-65.225-15.684-90.453-37.803
		l-64.512-56.661c-14.361-12.192-24.044-28.992-27.392-47.531c-0.754-4.454-1.125-8.965-1.109-13.483V247.467l38.571-96.427
		c3.702-9.327,10.125-17.325,18.432-22.955c4.631-3.155,9.768-5.493,15.189-6.912c2.273,0.53,4.499,1.244,6.656,2.133
		c2.431,1.029,4.943,1.856,7.509,2.475c-1.3,0.686-2.554,1.456-3.755,2.304c-8.307,5.63-14.73,13.628-18.432,22.955l-38.571,96.427
		v100.096c-0.016,4.518,0.355,9.028,1.109,13.483c3.348,18.539,13.031,35.339,27.392,47.531l64.512,56.661
		C200.278,484.446,227.202,497.05,256,501.589z"/>
	<path style="fill:#FEDD0A;" d="M426.667,247.467v100.096c0.016,4.518-0.355,9.028-1.109,13.483
		c-3.348,18.539-13.031,35.339-27.392,47.531l-64.512,56.661c-21.931,19.209-48.855,31.813-77.653,36.352
		c-28.799-4.539-55.722-17.143-77.653-36.352l-64.512-56.661c-14.361-12.192-24.044-28.992-27.392-47.531
		c-0.754-4.454-1.125-8.965-1.109-13.483V247.467l38.571-96.427c3.702-9.327,10.125-17.325,18.432-22.955
		c1.201-0.848,2.455-1.618,3.755-2.304c6.742,1.735,13.809,1.764,20.565,0.085l2.816-0.683h0.085l16.64-4.267
		c6.818-1.762,14.019-1.314,20.565,1.28c0.646,0.204,1.274,0.461,1.877,0.768c6.77,3.329,14.216,5.052,21.76,5.035
		c4.323-0.01,8.626-0.584,12.8-1.707c0.085,0.085,0.085,0.085,0.171,0c3.044-0.779,5.992-1.896,8.789-3.328
		c7.017-3.266,14.951-3.99,22.443-2.048l5.035,1.28l14.507,3.669c7.513,1.868,15.396,1.632,22.784-0.683h0.085
		c1.778-0.498,3.518-1.126,5.205-1.877c6.12-2.516,12.669-3.82,19.285-3.84c4.379,0.005,8.739,0.578,12.971,1.707
		c5.421,1.419,10.558,3.757,15.189,6.912c8.307,5.63,14.73,13.628,18.432,22.955L426.667,247.467z"/>
	<g>
		<path d="M257.792,512h-3.584c-39.415,0.009-77.485-14.335-107.096-40.35L82.6,414.988c-15.849-13.518-26.518-32.115-30.188-52.621
			c-0.822-4.892-1.228-9.844-1.213-14.804V247.467h17.067v100.096c-0.015,4.03,0.314,8.055,0.983,12.029
			c3.033,16.622,11.741,31.675,24.638,42.592l64.492,56.642c26.494,23.28,60.56,36.116,95.829,36.108h3.584
			c35.269,0.008,69.335-12.828,95.829-36.108l64.512-56.662c12.857-10.878,21.548-25.874,24.596-42.437
			c0.682-4.018,1.017-8.087,1.004-12.162V247.467H460.8v100.096c0.013,5.005-0.399,10.002-1.233,14.938
			c-3.684,20.447-14.336,38.987-30.146,52.467l-64.533,56.683C335.277,497.665,297.208,512.009,257.792,512z"/>
		<path d="M452.267,256h-5.779l-40.717-101.787c-3.071-7.761-8.414-14.413-15.329-19.087c-11.652-7.779-26.413-9.245-39.367-3.908
			c-10.516,4.58-22.238,5.611-33.392,2.938l-19.554-4.929c-5.527-1.487-11.402-0.98-16.592,1.434
			c-16.158,7.683-34.917,7.683-51.075,0c-5.186-2.422-11.063-2.93-16.588-1.434l-19.563,4.929
			c-11.156,2.674-22.878,1.643-33.396-2.938c-12.965-5.348-27.744-3.873-39.396,3.933c-6.885,4.66-12.208,11.285-15.275,19.012
			L65.513,256h-5.779c-14.111-0.066-25.534-11.489-25.6-25.6v-25.604c0-4.713,3.821-8.533,8.533-8.533s8.533,3.821,8.533,8.533
			V230.4c-0.022,2.225,0.864,4.364,2.454,5.921c0.309,0.318,0.64,0.613,0.992,0.883l35.733-89.333
			c4.322-10.903,11.827-20.252,21.538-26.829c16.432-11.022,37.281-13.114,55.575-5.575c7.116,3.158,15.069,3.909,22.65,2.138
			l19.563-4.929c9.431-2.476,19.433-1.54,28.242,2.642c11.423,5.433,24.685,5.433,36.108,0c8.811-4.177,18.813-5.112,28.246-2.642
			l19.558,4.929c7.579,1.767,15.527,1.016,22.642-2.138c18.282-7.529,39.115-5.447,55.546,5.55
			c9.74,6.591,17.266,15.968,21.592,26.904l35.72,89.3c2.097-1.655,3.356-4.151,3.442-6.821v-93.867
			c-0.074-65.949-53.518-119.393-119.467-119.467H170.667C104.718,17.141,51.274,70.584,51.2,136.533
			c0,4.713-3.821,8.533-8.533,8.533s-8.533-3.821-8.533-8.533C34.22,61.164,95.297,0.086,170.667,0h170.667
			c75.37,0.086,136.447,61.164,136.533,136.533V230.4C477.801,244.511,466.378,255.934,452.267,256L452.267,256z"/>
		<path d="M42.667,179.2c-1.121,0.03-2.232-0.205-3.246-0.683c-1.032-0.434-1.983-1.04-2.813-1.791c-3.3-3.365-3.3-8.752,0-12.117
			c0.828-0.754,1.78-1.362,2.813-1.796c2.079-0.85,4.409-0.85,6.487,0c1.034,0.434,1.987,1.041,2.817,1.795
			c2.072,1.994,2.981,4.909,2.41,7.727c-0.571,2.818-2.542,5.15-5.227,6.181C44.897,178.995,43.786,179.229,42.667,179.2
			L42.667,179.2z"/>
		<path d="M136.534,503.467c-2.263,0.001-4.434-0.899-6.033-2.5l-28.1-28.1l-19.567,19.566c-2.44,2.441-6.11,3.171-9.299,1.85
			c-3.189-1.321-5.268-4.432-5.268-7.883v-85.333c0-4.713,3.821-8.533,8.533-8.533c4.713,0,8.533,3.82,8.533,8.533V465.8
			l11.034-11.034c1.6-1.601,3.77-2.5,6.033-2.5s4.433,0.899,6.033,2.5L128,474.333v-22.067c0-4.713,3.821-8.533,8.533-8.533
			c4.713,0,8.533,3.82,8.533,8.533v42.667C145.067,499.646,141.247,503.467,136.534,503.467z"/>
		<path d="M375.467,503.467c-4.713,0-8.533-3.821-8.533-8.533v-42.667c0-4.713,3.82-8.533,8.533-8.533s8.533,3.82,8.533,8.533
			v22.067l19.567-19.567c1.6-1.601,3.77-2.5,6.033-2.5s4.433,0.899,6.033,2.5l11.033,11.034v-64.733c0-4.713,3.82-8.533,8.533-8.533
			s8.533,3.82,8.533,8.533V486.4c0,3.451-2.079,6.563-5.268,7.883c-3.189,1.321-6.859,0.59-9.299-1.85L409.6,472.867l-28.1,28.1
			C379.901,502.568,377.73,503.467,375.467,503.467L375.467,503.467z"/>
	</g>
	<g>
		<path style="fill:#FFA800;" d="M221.14,255.993c0,0-18.679-35.654-56.037-30.561c-37.358,5.093-54.169,25.467-54.169,40.747
			s33.622,25.467,52.301,23.769s18.925-10.054,42.667-10.054c5.481-0.593,10.396-3.643,13.359-8.292
			C222.224,266.955,222.916,261.212,221.14,255.993L221.14,255.993z"/>
		<path style="fill:#FFA800;" d="M290.861,255.993c0,0,18.679-35.654,56.037-30.561c37.358,5.093,54.169,25.467,54.169,40.747
			s-33.622,25.467-52.301,23.769s-18.925-10.054-42.667-10.054c-5.481-0.593-10.396-3.643-13.359-8.292
			C289.777,266.955,289.085,261.212,290.861,255.993z"/>
	</g>
	<g>
		<path d="M159.042,298.663c-17.482,0.085-34.516-5.523-48.529-15.975c-4.971-4.066-7.931-10.089-8.113-16.508
			c0-19.658,19.262-43.437,61.55-49.2c42.779-5.825,63.867,33.379,64.746,35.054c0.321,0.611,0.566,1.259,0.729,1.929
			c2.368,8.509,0.617,17.635-4.733,24.663c-4.484,5.913-11.377,9.509-18.792,9.804c-7.483-0.336-14.932,1.205-21.667,4.483
			c-6.35,3.058-13.203,4.934-20.225,5.538C162.438,298.592,160.775,298.663,159.042,298.663z M172.28,233.475
			c-2.014,0.001-4.026,0.139-6.021,0.413c-34.088,4.646-46.792,22.271-46.792,32.292c0.346,1.571,1.254,2.961,2.554,3.908
			c11.828,8.209,26.069,12.211,40.442,11.362c5.183-0.444,10.236-1.855,14.9-4.158c8.896-4.246,18.686-6.28,28.538-5.929
			c2.156-0.328,4.089-1.508,5.367-3.275c1.916-2.591,2.577-5.901,1.804-9.029C204.718,244.14,189.347,234.499,172.28,233.475
			L172.28,233.475z"/>
		<path d="M352.959,298.663c-1.733,0-3.392-0.071-4.962-0.212c-7.023-0.603-13.878-2.479-20.229-5.538
			c-6.735-3.278-14.183-4.82-21.667-4.483c-7.414-0.295-14.308-3.892-18.792-9.804c-5.35-7.027-7.102-16.154-4.733-24.663
			c0.163-0.67,0.408-1.318,0.729-1.929c0.879-1.675,21.95-40.921,64.746-35.054c42.288,5.763,61.55,29.542,61.55,49.2
			c-0.182,6.419-3.142,12.443-8.112,16.508C387.475,293.14,370.44,298.747,352.959,298.663L352.959,298.663z M298.93,259.058
			c-0.773,3.128-0.112,6.438,1.804,9.029c1.278,1.767,3.211,2.947,5.367,3.275c9.851-0.351,19.641,1.683,28.538,5.929
			c4.665,2.304,9.72,3.714,14.904,4.158c14.371,0.85,28.612-3.152,40.438-11.362c1.3-0.947,2.208-2.337,2.554-3.908
			c0-10.021-12.704-27.646-46.792-32.292C317.763,230.096,301.954,253.921,298.93,259.058z"/>
		<path d="M110.93,213.333c-3.279-0.002-6.266-1.883-7.686-4.839c-1.42-2.956-1.02-6.463,1.027-9.024
			c0.383-0.488,39.458-47.925,104.763-10.612c2.647,1.512,4.286,4.322,4.299,7.37c0.014,3.048-1.6,5.872-4.233,7.408
			c-2.633,1.536-5.886,1.55-8.532,0.038c-52.775-30.158-81.758,4.946-82.971,6.454C115.979,212.158,113.524,213.337,110.93,213.333z
			"/>
		<path d="M401.071,213.333c-2.582,0.003-5.026-1.165-6.646-3.175c-1.308-1.592-30.708-36.375-82.992-6.483
			c-2.647,1.512-5.899,1.498-8.533-0.038s-4.247-4.36-4.233-7.408c0.014-3.048,1.652-5.858,4.299-7.37
			c65.288-37.333,104.375,10.121,104.763,10.612c2.048,2.561,2.447,6.068,1.027,9.024
			C407.337,211.45,404.35,213.331,401.071,213.333L401.071,213.333z"/>
		<path d="M274.963,366.933c-3.597-0.131-7.139-0.916-10.454-2.317l-1.283-0.463c-3.38-1.18-7.009-1.459-10.529-0.808
			c-1.502,0.324-2.979,0.753-4.421,1.283c-3.59,1.394-7.389,2.173-11.237,2.304c-8.383-0.885-16.101-4.968-21.55-11.4
			c-2.024-2.279-2.679-5.465-1.718-8.358c0.961-2.893,3.393-5.053,6.379-5.667c2.986-0.614,6.073,0.412,8.097,2.691
			c2.296,2.728,5.359,4.702,8.792,5.667c1.998-0.189,3.957-0.667,5.817-1.421c2.21-0.788,4.472-1.419,6.771-1.888
			c6.445-1.187,13.088-0.67,19.271,1.5l1.483,0.533c1.459,0.642,3.002,1.071,4.583,1.275c3.429-0.973,6.49-2.945,8.792-5.667
			c3.13-3.523,8.523-3.842,12.046-0.712c3.523,3.13,3.842,8.523,0.712,12.046C291.064,361.965,283.346,366.048,274.963,366.933z"/>
		<path d="M279.146,324.284c-2.572,0.002-5.008-1.157-6.629-3.154c-4.568-3.924-10.512-5.866-16.517-5.396
			c-6.003-0.466-11.945,1.473-16.517,5.392c-1.922,2.374-4.966,3.539-7.981,3.056c-3.016-0.483-5.543-2.541-6.627-5.396
			s-0.56-6.072,1.375-8.435c7.776-7.99,18.615-12.246,29.75-11.683c11.145-0.566,21.992,3.699,29.767,11.704
			c2.075,2.555,2.495,6.075,1.081,9.046C285.434,322.389,282.437,324.283,279.146,324.284L279.146,324.284z"/>
		<path d="M153.6,409.6c-4.713,0-8.533-3.821-8.533-8.533c0-35.508,48.029-42.321,50.071-42.592
			c4.671-0.627,8.967,2.652,9.594,7.323c0.627,4.671-2.652,8.967-7.323,9.594c-0.35,0.046-35.275,5.071-35.275,25.675
			C162.134,405.78,158.313,409.6,153.6,409.6z"/>
		<path d="M358.4,409.6c-4.713,0-8.533-3.821-8.533-8.533c0-20.404-34.908-25.629-35.262-25.675
			c-4.671-0.624-7.953-4.916-7.329-9.587c0.624-4.671,4.916-7.953,9.587-7.329c2.042,0.271,50.071,7.083,50.071,42.592
			C366.934,405.78,363.113,409.6,358.4,409.6z"/>
	</g>
	<path style="fill:#FFA800;" d="M324.267,426.667c-4.096,14.421-33.109,25.6-68.267,25.6s-64.171-11.179-68.267-25.6l0.085-1.536
		c6.841,0.414,13.574-1.851,18.773-6.315c3.968-3.482,8.618-6.097,13.653-7.68c6.733-2.063,13.934-2.033,20.651,0.085
		c9.78,3.413,20.428,3.413,30.208,0c6.716-2.118,13.917-2.148,20.651-0.085c5.036,1.583,9.686,4.198,13.653,7.68
		c5.2,4.464,11.933,6.729,18.773,6.315L324.267,426.667z"/>
	<g>
		<path d="M323.209,433.642c-8.672,0.252-17.116-2.805-23.617-8.55c-3.028-2.668-6.593-4.656-10.454-5.829
			c-5.073-1.546-10.497-1.498-15.542,0.137c-11.412,3.846-23.771,3.846-35.183,0c-5.05-1.625-10.477-1.672-15.554-0.133
			c-3.859,1.17-7.422,3.157-10.446,5.825c-10.049,8.026-23.394,10.617-35.717,6.933c-2.92-0.891-5.141-3.273-5.826-6.247
			c-0.685-2.975,0.271-6.089,2.507-8.167c2.236-2.078,5.411-2.804,8.328-1.903c6.532,1.909,13.577,0.744,19.146-3.167
			c4.819-4.332,10.517-7.571,16.704-9.496c8.419-2.672,17.46-2.659,25.871,0.037c8.152,2.813,17.011,2.813,25.163,0
			c8.406-2.689,17.439-2.703,25.854-0.042c6.189,1.928,11.89,5.169,16.713,9.5c5.584,3.917,12.648,5.078,19.191,3.154
			c4.498-1.336,9.23,1.211,10.594,5.701s-1.154,9.238-5.635,10.629C331.366,433.116,327.296,433.66,323.209,433.642z"/>
		<path d="M256,460.8c-32.504,0-70.3-9.954-76.479-31.812c-1.282-4.536,1.356-9.252,5.892-10.533s9.252,1.356,10.533,5.892
			c2.238,7.925,24.913,19.387,60.054,19.387s57.817-11.463,60.054-19.388c1.282-4.536,5.998-7.173,10.533-5.892
			c4.536,1.282,7.173,5.998,5.892,10.533C326.3,450.846,288.505,460.8,256,460.8z"/>
		<path d="M59.734,332.8H38.146c-12.95,0.37-24.298-8.605-26.921-21.292L0.563,253.183c-1.715-9.488,0.887-19.247,7.1-26.621
			c7.222-8.514,17.865-13.364,29.029-13.229h5.975c4.713,0,8.533,3.821,8.533,8.533c0,4.713-3.821,8.533-8.533,8.533h-5.975
			c-6.09-0.126-11.92,2.467-15.904,7.075c-2.997,3.468-4.261,8.108-3.437,12.617l10.671,58.392c1.232,4.51,5.459,7.537,10.125,7.25
			H51.2v-68.267c0-4.713,3.821-8.533,8.533-8.533s8.533,3.821,8.533,8.533v76.8C68.267,328.98,64.447,332.8,59.734,332.8z"/>
		<path d="M473.855,332.8h-21.588c-4.713,0-8.533-3.82-8.533-8.533v-76.8c0-4.713,3.821-8.533,8.533-8.533s8.533,3.821,8.533,8.533
			v68.267h13.054c4.652,0.288,8.872-2.717,10.121-7.208l10.671-58.408c0.83-4.516-0.432-9.165-3.433-12.642
			c-3.984-4.608-9.814-7.201-15.904-7.075h-5.975c-4.713,0-8.533-3.821-8.533-8.533c0-4.713,3.82-8.533,8.533-8.533h5.975
			c11.164-0.135,21.807,4.715,29.029,13.229c6.217,7.381,8.818,17.15,7.096,26.646l-10.663,58.342
			C498.132,324.219,486.79,333.173,473.855,332.8L473.855,332.8z"/>
	</g>
</g>
<g>
</g>
<g>
</g>
<g>
</g>
<g>
</g>
<g>
</g>
<g>
</g>
<g>
</g>
<g>
</g>
<g>
</g>
<g>
</g>
<g>
</g>
<g>
</g>
<g>
</g>
<g>
</g>
<g>
</g>
</svg>
