<?xml version="1.0" encoding="iso-8859-1"?>
<!-- Generator: Adobe Illustrator 19.0.0, SVG Export Plug-In . SVG Version: 6.00 Build 0)  -->
<svg version="1.1" id="Capa_1" xmlns="http://www.w3.org/2000/svg" xmlns:xlink="http://www.w3.org/1999/xlink" x="0px" y="0px"
	 viewBox="0 0 512.029 512.029" style="enable-background:new 0 0 512.029 512.029;" xml:space="preserve">
<g>
	<path style="fill:#FFA800;" d="M409.516,503.481c60.862-55.855,95.034-135,93.952-217.6c0-153.173-110.763-277.333-247.467-277.333
		S8.535,132.708,8.535,285.881c-1.082,82.6,33.09,161.745,93.952,217.6"/>
	<path style="fill:#FFFFFF;" d="M123.223,503.481h-25.6c-54.272-50.859-89.088-129.365-89.088-217.6
		C8.535,132.708,113.58,8.548,243.201,8.548c4.267,0,8.533,0.171,12.8,0.427C132.353,16.825,34.135,137.742,34.135,285.881
		C34.135,374.116,68.951,452.622,123.223,503.481z"/>
	<path style="fill:#FEDD0A;" d="M477.868,285.881c0,88.235-34.816,166.741-89.088,217.6H123.223
		c-54.272-50.859-89.088-129.365-89.088-217.6c0-148.139,98.219-269.056,221.867-276.907
		C379.649,16.825,477.868,137.742,477.868,285.881z"/>
	<path style="fill:#FFFFFF;" d="M107.009,424.889C46.337,392.974,7.084,341.945,7.084,284.43c0-52.907,33.195-100.352,85.76-132.352
		c-11.633,13.595-20.607,29.255-26.453,46.165c-20.415,24.123-31.817,54.588-32.256,86.187c0.285,27.964,9.295,55.142,25.771,77.739
		c3.8,17.527,13.243,33.324,26.88,44.971L107.009,424.889z"/>
	<path style="fill:#FFA800;" d="M134.06,424.889c-29.342-14.731-54.759-36.229-74.155-62.72
		c-16.476-22.597-25.485-49.774-25.771-77.739c0.439-31.599,11.841-62.064,32.256-86.187c14.995-18.402,33.105-34.027,53.504-46.165
		c-22.376,26.182-34.636,59.511-34.56,93.952v100.096c-0.016,4.518,0.355,9.028,1.109,13.483
		c3.383,18.526,13.059,35.315,27.392,47.531L134.06,424.889z"/>
	<g>
		<path d="M102.485,512.014c-2.09,0.003-4.107-0.764-5.667-2.154c-14.817-13.197-28.161-27.96-39.8-44.029
			c-2.768-3.815-1.92-9.152,1.896-11.921s9.152-1.92,11.921,1.896c10.912,15.072,23.423,28.918,37.316,41.296
			c2.651,2.352,3.571,6.098,2.312,9.411C109.204,509.826,106.029,512.016,102.485,512.014z"/>
		<path d="M409.518,512.014c-3.544,0.002-6.72-2.188-7.979-5.501c-1.259-3.313-0.338-7.059,2.312-9.412
			c59.095-54.195,92.235-131.046,91.083-211.221c0-148.217-107.183-268.8-238.933-268.8S17.068,137.664,17.068,285.881
			c-0.101,35.399,6.139,70.53,18.425,103.729c1.628,4.414-0.623,9.313-5.033,10.953c-4.41,1.64-9.315-0.598-10.967-5.003
			C6.5,360.457-0.102,323.311,0.001,285.881c0-157.629,114.842-285.867,256-285.867s256,128.237,256,285.867
			c1.152,85.051-34.075,166.546-96.817,223.979C413.625,511.251,411.607,512.018,409.518,512.014z"/>
		<path d="M40.959,435.214c-2.262-0.019-4.43-0.905-6.059-2.475c-0.753-0.83-1.359-1.783-1.792-2.817
			c-0.48-1.012-0.714-2.123-0.683-3.242c0.033-2.259,0.917-4.422,2.475-6.059c0.425-0.341,0.85-0.683,1.283-1.025
			c0.474-0.326,0.989-0.585,1.533-0.771c0.483-0.245,1-0.417,1.534-0.508c1.096-0.258,2.237-0.258,3.333,0
			c0.563,0.079,1.11,0.25,1.617,0.508c0.525,0.169,1.016,0.43,1.45,0.771c0.517,0.341,0.942,0.683,1.367,1.025
			c1.558,1.636,2.441,3.8,2.475,6.059c-0.014,1.115-0.246,2.216-0.683,3.242c-0.433,1.034-1.039,1.987-1.792,2.817
			c-0.417,0.389-0.875,0.732-1.367,1.021c-0.434,0.341-0.925,0.602-1.45,0.771c-0.507,0.257-1.054,0.431-1.617,0.513
			C42.047,435.141,41.504,435.198,40.959,435.214z"/>
	</g>
	<g>
		<path style="fill:#FEDD0A;" d="M450.817,246.03v100.096c0.016,4.518-0.355,9.028-1.109,13.483
			c-1.932,11.343-6.395,22.106-13.056,31.488c-4.13,5.893-8.942,11.278-14.336,16.043l-1.195,1.024l-19.029,16.725l-44.288,38.912
			c-28.05,24.652-64.118,38.242-101.461,38.229h-3.584c-3.413,0-6.827-0.085-10.24-0.341h-0.256
			c-4.523-0.341-8.96-0.853-13.397-1.536c-28.783-4.506-55.689-17.115-77.568-36.352l-44.288-38.912L87.98,408.164l-1.195-1.024
			c-5.394-4.765-10.205-10.149-14.336-16.043c-6.662-9.382-11.124-20.145-13.056-31.488c-0.754-4.454-1.125-8.965-1.109-13.483
			V246.03c-0.076-34.441,12.184-67.77,34.56-93.952c0.085,0,0.085-0.085,0.171-0.085v-0.085
			c45.244-26.494,96.49-41.031,148.907-42.24h0.597c4.011-0.085,8.021-0.171,12.032-0.171
			c56.697-0.787,112.538,13.874,161.536,42.411v0.085c0.085,0,0.085,0.085,0.171,0.085
			C438.633,178.26,450.893,211.59,450.817,246.03z"/>
		<path style="fill:#FEDD0A;" d="M426.668,246.03v100.096c0.016,4.518-0.355,9.028-1.109,13.483
			c-1.932,11.343-6.394,22.106-13.056,31.488c-4.131,5.893-8.943,11.278-14.336,16.043l-1.195,1.024l-19.029,16.725l-44.288,38.912
			c-25.407,22.274-57.427,35.586-91.136,37.888h-0.256c-4.523-0.341-8.96-0.853-13.397-1.536
			c-28.783-4.506-55.689-17.115-77.568-36.352l-44.288-38.912L87.98,408.164l-1.195-1.024c-5.394-4.765-10.205-10.149-14.336-16.043
			c-6.662-9.382-11.124-20.145-13.056-31.488c-0.754-4.454-1.125-8.965-1.109-13.483V246.03
			c-0.076-34.441,12.184-67.77,34.56-93.952c0.085,0,0.085-0.085,0.171-0.085v-0.085c45.244-26.494,96.49-41.031,148.907-42.24
			h0.597c52.59,1.13,104.021,15.669,149.419,42.24v0.085c0.085,0,0.085,0.085,0.171,0.085
			C414.484,178.26,426.744,211.59,426.668,246.03z"/>
	</g>
	<path style="fill:#FFA800;" d="M502.046,284.459c0,57.515-39.253,108.544-99.925,140.459l20.223-17.749
		c14.333-12.215,24.009-29.005,27.393-47.531c0.754-4.454,1.125-8.965,1.109-13.483V246.059c0.076-34.441-12.184-67.77-34.56-93.952
		C468.851,184.107,502.046,231.552,502.046,284.459z"/>
	<g>
		<path d="M257.793,512.014h-3.584c-39.414,0.008-77.482-14.336-107.092-40.35l-64.508-56.662
			c-15.81-13.534-26.472-32.103-30.192-52.579c-0.824-4.905-1.231-9.872-1.217-14.846V247.481
			c-0.028-36.553,13.022-71.91,36.792-99.679l12.95,11.117c-21.114,24.674-32.703,56.088-32.675,88.563v100.096
			c-0.013,4.03,0.316,8.055,0.983,12.029c3.072,16.608,11.775,31.65,24.642,42.592l64.492,56.642
			c26.492,23.281,60.557,36.117,95.825,36.108h3.584c35.268,0.008,69.333-12.828,95.825-36.108l64.525-56.662
			c12.829-10.918,21.513-25.917,24.592-42.479c0.678-4.004,1.012-8.06,1-12.121V247.481c0.028-32.475-11.561-63.888-32.675-88.563
			l12.95-11.117c23.769,27.769,36.82,63.126,36.792,99.679v100.096c0.013,5.005-0.399,10.002-1.233,14.938
			c-3.726,20.431-14.369,38.957-30.142,52.467l-64.542,56.683C335.275,497.679,297.207,512.022,257.793,512.014L257.793,512.014z"/>
		<rect x="85.335" y="392.548" width="341.333" height="17.067"/>
		<path d="M153.601,409.614h-8.533c-4.713,0-8.533-3.82-8.533-8.533s3.821-8.533,8.533-8.533h8.533
			c4.711-0.005,8.529-3.822,8.533-8.533v-17.067c0-4.713,3.82-8.533,8.533-8.533s8.533,3.82,8.533,8.533v17.067
			C179.186,398.146,167.733,409.599,153.601,409.614z"/>
		<path d="M196.268,409.614h-8.533c-14.132-0.015-25.585-11.468-25.6-25.6v-17.067c0-4.713,3.82-8.533,8.533-8.533
			s8.533,3.82,8.533,8.533v17.067c0.005,4.711,3.822,8.529,8.533,8.533h8.533c4.713,0,8.533,3.82,8.533,8.533
			S200.981,409.614,196.268,409.614z"/>
		<path d="M110.935,409.614h-8.533c-4.713,0-8.533-3.82-8.533-8.533s3.821-8.533,8.533-8.533h8.533
			c4.711-0.005,8.529-3.822,8.533-8.533v-17.067c0-4.713,3.821-8.533,8.533-8.533c4.713,0,8.533,3.82,8.533,8.533v17.067
			C136.519,398.146,125.067,409.599,110.935,409.614z"/>
		<path d="M153.601,409.614h-8.533c-14.132-0.015-25.585-11.468-25.6-25.6v-17.067c0-4.713,3.821-8.533,8.533-8.533
			c4.713,0,8.533,3.82,8.533,8.533v17.067c0.005,4.711,3.822,8.529,8.533,8.533h8.533c4.713,0,8.533,3.82,8.533,8.533
			S158.314,409.614,153.601,409.614z"/>
		<path d="M196.268,409.614h-8.533c-4.713,0-8.533-3.82-8.533-8.533s3.82-8.533,8.533-8.533h8.533
			c4.711-0.005,8.529-3.822,8.533-8.533v-17.067c0-4.713,3.821-8.533,8.533-8.533s8.533,3.82,8.533,8.533v17.067
			C221.852,398.146,210.4,409.599,196.268,409.614L196.268,409.614z"/>
		<path d="M238.935,409.614h-8.533c-14.132-0.015-25.585-11.468-25.6-25.6v-17.067c0-4.713,3.821-8.533,8.533-8.533
			s8.533,3.82,8.533,8.533v17.067c0.005,4.711,3.822,8.529,8.533,8.533h8.533c4.713,0,8.533,3.82,8.533,8.533
			S243.647,409.614,238.935,409.614z"/>
		<path d="M238.935,409.614h-8.533c-4.713,0-8.533-3.82-8.533-8.533s3.821-8.533,8.533-8.533h8.533
			c4.711-0.005,8.529-3.822,8.533-8.533v-17.067c0-4.713,3.821-8.533,8.533-8.533c4.713,0,8.533,3.82,8.533,8.533v17.067
			C264.519,398.146,253.067,409.599,238.935,409.614z"/>
		<path d="M281.601,409.614h-8.533c-14.132-0.015-25.585-11.468-25.6-25.6v-17.067c0-4.713,3.821-8.533,8.533-8.533
			c4.713,0,8.533,3.82,8.533,8.533v17.067c0.005,4.711,3.822,8.529,8.533,8.533h8.533c4.713,0,8.533,3.82,8.533,8.533
			S286.314,409.614,281.601,409.614z"/>
		<path d="M281.601,409.614h-8.533c-4.713,0-8.533-3.82-8.533-8.533s3.82-8.533,8.533-8.533h8.533
			c4.711-0.005,8.529-3.822,8.533-8.533v-17.067c0-4.713,3.821-8.533,8.533-8.533s8.533,3.82,8.533,8.533v17.067
			C307.186,398.146,295.733,409.599,281.601,409.614z"/>
		<path d="M324.268,409.614h-8.533c-14.132-0.015-25.585-11.468-25.6-25.6v-17.067c0-4.713,3.821-8.533,8.533-8.533
			s8.533,3.82,8.533,8.533v17.067c0.005,4.711,3.822,8.529,8.533,8.533h8.533c4.713,0,8.533,3.82,8.533,8.533
			S328.981,409.614,324.268,409.614z"/>
		<path d="M213.335,443.748c-2.263,0.001-4.434-0.898-6.035-2.499c-1.6-1.6-2.499-3.771-2.499-6.035v-17.067
			c-0.005-4.711-3.822-8.529-8.533-8.533h-8.533c-4.713,0-8.533-3.82-8.533-8.533s3.82-8.533,8.533-8.533h8.533
			c14.132,0.015,25.585,11.468,25.6,25.6v17.067c0.001,2.263-0.898,4.434-2.499,6.035
			C217.769,442.849,215.598,443.748,213.335,443.748z"/>
		<path d="M213.335,443.748c-2.263,0.001-4.434-0.898-6.035-2.499c-1.6-1.6-2.499-3.771-2.499-6.035v-17.067
			c0.015-14.132,11.468-25.585,25.6-25.6h8.533c4.713,0,8.533,3.82,8.533,8.533s-3.821,8.533-8.533,8.533h-8.533
			c-4.711,0.005-8.529,3.822-8.533,8.533v17.067c0.001,2.263-0.898,4.434-2.499,6.035
			C217.769,442.849,215.598,443.748,213.335,443.748z"/>
		<path d="M170.668,443.748c-2.263,0.001-4.434-0.898-6.035-2.499c-1.6-1.6-2.499-3.771-2.499-6.035v-17.067
			c-0.005-4.711-3.822-8.529-8.533-8.533h-8.533c-4.713,0-8.533-3.82-8.533-8.533s3.821-8.533,8.533-8.533h8.533
			c14.132,0.015,25.585,11.468,25.6,25.6v17.067c0.001,2.263-0.898,4.434-2.499,6.035
			C175.102,442.849,172.931,443.748,170.668,443.748z"/>
		<path d="M170.668,443.748c-2.263,0.001-4.434-0.898-6.035-2.499c-1.6-1.6-2.499-3.771-2.499-6.035v-17.067
			c0.015-14.132,11.468-25.585,25.6-25.6h8.533c4.713,0,8.533,3.82,8.533,8.533s-3.82,8.533-8.533,8.533h-8.533
			c-4.711,0.005-8.529,3.822-8.533,8.533v17.067c0.001,2.263-0.898,4.434-2.499,6.035
			C175.102,442.849,172.931,443.748,170.668,443.748z"/>
		<path d="M256.001,443.748c-2.263,0.001-4.434-0.898-6.035-2.499c-1.6-1.6-2.499-3.771-2.499-6.035v-17.067
			c-0.005-4.711-3.822-8.529-8.533-8.533h-8.533c-4.713,0-8.533-3.82-8.533-8.533s3.821-8.533,8.533-8.533h8.533
			c14.132,0.015,25.585,11.468,25.6,25.6v17.067c0.001,2.263-0.898,4.434-2.499,6.035
			C260.435,442.849,258.265,443.748,256.001,443.748z"/>
		<path d="M256.001,443.748c-2.263,0.001-4.434-0.898-6.035-2.499c-1.6-1.6-2.499-3.771-2.499-6.035v-17.067
			c0.015-14.132,11.468-25.585,25.6-25.6h8.533c4.713,0,8.533,3.82,8.533,8.533s-3.82,8.533-8.533,8.533h-8.533
			c-4.711,0.005-8.529,3.822-8.533,8.533v17.067c0.001,2.263-0.898,4.434-2.499,6.035
			C260.435,442.849,258.265,443.748,256.001,443.748z"/>
		<path d="M298.668,443.748c-2.263,0.001-4.434-0.898-6.035-2.499c-1.6-1.6-2.499-3.771-2.499-6.035v-17.067
			c-0.005-4.711-3.822-8.529-8.533-8.533h-8.533c-4.713,0-8.533-3.82-8.533-8.533s3.82-8.533,8.533-8.533h8.533
			c14.132,0.015,25.585,11.468,25.6,25.6v17.067c0.001,2.263-0.898,4.434-2.499,6.035
			C303.102,442.849,300.931,443.748,298.668,443.748z"/>
		<path d="M298.668,443.748c-2.263,0.001-4.434-0.898-6.035-2.499c-1.6-1.6-2.499-3.771-2.499-6.035v-17.067
			c0.015-14.132,11.468-25.585,25.6-25.6h8.533c4.713,0,8.533,3.82,8.533,8.533s-3.821,8.533-8.533,8.533h-8.533
			c-4.711,0.005-8.529,3.822-8.533,8.533v17.067c0.001,2.263-0.898,4.434-2.499,6.035
			C303.102,442.849,300.931,443.748,298.668,443.748z"/>
		<path d="M341.335,443.748c-2.263,0.001-4.434-0.898-6.035-2.499c-1.6-1.6-2.499-3.771-2.499-6.035v-17.067
			c-0.005-4.711-3.822-8.529-8.533-8.533h-8.533c-4.713,0-8.533-3.82-8.533-8.533s3.82-8.533,8.533-8.533h8.533
			c14.132,0.015,25.585,11.468,25.6,25.6v17.067c0.001,2.263-0.898,4.434-2.499,6.035
			C345.769,442.849,343.598,443.748,341.335,443.748z"/>
		<path d="M341.335,443.748c-2.263,0.001-4.434-0.898-6.035-2.499c-1.6-1.6-2.499-3.771-2.499-6.035v-17.067
			c0.015-14.132,11.468-25.585,25.6-25.6h8.533c4.713,0,8.533,3.82,8.533,8.533s-3.82,8.533-8.533,8.533h-8.533
			c-4.711,0.005-8.529,3.822-8.533,8.533v17.067c0.001,2.263-0.898,4.434-2.499,6.035
			C345.769,442.849,343.598,443.748,341.335,443.748z"/>
		<path d="M324.268,409.614h-8.533c-4.713,0-8.533-3.82-8.533-8.533s3.82-8.533,8.533-8.533h8.533
			c4.711-0.005,8.529-3.822,8.533-8.533v-17.067c0-4.713,3.82-8.533,8.533-8.533s8.533,3.82,8.533,8.533v17.067
			C349.852,398.146,338.4,409.599,324.268,409.614z"/>
		<path d="M366.935,409.614h-8.533c-14.132-0.015-25.585-11.468-25.6-25.6v-17.067c0-4.713,3.82-8.533,8.533-8.533
			s8.533,3.82,8.533,8.533v17.067c0.005,4.711,3.822,8.529,8.533,8.533h8.533c4.713,0,8.533,3.82,8.533,8.533
			S371.647,409.614,366.935,409.614L366.935,409.614z"/>
		<path d="M366.935,409.614h-8.533c-4.713,0-8.533-3.82-8.533-8.533s3.821-8.533,8.533-8.533h8.533
			c4.711-0.005,8.529-3.822,8.533-8.533v-17.067c0-4.713,3.821-8.533,8.533-8.533c4.713,0,8.533,3.82,8.533,8.533v17.067
			C392.519,398.146,381.067,409.599,366.935,409.614z"/>
		<path d="M409.601,409.614h-8.533c-14.132-0.015-25.585-11.468-25.6-25.6v-17.067c0-4.713,3.821-8.533,8.533-8.533
			c4.713,0,8.533,3.82,8.533,8.533v17.067c0.005,4.711,3.822,8.529,8.533,8.533h8.533c4.713,0,8.533,3.82,8.533,8.533
			S414.314,409.614,409.601,409.614z"/>
		<path d="M409.518,512.014H102.485c-4.713,0-8.533-3.82-8.533-8.533c0-4.713,3.821-8.533,8.533-8.533h307.033
			c4.713,0,8.533,3.821,8.533,8.533C418.051,508.194,414.231,512.014,409.518,512.014z"/>
	</g>
	<g>
		<path style="fill:#FEDD0A;" d="M213.335,302.948c-2.263,0.001-4.434-0.898-6.035-2.499c-1.6-1.6-2.499-3.771-2.499-6.035v-51.2
			c0-4.713,3.821-8.533,8.533-8.533s8.533,3.821,8.533,8.533v51.2c0.001,2.263-0.898,4.434-2.499,6.035
			C217.769,302.049,215.598,302.948,213.335,302.948z"/>
		<path style="fill:#FEDD0A;" d="M298.668,302.948c-2.263,0.001-4.434-0.898-6.035-2.499c-1.6-1.6-2.499-3.771-2.499-6.035v-51.2
			c0-4.713,3.821-8.533,8.533-8.533s8.533,3.821,8.533,8.533v51.2c0.001,2.263-0.898,4.434-2.499,6.035
			C303.102,302.049,300.931,302.948,298.668,302.948z"/>
		<path style="fill:#FEDD0A;" d="M187.735,328.548c-2.263,0.001-4.434-0.898-6.035-2.499c-1.6-1.6-2.499-3.771-2.499-6.035v-25.6
			c0-4.713,3.82-8.533,8.533-8.533s8.533,3.821,8.533,8.533v25.6c0.001,2.263-0.898,4.434-2.499,6.035
			C192.169,327.649,189.998,328.548,187.735,328.548L187.735,328.548z"/>
		<path style="fill:#FEDD0A;" d="M332.801,328.548c-2.263,0.001-4.434-0.898-6.035-2.499c-1.6-1.6-2.499-3.771-2.499-6.035v-17.067
			c0-4.713,3.82-8.533,8.533-8.533s8.533,3.82,8.533,8.533v17.067c0.001,2.263-0.898,4.434-2.499,6.035
			C337.235,327.649,335.065,328.548,332.801,328.548L332.801,328.548z"/>
	</g>
	<g>
		<circle style="fill:#FFA800;" cx="157.868" cy="247.481" r="55.467"/>
		<circle style="fill:#FFA800;" cx="354.135" cy="247.481" r="55.467"/>
	</g>
	<g>
		<path d="M157.868,311.481c-35.346,0-64-28.654-64-64s28.654-64,64-64s64,28.654,64,64
			C221.829,282.811,193.198,311.442,157.868,311.481L157.868,311.481z M157.868,200.548c-25.921,0-46.933,21.013-46.933,46.933
			s21.013,46.933,46.933,46.933s46.933-21.013,46.933-46.933C204.77,221.573,183.776,200.578,157.868,200.548z"/>
		<path d="M354.135,311.481c-35.346,0-64-28.654-64-64s28.654-64,64-64s64,28.654,64,64
			C418.096,282.811,389.465,311.442,354.135,311.481L354.135,311.481z M354.135,200.548c-18.983,0-36.096,11.435-43.361,28.973
			c-7.264,17.538-3.249,37.725,10.174,51.148s33.61,17.438,51.147,10.174c17.538-7.264,28.973-24.378,28.973-43.361
			C401.037,221.573,380.042,200.578,354.135,200.548z"/>
		<path d="M213.335,302.948c-2.263,0.001-4.434-0.898-6.035-2.499c-1.6-1.6-2.499-3.771-2.499-6.035v-51.2
			c0-4.713,3.821-8.533,8.533-8.533s8.533,3.821,8.533,8.533v51.2c0.001,2.263-0.898,4.434-2.499,6.035
			C217.769,302.049,215.598,302.948,213.335,302.948z"/>
		<path d="M298.668,302.948c-2.263,0.001-4.434-0.898-6.035-2.499c-1.6-1.6-2.499-3.771-2.499-6.035v-51.2
			c0-4.713,3.821-8.533,8.533-8.533s8.533,3.821,8.533,8.533v51.2c0.001,2.263-0.898,4.434-2.499,6.035
			C303.102,302.049,300.931,302.948,298.668,302.948z"/>
		<path d="M187.735,328.548c-2.263,0.001-4.434-0.898-6.035-2.499c-1.6-1.6-2.499-3.771-2.499-6.035v-25.6
			c0-4.713,3.82-8.533,8.533-8.533s8.533,3.821,8.533,8.533v25.6c0.001,2.263-0.898,4.434-2.499,6.035
			C192.169,327.649,189.998,328.548,187.735,328.548L187.735,328.548z"/>
		<path d="M332.801,328.548c-2.263,0.001-4.434-0.898-6.035-2.499c-1.6-1.6-2.499-3.771-2.499-6.035v-17.067
			c0-4.713,3.82-8.533,8.533-8.533s8.533,3.82,8.533,8.533v17.067c0.001,2.263-0.898,4.434-2.499,6.035
			C337.235,327.649,335.065,328.548,332.801,328.548L332.801,328.548z"/>
		<path d="M403.551,434.873c-3.925,0.002-7.346-2.674-8.289-6.484c-0.943-3.81,0.833-7.773,4.306-9.603
			c60.609-31.875,95.367-80.317,95.367-132.905c0-47.925-29.825-93.538-81.833-125.146l-4.1-2.529
			c-46.758-26.01-99.498-39.359-153-38.725c-53.938-0.656-107.096,12.925-154.108,39.375l-2.992,1.879
			c-52.008,31.608-81.833,77.221-81.833,125.146c0,52.588,34.758,101.029,95.367,132.904c4.172,2.195,5.775,7.357,3.579,11.529
			s-7.357,5.775-11.529,3.579C39.06,399.481,0.001,344.148,0.001,285.881c0-52.717,31.25-102.492,85.933-137.183v-0.042l4.092-2.579
			c50.363-29.284,107.721-44.373,165.975-43.662c58.254-0.711,115.612,14.378,165.975,43.662l4.092,2.621
			c54.683,34.692,85.933,84.467,85.933,137.183c0,58.267-39.058,113.6-104.483,148.012
			C406.295,434.538,404.933,434.874,403.551,434.873z"/>
	</g>
</g>
<g>
</g>
<g>
</g>
<g>
</g>
<g>
</g>
<g>
</g>
<g>
</g>
<g>
</g>
<g>
</g>
<g>
</g>
<g>
</g>
<g>
</g>
<g>
</g>
<g>
</g>
<g>
</g>
<g>
</g>
</svg>
