<?xml version="1.0" encoding="iso-8859-1"?>
<!-- Generator: Adobe Illustrator 19.0.0, SVG Export Plug-In . SVG Version: 6.00 Build 0)  -->
<svg version="1.1" id="Capa_1" xmlns="http://www.w3.org/2000/svg" xmlns:xlink="http://www.w3.org/1999/xlink" x="0px" y="0px"
	 viewBox="0 0 512.029 512.029" style="enable-background:new 0 0 512.029 512.029;" xml:space="preserve">
<g>
	<path style="fill:#FFA800;" d="M409.517,503.481c60.862-55.855,95.034-135,93.952-217.6c0-153.173-110.763-277.333-247.467-277.333
		S8.535,132.708,8.535,285.881c-1.082,82.6,33.09,161.745,93.952,217.6"/>
	<path style="fill:#FFFFFF;" d="M123.223,503.481h-25.6c-54.272-50.859-89.088-129.365-89.088-217.6
		c0-153.173,105.045-277.333,234.667-277.333c4.267,0,8.533,0.171,12.8,0.427C132.354,16.825,34.135,137.743,34.135,285.881
		C34.135,374.116,68.951,452.623,123.223,503.481z"/>
	<path style="fill:#FEDD0A;" d="M477.869,285.881c0,88.235-34.816,166.741-89.088,217.6H123.223
		c-54.272-50.859-89.088-129.365-89.088-217.6c0-148.139,98.219-269.056,221.867-276.907
		C379.65,16.825,477.869,137.743,477.869,285.881z"/>
	<path style="fill:#FFA800;" d="M178.605,483.599c-9.219-5.222-17.883-11.369-25.856-18.347l-26.197-23.04
		c-10.607-9.2-21.936-17.532-33.877-24.917C41.047,385.209,8.535,338.276,8.535,285.881c0-52.821,33.109-100.267,85.589-132.181
		c-22.274,26.162-34.47,59.421-34.389,93.781v30.976c0.003,31.142,14.164,60.594,38.485,80.043
		C128.685,382.82,167.853,424.548,178.605,483.599z"/>
	<path style="fill:#FFFFFF;" d="M178.605,483.599c-9.219-5.222-17.883-11.369-25.856-18.347l-26.197-23.04
		c-10.607-9.2-21.936-17.532-33.877-24.917C41.047,385.209,8.535,338.276,8.535,285.881c0-52.821,33.109-100.267,85.589-132.181
		c-10.854,12.681-19.377,27.184-25.173,42.837l-0.085,0.085c-21.899,24.63-34.224,56.305-34.731,89.259
		c0,52.395,32.512,99.328,84.139,131.413c11.942,7.385,23.271,15.718,33.877,24.917l20.48,18.005
		C175.183,467.857,177.179,475.671,178.605,483.599L178.605,483.599z"/>
	<g>
		<path d="M102.485,512.015c-2.09,0.003-4.107-0.764-5.667-2.154c-12.077-10.75-23.176-22.551-33.167-35.263
			c-1.893-2.393-2.364-5.615-1.235-8.45c1.13-2.835,3.687-4.85,6.708-5.285c3.02-0.435,6.043,0.776,7.927,3.177
			c9.372,11.915,19.78,22.979,31.1,33.063c2.651,2.352,3.571,6.099,2.312,9.412C109.205,509.827,106.029,512.016,102.485,512.015
			L102.485,512.015z"/>
		<path d="M409.519,512.015c-3.544,0.002-6.72-2.188-7.979-5.501c-1.259-3.313-0.338-7.059,2.312-9.412
			c59.095-54.195,92.235-131.046,91.083-211.221c0-148.217-107.183-268.8-238.933-268.8S17.069,137.665,17.069,285.881
			c-0.134,38.354,7.205,76.366,21.608,111.913c1.162,2.825,0.726,6.055-1.145,8.47c-1.87,2.415-4.889,3.646-7.915,3.227
			c-3.026-0.419-5.597-2.423-6.741-5.256C7.632,366.646-0.138,326.445,0.002,285.881c0-157.629,114.842-285.867,256-285.867
			s256,128.237,256,285.867c1.152,85.051-34.075,166.546-96.817,223.979C413.626,511.251,411.608,512.018,409.519,512.015z"/>
		<path d="M46.077,443.748c-2.27,0.022-4.453-0.87-6.058-2.475c-1.605-1.605-2.497-3.788-2.475-6.058
			c0.013-1.116,0.245-2.219,0.683-3.246c1.033-2.683,3.365-4.652,6.183-5.222s5.731,0.339,7.726,2.409
			c0.792,0.798,1.404,1.757,1.792,2.813c0.442,1.026,0.674,2.129,0.683,3.246c0.022,2.27-0.87,4.453-2.475,6.058
			C50.53,442.878,48.347,443.77,46.077,443.748L46.077,443.748z"/>
	</g>
	<g>
		<path style="fill:#FEDD0A;" d="M452.269,247.481v30.976c-0.003,31.142-14.163,60.594-38.485,80.043
			c-23.953,18.768-44.134,41.903-59.477,68.181c-3.178,5.53-6.055,11.227-8.619,17.067c-5.618,12.766-9.741,26.138-12.287,39.851
			h-0.085c-23.028,13.054-49.05,19.905-75.521,19.883h-3.584c-3.67,0-7.34-0.171-11.008-0.427
			c-22.685-1.6-44.726-8.247-64.513-19.456h-0.085c-2.546-13.713-6.669-27.085-12.287-39.851c-2.564-5.84-5.441-11.537-8.619-17.067
			c-15.343-26.279-35.525-49.413-59.477-68.181c-24.322-19.449-38.483-48.901-38.485-80.043v-30.976
			c-0.076-34.415,12.185-67.718,34.56-93.867v-0.085c0.085,0,0.085-0.085,0.171-0.085v-0.085
			c45.209-26.492,96.434-41.002,148.821-42.155c1.45-0.085,2.817-0.171,4.267-0.171c2.817-0.085,5.631-0.085,8.448-0.085
			c28.697-0.079,57.288,3.505,85.077,10.667c26.914,6.748,52.68,17.446,76.459,31.744v0.085c0.085,0,0.085,0.085,0.171,0.171
			C440.083,179.764,452.345,213.066,452.269,247.481z"/>
		<path style="fill:#FEDD0A;" d="M426.669,247.481v30.976c-0.003,31.142-14.163,60.594-38.485,80.043
			c-23.953,18.768-44.134,41.903-59.477,68.181c-3.178,5.53-6.055,11.227-8.619,17.067c-5.618,12.766-9.741,26.138-12.287,39.851
			h-0.085c-19.787,11.209-41.828,17.856-64.513,19.456c-22.685-1.6-44.726-8.247-64.513-19.456h-0.085
			c-2.546-13.713-6.669-27.085-12.287-39.851c-2.564-5.84-5.441-11.537-8.619-17.067c-15.343-26.279-35.525-49.413-59.477-68.181
			c-24.322-19.449-38.483-48.901-38.485-80.043v-30.976c-0.076-34.415,12.185-67.718,34.56-93.867v-0.085
			c0.085,0,0.085-0.085,0.171-0.085v-0.085c45.209-26.492,96.434-41.002,148.821-42.155c24.374,0.806,48.584,4.297,72.192,10.411
			c26.914,6.748,52.68,17.446,76.459,31.744v0.085c0.085,0,0.085,0.085,0.171,0.171
			C414.483,179.764,426.745,213.066,426.669,247.481L426.669,247.481z"/>
	</g>
	<g>
		<path style="fill:#FFA800;" d="M341.079,121.615c-5.283,49.101-33.734,92.713-76.544,117.333
			c16.896-33.707-16.213-125.696-16.981-127.915l-0.085-0.085"/>
		<path style="fill:#FFA800;" d="M503.469,285.881c0,52.395-32.512,99.328-84.139,131.413
			c-11.942,7.385-23.271,15.718-33.877,24.917l-26.197,23.04c-7.973,6.978-16.637,13.125-25.856,18.347
			c10.752-59.051,49.92-100.779,80.384-125.099c24.322-19.449,38.482-48.901,38.485-80.043v-30.976
			c0.076-34.415-12.186-67.717-34.56-93.867C470.274,185.529,503.469,232.975,503.469,285.881z"/>
	</g>
	<path style="fill:#D22047;" d="M398.509,248.079v0.085c-22.357,58.197-53.163,63.488-75.947,56.747
		c-10.55-3.297-20.31-8.728-28.672-15.957l17.493-23.808c7.367-10.118,18.832-16.459,31.317-17.323
		c1.132-0.144,2.273-0.201,3.413-0.171L398.509,248.079z"/>
	<path style="fill:#DB4E6C;" d="M369.154,248.079v0.085c-13.653,35.499-30.379,51.285-46.592,56.747
		c-10.55-3.297-20.31-8.728-28.672-15.957l17.493-23.808c7.367-10.118,18.832-16.459,31.317-17.323L369.154,248.079z"/>
	<g>
		<path d="M287.352,311.977c-0.903,0-1.801-0.145-2.658-0.429c-4.477-1.469-6.917-6.289-5.45-10.767
			c0.875-2.662,21.65-65.246,78.167-61.388c44.35,2.967,56.317-2.833,56.433-2.892c1.864-1.232,4.146-1.66,6.33-1.19
			s4.087,1.801,5.279,3.69c2.543,4.027,1.394,9.348-2.583,11.967c-3.175,2.116-17.35,8.783-66.608,5.45
			c-43.067-2.683-60.633,49.154-60.8,49.679C294.313,309.605,291.041,311.977,287.352,311.977z"/>
		<path d="M337.66,315.736c-18.251-1.048-35.622-8.195-49.325-20.296c-2.328-1.979-3.42-5.052-2.863-8.056s2.679-5.481,5.562-6.493
			c2.883-1.012,6.087-0.405,8.401,1.592c5.717,4.892,26,20.458,47.125,15.092c17.45-4.413,32.208-22.021,43.892-52.338
			c1.401-3.827,5.292-6.148,9.325-5.563c2.235,0.337,4.244,1.55,5.584,3.371s1.9,4.099,1.558,6.334
			c-0.095,0.622-0.254,1.232-0.475,1.821c-13.792,35.892-32.533,57.062-55.692,62.921C346.472,315.2,342.074,315.743,337.66,315.736
			L337.66,315.736z"/>
		<path d="M409.519,512.015H102.485c-4.713,0-8.533-3.821-8.533-8.533c0-4.713,3.821-8.533,8.533-8.533h307.033
			c4.713,0,8.533,3.821,8.533,8.533C418.052,508.194,414.231,512.015,409.519,512.015z"/>
		<path d="M257.794,512.015h-3.584c-27.169-0.001-53.901-6.839-77.733-19.883h-0.025l-2.042-1.104
			c-9.722-5.506-18.858-11.988-27.267-19.346L120.91,448.64c-10.221-8.902-21.154-16.95-32.692-24.062
			C32.152,389.744,0.002,339.19,0.002,285.881c0-52.717,31.25-102.492,85.933-137.183v-0.042l4.092-2.579
			c50.363-29.284,107.721-44.373,165.975-43.662c58.254-0.711,115.612,14.378,165.975,43.662l4.092,2.621
			c54.683,34.692,85.933,84.467,85.933,137.183c0,53.308-32.15,103.863-88.217,138.7c-11.538,7.11-22.472,15.157-32.692,24.058
			l-26.208,23.025c-8.417,7.363-17.561,13.85-27.292,19.362l-2.067,1.104C311.695,505.176,284.963,512.014,257.794,512.015z
			 M181.219,475.265l1.683,0.912c21.751,12.306,46.317,18.773,71.308,18.771h3.584c24.991,0.002,49.557-6.465,71.308-18.771
			l2.025-1.112c7.995-4.701,15.533-10.139,22.517-16.242l26.183-23.008c10.93-9.519,22.622-18.125,34.958-25.733
			c50.933-31.65,80.15-76.921,80.15-124.2c0-47.925-29.825-93.538-81.833-125.146l-4.1-2.529
			c-46.758-26.01-99.498-39.359-153-38.725c-53.941-0.656-107.102,12.927-154.117,39.379l-2.983,1.875
			c-52.008,31.608-81.833,77.221-81.833,125.146c0,47.279,29.217,92.55,80.15,124.2c12.336,7.608,24.028,16.215,34.958,25.733
			l26.208,23.025C165.458,465.027,173.103,470.527,181.219,475.265L181.219,475.265z"/>
		<path d="M178.694,492.131h-0.092c-4.122,0.003-7.655-2.944-8.392-7c-10.275-56.279-47.708-96.313-77.308-119.987
			c-26.404-20.999-41.763-52.914-41.7-86.65v-31.013c-0.03-36.466,12.951-71.746,36.608-99.496c1.681-1.93,4.099-3.062,6.658-3.117
			c2.259-0.01,4.429,0.88,6.03,2.474c1.601,1.593,2.502,3.759,2.503,6.018c0,2.361-0.967,4.62-2.675,6.25
			c-20.729,24.584-32.086,55.713-32.058,87.871v31.013c-0.05,28.55,12.952,55.557,35.3,73.325
			c31.717,25.371,71.834,68.379,83.267,129.387c0.231,0.776,0.349,1.582,0.35,2.392c0.01,2.259-0.88,4.429-2.473,6.03
			S180.953,492.13,178.694,492.131z"/>
		<path d="M333.402,492.131c-2.707,0.011-5.259-1.26-6.88-3.427c-1.621-2.168-2.12-4.975-1.345-7.568
			c11.458-60.975,51.55-103.954,83.258-129.317c22.348-17.768,35.35-44.775,35.3-73.325v-31.013
			c0.022-32.247-11.417-63.452-32.275-88.046c-2.271-2.299-3.053-5.682-2.021-8.744c1.032-3.062,3.702-5.282,6.902-5.737
			c3.2-0.455,6.382,0.932,8.227,3.585l0.05,0.075c23.354,27.651,36.172,62.673,36.183,98.867v31.013
			c0.063,33.736-15.296,65.651-41.7,86.65c-29.6,23.675-67.033,63.708-77.308,119.987
			C341.057,489.187,337.524,492.135,333.402,492.131L333.402,492.131z"/>
		<path d="M274.969,392.548c-3.607-0.131-7.159-0.919-10.483-2.325l-1.267-0.458c-3.378-1.169-7-1.446-10.517-0.804
			c-1.503,0.324-2.982,0.753-4.425,1.283c-3.591,1.394-7.392,2.173-11.242,2.304c-8.38-0.886-16.096-4.969-21.542-11.4
			c-2.036-2.276-2.701-5.467-1.742-8.366s3.395-5.065,6.387-5.678c2.992-0.613,6.083,0.421,8.104,2.711
			c2.296,2.728,5.359,4.702,8.792,5.667c2-0.189,3.963-0.667,5.825-1.421c2.208-0.79,4.469-1.421,6.767-1.888
			c6.446-1.182,13.089-0.665,19.275,1.5l1.458,0.529c1.467,0.644,3.019,1.075,4.608,1.279c3.428-0.974,6.489-2.946,8.792-5.667
			c2.023-2.285,5.112-3.315,8.101-2.702c2.989,0.613,5.423,2.777,6.383,5.673c0.96,2.897,0.298,6.085-1.734,8.362
			C291.064,387.579,283.349,391.662,274.969,392.548L274.969,392.548z"/>
		<path d="M349.869,443.748H162.135c-4.713,0-8.533-3.821-8.533-8.533s3.821-8.533,8.533-8.533h187.733
			c4.713,0,8.533,3.82,8.533,8.533S354.581,443.748,349.869,443.748z"/>
		<path d="M264.535,247.481c-2.958-0.002-5.704-1.536-7.258-4.054c-1.553-2.518-1.692-5.66-0.367-8.305
			c11.742-23.429-5.35-87.054-17.3-120.954c-1.515-3.748-0.188-8.044,3.176-10.286c3.364-2.241,7.84-1.81,10.715,1.032
			c0.941,0.941,1.663,2.078,2.116,3.329c6.675,18.946,24.608,73.983,21.95,111.892c31.067-24.331,50.925-60.232,55.026-99.479
			c0.529-4.685,4.756-8.054,9.442-7.525s8.054,4.756,7.525,9.442c-5.42,52.038-35.675,98.239-81.208,124.008
			C267.167,247.173,265.86,247.481,264.535,247.481L264.535,247.481z"/>
		<path d="M204.802,460.815c-2.263,0.001-4.434-0.898-6.035-2.499c-1.6-1.6-2.499-3.771-2.499-6.035v-17.067
			c0-4.713,3.821-8.533,8.533-8.533s8.533,3.82,8.533,8.533v17.067c0.001,2.263-0.898,4.434-2.499,6.035
			C209.236,459.916,207.065,460.815,204.802,460.815L204.802,460.815z"/>
		<path d="M238.935,477.881c-2.263,0.001-4.434-0.898-6.035-2.499c-1.6-1.6-2.499-3.771-2.499-6.035v-34.133
			c0-4.713,3.821-8.533,8.533-8.533s8.533,3.82,8.533,8.533v34.133c0.001,2.263-0.898,4.434-2.499,6.035
			C243.369,476.983,241.199,477.882,238.935,477.881L238.935,477.881z"/>
	</g>
	<path style="fill:#FEDD0A;" d="M179.202,384.015c-2.263,0.001-4.434-0.898-6.035-2.499c-1.6-1.6-2.499-3.771-2.499-6.035v-8.533
		c0-4.713,3.82-8.533,8.533-8.533s8.533,3.82,8.533,8.533v8.533c0.001,2.263-0.898,4.434-2.499,6.035
		C183.636,383.116,181.465,384.015,179.202,384.015L179.202,384.015z"/>
	<path style="fill:#D22047;" d="M218.285,288.953c-9.078,7.864-19.811,13.581-31.403,16.725
		c-21.248,5.205-48.725-0.853-69.803-49.408c-1.109-2.56-2.218-5.291-3.328-8.107v-0.085l52.224-0.427
		c13.656-0.105,26.536,6.335,34.645,17.323L218.285,288.953z"/>
	<path style="fill:#DB4E6C;" d="M198.487,297.316c-3.639,3.093-7.52,5.89-11.605,8.363c-21.248,5.205-48.725-0.853-69.803-49.408
		l29.013-0.256c13.684-0.126,26.599,6.316,34.731,17.323L198.487,297.316z"/>
	<g>
		<path d="M224.844,311.969c-3.681-0.002-6.945-2.363-8.1-5.858c-0.725-2.146-18.108-52.467-60.8-49.692
			c-49.225,3.308-63.433-3.333-66.608-5.45c-3.885-2.628-4.921-7.899-2.319-11.802c2.602-3.903,7.866-4.974,11.786-2.398
			l-0.009-0.004c0.117,0.004,12.342,5.583,56,2.629c56.4-3.863,77.283,58.725,78.158,61.388c0.844,2.599,0.395,5.444-1.208,7.656
			C230.14,310.65,227.576,311.962,224.844,311.969L224.844,311.969z"/>
		<path d="M174.544,315.736c-4.414,0.007-8.812-0.536-13.092-1.617c-23.158-5.858-41.9-27.029-55.692-62.921
			c-0.922-2.414-0.707-5.114,0.587-7.351c1.294-2.237,3.527-3.77,6.08-4.174c4.129-0.635,8.111,1.812,9.408,5.783
			c11.667,30.183,26.4,47.717,43.808,52.117c21.133,5.337,41.408-10.2,47.125-15.092c2.313-1.997,5.517-2.604,8.401-1.592
			c2.883,1.012,5.005,3.489,5.562,6.493c0.557,3.004-0.535,6.077-2.863,8.056C210.165,307.541,192.795,314.688,174.544,315.736z"/>
		<path d="M179.202,341.348c-2.263,0.001-4.434-0.898-6.035-2.499c-1.6-1.6-2.499-3.771-2.499-6.035v-25.6
			c0-4.713,3.82-8.533,8.533-8.533s8.533,3.82,8.533,8.533v25.6c0.001,2.263-0.898,4.434-2.499,6.035
			C183.636,340.45,181.465,341.349,179.202,341.348L179.202,341.348z"/>
		<path d="M179.202,384.015c-2.263,0.001-4.434-0.898-6.035-2.499c-1.6-1.6-2.499-3.771-2.499-6.035v-8.533
			c0-4.713,3.82-8.533,8.533-8.533s8.533,3.82,8.533,8.533v8.533c0.001,2.263-0.898,4.434-2.499,6.035
			C183.636,383.116,181.465,384.015,179.202,384.015L179.202,384.015z"/>
		<path d="M145.069,332.815c-2.263,0.001-4.434-0.898-6.035-2.499c-1.6-1.6-2.499-3.771-2.499-6.035v-25.6
			c0-4.713,3.821-8.533,8.533-8.533s8.533,3.82,8.533,8.533v25.6c0.001,2.263-0.898,4.434-2.499,6.035
			C149.503,331.916,147.332,332.815,145.069,332.815L145.069,332.815z"/>
	</g>
</g>
<g>
</g>
<g>
</g>
<g>
</g>
<g>
</g>
<g>
</g>
<g>
</g>
<g>
</g>
<g>
</g>
<g>
</g>
<g>
</g>
<g>
</g>
<g>
</g>
<g>
</g>
<g>
</g>
<g>
</g>
</svg>
