<?xml version="1.0" encoding="iso-8859-1"?>
<!-- Generator: Adobe Illustrator 19.0.0, SVG Export Plug-In . SVG Version: 6.00 Build 0)  -->
<svg version="1.1" id="Capa_1" xmlns="http://www.w3.org/2000/svg" xmlns:xlink="http://www.w3.org/1999/xlink" x="0px" y="0px"
	 viewBox="0 0 512.016 512.016" style="enable-background:new 0 0 512.016 512.016;" xml:space="preserve">
<g transform="translate(0 -1)">
	<path style="fill:#FFA800;" d="M313.891,113.83l-8.992,11.108c-3.142,3.939-7.903,6.238-12.942,6.248H165.394
		c-47.158,0.786-84.767,39.621-84.04,86.78v120.19c-22.008-34.628-33.67-74.821-33.616-115.851
		c0-99.449,51.684-182.671,143.455-210.441c5.159-1.503,10.511-2.234,15.884-2.169c5.738,0.018,11.356,1.641,16.22,4.686
		l23.867,14.753c6.376,4.068,9.452,11.746,7.648,19.092l-0.168,0.607c-1.325,5.104-0.246,10.534,2.93,14.744
		c3.176,4.21,8.102,6.738,13.373,6.864h12.102c9.421,0.181,16.929,7.934,16.808,17.356v11.542
		C299.747,107.209,306.021,113.688,313.891,113.83z"/>
	<path style="fill:#FFFFFF;" d="M65.094,222.305c-0.009,20.216,2.915,40.327,8.678,59.704v56.146
		c-11.375-17.343-20.147-36.259-26.034-56.146c-5.763-19.377-8.687-39.488-8.678-59.704c0-99.449,53.369-182.671,148.133-210.441
		l1.041-0.26c2.123,0.694,4.161,1.626,6.075,2.777l4.079,2.43C112.91,48.572,65.094,128.149,65.094,222.305z"/>
	<path style="fill:#FEDD0A;" d="M287.858,131.186H160.552c-47.92,0.017-86.762,38.86-86.78,86.78v64.043
		c-5.763-19.377-8.687-39.488-8.678-59.704c0-94.156,47.816-173.733,133.294-205.494l20.567,12.323
		c6.533,3.945,9.734,11.685,7.897,19.092l-0.174,0.607c-1.297,5.189-0.134,10.686,3.154,14.905
		c3.287,4.219,8.333,6.691,13.682,6.703h12.496c9.574,0.028,17.328,7.782,17.356,17.356v11.542
		c0.694,9.912,3.727,19.517,8.852,28.03v0.087C283.451,129.473,285.517,130.84,287.858,131.186z"/>
	<path style="fill:#FFA800;" d="M472.959,217.966v127.826c0.016,4.594-0.361,9.181-1.128,13.711
		c-3.405,18.853-13.251,35.938-27.856,48.336l-8.852,7.723v0.087l-56.754,49.812c-28.547,25.033-65.213,38.848-103.181,38.877
		h-3.645c-3.732,0-7.463-0.174-11.195-0.434c-34.033-2.444-66.335-15.944-91.986-38.443l-56.754-49.812v-0.087l-8.852-7.723
		c-14.605-12.398-24.451-29.484-27.856-48.336c-0.767-4.53-1.144-9.117-1.128-13.711V217.966c0.017-47.92,38.86-86.762,86.78-86.78
		h130.69c5.162,0.009,10.06-2.281,13.364-6.248l3.471-4.165l2.43-2.864l3.384-4.079h11.542c9.574,0.028,17.328,7.782,17.356,17.356
		v8.678c0.028,9.574,7.782,17.328,17.356,17.356h51.46c5.797-0.02,11.213,2.884,14.405,7.723l7.116,10.587
		c3.192,4.839,8.608,7.743,14.405,7.723h5.814c7.696-0.115,14.518,4.931,16.662,12.323
		C471.965,202.879,472.957,210.406,472.959,217.966L472.959,217.966z"/>
	<path style="fill:#FEDD0A;" d="M446.925,217.966v127.826c0.016,4.594-0.361,9.181-1.128,13.711
		c-3.405,18.853-13.251,35.938-27.856,48.336l-8.852,7.723v0.087l-56.754,49.812c-22.292,19.551-49.677,32.371-78.969,36.968
		c-29.292-4.598-56.677-17.417-78.969-36.968l-56.754-49.812v-0.087l-8.852-7.723c-14.605-12.398-24.451-29.484-27.856-48.336
		c-0.767-4.53-1.144-9.117-1.128-13.711V217.966c0.017-47.92,38.86-86.762,86.78-86.78h104.656
		c5.162,0.009,10.06-2.281,13.364-6.248l3.471-4.165l2.43-2.864l3.384-4.079h11.542c4.05,0.022,7.97,1.431,11.108,3.992v0.087
		c3.96,3.272,6.251,8.141,6.248,13.277v8.678c0.028,9.574,7.782,17.328,17.356,17.356h25.426c5.797-0.02,11.213,2.884,14.405,7.723
		l7.116,10.587c3.192,4.839,8.608,7.743,14.405,7.723h5.814c7.696-0.115,14.518,4.931,16.662,12.323
		C445.931,202.879,446.923,210.406,446.925,217.966z"/>
	<g>
		<path style="fill:#FFA800;" d="M195.264,486.982h-83.247c-6.226,0.029-11.987-3.291-15.084-8.693
			c-3.097-5.401-3.051-12.051,0.12-17.409c8.273-13.786,13.253-29.294,14.555-45.318"/>
		<path style="fill:#FFA800;" d="M435.123,415.563c1.302,16.024,6.282,31.533,14.555,45.318c3.171,5.358,3.217,12.007,0.12,17.409
			c-3.097,5.401-8.858,8.721-15.084,8.693h-83.247"/>
		<path style="fill:#FFA800;" d="M446.925,146.426l-0.26,36.828c-5.602-0.188-10.754-3.118-13.781-7.836l-7.02-10.796
			c-0.758-1.206-1.693-2.292-2.773-3.221c-2.652-2.519-6.068-4.082-9.707-4.44c-0.625-0.144-1.266-0.202-1.906-0.174h-51.393
			c-9.689-0.123-17.447-8.072-17.334-17.761v-8.794c0.082-9.677-7.658-17.607-17.334-17.761h-11.527
			c-8.052-0.084-14.522-6.661-14.473-14.714V85.916c0.076-9.66-7.674-17.562-17.334-17.674h-13
			c-5.379-0.065-10.418-2.643-13.617-6.967c-3.199-4.325-4.19-9.897-2.677-15.06l0.174-0.61c1.858-7.522-1.323-15.387-7.887-19.502
			l2.34-2.177h47.754c13.868,0.061,27.133,5.674,36.834,15.584l3.12,3.221c4.828,4.956,11.454,7.751,18.374,7.749h5.46
			c16.087,0.15,29.997,11.251,33.714,26.903l0.693,2.96c0.766,3.26,3.672,5.566,7.02,5.572h0.087
			c12.017,0.147,22.403,8.429,25.221,20.112l2.86,11.841c0.488,2.204,1.956,4.064,3.987,5.05v0.087
			C441.327,127.516,446.874,136.546,446.925,146.426L446.925,146.426z"/>
	</g>
	<path style="fill:#FEDD0A;" d="M423.177,146.426l-0.086,14.975c-2.652-2.519-6.068-4.082-9.707-4.44
		c-0.625-0.144-1.266-0.202-1.906-0.174h-51.394c-9.689-0.123-17.447-8.072-17.334-17.761v-8.794
		c0.082-9.677-7.658-17.607-17.334-17.761h-11.527c-8.052-0.084-14.522-6.661-14.473-14.714V85.916
		c0.076-9.66-7.674-17.562-17.334-17.674h-13c-5.379-0.065-10.418-2.643-13.617-6.967c-3.199-4.325-4.19-9.897-2.677-15.06
		l0.174-0.61c1.858-7.522-1.323-15.387-7.887-19.502l2.34-2.177h24.007c13.868,0.061,27.133,5.674,36.834,15.584l3.12,3.221
		c4.828,4.956,11.454,7.751,18.374,7.749h5.46c16.087,0.15,29.997,11.251,33.714,26.903l0.693,2.96
		c0.766,3.26,3.672,5.566,7.021,5.572h0.087c12.017,0.147,22.403,8.429,25.221,20.112l2.86,11.841
		c0.488,2.204,1.956,4.064,3.987,5.05v0.087C417.581,127.516,423.127,136.546,423.177,146.426L423.177,146.426z"/>
	<path style="fill:#FFFFFF;" d="M273.365,502.429c-4.252,0.694-8.678,1.128-13.017,1.475c-34.033-2.444-66.335-15.944-91.986-38.443
		l-56.754-49.812v-0.087l-8.852-7.723c-14.605-12.398-24.451-29.484-27.856-48.336c-0.767-4.53-1.144-9.117-1.128-13.711V217.966
		c0.017-47.92,38.86-86.762,86.78-86.78h26.034c-47.92,0.017-86.762,38.86-86.78,86.78v127.826
		c-0.016,4.594,0.361,9.181,1.128,13.711c3.405,18.853,13.251,35.938,27.856,48.336l8.852,7.723v0.087l56.754,49.812
		C216.688,485.012,244.073,497.832,273.365,502.429z"/>
	<g>
		<path d="M275.188,513.016h-3.645c-40.085,0.005-78.801-14.583-108.915-41.038L97.026,414.36
			c-16.119-13.747-26.97-32.66-30.703-53.513c-0.833-4.975-1.244-10.011-1.229-15.055V217.966
			c0.06-52.695,42.763-95.398,95.458-95.458h130.686c2.589,0.006,5.046-1.142,6.703-3.131l1.576-1.881
			c-5.556-4.387-8.797-11.077-8.797-18.157V87.796c-0.005-4.791-3.887-8.673-8.678-8.678H269.56
			c-8.016-0.001-15.585-3.695-20.518-10.013s-6.68-14.557-4.737-22.334c1.219-3.871-0.34-8.076-3.788-10.216l-24.627-14.775
			c-8.179-4.03-17.638-4.592-26.237-1.559C111.577,43.11,59.145,107.669,49.391,192.919c-0.592,4.732-4.857,8.124-9.602,7.636
			c-2.287-0.261-4.377-1.42-5.809-3.223c-1.432-1.802-2.089-4.1-1.826-6.387C42.721,98.533,99.772,28.487,184.772,3.567
			c13.253-4.342,27.697-3.141,40.051,3.331l24.627,14.775c9.867,5.86,14.694,17.52,11.856,28.64
			c-0.864,2.773-0.337,5.793,1.415,8.11c1.638,2.114,4.165,3.347,6.839,3.339h12.483c14.372,0.016,26.018,11.662,26.034,26.034
			v11.542c0.004,3.196,2.584,5.791,5.78,5.814h11.576c14.372,0.016,26.018,11.662,26.034,26.034v8.678
			c0.005,4.791,3.887,8.673,8.678,8.678h51.458c8.706-0.008,16.839,4.344,21.661,11.593l7.051,10.576
			c1.607,2.417,4.318,3.868,7.22,3.864h5.839c11.624-0.113,21.881,7.58,25.026,18.771c2.149,8.03,3.237,16.306,3.237,24.619v127.826
			c0.014,5.09-0.406,10.172-1.254,15.191c-3.745,20.793-14.576,39.647-30.653,53.356l-65.627,57.64
			C353.988,498.434,315.272,513.021,275.188,513.016z M160.552,139.864c-43.114,0.049-78.053,34.987-78.102,78.102v127.826
			c-0.013,4.099,0.321,8.191,1,12.233c3.085,16.904,11.942,32.214,25.059,43.314l65.576,57.598
			c26.946,23.674,61.589,36.729,97.457,36.724h3.645c35.869,0.005,70.512-13.05,97.458-36.725l65.601-57.619
			c13.072-11.064,21.909-26.314,25.009-43.157c0.695-4.086,1.038-8.224,1.025-12.369V217.966c0.002-6.794-0.886-13.56-2.644-20.123
			c-1.136-3.587-4.501-5.994-8.263-5.911h-5.839c-8.706,0.008-16.839-4.344-21.661-11.593l-7.051-10.576
			c-1.607-2.417-4.318-3.868-7.22-3.864h-51.458c-14.372-0.016-26.018-11.662-26.034-26.034v-8.678
			c-0.005-4.791-3.887-8.673-8.678-8.678h-7.483l-6.686,8c-4.954,5.938-12.292,9.367-20.025,9.356H160.552z"/>
		<path d="M39.06,235.321c-1.134-0.014-2.254-0.25-3.297-0.695c-1.051-0.44-2.02-1.056-2.865-1.822
			c-0.766-0.844-1.382-1.813-1.822-2.864c-0.488-1.029-0.726-2.159-0.694-3.297c0.03-2.298,0.929-4.499,2.517-6.161
			c0.843-0.768,1.812-1.386,2.864-1.826c2.104-0.909,4.489-0.909,6.593,0c1.051,0.442,2.02,1.06,2.865,1.826
			c1.584,1.664,2.483,3.864,2.517,6.161c-0.014,1.134-0.25,2.254-0.695,3.297c-0.42,1.062-1.038,2.034-1.822,2.864
			c-0.846,0.764-1.814,1.38-2.864,1.822C41.314,235.072,40.194,235.308,39.06,235.321z"/>
		<path d="M73.781,346.834c-2.931,0.003-5.665-1.472-7.271-3.924c-15.959-24.251-26.951-51.426-32.339-79.953
			c-0.58-3.049,0.512-6.175,2.864-8.199c2.353-2.024,5.607-2.637,8.535-1.608c2.928,1.029,5.083,3.544,5.651,6.595
			c4.97,26.282,15.103,51.317,29.814,73.657c1.743,2.666,1.887,6.073,0.373,8.876C79.894,345.081,76.967,346.83,73.781,346.834z"/>
		<path d="M237.704,242.122c-4.053-0.007-7.562-2.815-8.458-6.767c-0.246-0.911-10.754-37.144-92.432-37.144
			c-0.847,0-1.746-0.03-2.551,0.013c-4.793,0.021-8.695-3.847-8.716-8.64s3.847-8.695,8.64-8.716
			c99.924-1.11,111.576,48.686,112.017,50.801c0.982,4.69-2.023,9.287-6.712,10.271
			C238.904,242.061,238.305,242.122,237.704,242.122L237.704,242.122z"/>
		<path d="M309.213,242.042c-2.594-0.008-5.048-1.176-6.69-3.184c-1.642-2.008-2.3-4.645-1.793-7.189
			c0.432-2.093,11.763-50.814,109.39-50.814c0.873,0,1.746,0.004,2.627,0.013c4.793,0.021,8.661,3.923,8.64,8.716
			s-3.923,8.661-8.716,8.64c-0.85,0.046-1.702,0.042-2.551-0.013c-82.305,0-92.347,36.78-92.441,37.157
			C316.717,239.268,313.23,242.017,309.213,242.042z"/>
		<path d="M195.264,495.66h-83.246c-9.446,0.061-18.172-5.04-22.754-13.301c-4.638-8.072-4.498-18.032,0.364-25.97
			c7.586-12.654,12.151-26.888,13.339-41.594c0.469-4.748,4.65-8.249,9.407-7.877c2.293,0.202,4.413,1.307,5.891,3.072
			c1.478,1.765,2.194,4.045,1.99,6.339c-1.415,17.344-6.815,34.128-15.78,49.042c-1.586,2.588-1.622,5.839-0.093,8.462
			c1.535,2.775,4.464,4.49,7.635,4.471h83.246c4.793,0,8.678,3.885,8.678,8.678C203.942,491.775,200.056,495.66,195.264,495.66z"/>
		<path d="M434.713,495.66h-83.246c-4.793,0-8.678-3.885-8.678-8.678c0-4.793,3.885-8.678,8.678-8.678h83.246
			c3.172,0.02,6.101-1.695,7.636-4.47c1.529-2.623,1.493-5.873-0.093-8.462c-8.965-14.915-14.365-31.698-15.78-49.042
			c-0.424-4.774,3.103-8.987,7.877-9.411c4.774-0.424,8.987,3.103,9.411,7.877c1.188,14.706,5.753,28.94,13.339,41.593
			c4.863,7.938,5.002,17.899,0.364,25.97C452.885,490.621,444.159,495.721,434.713,495.66L434.713,495.66z"/>
		<path d="M447.535,191.932c-4.752-0.002-8.62-3.824-8.678-8.576l-0.424-36.191c-0.062-6.504-3.769-12.423-9.593-15.318
			c-4.262-2.128-7.382-6.011-8.542-10.631l-2.898-11.597c-1.924-7.732-8.871-13.155-16.839-13.144
			c-7.331,0.013-13.727-4.975-15.5-12.089l-0.729-2.915c-2.89-11.592-13.307-19.722-25.254-19.708h-5.509
			c-9.201-0.025-18.02-3.679-24.542-10.169l-3.161-3.161c-8.12-8.16-19.167-12.734-30.678-12.703h-47.856
			c-4.793,0-8.678-3.885-8.678-8.678s3.885-8.678,8.678-8.678h47.856c16.119-0.041,31.586,6.363,42.958,17.788l3.161,3.165
			c3.258,3.243,7.665,5.069,12.263,5.081h5.509c19.918-0.024,37.285,13.536,42.093,32.864l0.466,1.864
			c15.528,0.462,28.851,11.2,32.602,26.275l2.78,11.123c11.416,5.875,18.641,17.586,18.771,30.424l0.424,36.195
			c0.056,4.793-3.784,8.724-8.577,8.78H447.535z"/>
		<path d="M325.433,87.796c-4.793,0-8.678-3.885-8.678-8.678c0-4.793,3.885-8.678,8.678-8.678c4.791-0.005,8.673-3.887,8.678-8.678
			v-8.678c0-4.793,3.885-8.678,8.678-8.678s8.678,3.885,8.678,8.678v8.678C351.451,76.134,339.805,87.78,325.433,87.796z"/>
		<path d="M377.501,131.186c-4.793,0-8.678-3.885-8.678-8.678c0-4.793,3.885-8.678,8.678-8.678c4.791-0.005,8.673-3.887,8.678-8.678
			V87.796c0-4.793,3.885-8.678,8.678-8.678c4.793,0,8.678,3.885,8.678,8.678v17.356C403.519,119.524,391.873,131.17,377.501,131.186
			L377.501,131.186z"/>
	</g>
	<path id="SVGCleanerId_0" d="M299.399,191.932c-2.302,0.001-4.509-0.913-6.137-2.541c-1.628-1.628-2.542-3.835-2.541-6.137v-52.068
		c0-4.793,3.885-8.678,8.678-8.678s8.678,3.885,8.678,8.678v52.068c0.001,2.302-0.914,4.509-2.541,6.137
		C303.909,191.018,301.701,191.932,299.399,191.932z"/>
	<path id="SVGCleanerId_1" d="M264.687,165.898c-2.302,0.001-4.509-0.913-6.137-2.541c-1.628-1.628-2.542-3.835-2.541-6.137v-26.034
		c0-4.793,3.885-8.678,8.678-8.678c4.793,0,8.678,3.885,8.678,8.678v26.034c0.001,2.302-0.913,4.509-2.541,6.137
		C269.197,164.984,266.989,165.898,264.687,165.898z"/>
	<g>
		<rect x="99.806" y="391.525" width="347.119" height="17.356"/>
		<path d="M169.23,408.881h-8.678c-4.793,0-8.678-3.885-8.678-8.678c0-4.793,3.885-8.678,8.678-8.678h8.678
			c4.791-0.005,8.673-3.887,8.678-8.678v-17.356c0-4.793,3.885-8.678,8.678-8.678c4.793,0,8.678,3.885,8.678,8.678v17.356
			C195.248,397.219,183.601,408.865,169.23,408.881z"/>
		<path d="M212.62,408.881h-8.678c-14.372-0.016-26.018-11.662-26.034-26.034v-17.356c0-4.793,3.885-8.678,8.678-8.678
			c4.793,0,8.678,3.885,8.678,8.678v17.356c0.005,4.791,3.887,8.673,8.678,8.678h8.678c4.793,0,8.678,3.885,8.678,8.678
			C221.298,404.996,217.412,408.881,212.62,408.881z"/>
		<path d="M125.84,408.881h-8.678c-4.793,0-8.678-3.885-8.678-8.678c0-4.793,3.885-8.678,8.678-8.678h8.678
			c4.791-0.005,8.673-3.887,8.678-8.678v-17.356c0-4.793,3.885-8.678,8.678-8.678c4.793,0,8.678,3.885,8.678,8.678v17.356
			C151.858,397.219,140.212,408.865,125.84,408.881z"/>
		<path d="M169.23,408.881h-8.678c-14.372-0.016-26.018-11.662-26.034-26.034v-17.356c0-4.793,3.885-8.678,8.678-8.678
			c4.793,0,8.678,3.885,8.678,8.678v17.356c0.005,4.791,3.887,8.673,8.678,8.678h8.678c4.793,0,8.678,3.885,8.678,8.678
			C177.908,404.996,174.023,408.881,169.23,408.881z"/>
		<path d="M212.62,408.881h-8.678c-4.793,0-8.678-3.885-8.678-8.678c0-4.793,3.885-8.678,8.678-8.678h8.678
			c4.791-0.005,8.673-3.887,8.678-8.678c0-4.793,3.885-8.678,8.678-8.678c4.793,0,8.678,3.885,8.678,8.678
			C238.638,397.219,226.991,408.865,212.62,408.881L212.62,408.881z"/>
		<path d="M256.009,408.881h-8.678c-14.372-0.016-26.018-11.662-26.034-26.034c0-4.793,3.885-8.678,8.678-8.678
			c4.793,0,8.678,3.885,8.678,8.678c0.005,4.791,3.887,8.673,8.678,8.678h8.678c4.793,0,8.678,3.885,8.678,8.678
			C264.687,404.996,260.802,408.881,256.009,408.881z"/>
		<path d="M256.009,408.881h-8.678c-4.793,0-8.678-3.885-8.678-8.678c0-4.793,3.885-8.678,8.678-8.678h8.678
			c4.791-0.005,8.673-3.887,8.678-8.678c0-4.793,3.885-8.678,8.678-8.678c4.793,0,8.678,3.885,8.678,8.678
			C282.028,397.219,270.381,408.865,256.009,408.881z"/>
		<path d="M299.399,408.881h-8.678c-14.372-0.016-26.018-11.662-26.034-26.034c0-4.793,3.885-8.678,8.678-8.678
			c4.793,0,8.678,3.885,8.678,8.678c0.005,4.791,3.887,8.673,8.678,8.678h8.678c4.793,0,8.678,3.885,8.678,8.678
			C308.077,404.996,304.192,408.881,299.399,408.881z"/>
		<path d="M299.399,408.881h-8.678c-4.793,0-8.678-3.885-8.678-8.678c0-4.793,3.885-8.678,8.678-8.678h8.678
			c4.791-0.005,8.673-3.887,8.678-8.678c0-4.793,3.885-8.678,8.678-8.678s8.678,3.885,8.678,8.678
			C325.418,397.219,313.771,408.865,299.399,408.881z"/>
		<path d="M342.789,408.881h-8.678c-14.372-0.016-26.018-11.662-26.034-26.034c0-4.793,3.885-8.678,8.678-8.678
			s8.678,3.885,8.678,8.678c0.005,4.791,3.887,8.673,8.678,8.678h8.678c4.793,0,8.678,3.885,8.678,8.678
			C351.467,404.996,347.582,408.881,342.789,408.881z"/>
		<path d="M229.976,443.593c-2.302,0.001-4.509-0.913-6.137-2.541c-1.628-1.628-2.542-3.835-2.541-6.137v-17.356
			c-0.005-4.791-3.887-8.673-8.678-8.678h-8.678c-4.793,0-8.678-3.885-8.678-8.678c0-4.793,3.885-8.678,8.678-8.678h8.678
			c14.372,0.016,26.018,11.662,26.034,26.034v17.356c0.001,2.302-0.914,4.509-2.541,6.137
			C234.485,442.679,232.277,443.593,229.976,443.593z"/>
		<path d="M229.976,443.593c-2.302,0.001-4.509-0.913-6.137-2.541c-1.628-1.628-2.542-3.835-2.541-6.137v-17.356
			c0.016-14.372,11.662-26.018,26.034-26.034h8.678c4.793,0,8.678,3.885,8.678,8.678c0,4.793-3.885,8.678-8.678,8.678h-8.678
			c-4.791,0.005-8.673,3.887-8.678,8.678v17.356c0.001,2.302-0.914,4.509-2.541,6.137
			C234.485,442.679,232.277,443.593,229.976,443.593z"/>
		<path d="M186.586,443.593c-2.302,0.001-4.509-0.913-6.137-2.541c-1.628-1.628-2.542-3.835-2.541-6.137v-17.356
			c-0.005-4.791-3.887-8.673-8.678-8.678h-8.678c-4.793,0-8.678-3.885-8.678-8.678c0-4.793,3.885-8.678,8.678-8.678h8.678
			c14.372,0.016,26.018,11.662,26.034,26.034v17.356c0.001,2.302-0.913,4.509-2.541,6.137
			C191.095,442.679,188.887,443.593,186.586,443.593z"/>
		<path d="M186.586,443.593c-2.302,0.001-4.509-0.913-6.137-2.541c-1.628-1.628-2.542-3.835-2.541-6.137v-17.356
			c0.016-14.372,11.662-26.018,26.034-26.034h8.678c4.793,0,8.678,3.885,8.678,8.678c0,4.793-3.885,8.678-8.678,8.678h-8.678
			c-4.791,0.005-8.673,3.887-8.678,8.678v17.356c0.001,2.302-0.913,4.509-2.541,6.137
			C191.095,442.679,188.887,443.593,186.586,443.593z"/>
		<path d="M273.365,443.593c-2.302,0.001-4.509-0.913-6.137-2.541s-2.542-3.835-2.541-6.137v-17.356
			c-0.005-4.791-3.887-8.673-8.678-8.678h-8.678c-4.793,0-8.678-3.885-8.678-8.678c0-4.793,3.885-8.678,8.678-8.678h8.678
			c14.372,0.016,26.018,11.662,26.034,26.034v17.356c0.001,2.302-0.914,4.509-2.541,6.137
			C277.875,442.679,275.667,443.593,273.365,443.593z"/>
		<path d="M273.365,443.593c-2.302,0.001-4.509-0.913-6.137-2.541s-2.542-3.835-2.541-6.137v-17.356
			c0.016-14.372,11.662-26.018,26.034-26.034h8.678c4.793,0,8.678,3.885,8.678,8.678c0,4.793-3.885,8.678-8.678,8.678h-8.678
			c-4.791,0.005-8.673,3.887-8.678,8.678v17.356c0.001,2.302-0.914,4.509-2.541,6.137
			C277.875,442.679,275.667,443.593,273.365,443.593z"/>
		<path d="M316.755,443.593c-2.302,0.001-4.509-0.913-6.137-2.541s-2.542-3.835-2.541-6.137v-17.356
			c-0.005-4.791-3.887-8.673-8.678-8.678h-8.678c-4.793,0-8.678-3.885-8.678-8.678c0-4.793,3.885-8.678,8.678-8.678h8.678
			c14.372,0.016,26.018,11.662,26.034,26.034v17.356c0.001,2.302-0.914,4.509-2.541,6.137
			C321.265,442.679,319.057,443.593,316.755,443.593z"/>
		<path d="M316.755,443.593c-2.302,0.001-4.509-0.913-6.137-2.541s-2.542-3.835-2.541-6.137v-17.356
			c0.016-14.372,11.662-26.018,26.034-26.034h8.678c4.793,0,8.678,3.885,8.678,8.678c0,4.793-3.885,8.678-8.678,8.678h-8.678
			c-4.791,0.005-8.673,3.887-8.678,8.678v17.356c0.001,2.302-0.914,4.509-2.541,6.137
			C321.265,442.679,319.057,443.593,316.755,443.593z"/>
		<path d="M360.145,443.593c-2.302,0.001-4.509-0.913-6.137-2.541s-2.542-3.835-2.541-6.137v-17.356
			c-0.005-4.791-3.887-8.673-8.678-8.678h-8.678c-4.793,0-8.678-3.885-8.678-8.678c0-4.793,3.885-8.678,8.678-8.678h8.678
			c14.372,0.016,26.018,11.662,26.034,26.034v17.356c0.001,2.302-0.914,4.509-2.541,6.137
			C364.654,442.679,362.447,443.593,360.145,443.593z"/>
		<path d="M360.145,443.593c-2.302,0.001-4.509-0.913-6.137-2.541s-2.542-3.835-2.541-6.137v-17.356
			c0.016-14.372,11.662-26.018,26.034-26.034h8.678c4.793,0,8.678,3.885,8.678,8.678c0,4.793-3.885,8.678-8.678,8.678h-8.678
			c-4.791,0.005-8.673,3.887-8.678,8.678v17.356c0.001,2.302-0.914,4.509-2.541,6.137
			C364.654,442.679,362.447,443.593,360.145,443.593z"/>
		<path d="M342.789,408.881h-8.678c-4.793,0-8.678-3.885-8.678-8.678c0-4.793,3.885-8.678,8.678-8.678h8.678
			c4.791-0.005,8.673-3.887,8.678-8.678v-17.356c0-4.793,3.885-8.678,8.678-8.678s8.678,3.885,8.678,8.678v17.356
			C368.807,397.219,357.161,408.865,342.789,408.881z"/>
		<path d="M386.179,408.881h-8.678c-14.372-0.016-26.018-11.662-26.034-26.034v-17.356c0-4.793,3.885-8.678,8.678-8.678
			s8.678,3.885,8.678,8.678v17.356c0.005,4.791,3.887,8.673,8.678,8.678h8.678c4.793,0,8.678,3.885,8.678,8.678
			C394.857,404.996,390.972,408.881,386.179,408.881L386.179,408.881z"/>
		<path d="M386.179,408.881h-8.678c-4.793,0-8.678-3.885-8.678-8.678c0-4.793,3.885-8.678,8.678-8.678h8.678
			c4.791-0.005,8.673-3.887,8.678-8.678v-17.356c0-4.793,3.885-8.678,8.678-8.678s8.678,3.885,8.678,8.678v17.356
			C412.197,397.219,400.551,408.865,386.179,408.881z"/>
		<path d="M429.569,408.881h-8.678c-14.372-0.016-26.018-11.662-26.034-26.034v-17.356c0-4.793,3.885-8.678,8.678-8.678
			s8.678,3.885,8.678,8.678v17.356c0.005,4.791,3.887,8.673,8.678,8.678h8.678c4.793,0,8.678,3.885,8.678,8.678
			C438.247,404.996,434.361,408.881,429.569,408.881z"/>
	</g>
	<g>
		<path style="fill:#1CD759;" d="M235.009,286.174c-9.231,7.998-20.147,13.811-31.935,17.009
			c-21.609,5.294-49.551-0.868-70.986-50.245c-1.128-2.603-2.256-5.38-3.384-8.244v-0.087l53.109-0.434
			c13.887-0.107,26.986,6.442,35.233,17.616L235.009,286.174z"/>
		<path style="fill:#1CD759;" d="M418.287,244.607v0.087c-22.736,59.184-54.064,64.564-77.234,57.708
			c-10.729-3.353-20.654-8.876-29.158-16.228l17.79-24.212c7.492-10.289,19.151-16.738,31.848-17.616
			c1.151-0.147,2.311-0.205,3.471-0.174L418.287,244.607z"/>
	</g>
	<g>
		<path d="M241.679,309.58c-3.743-0.002-7.063-2.403-8.237-5.958c-0.729-2.182-18.322-53.356-61.831-50.534
			c-50.051,3.364-64.508-3.39-67.737-5.542c-3.951-2.673-5.004-8.033-2.358-12.002c2.646-3.969,7.999-5.058,11.986-2.439
			l-0.009-0.004c0.119,0.004,12.551,5.678,56.949,2.674c57.153-3.928,78.593,59.72,79.483,62.428
			c0.858,2.643,0.402,5.536-1.229,7.786C247.065,308.239,244.457,309.573,241.679,309.58L241.679,309.58z"/>
		<path d="M190.526,313.41c-4.489,0.007-8.961-0.545-13.314-1.644c-23.551-5.958-42.61-27.487-56.636-63.987
			c-1.141-2.944-0.594-6.275,1.429-8.699c2.022-2.424,5.202-3.56,8.302-2.965c3.101,0.595,5.634,2.825,6.617,5.826
			c11.864,30.695,26.847,48.525,44.551,53c21.492,5.428,42.119-10.373,47.924-15.347c2.352-2.031,5.611-2.648,8.543-1.619
			c2.932,1.029,5.09,3.548,5.656,6.603c0.567,3.055-0.544,6.18-2.911,8.193C226.752,305.076,209.087,312.345,190.526,313.41
			L190.526,313.41z"/>
		<path d="M305.247,309.588c-0.919,0-1.831-0.147-2.703-0.436c-4.553-1.494-7.034-6.395-5.542-10.949
			c0.89-2.708,22.102-66.352,79.492-62.428c45.102,3.017,57.271-2.881,57.39-2.941c1.896-1.252,4.216-1.688,6.437-1.21
			c2.221,0.478,4.156,1.831,5.368,3.752c2.586,4.095,1.418,9.506-2.627,12.169c-3.229,2.152-17.661,8.932-67.737,5.542
			c-43.975-2.729-61.652,49.987-61.831,50.521C312.326,307.176,308.999,309.588,305.247,309.588z"/>
		<path d="M356.408,313.41c-18.561-1.065-36.225-8.334-50.161-20.64c-2.368-2.013-3.478-5.138-2.911-8.193
			c0.567-3.055,2.724-5.574,5.656-6.603c2.932-1.029,6.191-0.412,8.543,1.619c5.814,4.975,26.441,20.805,47.924,15.347
			c17.746-4.487,32.754-22.394,44.636-53.225c1.428-3.889,5.383-6.248,9.483-5.657c2.273,0.343,4.316,1.576,5.679,3.428
			s1.932,4.169,1.584,6.441c-0.097,0.632-0.259,1.253-0.483,1.852c-14.025,36.5-33.085,58.03-56.636,63.987
			C365.369,312.866,360.897,313.418,356.408,313.41L356.408,313.41z"/>
	</g>
	<g>
		<path id="SVGCleanerId_0_1_" d="M299.399,191.932c-2.302,0.001-4.509-0.913-6.137-2.541c-1.628-1.628-2.542-3.835-2.541-6.137
			v-52.068c0-4.793,3.885-8.678,8.678-8.678s8.678,3.885,8.678,8.678v52.068c0.001,2.302-0.914,4.509-2.541,6.137
			C303.909,191.018,301.701,191.932,299.399,191.932z"/>
	</g>
	<g>
		<path id="SVGCleanerId_1_1_" d="M264.687,165.898c-2.302,0.001-4.509-0.913-6.137-2.541c-1.628-1.628-2.542-3.835-2.541-6.137
			v-26.034c0-4.793,3.885-8.678,8.678-8.678c4.793,0,8.678,3.885,8.678,8.678v26.034c0.001,2.302-0.913,4.509-2.541,6.137
			C269.197,164.984,266.989,165.898,264.687,165.898z"/>
	</g>
	<g>
		<path d="M334.111,339.457c-2.302,0.001-4.509-0.913-6.137-2.541s-2.542-3.835-2.541-6.137v-26.034
			c0-4.793,3.885-8.678,8.678-8.678c4.793,0,8.678,3.885,8.678,8.678v26.034c0.001,2.302-0.914,4.509-2.541,6.137
			C338.62,338.544,336.413,339.458,334.111,339.457z"/>
		<path d="M368.823,330.779c-2.302,0.001-4.509-0.914-6.137-2.541c-1.628-1.628-2.542-3.835-2.541-6.137v-17.356
			c0-4.793,3.885-8.678,8.678-8.678c4.793,0,8.678,3.885,8.678,8.678v17.356c0.001,2.302-0.913,4.509-2.541,6.137
			C373.332,329.866,371.125,330.78,368.823,330.779L368.823,330.779z"/>
		<path d="M212.62,339.457c-2.302,0.001-4.509-0.913-6.137-2.541c-1.628-1.628-2.542-3.835-2.541-6.137v-26.034
			c0-4.793,3.885-8.678,8.678-8.678s8.678,3.885,8.678,8.678v26.034c0.001,2.302-0.913,4.509-2.541,6.137
			C217.129,338.544,214.921,339.458,212.62,339.457z"/>
		<path d="M177.908,330.779c-2.302,0.001-4.509-0.914-6.137-2.541c-1.628-1.628-2.542-3.835-2.541-6.137v-17.356
			c0-4.793,3.885-8.678,8.678-8.678c4.793,0,8.678,3.885,8.678,8.678v17.356c0.001,2.302-0.913,4.509-2.541,6.137
			C182.417,329.866,180.209,330.78,177.908,330.779L177.908,330.779z"/>
	</g>
</g>
<g>
</g>
<g>
</g>
<g>
</g>
<g>
</g>
<g>
</g>
<g>
</g>
<g>
</g>
<g>
</g>
<g>
</g>
<g>
</g>
<g>
</g>
<g>
</g>
<g>
</g>
<g>
</g>
<g>
</g>
</svg>
