<?xml version="1.0" encoding="iso-8859-1"?>
<!-- Generator: Adobe Illustrator 19.0.0, SVG Export Plug-In . SVG Version: 6.00 Build 0)  -->
<svg version="1.1" id="Capa_1" xmlns="http://www.w3.org/2000/svg" xmlns:xlink="http://www.w3.org/1999/xlink" x="0px" y="0px"
	 viewBox="0 0 512.017 512.017" style="enable-background:new 0 0 512.017 512.017;" xml:space="preserve">
<g transform="translate(0 -1)">
	<path style="fill:#FFA800;" d="M313.89,113.83l-8.992,11.108c-3.142,3.939-7.903,6.238-12.942,6.248H165.392
		c-47.158,0.786-84.767,39.621-84.04,86.78v120.19c-22.008-34.628-33.67-74.821-33.616-115.851
		c0-99.449,51.684-182.671,143.455-210.441c5.159-1.503,10.511-2.234,15.884-2.169c5.738,0.018,11.356,1.641,16.22,4.686
		l23.867,14.753c6.376,4.068,9.452,11.746,7.648,19.092l-0.168,0.607c-1.325,5.104-0.246,10.534,2.93,14.744
		c3.176,4.21,8.102,6.738,13.373,6.864h12.102c9.421,0.181,16.929,7.934,16.808,17.356v11.542
		C299.746,107.209,306.02,113.688,313.89,113.83z"/>
	<path style="fill:#FFFFFF;" d="M65.093,222.305c-0.009,20.216,2.915,40.327,8.678,59.704v56.146
		c-11.375-17.343-20.147-36.259-26.034-56.146c-5.763-19.377-8.687-39.488-8.678-59.704c0-99.449,53.369-182.671,148.133-210.441
		l1.041-0.26c2.123,0.694,4.161,1.626,6.075,2.777l4.079,2.43C112.909,48.572,65.093,128.149,65.093,222.305z"/>
	<path style="fill:#FEDD0A;" d="M287.856,131.186H160.551c-47.92,0.017-86.762,38.86-86.78,86.78v64.043
		c-5.763-19.377-8.687-39.488-8.678-59.704c0-94.156,47.816-173.733,133.294-205.494l20.567,12.323
		c6.533,3.945,9.734,11.685,7.897,19.092l-0.174,0.607c-1.297,5.189-0.134,10.686,3.154,14.905s8.333,6.691,13.682,6.703h12.496
		c9.574,0.028,17.328,7.782,17.356,17.356v11.542c0.694,9.912,3.727,19.517,8.852,28.03v0.087
		C283.45,129.473,285.516,130.84,287.856,131.186z"/>
	<path style="fill:#FFA800;" d="M472.957,217.966v127.826c0.016,4.594-0.361,9.181-1.128,13.711
		c-3.405,18.853-13.251,35.938-27.856,48.336l-8.852,7.723v0.087l-56.754,49.812c-28.547,25.033-65.213,38.848-103.181,38.877
		h-3.645c-3.732,0-7.463-0.174-11.195-0.434c-34.033-2.444-66.335-15.944-91.986-38.443l-56.754-49.812v-0.087l-8.852-7.723
		c-14.605-12.398-24.451-29.484-27.856-48.336c-0.767-4.53-1.144-9.117-1.128-13.711V217.966c0.017-47.92,38.86-86.762,86.78-86.78
		h130.69c5.162,0.009,10.06-2.281,13.364-6.248l3.471-4.165l2.43-2.864l3.384-4.079h11.542c9.574,0.028,17.328,7.782,17.356,17.356
		v8.678c0.028,9.574,7.782,17.328,17.356,17.356h51.46c5.797-0.02,11.213,2.884,14.405,7.723l7.116,10.587
		c3.192,4.839,8.608,7.743,14.405,7.723h5.814c7.696-0.115,14.518,4.931,16.662,12.323
		C471.964,202.879,472.956,210.406,472.957,217.966L472.957,217.966z"/>
	<path style="fill:#FEDD0A;" d="M446.924,217.966v127.826c0.016,4.594-0.361,9.181-1.128,13.711
		c-3.405,18.853-13.251,35.938-27.856,48.336l-8.852,7.723v0.087l-56.754,49.812c-22.292,19.551-49.677,32.371-78.969,36.968
		c-29.292-4.598-56.677-17.417-78.969-36.968l-56.754-49.812v-0.087l-8.852-7.723c-14.605-12.398-24.451-29.484-27.856-48.336
		c-0.767-4.53-1.144-9.117-1.128-13.711V217.966c0.017-47.92,38.86-86.762,86.78-86.78h104.656
		c5.162,0.009,10.06-2.281,13.364-6.248l3.471-4.165l2.43-2.864l3.384-4.079h11.542c4.05,0.022,7.97,1.431,11.108,3.992v0.087
		c3.96,3.272,6.251,8.141,6.248,13.277v8.678c0.028,9.574,7.782,17.328,17.356,17.356h25.426c5.797-0.02,11.213,2.884,14.405,7.723
		l7.116,10.587c3.192,4.839,8.608,7.743,14.405,7.723h5.814c7.696-0.115,14.518,4.931,16.662,12.323
		C445.93,202.879,446.922,210.406,446.924,217.966z"/>
	<g>
		<path style="fill:#FFA800;" d="M195.263,486.983h-83.247c-6.226,0.029-11.987-3.291-15.084-8.693
			c-3.097-5.401-3.051-12.051,0.12-17.409c8.273-13.786,13.253-29.294,14.555-45.318"/>
		<path style="fill:#FFA800;" d="M435.122,415.563c1.302,16.024,6.282,31.533,14.555,45.318c3.171,5.358,3.217,12.007,0.12,17.409
			c-3.097,5.401-8.858,8.721-15.084,8.693h-83.247"/>
		<path style="fill:#FFA800;" d="M446.924,146.426l-0.26,36.828c-5.602-0.188-10.754-3.118-13.781-7.836l-7.02-10.796
			c-0.758-1.206-1.693-2.292-2.773-3.221c-2.652-2.519-6.068-4.082-9.707-4.44c-0.625-0.144-1.266-0.202-1.906-0.174h-51.393
			c-9.689-0.123-17.447-8.072-17.334-17.761v-8.794c0.082-9.677-7.658-17.607-17.334-17.761h-11.527
			c-8.052-0.084-14.522-6.661-14.473-14.714V85.916c0.076-9.66-7.674-17.562-17.334-17.674h-13
			c-5.379-0.065-10.418-2.643-13.617-6.967c-3.199-4.325-4.19-9.897-2.677-15.06l0.174-0.61c1.858-7.522-1.323-15.387-7.887-19.502
			l2.34-2.177h47.754c13.868,0.061,27.133,5.674,36.834,15.584l3.12,3.221c4.828,4.956,11.454,7.751,18.374,7.749h5.46
			c16.087,0.15,29.997,11.251,33.714,26.903l0.693,2.96c0.766,3.26,3.672,5.566,7.02,5.572h0.087
			c12.017,0.147,22.403,8.429,25.221,20.112l2.86,11.841c0.488,2.204,1.956,4.064,3.987,5.05v0.087
			C441.326,127.517,446.873,136.546,446.924,146.426L446.924,146.426z"/>
	</g>
	<path style="fill:#FEDD0A;" d="M423.176,146.426l-0.086,14.975c-2.652-2.519-6.068-4.082-9.707-4.44
		c-0.625-0.144-1.266-0.202-1.906-0.174h-51.394c-9.689-0.123-17.447-8.072-17.334-17.761v-8.794
		c0.082-9.677-7.658-17.607-17.334-17.761h-11.527c-8.052-0.084-14.522-6.661-14.473-14.714V85.916
		c0.076-9.66-7.674-17.562-17.334-17.674h-13c-5.379-0.065-10.418-2.643-13.617-6.967c-3.199-4.325-4.19-9.897-2.677-15.06
		l0.174-0.61c1.858-7.522-1.323-15.387-7.887-19.502l2.34-2.177h24.007c13.868,0.061,27.133,5.674,36.834,15.584l3.12,3.221
		c4.828,4.956,11.454,7.751,18.374,7.749h5.46c16.087,0.15,29.997,11.251,33.714,26.903l0.693,2.96
		c0.766,3.26,3.672,5.566,7.021,5.572h0.087c12.017,0.147,22.403,8.429,25.221,20.112l2.86,11.841
		c0.488,2.204,1.956,4.064,3.987,5.05v0.087C417.579,127.517,423.126,136.546,423.176,146.426L423.176,146.426z"/>
	<path style="fill:#FFFFFF;" d="M273.364,502.43c-4.252,0.694-8.678,1.128-13.017,1.475c-34.033-2.444-66.335-15.944-91.986-38.443
		l-56.754-49.812v-0.087l-8.852-7.723c-14.605-12.398-24.451-29.484-27.856-48.336c-0.767-4.53-1.144-9.117-1.128-13.711V217.966
		c0.017-47.92,38.86-86.762,86.78-86.78h26.034c-47.92,0.017-86.762,38.86-86.78,86.78v127.826
		c-0.016,4.594,0.361,9.181,1.128,13.711c3.405,18.853,13.251,35.938,27.856,48.336l8.852,7.723v0.087l56.754,49.812
		C216.687,485.012,244.072,497.832,273.364,502.43z"/>
	<g>
		<path d="M275.187,513.017h-3.645c-40.085,0.005-78.801-14.583-108.915-41.038L97.025,414.36
			c-16.119-13.747-26.97-32.66-30.703-53.513c-0.833-4.975-1.244-10.011-1.229-15.055V217.966
			c0.06-52.695,42.763-95.398,95.458-95.458h130.686c2.589,0.006,5.046-1.142,6.703-3.131l1.576-1.881
			c-5.556-4.387-8.797-11.077-8.797-18.157V87.796c-0.005-4.791-3.887-8.673-8.678-8.678h-12.483
			c-8.016-0.001-15.585-3.695-20.518-10.013s-6.68-14.557-4.737-22.334c1.219-3.871-0.34-8.076-3.788-10.216L215.89,21.779
			c-8.179-4.03-17.638-4.592-26.237-1.559C111.576,43.11,59.144,107.669,49.39,192.919c-0.59,4.734-4.857,8.127-9.602,7.636
			c-2.287-0.261-4.377-1.42-5.809-3.223c-1.432-1.802-2.089-4.1-1.826-6.387C42.72,98.534,99.771,28.487,184.771,3.568
			c13.252-4.342,27.698-3.141,40.051,3.331l24.627,14.775c9.867,5.86,14.694,17.52,11.856,28.64
			c-0.864,2.773-0.337,5.793,1.415,8.11c1.638,2.114,4.165,3.347,6.839,3.339h12.483c14.372,0.016,26.018,11.662,26.034,26.034
			v11.542c0.004,3.196,2.584,5.791,5.78,5.814h11.576c14.372,0.016,26.018,11.662,26.034,26.034v8.678
			c0.005,4.791,3.887,8.673,8.678,8.678h51.458c8.706-0.008,16.839,4.344,21.661,11.593l7.051,10.576
			c1.607,2.417,4.318,3.868,7.22,3.864h5.839c11.624-0.113,21.881,7.58,25.026,18.771c2.149,8.03,3.237,16.306,3.237,24.619v127.826
			c0.014,5.09-0.406,10.172-1.254,15.191c-3.745,20.793-14.576,39.647-30.653,53.356l-65.627,57.64
			C353.987,498.434,315.271,513.022,275.187,513.017z M160.551,139.864c-43.114,0.049-78.053,34.987-78.102,78.102v127.826
			c-0.014,4.099,0.321,8.191,1,12.233c3.085,16.904,11.942,32.214,25.059,43.314l65.576,57.597
			c26.946,23.675,61.589,36.729,97.457,36.724h3.645c35.869,0.005,70.512-13.05,97.458-36.725l65.601-57.619
			c13.072-11.064,21.909-26.314,25.009-43.157c0.695-4.086,1.038-8.224,1.025-12.369V217.966c0.002-6.794-0.886-13.56-2.644-20.123
			c-1.136-3.587-4.501-5.994-8.263-5.911h-5.839c-8.706,0.008-16.839-4.344-21.661-11.593l-7.051-10.576
			c-1.607-2.417-4.318-3.868-7.22-3.864h-51.458c-14.372-0.016-26.018-11.662-26.034-26.034v-8.678
			c-0.005-4.791-3.887-8.673-8.678-8.678h-7.483l-6.686,8c-4.954,5.938-12.292,9.367-20.025,9.356H160.551z"/>
		<path d="M39.059,235.322c-2.301-0.016-4.507-0.917-6.161-2.517c-3.356-3.422-3.356-8.9,0-12.322c3.447-3.212,8.791-3.212,12.237,0
			c0.838,0.802,1.489,1.778,1.907,2.86c0.445,1.044,0.682,2.165,0.695,3.3C47.704,231.423,43.838,235.289,39.059,235.322
			L39.059,235.322z"/>
		<path d="M73.78,346.834c-2.931,0.003-5.665-1.472-7.271-3.924c-15.959-24.251-26.951-51.426-32.339-79.953
			c-0.58-3.049,0.512-6.175,2.864-8.199c2.353-2.024,5.607-2.637,8.535-1.608c2.928,1.029,5.083,3.544,5.651,6.595
			c4.97,26.282,15.103,51.317,29.814,73.657c1.743,2.666,1.887,6.073,0.373,8.876C79.893,345.082,76.965,346.83,73.78,346.834z"/>
		<path d="M292.652,374.169c-3.668-0.134-7.281-0.935-10.661-2.364l-1.288-0.466c-3.434-1.195-7.119-1.477-10.695-0.818
			c-1.528,0.33-3.032,0.766-4.5,1.305c-3.652,1.418-7.517,2.21-11.432,2.343c-8.522-0.901-16.369-5.053-21.907-11.593
			c-2.071-2.314-2.747-5.56-1.771-8.508c0.975-2.949,3.453-5.151,6.495-5.774c3.043-0.623,6.186,0.428,8.242,2.757
			c2.335,2.774,5.45,4.782,8.941,5.763c2.034-0.192,4.03-0.678,5.924-1.445c2.245-0.803,4.545-1.445,6.882-1.919
			c6.555-1.204,13.312-0.679,19.602,1.525l1.483,0.538c1.492,0.655,3.07,1.093,4.686,1.301c3.487-0.99,6.599-2.996,8.941-5.763
			c2.057-2.324,5.198-3.371,8.238-2.748c3.04,0.624,5.515,2.824,6.491,5.77c0.976,2.946,0.303,6.189-1.763,8.504
			C309.021,369.116,301.175,373.268,292.652,374.169z"/>
		<path d="M195.263,495.661h-83.246c-9.446,0.061-18.172-5.04-22.754-13.301c-4.638-8.072-4.498-18.032,0.364-25.97
			c7.586-12.654,12.151-26.888,13.339-41.593c0.477-4.744,4.653-8.241,9.407-7.877c2.293,0.202,4.413,1.307,5.891,3.072
			c1.478,1.765,2.194,4.045,1.99,6.339c-1.415,17.344-6.815,34.127-15.78,49.042c-1.586,2.589-1.622,5.839-0.093,8.462
			c1.535,2.775,4.464,4.49,7.635,4.471h83.246c4.793,0,8.678,3.885,8.678,8.678S200.055,495.661,195.263,495.661z"/>
		<path d="M434.712,495.661h-83.246c-4.793,0-8.678-3.885-8.678-8.678s3.885-8.678,8.678-8.678h83.246
			c3.172,0.02,6.101-1.695,7.636-4.47c1.529-2.623,1.493-5.873-0.093-8.462c-8.965-14.915-14.365-31.698-15.78-49.042
			c-0.204-2.293,0.512-4.574,1.991-6.339s3.597-2.87,5.891-3.072c4.756-0.37,8.936,3.13,9.407,7.877
			c1.188,14.706,5.753,28.94,13.339,41.594c4.863,7.938,5.002,17.899,0.364,25.97C452.884,490.621,444.158,495.721,434.712,495.661
			L434.712,495.661z"/>
	</g>
	<path style="fill:#FFA800;" d="M334.11,439.254c0,21.567-27.197,21.695-60.746,21.695s-60.746-0.128-60.746-21.695
		s27.197-39.051,60.746-39.051S334.11,417.687,334.11,439.254z"/>
	<g>
		<path d="M273.364,469.627c-34.127,0-69.424,0-69.424-30.373c0-26.763,30.492-47.729,69.424-47.729s69.424,20.966,69.424,47.729
			C342.788,469.627,307.491,469.627,273.364,469.627z M273.364,408.881c-28.221,0-52.068,13.911-52.068,30.373
			c0,11.733,16.678,13.017,52.068,13.017s52.068-1.284,52.068-13.017C325.432,422.792,301.585,408.881,273.364,408.881z"/>
		<path d="M447.534,191.932c-4.752-0.002-8.62-3.824-8.678-8.576l-0.424-36.191c-0.062-6.504-3.769-12.423-9.593-15.318
			c-4.262-2.128-7.382-6.011-8.542-10.631l-2.898-11.597c-1.924-7.732-8.871-13.155-16.839-13.144
			c-7.331,0.013-13.727-4.975-15.5-12.089l-0.729-2.915c-2.89-11.592-13.307-19.722-25.254-19.708h-5.509
			c-9.201-0.025-18.02-3.679-24.542-10.169l-3.161-3.161c-8.12-8.16-19.167-12.734-30.678-12.703H247.33
			c-4.793,0-8.678-3.885-8.678-8.678s3.885-8.678,8.678-8.678h47.856c16.119-0.041,31.586,6.363,42.958,17.788l3.161,3.165
			c3.258,3.243,7.665,5.069,12.263,5.081h5.509c19.918-0.024,37.285,13.536,42.093,32.864l0.466,1.864
			c15.528,0.462,28.851,11.2,32.602,26.275l2.78,11.123c11.416,5.875,18.641,17.586,18.771,30.424l0.424,36.195
			c0.056,4.793-3.784,8.724-8.577,8.78H447.534z"/>
		<path d="M325.432,87.796c-4.793,0-8.678-3.885-8.678-8.678s3.885-8.678,8.678-8.678c4.791-0.005,8.673-3.887,8.678-8.678v-8.678
			c0-4.793,3.885-8.678,8.678-8.678s8.678,3.885,8.678,8.678v8.678C351.45,76.134,339.804,87.781,325.432,87.796z"/>
		<path d="M377.5,131.186c-4.793,0-8.678-3.885-8.678-8.678c0-4.793,3.885-8.678,8.678-8.678c4.791-0.005,8.673-3.887,8.678-8.678
			V87.796c0-4.793,3.885-8.678,8.678-8.678c4.793,0,8.678,3.885,8.678,8.678v17.356C403.518,119.524,391.871,131.17,377.5,131.186
			L377.5,131.186z"/>
	</g>
	<g>
		<circle style="fill:#1CD759;" cx="173.568" cy="248.339" r="56.407"/>
		<circle style="fill:#1CD759;" cx="373.161" cy="248.339" r="56.407"/>
	</g>
	<g>
		<path d="M173.568,313.423c-35.945,0-65.085-29.139-65.085-65.085s29.139-65.085,65.085-65.085s65.085,29.139,65.085,65.085
			C238.613,284.268,209.497,313.384,173.568,313.423z M173.568,200.61c-26.36,0-47.729,21.369-47.729,47.729
			c0,26.36,21.369,47.729,47.729,47.729c26.36,0,47.729-21.369,47.729-47.729C221.265,221.992,199.915,200.641,173.568,200.61
			L173.568,200.61z"/>
		<path d="M373.161,313.423c-35.945,0-65.085-29.139-65.085-65.085s29.139-65.085,65.085-65.085s65.085,29.139,65.085,65.085
			C438.206,284.268,409.09,313.384,373.161,313.423L373.161,313.423z M373.161,200.61c-26.36,0-47.729,21.369-47.729,47.729
			c0,26.36,21.369,47.729,47.729,47.729c26.36,0,47.729-21.369,47.729-47.729C420.858,221.992,399.508,200.641,373.161,200.61
			L373.161,200.61z"/>
		<path d="M229.974,304.745c-2.302,0.001-4.509-0.914-6.137-2.541c-1.628-1.628-2.542-3.835-2.541-6.137V244
			c0-4.793,3.885-8.678,8.678-8.678c4.793,0,8.678,3.885,8.678,8.678v52.068c0.001,2.302-0.914,4.509-2.541,6.137
			C234.484,303.832,232.276,304.746,229.974,304.745L229.974,304.745z"/>
		<path d="M316.754,304.745c-2.302,0.001-4.509-0.914-6.137-2.541s-2.542-3.835-2.541-6.137V244c0-4.793,3.885-8.678,8.678-8.678
			s8.678,3.885,8.678,8.678v52.068c0.001,2.302-0.914,4.509-2.541,6.137C321.263,303.832,319.056,304.746,316.754,304.745
			L316.754,304.745z"/>
		<path d="M203.941,330.779c-2.302,0.001-4.509-0.913-6.137-2.541c-1.628-1.628-2.542-3.835-2.541-6.137v-26.034
			c0-4.793,3.885-8.678,8.678-8.678c4.793,0,8.678,3.885,8.678,8.678v26.034c0.001,2.302-0.913,4.509-2.541,6.137
			C208.45,329.866,206.242,330.78,203.941,330.779L203.941,330.779z"/>
		<path d="M351.466,330.779c-2.302,0.001-4.509-0.913-6.137-2.541c-1.628-1.628-2.542-3.835-2.541-6.137v-17.356
			c0-4.793,3.885-8.678,8.678-8.678c4.793,0,8.678,3.885,8.678,8.678v17.356c0.001,2.302-0.913,4.509-2.541,6.137
			C355.975,329.866,353.768,330.78,351.466,330.779L351.466,330.779z"/>
		<path d="M299.398,191.932c-2.302,0.001-4.509-0.913-6.137-2.541c-1.628-1.628-2.542-3.835-2.541-6.137v-52.068
			c0-4.793,3.885-8.678,8.678-8.678s8.678,3.885,8.678,8.678v52.068c0.001,2.302-0.914,4.509-2.541,6.137
			S301.7,191.932,299.398,191.932z"/>
		<path d="M264.686,165.898c-2.302,0.001-4.509-0.913-6.137-2.541c-1.628-1.628-2.542-3.835-2.541-6.137v-26.034
			c0-4.793,3.885-8.678,8.678-8.678c4.793,0,8.678,3.885,8.678,8.678v26.034c0.001,2.302-0.913,4.509-2.541,6.137
			C269.196,164.984,266.988,165.899,264.686,165.898z"/>
		<path d="M386.178,348.135c-2.302,0.001-4.509-0.914-6.137-2.541c-1.628-1.628-2.542-3.835-2.541-6.137v-34.712
			c0-4.793,3.885-8.678,8.678-8.678s8.678,3.885,8.678,8.678v34.712c0.001,2.302-0.913,4.509-2.541,6.137
			S388.48,348.136,386.178,348.135L386.178,348.135z"/>
		<path d="M134.517,348.135c-2.302,0.001-4.509-0.914-6.137-2.541c-1.628-1.628-2.542-3.835-2.541-6.137v-50.419
			c0-4.793,3.885-8.678,8.678-8.678c4.793,0,8.678,3.885,8.678,8.678v50.419c0.001,2.302-0.913,4.509-2.541,6.137
			S136.819,348.136,134.517,348.135L134.517,348.135z"/>
		<path d="M134.517,400.203c-2.302,0.001-4.509-0.913-6.137-2.541c-1.628-1.628-2.542-3.835-2.541-6.137v-8.678
			c0-4.793,3.885-8.678,8.678-8.678c4.793,0,8.678,3.885,8.678,8.678v8.678c0.001,2.302-0.913,4.509-2.541,6.137
			C139.026,399.29,136.819,400.204,134.517,400.203L134.517,400.203z"/>
	</g>
</g>
<g>
</g>
<g>
</g>
<g>
</g>
<g>
</g>
<g>
</g>
<g>
</g>
<g>
</g>
<g>
</g>
<g>
</g>
<g>
</g>
<g>
</g>
<g>
</g>
<g>
</g>
<g>
</g>
<g>
</g>
</svg>
