<?xml version="1.0" encoding="iso-8859-1"?>
<!-- Generator: Adobe Illustrator 19.0.0, SVG Export Plug-In . SVG Version: 6.00 Build 0)  -->
<svg version="1.1" id="Capa_1" xmlns="http://www.w3.org/2000/svg" xmlns:xlink="http://www.w3.org/1999/xlink" x="0px" y="0px"
	 viewBox="0 0 512 512" style="enable-background:new 0 0 512 512;" xml:space="preserve">
<g>
	<path style="fill:#FFA800;" d="M452.899,340.053c21.904-33.955,33.538-73.513,33.501-113.92c0-120.149-101.258-217.6-226.133-217.6
		s-226.133,97.451-226.133,217.6c-0.036,40.407,11.597,79.965,33.501,113.92H452.899z"/>
	<path style="fill:#FEDD0A;" d="M460.8,227.413c0.082,40.238-11.09,79.698-32.256,113.92H83.456
		c-40.1-65.185-43.002-146.645-7.64-214.518S179.6,14.643,256,10.155C371,16.975,460.775,112.212,460.8,227.413z"/>
	<path style="fill:#FFFFFF;" d="M51.2,227.413c-0.082,40.238,11.09,79.698,32.256,113.92h-25.6
		c-41.299-67.129-43.058-151.346-4.597-220.14S164.384,9.789,243.2,9.813c4.267,0,8.619,0.085,12.8,0.341
		C141,16.975,51.225,112.212,51.2,227.413z"/>
	<path style="fill:#FFA800;" d="M451.201,222.932v125.696c0.016,4.518-0.355,9.028-1.109,13.483
		c-3.348,18.539-13.031,35.339-27.392,47.531l-8.704,7.595v0.085l-55.808,48.981c-28.071,24.616-64.126,38.201-101.461,38.229
		h-3.584c-37.335-0.029-73.39-13.613-101.461-38.229l-55.808-48.981v-0.085l-8.704-7.595
		c-14.361-12.192-24.044-28.992-27.392-47.531c-0.754-4.454-1.125-8.965-1.109-13.483V222.932
		c0.017-47.121,38.212-85.316,85.333-85.333h128.512c5.08,0.026,9.904-2.229,13.141-6.144l37.547-45.056v34.133
		c0.028,9.414,7.652,17.039,17.067,17.067h25.6C412.989,137.616,451.184,175.811,451.201,222.932z"/>
	<path style="fill:#FFFFFF;" d="M255.488,502.613c-4.267,0.683-8.533,1.195-12.8,1.451c-33.649-2.275-65.615-15.559-90.965-37.803
		L95.915,417.28v-0.085l-8.704-7.595c-14.361-12.192-24.043-28.992-27.392-47.531c-0.754-4.454-1.125-8.965-1.109-13.483V222.891
		c0.017-47.121,38.212-85.316,85.333-85.333h25.6c-47.121,0.017-85.316,38.212-85.333,85.333v125.696
		c-0.016,4.518,0.355,9.028,1.109,13.483c3.349,18.538,13.031,35.339,27.392,47.531l8.704,7.595v0.085l55.808,48.981
		C199.361,485.611,226.49,498.228,255.488,502.613L255.488,502.613z"/>
	<path style="fill:#FEDD0A;" d="M426.667,222.891v125.696c0.016,4.518-0.355,9.028-1.109,13.483
		c-3.348,18.539-13.031,35.339-27.392,47.531l-8.704,7.595v0.085l-55.808,48.981c-22.038,19.35-49.168,31.967-78.165,36.352
		c-28.998-4.385-56.127-17.002-78.165-36.352l-55.808-48.981v-0.085l-8.704-7.595c-14.361-12.192-24.043-28.992-27.392-47.531
		c-0.754-4.454-1.125-8.965-1.109-13.483V222.891c0.017-47.121,38.212-85.316,85.333-85.333h102.912
		c5.08,0.026,9.904-2.229,13.141-6.144l12.971-15.531l24.576-29.525v34.133c0.028,9.414,7.653,17.039,17.067,17.067h1.024
		C388.455,137.574,426.65,175.769,426.667,222.891z"/>
	<path style="fill:#FFFFFF;" d="M119.552,486.4H97.366c-6.13,0.033-11.805-3.23-14.859-8.545
		c-3.055-5.315-3.018-11.861,0.096-17.141c8.195-13.523,13.105-28.78,14.336-44.544l19.371,16.555
		c-2.335,9.867-6.193,19.31-11.435,27.989c-3.131,5.263-3.188,11.804-0.15,17.122C107.764,483.154,113.428,486.425,119.552,486.4
		L119.552,486.4z"/>
	<path style="fill:#FFA800;" d="M179.2,486.4h-59.648c-6.124,0.025-11.789-3.246-14.827-8.564
		c-3.039-5.317-2.981-11.858,0.15-17.122c5.242-8.679,9.099-18.122,11.435-27.989L179.2,486.4z"/>
	<g>
		<path d="M452.258,348.588c-3.133-0.004-6.011-1.724-7.5-4.48c-1.489-2.756-1.348-6.107,0.366-8.728
			c21.336-32.442,32.718-70.416,32.742-109.246c0-115.279-99.525-209.067-221.867-209.067c-110.35,0-204.85,77.571-219.808,180.433
			c-0.439,3.016-2.454,5.568-5.285,6.696s-6.049,0.659-8.442-1.229c-2.392-1.888-3.595-4.909-3.156-7.925
			C35.475,83.85,137.233,0,256,0c131.75,0,238.933,101.442,238.933,226.133c-0.02,42.151-12.369,83.375-35.525,118.596
			C457.829,347.14,455.14,348.591,452.258,348.588L452.258,348.588z"/>
		<path d="M25.6,238.933c-2.259-0.033-4.422-0.917-6.059-2.475c-3.3-3.365-3.3-8.752,0-12.117c0.815-0.773,1.772-1.383,2.817-1.796
			c3.182-1.295,6.829-0.592,9.301,1.795c3.3,3.365,3.3,8.752,0,12.117c-0.425,0.341-0.858,0.683-1.283,1.021
			c-0.475,0.324-0.99,0.583-1.533,0.771c-0.51,0.257-1.059,0.431-1.625,0.513C26.683,238.86,26.143,238.918,25.6,238.933
			L25.6,238.933z"/>
		<path d="M59.742,348.588c-2.882,0.003-5.571-1.448-7.15-3.858c-15.693-23.847-26.502-50.569-31.8-78.621
			c-0.571-2.998,0.503-6.072,2.817-8.063c2.313-1.99,5.514-2.593,8.393-1.581c2.879,1.012,4.998,3.485,5.557,6.485
			c4.887,25.844,14.852,50.462,29.317,72.429c1.714,2.622,1.855,5.972,0.367,8.728C65.753,346.864,62.875,348.583,59.742,348.588z"
			/>
	</g>
	<path style="fill:#FFA800;" d="M415.062,416.171c1.28,15.757,6.178,31.007,14.312,44.563c3.118,5.269,3.163,11.807,0.118,17.119
		c-3.045,5.311-8.71,8.576-14.832,8.548H332.8"/>
	<path d="M274.967,375.467c-3.607-0.131-7.159-0.919-10.483-2.325l-1.267-0.458c-3.377-1.174-7.001-1.452-10.517-0.804
		c-1.503,0.324-2.982,0.753-4.425,1.283c-3.591,1.394-7.392,2.173-11.242,2.304c-8.38-0.886-16.096-4.969-21.542-11.4
		c-2.036-2.276-2.701-5.467-1.742-8.366c0.959-2.9,3.395-5.065,6.387-5.677c2.992-0.613,6.083,0.421,8.104,2.711
		c2.296,2.728,5.359,4.702,8.792,5.667c2-0.189,3.963-0.667,5.825-1.421c2.208-0.79,4.469-1.42,6.767-1.888
		c6.446-1.184,13.09-0.667,19.275,1.5l1.458,0.529c1.467,0.644,3.019,1.075,4.608,1.279c3.428-0.974,6.489-2.946,8.792-5.667
		c2.023-2.285,5.112-3.315,8.101-2.702c2.989,0.613,5.423,2.777,6.383,5.673c0.96,2.897,0.298,6.085-1.734,8.362
		C291.063,370.497,283.347,374.581,274.967,375.467z"/>
	<path style="fill:#FFA800;" d="M326.742,424.789v0.171c-4.181,25.003-34.219,44.373-70.741,44.373
		c-36.437,0-66.56-19.371-70.741-44.373v-0.171c8.378,1.494,16.823-2.256,21.333-9.472c3.515-5.008,8.203-9.081,13.653-11.861
		c6.519-3.231,14.186-3.168,20.651,0.171c4.694,2.38,9.846,3.719,15.104,3.925c5.258-0.206,10.41-1.545,15.104-3.925
		c6.465-3.338,14.132-3.402,20.651-0.171c5.451,2.781,10.138,6.853,13.653,11.861C309.919,422.534,318.364,426.283,326.742,424.789
		L326.742,424.789z"/>
	<g>
		<path d="M188.692,433.683c-4.536,0.02-9.023-0.935-13.158-2.8c-2.754-1.31-4.6-3.99-4.842-7.03
			c-0.242-3.04,1.155-5.978,3.667-7.708s5.755-1.989,8.509-0.679c6.056,2.768,13.226,0.623,16.767-5.017
			c4.278-6.176,10.026-11.191,16.725-14.592c8.885-4.452,19.352-4.438,28.225,0.037c7.07,4.047,15.754,4.049,22.825,0.004
			c8.875-4.479,19.346-4.493,28.233-0.037c6.698,3.396,12.443,8.408,16.717,14.583c3.565,5.672,10.793,7.806,16.867,4.979
			c4.276-1.91,9.293-0.039,11.275,4.204c1.975,4.222,0.174,9.248-4.033,11.254c-13.58,6.356-29.766,1.833-38.083-10.642
			c-2.665-3.871-6.254-7.016-10.442-9.15c-4.172-2.072-9.091-1.989-13.192,0.221c-11.711,6.295-25.799,6.293-37.508-0.004
			c-4.099-2.206-9.013-2.288-13.183-0.221c-4.189,2.139-7.78,5.286-10.45,9.158C208.132,428.674,198.743,433.737,188.692,433.683z"
			/>
		<path d="M256,477.867c-40.175,0-74.217-22.146-79.183-51.517c-0.785-4.648,2.347-9.053,6.996-9.838
			c4.648-0.785,9.053,2.348,9.837,6.996c3.533,20.912,30.917,37.292,62.35,37.292s58.817-16.379,62.35-37.292
			c0.785-4.648,5.189-7.781,9.837-6.996c4.648,0.785,7.781,5.189,6.996,9.837C330.217,455.721,296.175,477.867,256,477.867z"/>
		<path d="M179.2,494.933H97.342c-9.289,0.06-17.869-4.956-22.375-13.079c-4.561-7.937-4.423-17.731,0.358-25.538
			c7.46-12.443,11.949-26.439,13.117-40.9c0.477-4.661,4.578-8.095,9.25-7.746c2.255,0.199,4.339,1.285,5.793,3.021
			c1.454,1.736,2.158,3.978,1.957,6.233c-1.391,17.055-6.701,33.559-15.517,48.225c-1.56,2.545-1.595,5.742-0.092,8.321
			c1.509,2.729,4.389,4.415,7.508,4.396H179.2c4.713,0,8.533,3.82,8.533,8.533S183.913,494.933,179.2,494.933L179.2,494.933z"/>
		<path d="M414.659,494.933H332.8c-4.713,0-8.533-3.82-8.533-8.533s3.821-8.533,8.533-8.533h81.858
			c3.119,0.02,5.999-1.667,7.508-4.396c1.503-2.579,1.468-5.776-0.092-8.321c-8.815-14.666-14.126-31.17-15.517-48.225
			c-0.417-4.694,3.051-8.838,7.746-9.254c4.694-0.417,8.838,3.051,9.254,7.746c1.168,14.461,5.657,28.457,13.117,40.9
			c4.782,7.806,4.919,17.6,0.358,25.538C432.528,489.977,423.947,494.993,414.659,494.933L414.659,494.933z"/>
		<path d="M257.8,512h-3.592c-39.417,0.005-77.487-14.34-107.1-40.354L82.6,414.988c-15.85-13.518-26.52-32.115-30.192-52.621
			c-0.819-4.892-1.223-9.844-1.208-14.804V221.867c0.059-51.817,42.05-93.808,93.867-93.867h128.542
			c2.532,0.003,4.933-1.123,6.55-3.071l37.55-45.058c2.299-2.762,6.083-3.788,9.463-2.564c3.379,1.223,5.63,4.433,5.629,8.027
			v34.133c0.005,4.711,3.822,8.529,8.533,8.533h25.6c51.817,0.059,93.808,42.05,93.867,93.867v125.696
			c0.013,5.005-0.399,10.002-1.233,14.938c-3.682,20.447-14.333,38.986-30.142,52.467l-64.542,56.683
			C335.277,497.664,297.212,512.008,257.8,512z M145.067,145.067c-42.396,0.048-76.752,34.404-76.8,76.8v125.696
			c-0.013,4.03,0.316,8.055,0.983,12.029c3.033,16.623,11.743,31.677,24.642,42.592l64.483,56.638
			c26.496,23.28,60.562,36.117,95.833,36.112h3.592c35.266,0.007,69.327-12.829,95.817-36.108l64.517-56.662
			c12.857-10.878,21.547-25.874,24.592-42.437c0.683-4.018,1.02-8.087,1.008-12.162V221.867c-0.048-42.396-34.404-76.752-76.8-76.8
			h-25.6c-14.132-0.015-25.585-11.468-25.6-25.6v-10.562l-22.458,26.95c-4.858,5.845-12.067,9.222-19.667,9.213H145.067z"/>
	</g>
	<g>
		<circle style="fill:#1CD759;" cx="157.867" cy="251.733" r="55.467"/>
		<circle style="fill:#1CD759;" cx="354.134" cy="251.733" r="55.467"/>
	</g>
	<g>
		<path d="M157.867,315.733c-35.346,0-64-28.654-64-64s28.654-64,64-64s64,28.654,64,64
			C221.828,287.064,193.197,315.695,157.867,315.733z M157.867,204.8c-25.921,0-46.933,21.013-46.933,46.933
			s21.013,46.933,46.933,46.933c25.921,0,46.933-21.013,46.933-46.933C204.769,225.826,183.775,204.831,157.867,204.8L157.867,204.8
			z"/>
		<path d="M354.134,315.733c-35.346,0-64-28.654-64-64s28.654-64,64-64s64,28.654,64,64
			C418.095,287.064,389.464,315.695,354.134,315.733L354.134,315.733z M354.134,204.8c-25.921,0-46.933,21.013-46.933,46.933
			s21.013,46.933,46.933,46.933c25.921,0,46.933-21.013,46.933-46.933C401.036,225.826,380.041,204.831,354.134,204.8L354.134,204.8
			z"/>
		<path d="M213.334,307.2c-2.263,0.001-4.434-0.898-6.035-2.499c-1.6-1.6-2.499-3.771-2.499-6.035v-51.2
			c0-4.713,3.821-8.533,8.533-8.533c4.713,0,8.533,3.821,8.533,8.533v51.2c0.001,2.263-0.898,4.434-2.499,6.035
			C217.768,306.302,215.597,307.201,213.334,307.2L213.334,307.2z"/>
		<path d="M298.667,307.2c-2.263,0.001-4.434-0.898-6.035-2.499c-1.6-1.6-2.499-3.771-2.499-6.035v-51.2
			c0-4.713,3.821-8.533,8.533-8.533c4.713,0,8.533,3.821,8.533,8.533v51.2c0.001,2.263-0.898,4.434-2.499,6.035
			C303.101,306.302,300.93,307.201,298.667,307.2L298.667,307.2z"/>
		<path d="M187.734,332.8c-2.263,0.001-4.434-0.898-6.035-2.499c-1.6-1.6-2.499-3.771-2.499-6.035v-25.6
			c0-4.713,3.821-8.533,8.533-8.533c4.713,0,8.533,3.82,8.533,8.533v25.6c0.001,2.263-0.898,4.434-2.499,6.035
			C192.168,331.902,189.997,332.801,187.734,332.8L187.734,332.8z"/>
		<path d="M332.8,332.8c-2.263,0.001-4.434-0.898-6.035-2.499c-1.6-1.6-2.499-3.771-2.499-6.035V307.2
			c0-4.713,3.821-8.533,8.533-8.533c4.713,0,8.533,3.82,8.533,8.533v17.067c0.001,2.263-0.898,4.434-2.499,6.035
			C337.234,331.902,335.064,332.801,332.8,332.8L332.8,332.8z"/>
	</g>
</g>
<g>
</g>
<g>
</g>
<g>
</g>
<g>
</g>
<g>
</g>
<g>
</g>
<g>
</g>
<g>
</g>
<g>
</g>
<g>
</g>
<g>
</g>
<g>
</g>
<g>
</g>
<g>
</g>
<g>
</g>
</svg>
