<?xml version="1.0" encoding="iso-8859-1"?>
<!-- Generator: Adobe Illustrator 19.0.0, SVG Export Plug-In . SVG Version: 6.00 Build 0)  -->
<svg version="1.1" id="Capa_1" xmlns="http://www.w3.org/2000/svg" xmlns:xlink="http://www.w3.org/1999/xlink" x="0px" y="0px"
	 viewBox="0 0 512 512" style="enable-background:new 0 0 512 512;" xml:space="preserve">
<g>
	<g>
		<path style="fill:#FFA800;" d="M452.899,340.053c21.904-33.955,33.538-73.513,33.501-113.92
			c0-120.149-101.258-217.6-226.133-217.6s-226.133,97.451-226.133,217.6c-0.036,40.407,11.597,79.965,33.501,113.92H452.899z"/>
		<path style="fill:#FEDD0A;" d="M460.8,227.413c0.082,40.238-11.09,79.698-32.256,113.92H83.456
			c-40.1-65.185-43.002-146.645-7.64-214.518S179.6,14.643,256,10.155C371,16.975,460.775,112.212,460.8,227.413z"/>
		<path style="fill:#FFFFFF;" d="M51.2,227.413c-0.082,40.238,11.09,79.698,32.256,113.92h-25.6
			c-41.299-67.129-43.058-151.346-4.597-220.14S164.384,9.789,243.2,9.813c4.267,0,8.619,0.085,12.8,0.341
			C141,16.975,51.225,112.212,51.2,227.413z"/>
		<path style="fill:#FFA800;" d="M451.201,222.932v125.696c0.016,4.518-0.355,9.028-1.109,13.483
			c-3.348,18.539-13.031,35.339-27.392,47.531l-8.704,7.595v0.085l-55.808,48.981c-28.071,24.616-64.126,38.201-101.461,38.229
			h-3.584c-37.335-0.029-73.39-13.613-101.461-38.229l-55.808-48.981v-0.085l-8.704-7.595
			c-14.361-12.192-24.044-28.992-27.392-47.531c-0.754-4.454-1.125-8.965-1.109-13.483V222.932
			c0.017-47.121,38.212-85.316,85.333-85.333h128.512c5.08,0.026,9.904-2.229,13.141-6.144l37.547-45.056v34.133
			c0.028,9.414,7.652,17.039,17.067,17.067h25.6C412.989,137.616,451.184,175.811,451.201,222.932z"/>
		<path style="fill:#FFFFFF;" d="M255.488,502.613c-4.267,0.683-8.533,1.195-12.8,1.451c-33.649-2.275-65.615-15.559-90.965-37.803
			L95.915,417.28v-0.085l-8.704-7.595c-14.361-12.192-24.043-28.992-27.392-47.531c-0.754-4.454-1.125-8.965-1.109-13.483V222.891
			c0.017-47.121,38.212-85.316,85.333-85.333h25.6c-47.121,0.017-85.316,38.212-85.333,85.333v125.696
			c-0.016,4.518,0.355,9.028,1.109,13.483c3.349,18.538,13.031,35.339,27.392,47.531l8.704,7.595v0.085l55.808,48.981
			C199.361,485.611,226.49,498.228,255.488,502.613L255.488,502.613z"/>
		<path style="fill:#FEDD0A;" d="M426.667,222.891v125.696c0.016,4.518-0.355,9.028-1.109,13.483
			c-3.348,18.539-13.031,35.339-27.392,47.531l-8.704,7.595v0.085l-55.808,48.981c-22.038,19.35-49.168,31.967-78.165,36.352
			c-28.998-4.385-56.127-17.002-78.165-36.352l-55.808-48.981v-0.085l-8.704-7.595c-14.361-12.192-24.043-28.992-27.392-47.531
			c-0.754-4.454-1.125-8.965-1.109-13.483V222.891c0.017-47.121,38.212-85.316,85.333-85.333h102.912
			c5.08,0.026,9.904-2.229,13.141-6.144l12.971-15.531l24.576-29.525v34.133c0.028,9.414,7.653,17.039,17.067,17.067h1.024
			C388.455,137.574,426.65,175.769,426.667,222.891z"/>
		<path style="fill:#FFFFFF;" d="M119.552,486.4H97.366c-6.13,0.033-11.805-3.23-14.859-8.545
			c-3.055-5.315-3.018-11.861,0.096-17.141c8.195-13.523,13.105-28.78,14.336-44.544l19.371,16.555
			c-2.335,9.867-6.193,19.31-11.435,27.989c-3.131,5.263-3.188,11.804-0.15,17.122C107.764,483.154,113.428,486.425,119.552,486.4
			L119.552,486.4z"/>
		<path style="fill:#FFA800;" d="M179.2,486.4h-59.648c-6.124,0.025-11.789-3.246-14.827-8.564
			c-3.039-5.317-2.981-11.858,0.15-17.122c5.242-8.679,9.099-18.122,11.435-27.989L179.2,486.4z"/>
		<g>
			<path d="M452.258,348.588c-3.133-0.004-6.011-1.724-7.499-4.48c-1.488-2.757-1.346-6.107,0.37-8.728
				c21.335-32.442,32.715-70.417,32.738-109.246c0-115.279-99.529-209.067-221.867-209.067c-110.35,0-204.846,77.571-219.8,180.433
				c-0.679,4.664-5.011,7.896-9.675,7.217s-7.895-5.011-7.217-9.675C35.475,83.85,137.233,0,256,0
				c131.75,0,238.933,101.442,238.933,226.133c-0.019,42.152-12.37,83.377-35.529,118.596
				C457.828,347.14,455.139,348.592,452.258,348.588z"/>
			<path d="M25.6,238.933c-2.259-0.033-4.422-0.917-6.059-2.475c-3.3-3.365-3.3-8.752,0-12.117c2.063-1.977,4.955-2.835,7.763-2.304
				c0.535,0.091,1.053,0.263,1.538,0.508c0.525,0.17,1.015,0.431,1.45,0.771c0.513,0.341,0.937,0.683,1.367,1.025
				c3.3,3.365,3.3,8.752,0,12.117C30.022,238.016,27.859,238.899,25.6,238.933z"/>
			<path d="M59.742,348.588c-2.881,0.004-5.569-1.447-7.146-3.858C36.9,320.883,26.089,294.16,20.787,266.108
				c-0.868-4.63,2.18-9.088,6.81-9.959c4.629-0.872,9.09,2.172,9.965,6.801c4.886,25.844,14.849,50.462,29.313,72.429
				c1.714,2.622,1.855,5.972,0.367,8.728C65.753,346.864,62.875,348.583,59.742,348.588z"/>
		</g>
		<path style="fill:#FFA800;" d="M415.062,416.171c1.28,15.757,6.178,31.007,14.312,44.563c3.118,5.269,3.163,11.807,0.118,17.119
			c-3.045,5.311-8.71,8.576-14.832,8.548H332.8"/>
		<g>
			<path d="M179.2,494.933H97.342c-9.289,0.06-17.869-4.956-22.375-13.079c-4.56-7.937-4.424-17.73,0.354-25.538
				c7.462-12.441,11.951-26.436,13.117-40.896c0.244-3.056,2.108-5.746,4.884-7.048c2.776-1.301,6.036-1.014,8.541,0.754
				s3.87,4.742,3.575,7.794c-1.391,17.056-6.7,33.561-15.512,48.229c-1.56,2.545-1.595,5.742-0.092,8.321
				c1.509,2.729,4.39,4.415,7.508,4.396H179.2c4.713,0,8.533,3.82,8.533,8.533S183.913,494.933,179.2,494.933L179.2,494.933z"/>
			<path d="M414.659,494.933H332.8c-4.713,0-8.533-3.82-8.533-8.533s3.821-8.533,8.533-8.533h81.858
				c3.119,0.02,5.999-1.667,7.508-4.396c1.504-2.579,1.467-5.777-0.096-8.321c-8.81-14.67-14.117-31.174-15.509-48.229
				c-0.295-3.051,1.069-6.027,3.575-7.794c2.505-1.767,5.766-2.055,8.541-0.754c2.776,1.301,4.64,3.992,4.884,7.048
				c1.167,14.459,5.654,28.454,13.112,40.896c4.782,7.806,4.919,17.6,0.358,25.538C432.528,489.977,423.947,494.993,414.659,494.933
				L414.659,494.933z"/>
			<path d="M257.796,512h-3.588c-39.416,0.006-77.485-14.339-107.096-40.354L82.6,414.988
				c-15.849-13.518-26.518-32.115-30.188-52.621c-0.822-4.892-1.228-9.844-1.212-14.804V221.867
				c0.059-51.817,42.05-93.808,93.867-93.867h128.542c2.532,0.002,4.932-1.124,6.55-3.071l37.554-45.058
				c2.299-2.761,6.082-3.785,9.46-2.562c3.378,1.223,5.628,4.431,5.627,8.024v34.133c0.006,4.71,3.823,8.527,8.533,8.533h25.6
				c51.817,0.059,93.808,42.05,93.867,93.867v125.696c0.013,5.005-0.399,10.002-1.233,14.938
				c-3.684,20.447-14.336,38.987-30.146,52.467l-64.533,56.683C335.278,497.665,297.21,512.008,257.796,512L257.796,512z
				 M145.067,145.067c-42.395,0.049-76.751,34.405-76.8,76.8v125.696c-0.015,4.03,0.314,8.055,0.983,12.029
				c3.033,16.622,11.741,31.675,24.638,42.592l64.488,56.638c26.496,23.281,60.562,36.118,95.833,36.112h3.587
				c35.268,0.006,69.331-12.829,95.825-36.108l64.513-56.662c12.857-10.878,21.548-25.874,24.596-42.437
				c0.682-4.018,1.017-8.087,1.004-12.162V221.867c-0.049-42.395-34.405-76.751-76.8-76.8h-25.6
				c-14.132-0.015-25.585-11.468-25.6-25.6v-10.562l-22.462,26.95c-4.856,5.845-12.064,9.222-19.663,9.213H145.067z"/>
			<rect x="85.334" y="392.533" width="341.333" height="17.067"/>
			<path d="M153.6,409.6h-8.533c-4.713,0-8.533-3.821-8.533-8.533s3.821-8.533,8.533-8.533h8.533
				c4.71-0.006,8.527-3.823,8.533-8.533v-17.067c0-4.713,3.821-8.533,8.533-8.533c4.713,0,8.533,3.82,8.533,8.533V384
				C179.185,398.132,167.732,409.585,153.6,409.6z"/>
			<path d="M196.267,409.6h-8.533c-14.132-0.015-25.585-11.468-25.6-25.6v-17.067c0-4.713,3.821-8.533,8.533-8.533
				c4.713,0,8.533,3.82,8.533,8.533V384c0.006,4.71,3.823,8.527,8.533,8.533h8.533c4.713,0,8.533,3.82,8.533,8.533
				S200.98,409.6,196.267,409.6L196.267,409.6z"/>
			<path d="M110.934,409.6H102.4c-4.713,0-8.533-3.821-8.533-8.533s3.821-8.533,8.533-8.533h8.533
				c4.71-0.006,8.527-3.823,8.533-8.533v-17.067c0-4.713,3.821-8.533,8.533-8.533c4.713,0,8.533,3.82,8.533,8.533V384
				C136.518,398.132,125.066,409.585,110.934,409.6z"/>
			<path d="M153.6,409.6h-8.533c-14.132-0.015-25.585-11.468-25.6-25.6v-17.067c0-4.713,3.821-8.533,8.533-8.533
				c4.713,0,8.533,3.82,8.533,8.533V384c0.006,4.71,3.823,8.527,8.533,8.533h8.533c4.713,0,8.533,3.82,8.533,8.533
				S158.313,409.6,153.6,409.6L153.6,409.6z"/>
			<path d="M196.267,409.6h-8.533c-4.713,0-8.533-3.821-8.533-8.533s3.821-8.533,8.533-8.533h8.533
				c4.71-0.006,8.527-3.823,8.533-8.533c0-4.713,3.821-8.533,8.533-8.533c4.713,0,8.533,3.821,8.533,8.533
				C221.851,398.132,210.399,409.585,196.267,409.6L196.267,409.6z"/>
			<path d="M238.934,409.6H230.4c-14.132-0.015-25.585-11.468-25.6-25.6c0-4.713,3.821-8.533,8.533-8.533
				c4.713,0,8.533,3.821,8.533,8.533c0.006,4.71,3.823,8.527,8.533,8.533h8.533c4.713,0,8.533,3.82,8.533,8.533
				S243.646,409.6,238.934,409.6L238.934,409.6z"/>
			<path d="M238.934,409.6H230.4c-4.713,0-8.533-3.821-8.533-8.533s3.821-8.533,8.533-8.533h8.533
				c4.71-0.006,8.527-3.823,8.533-8.533c0-4.713,3.82-8.533,8.533-8.533s8.533,3.821,8.533,8.533
				C264.518,398.132,253.066,409.585,238.934,409.6z"/>
			<path d="M281.6,409.6h-8.533c-14.132-0.015-25.585-11.468-25.6-25.6c0-4.713,3.82-8.533,8.533-8.533s8.533,3.821,8.533,8.533
				c0.006,4.71,3.823,8.527,8.533,8.533h8.533c4.713,0,8.533,3.82,8.533,8.533S286.313,409.6,281.6,409.6L281.6,409.6z"/>
			<path d="M281.6,409.6h-8.533c-4.713,0-8.533-3.821-8.533-8.533s3.821-8.533,8.533-8.533h8.533
				c4.71-0.006,8.527-3.823,8.533-8.533c0-4.713,3.821-8.533,8.533-8.533c4.713,0,8.533,3.821,8.533,8.533
				C307.185,398.132,295.732,409.585,281.6,409.6z"/>
			<path d="M324.267,409.6h-8.533c-14.132-0.015-25.585-11.468-25.6-25.6c0-4.713,3.821-8.533,8.533-8.533
				c4.713,0,8.533,3.821,8.533,8.533c0.006,4.71,3.823,8.527,8.533,8.533h8.533c4.713,0,8.533,3.82,8.533,8.533
				S328.98,409.6,324.267,409.6L324.267,409.6z"/>
			<path d="M213.334,443.733c-4.713,0-8.533-3.821-8.533-8.533v-17.067c-0.006-4.71-3.823-8.527-8.533-8.533h-8.533
				c-4.713,0-8.533-3.821-8.533-8.533s3.821-8.533,8.533-8.533h8.533c14.132,0.015,25.585,11.468,25.6,25.6V435.2
				C221.867,439.913,218.046,443.733,213.334,443.733z"/>
			<path d="M213.334,443.733c-4.713,0-8.533-3.821-8.533-8.533v-17.067c0.015-14.132,11.468-25.585,25.6-25.6h8.533
				c4.713,0,8.533,3.82,8.533,8.533s-3.821,8.533-8.533,8.533H230.4c-4.71,0.006-8.527,3.823-8.533,8.533V435.2
				C221.867,439.913,218.046,443.733,213.334,443.733z"/>
			<path d="M170.667,443.733c-4.713,0-8.533-3.821-8.533-8.533v-17.067c-0.006-4.71-3.823-8.527-8.533-8.533h-8.533
				c-4.713,0-8.533-3.821-8.533-8.533s3.821-8.533,8.533-8.533h8.533c14.132,0.015,25.585,11.468,25.6,25.6V435.2
				C179.2,439.913,175.38,443.733,170.667,443.733z"/>
			<path d="M170.667,443.733c-4.713,0-8.533-3.821-8.533-8.533v-17.067c0.015-14.132,11.468-25.585,25.6-25.6h8.533
				c4.713,0,8.533,3.82,8.533,8.533s-3.821,8.533-8.533,8.533h-8.533c-4.71,0.006-8.527,3.823-8.533,8.533V435.2
				C179.2,439.913,175.38,443.733,170.667,443.733z"/>
			<path d="M256,443.733c-4.713,0-8.533-3.821-8.533-8.533v-17.067c-0.006-4.71-3.823-8.527-8.533-8.533H230.4
				c-4.713,0-8.533-3.821-8.533-8.533s3.821-8.533,8.533-8.533h8.533c14.132,0.015,25.585,11.468,25.6,25.6V435.2
				C264.534,439.913,260.713,443.733,256,443.733z"/>
			<path d="M256,443.733c-4.713,0-8.533-3.821-8.533-8.533v-17.067c0.015-14.132,11.468-25.585,25.6-25.6h8.533
				c4.713,0,8.533,3.82,8.533,8.533s-3.82,8.533-8.533,8.533h-8.533c-4.71,0.006-8.527,3.823-8.533,8.533V435.2
				C264.534,439.913,260.713,443.733,256,443.733z"/>
			<path d="M298.667,443.733c-4.713,0-8.533-3.821-8.533-8.533v-17.067c-0.006-4.71-3.823-8.527-8.533-8.533h-8.533
				c-4.713,0-8.533-3.821-8.533-8.533s3.821-8.533,8.533-8.533h8.533c14.132,0.015,25.585,11.468,25.6,25.6V435.2
				C307.2,439.913,303.38,443.733,298.667,443.733z"/>
			<path d="M298.667,443.733c-4.713,0-8.533-3.821-8.533-8.533v-17.067c0.015-14.132,11.468-25.585,25.6-25.6h8.533
				c4.713,0,8.533,3.82,8.533,8.533s-3.821,8.533-8.533,8.533h-8.533c-4.71,0.006-8.527,3.823-8.533,8.533V435.2
				C307.2,439.913,303.38,443.733,298.667,443.733z"/>
			<path d="M341.334,443.733c-4.713,0-8.533-3.821-8.533-8.533v-17.067c-0.006-4.71-3.823-8.527-8.533-8.533h-8.533
				c-4.713,0-8.533-3.821-8.533-8.533s3.82-8.533,8.533-8.533h8.533c14.132,0.015,25.585,11.468,25.6,25.6V435.2
				C349.867,439.913,346.046,443.733,341.334,443.733z"/>
			<path d="M341.334,443.733c-4.713,0-8.533-3.821-8.533-8.533v-17.067c0.015-14.132,11.468-25.585,25.6-25.6h8.533
				c4.713,0,8.533,3.82,8.533,8.533s-3.82,8.533-8.533,8.533H358.4c-4.71,0.006-8.527,3.823-8.533,8.533V435.2
				C349.867,439.913,346.046,443.733,341.334,443.733z"/>
			<path d="M324.267,409.6h-8.533c-4.713,0-8.533-3.821-8.533-8.533s3.82-8.533,8.533-8.533h8.533
				c4.71-0.006,8.527-3.823,8.533-8.533v-17.067c0-4.713,3.82-8.533,8.533-8.533s8.533,3.82,8.533,8.533V384
				C349.851,398.132,338.399,409.585,324.267,409.6z"/>
			<path d="M366.934,409.6H358.4c-14.132-0.015-25.585-11.468-25.6-25.6v-17.067c0-4.713,3.82-8.533,8.533-8.533
				s8.533,3.82,8.533,8.533V384c0.006,4.71,3.823,8.527,8.533,8.533h8.533c4.713,0,8.533,3.82,8.533,8.533
				S371.646,409.6,366.934,409.6L366.934,409.6z"/>
			<path d="M366.934,409.6H358.4c-4.713,0-8.533-3.821-8.533-8.533s3.821-8.533,8.533-8.533h8.533
				c4.71-0.006,8.527-3.823,8.533-8.533v-17.067c0-4.713,3.82-8.533,8.533-8.533s8.533,3.82,8.533,8.533V384
				C392.518,398.132,381.066,409.585,366.934,409.6z"/>
			<path d="M409.6,409.6h-8.533c-14.132-0.015-25.585-11.468-25.6-25.6v-17.067c0-4.713,3.82-8.533,8.533-8.533
				s8.533,3.82,8.533,8.533V384c0.006,4.71,3.823,8.527,8.533,8.533h8.533c4.713,0,8.533,3.82,8.533,8.533
				S414.313,409.6,409.6,409.6L409.6,409.6z"/>
		</g>
	</g>
	<path style="fill:#FC7308;" d="M247.751,348.065c5.277-2.211,11.221-2.211,16.498,0c6.788,2.878,14.545,2.321,20.852-1.496
		c7.275-5.021,7.275-15.063,0-25.104c-4.796-6.727-10.348-12.88-16.549-18.339c-7.313-5.944-17.792-5.944-25.105,0
		c-6.201,5.459-11.753,11.613-16.548,18.34c-7.275,10.042-7.275,20.084,0,25.104C233.207,350.386,240.964,350.943,247.751,348.065z"
		/>
	<g>
		<path d="M273.408,358.409c-4.288,0.013-8.536-0.832-12.492-2.487c-3.146-1.308-6.683-1.308-9.829,0h-0.004
			c-9.473,4.04-20.327,3.168-29.033-2.333c-4.705-3.178-7.891-8.155-8.808-13.758c-0.972-8.381,1.46-16.802,6.75-23.375
			c5.158-7.247,11.138-13.872,17.821-19.742c10.525-8.811,25.852-8.81,36.375,0.004c6.75,5.931,12.784,12.63,17.979,19.963
			c5.2,6.527,7.574,14.863,6.592,23.15c-0.918,5.605-4.106,10.583-8.813,13.762C285.04,356.817,279.279,358.495,273.408,358.409z
			 M256,337.867c3.981-0.003,7.921,0.795,11.587,2.346c4.098,1.74,8.77,1.494,12.663-0.667c0.915-0.581,1.531-1.532,1.687-2.604
			c0.081-3.832-1.253-7.56-3.746-10.471c-4.432-6.206-9.555-11.888-15.271-16.937c-4.085-3.125-9.757-3.125-13.842,0
			c-5.65,4.985-10.72,10.591-15.113,16.713c-2.575,2.963-3.965,6.771-3.904,10.696c0.155,1.071,0.77,2.02,1.683,2.6
			c3.896,2.158,8.568,2.405,12.671,0.671C248.081,338.662,252.021,337.864,256,337.867L256,337.867z"/>
		<g>
			<circle style="fill:#1CD759;" cx="166.4" cy="226.133" r="55.467"/>
			<circle style="fill:#1CD759;" cx="345.6" cy="226.133" r="55.467"/>
		</g>
		<g>
			<path d="M166.4,290.133c-35.346,0-64-28.654-64-64s28.654-64,64-64s64,28.654,64,64
				C230.362,261.464,201.73,290.095,166.4,290.133z M166.4,179.2c-25.921,0-46.933,21.013-46.933,46.933
				s21.013,46.933,46.933,46.933s46.933-21.013,46.933-46.933C213.304,200.225,192.309,179.229,166.4,179.2L166.4,179.2z"/>
			<path d="M345.6,290.133c-35.346,0-64-28.654-64-64s28.654-64,64-64s64,28.654,64,64
				C409.562,261.464,380.93,290.095,345.6,290.133z M345.6,179.2c-18.983,0-36.096,11.435-43.361,28.973
				c-7.264,17.538-3.249,37.725,10.174,51.147c13.423,13.423,33.61,17.438,51.147,10.174c17.538-7.264,28.973-24.378,28.973-43.361
				C392.504,200.225,371.509,179.229,345.6,179.2L345.6,179.2z"/>
			<path d="M221.867,281.6c-4.713,0-8.533-3.82-8.533-8.533v-51.2c0-4.713,3.821-8.533,8.533-8.533s8.533,3.821,8.533,8.533v51.2
				C230.4,277.78,226.58,281.6,221.867,281.6z"/>
			<path d="M290.134,281.6c-4.713,0-8.533-3.82-8.533-8.533v-51.2c0-4.713,3.82-8.533,8.533-8.533s8.533,3.821,8.533,8.533v51.2
				C298.667,277.78,294.846,281.6,290.134,281.6z"/>
			<path d="M196.267,307.2c-4.713,0-8.533-3.82-8.533-8.533v-25.6c0-4.713,3.82-8.533,8.533-8.533s8.533,3.82,8.533,8.533v25.6
				C204.8,303.38,200.98,307.2,196.267,307.2z"/>
			<path d="M324.267,307.2c-4.713,0-8.533-3.82-8.533-8.533V281.6c0-4.713,3.82-8.533,8.533-8.533s8.533,3.82,8.533,8.533v17.067
				C332.8,303.38,328.98,307.2,324.267,307.2z"/>
		</g>
	</g>
</g>
<g>
</g>
<g>
</g>
<g>
</g>
<g>
</g>
<g>
</g>
<g>
</g>
<g>
</g>
<g>
</g>
<g>
</g>
<g>
</g>
<g>
</g>
<g>
</g>
<g>
</g>
<g>
</g>
<g>
</g>
</svg>
