<?xml version="1.0" encoding="iso-8859-1"?>
<!-- Generator: Adobe Illustrator 19.0.0, SVG Export Plug-In . SVG Version: 6.00 Build 0)  -->
<svg version="1.1" id="Capa_1" xmlns="http://www.w3.org/2000/svg" xmlns:xlink="http://www.w3.org/1999/xlink" x="0px" y="0px"
	 viewBox="0 0 512 512" style="enable-background:new 0 0 512 512;" xml:space="preserve">
<g>
	<path style="fill:#FFA800;" d="M452.899,340.053c21.904-33.955,33.538-73.513,33.501-113.92c0-120.149-101.257-217.6-226.133-217.6
		s-226.133,97.451-226.133,217.6c-0.036,40.407,11.597,79.965,33.501,113.92H452.899z"/>
	<path style="fill:#FEDD0A;" d="M460.8,227.413c0.082,40.238-11.09,79.698-32.256,113.92H83.456
		c-40.1-65.185-43.002-146.645-7.64-214.518S179.6,14.643,256,10.155C371,16.975,460.775,112.212,460.8,227.413z"/>
	<path style="fill:#FFFFFF;" d="M51.2,227.413c-0.082,40.238,11.09,79.698,32.256,113.92h-25.6
		c-41.299-67.129-43.058-151.346-4.597-220.14S164.384,9.789,243.2,9.813c4.267,0,8.619,0.085,12.8,0.341
		C141,16.975,51.225,112.212,51.2,227.413z"/>
	<path style="fill:#FFA800;" d="M451.201,222.932v125.696c0.016,4.518-0.355,9.028-1.109,13.483
		c-3.348,18.539-13.031,35.339-27.392,47.531l-8.704,7.595v0.085l-55.808,48.981c-28.071,24.616-64.126,38.201-101.461,38.229
		h-3.584c-37.335-0.029-73.39-13.613-101.461-38.229l-55.808-48.981v-0.085l-8.704-7.595
		c-14.361-12.192-24.044-28.992-27.392-47.531c-0.754-4.454-1.125-8.965-1.109-13.483V222.932
		c0.017-47.121,38.212-85.316,85.333-85.333h128.512c5.08,0.026,9.904-2.229,13.141-6.144l37.547-45.056v34.133
		c0.028,9.414,7.652,17.039,17.067,17.067h25.6C412.989,137.616,451.184,175.811,451.201,222.932z"/>
	<path style="fill:#FFFFFF;" d="M255.488,502.613c-4.267,0.683-8.533,1.195-12.8,1.451c-33.649-2.275-65.615-15.559-90.965-37.803
		L95.915,417.28v-0.085l-8.704-7.595c-14.361-12.192-24.043-28.992-27.392-47.531c-0.754-4.454-1.125-8.965-1.109-13.483V222.891
		c0.017-47.121,38.212-85.316,85.333-85.333h25.6c-47.121,0.017-85.316,38.212-85.333,85.333v125.696
		c-0.016,4.518,0.355,9.028,1.109,13.483c3.349,18.538,13.031,35.339,27.392,47.531l8.704,7.595v0.085l55.808,48.981
		C199.361,485.611,226.49,498.228,255.488,502.613L255.488,502.613z"/>
	<path style="fill:#FEDD0A;" d="M426.667,222.891v125.696c0.016,4.518-0.355,9.028-1.109,13.483
		c-3.348,18.539-13.03,35.339-27.392,47.531l-8.704,7.595v0.085l-55.808,48.981c-22.038,19.35-49.168,31.967-78.165,36.352
		c-28.998-4.385-56.127-17.002-78.165-36.352l-55.808-48.981v-0.085l-8.704-7.595c-14.361-12.192-24.043-28.992-27.392-47.531
		c-0.754-4.454-1.125-8.965-1.109-13.483V222.891c0.017-47.121,38.212-85.316,85.333-85.333h102.912
		c5.08,0.026,9.904-2.229,13.141-6.144l12.971-15.531l24.576-29.525v34.133c0.028,9.414,7.652,17.039,17.067,17.067h1.024
		C388.455,137.574,426.65,175.769,426.667,222.891z"/>
	<path style="fill:#FFFFFF;" d="M119.552,486.4H97.365c-6.13,0.033-11.805-3.23-14.859-8.545
		c-3.055-5.315-3.018-11.861,0.096-17.141c8.195-13.523,13.105-28.78,14.336-44.544l19.371,16.555
		c-2.335,9.867-6.193,19.31-11.435,27.989c-3.131,5.263-3.188,11.804-0.15,17.122C107.763,483.154,113.428,486.425,119.552,486.4
		L119.552,486.4z"/>
	<path style="fill:#FFA800;" d="M179.2,486.4h-59.648c-6.124,0.025-11.789-3.246-14.827-8.564
		c-3.039-5.317-2.981-11.858,0.15-17.122c5.242-8.679,9.099-18.122,11.435-27.989L179.2,486.4z"/>
	<g>
		<path d="M452.258,348.588c-3.133-0.004-6.011-1.724-7.499-4.48c-1.488-2.757-1.346-6.107,0.37-8.728
			c21.335-32.442,32.715-70.417,32.738-109.246c0-115.279-99.529-209.067-221.867-209.067c-110.35,0-204.846,77.571-219.8,180.433
			c-0.679,4.664-5.011,7.896-9.675,7.217s-7.896-5.011-7.217-9.675C35.475,83.85,137.233,0,256,0
			c131.75,0,238.933,101.442,238.933,226.133c-0.019,42.152-12.37,83.377-35.529,118.596
			C457.827,347.14,455.139,348.592,452.258,348.588z"/>
		<path d="M25.6,238.933c-2.259-0.033-4.422-0.917-6.059-2.475c-1.573-1.627-2.459-3.796-2.475-6.059
			c0.012-1.116,0.243-2.219,0.679-3.246c0.434-1.033,1.041-1.984,1.795-2.813c2.472-2.385,6.118-3.089,9.3-1.796
			c1.034,0.434,1.987,1.041,2.817,1.796c0.752,0.83,1.358,1.781,1.792,2.813c0.438,1.027,0.67,2.13,0.683,3.246
			c-0.018,2.262-0.904,4.431-2.475,6.059C30.022,238.016,27.859,238.899,25.6,238.933z"/>
		<path d="M59.742,348.588c-2.881,0.004-5.569-1.447-7.146-3.858C36.9,320.883,26.089,294.16,20.787,266.108
			c-0.868-4.63,2.18-9.088,6.81-9.959c4.629-0.872,9.09,2.172,9.965,6.801c4.886,25.844,14.849,50.462,29.313,72.429
			c1.714,2.622,1.855,5.972,0.367,8.728C65.753,346.864,62.874,348.583,59.742,348.588z"/>
	</g>
	<g>
		<path style="fill:#FFA800;" d="M415.061,416.171c1.28,15.757,6.178,31.007,14.312,44.563c3.118,5.269,3.163,11.807,0.118,17.119
			c-3.045,5.311-8.71,8.576-14.832,8.548H332.8"/>
		<path style="fill:#FFA800;" d="M418.133,319.829v26.368c0.004,13.088-6.005,25.453-16.299,33.536l-70.656,55.552
			c-19.172,14.914-42.402,23.688-66.645,25.173v0.341h-17.067v-0.341c-24.256-1.427-47.503-10.208-66.645-25.173l-70.656-55.552
			c-10.294-8.083-16.303-20.448-16.299-33.536v-26.368c-0.014-0.57,0.014-1.141,0.085-1.707c0.587-5.779,4.068-10.864,9.243-13.503
			c5.174-2.639,11.335-2.471,16.357,0.447l44.8,26.197c20.899,12.197,44.666,18.617,68.864,18.603h45.568
			c17.124,0.015,34.094-3.229,50.005-9.557c6.531-2.476,12.84-5.502,18.859-9.045l26.368-15.445l18.432-10.752
			c5.287-3.061,11.804-3.072,17.101-0.028C414.846,308.083,418.117,313.72,418.133,319.829z"/>
	</g>
	<path style="fill:#FEDD0A;" d="M388.267,306.261l-16.469,58.197l-32.341-26.965l-34.389,55.04l-25.6-42.667l-25.6,51.2l-25.6-51.2
		l-25.6,42.667l-34.389-55.04l-32.341,26.965l-16.469-58.197l42.752,25.003c20.072,11.714,42.812,18.089,66.048,18.517
		c0.939,0.085,1.877,0.085,2.816,0.085h45.568c0.939,0,1.877,0,2.816-0.085c23.237-0.428,45.976-6.803,66.048-18.517
		L388.267,306.261z"/>
	<g>
		<path d="M179.2,494.933H97.342c-9.289,0.06-17.869-4.956-22.375-13.079c-4.56-7.937-4.424-17.73,0.354-25.538
			c7.462-12.441,11.951-26.436,13.117-40.896c0.244-3.056,2.108-5.746,4.884-7.048c2.776-1.301,6.036-1.014,8.541,0.754
			c2.505,1.767,3.87,4.742,3.575,7.794c-1.391,17.056-6.7,33.561-15.512,48.229c-1.56,2.545-1.595,5.742-0.092,8.321
			c1.509,2.729,4.39,4.415,7.508,4.396H179.2c4.713,0,8.533,3.82,8.533,8.533S183.913,494.933,179.2,494.933L179.2,494.933z"/>
		<path d="M414.658,494.933H332.8c-4.713,0-8.533-3.82-8.533-8.533s3.82-8.533,8.533-8.533h81.858
			c3.119,0.02,5.999-1.667,7.508-4.396c1.504-2.579,1.467-5.777-0.096-8.321c-8.81-14.67-14.117-31.174-15.509-48.229
			c-0.295-3.051,1.069-6.027,3.575-7.794c2.505-1.767,5.766-2.055,8.541-0.754c2.776,1.301,4.64,3.992,4.884,7.048
			c1.167,14.459,5.654,28.454,13.112,40.896c4.782,7.806,4.919,17.6,0.358,25.538C432.527,489.977,423.947,494.993,414.658,494.933
			L414.658,494.933z"/>
		<path d="M257.796,512h-3.588c-39.416,0.006-77.485-14.339-107.096-40.354L82.6,414.988
			c-15.849-13.518-26.518-32.115-30.188-52.621c-0.822-4.892-1.228-9.844-1.213-14.804V221.867
			c0.059-51.817,42.05-93.808,93.867-93.867h128.542c2.532,0.002,4.932-1.124,6.55-3.071l37.554-45.058
			c2.299-2.761,6.082-3.785,9.46-2.562c3.378,1.223,5.628,4.431,5.627,8.024v34.133c0.006,4.71,3.823,8.527,8.533,8.533h25.6
			c51.817,0.059,93.808,42.05,93.867,93.867v125.696c0.013,5.005-0.399,10.002-1.233,14.938
			c-3.684,20.447-14.336,38.987-30.146,52.467l-64.533,56.683C335.278,497.665,297.21,512.008,257.796,512L257.796,512z
			 M145.067,145.067c-42.395,0.049-76.751,34.405-76.8,76.8v125.696c-0.015,4.03,0.314,8.055,0.983,12.029
			c3.033,16.622,11.741,31.675,24.638,42.592l64.488,56.638c26.496,23.281,60.562,36.118,95.833,36.112h3.587
			c35.268,0.006,69.331-12.829,95.825-36.108l64.513-56.662c12.857-10.878,21.548-25.874,24.596-42.437
			c0.682-4.018,1.017-8.087,1.004-12.162V221.867c-0.049-42.395-34.405-76.751-76.8-76.8h-25.6
			c-14.132-0.015-25.585-11.468-25.6-25.6v-10.562l-22.462,26.95c-4.856,5.845-12.064,9.222-19.663,9.213H145.067z"/>
	</g>
	<path style="fill:#FEDD0A;" d="M374.016,315.819l-26.368,15.445c-6.019,3.544-12.328,6.57-18.859,9.045l38.059-22.187
		C369.044,316.848,371.489,316.062,374.016,315.819z"/>
	<g>
		<path d="M264.533,469.333h-17.067c-0.958,0.002-1.909-0.159-2.813-0.475c-25.184-1.91-49.231-11.266-69.083-26.879l-70.667-55.525
			c-12.393-9.675-19.617-24.536-19.571-40.258v-26.35c0-9.167,4.901-17.634,12.85-22.2s17.733-4.532,25.65,0.087l44.85,26.163
			c19.578,11.415,41.833,17.432,64.496,17.438h45.642c22.663-0.006,44.918-6.023,64.496-17.438l0,0l44.85-26.163
			c7.918-4.62,17.701-4.653,25.65-0.087s12.85,13.033,12.85,22.2v26.35c0.045,15.723-7.179,30.585-19.571,40.262l-70.667,55.521
			c-19.884,15.638-43.974,24.998-69.2,26.888C266.364,469.177,265.452,469.335,264.533,469.333z M249.717,452.267h12.621
			c0.548-0.156,1.111-0.251,1.679-0.283c22.532-1.301,44.125-9.475,61.871-23.421l70.667-55.525
			c8.261-6.452,13.076-16.36,13.046-26.842v-26.35c0-3.056-1.634-5.878-4.283-7.4c-2.65-1.522-5.911-1.511-8.55,0.029l-44.85,26.163
			c-22.189,12.936-47.412,19.756-73.096,19.763h-45.642c-25.684-0.007-50.907-6.826-73.096-19.763l-44.85-26.163
			c-2.639-1.54-5.9-1.551-8.55-0.029c-2.65,1.522-4.283,4.344-4.283,7.4v26.35c-0.031,10.481,4.784,20.388,13.046,26.837
			l70.667,55.529c17.746,13.946,39.338,22.12,61.871,23.421C248.569,452.018,249.15,452.113,249.717,452.267z"/>
		<path d="M238.933,324.267H230.4c-4.713,0-8.533-3.821-8.533-8.533c0-4.713,3.821-8.533,8.533-8.533h8.533
			c4.713,0,8.533,3.821,8.533,8.533C247.467,320.446,243.646,324.267,238.933,324.267z"/>
		<path d="M281.6,324.267h-8.533c-4.713,0-8.533-3.821-8.533-8.533c0-4.713,3.82-8.533,8.533-8.533h8.533
			c4.713,0,8.533,3.821,8.533,8.533C290.133,320.446,286.313,324.267,281.6,324.267z"/>
		<path d="M204.8,401.067c-2.943-0.001-5.677-1.517-7.237-4.012l-37.208-59.571c-2.492-3.999-1.27-9.262,2.729-11.754
			c3.999-2.492,9.262-1.27,11.754,2.729l29.817,47.734l18.429-30.717c1.569-2.614,4.413-4.192,7.462-4.141
			c3.048,0.052,5.837,1.726,7.317,4.392c1.479,2.666,1.424,5.918-0.145,8.532l-25.6,42.667c-1.53,2.545-4.272,4.113-7.242,4.141
			H204.8z"/>
		<path d="M138.071,372.992c-3.819,0.003-7.174-2.533-8.212-6.208l-16.471-58.196c-1.265-4.529,1.371-9.228,5.895-10.509
			c4.525-1.281,9.233,1.339,10.529,5.859l12.887,45.55l24.567-20.425c2.368-1.946,5.599-2.472,8.463-1.379s4.921,3.64,5.388,6.669
			c0.468,3.03-0.726,6.077-3.126,7.984l-2.217,1.792l-32.237,26.883C142.003,372.291,140.068,372.991,138.071,372.992
			L138.071,372.992z"/>
		<path d="M256,409.6c-3.232,0.001-6.188-1.825-7.633-4.717l-25.6-51.2c-1.375-2.729-1.187-5.984,0.494-8.536
			c1.681-2.552,4.598-4.01,7.647-3.824c3.05,0.186,5.767,1.989,7.125,4.726L256,381.988l17.967-35.938
			c1.358-2.737,4.075-4.54,7.125-4.726c3.05-0.186,5.967,1.272,7.647,3.824s1.869,5.807,0.494,8.536l-25.6,51.2
			C262.188,407.775,259.233,409.601,256,409.6L256,409.6z"/>
		<path d="M307.2,401.067h-0.075c-2.97-0.028-5.712-1.596-7.242-4.142l-25.6-42.667c-1.569-2.614-1.624-5.866-0.145-8.532
			c1.479-2.666,4.268-4.34,7.317-4.392c3.048-0.052,5.893,1.527,7.462,4.141l18.429,30.717l29.817-47.733
			c2.492-3.999,7.755-5.221,11.754-2.729s5.221,7.755,2.729,11.754l-37.208,59.571C312.878,399.551,310.143,401.067,307.2,401.067z"
			/>
		<path d="M373.929,372.992c-1.998-0.001-3.932-0.701-5.467-1.979l-34.454-28.675c-3.64-2.969-4.196-8.321-1.244-11.975
			c2.952-3.654,8.301-4.235,11.969-1.3l2.217,1.792l22.35,18.633l12.887-45.55c0.822-2.944,3.156-5.223,6.118-5.976
			c2.962-0.753,6.101,0.136,8.229,2.33c2.128,2.194,2.921,5.358,2.078,8.296l-16.471,58.196
			C381.103,370.458,377.748,372.995,373.929,372.992L373.929,372.992z"/>
	</g>
	<g>
		<circle style="fill:#1CD759;" cx="166.4" cy="226.133" r="55.467"/>
		<circle style="fill:#1CD759;" cx="345.6" cy="226.133" r="55.467"/>
	</g>
	<g>
		<path d="M166.4,290.133c-35.346,0-64-28.654-64-64s28.654-64,64-64s64,28.654,64,64C230.361,261.464,201.73,290.095,166.4,290.133
			z M166.4,179.2c-25.921,0-46.933,21.013-46.933,46.933s21.013,46.933,46.933,46.933s46.933-21.013,46.933-46.933
			C213.304,200.225,192.308,179.229,166.4,179.2L166.4,179.2z"/>
		<path d="M345.6,290.133c-35.346,0-64-28.654-64-64s28.654-64,64-64s64,28.654,64,64C409.561,261.464,380.93,290.095,345.6,290.133
			z M345.6,179.2c-18.983,0-36.096,11.435-43.361,28.973c-7.264,17.538-3.249,37.725,10.174,51.147
			c13.423,13.423,33.61,17.438,51.147,10.174c17.538-7.264,28.973-24.378,28.973-43.361
			C392.504,200.225,371.508,179.229,345.6,179.2L345.6,179.2z"/>
		<path d="M221.867,290.133c-4.713,0-8.533-3.821-8.533-8.533v-59.733c0-4.713,3.821-8.533,8.533-8.533
			c4.713,0,8.533,3.821,8.533,8.533V281.6C230.4,286.313,226.579,290.133,221.867,290.133z"/>
		<path d="M290.133,290.133c-4.713,0-8.533-3.821-8.533-8.533v-59.733c0-4.713,3.821-8.533,8.533-8.533
			c4.713,0,8.533,3.821,8.533,8.533V281.6C298.667,286.313,294.846,290.133,290.133,290.133z"/>
		<path d="M196.267,307.2c-4.713,0-8.533-3.82-8.533-8.533v-25.6c0-4.713,3.821-8.533,8.533-8.533s8.533,3.82,8.533,8.533v25.6
			C204.8,303.38,200.98,307.2,196.267,307.2z"/>
		<path d="M324.267,307.2c-4.713,0-8.533-3.82-8.533-8.533V281.6c0-4.713,3.821-8.533,8.533-8.533s8.533,3.82,8.533,8.533v17.067
			C332.8,303.38,328.98,307.2,324.267,307.2z"/>
	</g>
</g>
<g>
</g>
<g>
</g>
<g>
</g>
<g>
</g>
<g>
</g>
<g>
</g>
<g>
</g>
<g>
</g>
<g>
</g>
<g>
</g>
<g>
</g>
<g>
</g>
<g>
</g>
<g>
</g>
<g>
</g>
</svg>
