<?xml version="1.0" encoding="iso-8859-1"?>
<!-- Generator: Adobe Illustrator 19.0.0, SVG Export Plug-In . SVG Version: 6.00 Build 0)  -->
<svg version="1.1" id="Capa_1" xmlns="http://www.w3.org/2000/svg" xmlns:xlink="http://www.w3.org/1999/xlink" x="0px" y="0px"
	 viewBox="0 0 512.029 512.029" style="enable-background:new 0 0 512.029 512.029;" xml:space="preserve">
<g>
	<g>
		<path style="fill:#FFA800;" d="M409.517,503.481c60.862-55.855,95.034-135,93.952-217.6
			c0-153.173-110.763-277.333-247.467-277.333S8.535,132.708,8.535,285.881c-1.082,82.6,33.09,161.745,93.952,217.6"/>
		<path style="fill:#FFFFFF;" d="M123.223,503.481h-25.6c-54.272-50.859-89.088-129.365-89.088-217.6
			c0-153.173,105.045-277.333,234.667-277.333c4.267,0,8.533,0.171,12.8,0.427C132.354,16.825,34.135,137.743,34.135,285.881
			C34.135,374.116,68.951,452.623,123.223,503.481z"/>
		<path style="fill:#FEDD0A;" d="M477.869,285.881c0,88.235-34.816,166.741-89.088,217.6H123.223
			c-54.272-50.859-89.088-129.365-89.088-217.6c0-148.139,98.219-269.056,221.867-276.907
			C379.65,16.825,477.869,137.743,477.869,285.881z"/>
		<path style="fill:#FFA800;" d="M503.469,285.881c0,52.395-32.512,99.328-84.139,131.413
			c-11.942,7.385-23.271,15.718-33.877,24.917l-26.197,23.04c-7.973,6.978-16.637,13.125-25.856,18.347
			c10.752-59.051,49.92-100.779,80.384-125.099c24.322-19.449,38.482-48.901,38.485-80.043v-30.976
			c0.076-34.415-12.186-67.717-34.56-93.867C470.274,185.529,503.469,232.975,503.469,285.881z"/>
		<path style="fill:#FFFFFF;" d="M178.605,483.599c-9.219-5.222-17.883-11.369-25.856-18.347l-26.197-23.04
			c-10.607-9.2-21.936-17.532-33.877-24.917C41.047,385.209,8.535,338.276,8.535,285.881c0-52.821,33.109-100.267,85.589-132.181
			c-10.854,12.681-19.377,27.184-25.173,42.837l-0.085,0.085c-21.899,24.63-34.224,56.305-34.731,89.259
			c0,52.395,32.512,99.328,84.139,131.413c11.942,7.385,23.271,15.718,33.877,24.917l20.48,18.005
			C175.183,467.857,177.179,475.671,178.605,483.599L178.605,483.599z"/>
		<path style="fill:#FFA800;" d="M172.631,460.217l-20.48-18.005c-10.607-9.2-21.936-17.532-33.877-24.917
			c-51.627-32.085-84.139-79.019-84.139-131.413c0.507-32.953,12.832-64.629,34.731-89.259c-6.05,16.273-9.142,33.497-9.131,50.859
			v30.976c0.003,31.142,14.164,60.594,38.485,80.043C132.296,384.538,158.133,419.857,172.631,460.217L172.631,460.217z"/>
		<g>
			<path style="fill:#FEDD0A;" d="M452.354,277.86c0.077,31.127-13.986,60.604-38.229,80.128
				c-30.379,24.405-69.461,66.304-80.043,125.355h-0.085c-22.973,13.142-48.969,20.082-75.435,20.139h-3.584
				c-3.755,0-7.509-0.085-11.264-0.427c-22.61-1.523-44.594-8.083-64.341-19.2h-0.085c-10.923-59.051-50.176-100.608-80.725-124.843
				c-24.4-19.375-38.658-48.8-38.741-79.957l-0.085-30.976c-0.222-34.406,11.922-67.748,34.219-93.952v-0.085
				c0.085,0,0.085-0.085,0.171-0.085v-0.085c45.248-26.685,96.562-41.372,149.077-42.667h0.853c3.84-0.171,7.68-0.256,11.52-0.256
				c56.675-0.939,112.54,13.543,161.621,41.899v0.085c0.085,0,0.085,0.085,0.171,0.171c22.452,26.094,34.832,59.358,34.901,93.781
				L452.354,277.86z"/>
			<path style="fill:#FEDD0A;" d="M426.754,277.86c0.077,31.127-13.986,60.604-38.229,80.128
				c-30.379,24.405-69.461,66.304-80.043,125.355h-0.085c-19.809,11.339-41.916,18.076-64.683,19.712
				c-22.61-1.523-44.594-8.083-64.341-19.2h-0.085c-10.923-59.051-50.176-100.608-80.725-124.843
				c-24.4-19.375-38.658-48.8-38.741-79.957l-0.085-30.976c-0.222-34.406,11.922-67.748,34.219-93.952v-0.085
				c0.085,0,0.085-0.085,0.171-0.085v-0.085c45.248-26.685,96.562-41.372,149.077-42.667h0.853
				c51.925,1.263,102.696,15.585,147.627,41.643v0.085c0.085,0,0.085,0.085,0.171,0.171c22.462,26.082,34.816,59.36,34.816,93.781
				L426.754,277.86z"/>
		</g>
		<g>
			<path d="M102.481,512.015c-2.088,0.003-4.104-0.764-5.662-2.154c-12.075-10.752-23.174-22.552-33.167-35.263
				c-1.907-2.393-2.387-5.625-1.257-8.469s3.697-4.865,6.727-5.297c3.03-0.432,6.059,0.793,7.938,3.208
				c9.368,11.917,19.772,22.981,31.092,33.063c2.649,2.354,3.568,6.1,2.308,9.412C109.201,509.827,106.025,512.016,102.481,512.015
				L102.481,512.015z"/>
			<path d="M409.523,512.015c-3.544,0.001-6.72-2.188-7.979-5.5c-1.26-3.312-0.341-7.059,2.308-9.412
				c59.095-54.195,92.235-131.046,91.083-211.221c0-148.217-107.183-268.8-238.933-268.8S17.069,137.665,17.069,285.881
				c-0.138,38.355,7.204,76.368,21.617,111.913c1.769,4.363-0.329,9.335-4.689,11.111s-9.335-0.313-11.119-4.67
				C7.633,366.646-0.137,326.444,0.002,285.881c0-157.629,114.842-285.867,256-285.867s256,128.237,256,285.867
				c1.154,85.052-34.073,166.547-96.817,223.979C413.627,511.25,411.611,512.017,409.523,512.015z"/>
			<path d="M46.081,443.748c-2.259-0.033-4.422-0.917-6.059-2.475c-0.755-0.829-1.361-1.782-1.792-2.817
				c-0.439-1.025-0.671-2.127-0.683-3.242c0.031-2.259,0.915-4.423,2.475-6.059c2.451-2.425,6.122-3.134,9.3-1.796
				c1.034,0.434,1.987,1.041,2.817,1.796c2.462,2.441,3.201,6.129,1.872,9.331C52.682,441.689,49.547,443.768,46.081,443.748
				L46.081,443.748z"/>
			<path d="M409.518,512.015H102.485c-4.713,0-8.533-3.82-8.533-8.533c0-4.713,3.82-8.533,8.533-8.533h307.033
				c4.713,0,8.533,3.821,8.533,8.533C418.052,508.194,414.231,512.015,409.518,512.015z"/>
		</g>
		<g>
			<path style="fill:#FFA800;" d="M94.125,153.7l0.171-0.171c0.085,0,0.085-0.085,0.171-0.085v-0.085"/>
			<path style="fill:#FFA800;" d="M417.538,153.359v0.085c0.085,0,0.085,0.085,0.171,0.171"/>
		</g>
		<path d="M257.794,512.015h-3.584c-27.17,0-53.904-6.838-77.737-19.883h-0.025l-2.038-1.104
			c-9.722-5.508-18.859-11.99-27.271-19.346l-26.229-23.046v0.004c-10.223-8.902-21.16-16.949-32.7-24.062
			C32.152,389.744,0.002,339.19,0.002,285.881c0-52.721,31.254-102.496,85.929-137.183v-0.042l4.087-2.579
			c50.366-29.285,107.727-44.373,165.983-43.662c58.257-0.711,115.617,14.378,165.983,43.662l4.087,2.621
			c54.675,34.687,85.929,84.463,85.929,137.183c0,53.308-32.15,103.863-88.208,138.696c-11.54,7.113-22.476,15.161-32.7,24.062
			l-26.204,23.021c-8.419,7.364-17.565,13.853-27.296,19.367l-2.063,1.104C311.697,505.177,284.964,512.015,257.794,512.015z
			 M181.252,475.281l1.646,0.896c21.753,12.305,46.32,18.772,71.312,18.771h3.584c24.992,0.001,49.559-6.466,71.312-18.771
			l2.012-1.112c8-4.699,15.543-10.137,22.529-16.242l26.179-23.004c10.93-9.52,22.622-18.128,34.958-25.737
			c50.937-31.65,80.15-76.921,80.15-124.2c0-47.925-29.825-93.538-81.829-125.146l-4.1-2.529
			c-46.76-26.01-99.501-39.359-153.004-38.725c-53.942-0.658-107.102,12.926-154.117,39.379l-2.988,1.875
			c-52.004,31.608-81.829,77.221-81.829,125.146c0,47.279,29.213,92.55,80.15,124.2c12.336,7.609,24.027,16.216,34.958,25.733v0.004
			l26.204,23.025C165.466,465.036,173.124,470.54,181.252,475.281L181.252,475.281z"/>
		<g>
			<path style="fill:#FFA800;" d="M102.402,258.129L102.402,258.129c0.005,9.089,3.637,17.801,10.09,24.202l6.356,6.315
				c6.486,6.434,15.253,10.041,24.389,10.036l0,0c7.841,0.004,15.365-3.092,20.931-8.614l0,0
				c11.831-11.751,21.687-25.336,29.185-40.229l21.69-43.099c4.486-8.91,6.824-18.747,6.825-28.722v-0.005
				c-0.044-13.518-11.039-24.441-24.557-24.398h-0.088c-9.281-0.013-17.777,5.204-21.965,13.487l-0.001,0.003
				c-13.021,25.852-31.889,48.313-55.106,65.6l-7.927,5.906C106.05,243.199,102.408,250.436,102.402,258.129L102.402,258.129z"/>
			<path style="fill:#FFA800;" d="M409.602,258.129L409.602,258.129c-0.005,9.089-3.637,17.801-10.09,24.202l-6.356,6.315
				c-6.486,6.434-15.253,10.041-24.389,10.036l0,0c-7.841,0.004-15.365-3.092-20.931-8.614l0,0
				c-11.831-11.751-21.687-25.336-29.185-40.229l-21.69-43.099c-4.486-8.91-6.824-18.747-6.825-28.722v-0.005
				c0.044-13.518,11.039-24.441,24.557-24.398h0.088c9.281-0.013,17.777,5.204,21.965,13.487l0.001,0.003
				c13.021,25.852,31.889,48.313,55.106,65.6l7.927,5.906C405.953,243.199,409.595,250.436,409.602,258.129L409.602,258.129z"/>
		</g>
		<g>
			<path d="M143.235,307.215c-11.397,0.037-22.339-4.469-30.404-12.521l-6.35-6.308c-8.094-7.985-12.639-18.888-12.612-30.258
				c0.03-10.381,4.939-20.144,13.254-26.358l7.929-5.908c22.132-16.517,40.132-37.942,52.583-62.592
				c6.915-13.657,22.277-20.809,37.18-17.309c14.902,3.5,25.475,16.743,25.587,32.051c-0.014,11.309-2.663,22.46-7.738,32.567
				l-21.692,43.1c-7.906,15.717-18.302,30.051-30.788,42.446C163.033,303.255,153.336,307.246,143.235,307.215L143.235,307.215z
				 M197.31,162.148c-6.09-0.06-11.685,3.348-14.425,8.788c-13.647,27.02-33.377,50.505-57.637,68.608l-7.925,5.908
				c-4.003,2.987-6.369,7.681-6.388,12.675c-0.015,6.821,2.714,13.362,7.571,18.15l6.354,6.313c9,9.15,23.547,9.772,33.296,1.425
				c11.182-11.101,20.494-23.937,27.575-38.012l21.692-43.1c3.876-7.723,5.9-16.243,5.912-24.884
				C213.282,169.215,206.114,162.116,197.31,162.148L197.31,162.148z"/>
			<path d="M368.768,307.215c-10.099,0.032-19.796-3.959-26.946-11.092c-12.488-12.394-22.886-26.728-30.792-42.446l-21.692-43.1
				c-5.073-10.104-7.722-21.252-7.737-32.558c0.108-15.309,10.679-28.556,25.583-32.058c14.904-3.502,30.268,3.649,37.184,17.308
				c12.451,24.649,30.449,46.074,52.579,62.592l7.933,5.908c8.315,6.215,13.224,15.977,13.254,26.358
				c0.026,11.37-4.518,22.273-12.612,30.258l-6.354,6.313C391.104,302.748,380.163,307.252,368.768,307.215z M314.781,162.148
				c-4.241-0.035-8.321,1.617-11.343,4.592c-3.022,2.975-4.738,7.029-4.769,11.27c0.012,8.644,2.036,17.166,5.913,24.892
				l21.692,43.1c7.081,14.076,16.395,26.913,27.579,38.013c9.745,8.347,24.289,7.726,33.287-1.421l6.358-6.317
				c4.857-4.789,7.585-11.329,7.571-18.15c-0.019-4.994-2.385-9.689-6.388-12.675l-7.929-5.908
				c-24.256-18.103-43.981-41.587-57.625-68.604C326.402,165.523,320.844,162.117,314.781,162.148z"/>
		</g>
		<path style="fill:#FFA800;" d="M298.669,366.292c0,23.201-19.103,94.523-42.667,94.523s-42.667-71.322-42.667-94.523
			c0.361-23.306,19.357-42.011,42.667-42.011C279.311,324.281,298.307,342.985,298.669,366.292L298.669,366.292z"/>
	</g>
	<path style="fill:#FFA800;" d="M248.177,288.347c5.277-2.211,11.221-2.211,16.498,0c6.788,2.878,14.545,2.321,20.852-1.496
		c7.275-5.021,7.275-15.063,0-25.104c-4.796-6.727-10.348-12.88-16.549-18.339c-7.313-5.944-17.792-5.944-25.105,0
		c-6.201,5.459-11.753,11.613-16.548,18.34c-7.275,10.042-7.275,20.084,0,25.104C233.633,290.668,241.389,291.224,248.177,288.347
		L248.177,288.347z"/>
	<g>
		<path d="M256.002,469.348c-32.563,0-51.2-80.992-51.2-103.058c0.362-28.019,23.178-50.543,51.2-50.543s50.838,22.524,51.2,50.543
			C307.202,388.356,288.564,469.348,256.002,469.348z M256.002,332.815c-18.66-0.159-33.929,14.815-34.133,33.475
			c0,28.117,21.083,85.992,34.133,85.992c13.05,0,34.133-57.875,34.133-85.992C289.931,347.63,274.662,332.656,256.002,332.815
			L256.002,332.815z"/>
		<path d="M273.835,298.69c-4.288,0.013-8.536-0.832-12.492-2.487c-3.146-1.308-6.683-1.308-9.829,0h-0.004
			c-9.473,4.04-20.327,3.168-29.033-2.333c-4.709-3.177-7.897-8.156-8.812-13.762c-0.97-8.381,1.463-16.8,6.754-23.371
			c5.155-7.249,11.136-13.874,17.821-19.742c10.523-8.811,25.85-8.81,36.371,0.004c6.753,5.93,12.788,12.63,17.983,19.963
			c5.2,6.527,7.574,14.863,6.592,23.15c-0.918,5.605-4.106,10.583-8.812,13.762C285.467,297.098,279.706,298.776,273.835,298.69z
			 M256.427,278.148c3.981-0.003,7.921,0.795,11.587,2.346c4.098,1.739,8.769,1.493,12.663-0.667
			c0.915-0.581,1.531-1.532,1.687-2.604c0.081-3.832-1.253-7.56-3.746-10.471c-4.432-6.206-9.556-11.887-15.275-16.933
			c-4.081-3.13-9.755-3.132-13.837-0.004c-5.65,4.981-10.719,10.587-15.108,16.708c-2.58,2.962-3.973,6.773-3.913,10.7
			c0.156,1.071,0.773,2.021,1.687,2.6c3.896,2.159,8.569,2.406,12.671,0.671C248.508,278.943,252.447,278.145,256.427,278.148
			L256.427,278.148z"/>
		<path d="M178.689,492.131h-0.083c-4.122-0.001-7.654-2.946-8.396-7c-10.271-56.275-47.708-96.313-77.3-119.987
			c-26.409-20.996-41.772-52.912-41.708-86.65v-31.013c-0.028-36.465,12.951-71.743,36.604-99.496
			c0.516-0.602,1.114-1.129,1.775-1.567c2.597-1.826,5.994-2.056,8.813-0.597c2.82,1.459,4.594,4.365,4.603,7.539
			c-0.001,2.281-0.902,4.469-2.508,6.088l0,0l-0.158,0.154c-20.731,24.587-32.09,55.719-32.062,87.879v31.013
			c-0.05,28.55,12.952,55.557,35.3,73.325c31.729,25.379,71.854,68.396,83.279,129.425c0.74,2.568,0.233,5.335-1.37,7.474
			C183.875,490.857,181.362,492.12,178.689,492.131L178.689,492.131z"/>
		<path d="M333.398,492.131c-2.698,0.009-5.241-1.257-6.861-3.414c-1.62-2.157-2.127-4.952-1.368-7.541
			c11.442-60.992,51.55-103.987,83.267-129.358c22.348-17.768,35.35-44.775,35.3-73.325v-31.013
			c0.018-32.262-11.431-63.48-32.304-88.079c-2.237-2.289-3.009-5.635-2.001-8.673c1.008-3.038,3.627-5.259,6.789-5.757
			s6.337,0.811,8.229,3.392c23.487,27.683,36.372,62.812,36.354,99.117v31.013c0.063,33.738-15.299,65.654-41.708,86.65
			c-29.592,23.675-67.029,63.713-77.3,119.987C341.052,489.185,337.519,492.131,333.398,492.131L333.398,492.131z"/>
	</g>
</g>
<g>
</g>
<g>
</g>
<g>
</g>
<g>
</g>
<g>
</g>
<g>
</g>
<g>
</g>
<g>
</g>
<g>
</g>
<g>
</g>
<g>
</g>
<g>
</g>
<g>
</g>
<g>
</g>
<g>
</g>
</svg>
