<?xml version="1.0" encoding="iso-8859-1"?>
<!-- Generator: Adobe Illustrator 19.0.0, SVG Export Plug-In . SVG Version: 6.00 Build 0)  -->
<svg version="1.1" id="Capa_1" xmlns="http://www.w3.org/2000/svg" xmlns:xlink="http://www.w3.org/1999/xlink" x="0px" y="0px"
	 viewBox="0 0 512 512" style="enable-background:new 0 0 512 512;" xml:space="preserve">
<g transform="translate(-1)">
	<g>
		<polygon style="fill:#FFA800;" points="394.006,187.733 424.385,172.544 414.657,139.008 386.582,153.003 		"/>
		<polygon style="fill:#FFA800;" points="120.94,187.733 89.708,172.117 99.521,138.667 128.364,153.003 		"/>
		<path style="fill:#FFA800;" d="M427.001,344.832c-5.509,5.673-11.892,10.427-18.906,14.08c-3.081,1.877-11.41,5.12-13.076,8.277
			c-0.375,2.346-0.375,4.737,0,7.083v13.141c0,6.144,0.167,12.288-0.083,18.432c-1.085,23.484-10.064,45.914-25.485,63.659
			c-14.859,17.007-35.069,28.444-57.299,32.427c-12.921,1.666-25.965,2.18-38.977,1.536h-3.081
			c-2.082,0.085-4.164,0.085-6.246,0.085c-8.911,0.085-17.989,0.341-26.984,0.085c-0.44-0.085-0.893-0.085-1.333,0
			c-20.323,0.426-40.392-4.582-58.132-14.507c-19.557-12.064-34.51-30.329-42.475-51.883c-5.29-16.933-7.463-34.686-6.413-52.395
			c0.958-5.906,0.958-11.928,0-17.835c-2.082-3.67-11.577-7.168-15.074-9.387c-18.656-11.435-32.148-29.355-24.402-52.992
			c8.578-25.941,29.566-46.848,36.978-73.387c4.33-15.787,1.749-32.341,2.665-48.469c1.375-24.333,12.958-46.954,31.898-62.293
			c8.801-6.991,18.91-12.154,29.732-15.189L202.8,102.4h120.762l8.329,2.731h0.666c23.133,6.256,42.495,22.09,53.219,43.52
			c7.462,17.307,10.633,36.159,9.244,54.955c-0.506,16.401,3.314,32.647,11.077,47.104c7.162,13.227,14.325,26.539,21.487,39.765
			C437.161,308.139,441.076,327.936,427.001,344.832z"/>
	</g>
	<path style="fill:#FFFFFF;" d="M251.414,503.467h-7.424c-4.011,0-8.021,0.085-12.032,0.171c-0.451-0.085-0.914-0.085-1.365,0
		c-20.779,0.437-41.312-4.564-59.563-14.507c-19.918-11.921-35.246-30.195-43.52-51.883c-5.417-16.907-7.645-34.674-6.571-52.395
		c0-3.925,1.963-14.507,0-17.835c-2.133-3.67-11.861-7.168-15.445-9.387c-19.115-11.435-32.939-29.355-25.003-52.992
		c8.789-25.941,30.293-46.848,37.888-73.387c4.437-15.787,1.792-32.341,2.731-48.469c1.487-24.482,13.383-47.156,32.683-62.293
		c9.06-7.012,19.411-12.173,30.464-15.189l12.8-2.901h25.6l-12.8,2.901c-11.053,3.016-21.404,8.177-30.464,15.189
		c-19.299,15.137-31.195,37.811-32.683,62.293c-0.939,16.128,1.707,32.683-2.731,48.469c-7.595,26.539-29.099,47.445-37.888,73.387
		c-7.936,23.637,5.888,41.557,25.003,52.992c3.584,2.219,13.312,5.717,15.445,9.387c1.963,3.328,0,13.909,0,17.835
		c-1.074,17.721,1.154,35.488,6.571,52.395c8.274,21.688,23.602,39.962,43.52,51.883
		C213.409,498.407,232.243,503.335,251.414,503.467z"/>
	<path style="fill:#FEDD0A;" d="M401.601,344.832c-5.669,5.691-12.208,10.444-19.371,14.08c-3.157,1.877-11.691,5.12-13.397,8.277
		c-0.384,2.345-0.384,4.737,0,7.083v13.141c0,6.144,0.171,12.288-0.085,18.432c-2.223,47.965-37.503,87.93-84.821,96.085
		c-5.561,0.9-11.178,1.413-16.811,1.536h-1.109c-1.707,0.085-3.413,0.085-5.12,0.085h-7.424c-0.597,0-1.109-0.085-1.707-0.085
		h-0.341c-19.172-0.132-38.005-5.06-54.784-14.336c-19.918-11.921-35.246-30.195-43.52-51.883
		c-5.417-16.907-7.645-34.674-6.571-52.395c0-3.925,1.963-14.507,0-17.835c-2.133-3.67-11.861-7.168-15.445-9.387
		c-19.115-11.435-32.939-29.355-25.003-52.992c8.789-25.941,30.293-46.848,37.888-73.387c4.437-15.787,1.792-32.341,2.731-48.469
		c1.487-24.482,13.383-47.156,32.683-62.293c9.06-7.012,19.411-12.173,30.464-15.189l12.8-2.901h72.96l8.533,2.731h0.683
		c23.526,6.116,43.348,21.936,54.528,43.52c7.637,17.258,10.891,36.136,9.472,54.955c-0.511,16.435,3.409,32.705,11.349,47.104
		c7.339,13.227,14.677,26.539,22.016,39.765C412.012,308.139,416.022,327.936,401.601,344.832z"/>
	<path style="fill:#FFA800;" d="M368.321,385.28c-0.611,32.492-27.15,58.499-59.648,58.453h-102.4
		c-32.498,0.046-59.037-25.961-59.648-58.453H368.321z"/>
	<path style="fill:#FEDD0A;" d="M342.806,385.28c-0.611,32.492-27.15,58.499-59.648,58.453h-76.885
		c-32.498,0.046-59.037-25.961-59.648-58.453H342.806z"/>
	<path style="fill:#FFA800;" d="M308.673,290.133c47.104,0,85.333,24.832,85.333,55.467c-0.018,6.719-1.814,13.314-5.205,19.115
		c-5.052,8.419-12.082,15.478-20.48,20.565c-18.032,10.698-38.685,16.164-59.648,15.787c-17.696,0.227-35.209-3.597-51.2-11.179
		c-15.991,7.582-33.504,11.406-51.2,11.179c-20.963,0.377-41.616-5.089-59.648-15.787c-8.398-5.087-15.428-12.146-20.48-20.565
		c-3.391-5.801-5.187-12.396-5.205-19.115c0-30.635,38.229-55.467,85.333-55.467H308.673z"/>
	<g>
		<path style="fill:#FEDD0A;" d="M291.073,290.133c42.688,0,77.333,24.832,77.333,55.467c-0.002,6.659-1.621,13.219-4.717,19.115
			c-4.433,8.255-10.802,15.311-18.56,20.565c-16.013,10.597-34.857,16.1-54.056,15.787c-16.156,0.197-32.106-3.646-46.4-11.179
			c-14.294,7.533-30.244,11.375-46.4,11.179c-19.199,0.313-38.043-5.19-54.056-15.787c-7.758-5.254-14.127-12.311-18.56-20.565
			c-3.096-5.896-4.715-12.455-4.717-19.115c0-30.635,34.645-55.467,77.333-55.467H291.073z"/>
		<path style="fill:#FEDD0A;" d="M240.406,247.467c0.029,6.807-1.612,13.516-4.779,19.541
			c-16.896,3.925-28.672,12.373-29.269,22.272c-2.842,0.542-5.726,0.827-8.619,0.853c-15.309-0.013-29.44-8.22-37.037-21.511
			c-7.597-13.291-7.499-29.632,0.258-42.83L240.406,247.467z"/>
		<path style="fill:#FEDD0A;" d="M359.873,247.467c-0.009,23.561-19.106,42.658-42.667,42.667c-2.893-0.026-5.777-0.312-8.619-0.853
			c-0.597-9.899-12.373-18.347-29.269-22.272c-3.166-6.025-4.807-12.735-4.779-19.541l79.36-21.675h0.085
			C357.866,232.354,359.9,239.843,359.873,247.467L359.873,247.467z"/>
	</g>
	<g>
		<path style="fill:#FFA800;" d="M308.673,290.133c0,10.837-13.397,20.053-32.341,23.723c-12.448,2.503-25.27,2.503-37.717,0
			c-18.944-3.669-32.341-12.885-32.341-23.723c-0.014-0.287,0.015-0.575,0.085-0.853c0.597-9.899,12.373-18.347,29.269-22.272
			c14.377-3.299,29.314-3.299,43.691,0c16.896,3.925,28.672,12.373,29.269,22.272C308.658,289.559,308.687,289.846,308.673,290.133
			L308.673,290.133z"/>
		<path style="fill:#FFA800;" d="M240.406,247.467l-79.445-21.675c9.778-16.57,29.434-24.551,47.996-19.487
			C227.519,211.37,240.398,228.226,240.406,247.467L240.406,247.467z"/>
		<path style="fill:#FFA800;" d="M353.985,225.792l-79.445,21.675c0.008-19.24,12.888-36.097,31.45-41.161
			C324.551,201.241,344.207,209.222,353.985,225.792z"/>
	</g>
	<path id="SVGCleanerId_0" d="M197.74,298.667c-28.277,0-51.2-22.923-51.2-51.2s22.923-51.2,51.2-51.2s51.2,22.923,51.2,51.2
		c0.016,8.197-1.965,16.274-5.771,23.533c-1.156,2.185-3.204,3.762-5.612,4.321c-14.521,3.371-22.4,9.833-22.683,14.475
		c-0.237,3.922-3.122,7.175-6.988,7.879C204.54,298.311,201.145,298.643,197.74,298.667z M197.74,213.333
		c-18.851,0-34.133,15.282-34.133,34.133S178.888,281.6,197.74,281.6c0.571,0,1.158-0.017,1.758-0.05
		c6.238-11.419,17.285-19.424,30.079-21.796c1.524-3.917,2.303-8.084,2.296-12.287C231.851,228.624,216.582,213.355,197.74,213.333z
		"/>
	<path id="SVGCleanerId_1" d="M317.206,298.667c-3.405-0.023-6.801-0.355-10.146-0.992c-3.866-0.704-6.75-3.957-6.988-7.879
		c-0.283-4.642-8.162-11.104-22.683-14.475c-2.409-0.559-4.456-2.135-5.612-4.321c-3.806-7.26-5.786-15.337-5.771-23.533
		c0-28.277,22.923-51.2,51.2-51.2s51.2,22.923,51.2,51.2S345.483,298.667,317.206,298.667L317.206,298.667z M315.448,281.55
		c0.6,0.033,1.188,0.05,1.758,0.05c18.851,0,34.133-15.282,34.133-34.133s-15.282-34.133-34.133-34.133
		s-34.133,15.282-34.133,34.133c-0.007,4.203,0.771,8.37,2.295,12.287C298.163,262.126,309.21,270.131,315.448,281.55z"/>
	<g>
		<path id="SVGCleanerId_0_1_" d="M197.74,298.667c-28.277,0-51.2-22.923-51.2-51.2s22.923-51.2,51.2-51.2s51.2,22.923,51.2,51.2
			c0.016,8.197-1.965,16.274-5.771,23.533c-1.156,2.185-3.204,3.762-5.612,4.321c-14.521,3.371-22.4,9.833-22.683,14.475
			c-0.237,3.922-3.122,7.175-6.988,7.879C204.54,298.311,201.145,298.643,197.74,298.667z M197.74,213.333
			c-18.851,0-34.133,15.282-34.133,34.133S178.888,281.6,197.74,281.6c0.571,0,1.158-0.017,1.758-0.05
			c6.238-11.419,17.285-19.424,30.079-21.796c1.524-3.917,2.303-8.084,2.296-12.287C231.851,228.624,216.582,213.355,197.74,213.333
			z"/>
	</g>
	<g>
		<path id="SVGCleanerId_1_1_" d="M317.206,298.667c-3.405-0.023-6.801-0.355-10.146-0.992c-3.866-0.704-6.75-3.957-6.988-7.879
			c-0.283-4.642-8.162-11.104-22.683-14.475c-2.409-0.559-4.456-2.135-5.612-4.321c-3.806-7.26-5.786-15.337-5.771-23.533
			c0-28.277,22.923-51.2,51.2-51.2s51.2,22.923,51.2,51.2S345.483,298.667,317.206,298.667L317.206,298.667z M315.448,281.55
			c0.6,0.033,1.188,0.05,1.758,0.05c18.851,0,34.133-15.282,34.133-34.133s-15.282-34.133-34.133-34.133
			s-34.133,15.282-34.133,34.133c-0.007,4.203,0.771,8.37,2.295,12.287C298.163,262.126,309.21,270.131,315.448,281.55z"/>
	</g>
	<g>
		<path style="fill:#FFA800;" d="M115.82,111.957c-17.408,19.797-29.013,53.931-29.013,92.843v0.341
			c-0.017,4.46-1.808,8.73-4.978,11.868c-3.17,3.138-7.458,4.885-11.918,4.857H69.74c-5.454,0.034-10.886-0.713-16.128-2.219
			c-27.819-7.851-43.605-36.437-43.605-70.315c-0.739-34.086,22.695-63.95,55.979-71.339c4.049-0.786,8.163-1.186,12.288-1.195
			c11.867-0.011,23.505,3.268,33.621,9.472c4.246,2.635,7.126,6.998,7.881,11.938C120.531,103.151,119.085,108.174,115.82,111.957z"
			/>
		<path style="fill:#FFA800;" d="M504.001,149.333c0,40.021-22.016,72.533-59.733,72.533h-0.171
			c-2.936,0.026-5.825-0.741-8.363-2.219c-5.279-2.915-8.551-8.476-8.533-14.507V204.8c0-38.912-11.605-73.045-29.013-92.843
			c-3.266-3.783-4.711-8.807-3.956-13.747s3.635-9.303,7.881-11.938c6.535-3.999,13.73-6.802,21.248-8.277
			c4.078-0.786,8.221-1.186,12.373-1.195C474.596,78.021,505.135,110.469,504.001,149.333L504.001,149.333z"/>
	</g>
	<path style="fill:#FFFFFF;" d="M35.606,156.672c-1.049,21.978,7.26,43.372,22.869,58.88c-1.354,1.655-3.003,3.043-4.864,4.096
		c-27.819-7.851-43.605-36.437-43.605-70.315c-0.739-34.086,22.695-63.95,55.979-71.339c7.518,1.475,14.713,4.278,21.248,8.277
		c0.085,0,0.085,0.085,0.171,0.085C56.209,95.365,34.961,124.21,35.606,156.672z"/>
	<g>
		<path style="fill:#FEDD0A;" d="M91.158,111.957C73.75,131.755,62.145,165.888,62.145,204.8v0.341
			c0.012,3.789-1.284,7.467-3.669,10.411c-15.609-15.508-23.918-36.902-22.869-58.88c-0.646-32.462,20.603-61.307,51.797-70.315
			c4.171,2.683,6.978,7.039,7.698,11.946S94.384,108.19,91.158,111.957z"/>
		<path style="fill:#FEDD0A;" d="M479.34,149.333c0,33.877-15.787,62.464-43.605,70.315c-5.279-2.915-8.551-8.476-8.533-14.507
			V204.8c0-38.912-11.605-73.045-29.013-92.843c-3.266-3.783-4.711-8.807-3.956-13.747s3.635-9.303,7.881-11.938
			c6.535-3.999,13.73-6.802,21.248-8.277C456.645,85.383,480.079,115.247,479.34,149.333z"/>
	</g>
	<g>
		<path d="M69.931,230.4H69.84c-40.296,0-68.367-33.338-68.367-81.067c-1.095-43.562,33.242-79.808,76.8-81.067
			c13.41,0.021,26.558,3.711,38.021,10.671c6.42,3.954,10.78,10.527,11.927,17.979c1.147,7.452-1.035,15.032-5.969,20.733
			c-16.854,19.063-26.913,51.638-26.913,87.15v0.346c0.016,6.697-2.654,13.121-7.412,17.833
			C83.157,227.752,76.679,230.424,69.931,230.4L69.931,230.4z M78.273,85.333c-34.133,1.255-60.832,29.862-59.733,64
			c0,31.854,15.833,64,51.2,64h0.033c2.283,0.042,4.485-0.84,6.108-2.446c1.534-1.517,2.395-3.585,2.392-5.742V204.8
			c0-39.558,11.658-76.363,31.192-98.454c1.609-1.87,2.304-4.359,1.896-6.792c-0.345-2.486-1.777-4.691-3.908-6.017
			C98.657,88.19,88.566,85.353,78.273,85.333z"/>
		<path d="M53.902,189.567c-2.358,0.003-4.611-0.973-6.221-2.696c-8.311-10.705-12.586-23.995-12.075-37.537
			c-0.977-23.108,15.608-43.242,38.475-46.708c3.036-0.337,6.021,0.976,7.825,3.441c1.804,2.465,2.153,5.707,0.914,8.499
			s-3.876,4.71-6.914,5.026c-14.088,2.715-24.009,15.415-23.233,29.742c-0.445,9.207,2.174,18.303,7.45,25.862
			c2.327,2.481,2.958,6.106,1.607,9.227S57.303,189.565,53.902,189.567z"/>
		<path d="M444.165,230.4c-6.78,0.043-13.295-2.63-18.092-7.421c-4.759-4.712-7.429-11.136-7.412-17.833V204.8
			c0-35.508-10.058-68.087-26.904-87.15c-4.936-5.7-7.12-13.28-5.974-20.733c1.146-7.453,5.507-14.026,11.928-17.98
			c11.46-6.961,24.608-10.651,38.017-10.671c43.558,1.259,77.895,37.505,76.8,81.067C512.523,197.1,484.348,230.417,444.165,230.4z
			 M435.727,85.333c-10.292,0.019-20.382,2.857-29.175,8.204c-2.131,1.324-3.564,3.527-3.908,6.013
			c-0.408,2.436,0.288,4.928,1.9,6.8c19.525,22.092,31.183,58.896,31.183,98.45v0.346c-0.003,2.157,0.858,4.225,2.392,5.742
			c1.578,1.576,3.72,2.456,5.95,2.446h0.033c35.525,0,51.358-32.146,51.358-64C496.559,115.195,469.86,86.589,435.727,85.333z"/>
		<path d="M460.098,189.567c-3.401-0.001-6.477-2.022-7.828-5.143c-1.351-3.121-0.72-6.747,1.607-9.227
			c5.275-7.56,7.895-16.655,7.45-25.862c0.776-14.327-9.145-27.026-23.233-29.742c-4.673-0.518-8.046-4.718-7.543-9.393
			c0.503-4.674,4.692-8.061,9.368-7.574c22.867,3.466,39.453,23.6,38.475,46.708c0.511,13.543-3.764,26.833-12.075,37.538
			C464.709,188.594,462.456,189.57,460.098,189.567L460.098,189.567z"/>
		<path d="M291.606,512H223.34c-61.239-0.068-110.866-49.695-110.933-110.933v-29.3l-18.471-11.083
			c-2.092-1.247-4.087-2.648-5.971-4.192c-3.635-2.986-4.166-8.35-1.189-11.992c2.977-3.641,8.341-4.186,11.989-1.217
			c1.242,1.013,2.557,1.933,3.933,2.754l22.633,13.579c2.57,1.542,4.142,4.32,4.142,7.317v34.133
			c0.059,51.817,42.05,93.808,93.867,93.867h68.267c51.817-0.059,93.808-42.05,93.867-93.867v-34.133
			c0-2.997,1.572-5.775,4.142-7.317l22.612-13.567c4.858-2.871,8.872-6.973,11.637-11.892c5.648-9.978,5.703-22.175,0.146-32.204
			l-28.85-51.967c-6.327-11.398-9.66-24.214-9.687-37.25v-25.004c0.013-34.947-23.588-65.489-57.408-74.292
			c-3.872-0.896-6.619-4.338-6.633-8.312c0.061-2.624,1.303-5.081,3.381-6.685c2.078-1.604,4.769-2.184,7.323-1.578
			c41.452,10.677,70.418,48.062,70.404,90.867v25.004c0.024,10.14,2.62,20.108,7.546,28.971l28.846,51.963
			c8.443,15.225,8.361,33.746-0.217,48.896c-4.223,7.506-10.35,13.766-17.762,18.15l-18.413,11.05v29.3
			C402.472,462.305,352.845,511.932,291.606,512z M257.473,324.267c-6.913,0.013-13.809-0.676-20.583-2.054
			c-24.108-4.667-39.15-16.967-39.15-32.079c-0.008-0.681,0.042-1.361,0.15-2.033c1.217-13.5,14.537-24.462,35.808-29.404
			c15.68-3.577,31.965-3.57,47.642,0.021c21.179,4.921,34.5,15.883,35.717,29.383c0.108,0.672,0.158,1.353,0.15,2.033
			c0,15.113-15.042,27.412-39.254,32.1C271.212,323.6,264.35,324.281,257.473,324.267L257.473,324.267z M214.819,290.383
			c0.371,5.158,9.821,12.075,25.417,15.092c11.342,2.286,23.026,2.293,34.371,0.021c15.742-3.046,25.2-9.992,25.525-15.092
			c-0.029-0.2-0.046-0.404-0.058-0.608c-0.283-4.642-8.162-11.104-22.683-14.475c-13.07-2.989-26.646-2.999-39.721-0.029
			c-14.633,3.4-22.512,9.862-22.796,14.504C214.86,289.992,214.844,290.188,214.819,290.383z M300.465,291.888l0.004,0.012
			L300.465,291.888z M92.469,290.133c-3.022-0.002-5.818-1.602-7.35-4.207c-1.532-2.605-1.572-5.826-0.105-8.468l19.846-35.754
			c4.927-8.861,7.523-18.828,7.546-28.967v-25.004c-0.013-42.805,28.952-80.189,70.404-90.867c2.554-0.607,5.246-0.028,7.324,1.576
			c2.078,1.604,3.32,4.061,3.38,6.686c0.016,4.105-2.903,7.635-6.938,8.392c-33.671,8.912-57.117,39.382-57.104,74.213v25.004
			c-0.026,13.035-3.36,25.85-9.687,37.246L99.94,285.742C98.433,288.455,95.572,290.137,92.469,290.133L92.469,290.133z"/>
		<path d="M206.273,409.6c-22.581,0.385-44.822-5.541-64.217-17.113c-9.607-5.824-17.629-13.929-23.354-23.596
			c-4.11-7.075-6.282-15.109-6.296-23.292c0-35.888,41.229-64,93.867-64c4.713,0,8.533,3.821,8.533,8.533
			c0,4.713-3.821,8.533-8.533,8.533c-41.629,0-76.8,21.492-76.8,46.933c0.028,5.233,1.435,10.367,4.079,14.883
			c4.384,7.213,10.45,13.256,17.679,17.613c16.65,9.831,35.71,14.83,55.042,14.437c16.379,0.242,32.595-3.278,47.4-10.288
			c4.217-2.077,9.32-0.353,11.413,3.856s0.388,9.318-3.813,11.427C244.106,405.711,225.289,409.84,206.273,409.6z"/>
		<path d="M308.673,409.6c-19.016,0.24-37.833-3.889-55-12.071c-4.201-2.109-5.906-7.218-3.813-11.427
			c2.093-4.209,7.196-5.933,11.413-3.856c14.805,7.01,31.021,10.529,47.4,10.287c19.348,0.391,38.423-4.617,55.083-14.462
			c7.194-4.34,13.234-10.354,17.604-17.529c2.663-4.531,4.082-9.686,4.112-14.942c0-25.442-35.171-46.933-76.8-46.933
			c-4.713,0-8.533-3.821-8.533-8.533c0-4.713,3.821-8.533,8.533-8.533c52.638,0,93.867,28.112,93.867,64
			c-0.017,8.205-2.2,16.26-6.329,23.35c-5.712,9.63-13.707,17.705-23.279,23.513C353.526,404.048,331.271,409.984,308.673,409.6z"/>
		<path d="M308.673,452.267h-102.4c-37.069-0.153-67.287-29.771-68.183-66.829c-0.057-3.049,1.518-5.896,4.13-7.469
			c2.612-1.573,5.865-1.634,8.533-0.158c2.669,1.475,4.347,4.262,4.404,7.311c0.676,27.777,23.332,49.972,51.117,50.079h102.4
			c27.785-0.107,50.44-22.303,51.117-50.079c0.134-4.692,3.997-8.415,8.692-8.375c4.713,0.088,8.462,3.979,8.375,8.692
			C375.96,422.496,345.742,452.114,308.673,452.267L308.673,452.267z"/>
	</g>
	<g>
		<path style="fill:#2545CF;" d="M300.14,25.6v42.667h-85.333V25.6c0.028-9.414,7.652-17.039,17.067-17.067h51.2
			C292.487,8.561,300.112,16.186,300.14,25.6z"/>
		<path style="fill:#2545CF;" d="M197.74,68.267h119.467c9.426,0,17.067,7.641,17.067,17.067v8.533
			c0,9.426-7.641,17.067-17.067,17.067H197.74c-9.426,0-17.067-7.641-17.067-17.067v-8.533
			C180.673,75.908,188.314,68.267,197.74,68.267z"/>
	</g>
	<g>
		<path style="fill:#306BF0;" d="M274.54,25.6v42.667h-59.733V25.6c0.028-9.414,7.652-17.039,17.067-17.067h25.6
			C266.887,8.561,274.512,16.186,274.54,25.6z"/>
		<path style="fill:#306BF0;" d="M197.74,68.267h93.867c9.426,0,17.067,7.641,17.067,17.067v8.533
			c0,9.426-7.641,17.067-17.067,17.067H197.74c-9.426,0-17.067-7.641-17.067-17.067v-8.533
			C180.673,75.908,188.314,68.267,197.74,68.267z"/>
	</g>
	<g>
		<path d="M300.14,76.8h-85.333c-4.713,0-8.533-3.82-8.533-8.533V25.6c0.015-14.132,11.468-25.585,25.6-25.6h51.2
			c14.132,0.015,25.585,11.468,25.6,25.6v42.667C308.673,72.98,304.852,76.8,300.14,76.8z M223.34,59.733h68.267V25.6
			c-0.006-4.71-3.823-8.527-8.533-8.533h-51.2c-4.71,0.006-8.527,3.823-8.533,8.533V59.733z"/>
		<path d="M317.206,119.467H197.74c-14.132-0.015-25.585-11.468-25.6-25.6v-8.533c0.015-14.132,11.468-25.585,25.6-25.6h119.467
			c14.132,0.015,25.585,11.468,25.6,25.6v8.533C342.791,107.999,331.338,119.451,317.206,119.467L317.206,119.467z M197.74,76.8
			c-4.71,0.006-8.527,3.823-8.533,8.533v8.533c0.006,4.71,3.823,8.527,8.533,8.533h119.467c4.71-0.006,8.527-3.823,8.533-8.533
			v-8.533c-0.006-4.71-3.823-8.527-8.533-8.533H197.74z"/>
		<path d="M128.356,161.538c-1.316,0.001-2.614-0.304-3.792-0.892l-28.842-14.338c-2.742-1.351-4.552-4.065-4.746-7.115
			c-0.194-3.051,1.259-5.972,3.808-7.658c2.549-1.687,5.806-1.881,8.538-0.51l28.842,14.338c3.549,1.764,5.417,5.739,4.509,9.597
			C135.765,158.818,132.32,161.543,128.356,161.538L128.356,161.538z"/>
		<path d="M120.931,196.267c-1.322,0-2.626-0.308-3.808-0.9L85.89,179.75c-4.2-2.117-5.896-7.232-3.792-11.438
			c2.103-4.206,7.213-5.919,11.426-3.829l31.233,15.617c3.542,1.77,5.401,5.745,4.49,9.598
			C128.334,193.552,124.891,196.272,120.931,196.267L120.931,196.267z"/>
		<path d="M386.59,161.538c-3.962,0.005-7.405-2.717-8.315-6.573c-0.91-3.856,0.953-7.83,4.499-9.598l28.075-13.996
			c2.731-1.384,5.995-1.198,8.552,0.486s4.016,4.61,3.822,7.665c-0.193,3.056-2.009,5.774-4.757,7.123l-28.075,13.996
			C389.209,161.23,387.909,161.537,386.59,161.538z"/>
		<path d="M394.015,196.267c-3.96,0.005-7.403-2.715-8.315-6.569c-0.912-3.854,0.947-7.828,4.49-9.598l30.379-15.188
			c4.213-2.09,9.323-0.378,11.426,3.829s0.407,9.321-3.792,11.438l-30.379,15.188C396.641,195.959,395.337,196.267,394.015,196.267z
			"/>
		<path d="M240.41,256.004c-0.76-0.001-1.517-0.104-2.25-0.304l-79.446-21.675c-4.547-1.24-7.228-5.932-5.988-10.479
			c1.24-4.547,5.932-7.228,10.479-5.988l79.446,21.675c4.124,1.126,6.779,5.129,6.212,9.366
			C248.298,252.836,244.685,256.001,240.41,256.004L240.41,256.004z"/>
		<path d="M274.535,256.004c-4.275-0.003-7.888-3.168-8.454-7.405c-0.566-4.237,2.089-8.24,6.212-9.366l79.446-21.675
			c2.941-0.802,6.088,0.025,8.253,2.172c2.166,2.146,3.022,5.285,2.246,8.233c-0.776,2.949-3.066,5.259-6.007,6.062L276.785,255.7
			C276.052,255.901,275.296,256.003,274.535,256.004z"/>
		<path d="M180.673,341.333c-1.116-0.013-2.219-0.245-3.246-0.683c-1.032-0.434-1.983-1.04-2.813-1.792
			c-2.682-2.666-3.292-6.777-1.499-10.107c1.792-3.329,5.56-5.084,9.262-4.314c0.535,0.091,1.053,0.263,1.538,0.508
			c0.544,0.187,1.062,0.447,1.538,0.771c0.425,0.341,0.85,0.683,1.279,1.025c0.752,0.83,1.358,1.781,1.792,2.813
			c0.911,2.067,0.911,4.421,0,6.487c-0.414,1.044-1.022,1.999-1.792,2.817C185.095,340.415,182.932,341.299,180.673,341.333z"/>
		<path d="M155.073,358.4c-3.45-0.014-6.556-2.096-7.879-5.282c-1.323-3.187-0.606-6.856,1.82-9.31
			c0.814-0.773,1.769-1.383,2.813-1.796c2.079-0.85,4.408-0.85,6.487,0c2.141,0.78,3.828,2.467,4.608,4.608
			c0.438,1.027,0.671,2.13,0.684,3.247c-0.018,2.262-0.904,4.431-2.475,6.059C159.495,357.482,157.332,358.366,155.073,358.4z"/>
		<path d="M189.206,375.467c-1.116-0.013-2.219-0.245-3.246-0.683c-1.032-0.434-1.983-1.04-2.813-1.792
			c-3.3-3.365-3.3-8.752,0-12.117c0.828-0.754,1.78-1.362,2.813-1.796c3.179-1.338,6.851-0.629,9.304,1.796
			c3.3,3.365,3.3,8.752,0,12.117C193.637,374.563,191.468,375.449,189.206,375.467z"/>
		<path d="M334.273,341.333c-1.116-0.013-2.219-0.245-3.246-0.683c-1.032-0.434-1.983-1.04-2.813-1.792
			c-2.852-2.694-3.583-6.948-1.794-10.439c1.789-3.491,5.669-5.382,9.522-4.64c3.852,0.742,6.752,3.939,7.116,7.846
			c0.364,3.906-1.895,7.584-5.544,9.025C336.489,341.087,335.388,341.32,334.273,341.333L334.273,341.333z"/>
		<path d="M359.873,358.4c-2.27,0.022-4.453-0.87-6.058-2.475c-1.605-1.605-2.497-3.788-2.475-6.058
			c0.012-1.116,0.243-2.219,0.679-3.246c0.784-2.139,2.469-3.824,4.608-4.608c3.18-1.33,6.848-0.622,9.305,1.795
			c2.462,2.441,3.201,6.129,1.872,9.331C366.474,356.341,363.34,358.42,359.873,358.4z"/>
		<path d="M325.74,375.467c-1.116-0.013-2.219-0.245-3.246-0.683c-3.248-1.231-5.367-4.377-5.288-7.85
			c0.012-1.116,0.243-2.219,0.679-3.246c0.784-2.139,2.469-3.824,4.608-4.608c3.18-1.33,6.848-0.622,9.305,1.795
			c0.771,0.815,1.379,1.77,1.792,2.813c0.438,1.027,0.67,2.13,0.683,3.246c0.022,2.27-0.87,4.453-2.475,6.058
			C330.193,374.597,328.009,375.489,325.74,375.467L325.74,375.467z"/>
		<path d="M223.34,187.733c-2.264,0.003-4.435-0.897-6.033-2.5c-20.821-20.813-48.733-7.496-49.912-6.921
			c-4.219,2.1-9.342,0.382-11.442-3.838c-2.1-4.219-0.382-9.342,3.838-11.442c1.617-0.817,39.975-19.475,69.583,10.133
			c2.44,2.441,3.17,6.111,1.849,9.299C229.902,185.654,226.791,187.733,223.34,187.733z"/>
		<path d="M291.606,187.733c-3.451-0.001-6.562-2.08-7.882-5.268c-1.32-3.188-0.591-6.858,1.849-9.298
			c29.604-29.596,67.963-10.942,69.583-10.133c4.196,2.114,5.894,7.222,3.798,11.427s-7.196,5.925-11.41,3.848
			c-1.292-0.629-29.133-13.85-49.904,6.925C296.042,186.836,293.87,187.736,291.606,187.733L291.606,187.733z"/>
	</g>
</g>
<g>
</g>
<g>
</g>
<g>
</g>
<g>
</g>
<g>
</g>
<g>
</g>
<g>
</g>
<g>
</g>
<g>
</g>
<g>
</g>
<g>
</g>
<g>
</g>
<g>
</g>
<g>
</g>
<g>
</g>
</svg>
