<?xml version="1.0" encoding="iso-8859-1"?>
<!-- Generator: Adobe Illustrator 19.0.0, SVG Export Plug-In . SVG Version: 6.00 Build 0)  -->
<svg version="1.1" id="Capa_1" xmlns="http://www.w3.org/2000/svg" xmlns:xlink="http://www.w3.org/1999/xlink" x="0px" y="0px"
	 viewBox="0 0 512 512" style="enable-background:new 0 0 512 512;" xml:space="preserve">
<path style="fill:#FFA800;" d="M452.25,153.6v194c0,4.5-0.4,9-1.1,13.5c-3.4,18.5-13.1,35.3-27.4,47.5l-64.5,56.7
	c-28,24.7-64.1,38.2-101.5,38.2h-3.6c-37.3,0-73.4-13.6-101.5-38.2l-64.5-56.7c-14.3-12.2-24-29-27.4-47.5c-0.8-4.5-1.1-9-1.1-13.5
	v-194c0,0,8.5-68.3,93.9-76.8s102.4,34.1,102.4,34.1s17.1-42.7,102.4-34.1S452.25,153.6,452.25,153.6z"/>
<path style="fill:#FEDD0A;" d="M426.65,153.6v194c0,4.5-0.4,9-1.1,13.5c-3.4,18.5-13.1,35.3-27.4,47.5l-64.5,56.7
	c-25.2,22.1-57,35.4-90.5,37.8c-33.5-2.4-65.2-15.7-90.5-37.8l-64.5-56.7c-14.3-12.2-24-29-27.4-47.5c-0.8-4.5-1.1-9-1.1-13.5v-194
	c0,0,8.5-68.3,93.9-76.8c2.7-0.3,5.4-0.5,7.9-0.7h0.3c44.3-2.9,68.6,8.6,81.4,19.2c5.4,4.1,9.8,9.5,12.8,15.6
	c0,0,12.4-30.9,68.6-34.8h0.3c2.6,0.2,5.2,0.4,7.9,0.7C418.05,85.3,426.65,153.6,426.65,153.6z"/>
<path style="fill:#FFA800;" d="M486.35,145.1v230.4c0.7,29.3-11.6,57.4-33.5,76.8V153.6c0,0-8.4-68.3-92.1-76.8
	s-100.5,34.1-100.5,34.1s-16.8-42.7-100.5-34.1s-92.1,76.8-92.1,76.8v298.7c-21.9-19.4-34.2-47.5-33.5-76.8V145.1
	c-0.3-35.9,13.6-70.4,38.7-96s59.4-40.2,95.3-40.5h184.3c35.9,0.3,70.2,14.9,95.3,40.5S486.65,109.2,486.35,145.1L486.35,145.1z"/>
<path style="fill:#FFFFFF;" d="M51.15,153.6V384c-0.1,14.4,2.8,28.7,8.5,41.9v34.9c-11.2-9.4-20-21.4-25.6-34.9
	c-5.7-13.2-8.6-27.5-8.5-41.9V153.6c0-36.2,14.4-70.9,40-96.6s60.3-40,96.6-40h25.6c-36.2,0-70.9,14.4-96.6,40
	S51.15,117.4,51.15,153.6L51.15,153.6z"/>
<path style="fill:#FEDD0A;" d="M460.75,153.6V384c0.1,14.4-2.8,28.7-8.5,41.9V162.1c0,0-8.5-68.3-93.9-76.8
	c-2.7-0.3-5.4-0.5-7.9-0.7h-0.3c-8.4-0.6-16.8-0.6-25.3,0h-0.3c-20.2,0.4-39.7,7.1-55.8,19.2c-5.4,4.1-9.8,9.5-12.8,15.6
	c-3-6.1-7.4-11.5-12.8-15.6c-15.9-12.1-35.2-18.8-55.2-19.2h-0.6c-8.5-0.6-17.1-0.6-25.6,0h-0.3c-2.6,0.2-5.2,0.4-7.9,0.7
	c-85.3,8.5-93.9,76.8-93.9,76.8v263.8c-5.7-13.2-8.6-27.5-8.5-41.9V153.6c0-36.2,14.4-70.9,40-96.6s60.3-40,96.6-40h136.5
	c62,0,116.2,41.7,132,101.6C459.25,130.1,460.75,141.8,460.75,153.6z"/>
<g>
	<circle style="fill:#34A9F7;" cx="158.95" cy="221.9" r="42.7"/>
	<circle style="fill:#34A9F7;" cx="352.95" cy="221.9" r="42.7"/>
</g>
<g>
	<ellipse style="fill:#55C9FC;" cx="150.45" cy="221.9" rx="31" ry="42.7"/>
	<ellipse style="fill:#55C9FC;" cx="341.25" cy="221.9" rx="34.1" ry="42.7"/>
</g>
<path style="fill:#FFA800;" d="M416.35,318.5c-20.1,22.5-75.2,83.3-79.9,101.1c-7.3,27.5-22,41.2-80.6,41.2c-4.5,0-8.8-0.1-12.8-0.3
	c48-2,61-15.6,67.8-41c4.7-17.8,59.7-78.6,79.9-101.1c0.6-0.6,1-1.3,1.2-2l16.1-8.7c2.9-1.3,6.4-0.4,8.4,2.1
	C418.45,312.4,418.35,316,416.35,318.5z"/>
<path style="fill:#FEDD0A;" d="M391.95,316.4c-0.2,0.8-0.6,1.5-1.2,2c-20.1,22.5-75.2,83.3-79.9,101.1c-6.7,25.3-19.8,39-67.8,41
	c-48-2-61-15.6-67.8-41c-4.7-17.8-59.7-78.6-79.9-101.1c-0.6-0.6-1-1.3-1.2-2c-0.9-2.6-0.1-5.5,1.9-7.4s5-2.4,7.5-1.3l77,41.7
	c2.9,1.6,6,2.8,9.1,3.7c5.5,1.5,11.2,1.9,16.8,1.1c11.9-1.7,23.8-2.7,35.8-3c0.5-0.1,0.9-0.1,1.4,0c3.9-0.2,8-0.3,12.1-0.3
	c13.5,0,27,0.7,40.4,2.1c3.1,0.3,6,0.7,8.8,1.1c8.9,1.2,18-0.5,25.9-4.8L391.95,316.4z"/>
<path d="M104.65,175.6c-2,0-4.1-0.8-5.7-2.3c-3.1-3.1-3.1-8.2,0-11.3c15.7-15.8,37.6-24.8,59.8-24.8h0.1c4.4,0,8,3.6,8,8s-3.6,8-8,8
	h-0.1c-18.1,0-35.7,7.3-48.5,20.1C108.75,174.8,106.75,175.6,104.65,175.6z"/>
<path d="M159.15,306.7h-0.1c-4.4,0-8-3.6-8-8s3.6-8,8-8h0.1c18.1,0,35.7-7.3,48.5-20.1c3.1-3.1,8.2-3.1,11.3,0s3.1,8.2,0,11.3
	C203.15,297.6,181.35,306.7,159.15,306.7z"/>
<path d="M158.95,272.6c-27.9,0-50.7-22.7-50.7-50.7c0-27.9,22.7-50.7,50.7-50.7c27.9,0,50.7,22.7,50.7,50.7
	C209.65,249.8,186.95,272.6,158.95,272.6z M158.95,187.2c-19.1,0-34.7,15.6-34.7,34.7s15.6,34.7,34.7,34.7s34.7-15.6,34.7-34.7
	S178.05,187.2,158.95,187.2z"/>
<path d="M407.25,175.6c-2,0-4.1-0.8-5.7-2.3c-12.8-12.8-30.4-20.1-48.5-20.1h-0.1c-4.4,0-8-3.6-8-8s3.6-8,8-8h0.1
	c22.3,0,44.1,9,59.8,24.8c3.1,3.1,3.1,8.2,0,11.3C411.35,174.8,409.25,175.6,407.25,175.6z"/>
<path d="M352.75,306.7c-22.3,0-44.1-9-59.8-24.8c-3.1-3.1-3.1-8.2,0-11.3c3.1-3.1,8.2-3.1,11.3,0c12.8,12.8,30.4,20.1,48.5,20.1h0.1
	c4.4,0,8,3.6,8,8s-3.6,8-8,8C352.85,306.7,352.85,306.7,352.75,306.7z"/>
<path d="M352.95,272.6c-27.9,0-50.7-22.7-50.7-50.7c0-27.9,22.7-50.7,50.7-50.7s50.7,22.7,50.7,50.7
	C403.55,249.8,380.85,272.6,352.95,272.6z M352.95,187.2c-19.1,0-34.7,15.6-34.7,34.7s15.6,34.7,34.7,34.7s34.7-15.6,34.7-34.7
	S372.05,187.2,352.95,187.2z"/>
<path d="M352.85,230.4c-2.2,0-4.4-0.9-6-2.5s-2.6-3.7-2.6-6s0.9-4.4,2.6-6c3.4-3.2,8.7-3.2,12,0c3.3,3.3,3.3,8.7,0,12
	c-0.4,0.4-0.8,0.8-1.3,1.1c-0.5,0.3-0.9,0.5-1.4,0.8c-0.5,0.2-1.1,0.3-1.6,0.5C354.05,230.4,353.45,230.4,352.85,230.4L352.85,230.4
	z"/>
<path d="M158.95,230.4c-2.2,0-4.4-0.9-6-2.5c-1.6-1.6-2.6-3.7-2.6-6s0.9-4.4,2.6-6c3.4-3.2,8.7-3.2,12,0c3.3,3.3,3.3,8.7,0,12
	c-0.4,0.4-0.8,0.8-1.3,1.1c-0.5,0.3-0.9,0.5-1.4,0.8c-0.5,0.2-1.1,0.3-1.6,0.5C160.15,230.4,159.55,230.4,158.95,230.4L158.95,230.4
	z"/>
<path d="M257.75,512h-3.6c-39.4,0-77.5-14.3-107.1-40.4L82.55,415c-15.8-13.5-26.5-32.1-30.2-52.6c-0.8-4.9-1.2-9.9-1.2-14.8V213.8
	h17.1v133.8c0,4,0.3,8.1,1,12c3.1,16.6,11.8,31.7,24.6,42.6l64.5,56.6c26.5,23.3,60.6,36.1,95.8,36.1h3.6
	c35.3,0,69.3-12.8,95.8-36.1l64.5-56.7c12.8-10.9,21.5-25.9,24.6-42.5c0.7-4,1-8.1,1-12.1V213.8h17.1v133.8c0,5-0.4,10-1.2,14.9
	c-3.7,20.4-14.4,39-30.1,52.5l-64.5,56.7C335.25,497.7,297.15,512,257.75,512z"/>
<path d="M255.95,469.3c-56.9,0-79.3-12-88.8-47.6c-3.9-14.9-57.1-74.3-74.6-93.8l-3.4-3.8c-4.7-5.2-5.2-12.9-1.2-18.6
	c4.2-6,11.9-8.4,18.8-5.9c0.4,0.1,0.8,0.3,1.1,0.5l77,41.7c6.3,3.5,13.5,4.8,20.6,3.8c33.5-4.3,67.5-4.3,101,0
	c7.1,1,14.3-0.4,20.6-3.8l77-41.7c0.4-0.2,0.7-0.4,1.1-0.5c6.9-2.6,14.6-0.1,18.8,5.9c4,5.7,3.5,13.4-1.1,18.5l-0.1,0.1l-3.4,3.8
	c-17.5,19.5-70.6,78.9-74.6,93.8C335.25,457.3,312.85,469.3,255.95,469.3z M108.15,319.8c37,41.4,71.2,81.4,75.5,97.6
	c5.6,21,13.7,34.9,72.3,34.9s66.7-13.8,72.3-34.9c4.3-16.2,38.5-56.2,75.5-97.6l-68.6,37.2c-9.5,5.2-20.5,7.2-31.2,5.7
	c-31.9-4.1-64.1-4.1-96,0c-10.7,1.5-21.7-0.5-31.2-5.7L108.15,319.8z"/>
<path d="M307.15,409.6h-93.9c-4.7,0-8.5-3.8-8.5-8.5s3.8-8.5,8.5-8.5h93.9c4.7,0,8.5,3.8,8.5,8.5S311.85,409.6,307.15,409.6z"/>
<path d="M298.65,426.7c-2.3,0-4.4-0.9-6-2.5s-2.5-3.8-2.5-6V384c0-4.7,3.8-8.5,8.5-8.5c4.7,0,8.5,3.8,8.5,8.5v34.1
	c0,2.3-0.9,4.4-2.5,6C303.05,425.8,300.85,426.7,298.65,426.7z"/>
<path d="M264.45,418.1c-2.3,0-4.4-0.9-6-2.5s-2.5-3.8-2.5-6v-17.1c0-4.7,3.8-8.5,8.5-8.5c4.7,0,8.5,3.8,8.5,8.5v17.1
	c0,2.3-0.9,4.4-2.5,6S266.75,418.1,264.45,418.1L264.45,418.1z"/>
<path d="M59.65,460.8c-1.8,0-3.6-0.6-5.1-1.7c-24.4-20.8-38.2-51.5-37.5-83.6c0-4.7,3.8-8.5,8.5-8.5s8.5,3.8,8.5,8.5
	c-0.2,19.7,5.7,39,17.1,55.1v-277c0-0.4,0-0.7,0.1-1.1c0.1-0.7,10.4-75.1,101.5-84.2c90.8-9.1,110.4,37.5,111.2,39.5
	c1.7,4.4-0.4,9.3-4.7,11.1c-4.3,1.8-9.3-0.3-11.1-4.7c-0.7-1.7-17.1-36.5-93.7-28.9c-74.5,7.4-85.3,62.7-86.2,68.9v298
	c0,2.3-0.9,4.4-2.5,6C64.15,459.9,61.95,460.8,59.65,460.8z"/>
<path d="M452.25,460.8c-2.3,0-4.4-0.9-6-2.5s-2.5-3.8-2.5-6V154.2c-0.9-6-11.6-61.5-86.2-68.9c-76.9-7.7-93,27.4-93.7,28.9
	c-1.9,4.3-6.8,6.3-11.1,4.5c-4.3-1.8-6.4-6.7-4.7-11c0.8-2,20.4-48.5,111.2-39.5c91.1,9.1,101.4,83.5,101.5,84.2
	c0,0.4,0.1,0.7,0.1,1.1v277c11.3-16.1,17.3-35.4,17.1-55.1c0-4.7,3.8-8.5,8.5-8.5s8.5,3.8,8.5,8.5c0.7,32.1-13.1,62.8-37.6,83.6
	C455.85,460.2,454.05,460.8,452.25,460.8L452.25,460.8z"/>
<path d="M25.55,384c-2.3,0-4.4-0.9-6-2.5s-2.5-3.8-2.5-6v-34.1c0-4.7,3.8-8.5,8.5-8.5s8.5,3.8,8.5,8.5v34.1c0,2.3-0.9,4.4-2.5,6
	S27.85,384,25.55,384L25.55,384z"/>
<path d="M486.35,384c-2.3,0-4.4-0.9-6-2.5s-2.5-3.8-2.5-6V145.1c-0.1-70.7-57.3-127.9-128-128h-187.8c-70.7,0.1-127.9,57.3-128,128
	v128c0,4.7-3.8,8.5-8.5,8.5s-8.5-3.8-8.5-8.5v-128c0.1-80.1,65-145,145.1-145.1h187.7c80.1,0.1,145,65,145.1,145.1v230.4
	c0,2.3-0.9,4.4-2.5,6C490.75,383.1,488.65,384,486.35,384z"/>
<path d="M25.55,315.7c-1.1,0-2.2-0.2-3.2-0.7c-1-0.4-2-1-2.8-1.8s-1.4-1.8-1.8-2.8c-0.9-2.1-0.9-4.4,0-6.5c0.4-1,1-2,1.8-2.8
	s1.8-1.4,2.8-1.8c1.6-0.7,3.3-0.9,5-0.5c0.5,0.1,1.1,0.3,1.5,0.5c0.5,0.2,1,0.4,1.4,0.8c0.5,0.3,0.9,0.6,1.4,1
	c3.3,3.4,3.3,8.8,0,12.1c-0.4,0.4-0.9,0.7-1.4,1c-0.4,0.3-0.9,0.6-1.4,0.8c-0.5,0.2-1,0.4-1.5,0.5
	C26.65,315.7,26.15,315.7,25.55,315.7L25.55,315.7z"/>
<g>
</g>
<g>
</g>
<g>
</g>
<g>
</g>
<g>
</g>
<g>
</g>
<g>
</g>
<g>
</g>
<g>
</g>
<g>
</g>
<g>
</g>
<g>
</g>
<g>
</g>
<g>
</g>
<g>
</g>
</svg>
