<?xml version="1.0" encoding="iso-8859-1"?>
<!-- Generator: Adobe Illustrator 19.0.0, SVG Export Plug-In . SVG Version: 6.00 Build 0)  -->
<svg version="1.1" id="Capa_1" xmlns="http://www.w3.org/2000/svg" xmlns:xlink="http://www.w3.org/1999/xlink" x="0px" y="0px"
	 viewBox="0 0 512 512" style="enable-background:new 0 0 512 512;" xml:space="preserve">
<g>
	<g>
		<path style="fill:#FFA800;" d="M452.899,340.053c21.904-33.955,33.538-73.513,33.501-113.92
			c0-120.149-101.258-217.6-226.133-217.6s-226.133,97.451-226.133,217.6c-0.036,40.407,11.597,79.965,33.501,113.92H452.899z"/>
		<path style="fill:#FEDD0A;" d="M460.8,227.413c0.082,40.238-11.09,79.698-32.256,113.92H83.456
			c-40.1-65.185-43.002-146.645-7.64-214.518S179.6,14.643,256,10.155C371,16.975,460.775,112.212,460.8,227.413z"/>
		<path style="fill:#FFFFFF;" d="M51.2,227.413c-0.082,40.238,11.09,79.698,32.256,113.92h-25.6
			c-41.299-67.129-43.058-151.346-4.597-220.14S164.384,9.789,243.2,9.813c4.267,0,8.619,0.085,12.8,0.341
			C141,16.975,51.225,112.212,51.2,227.413z"/>
		<path style="fill:#FFA800;" d="M451.201,222.932v125.696c0.016,4.518-0.355,9.028-1.109,13.483
			c-3.348,18.539-13.031,35.339-27.392,47.531l-8.704,7.595v0.085l-55.808,48.981c-28.071,24.616-64.126,38.201-101.461,38.229
			h-3.584c-37.335-0.029-73.39-13.613-101.461-38.229l-55.808-48.981v-0.085l-8.704-7.595
			c-14.361-12.192-24.044-28.992-27.392-47.531c-0.754-4.454-1.125-8.965-1.109-13.483V222.932
			c0.017-47.121,38.212-85.316,85.333-85.333h128.512c5.08,0.026,9.904-2.229,13.141-6.144l37.547-45.056v34.133
			c0.028,9.414,7.652,17.039,17.067,17.067h25.6C412.989,137.616,451.184,175.811,451.201,222.932z"/>
		<path style="fill:#FFFFFF;" d="M255.488,502.613c-4.267,0.683-8.533,1.195-12.8,1.451c-33.649-2.275-65.615-15.559-90.965-37.803
			L95.915,417.28v-0.085l-8.704-7.595c-14.361-12.192-24.043-28.992-27.392-47.531c-0.754-4.454-1.125-8.965-1.109-13.483V222.891
			c0.017-47.121,38.212-85.316,85.333-85.333h25.6c-47.121,0.017-85.316,38.212-85.333,85.333v125.696
			c-0.016,4.518,0.355,9.028,1.109,13.483c3.349,18.538,13.031,35.339,27.392,47.531l8.704,7.595v0.085l55.808,48.981
			C199.361,485.611,226.49,498.228,255.488,502.613L255.488,502.613z"/>
		<path style="fill:#FEDD0A;" d="M426.667,222.891v125.696c0.016,4.518-0.355,9.028-1.109,13.483
			c-3.348,18.539-13.031,35.339-27.392,47.531l-8.704,7.595v0.085l-55.808,48.981c-22.038,19.35-49.168,31.967-78.165,36.352
			c-28.998-4.385-56.127-17.002-78.165-36.352l-55.808-48.981v-0.085l-8.704-7.595c-14.361-12.192-24.043-28.992-27.392-47.531
			c-0.754-4.454-1.125-8.965-1.109-13.483V222.891c0.017-47.121,38.212-85.316,85.333-85.333h102.912
			c5.08,0.026,9.904-2.229,13.141-6.144l12.971-15.531l24.576-29.525v34.133c0.028,9.414,7.653,17.039,17.067,17.067h1.024
			C388.455,137.574,426.65,175.769,426.667,222.891z"/>
		<path style="fill:#FFFFFF;" d="M119.552,486.4H97.366c-6.13,0.033-11.805-3.23-14.859-8.545
			c-3.055-5.315-3.018-11.861,0.096-17.141c8.195-13.523,13.105-28.78,14.336-44.544l19.371,16.555
			c-2.335,9.867-6.193,19.31-11.435,27.989c-3.131,5.263-3.188,11.804-0.15,17.122C107.764,483.154,113.428,486.425,119.552,486.4
			L119.552,486.4z"/>
		<path style="fill:#FFA800;" d="M179.2,486.4h-59.648c-6.124,0.025-11.789-3.246-14.827-8.564
			c-3.039-5.317-2.981-11.858,0.15-17.122c5.242-8.679,9.099-18.122,11.435-27.989L179.2,486.4z"/>
		<g>
			<path d="M452.258,348.588c-3.133-0.004-6.011-1.724-7.5-4.48c-1.489-2.756-1.348-6.107,0.366-8.728
				c21.336-32.442,32.718-70.416,32.742-109.246c0-115.279-99.525-209.067-221.867-209.067c-110.35,0-204.85,77.571-219.808,180.433
				c-0.439,3.016-2.454,5.568-5.285,6.696s-6.049,0.659-8.442-1.229c-2.392-1.888-3.595-4.909-3.156-7.925
				C35.475,83.85,137.233,0,256,0c131.75,0,238.933,101.442,238.933,226.133c-0.02,42.151-12.369,83.375-35.525,118.596
				C457.829,347.14,455.14,348.591,452.258,348.588L452.258,348.588z"/>
			<path d="M25.6,238.933c-0.573-0.016-1.144-0.073-1.708-0.171c-0.533-0.095-1.05-0.268-1.533-0.513
				c-0.546-0.187-1.064-0.447-1.542-0.771c-0.425-0.338-0.85-0.679-1.275-1.021c-3.3-3.365-3.3-8.752,0-12.117
				c2.491-2.348,6.114-3.047,9.3-1.796c0.543,0.188,1.059,0.447,1.533,0.771c0.425,0.341,0.858,0.683,1.283,1.025
				c3.3,3.365,3.3,8.752,0,12.117c-0.817,0.771-1.773,1.379-2.817,1.792C27.816,238.688,26.715,238.92,25.6,238.933z"/>
			<path d="M59.742,348.588c-2.882,0.003-5.571-1.448-7.15-3.858c-15.693-23.847-26.502-50.569-31.8-78.621
				c-0.571-2.998,0.503-6.072,2.817-8.063c2.313-1.99,5.514-2.593,8.393-1.581c2.879,1.012,4.998,3.485,5.557,6.485
				c4.887,25.844,14.852,50.462,29.317,72.429c1.714,2.622,1.855,5.972,0.367,8.728C65.753,346.864,62.875,348.583,59.742,348.588z"
				/>
		</g>
		<path style="fill:#FFA800;" d="M415.062,416.171c1.28,15.757,6.178,31.007,14.312,44.563c3.118,5.269,3.163,11.807,0.118,17.119
			c-3.045,5.311-8.71,8.576-14.832,8.548H332.8"/>
		<g>
			<path style="fill:#1CD759;" d="M218.283,276.14c-9.078,7.864-19.811,13.581-31.403,16.725
				c-21.248,5.205-48.725-0.853-69.803-49.408c-1.109-2.56-2.218-5.291-3.328-8.107v-0.085l52.224-0.427
				c13.656-0.105,26.536,6.335,34.645,17.323L218.283,276.14z"/>
			<path style="fill:#1CD759;" d="M398.507,235.265v0.085c-22.357,58.197-53.163,63.488-75.947,56.747
				c-10.55-3.297-20.31-8.728-28.672-15.957l17.493-23.808c7.367-10.118,18.832-16.459,31.317-17.323
				c1.132-0.144,2.273-0.201,3.413-0.171L398.507,235.265z"/>
		</g>
		<g>
			<path d="M218.375,282.796c-3.145,0.003-6.037-1.725-7.525-4.496c-9.525-17.733-26.55-38.396-54.883-36.571
				c-14.282,1.11-28.627,1.164-42.917,0.162c-8.243-0.049-16.365-1.988-23.742-5.667c-3.856-2.56-4.967-7.728-2.505-11.647
				c2.462-3.919,7.6-5.161,11.58-2.799c5.18,1.869,10.621,2.918,16.125,3.108c13.423,0.921,26.895,0.86,40.308-0.183
				c39.075-2.762,61.317,27.379,71.067,45.521c1.421,2.643,1.349,5.838-0.19,8.414C224.155,281.215,221.376,282.794,218.375,282.796
				L218.375,282.796z"/>
			<path d="M174.542,301.012c-4.411,0.007-8.806-0.536-13.083-1.617c-23.167-5.854-41.908-27.025-55.7-62.921
				c-0.922-2.414-0.707-5.115,0.587-7.351c1.294-2.237,3.528-3.77,6.08-4.174c4.129-0.635,8.111,1.812,9.408,5.783
				c11.667,30.183,26.408,47.717,43.808,52.117c21.183,5.358,41.417-10.204,47.125-15.095c2.312-2.003,5.52-2.614,8.407-1.602
				c2.887,1.012,5.011,3.492,5.568,6.5c0.556,3.008-0.54,6.084-2.874,8.061C210.164,292.815,192.794,299.964,174.542,301.012z"/>
			<path d="M220.934,230.913c-3.985-0.007-7.436-2.768-8.317-6.654c-0.25-0.908-10.775-37.608-93.325-36.513
				c-4.69-0.013-8.512-3.769-8.608-8.458c-0.021-2.263,0.859-4.442,2.446-6.057c1.586-1.615,3.749-2.532,6.013-2.552
				c0.867-0.009,1.733-0.012,2.583-0.012c96.017,0,107.142,47.908,107.567,49.967c0.965,4.611-1.989,9.133-6.6,10.1
				C222.113,230.852,221.524,230.912,220.934,230.913z"/>
			<path d="M293.792,282.796c-3.006-0.004-5.787-1.589-7.323-4.173c-1.536-2.583-1.6-5.784-0.168-8.427
				c9.825-18.129,32.317-48.142,71.142-45.492c13.433,1.038,26.925,1.098,40.367,0.179c5.461-0.159,10.859-1.206,15.983-3.1
				c1.852-1.249,4.13-1.699,6.318-1.247c2.188,0.452,4.101,1.766,5.307,3.647c2.57,4.009,1.467,9.337-2.483,11.996
				c-7.337,3.718-15.441,5.673-23.667,5.708c-14.31,0.993-28.673,0.94-42.975-0.158c-28.158-1.792-45.367,18.859-54.992,36.6
				C299.809,281.085,296.925,282.801,293.792,282.796L293.792,282.796z"/>
			<path d="M337.659,301.012c-18.252-1.047-35.623-8.196-49.325-20.3c-2.328-1.979-3.42-5.052-2.863-8.056
				c0.557-3.004,2.679-5.481,5.562-6.493c2.883-1.012,6.087-0.405,8.401,1.592c5.717,4.896,26.008,20.433,47.125,15.095
				c17.442-4.408,32.208-22.021,43.892-52.338c1.396-3.831,5.291-6.154,9.325-5.563c2.235,0.337,4.244,1.55,5.584,3.371
				c1.34,1.821,1.9,4.099,1.558,6.334c-0.095,0.622-0.254,1.232-0.475,1.821c-13.792,35.896-32.533,57.067-55.7,62.921
				C346.465,300.477,342.07,301.02,337.659,301.012z"/>
			<path d="M291.25,230.833c-2.551-0.008-4.964-1.156-6.579-3.131c-1.615-1.974-2.261-4.568-1.763-7.069
				c0.425-2.058,11.567-49.967,107.567-49.967c0.858,0,1.717,0.004,2.583,0.012c4.713,0.021,8.517,3.858,8.496,8.571
				c-0.021,4.713-3.858,8.517-8.571,8.496c-0.683,0.005-1.675-0.012-2.508-0.012c-80.933,0-90.808,36.167-90.9,36.538
				C298.629,228.106,295.2,230.809,291.25,230.833z"/>
			<path d="M179.2,494.933H97.342c-9.289,0.06-17.869-4.956-22.375-13.079c-4.561-7.937-4.423-17.731,0.358-25.538
				c7.46-12.443,11.949-26.439,13.117-40.9c0.484-4.657,4.58-8.087,9.25-7.746c2.255,0.199,4.339,1.285,5.793,3.021
				c1.454,1.736,2.158,3.978,1.957,6.233c-1.391,17.055-6.701,33.559-15.517,48.225c-1.56,2.545-1.595,5.742-0.092,8.321
				c1.509,2.729,4.389,4.415,7.508,4.396H179.2c4.713,0,8.533,3.82,8.533,8.533S183.913,494.933,179.2,494.933L179.2,494.933z"/>
			<path d="M414.659,494.933H332.8c-4.713,0-8.533-3.82-8.533-8.533s3.821-8.533,8.533-8.533h81.858
				c3.119,0.02,5.999-1.667,7.508-4.396c1.503-2.579,1.468-5.776-0.092-8.321c-8.815-14.666-14.126-31.17-15.517-48.225
				c-0.2-2.255,0.504-4.497,1.957-6.233c1.454-1.736,3.537-2.823,5.793-3.021c4.676-0.361,8.784,3.079,9.25,7.746
				c1.168,14.461,5.657,28.457,13.117,40.9c4.782,7.806,4.919,17.6,0.358,25.538C432.528,489.977,423.947,494.993,414.659,494.933
				L414.659,494.933z"/>
			<path d="M257.8,512h-3.592c-39.417,0.005-77.487-14.34-107.1-40.354L82.6,414.988c-15.85-13.518-26.52-32.115-30.192-52.621
				c-0.819-4.892-1.223-9.844-1.208-14.804V221.867c0.059-51.817,42.05-93.808,93.867-93.867h128.542
				c2.532,0.003,4.933-1.123,6.55-3.071l37.55-45.058c2.299-2.762,6.083-3.788,9.463-2.564c3.379,1.223,5.63,4.433,5.629,8.027
				v34.133c0.005,4.711,3.822,8.529,8.533,8.533h25.6c51.817,0.059,93.808,42.05,93.867,93.867v125.696
				c0.013,5.005-0.399,10.002-1.233,14.938c-3.682,20.447-14.333,38.986-30.142,52.467l-64.542,56.683
				C335.277,497.664,297.212,512.008,257.8,512z M145.067,145.067c-42.396,0.048-76.752,34.404-76.8,76.8v125.696
				c-0.013,4.03,0.316,8.055,0.983,12.029c3.033,16.623,11.743,31.677,24.642,42.592l64.483,56.638
				c26.496,23.28,60.562,36.117,95.833,36.112h3.592c35.266,0.007,69.327-12.829,95.817-36.108l64.517-56.662
				c12.857-10.878,21.547-25.874,24.592-42.437c0.683-4.018,1.02-8.087,1.008-12.162V221.867c-0.048-42.396-34.404-76.752-76.8-76.8
				h-25.6c-14.132-0.015-25.585-11.468-25.6-25.6v-10.562l-22.458,26.95c-4.858,5.845-12.067,9.222-19.667,9.213H145.067z"/>
			<rect x="85.334" y="392.533" width="341.333" height="17.067"/>
			<path d="M153.6,409.6h-8.533c-4.713,0-8.533-3.821-8.533-8.533s3.821-8.533,8.533-8.533h8.533
				c4.711-0.005,8.529-3.822,8.533-8.533v-17.067c0-4.713,3.821-8.533,8.533-8.533c4.713,0,8.533,3.82,8.533,8.533V384
				C179.185,398.132,167.732,409.585,153.6,409.6z"/>
			<path d="M196.267,409.6h-8.533c-14.132-0.015-25.585-11.468-25.6-25.6v-17.067c0-4.713,3.821-8.533,8.533-8.533
				c4.713,0,8.533,3.82,8.533,8.533V384c0.005,4.711,3.822,8.529,8.533,8.533h8.533c4.713,0,8.533,3.82,8.533,8.533
				S200.98,409.6,196.267,409.6z"/>
			<path d="M110.934,409.6H102.4c-4.713,0-8.533-3.821-8.533-8.533s3.821-8.533,8.533-8.533h8.533
				c4.711-0.005,8.529-3.822,8.533-8.533v-17.067c0-4.713,3.821-8.533,8.533-8.533c4.713,0,8.533,3.82,8.533,8.533V384
				C136.518,398.132,125.066,409.585,110.934,409.6z"/>
			<path d="M153.6,409.6h-8.533c-14.132-0.015-25.585-11.468-25.6-25.6v-17.067c0-4.713,3.821-8.533,8.533-8.533
				c4.713,0,8.533,3.82,8.533,8.533V384c0.005,4.711,3.822,8.529,8.533,8.533h8.533c4.713,0,8.533,3.82,8.533,8.533
				S158.313,409.6,153.6,409.6z"/>
			<path d="M196.267,409.6h-8.533c-4.713,0-8.533-3.821-8.533-8.533s3.821-8.533,8.533-8.533h8.533
				c4.711-0.005,8.529-3.822,8.533-8.533c0-4.713,3.821-8.533,8.533-8.533c4.713,0,8.533,3.821,8.533,8.533
				C221.851,398.132,210.399,409.585,196.267,409.6L196.267,409.6z"/>
			<path d="M238.934,409.6H230.4c-14.132-0.015-25.585-11.468-25.6-25.6c0-4.713,3.821-8.533,8.533-8.533
				c4.713,0,8.533,3.821,8.533,8.533c0.005,4.711,3.822,8.529,8.533,8.533h8.533c4.713,0,8.533,3.82,8.533,8.533
				S243.646,409.6,238.934,409.6z"/>
			<path d="M238.934,409.6H230.4c-4.713,0-8.533-3.821-8.533-8.533s3.821-8.533,8.533-8.533h8.533
				c4.711-0.005,8.529-3.822,8.533-8.533c0-4.713,3.82-8.533,8.533-8.533s8.533,3.821,8.533,8.533
				C264.518,398.132,253.066,409.585,238.934,409.6z"/>
			<path d="M281.6,409.6h-8.533c-14.132-0.015-25.585-11.468-25.6-25.6c0-4.713,3.82-8.533,8.533-8.533s8.533,3.821,8.533,8.533
				c0.005,4.711,3.822,8.529,8.533,8.533h8.533c4.713,0,8.533,3.82,8.533,8.533S286.313,409.6,281.6,409.6z"/>
			<path d="M281.6,409.6h-8.533c-4.713,0-8.533-3.821-8.533-8.533s3.821-8.533,8.533-8.533h8.533
				c4.711-0.005,8.529-3.822,8.533-8.533c0-4.713,3.821-8.533,8.533-8.533c4.713,0,8.533,3.821,8.533,8.533
				C307.185,398.132,295.732,409.585,281.6,409.6z"/>
			<path d="M324.267,409.6h-8.533c-14.132-0.015-25.585-11.468-25.6-25.6c0-4.713,3.821-8.533,8.533-8.533
				c4.713,0,8.533,3.821,8.533,8.533c0.005,4.711,3.822,8.529,8.533,8.533h8.533c4.713,0,8.533,3.82,8.533,8.533
				S328.98,409.6,324.267,409.6z"/>
			<path d="M213.334,443.733c-2.263,0.001-4.434-0.898-6.035-2.499c-1.6-1.6-2.499-3.771-2.499-6.035v-17.067
				c-0.005-4.711-3.822-8.529-8.533-8.533h-8.533c-4.713,0-8.533-3.821-8.533-8.533s3.821-8.533,8.533-8.533h8.533
				c14.132,0.015,25.585,11.468,25.6,25.6V435.2c0.001,2.263-0.898,4.434-2.499,6.035S215.597,443.734,213.334,443.733z"/>
			<path d="M213.334,443.733c-2.263,0.001-4.434-0.898-6.035-2.499c-1.6-1.6-2.499-3.771-2.499-6.035v-17.067
				c0.015-14.132,11.468-25.585,25.6-25.6h8.533c4.713,0,8.533,3.82,8.533,8.533s-3.821,8.533-8.533,8.533H230.4
				c-4.711,0.005-8.529,3.822-8.533,8.533V435.2c0.001,2.263-0.898,4.434-2.499,6.035S215.597,443.734,213.334,443.733z"/>
			<path d="M170.667,443.733c-2.263,0.001-4.434-0.898-6.035-2.499s-2.499-3.771-2.499-6.035v-17.067
				c-0.005-4.711-3.822-8.529-8.533-8.533h-8.533c-4.713,0-8.533-3.821-8.533-8.533s3.821-8.533,8.533-8.533h8.533
				c14.132,0.015,25.585,11.468,25.6,25.6V435.2c0.001,2.263-0.898,4.434-2.499,6.035S172.93,443.734,170.667,443.733z"/>
			<path d="M170.667,443.733c-2.263,0.001-4.434-0.898-6.035-2.499s-2.499-3.771-2.499-6.035v-17.067
				c0.015-14.132,11.468-25.585,25.6-25.6h8.533c4.713,0,8.533,3.82,8.533,8.533s-3.821,8.533-8.533,8.533h-8.533
				c-4.711,0.005-8.529,3.822-8.533,8.533V435.2c0.001,2.263-0.898,4.434-2.499,6.035S172.93,443.734,170.667,443.733z"/>
			<path d="M256,443.733c-2.263,0.001-4.434-0.898-6.035-2.499c-1.6-1.6-2.499-3.771-2.499-6.035v-17.067
				c-0.005-4.711-3.822-8.529-8.533-8.533H230.4c-4.713,0-8.533-3.821-8.533-8.533s3.821-8.533,8.533-8.533h8.533
				c14.132,0.015,25.585,11.468,25.6,25.6V435.2c0.001,2.263-0.898,4.434-2.499,6.035S258.264,443.734,256,443.733z"/>
			<path d="M256,443.733c-2.263,0.001-4.434-0.898-6.035-2.499c-1.6-1.6-2.499-3.771-2.499-6.035v-17.067
				c0.015-14.132,11.468-25.585,25.6-25.6h8.533c4.713,0,8.533,3.82,8.533,8.533s-3.82,8.533-8.533,8.533h-8.533
				c-4.711,0.005-8.529,3.822-8.533,8.533V435.2c0.001,2.263-0.898,4.434-2.499,6.035S258.264,443.734,256,443.733z"/>
			<path d="M298.667,443.733c-2.263,0.001-4.434-0.898-6.035-2.499s-2.499-3.771-2.499-6.035v-17.067
				c-0.005-4.711-3.822-8.529-8.533-8.533h-8.533c-4.713,0-8.533-3.821-8.533-8.533s3.821-8.533,8.533-8.533h8.533
				c14.132,0.015,25.585,11.468,25.6,25.6V435.2c0.001,2.263-0.898,4.434-2.499,6.035S300.93,443.734,298.667,443.733z"/>
			<path d="M298.667,443.733c-2.263,0.001-4.434-0.898-6.035-2.499s-2.499-3.771-2.499-6.035v-17.067
				c0.015-14.132,11.468-25.585,25.6-25.6h8.533c4.713,0,8.533,3.82,8.533,8.533s-3.821,8.533-8.533,8.533h-8.533
				c-4.711,0.005-8.529,3.822-8.533,8.533V435.2c0.001,2.263-0.898,4.434-2.499,6.035S300.93,443.734,298.667,443.733z"/>
			<path d="M341.334,443.733c-2.263,0.001-4.434-0.898-6.035-2.499c-1.6-1.6-2.499-3.771-2.499-6.035v-17.067
				c-0.005-4.711-3.822-8.529-8.533-8.533h-8.533c-4.713,0-8.533-3.821-8.533-8.533s3.82-8.533,8.533-8.533h8.533
				c14.132,0.015,25.585,11.468,25.6,25.6V435.2c0.001,2.263-0.898,4.434-2.499,6.035
				C345.768,442.835,343.597,443.734,341.334,443.733z"/>
			<path d="M341.334,443.733c-2.263,0.001-4.434-0.898-6.035-2.499c-1.6-1.6-2.499-3.771-2.499-6.035v-17.067
				c0.015-14.132,11.468-25.585,25.6-25.6h8.533c4.713,0,8.533,3.82,8.533,8.533s-3.82,8.533-8.533,8.533H358.4
				c-4.711,0.005-8.529,3.822-8.533,8.533V435.2c0.001,2.263-0.898,4.434-2.499,6.035
				C345.768,442.835,343.597,443.734,341.334,443.733z"/>
			<path d="M324.267,409.6h-8.533c-4.713,0-8.533-3.821-8.533-8.533s3.82-8.533,8.533-8.533h8.533
				c4.711-0.005,8.529-3.822,8.533-8.533v-17.067c0-4.713,3.82-8.533,8.533-8.533s8.533,3.82,8.533,8.533V384
				C349.851,398.132,338.399,409.585,324.267,409.6z"/>
			<path d="M366.934,409.6H358.4c-14.132-0.015-25.585-11.468-25.6-25.6v-17.067c0-4.713,3.82-8.533,8.533-8.533
				s8.533,3.82,8.533,8.533V384c0.005,4.711,3.822,8.529,8.533,8.533h8.533c4.713,0,8.533,3.82,8.533,8.533
				S371.646,409.6,366.934,409.6L366.934,409.6z"/>
			<path d="M366.934,409.6H358.4c-4.713,0-8.533-3.821-8.533-8.533s3.821-8.533,8.533-8.533h8.533
				c4.711-0.005,8.529-3.822,8.533-8.533v-17.067c0-4.713,3.82-8.533,8.533-8.533s8.533,3.82,8.533,8.533V384
				C392.518,398.132,381.066,409.585,366.934,409.6z"/>
			<path d="M409.6,409.6h-8.533c-14.132-0.015-25.585-11.468-25.6-25.6v-17.067c0-4.713,3.82-8.533,8.533-8.533
				s8.533,3.82,8.533,8.533V384c0.005,4.711,3.822,8.529,8.533,8.533h8.533c4.713,0,8.533,3.82,8.533,8.533
				S414.313,409.6,409.6,409.6z"/>
		</g>
	</g>
	<path style="fill:#FC7308;" d="M248.176,348.065c5.277-2.211,11.221-2.211,16.498,0c6.788,2.878,14.545,2.321,20.852-1.496
		c7.275-5.021,7.275-15.063,0-25.104c-4.796-6.727-10.348-12.88-16.549-18.339c-7.313-5.944-17.792-5.944-25.105,0
		c-6.201,5.459-11.753,11.613-16.548,18.34c-7.275,10.042-7.275,20.084,0,25.104C233.631,350.387,241.388,350.943,248.176,348.065
		L248.176,348.065z"/>
	<path d="M273.833,358.412c-4.288,0.012-8.536-0.836-12.492-2.492c-3.147-1.308-6.686-1.308-9.833,0l0,0
		c-9.473,4.043-20.328,3.17-29.033-2.333c-4.705-3.178-7.891-8.155-8.808-13.758c-0.969-8.381,1.462-16.801,6.75-23.375
		c5.159-7.247,11.141-13.872,17.825-19.742c10.522-8.811,25.847-8.81,36.367,0.004c6.751,5.931,12.787,12.631,17.983,19.963
		c5.198,6.528,7.572,14.863,6.592,23.15c-0.918,5.604-4.104,10.582-8.808,13.762C285.468,356.819,279.706,358.498,273.833,358.412z
		 M256.425,337.867c3.979-0.003,7.919,0.795,11.583,2.346c4.101,1.733,8.77,1.488,12.667-0.667c0.916-0.58,1.534-1.531,1.692-2.604
		c0.079-3.832-1.256-7.56-3.75-10.471c-4.433-6.205-9.557-11.886-15.275-16.933c-4.079-3.13-9.752-3.132-13.833-0.004
		c-5.65,4.986-10.721,10.592-15.117,16.713c-2.575,2.962-3.967,6.771-3.908,10.696c0.157,1.072,0.775,2.022,1.691,2.6
		c3.896,2.155,8.565,2.403,12.667,0.671C248.507,338.662,252.446,337.864,256.425,337.867L256.425,337.867z"/>
</g>
<g>
</g>
<g>
</g>
<g>
</g>
<g>
</g>
<g>
</g>
<g>
</g>
<g>
</g>
<g>
</g>
<g>
</g>
<g>
</g>
<g>
</g>
<g>
</g>
<g>
</g>
<g>
</g>
<g>
</g>
</svg>
