<?xml version="1.0" encoding="iso-8859-1"?>
<!-- Generator: Adobe Illustrator 19.0.0, SVG Export Plug-In . SVG Version: 6.00 Build 0)  -->
<svg version="1.1" id="Capa_1" xmlns="http://www.w3.org/2000/svg" xmlns:xlink="http://www.w3.org/1999/xlink" x="0px" y="0px"
	 viewBox="0 0 512 512" style="enable-background:new 0 0 512 512;" xml:space="preserve">
<g transform="translate(-1)">
	<path style="fill:#FFA800;" d="M453.902,340.053c21.904-33.955,33.538-73.513,33.501-113.92c0-120.149-101.258-217.6-226.133-217.6
		s-226.133,97.451-226.133,217.6c-0.036,40.407,11.597,79.965,33.501,113.92H453.902z"/>
	<path style="fill:#FEDD0A;" d="M461.803,227.413c0.082,40.238-11.09,79.698-32.256,113.92H84.459
		c-40.1-65.185-43.002-146.645-7.64-214.518S180.603,14.643,257.003,10.155C372.003,16.975,461.778,112.212,461.803,227.413z"/>
	<path style="fill:#FFFFFF;" d="M52.203,227.413c-0.082,40.238,11.09,79.698,32.256,113.92h-25.6
		c-41.299-67.129-43.058-151.346-4.597-220.14S165.388,9.789,244.203,9.813c4.267,0,8.619,0.085,12.8,0.341
		C142.004,16.975,52.228,112.212,52.203,227.413z"/>
	<path style="fill:#FFA800;" d="M452.204,222.932v125.696c0.016,4.518-0.355,9.028-1.109,13.483
		c-3.348,18.539-13.031,35.339-27.392,47.531l-8.704,7.595v0.085l-55.808,48.981c-28.071,24.616-64.126,38.201-101.461,38.229
		h-3.584c-37.335-0.029-73.39-13.613-101.461-38.229l-55.808-48.981v-0.085l-8.704-7.595C73.811,397.45,64.129,380.65,60.78,362.111
		c-0.754-4.454-1.125-8.965-1.109-13.483V222.932c0.017-47.121,38.212-85.316,85.333-85.333h128.512
		c5.08,0.026,9.904-2.229,13.141-6.144l37.547-45.056v34.133c0.028,9.414,7.652,17.039,17.067,17.067h25.6
		C413.992,137.616,452.187,175.811,452.204,222.932z"/>
	<path style="fill:#FFFFFF;" d="M256.491,502.613c-4.267,0.683-8.533,1.195-12.8,1.451c-33.649-2.275-65.615-15.559-90.965-37.803
		L96.918,417.28v-0.085l-8.704-7.595c-14.361-12.192-24.043-28.992-27.392-47.531c-0.754-4.454-1.125-8.965-1.109-13.483V222.891
		c0.017-47.121,38.212-85.316,85.333-85.333h25.6c-47.121,0.017-85.316,38.212-85.333,85.333v125.696
		c-0.016,4.518,0.355,9.028,1.109,13.483c3.349,18.538,13.031,35.339,27.392,47.531l8.704,7.595v0.085l55.808,48.981
		C200.364,485.611,227.494,498.228,256.491,502.613L256.491,502.613z"/>
	<path style="fill:#FEDD0A;" d="M427.67,222.891v125.696c0.016,4.518-0.355,9.028-1.109,13.483
		c-3.348,18.539-13.03,35.339-27.392,47.531l-8.704,7.595v0.085l-55.808,48.981c-22.038,19.35-49.168,31.967-78.165,36.352
		c-28.998-4.385-56.127-17.002-78.165-36.352l-55.808-48.981v-0.085l-8.704-7.595c-14.361-12.192-24.043-28.992-27.392-47.531
		c-0.754-4.454-1.125-8.965-1.109-13.483V222.891c0.017-47.121,38.212-85.316,85.333-85.333h102.912
		c5.08,0.026,9.904-2.229,13.141-6.144l12.971-15.531l24.576-29.525v34.133c0.028,9.414,7.652,17.039,17.067,17.067h1.024
		C389.458,137.574,427.653,175.769,427.67,222.891z"/>
	<path style="fill:#FFFFFF;" d="M120.555,486.4H98.369c-6.13,0.033-11.805-3.23-14.859-8.545s-3.018-11.861,0.096-17.141
		c8.195-13.523,13.105-28.78,14.336-44.544l19.371,16.555c-2.335,9.867-6.193,19.31-11.435,27.989
		c-3.131,5.263-3.188,11.804-0.15,17.122C108.767,483.154,114.431,486.425,120.555,486.4L120.555,486.4z"/>
	<path style="fill:#FFA800;" d="M180.203,486.4h-59.648c-6.124,0.025-11.789-3.246-14.827-8.564
		c-3.039-5.317-2.981-11.858,0.15-17.122c5.242-8.679,9.099-18.122,11.435-27.989L180.203,486.4z"/>
	<g>
		<path d="M453.262,348.588c-3.133-0.004-6.011-1.724-7.5-4.48c-1.489-2.756-1.348-6.107,0.366-8.728
			c21.336-32.442,32.718-70.416,32.742-109.246c0-115.279-99.525-209.067-221.867-209.067c-110.35,0-204.85,77.571-219.808,180.433
			c-0.439,3.016-2.454,5.568-5.285,6.696s-6.049,0.659-8.442-1.229c-2.392-1.888-3.595-4.909-3.156-7.925
			C36.478,83.85,138.236,0,257.003,0c131.75,0,238.933,101.442,238.933,226.133c-0.02,42.151-12.369,83.375-35.525,118.596
			C458.832,347.14,456.143,348.591,453.262,348.588L453.262,348.588z"/>
		<path d="M26.603,238.933c-1.115-0.014-2.216-0.246-3.242-0.683c-1.034-0.433-1.986-1.039-2.817-1.791
			c-0.366-0.406-0.708-0.834-1.025-1.279c-0.325-0.475-0.582-0.992-0.767-1.538c-0.246-0.485-0.42-1.003-0.517-1.538
			c-0.138-0.557-0.194-1.131-0.166-1.704c-0.032-1.121,0.203-2.233,0.683-3.246c0.432-1.033,1.038-1.984,1.791-2.813
			c0.829-0.755,1.782-1.363,2.817-1.796c2.078-0.85,4.406-0.85,6.483,0c1.034,0.435,1.986,1.042,2.817,1.796
			c0.753,0.829,1.359,1.78,1.792,2.813c0.438,1.027,0.67,2.13,0.683,3.246c-0.013,0.572-0.071,1.142-0.175,1.704
			c-0.09,0.536-0.261,1.054-0.508,1.538c-0.188,0.544-0.445,1.061-0.767,1.538c-0.341,0.425-0.683,0.85-1.025,1.279
			c-0.832,0.751-1.784,1.357-2.817,1.792C28.819,238.688,27.718,238.92,26.603,238.933z"/>
		<path d="M60.745,348.588c-2.882,0.003-5.571-1.448-7.15-3.858c-15.693-23.847-26.502-50.569-31.8-78.621
			c-0.571-2.998,0.503-6.072,2.817-8.063c2.313-1.99,5.514-2.593,8.393-1.581c2.879,1.012,4.998,3.485,5.557,6.485
			c4.887,25.844,14.852,50.462,29.317,72.429c1.714,2.622,1.855,5.972,0.367,8.728C66.757,346.864,63.878,348.583,60.745,348.588z"
			/>
	</g>
	<g>
		<path style="fill:#FFA800;" d="M214.337,410.453v33.28c-13.955,0.008-27.031-6.813-35.009-18.262
			c-7.979-11.449-9.851-26.078-5.012-39.167L214.337,410.453z"/>
		<path style="fill:#FFA800;" d="M299.67,410.453v33.28c13.955,0.008,27.031-6.813,35.009-18.262
			c7.979-11.449,9.851-26.078,5.012-39.167L299.67,410.453z"/>
		<path style="fill:#FFA800;" d="M416.065,416.171c1.28,15.757,6.178,31.007,14.312,44.563c3.118,5.269,3.163,11.807,0.118,17.119
			c-3.045,5.311-8.71,8.576-14.832,8.548h-81.859"/>
	</g>
	<g>
		<path style="fill:#1CD759;" d="M219.286,288.939c-9.078,7.864-19.811,13.581-31.403,16.725
			c-21.248,5.205-48.725-0.853-69.803-49.408c-1.109-2.56-2.218-5.291-3.328-8.107v-0.085l52.224-0.427
			c13.656-0.105,26.536,6.335,34.645,17.323L219.286,288.939z"/>
		<path style="fill:#1CD759;" d="M399.51,248.064v0.085c-22.357,58.197-53.163,63.488-75.947,56.747
			c-10.55-3.297-20.31-8.728-28.672-15.957l17.493-23.808c7.367-10.118,18.832-16.459,31.317-17.323
			c1.132-0.144,2.273-0.201,3.413-0.171L399.51,248.064z"/>
	</g>
	<g>
		<path d="M225.845,311.954c-3.681-0.002-6.945-2.363-8.1-5.858c-0.717-2.146-18.017-52.525-60.8-49.692
			c-49.217,3.317-63.433-3.333-66.608-5.45c-3.885-2.628-4.921-7.899-2.319-11.802c2.602-3.903,7.866-4.974,11.786-2.398
			l-0.009-0.004c0.117,0.004,12.342,5.563,56,2.629c56.2-3.921,77.283,58.725,78.158,61.388c0.844,2.599,0.395,5.444-1.208,7.656
			C231.141,310.635,228.577,311.948,225.845,311.954L225.845,311.954z"/>
		<path d="M175.545,315.721c-4.414,0.007-8.812-0.536-13.092-1.617c-23.158-5.858-41.9-27.029-55.692-62.921
			c-0.922-2.414-0.707-5.114,0.587-7.351c1.294-2.237,3.527-3.77,6.079-4.174c4.13-0.638,8.113,1.81,9.408,5.783
			c11.667,30.183,26.4,47.717,43.808,52.117c21.133,5.333,41.417-10.2,47.125-15.092c2.313-1.997,5.517-2.604,8.401-1.592
			c2.883,1.012,5.005,3.489,5.562,6.493s-0.535,6.077-2.863,8.056C211.167,307.526,193.796,314.673,175.545,315.721z"/>
		<path d="M221.937,245.621c-3.985-0.007-7.436-2.768-8.317-6.654c-0.242-0.896-10.575-36.525-90.892-36.525
			c-0.833,0-1.717,0.046-2.508,0.012c-4.713,0.021-8.55-3.783-8.571-8.496c-0.021-4.713,3.783-8.55,8.496-8.571
			c98.258-0.837,109.717,47.875,110.15,49.954c0.965,4.611-1.989,9.133-6.6,10.1C223.116,245.56,222.527,245.62,221.937,245.621
			L221.937,245.621z"/>
		<path d="M288.353,311.963c-0.903,0-1.801-0.145-2.658-0.429c-4.477-1.469-6.917-6.289-5.45-10.767
			c0.875-2.662,21.733-65.304,78.167-61.388c44.35,2.967,56.317-2.837,56.433-2.892c1.864-1.233,4.146-1.663,6.33-1.192
			c2.185,0.471,4.087,1.802,5.278,3.693c2.543,4.027,1.394,9.348-2.583,11.967c-3.175,2.121-17.367,8.788-66.608,5.45
			c-43.242-2.704-60.625,49.154-60.8,49.679C295.314,309.59,292.043,311.962,288.353,311.963z"/>
		<path d="M338.662,315.721c-18.251-1.048-35.622-8.195-49.325-20.296c-2.328-1.979-3.42-5.052-2.863-8.056
			c0.557-3.004,2.679-5.481,5.562-6.493c2.883-1.012,6.087-0.405,8.401,1.592c5.717,4.892,26,20.454,47.125,15.092
			c17.45-4.413,32.208-22.021,43.892-52.337c1.4-3.828,5.292-6.15,9.325-5.563c2.235,0.337,4.244,1.55,5.584,3.371
			s1.9,4.099,1.558,6.334c-0.095,0.622-0.254,1.232-0.475,1.821c-13.792,35.892-32.533,57.062-55.692,62.921
			C347.474,315.185,343.076,315.728,338.662,315.721L338.662,315.721z"/>
		<path d="M292.253,245.542c-2.551-0.008-4.964-1.156-6.579-3.131s-2.261-4.568-1.763-7.069
			c0.425-2.058,11.567-49.967,107.567-49.967c0.858,0,1.717,0.004,2.583,0.012c4.713,0.021,8.517,3.858,8.496,8.571
			c-0.021,4.713-3.858,8.517-8.571,8.496c-0.758,0.025-1.683-0.012-2.508-0.012c-80.933,0-90.808,36.167-90.9,36.537
			C299.632,242.814,296.203,245.517,292.253,245.542z"/>
		<path d="M275.97,375.467c-3.607-0.131-7.159-0.919-10.483-2.325l-1.267-0.458c-3.377-1.175-7.001-1.452-10.517-0.804
			c-1.503,0.324-2.982,0.753-4.425,1.283c-3.591,1.394-7.392,2.173-11.242,2.304c-8.38-0.886-16.096-4.969-21.542-11.4
			c-2.037-2.276-2.701-5.467-1.742-8.366c0.959-2.9,3.395-5.065,6.387-5.677c2.992-0.613,6.083,0.421,8.104,2.711
			c2.296,2.728,5.359,4.702,8.792,5.667c2-0.189,3.963-0.667,5.825-1.421c2.208-0.79,4.469-1.42,6.767-1.888
			c6.446-1.184,13.09-0.667,19.275,1.5l1.458,0.529c1.467,0.644,3.019,1.075,4.608,1.279c3.428-0.974,6.489-2.946,8.792-5.667
			c2.023-2.285,5.112-3.315,8.101-2.702c2.989,0.613,5.423,2.777,6.383,5.673s0.298,6.085-1.734,8.362
			C292.066,370.497,284.35,374.581,275.97,375.467z"/>
		<path d="M180.203,494.933H98.345c-9.289,0.06-17.869-4.956-22.375-13.079c-4.561-7.937-4.423-17.731,0.358-25.538
			c7.46-12.443,11.949-26.439,13.117-40.9c0.469-4.665,4.575-8.104,9.25-7.746c2.255,0.199,4.339,1.285,5.793,3.021
			c1.454,1.736,2.158,3.978,1.957,6.233c-1.391,17.055-6.701,33.559-15.517,48.225c-1.56,2.545-1.595,5.742-0.092,8.321
			c1.509,2.729,4.389,4.415,7.508,4.396h81.858c4.713,0,8.533,3.82,8.533,8.533S184.916,494.933,180.203,494.933z"/>
		<path d="M415.662,494.933h-81.858c-4.713,0-8.533-3.82-8.533-8.533s3.82-8.533,8.533-8.533h81.858
			c3.119,0.02,5.999-1.667,7.508-4.396c1.503-2.579,1.468-5.776-0.092-8.321c-8.815-14.666-14.126-31.17-15.517-48.225
			c-0.417-4.694,3.051-8.838,7.746-9.254c4.694-0.417,8.838,3.051,9.254,7.746c1.168,14.461,5.657,28.457,13.117,40.9
			c4.782,7.806,4.919,17.6,0.358,25.538C433.531,489.977,424.951,494.993,415.662,494.933L415.662,494.933z"/>
		<path d="M258.803,512h-3.592c-39.417,0.005-77.487-14.34-107.1-40.354l-64.508-56.658c-15.85-13.518-26.52-32.115-30.192-52.621
			c-0.819-4.892-1.223-9.844-1.208-14.804V221.867c0.059-51.817,42.05-93.808,93.867-93.867h128.542
			c2.532,0.003,4.933-1.123,6.55-3.071l37.55-45.058c2.299-2.762,6.083-3.788,9.463-2.564c3.379,1.223,5.63,4.433,5.629,8.027
			v34.133c0.005,4.711,3.822,8.529,8.533,8.533h25.6c51.817,0.059,93.808,42.05,93.867,93.867v125.696
			c0.013,5.005-0.399,10.002-1.233,14.938c-3.682,20.447-14.333,38.986-30.142,52.467l-64.542,56.683
			C336.281,497.664,298.215,512.008,258.803,512z M146.07,145.067c-42.396,0.048-76.752,34.404-76.8,76.8v125.696
			c-0.013,4.03,0.316,8.055,0.983,12.029c3.033,16.623,11.743,31.677,24.642,42.592l64.483,56.638
			c26.496,23.28,60.562,36.117,95.833,36.112h3.592c35.266,0.007,69.327-12.829,95.817-36.108l64.517-56.662
			c12.857-10.878,21.547-25.874,24.592-42.437c0.683-4.018,1.02-8.087,1.008-12.162V221.867c-0.048-42.396-34.404-76.752-76.8-76.8
			h-25.6c-14.132-0.015-25.585-11.468-25.6-25.6v-10.562l-22.458,26.95c-4.858,5.845-12.067,9.222-19.667,9.213H146.07z"/>
		<path d="M257.003,426.667c-35.064,0.098-68.71-13.84-93.433-38.704l-40.6-40.596c-3.281-3.341-3.256-8.701,0.054-12.012
			s8.671-3.335,12.012-0.054l40.6,40.596c21.579,21.58,50.848,33.704,81.367,33.704c30.519,0,59.787-12.124,81.367-33.704
			L378.97,335.3c3.341-3.281,8.701-3.256,12.012,0.054c3.311,3.311,3.335,8.671,0.054,12.012l-40.6,40.596
			C325.713,412.827,292.068,426.764,257.003,426.667L257.003,426.667z"/>
		<path d="M214.337,452.267c-16.744,0.003-32.431-8.183-42.006-21.92c-9.574-13.737-11.825-31.288-6.028-46.996
			c1.632-4.423,6.54-6.686,10.963-5.054c4.423,1.632,6.686,6.54,5.054,10.963c-3.871,10.471-2.374,22.174,4.009,31.333
			c6.383,9.159,16.844,14.615,28.007,14.609c4.713,0,8.533,3.821,8.533,8.533C222.87,448.446,219.05,452.267,214.337,452.267
			L214.337,452.267z"/>
		<path d="M214.337,452.267c-2.263,0.001-4.434-0.898-6.035-2.499c-1.6-1.6-2.499-3.771-2.499-6.035v-33.279
			c0-4.713,3.821-8.533,8.533-8.533s8.533,3.82,8.533,8.533v33.279c0.001,2.263-0.898,4.434-2.499,6.035
			C218.771,451.368,216.6,452.267,214.337,452.267L214.337,452.267z"/>
		<path d="M299.67,452.267c-4.713,0-8.533-3.821-8.533-8.533c0-4.713,3.82-8.533,8.533-8.533
			c11.164,0.007,21.625-5.449,28.008-14.608s7.88-20.862,4.009-31.333c-1.632-4.423,0.631-9.331,5.054-10.963
			c4.423-1.632,9.331,0.631,10.963,5.054c5.798,15.709,3.547,33.26-6.028,46.997C332.102,444.084,316.414,452.27,299.67,452.267z"/>
		<path d="M299.67,452.267c-2.263,0.001-4.434-0.898-6.035-2.499c-1.6-1.6-2.499-3.771-2.499-6.035v-33.279
			c0-4.713,3.82-8.533,8.533-8.533s8.533,3.82,8.533,8.533v33.279c0.001,2.263-0.898,4.434-2.499,6.035
			C304.104,451.368,301.933,452.267,299.67,452.267L299.67,452.267z"/>
	</g>
</g>
<g>
</g>
<g>
</g>
<g>
</g>
<g>
</g>
<g>
</g>
<g>
</g>
<g>
</g>
<g>
</g>
<g>
</g>
<g>
</g>
<g>
</g>
<g>
</g>
<g>
</g>
<g>
</g>
<g>
</g>
</svg>
