<?xml version="1.0" encoding="iso-8859-1"?>
<!-- Generator: Adobe Illustrator 19.0.0, SVG Export Plug-In . SVG Version: 6.00 Build 0)  -->
<svg version="1.1" id="Capa_1" xmlns="http://www.w3.org/2000/svg" xmlns:xlink="http://www.w3.org/1999/xlink" x="0px" y="0px"
	 viewBox="0 0 512.029 512.029" style="enable-background:new 0 0 512.029 512.029;" xml:space="preserve">
<g>
	<path style="fill:#FFA800;" d="M409.516,503.481c60.862-55.855,95.034-135,93.952-217.6c0-153.173-110.763-277.333-247.467-277.333
		S8.535,132.708,8.535,285.881c-1.082,82.6,33.09,161.745,93.952,217.6"/>
	<path style="fill:#FFFFFF;" d="M123.223,503.481h-25.6c-54.272-50.859-89.088-129.365-89.088-217.6
		C8.535,132.708,113.58,8.548,243.201,8.548c4.267,0,8.533,0.171,12.8,0.427C132.353,16.825,34.135,137.742,34.135,285.881
		C34.135,374.116,68.951,452.622,123.223,503.481z"/>
	<path style="fill:#FEDD0A;" d="M477.868,285.881c0,88.235-34.816,166.741-89.088,217.6H123.223
		c-54.272-50.859-89.088-129.365-89.088-217.6c0-148.139,98.219-269.056,221.867-276.907
		C379.649,16.825,477.868,137.742,477.868,285.881z"/>
	<path style="fill:#FFFFFF;" d="M107.009,424.889C46.337,392.974,7.084,341.945,7.084,284.43c0-52.907,33.195-100.352,85.76-132.352
		c-11.633,13.595-20.607,29.255-26.453,46.165c-20.415,24.123-31.817,54.588-32.256,86.187c0.285,27.964,9.295,55.142,25.771,77.739
		c3.8,17.527,13.243,33.324,26.88,44.971L107.009,424.889z"/>
	<g>
		<path style="fill:#FFA800;" d="M59.393,359.609c0.171,0.853,0.256,1.707,0.512,2.56c-16.476-22.597-25.485-49.774-25.771-77.739
			c0.439-31.599,11.841-62.064,32.256-86.187c-5.402,15.351-8.144,31.512-8.107,47.787v100.096
			C58.268,350.644,58.639,355.155,59.393,359.609L59.393,359.609z"/>
		<path style="fill:#FFA800;" d="M134.06,424.889c-29.342-14.731-54.759-36.229-74.155-62.72
			c-16.476-22.597-25.485-49.774-25.771-77.739c0.439-31.599,11.841-62.064,32.256-86.187
			c14.995-18.402,33.105-34.027,53.504-46.165c-22.376,26.182-34.636,59.511-34.56,93.952v100.096
			c-0.016,4.518,0.355,9.028,1.109,13.483c3.383,18.526,13.059,35.315,27.392,47.531L134.06,424.889z"/>
	</g>
	<g>
		<path style="fill:#FEDD0A;" d="M450.817,246.03v100.096c0.016,4.518-0.355,9.028-1.109,13.483
			c-1.932,11.343-6.395,22.106-13.056,31.488c-4.13,5.893-8.942,11.278-14.336,16.043l-1.195,1.024l-19.029,16.725l-44.288,38.912
			c-28.05,24.652-64.118,38.242-101.461,38.229h-3.584c-3.413,0-6.827-0.085-10.24-0.341h-0.256
			c-4.523-0.341-8.96-0.853-13.397-1.536c-28.783-4.506-55.689-17.115-77.568-36.352l-44.288-38.912L87.98,408.164l-1.195-1.024
			c-5.394-4.765-10.205-10.149-14.336-16.043c-6.662-9.382-11.124-20.145-13.056-31.488c-0.754-4.454-1.125-8.965-1.109-13.483
			V246.03c-0.076-34.441,12.184-67.77,34.56-93.952c0.085,0,0.085-0.085,0.171-0.085v-0.085
			c45.244-26.494,96.49-41.031,148.907-42.24h0.597c4.011-0.085,8.021-0.171,12.032-0.171
			c56.697-0.787,112.538,13.874,161.536,42.411v0.085c0.085,0,0.085,0.085,0.171,0.085
			C438.633,178.26,450.893,211.59,450.817,246.03z"/>
		<path style="fill:#FEDD0A;" d="M426.668,246.03v100.096c0.016,4.518-0.355,9.028-1.109,13.483
			c-1.932,11.343-6.394,22.106-13.056,31.488c-4.131,5.893-8.943,11.278-14.336,16.043l-1.195,1.024l-19.029,16.725l-44.288,38.912
			c-25.407,22.274-57.427,35.586-91.136,37.888h-0.256c-4.523-0.341-8.96-0.853-13.397-1.536
			c-28.783-4.506-55.689-17.115-77.568-36.352l-44.288-38.912L87.98,408.164l-1.195-1.024c-5.394-4.765-10.205-10.149-14.336-16.043
			c-6.662-9.382-11.124-20.145-13.056-31.488c-0.754-4.454-1.125-8.965-1.109-13.483V246.03
			c-0.076-34.441,12.184-67.77,34.56-93.952c0.085,0,0.085-0.085,0.171-0.085v-0.085c45.244-26.494,96.49-41.031,148.907-42.24
			h0.597c52.59,1.13,104.021,15.669,149.419,42.24v0.085c0.085,0,0.085,0.085,0.171,0.085
			C414.484,178.26,426.744,211.59,426.668,246.03z"/>
	</g>
	<path style="fill:#FFA800;" d="M502.046,284.459c0,57.515-39.253,108.544-99.925,140.459l20.223-17.749
		c14.333-12.215,24.009-29.005,27.393-47.531c0.754-4.454,1.125-8.965,1.109-13.483V246.059c0.076-34.441-12.184-67.77-34.56-93.952
		C468.851,184.107,502.046,231.552,502.046,284.459z"/>
	<g>
		<path d="M257.793,512.014h-3.584c-39.414,0.008-77.482-14.336-107.092-40.35l-64.508-56.662
			c-15.81-13.534-26.472-32.103-30.192-52.579c-0.824-4.905-1.231-9.872-1.217-14.846V247.481
			c-0.028-36.553,13.022-71.91,36.792-99.679l12.95,11.117c-21.114,24.674-32.703,56.088-32.675,88.563v100.096
			c-0.013,4.03,0.316,8.055,0.983,12.029c3.072,16.608,11.775,31.65,24.642,42.592l64.492,56.642
			c26.492,23.281,60.557,36.117,95.825,36.108h3.584c35.268,0.008,69.333-12.828,95.825-36.108l64.525-56.662
			c12.829-10.918,21.513-25.917,24.592-42.479c0.678-4.004,1.012-8.06,1-12.121V247.481c0.028-32.475-11.561-63.888-32.675-88.563
			l12.95-11.117c23.769,27.769,36.82,63.126,36.792,99.679v100.096c0.013,5.005-0.399,10.002-1.233,14.938
			c-3.726,20.431-14.369,38.957-30.142,52.467l-64.542,56.683C335.275,497.679,297.207,512.022,257.793,512.014L257.793,512.014z"/>
		<rect x="85.335" y="392.548" width="341.333" height="17.067"/>
		<path d="M153.601,409.614h-8.533c-4.713,0-8.533-3.82-8.533-8.533s3.821-8.533,8.533-8.533h8.533
			c4.711-0.005,8.529-3.822,8.533-8.533v-17.067c0-4.713,3.82-8.533,8.533-8.533s8.533,3.82,8.533,8.533v17.067
			C179.186,398.146,167.733,409.599,153.601,409.614z"/>
		<path d="M196.268,409.614h-8.533c-14.132-0.015-25.585-11.468-25.6-25.6v-17.067c0-4.713,3.82-8.533,8.533-8.533
			s8.533,3.82,8.533,8.533v17.067c0.005,4.711,3.822,8.529,8.533,8.533h8.533c4.713,0,8.533,3.82,8.533,8.533
			S200.981,409.614,196.268,409.614z"/>
		<path d="M110.935,409.614h-8.533c-4.713,0-8.533-3.82-8.533-8.533s3.821-8.533,8.533-8.533h8.533
			c4.711-0.005,8.529-3.822,8.533-8.533v-17.067c0-4.713,3.821-8.533,8.533-8.533c4.713,0,8.533,3.82,8.533,8.533v17.067
			C136.519,398.146,125.067,409.599,110.935,409.614z"/>
		<path d="M153.601,409.614h-8.533c-14.132-0.015-25.585-11.468-25.6-25.6v-17.067c0-4.713,3.821-8.533,8.533-8.533
			c4.713,0,8.533,3.82,8.533,8.533v17.067c0.005,4.711,3.822,8.529,8.533,8.533h8.533c4.713,0,8.533,3.82,8.533,8.533
			S158.314,409.614,153.601,409.614z"/>
		<path d="M196.268,409.614h-8.533c-4.713,0-8.533-3.82-8.533-8.533s3.82-8.533,8.533-8.533h8.533
			c4.711-0.005,8.529-3.822,8.533-8.533v-17.067c0-4.713,3.821-8.533,8.533-8.533s8.533,3.82,8.533,8.533v17.067
			C221.852,398.146,210.4,409.599,196.268,409.614L196.268,409.614z"/>
		<path d="M238.935,409.614h-8.533c-14.132-0.015-25.585-11.468-25.6-25.6v-17.067c0-4.713,3.821-8.533,8.533-8.533
			s8.533,3.82,8.533,8.533v17.067c0.005,4.711,3.822,8.529,8.533,8.533h8.533c4.713,0,8.533,3.82,8.533,8.533
			S243.647,409.614,238.935,409.614z"/>
		<path d="M238.935,409.614h-8.533c-4.713,0-8.533-3.82-8.533-8.533s3.821-8.533,8.533-8.533h8.533
			c4.711-0.005,8.529-3.822,8.533-8.533v-17.067c0-4.713,3.821-8.533,8.533-8.533c4.713,0,8.533,3.82,8.533,8.533v17.067
			C264.519,398.146,253.067,409.599,238.935,409.614z"/>
		<path d="M281.601,409.614h-8.533c-14.132-0.015-25.585-11.468-25.6-25.6v-17.067c0-4.713,3.821-8.533,8.533-8.533
			c4.713,0,8.533,3.82,8.533,8.533v17.067c0.005,4.711,3.822,8.529,8.533,8.533h8.533c4.713,0,8.533,3.82,8.533,8.533
			S286.314,409.614,281.601,409.614z"/>
		<path d="M281.601,409.614h-8.533c-4.713,0-8.533-3.82-8.533-8.533s3.82-8.533,8.533-8.533h8.533
			c4.711-0.005,8.529-3.822,8.533-8.533v-17.067c0-4.713,3.821-8.533,8.533-8.533s8.533,3.82,8.533,8.533v17.067
			C307.186,398.146,295.733,409.599,281.601,409.614z"/>
		<path d="M324.268,409.614h-8.533c-14.132-0.015-25.585-11.468-25.6-25.6v-17.067c0-4.713,3.821-8.533,8.533-8.533
			s8.533,3.82,8.533,8.533v17.067c0.005,4.711,3.822,8.529,8.533,8.533h8.533c4.713,0,8.533,3.82,8.533,8.533
			S328.981,409.614,324.268,409.614z"/>
		<path d="M213.335,443.748c-2.263,0.001-4.434-0.898-6.035-2.499c-1.6-1.6-2.499-3.771-2.499-6.035v-17.067
			c-0.005-4.711-3.822-8.529-8.533-8.533h-8.533c-4.713,0-8.533-3.82-8.533-8.533s3.82-8.533,8.533-8.533h8.533
			c14.132,0.015,25.585,11.468,25.6,25.6v17.067c0.001,2.263-0.898,4.434-2.499,6.035
			C217.769,442.849,215.598,443.748,213.335,443.748z"/>
		<path d="M213.335,443.748c-2.263,0.001-4.434-0.898-6.035-2.499c-1.6-1.6-2.499-3.771-2.499-6.035v-17.067
			c0.015-14.132,11.468-25.585,25.6-25.6h8.533c4.713,0,8.533,3.82,8.533,8.533s-3.821,8.533-8.533,8.533h-8.533
			c-4.711,0.005-8.529,3.822-8.533,8.533v17.067c0.001,2.263-0.898,4.434-2.499,6.035
			C217.769,442.849,215.598,443.748,213.335,443.748z"/>
		<path d="M170.668,443.748c-2.263,0.001-4.434-0.898-6.035-2.499c-1.6-1.6-2.499-3.771-2.499-6.035v-17.067
			c-0.005-4.711-3.822-8.529-8.533-8.533h-8.533c-4.713,0-8.533-3.82-8.533-8.533s3.821-8.533,8.533-8.533h8.533
			c14.132,0.015,25.585,11.468,25.6,25.6v17.067c0.001,2.263-0.898,4.434-2.499,6.035
			C175.102,442.849,172.931,443.748,170.668,443.748z"/>
		<path d="M170.668,443.748c-2.263,0.001-4.434-0.898-6.035-2.499c-1.6-1.6-2.499-3.771-2.499-6.035v-17.067
			c0.015-14.132,11.468-25.585,25.6-25.6h8.533c4.713,0,8.533,3.82,8.533,8.533s-3.82,8.533-8.533,8.533h-8.533
			c-4.711,0.005-8.529,3.822-8.533,8.533v17.067c0.001,2.263-0.898,4.434-2.499,6.035
			C175.102,442.849,172.931,443.748,170.668,443.748z"/>
		<path d="M256.001,443.748c-2.263,0.001-4.434-0.898-6.035-2.499c-1.6-1.6-2.499-3.771-2.499-6.035v-17.067
			c-0.005-4.711-3.822-8.529-8.533-8.533h-8.533c-4.713,0-8.533-3.82-8.533-8.533s3.821-8.533,8.533-8.533h8.533
			c14.132,0.015,25.585,11.468,25.6,25.6v17.067c0.001,2.263-0.898,4.434-2.499,6.035
			C260.435,442.849,258.265,443.748,256.001,443.748z"/>
		<path d="M256.001,443.748c-2.263,0.001-4.434-0.898-6.035-2.499c-1.6-1.6-2.499-3.771-2.499-6.035v-17.067
			c0.015-14.132,11.468-25.585,25.6-25.6h8.533c4.713,0,8.533,3.82,8.533,8.533s-3.82,8.533-8.533,8.533h-8.533
			c-4.711,0.005-8.529,3.822-8.533,8.533v17.067c0.001,2.263-0.898,4.434-2.499,6.035
			C260.435,442.849,258.265,443.748,256.001,443.748z"/>
		<path d="M298.668,443.748c-2.263,0.001-4.434-0.898-6.035-2.499c-1.6-1.6-2.499-3.771-2.499-6.035v-17.067
			c-0.005-4.711-3.822-8.529-8.533-8.533h-8.533c-4.713,0-8.533-3.82-8.533-8.533s3.82-8.533,8.533-8.533h8.533
			c14.132,0.015,25.585,11.468,25.6,25.6v17.067c0.001,2.263-0.898,4.434-2.499,6.035
			C303.102,442.849,300.931,443.748,298.668,443.748z"/>
		<path d="M298.668,443.748c-2.263,0.001-4.434-0.898-6.035-2.499c-1.6-1.6-2.499-3.771-2.499-6.035v-17.067
			c0.015-14.132,11.468-25.585,25.6-25.6h8.533c4.713,0,8.533,3.82,8.533,8.533s-3.821,8.533-8.533,8.533h-8.533
			c-4.711,0.005-8.529,3.822-8.533,8.533v17.067c0.001,2.263-0.898,4.434-2.499,6.035
			C303.102,442.849,300.931,443.748,298.668,443.748z"/>
		<path d="M341.335,443.748c-2.263,0.001-4.434-0.898-6.035-2.499c-1.6-1.6-2.499-3.771-2.499-6.035v-17.067
			c-0.005-4.711-3.822-8.529-8.533-8.533h-8.533c-4.713,0-8.533-3.82-8.533-8.533s3.82-8.533,8.533-8.533h8.533
			c14.132,0.015,25.585,11.468,25.6,25.6v17.067c0.001,2.263-0.898,4.434-2.499,6.035
			C345.769,442.849,343.598,443.748,341.335,443.748z"/>
		<path d="M341.335,443.748c-2.263,0.001-4.434-0.898-6.035-2.499c-1.6-1.6-2.499-3.771-2.499-6.035v-17.067
			c0.015-14.132,11.468-25.585,25.6-25.6h8.533c4.713,0,8.533,3.82,8.533,8.533s-3.82,8.533-8.533,8.533h-8.533
			c-4.711,0.005-8.529,3.822-8.533,8.533v17.067c0.001,2.263-0.898,4.434-2.499,6.035
			C345.769,442.849,343.598,443.748,341.335,443.748z"/>
		<path d="M324.268,409.614h-8.533c-4.713,0-8.533-3.82-8.533-8.533s3.82-8.533,8.533-8.533h8.533
			c4.711-0.005,8.529-3.822,8.533-8.533v-17.067c0-4.713,3.82-8.533,8.533-8.533s8.533,3.82,8.533,8.533v17.067
			C349.852,398.146,338.4,409.599,324.268,409.614z"/>
		<path d="M366.935,409.614h-8.533c-14.132-0.015-25.585-11.468-25.6-25.6v-17.067c0-4.713,3.82-8.533,8.533-8.533
			s8.533,3.82,8.533,8.533v17.067c0.005,4.711,3.822,8.529,8.533,8.533h8.533c4.713,0,8.533,3.82,8.533,8.533
			S371.647,409.614,366.935,409.614L366.935,409.614z"/>
		<path d="M366.935,409.614h-8.533c-4.713,0-8.533-3.82-8.533-8.533s3.821-8.533,8.533-8.533h8.533
			c4.711-0.005,8.529-3.822,8.533-8.533v-17.067c0-4.713,3.821-8.533,8.533-8.533c4.713,0,8.533,3.82,8.533,8.533v17.067
			C392.519,398.146,381.067,409.599,366.935,409.614z"/>
		<path d="M409.601,409.614h-8.533c-14.132-0.015-25.585-11.468-25.6-25.6v-17.067c0-4.713,3.821-8.533,8.533-8.533
			c4.713,0,8.533,3.82,8.533,8.533v17.067c0.005,4.711,3.822,8.529,8.533,8.533h8.533c4.713,0,8.533,3.82,8.533,8.533
			S414.314,409.614,409.601,409.614z"/>
	</g>
	<g>
		<path style="fill:#FC7308;" d="M206.337,275.044c-15.656,15.244-37.511,22.34-59.136,19.2c-0.022,0.023-0.053,0.036-0.085,0.036
			s-0.063-0.013-0.085-0.036c-10.301-1.833-19.731-6.953-26.88-14.592C99.5,257.294,104.535,218.98,131.5,194.062
			c10.711-10.054,24.164-16.706,38.656-19.115h0.171c17.23-3.602,35.104,1.873,47.36,14.507
			C238.337,211.812,233.303,250.126,206.337,275.044z"/>
		<path style="fill:#FC7308;" d="M391.852,279.652c-12.293,12.635-30.177,18.135-47.445,14.592h-0.171
			c-14.461-2.48-27.874-9.157-38.571-19.2c-26.965-24.917-32-63.232-11.349-85.589c7.112-7.626,16.521-12.72,26.795-14.507
			c0.022-0.023,0.053-0.036,0.085-0.036c0.032,0,0.063,0.013,0.085,0.036c21.639-3.187,43.529,3.878,59.221,19.115
			C407.468,218.98,412.503,257.294,391.852,279.652z"/>
	</g>
	<g>
		<path style="fill:#FFA800;" d="M185.772,275.044c-10.697,10.043-24.11,16.72-38.571,19.2c-0.022,0.023-0.053,0.036-0.085,0.036
			s-0.063-0.013-0.085-0.036c-10.301-1.833-19.731-6.953-26.88-14.592C99.5,257.294,104.535,218.98,131.5,194.062
			c10.711-10.054,24.164-16.706,38.656-19.115h0.171c10.286,1.75,19.706,6.85,26.795,14.507
			C217.772,211.812,212.737,250.126,185.772,275.044z"/>
		<path style="fill:#FFA800;" d="M371.287,279.652c-7.149,7.639-16.579,12.759-26.88,14.592h-0.171
			c-14.461-2.48-27.874-9.157-38.571-19.2c-26.965-24.917-32-63.232-11.349-85.589c7.112-7.626,16.521-12.72,26.795-14.507
			c0.022-0.023,0.053-0.036,0.085-0.036c0.032,0,0.063,0.013,0.085,0.036c14.492,2.408,27.945,9.06,38.656,19.115
			C386.903,218.98,391.937,257.294,371.287,279.652z"/>
	</g>
	<g>
		<path style="fill:#FC7308;" d="M229.99,295.256l-13.428,15.56c-3.418,4.168-4.025,9.971-1.544,14.756
			c2.481,4.785,7.574,7.633,12.95,7.242h13.428c7.768,0.283,14.3-5.773,14.606-13.54v-15.56c-0.47-5.968-4.488-11.065-10.18-12.916
			C240.128,288.947,233.881,290.706,229.99,295.256L229.99,295.256z"/>
		<path style="fill:#FC7308;" d="M282.012,295.256l13.428,15.56c3.418,4.168,4.025,9.971,1.544,14.756
			c-2.481,4.785-7.574,7.633-12.95,7.242h-13.428c-7.768,0.283-14.3-5.773-14.606-13.54v-15.56
			c0.47-5.968,4.488-11.065,10.18-12.916C271.874,288.947,278.122,290.706,282.012,295.256L282.012,295.256z"/>
	</g>
	<g>
		<path d="M157.501,303.706c-16.474,0.369-32.333-6.261-43.642-18.246c-11.91-13.242-17.185-31.163-14.35-48.746
			c6.222-38.622,38.016-68,77.008-71.158c17.784-1.686,35.337,5.024,47.461,18.144c12.124,13.12,17.43,31.147,14.347,48.743
			c-6.222,38.622-38.016,68-77.008,71.158C160.035,303.673,158.76,303.706,157.501,303.706z M180.293,182.518
			c-0.95,0-1.9,0.025-2.867,0.079c-30.79,2.72-55.861,25.887-61,56.367c-2.414,12.559,1.286,25.518,9.966,34.911
			c8.68,9.393,21.307,14.101,34.018,12.685c30.792-2.72,55.864-25.889,61-56.371c2.115-12.544-1.548-25.372-9.967-34.908
			C203.33,186.816,192.013,182.179,180.293,182.518L180.293,182.518z"/>
		<path d="M354.501,303.706c-1.258,0-2.533-0.033-3.817-0.104c-38.992-3.158-70.786-32.537-77.008-71.158
			c-3.083-17.596,2.224-35.623,14.348-48.743c12.124-13.12,29.676-19.831,47.461-18.144c38.992,3.158,70.786,32.537,77.008,71.158
			c2.835,17.583-2.44,35.504-14.35,48.746C386.834,297.445,370.975,304.075,354.501,303.706L354.501,303.706z M331.71,182.518
			c-11.721-0.341-23.038,4.296-31.15,12.763c-8.419,9.536-12.082,22.364-9.967,34.908c5.136,30.482,30.208,53.651,61,56.371
			c12.711,1.417,25.338-3.292,34.018-12.685c8.68-9.393,12.379-22.352,9.966-34.911c-5.139-30.48-30.21-53.647-61-56.367
			C333.61,182.543,332.66,182.518,331.71,182.518L331.71,182.518z"/>
		<path d="M241.393,341.348h-13.425c-9.07,0.172-17.388-5.021-21.217-13.246c-3.506-7.612-2.192-16.576,3.35-22.863l13.433-15.558
			c6.509-7.511,17.035-10.123,26.3-6.525c8.746,3.066,14.627,11.291,14.7,20.558v15.558
			C264.218,331.749,253.87,341.62,241.393,341.348L241.393,341.348z M241.268,298.689c-1.844-0.037-3.609,0.748-4.817,2.142l0,0
			l-13.433,15.558c-1.193,1.226-1.492,3.067-0.75,4.608c1.084,2.125,3.318,3.412,5.7,3.283h13.425
			c3.05,0.262,5.75-1.964,6.075-5.008v-15.558c-0.078-2.137-1.525-3.98-3.583-4.563C243.046,298.847,242.16,298.69,241.268,298.689z
			"/>
		<path d="M284.035,341.348h-13.425c-12.478,0.272-22.825-9.599-23.142-22.075v-15.558c0.073-9.267,5.954-17.492,14.7-20.558
			c9.265-3.602,19.793-0.99,26.3,6.525l13.433,15.558c5.542,6.286,6.856,15.25,3.35,22.863
			C301.423,336.326,293.105,341.519,284.035,341.348z M270.735,298.689c-0.892,0.001-1.778,0.158-2.617,0.462
			c-2.058,0.582-3.506,2.425-3.583,4.562v15.558c0.325,3.045,3.024,5.27,6.075,5.008h13.425c2.382,0.129,4.617-1.158,5.7-3.283
			c0.742-1.541,0.443-3.382-0.75-4.608l-13.434-15.558l0,0C274.343,299.438,272.578,298.653,270.735,298.689L270.735,298.689z"/>
		<path d="M102.485,512.014c-2.09,0.003-4.107-0.764-5.667-2.154c-14.817-13.197-28.161-27.96-39.8-44.029
			c-2.768-3.815-1.92-9.152,1.896-11.921s9.152-1.92,11.921,1.896c10.912,15.072,23.423,28.918,37.316,41.296
			c2.651,2.352,3.571,6.098,2.312,9.411C109.204,509.826,106.029,512.016,102.485,512.014z"/>
		<path d="M409.518,512.014c-3.544,0.002-6.72-2.188-7.979-5.501c-1.259-3.313-0.338-7.059,2.312-9.412
			c59.095-54.195,92.235-131.046,91.083-211.221c0-148.217-107.183-268.8-238.933-268.8S17.068,137.664,17.068,285.881
			c-0.101,35.399,6.139,70.53,18.425,103.729c1.628,4.414-0.623,9.313-5.033,10.953c-4.41,1.64-9.315-0.598-10.967-5.003
			C6.5,360.457-0.102,323.311,0.001,285.881c0-157.629,114.842-285.867,256-285.867s256,128.237,256,285.867
			c1.152,85.051-34.075,166.546-96.817,223.979C413.625,511.251,411.607,512.018,409.518,512.014z"/>
		<path d="M40.959,435.214c-2.262-0.019-4.43-0.905-6.059-2.475c-1.557-1.637-2.44-3.8-2.475-6.059
			c0.013-1.116,0.245-2.219,0.683-3.246c0.433-1.033,1.039-1.984,1.792-2.813c3.421-3.158,8.695-3.158,12.117,0
			c3.3,3.365,3.3,8.752,0,12.117c-0.83,0.753-1.783,1.359-2.817,1.792C43.176,434.969,42.074,435.201,40.959,435.214z"/>
		<path d="M409.518,512.014H102.485c-4.713,0-8.533-3.82-8.533-8.533c0-4.713,3.821-8.533,8.533-8.533h307.033
			c4.713,0,8.533,3.821,8.533,8.533C418.051,508.194,414.231,512.014,409.518,512.014z"/>
		<path d="M403.551,434.873c-3.925,0.002-7.346-2.674-8.289-6.484c-0.943-3.81,0.833-7.773,4.306-9.603
			c60.609-31.875,95.367-80.317,95.367-132.905c0-47.925-29.825-93.538-81.833-125.146l-4.1-2.529
			c-46.758-26.01-99.498-39.359-153-38.725c-53.938-0.656-107.096,12.925-154.108,39.375l-2.992,1.879
			c-52.008,31.608-81.833,77.221-81.833,125.146c0,52.588,34.758,101.029,95.367,132.904c4.172,2.195,5.775,7.357,3.579,11.529
			s-7.357,5.775-11.529,3.579C39.06,399.481,0.001,344.148,0.001,285.881c0-52.717,31.25-102.492,85.933-137.183v-0.042l4.092-2.579
			c50.363-29.284,107.721-44.373,165.975-43.662c58.254-0.711,115.612,14.378,165.975,43.662l4.092,2.621
			c54.683,34.692,85.933,84.467,85.933,137.183c0,58.267-39.058,113.6-104.483,148.012
			C406.295,434.538,404.933,434.874,403.551,434.873z"/>
	</g>
</g>
<g>
</g>
<g>
</g>
<g>
</g>
<g>
</g>
<g>
</g>
<g>
</g>
<g>
</g>
<g>
</g>
<g>
</g>
<g>
</g>
<g>
</g>
<g>
</g>
<g>
</g>
<g>
</g>
<g>
</g>
</svg>
