<?xml version="1.0" encoding="iso-8859-1"?>
<!-- Generator: Adobe Illustrator 19.0.0, SVG Export Plug-In . SVG Version: 6.00 Build 0)  -->
<svg version="1.1" id="Capa_1" xmlns="http://www.w3.org/2000/svg" xmlns:xlink="http://www.w3.org/1999/xlink" x="0px" y="0px"
	 viewBox="0 0 512 512" style="enable-background:new 0 0 512 512;" xml:space="preserve">
<g>
	<path style="fill:#FFA800;" d="M452.267,187.989v159.573c0.016,4.517-0.347,9.027-1.085,13.483
		c-3.223,18.446-12.683,35.225-26.797,47.531l-63.11,56.661c-27.225,24.569-62.583,38.188-99.255,38.229h-3.506
		c-3.59,0-7.179-0.171-10.769-0.427c-32.865-2.465-63.985-15.76-88.487-37.803l-63.11-56.661
		c-14.114-12.306-23.573-29.085-26.797-47.531c-0.738-4.456-1.101-8.966-1.085-13.483V187.989
		c0-99.072,74.713-179.456,166.957-179.456h50.087C377.554,8.533,452.267,88.917,452.267,187.989z"/>
	<path style="fill:#FFFFFF;" d="M178.347,465.237c21.931,19.209,48.855,31.813,77.653,36.352c-4.267,0.683-8.533,1.109-12.8,1.451
		c-33.464-2.411-65.225-15.684-90.453-37.803l-64.512-56.661c-14.361-12.192-24.044-28.992-27.392-47.531
		c-0.754-4.454-1.125-8.965-1.109-13.483V187.989c0-99.072,76.373-179.456,170.667-179.456H256
		c-94.293,0-170.667,80.384-170.667,179.456v159.573c-0.016,4.518,0.355,9.028,1.109,13.483
		c3.348,18.539,13.031,35.339,27.392,47.531L178.347,465.237z"/>
	<path style="fill:#FEDD0A;" d="M426.667,187.989v159.573c0.016,4.518-0.355,9.028-1.109,13.483
		c-3.348,18.539-13.031,35.339-27.392,47.531l-64.512,56.661c-21.931,19.209-48.855,31.813-77.653,36.352
		c-28.799-4.539-55.722-17.143-77.653-36.352l-64.512-56.661c-14.361-12.192-24.044-28.992-27.392-47.531
		c-0.754-4.454-1.125-8.965-1.109-13.483V187.989C85.334,88.917,161.707,8.533,256,8.533S426.667,88.917,426.667,187.989z"/>
	<g>
		<path style="fill:#FFA800;" d="M213.334,256c-1.23,24.718-22.211,43.791-46.933,42.667c-4.317-0.013-8.616-0.558-12.8-1.621
			c-19.432-4.255-33.493-21.163-34.133-41.045c0-32.256,12.032-40.107,29.099-42.069c5.93-0.512,11.883-0.711,17.835-0.597
			C191.123,212.209,212.103,231.282,213.334,256z"/>
		<path style="fill:#FFA800;" d="M392.534,256c-1.23,24.718-22.211,43.791-46.933,42.667c-4.317-0.013-8.616-0.558-12.8-1.621
			c-19.432-4.255-33.493-21.163-34.133-41.045c0.834-21.789,17.494-39.683,39.168-42.069c2.567-0.418,5.165-0.617,7.765-0.597
			C371.542,213.333,392.534,213.333,392.534,256z"/>
	</g>
	<g>
		<path style="fill:#FEDD0A;" d="M187.734,256c-0.64,19.882-14.701,36.79-34.133,41.045c-19.432-4.255-33.493-21.163-34.133-41.045
			c0-32.256,12.032-40.107,29.099-42.069C170.239,216.317,186.899,234.211,187.734,256z"/>
		<path style="fill:#FEDD0A;" d="M366.934,256c-0.64,19.882-14.701,36.79-34.133,41.045c-19.432-4.255-33.493-21.163-34.133-41.045
			c0.834-21.789,17.494-39.683,39.168-42.069C354.902,215.893,366.934,223.744,366.934,256z"/>
	</g>
	<g>
		<path d="M166.4,307.2c-29.425,1.097-54.21-21.781-55.467-51.2c0-51.2,29.467-51.2,55.467-51.2
			c29.425-1.097,54.21,21.781,55.467,51.2C220.61,285.419,195.825,308.297,166.4,307.2L166.4,307.2z M166.4,221.867
			c-26.367,0-38.4,0-38.4,34.133c1.268,19.986,18.403,35.218,38.4,34.133c19.997,1.084,37.132-14.147,38.4-34.133
			C203.533,236.014,186.397,220.782,166.4,221.867L166.4,221.867z"/>
		<path d="M345.6,307.2c-29.425,1.097-54.21-21.781-55.467-51.2c1.257-29.419,26.042-52.297,55.467-51.2c26,0,55.467,0,55.467,51.2
			C399.81,285.419,375.025,308.297,345.6,307.2L345.6,307.2z M345.6,221.867c-19.997-1.084-37.132,14.147-38.4,34.133
			c1.268,19.986,18.403,35.218,38.4,34.133c19.997,1.084,37.132-14.147,38.4-34.133C384,221.867,371.967,221.867,345.6,221.867z"/>
		<path d="M257.829,512h-3.658c-39.395,0.009-77.444-14.336-107.029-40.35l-64.521-56.7c-15.856-13.486-26.541-32.056-30.234-52.542
			c-0.79-4.919-1.187-9.893-1.187-14.875v-74.462c0-4.713,3.821-8.533,8.533-8.533s8.533,3.82,8.533,8.533v74.462
			c0,4.075,0.324,8.143,0.971,12.167c3.064,16.569,11.775,31.564,24.65,42.433l64.521,56.7c26.471,23.274,60.515,36.108,95.763,36.1
			h3.658c35.249,0.007,69.293-12.826,95.767-36.1l64.521-56.7c12.875-10.87,21.585-25.865,24.65-42.433
			c0.641-4.025,0.965-8.095,0.967-12.171V187.988C443.734,93.742,371,17.067,281.6,17.067h-51.2
			c-89.4,0-162.133,76.675-162.133,170.921v16.817c0,4.713-3.821,8.533-8.533,8.533s-8.533-3.821-8.533-8.533v-16.817
			C51.2,84.329,131.588,0,230.4,0h51.2c98.813,0,179.2,84.329,179.2,187.988v159.542c-0.004,4.979-0.4,9.95-1.183,14.867
			c-3.689,20.49-14.375,39.065-30.234,52.554l-64.521,56.7C335.276,497.664,297.226,512.008,257.829,512z"/>
		<path d="M59.734,247.467c-2.27,0.022-4.453-0.87-6.058-2.475s-2.497-3.788-2.475-6.058c0.012-1.116,0.243-2.219,0.679-3.246
			c0.434-1.033,1.041-1.984,1.795-2.813c2.496-2.34,6.113-3.038,9.3-1.796c1.034,0.434,1.987,1.041,2.817,1.796
			c0.752,0.83,1.358,1.781,1.792,2.813c0.438,1.027,0.67,2.13,0.683,3.246c-0.034,2.259-0.918,4.422-2.475,6.059
			c-0.831,0.752-1.783,1.358-2.817,1.792C61.963,247.262,60.853,247.496,59.734,247.467L59.734,247.467z"/>
	</g>
	<g>
		<polygon style="fill:#DB4E6C;" points="196.267,162.133 315.734,162.133 256,204.8 		"/>
		<polygon style="fill:#DB4E6C;" points="136.534,384 162.134,418.133 196.267,349.867 		"/>
		<polygon style="fill:#DB4E6C;" points="375.467,384 349.867,418.133 315.734,349.867 		"/>
	</g>
	<g>
		<path d="M256,213.333c-1.778,0.001-3.511-0.554-4.958-1.587l-59.733-42.667c-3.019-2.156-4.299-6.015-3.168-9.548
			c1.132-3.533,4.416-5.93,8.126-5.931h119.467c3.71,0.001,6.994,2.398,8.126,5.931c1.132,3.533-0.149,7.392-3.168,9.548
			l-59.733,42.667C259.512,212.779,257.778,213.334,256,213.333L256,213.333z M222.896,170.667L256,194.313l33.104-23.646H222.896z"
			/>
		<path d="M256,349.867c-23.525,0-42.667-15.312-42.667-34.133c0-4.713,3.821-8.533,8.533-8.533s8.533,3.821,8.533,8.533
			c0,9.25,11.725,17.067,25.6,17.067c13.875,0,25.6-7.817,25.6-17.067c0-4.713,3.82-8.533,8.533-8.533s8.533,3.821,8.533,8.533
			C298.667,334.554,279.525,349.867,256,349.867z"/>
		<path d="M162.134,426.667c-2.685,0-5.214-1.264-6.825-3.412l-25.6-34.133c-1.471-1.957-2.029-4.452-1.533-6.85
			c0.496-2.398,1.998-4.466,4.125-5.679l59.733-34.133c3.265-1.866,7.366-1.375,10.098,1.209c2.732,2.584,3.45,6.652,1.768,10.016
			l-34.133,68.267c-1.323,2.645-3.921,4.417-6.867,4.683C162.642,426.654,162.388,426.667,162.134,426.667z M149.159,386.612
			l11.517,15.354l15.354-30.708L149.159,386.612z"/>
		<path d="M349.867,426.667c-0.254,0-0.508-0.012-0.767-0.033c-2.945-0.267-5.543-2.038-6.867-4.683L308.1,353.683
			c-1.682-3.363-0.964-7.431,1.768-10.016c2.732-2.584,6.833-3.075,10.098-1.209l59.733,34.133c2.127,1.213,3.629,3.282,4.125,5.679
			c0.496,2.398-0.063,4.893-1.533,6.85l-25.6,34.133C355.081,425.402,352.552,426.667,349.867,426.667L349.867,426.667z
			 M335.971,371.258l15.354,30.708l11.517-15.354L335.971,371.258z"/>
		<path d="M204.8,59.733c-2.259-0.033-4.422-0.917-6.059-2.475c-0.341-0.429-0.683-0.854-1.025-1.279
			c-0.324-0.476-0.583-0.993-0.771-1.538c-0.245-0.484-0.417-1.003-0.508-1.538c-0.1-0.563-0.157-1.133-0.171-1.704
			c0.012-1.116,0.243-2.219,0.679-3.246c0.434-1.033,1.041-1.984,1.796-2.813c3.398-3.219,8.719-3.219,12.117,0
			c1.558,1.636,2.442,3.8,2.475,6.059c-0.016,0.571-0.073,1.141-0.171,1.704c-0.095,0.535-0.268,1.053-0.512,1.538
			c-0.187,0.544-0.447,1.062-0.771,1.538c-0.338,0.425-0.679,0.85-1.021,1.279c-0.817,0.77-1.773,1.378-2.817,1.792
			C207.016,59.488,205.915,59.72,204.8,59.733L204.8,59.733z"/>
		<path d="M204.8,93.867c-3.45-0.014-6.556-2.096-7.879-5.282c-1.323-3.187-0.606-6.856,1.82-9.31
			c2.455-2.417,6.121-3.125,9.3-1.796c1.045,0.414,2.001,1.024,2.817,1.796c0.341,0.425,0.683,0.85,1.021,1.279
			c0.323,0.475,0.582,0.991,0.771,1.533c0.245,0.485,0.418,1.003,0.512,1.538c0.094,0.565,0.151,1.136,0.171,1.708
			c-0.034,2.259-0.918,4.422-2.475,6.059c-0.817,0.77-1.773,1.378-2.817,1.792C207.017,93.621,205.915,93.853,204.8,93.867z"/>
		<path d="M204.8,128c-2.259-0.033-4.422-0.917-6.059-2.475c-0.754-0.83-1.362-1.782-1.796-2.817
			c-0.436-1.026-0.667-2.127-0.679-3.242c0.013-0.573,0.07-1.144,0.171-1.708c0.091-0.535,0.263-1.053,0.508-1.538
			c0.188-0.543,0.448-1.058,0.771-1.533c0.341-0.429,0.683-0.854,1.025-1.279c2.475-2.379,6.117-3.083,9.3-1.796
			c1.045,0.414,2.001,1.023,2.817,1.796c0.341,0.425,0.683,0.85,1.021,1.279c0.323,0.475,0.582,0.991,0.771,1.533
			c0.245,0.485,0.418,1.003,0.513,1.538c0.098,0.565,0.155,1.136,0.17,1.709c-0.034,2.259-0.918,4.422-2.475,6.059
			c-0.817,0.77-1.773,1.378-2.817,1.792C207.017,127.755,205.915,127.987,204.8,128L204.8,128z"/>
		<path d="M238.934,136.533c-1.116-0.013-2.219-0.245-3.246-0.683c-1.032-0.434-1.983-1.04-2.813-1.792
			c-1.559-1.636-2.442-3.799-2.475-6.058c0.012-1.116,0.243-2.219,0.679-3.246c0.784-2.139,2.469-3.824,4.608-4.608
			c2.079-0.85,4.408-0.85,6.487,0c2.141,0.78,3.828,2.467,4.608,4.608c0.438,1.027,0.671,2.13,0.684,3.246
			c-0.034,2.259-0.918,4.422-2.475,6.059c-0.831,0.752-1.783,1.358-2.817,1.792C241.15,136.288,240.048,136.52,238.934,136.533z"/>
		<path d="M307.2,59.733c-0.573-0.02-1.143-0.077-1.708-0.171c-0.535-0.095-1.053-0.268-1.538-0.513
			c-0.543-0.188-1.058-0.448-1.533-0.771c-0.429-0.338-0.854-0.679-1.279-1.021c-0.341-0.429-0.683-0.854-1.025-1.367
			c-0.34-0.435-0.601-0.925-0.771-1.45c-0.258-0.509-0.43-1.056-0.508-1.621c-0.1-0.535-0.157-1.077-0.171-1.621
			c0.031-2.259,0.915-4.423,2.475-6.059c0.404-0.369,0.831-0.711,1.279-1.025c0.475-0.323,0.991-0.582,1.533-0.771
			c0.484-0.245,1.003-0.417,1.538-0.508c2.811-0.574,5.723,0.29,7.767,2.304c0.752,0.83,1.358,1.781,1.792,2.813
			c0.438,1.027,0.67,2.13,0.683,3.246c-0.016,0.544-0.073,1.086-0.171,1.621c-0.082,0.564-0.255,1.112-0.512,1.621
			c-0.17,0.525-0.431,1.015-0.771,1.45c-0.338,0.513-0.679,0.938-1.021,1.367C311.622,58.816,309.459,59.699,307.2,59.733z"/>
		<path d="M307.2,93.867c-0.573-0.02-1.143-0.077-1.708-0.171c-0.535-0.095-1.053-0.268-1.538-0.513
			c-0.543-0.188-1.058-0.448-1.533-0.771c-0.429-0.337-0.854-0.679-1.279-1.021c-2.953-2.896-3.443-7.476-1.171-10.932
			s6.672-4.82,10.501-3.256s6.015,5.619,5.218,9.677C314.893,90.94,311.336,93.867,307.2,93.867L307.2,93.867z"/>
		<path d="M307.2,128c-0.573-0.02-1.143-0.077-1.708-0.171c-0.535-0.095-1.053-0.268-1.538-0.513
			c-0.543-0.188-1.058-0.448-1.533-0.771c-0.429-0.337-0.854-0.679-1.279-1.021c-2.953-2.896-3.443-7.476-1.171-10.932
			s6.672-4.82,10.501-3.256s6.015,5.619,5.218,9.677C314.893,125.073,311.336,128,307.2,128L307.2,128z"/>
		<path d="M273.067,136.533c-1.116-0.013-2.219-0.245-3.246-0.683c-1.043-0.413-1.997-1.021-2.813-1.792
			c-0.341-0.429-0.683-0.854-1.025-1.279c-0.324-0.476-0.583-0.993-0.771-1.538c-0.246-0.484-0.417-1.002-0.508-1.538
			c-0.228-1.126-0.228-2.286,0-3.412c0.091-0.535,0.263-1.053,0.508-1.538c0.172-0.524,0.433-1.014,0.771-1.45
			c0.341-0.513,0.683-0.937,1.025-1.363c0.814-0.773,1.769-1.383,2.813-1.796c3.18-1.329,6.847-0.622,9.304,1.796
			c0.388,0.416,0.731,0.873,1.021,1.363c0.338,0.436,0.599,0.926,0.771,1.45c0.245,0.485,0.418,1.003,0.513,1.538
			c0.228,1.126,0.228,2.286,0,3.412c-0.095,0.535-0.268,1.053-0.513,1.538c-0.187,0.544-0.447,1.062-0.771,1.538
			c-0.337,0.425-0.679,0.85-1.021,1.279c-0.831,0.752-1.783,1.358-2.817,1.792C275.283,136.288,274.182,136.52,273.067,136.533z"/>
		<path d="M256,51.2c-0.573-0.015-1.144-0.072-1.708-0.171c-0.535-0.095-1.053-0.268-1.538-0.513
			c-0.543-0.188-1.058-0.448-1.533-0.771c-0.429-0.338-0.854-0.679-1.279-1.021c-0.79-0.802-1.402-1.762-1.796-2.817
			c-0.436-1.026-0.667-2.127-0.679-3.242c0.013-0.573,0.07-1.144,0.171-1.708c0.091-0.535,0.263-1.053,0.508-1.538
			c0.188-0.543,0.448-1.058,0.771-1.533c0.341-0.429,0.683-0.854,1.025-1.279c0.425-0.341,0.85-0.683,1.279-1.025
			c0.475-0.323,0.991-0.582,1.533-0.771c0.484-0.246,1.003-0.417,1.538-0.508c1.663-0.348,3.393-0.171,4.95,0.508
			c1.055,0.394,2.015,1.006,2.817,1.796c0.341,0.425,0.683,0.85,1.021,1.279c0.323,0.475,0.582,0.991,0.771,1.533
			c0.245,0.485,0.418,1.003,0.512,1.538c0.098,0.565,0.155,1.136,0.171,1.708c-0.014,1.115-0.246,2.216-0.683,3.242
			c-0.777,2.143-2.465,3.831-4.608,4.608C258.217,50.954,257.115,51.186,256,51.2L256,51.2z"/>
		<path d="M230.4,384c-0.573-0.02-1.143-0.077-1.708-0.171c-0.535-0.095-1.053-0.268-1.538-0.512
			c-0.543-0.188-1.058-0.448-1.533-0.771c-0.448-0.312-0.876-0.653-1.279-1.021c-0.754-0.83-1.362-1.783-1.796-2.817
			c-0.436-1.026-0.667-2.127-0.679-3.242c0.013-0.573,0.07-1.144,0.171-1.708c0.091-0.535,0.263-1.053,0.508-1.538
			c0.188-0.543,0.448-1.058,0.771-1.533c0.341-0.429,0.683-0.854,1.025-1.279c3.421-3.158,8.695-3.158,12.117,0
			c0.341,0.425,0.683,0.85,1.021,1.279c0.323,0.475,0.582,0.991,0.771,1.533c0.245,0.485,0.418,1.003,0.513,1.538
			c0.098,0.565,0.156,1.135,0.171,1.708c-0.014,1.115-0.246,2.216-0.683,3.242c-0.434,1.033-1.04,1.986-1.792,2.817
			c-0.405,0.366-0.833,0.707-1.279,1.021c-0.476,0.324-0.993,0.583-1.538,0.771c-0.485,0.245-1.003,0.418-1.538,0.513
			C231.54,383.923,230.971,383.98,230.4,384L230.4,384z"/>
		<path d="M230.4,418.133c-2.259-0.033-4.422-0.917-6.059-2.475c-0.754-0.83-1.362-1.783-1.796-2.817
			c-0.436-1.026-0.667-2.127-0.679-3.242c0.013-0.573,0.07-1.144,0.171-1.708c0.091-0.535,0.263-1.053,0.508-1.538
			c0.188-0.543,0.448-1.058,0.771-1.533c0.341-0.429,0.683-0.854,1.025-1.279c3.421-3.158,8.695-3.158,12.117,0
			c0.341,0.425,0.683,0.85,1.021,1.279c0.323,0.475,0.582,0.991,0.771,1.533c0.245,0.485,0.418,1.003,0.513,1.538
			c0.098,0.565,0.156,1.135,0.171,1.708c-0.014,1.115-0.246,2.216-0.683,3.242c-0.434,1.033-1.04,1.986-1.792,2.817
			C234.822,417.215,232.659,418.099,230.4,418.133z"/>
		<path d="M230.4,452.267c-2.259-0.033-4.422-0.917-6.059-2.475c-0.754-0.83-1.362-1.783-1.796-2.817
			c-0.436-1.026-0.667-2.127-0.679-3.242c0.013-0.573,0.07-1.144,0.171-1.708c0.091-0.535,0.263-1.053,0.508-1.538
			c0.188-0.543,0.448-1.058,0.771-1.533c0.341-0.429,0.683-0.854,1.025-1.279c3.421-3.158,8.695-3.158,12.117,0
			c0.341,0.425,0.683,0.85,1.021,1.279c0.323,0.475,0.582,0.991,0.771,1.533c0.245,0.485,0.418,1.003,0.513,1.538
			c0.098,0.565,0.156,1.135,0.171,1.708c-0.014,1.115-0.246,2.216-0.683,3.242c-0.434,1.033-1.04,1.986-1.792,2.817
			C234.822,451.349,232.659,452.232,230.4,452.267L230.4,452.267z"/>
		<path d="M281.6,384c-1.116-0.013-2.219-0.245-3.246-0.683c-1.032-0.434-1.983-1.04-2.813-1.792
			c-0.341-0.429-0.683-0.854-1.025-1.279c-0.324-0.476-0.583-0.993-0.771-1.538c-0.246-0.484-0.417-1.002-0.508-1.538
			c-0.1-0.563-0.157-1.132-0.171-1.704c0.013-0.544,0.07-1.086,0.171-1.621c0.078-0.566,0.25-1.115,0.508-1.625
			c0.172-0.524,0.433-1.014,0.771-1.45c0.341-0.513,0.683-0.937,1.025-1.363c3.397-3.221,8.72-3.221,12.117,0
			c0.341,0.425,0.683,0.85,1.021,1.363c0.338,0.436,0.599,0.926,0.771,1.45c0.258,0.51,0.431,1.059,0.512,1.625
			c0.098,0.535,0.156,1.077,0.171,1.621c-0.016,0.571-0.073,1.141-0.171,1.704c-0.095,0.535-0.268,1.053-0.513,1.538
			c-0.187,0.545-0.447,1.062-0.771,1.538c-0.337,0.425-0.679,0.85-1.021,1.279C286.022,383.082,283.859,383.966,281.6,384z"/>
		<path d="M281.6,418.133c-2.27,0.022-4.453-0.87-6.058-2.475c-1.605-1.605-2.497-3.788-2.475-6.058
			c0.012-1.116,0.243-2.219,0.679-3.246c0.784-2.139,2.469-3.824,4.608-4.608c3.184-1.287,6.828-0.584,9.305,1.795
			c2.462,2.441,3.201,6.129,1.872,9.331C288.201,416.074,285.067,418.154,281.6,418.133z"/>
		<path d="M281.6,452.267c-1.116-0.013-2.219-0.245-3.246-0.683c-1.032-0.434-1.983-1.04-2.813-1.792
			c-0.772-0.816-1.382-1.772-1.796-2.817c-0.436-1.026-0.667-2.127-0.679-3.241c0.031-2.259,0.915-4.423,2.475-6.059
			c0.814-0.773,1.769-1.383,2.813-1.796c3.18-1.33,6.848-0.622,9.305,1.796c2.462,2.441,3.201,6.129,1.872,9.331
			C288.201,450.208,285.067,452.287,281.6,452.267z"/>
		<path d="M128,128c-2.259-0.033-4.422-0.917-6.059-2.475c-0.772-0.816-1.382-1.772-1.796-2.817c-0.906-2.068-0.906-4.42,0-6.487
			c0.434-1.033,1.041-1.985,1.796-2.813c3.421-3.158,8.695-3.158,12.117,0c0.752,0.83,1.358,1.781,1.792,2.813
			c0.911,2.067,0.911,4.421,0,6.487c-0.434,1.033-1.04,1.986-1.792,2.817C132.422,127.082,130.259,127.965,128,128L128,128z"/>
		<path d="M145.067,153.6c-0.573-0.015-1.144-0.072-1.708-0.171c-0.535-0.095-1.053-0.268-1.538-0.512
			c-0.543-0.188-1.058-0.448-1.533-0.771c-0.448-0.312-0.876-0.653-1.279-1.021c-3.3-3.365-3.3-8.752,0-12.117
			c2.451-2.425,6.122-3.134,9.3-1.796c1.034,0.434,1.987,1.041,2.817,1.795c3.3,3.365,3.3,8.752,0,12.117
			c-0.831,0.752-1.783,1.358-2.817,1.792C147.297,153.395,146.186,153.629,145.067,153.6L145.067,153.6z"/>
		<path d="M128,179.2c-2.259-0.033-4.422-0.917-6.059-2.475c-0.341-0.429-0.683-0.854-1.025-1.279
			c-0.324-0.476-0.583-0.993-0.771-1.538c-0.246-0.484-0.417-1.002-0.508-1.538c-0.1-0.563-0.157-1.133-0.171-1.704
			c0-3.049,1.626-5.866,4.267-7.39c2.64-1.524,5.893-1.524,8.533,0c2.64,1.524,4.267,4.341,4.267,7.39
			c-0.016,0.571-0.073,1.141-0.171,1.704c-0.095,0.535-0.268,1.053-0.513,1.538c-0.187,0.544-0.447,1.062-0.771,1.538
			c-0.314,0.447-0.655,0.874-1.021,1.279c-0.429,0.341-0.854,0.683-1.279,1.021c-0.476,0.324-0.993,0.583-1.538,0.771
			c-0.485,0.245-1.003,0.418-1.538,0.513C129.141,179.128,128.572,179.185,128,179.2z"/>
		<path d="M93.867,179.2c-1.116-0.013-2.219-0.245-3.246-0.683c-2.141-0.78-3.828-2.467-4.608-4.608
			c-0.436-1.026-0.667-2.127-0.68-3.242c0.031-2.259,0.915-4.423,2.475-6.059c0.828-0.754,1.78-1.362,2.813-1.796
			c2.079-0.85,4.409-0.85,6.487,0c1.034,0.434,1.987,1.041,2.817,1.796c1.571,1.628,2.457,3.797,2.475,6.059
			c-0.014,1.115-0.246,2.216-0.683,3.242c-0.777,2.143-2.465,3.831-4.608,4.608C96.083,178.954,94.982,179.186,93.867,179.2
			L93.867,179.2z"/>
		<path d="M162.134,179.2c-2.259-0.033-4.422-0.917-6.059-2.475c-0.754-0.83-1.362-1.782-1.796-2.817
			c-0.436-1.026-0.667-2.127-0.679-3.242c0.031-2.259,0.915-4.423,2.475-6.059c2.063-1.977,4.955-2.835,7.763-2.304
			c0.535,0.091,1.053,0.263,1.538,0.508c0.544,0.187,1.062,0.447,1.538,0.771c0.425,0.341,0.85,0.683,1.279,1.025
			c1.558,1.636,2.442,3.8,2.475,6.058c-0.014,1.115-0.246,2.216-0.683,3.242c-0.434,1.033-1.04,1.986-1.792,2.817
			c-0.429,0.341-0.854,0.683-1.279,1.021c-0.476,0.324-0.993,0.583-1.538,0.771c-0.485,0.245-1.003,0.418-1.538,0.513
			C163.274,179.127,162.705,179.184,162.134,179.2z"/>
		<path d="M384,128c-1.116-0.013-2.219-0.245-3.246-0.683c-1.032-0.434-1.983-1.04-2.813-1.792c-3.3-3.365-3.3-8.752,0-12.117
			c0.828-0.754,1.78-1.362,2.813-1.796c2.061-0.938,4.427-0.938,6.487,0c1.034,0.434,1.987,1.041,2.817,1.796
			c3.3,3.365,3.3,8.752,0,12.117c-0.831,0.752-1.783,1.358-2.817,1.792C386.217,127.754,385.115,127.986,384,128L384,128z"/>
		<path d="M366.934,153.6c-1.116-0.013-2.219-0.245-3.246-0.683c-1.032-0.434-1.983-1.04-2.813-1.792c-3.3-3.365-3.3-8.752,0-12.117
			c0.828-0.754,1.78-1.362,2.813-1.796c3.18-1.329,6.848-0.622,9.305,1.796c2.462,2.441,3.201,6.129,1.872,9.331
			C373.535,151.541,370.4,153.62,366.934,153.6z"/>
		<path d="M384,179.2c-1.121,0.03-2.232-0.205-3.246-0.683c-1.032-0.434-1.983-1.04-2.813-1.792
			c-0.341-0.429-0.683-0.854-1.025-1.279c-0.324-0.476-0.583-0.993-0.771-1.538c-0.246-0.484-0.417-1.002-0.508-1.538
			c-0.096-0.563-0.153-1.133-0.171-1.704c0-4.713,3.82-8.533,8.533-8.533s8.533,3.821,8.533,8.533
			c-0.02,0.571-0.077,1.14-0.171,1.704c-0.095,0.535-0.268,1.053-0.513,1.538c-0.187,0.544-0.447,1.062-0.771,1.538
			c-0.337,0.425-0.679,0.85-1.021,1.279c-0.831,0.752-1.783,1.358-2.817,1.792C386.23,178.995,385.119,179.229,384,179.2z"/>
		<path d="M418.134,179.2c-2.259-0.033-4.422-0.917-6.059-2.475c-0.771-0.816-1.379-1.772-1.792-2.817
			c-0.437-1.026-0.669-2.127-0.683-3.242c0.014-2.263,0.9-4.433,2.475-6.059l1.275-1.025c0.477-0.324,0.996-0.583,1.542-0.771
			c0.483-0.245,1-0.417,1.534-0.508c3.198-0.671,6.498,0.542,8.501,3.124c2.003,2.582,2.356,6.08,0.911,9.011
			C424.392,177.368,421.401,179.217,418.134,179.2z"/>
		<path d="M349.867,179.2c-2.259-0.033-4.422-0.917-6.059-2.475c-0.772-0.816-1.382-1.772-1.796-2.817
			c-0.906-2.068-0.906-4.42,0-6.487c0.393-1.054,1.005-2.013,1.796-2.813c3.346-3.346,8.771-3.346,12.117,0
			c3.346,3.346,3.346,8.771,0,12.117c-0.831,0.752-1.783,1.358-2.817,1.792C352.083,178.955,350.982,179.187,349.867,179.2
			L349.867,179.2z"/>
		<path d="M128,341.333c-2.259-0.033-4.422-0.917-6.059-2.475c-0.754-0.83-1.362-1.782-1.796-2.817c-0.906-2.068-0.906-4.42,0-6.487
			c0.434-1.033,1.041-1.985,1.796-2.813c2.441-2.462,6.129-3.201,9.331-1.872c3.202,1.329,5.281,4.464,5.261,7.931
			c0.029,1.119-0.205,2.229-0.683,3.242c-0.434,1.033-1.04,1.986-1.792,2.817C132.422,340.415,130.259,341.299,128,341.333
			L128,341.333z"/>
		<path d="M102.4,358.4c-0.573-0.015-1.144-0.072-1.708-0.171c-0.535-0.095-1.053-0.268-1.538-0.512
			c-0.524-0.172-1.014-0.433-1.45-0.771c-0.512-0.338-0.937-0.679-1.363-1.021c-3.3-3.365-3.3-8.752,0-12.117
			c0.416-0.39,0.873-0.733,1.363-1.025c0.436-0.338,0.926-0.599,1.45-0.771c0.484-0.246,1.003-0.417,1.538-0.509
			c2.811-0.574,5.723,0.29,7.767,2.304c2.461,2.441,3.201,6.129,1.872,9.331C109.001,356.341,105.867,358.42,102.4,358.4z"/>
		<path d="M384,341.333c-4.024-0.039-7.462-2.911-8.218-6.863s1.38-7.89,5.105-9.412c3.726-1.522,8.007-0.205,10.235,3.146
			c2.227,3.352,1.783,7.809-1.063,10.654C388.423,340.416,386.259,341.3,384,341.333z"/>
		<path d="M409.6,358.4c-0.573-0.02-1.143-0.077-1.708-0.171c-0.533-0.095-1.05-0.268-1.533-0.512
			c-0.546-0.187-1.064-0.447-1.542-0.771c-0.446-0.313-0.872-0.654-1.275-1.021c-0.789-0.802-1.399-1.762-1.792-2.817
			c-0.911-2.067-0.911-4.421,0-6.487c0.412-1.044,1.02-1.998,1.792-2.813l1.275-1.025c0.477-0.324,0.996-0.583,1.542-0.771
			c0.483-0.246,1-0.417,1.534-0.509c2.809-0.53,5.701,0.328,7.767,2.304c1.558,1.636,2.441,3.8,2.475,6.059
			c-0.014,1.115-0.246,2.216-0.683,3.242c-0.393,1.055-1.003,2.014-1.792,2.817C414.021,357.481,411.859,358.365,409.6,358.4z"/>
	</g>
</g>
<g>
</g>
<g>
</g>
<g>
</g>
<g>
</g>
<g>
</g>
<g>
</g>
<g>
</g>
<g>
</g>
<g>
</g>
<g>
</g>
<g>
</g>
<g>
</g>
<g>
</g>
<g>
</g>
<g>
</g>
</svg>
