<?xml version="1.0" encoding="iso-8859-1"?>
<!-- Generator: Adobe Illustrator 19.0.0, SVG Export Plug-In . SVG Version: 6.00 Build 0)  -->
<svg version="1.1" id="Capa_1" xmlns="http://www.w3.org/2000/svg" xmlns:xlink="http://www.w3.org/1999/xlink" x="0px" y="0px"
	 viewBox="0 0 512 512" style="enable-background:new 0 0 512 512;" xml:space="preserve">
<g>
	<g>
		<path style="fill:#FFA800;" d="M162.138,477.867c-25.6,25.6-59.733,8.533-59.733,8.533c23.04-15.36,18.432-44.544,17.237-50.261"
			/>
		<path style="fill:#FFA800;" d="M119.044,435.627c-20.519,20.139-47.667,32.121-76.373,33.707
			c28.672-21.504,33.28-60.928,33.963-73.131c0.171-2.304,0.171-3.669,0.171-3.669"/>
		<path style="fill:#FFA800;" d="M392.367,436.139c-1.195,5.717-5.803,34.901,17.237,50.261c0,0-34.133,17.067-59.733-8.533"/>
		<path style="fill:#FFA800;" d="M392.964,435.627c20.519,20.139,47.667,32.121,76.373,33.707
			c-28.672-21.504-33.28-60.928-33.963-73.131c-0.171-2.304-0.171-3.669-0.171-3.669"/>
		<path style="fill:#FFA800;" d="M41.732,190.635L25.604,93.867c0.017-47.121,38.212-85.316,85.333-85.333h290.133
			c47.121,0.017,85.316,38.212,85.333,85.333l-16.128,96.768H41.732z"/>
	</g>
	<path style="fill:#FFFFFF;" d="M51.204,93.867l16.128,96.768h-25.6L25.604,93.867C25.621,46.745,63.817,8.55,110.938,8.533h25.6
		C89.417,8.55,51.221,46.745,51.204,93.867z"/>
	<path style="fill:#FEDD0A;" d="M460.804,93.867l-16.128,96.768H67.332L51.204,93.867C51.221,46.745,89.417,8.55,136.538,8.533
		h238.933C422.592,8.55,460.787,46.745,460.804,93.867z"/>
	<path style="fill:#FFA800;" d="M452.271,187.733v159.829c0.016,4.518-0.355,9.028-1.109,13.483
		c-3.348,18.539-13.03,35.339-27.392,47.531l-64.512,56.661c-28.05,24.652-64.118,38.242-101.461,38.229h-3.584
		c-3.669,0-7.339-0.171-11.008-0.427c-33.464-2.411-65.225-15.684-90.453-37.803l-64.512-56.661
		c-14.361-12.192-24.044-28.992-27.392-47.531c-0.754-4.454-1.125-8.965-1.109-13.483V187.733
		c7.083-42.752,51.456-44.971,51.456-44.971c-4.424-0.223-8.561-2.26-11.435-5.632C87.041,126.5,81.732,109.404,86.191,93.44
		c6.976-16.866,22.058-29.022,40.021-32.256c9.261-2.152,18.914-1.947,28.075,0.597c22.101,6.485,65.365,36.437,86.955,53.76
		c0.6,0.504,1.259,0.934,1.963,1.28c3.71,2.491,8.075,3.827,12.544,3.84h0.512c5.271-0.043,10.376-1.845,14.507-5.12
		c21.589-17.323,64.853-47.275,86.955-53.76c0.812-0.249,1.638-0.449,2.475-0.597c26.624-6.315,58.112,9.045,65.621,32.256
		c4.459,15.964-0.85,33.06-13.568,43.691c-2.863,3.338-6.959,5.37-11.349,5.632C403.546,142.933,445.444,146.261,452.271,187.733z"
		/>
	<path style="fill:#FEDD0A;" d="M426.671,187.733v159.829c0.016,4.518-0.355,9.028-1.109,13.483
		c-3.348,18.539-13.031,35.339-27.392,47.531l-64.512,56.661c-25.228,22.118-56.989,35.392-90.453,37.803
		c-33.464-2.411-65.225-15.684-90.453-37.803l-64.512-56.661c-14.361-12.192-24.044-28.992-27.392-47.531
		c-0.754-4.454-1.125-8.965-1.109-13.483V187.733c7.083-42.752,51.456-44.971,51.456-44.971c-4.424-0.223-8.561-2.26-11.435-5.632
		C87.041,126.5,81.732,109.404,86.191,93.44c6.976-16.866,22.058-29.022,40.021-32.256c9.261-2.152,18.914-1.947,28.075,0.597
		c22.101,6.485,65.365,36.437,86.955,53.76c0.6,0.504,1.259,0.934,1.963,1.28c3.71,2.491,8.075,3.827,12.544,3.84h0.512
		c5.271-0.043,10.376-1.845,14.507-5.12c21.589-17.323,64.853-47.275,86.955-53.76c0.812-0.249,1.638-0.449,2.475-0.597
		c17.963,3.234,33.045,15.39,40.021,32.256c4.459,15.964-0.85,33.06-13.568,43.691c-2.874,3.372-7.01,5.409-11.435,5.632
		C375.215,142.763,419.588,144.981,426.671,187.733z"/>
	<path style="fill:#FFFFFF;" d="M34.394,219.819l9.131,108.459l-9.387,10.581c-2.596,2.433-6.343,3.194-9.683,1.967
		s-5.702-4.234-6.104-7.769L8.794,219.819c-0.841-7.666,1.72-15.315,7.007-20.93c5.287-5.615,12.768-8.631,20.471-8.254h23.467
		v0.085c-7.339,0.172-14.267,3.424-19.089,8.96C35.827,205.216,33.557,212.525,34.394,219.819L34.394,219.819z"/>
	<g>
		<path style="fill:#FEDD0A;" d="M59.738,190.72v119.381l-16.213,18.176l-9.131-108.459c-0.837-7.293,1.433-14.603,6.255-20.138
			C45.47,194.144,52.398,190.892,59.738,190.72z"/>
		<path style="fill:#FEDD0A;" d="M452.271,310.07l25.6,28.749c2.581,2.447,6.324,3.222,9.665,2.003
			c3.341-1.219,5.704-4.223,6.103-7.757l9.549-113.241c0.841-7.663-1.713-15.31-6.99-20.93c-5.277-5.62-12.749-8.649-20.45-8.29
			h-23.477V310.07z"/>
	</g>
	<g>
		<path style="fill:#FFA800;" d="M213.338,421.888v30.379c-23.561-0.009-42.658-19.106-42.667-42.667
			c0.012-1.998,0.154-3.994,0.427-5.973C183.931,412.267,198.252,418.458,213.338,421.888L213.338,421.888z"/>
		<path style="fill:#FFA800;" d="M341.338,409.6c-0.009,23.561-19.106,42.658-42.667,42.667v-30.379
			c15.086-3.43,29.407-9.621,42.24-18.261C341.183,405.606,341.326,407.602,341.338,409.6z"/>
	</g>
	<g>
		<path style="fill:#DB4E6C;" d="M100.877,205.065c-0.56,3.82-0.838,7.676-0.833,11.537c0,40.622,29.723,73.532,66.36,73.532
			c22.227-0.346,42.708-12.116,54.199-31.145"/>
		<path style="fill:#DB4E6C;" d="M291.405,258.988c11.491,19.029,31.973,30.799,54.199,31.145c36.637,0,66.36-32.91,66.36-73.532
			c0.005-3.861-0.274-7.716-0.833-11.536"/>
	</g>
	<g>
		<path d="M238.938,275.792c-1.208,0-2.403-0.257-3.504-0.754L90.367,209.675c-4.296-1.935-6.21-6.987-4.275-11.283
			c1.935-4.296,6.987-6.21,11.283-4.275l132.513,59.704c-1.229-19.971-5.388-57.167-19.433-76.288
			c-1.808-2.458-2.166-5.693-0.94-8.486c1.226-2.793,3.85-4.72,6.883-5.053c3.032-0.333,6.012,0.978,7.815,3.439
			c22.996,31.304,23.258,97.042,23.258,99.825c0,2.263-0.898,4.434-2.499,6.034C243.372,274.893,241.201,275.792,238.938,275.792z"
			/>
		<path d="M166.404,298.667c-41.296,0-74.892-36.817-74.892-82.067c-0.004-4.279,0.305-8.553,0.925-12.788
			c0.7-4.655,5.037-7.865,9.694-7.173c4.656,0.692,7.873,5.024,7.19,9.681c-0.499,3.404-0.747,6.839-0.742,10.279
			c0,35.842,25.942,65,57.825,65c19.296-0.386,37.042-10.652,46.996-27.187c2.527-3.979,7.8-5.156,11.779-2.629
			c3.979,2.527,5.156,7.8,2.629,11.779C214.736,285.041,191.546,298.299,166.404,298.667z"/>
		<path d="M273.071,275.792c-2.263,0-4.434-0.898-6.034-2.499c-1.6-1.6-2.499-3.771-2.499-6.034c0-2.783,0.262-68.521,23.258-99.825
			c1.803-2.461,4.783-3.772,7.815-3.439c3.032,0.333,5.657,2.259,6.883,5.053c1.226,2.793,0.868,6.029-0.94,8.486
			c-14.046,19.121-18.204,56.317-19.433,76.288l132.513-59.705c2.779-1.252,6.015-0.926,8.489,0.855
			c2.474,1.781,3.81,4.746,3.504,7.779c-0.305,3.033-2.206,5.672-4.985,6.924l-145.067,65.363
			C275.474,275.534,274.28,275.792,273.071,275.792L273.071,275.792z"/>
		<path d="M345.604,298.667c-25.142-0.368-48.331-13.625-61.404-35.104c-2.501-3.977-1.317-9.229,2.65-11.747
			s9.223-1.358,11.759,2.598c9.954,16.535,27.7,26.801,46.996,27.187c31.883,0,57.825-29.158,57.825-65
			c0.005-3.44-0.243-6.876-0.742-10.279c-0.684-4.658,2.533-8.989,7.19-9.681c4.656-0.692,8.994,2.518,9.694,7.173
			c0.62,4.234,0.929,8.508,0.925,12.788C420.496,261.85,386.9,298.667,345.604,298.667z"/>
		<path d="M238.946,369.242c-2.723,0.005-5.285-1.293-6.892-3.492c-3.717-5.071-6.133-5.546-6.783-5.571
			c-0.987,0.148-1.915,0.566-2.679,1.208c-1.968,2.307-5.014,3.395-7.999,2.859c-2.985-0.537-5.46-2.618-6.501-5.467
			c-4.425-12.243-4.366-25.659,0.167-37.862c1.849-4.32,6.842-6.333,11.17-4.502c4.328,1.831,6.36,6.817,4.547,11.152
			c-1.768,5.069-2.434,10.457-1.954,15.804c1.286-0.213,2.589-0.295,3.892-0.246c8.238,0.819,15.612,5.465,19.908,12.542
			c1.898,2.592,2.18,6.031,0.728,8.897S242.159,369.238,238.946,369.242L238.946,369.242z"/>
		<path d="M273.063,369.242c-3.213-0.004-6.151-1.812-7.603-4.678c-1.452-2.866-1.17-6.305,0.728-8.897
			c4.296-7.077,11.67-11.722,19.908-12.542c1.305-0.047,2.611,0.035,3.9,0.246c0.49-5.33-0.171-10.702-1.938-15.754
			c-1.199-2.803-0.81-6.033,1.019-8.473s4.821-3.717,7.848-3.351c3.027,0.366,5.629,2.319,6.824,5.124
			c4.533,12.204,4.592,25.619,0.167,37.862c-1.041,2.848-3.515,4.929-6.498,5.466c-2.984,0.538-6.028-0.549-7.998-2.854l0.004,0.009
			c-0.743-0.717-1.716-1.148-2.746-1.217c-0.654,0.042-3.063,0.563-6.725,5.567C278.347,367.949,275.786,369.247,273.063,369.242z"
			/>
		<path d="M256.004,426.667c-111.237,0-127.708-82.958-127.863-83.796c-0.558-3.003,0.531-6.076,2.856-8.058
			c2.325-1.981,5.532-2.568,8.409-1.54c2.877,1.029,4.984,3.516,5.526,6.522c0.538,2.817,14.488,69.804,111.071,69.804
			c97.175,0,110.946-69.104,111.071-69.804c0.86-4.626,5.301-7.683,9.929-6.836c4.628,0.848,7.697,5.28,6.862,9.911
			C383.713,343.708,367.242,426.667,256.004,426.667z"/>
		<path d="M119.463,349.867c-4.309-0.002-7.94-3.217-8.465-7.494c-0.525-4.277,2.222-8.274,6.403-9.318l34.133-8.533
			c4.572-1.144,9.206,1.636,10.35,6.208c1.144,4.572-1.636,9.206-6.208,10.35l-34.133,8.533
			C120.862,349.783,120.163,349.868,119.463,349.867L119.463,349.867z"/>
		<path d="M392.546,349.867c-0.701,0.001-1.399-0.084-2.079-0.254l-34.133-8.533c-4.572-1.144-7.352-5.778-6.208-10.35
			c1.144-4.572,5.777-7.352,10.35-6.208l34.133,8.533c4.181,1.044,6.928,5.041,6.403,9.318
			C400.487,346.65,396.856,349.864,392.546,349.867L392.546,349.867z"/>
		<path d="M213.338,460.8c-16.748,0.009-32.441-8.179-42.015-21.921c-9.574-13.742-11.817-31.3-6.006-47.008
			c1.649-4.403,6.549-6.643,10.957-5.008c4.409,1.635,6.664,6.528,5.043,10.942c-3.867,10.47-2.367,22.17,4.017,31.326
			c6.383,9.156,16.842,14.61,28.004,14.603c4.713,0,8.533,3.82,8.533,8.533S218.051,460.8,213.338,460.8L213.338,460.8z"/>
		<path d="M213.338,460.8c-4.713,0-8.533-3.82-8.533-8.533v-39.083c0-4.713,3.821-8.533,8.533-8.533s8.533,3.82,8.533,8.533v39.083
			C221.871,456.98,218.051,460.8,213.338,460.8z"/>
		<path d="M298.671,460.8c-4.713,0-8.533-3.82-8.533-8.533s3.82-8.533,8.533-8.533c11.162,0.007,21.621-5.447,28.004-14.603
			c6.383-9.156,7.884-20.856,4.017-31.326c-1.621-4.414,0.634-9.307,5.043-10.942c4.409-1.635,9.309,0.605,10.957,5.008
			c5.811,15.708,3.568,33.266-6.006,47.008C331.112,452.621,315.42,460.809,298.671,460.8L298.671,460.8z"/>
		<path d="M298.671,460.8c-4.713,0-8.533-3.82-8.533-8.533v-39.083c0-4.713,3.82-8.533,8.533-8.533s8.533,3.82,8.533,8.533v39.083
			C307.204,456.98,303.384,460.8,298.671,460.8z"/>
		<path d="M257.796,512h-3.584c-39.415,0.009-77.485-14.335-107.096-40.35l-64.512-56.662
			c-15.849-13.518-26.518-32.115-30.188-52.621c-0.822-4.892-1.228-9.844-1.212-14.804V187.733
			c-0.001-0.468,0.038-0.935,0.117-1.396c3.297-21.59,18.053-39.69,38.537-47.267c-12.325-12.79-16.831-31.215-11.8-48.25
			c9.225-28.212,47.412-46.288,78.658-37.208c23.967,6.975,67.854,37.596,89.892,55.254c5.552,4.223,13.24,4.223,18.792,0
			c22.038-17.658,65.925-48.279,89.892-55.254c31.225-9.087,69.438,8.996,78.658,37.208c5.03,17.035,0.524,35.459-11.8,48.25
			c20.484,7.577,35.241,25.676,38.537,47.267c0.078,0.461,0.117,0.928,0.116,1.396v159.829c0.013,5.005-0.399,10.002-1.233,14.938
			c-3.684,20.447-14.336,38.987-30.146,52.467l-64.533,56.683C335.282,497.665,297.212,512.009,257.796,512z M68.271,188.463v159.1
			c-0.015,4.03,0.314,8.055,0.983,12.029c3.033,16.622,11.741,31.675,24.638,42.592l64.492,56.642
			c26.494,23.28,60.56,36.116,95.829,36.108h3.584c35.269,0.008,69.335-12.828,95.829-36.108l64.512-56.662
			c12.857-10.878,21.548-25.874,24.596-42.437c0.682-4.018,1.017-8.087,1.004-12.162v-159.1
			c-5.913-33.084-38.8-36.804-43.021-37.146c-0.246-0.012-0.496-0.033-0.746-0.054c-4.618-0.442-8.037-4.493-7.698-9.12
			c0.34-4.627,4.314-8.135,8.948-7.897l0.421,0.021c0.25-0.037,1.608-0.375,4.688-3.329c10.325-8.348,14.787-21.98,11.396-34.817
			c-6.462-19.771-35.033-32.721-57.658-26.125c-20.225,5.887-62.075,34.621-83.992,52.187c-5.613,4.511-12.591,6.982-19.792,7.008
			c-7.387,0.069-14.572-2.406-20.35-7.008c-21.917-17.567-63.767-46.3-83.992-52.187c-22.621-6.562-51.191,6.354-57.658,26.125
			c-3.391,12.839,1.073,26.473,11.4,34.821c3.063,2.942,4.425,3.283,4.717,3.325c0.275-0.017,0.558-0.033,0.829-0.033
			c4.553,0.003,8.302,3.581,8.518,8.129c0.216,4.548-3.177,8.465-7.71,8.9c-0.258,0.025-0.517,0.042-0.771,0.054
			C107.092,151.654,74.184,155.371,68.271,188.463z"/>
		<path d="M478.692,192.037l-16.833-2.808l16.009-96.05c-0.425-42.125-34.669-76.064-76.796-76.112H110.938
			c-42.127,0.048-76.371,33.987-76.796,76.112l16.009,96.05l-16.833,2.808L17.188,95.271c-0.078-0.464-0.117-0.934-0.117-1.404
			C17.13,42.05,59.121,0.059,110.938,0h290.133c51.817,0.059,93.808,42.05,93.867,93.867c0.001,0.471-0.038,0.94-0.117,1.404
			L478.692,192.037z"/>
		<path d="M128.038,500.579c-10.17-0.063-20.211-2.294-29.45-6.546c-2.72-1.361-4.511-4.067-4.7-7.103
			c-0.189-3.036,1.252-5.943,3.783-7.631c18.612-12.404,14.608-36.675,13.617-41.417l16.708-3.492
			c3.672,16.671,0.348,34.118-9.196,48.271c13.467,2.952,27.512-1.125,37.304-10.829l12.066,12.066
			C157.641,494.719,143.135,500.748,128.038,500.579z"/>
		<path d="M42.671,477.867c-3.673,0.001-6.934-2.349-8.096-5.833c-1.162-3.484,0.037-7.321,2.975-9.525
			c25.979-19.488,29.962-56.042,30.563-66.784c0.146-1.95,0.158-3.066,0.158-3.209l17.067,0.017c0,0,0.004,1.6-0.196,4.3
			c-1.136,21.274-7.694,41.904-19.05,59.929c17.682-4.989,33.827-14.342,46.95-27.2l12.008,12.125
			C102.964,463.453,73.642,476.331,42.671,477.867z"/>
		<path d="M383.971,500.579c-15.097,0.17-29.604-5.859-40.133-16.679l12.066-12.066c9.796,9.699,23.838,13.775,37.304,10.829
			c-9.544-14.153-12.867-31.6-9.195-48.271l16.708,3.492c-0.992,4.742-4.996,29.012,13.617,41.417
			c2.531,1.688,3.972,4.595,3.783,7.631c-0.189,3.036-1.979,5.742-4.7,7.103C404.182,498.284,394.142,500.516,383.971,500.579
			L383.971,500.579z"/>
		<path d="M469.338,477.867c-30.97-1.536-60.293-14.414-82.379-36.179l12.008-12.125c13.126,12.896,29.29,22.277,47,27.275
			c-11.405-18.09-17.985-38.799-19.113-60.154c-0.187-2.55-0.183-4.15-0.183-4.15h17.067c0,0.125,0.012,1.242,0.146,3.042
			c0.613,10.892,4.596,47.446,30.575,66.933c2.938,2.204,4.137,6.04,2.975,9.525C476.272,475.518,473.011,477.867,469.338,477.867
			L469.338,477.867z"/>
		<path d="M27.463,349.833c-2.389-0.002-4.754-0.478-6.958-1.4c-6.222-2.471-10.402-8.377-10.662-15.067l-2.158-25.45
			c-0.396-4.697,3.091-8.825,7.787-9.221c4.697-0.396,8.825,3.091,9.221,7.787l2.183,25.867c-0.017,0.233,0.292,0.429,0.725,0.45
			l23.604-26.021V199.138H36.263c-5.827-0.091-11.403,2.371-15.262,6.738c-3.061,3.452-4.433,8.084-3.746,12.646l1.683,19.692
			c0.396,4.697-3.091,8.825-7.787,9.221s-8.825-3.091-9.221-7.787l-1.613-19.104c-1.275-9.305,1.545-18.706,7.729-25.775
			c7.098-8.152,17.408-12.791,28.217-12.696h23.475c4.713,0,8.533,3.821,8.533,8.533v119.467c-0.001,2.092-0.769,4.111-2.158,5.675
			l-25.6,28.75C37.003,347.874,32.334,349.784,27.463,349.833L27.463,349.833z"/>
		<path d="M13.654,281.6c-2.259-0.034-4.422-0.918-6.059-2.475c-3.3-3.365-3.3-8.752,0-12.117c3.423-3.158,8.698-3.158,12.121,0
			c3.294,3.367,3.294,8.75,0,12.117C18.078,280.682,15.914,281.566,13.654,281.6z"/>
		<path d="M484.388,349.858c-4.554,0.012-8.947-1.689-12.304-4.767l-26.188-29.346c-1.389-1.564-2.157-3.583-2.158-5.674V190.604
			c0-4.713,3.82-8.533,8.533-8.533h23.475c10.809-0.095,21.118,4.544,28.217,12.696c6.282,7.246,9.08,16.878,7.658,26.363
			l-9.479,112.654c-0.377,6.543-4.533,12.266-10.637,14.65C489.25,349.374,486.831,349.858,484.388,349.858z M460.804,306.821
			l23.442,26.325c0.336-0.189,0.659-0.4,0.967-0.633l9.471-113.404c0.831-4.739-0.519-9.601-3.675-13.233
			c-3.859-4.367-9.435-6.828-15.262-6.738h-14.942V306.821z"/>
	</g>
</g>
<g>
</g>
<g>
</g>
<g>
</g>
<g>
</g>
<g>
</g>
<g>
</g>
<g>
</g>
<g>
</g>
<g>
</g>
<g>
</g>
<g>
</g>
<g>
</g>
<g>
</g>
<g>
</g>
<g>
</g>
</svg>
