<?xml version="1.0" encoding="iso-8859-1"?>
<!-- Generator: Adobe Illustrator 19.0.0, SVG Export Plug-In . SVG Version: 6.00 Build 0)  -->
<svg version="1.1" id="Capa_1" xmlns="http://www.w3.org/2000/svg" xmlns:xlink="http://www.w3.org/1999/xlink" x="0px" y="0px"
	 viewBox="0 0 512 512" style="enable-background:new 0 0 512 512;" xml:space="preserve">
<g>
	<path style="fill:#FFA800;" d="M477.867,337.067c0.163,31.898-20.571,60.143-51.052,69.547c-0.67,0.683-1.34,1.365-2.009,1.963
		l-63.271,56.661c-27.32,24.579-62.76,38.194-99.51,38.229h-3.516c-3.599,0-7.197-0.171-10.796-0.427
		c-32.934-2.459-64.128-15.751-88.713-37.803l-63.271-56.661c-0.67-0.597-1.34-1.28-2.009-1.963
		c-30.481-9.403-51.215-37.649-51.052-69.547c-0.032-21.198,9.127-41.369,25.108-55.296v-93.781
		c0-99.072,74.905-179.456,167.385-179.456h50.215c92.48,0,167.385,80.384,167.385,179.456v93.781
		C468.74,295.698,477.899,315.869,477.867,337.067z"/>
	<path style="fill:#FFFFFF;" d="M178.347,465.237c21.931,19.209,48.855,31.813,77.653,36.352c-4.267,0.683-8.533,1.109-12.8,1.451
		c-33.464-2.411-65.225-15.684-90.453-37.803l-64.512-56.661c-0.683-0.597-1.365-1.28-2.048-1.963
		c-25.57-7.516-44.954-28.456-50.478-54.528c-5.524-26.072,3.701-53.074,24.025-70.315v-93.781
		c0-99.072,76.373-179.456,170.667-179.456H256c-94.293,0-170.667,80.384-170.667,179.456v93.781
		c-20.324,17.241-29.55,44.242-24.025,70.315c5.525,26.073,24.909,47.012,50.478,54.528c0.683,0.683,1.365,1.365,2.048,1.963
		L178.347,465.237z"/>
	<path style="fill:#FEDD0A;" d="M452.267,337.067c0,32.853-21.931,46.592-52.053,55.467c-0.683,0.683-1.365,1.365-2.048,1.963
		l-64.512,70.741c-21.931,19.209-48.855,31.813-77.653,36.352c-28.799-4.539-55.722-17.143-77.653-36.352l-64.512-56.661
		c-0.683-0.597-1.365-1.28-2.048-1.963c-25.57-7.516-44.954-28.456-50.478-54.528c-5.524-26.072,3.701-53.074,24.025-70.315v-93.781
		C85.333,88.917,161.707,8.533,256,8.533s170.667,80.384,170.667,179.456v93.781C442.895,295.558,452.254,315.773,452.267,337.067z"
		/>
	<path style="fill:#DB4E6C;" d="M204.8,366.933c0-18.859,22.955-34.133,51.2-34.133s51.2,15.275,51.2,34.133"/>
	<g>
		<path style="fill:#FFA800;" d="M95.383,224.946c-0.972-0.566-1.554-1.62-1.515-2.743s0.693-2.135,1.701-2.632
			c13.974-5.987,27.408-13.165,40.152-21.456c14.668-11.222,34.303-13.51,51.158-5.96c17.61,7.913,21.859,13.491,32.458,14.668
			c1.003,0.154,1.86,0.804,2.277,1.729c0.417,0.925,0.338,1.998-0.211,2.852C212.273,226.13,176.271,270.707,95.383,224.946z"/>
		<path style="fill:#FFA800;" d="M416.617,224.946c0.972-0.566,1.554-1.62,1.515-2.743c-0.039-1.124-0.693-2.135-1.701-2.632
			c-13.975-5.987-27.408-13.165-40.152-21.456c-14.668-11.222-34.303-13.51-51.158-5.96c-17.61,7.913-21.859,13.491-32.458,14.668
			c-1.003,0.154-1.86,0.804-2.277,1.729c-0.417,0.925-0.338,1.998,0.211,2.852C299.727,226.13,335.729,270.707,416.617,224.946z"/>
	</g>
	<g>
		<path d="M160.508,253.767c-24.571-1.011-48.458-8.384-69.325-21.396v0.004c-3.766-2.146-6.019-6.214-5.84-10.544
			c0.179-4.33,2.76-8.199,6.69-10.027c13.394-5.624,26.251-12.45,38.412-20.396c17.171-13.167,40.175-15.869,59.929-7.038
			c5.665,2.562,11.195,5.41,16.571,8.533c3.982,2.788,8.538,4.647,13.333,5.442c3.88,0.429,7.264,2.83,8.95,6.35
			c1.757,3.586,1.54,7.825-0.575,11.213C214.158,239.614,188.294,253.982,160.508,253.767L160.508,253.767z M109.192,222.633
			c57.517,28.646,87.346,7.158,100.471-9.346c-3.863-1.527-7.588-3.38-11.138-5.538c-4.911-2.86-9.965-5.468-15.142-7.813
			c-13.955-6.274-30.226-4.398-42.388,4.887C130.947,211.697,120.303,217.657,109.192,222.633z"/>
		<path d="M351.492,253.767c-27.789,0.218-53.657-14.155-68.15-37.867c-2.111-3.386-2.327-7.621-0.571-11.204
			c1.687-3.52,5.07-5.922,8.95-6.354c4.796-0.791,9.352-2.649,13.333-5.438c5.375-3.124,10.906-5.972,16.571-8.533
			c19.754-8.83,42.758-6.129,59.929,7.038c12.16,7.945,25.016,14.772,38.409,20.396c3.931,1.826,6.514,5.694,6.694,10.025
			c0.18,4.331-2.073,8.4-5.84,10.546C399.947,245.381,376.061,252.752,351.492,253.767L351.492,253.767z M302.342,213.288
			c13.121,16.5,42.954,37.996,100.467,9.346c-11.111-4.976-21.755-10.936-31.804-17.808c-12.161-9.287-28.432-11.163-42.388-4.887
			c-5.177,2.345-10.231,4.952-15.142,7.813C309.927,209.907,306.202,211.759,302.342,213.288L302.342,213.288z"/>
		<path d="M257.792,512h-3.584c-39.415,0.009-77.485-14.335-107.096-40.35L82.6,414.988c-0.3-0.262-0.604-0.546-0.912-0.837
			c-27.281-8.823-47.867-31.409-54.131-59.388c-6.264-27.98,2.728-57.187,23.643-76.799V256c0-4.713,3.821-8.533,8.533-8.533
			s8.533,3.821,8.533,8.533v25.771c-0.001,2.499-1.095,4.873-2.996,6.496C47.33,303.474,39.182,327.3,44.055,350.309
			s21.98,41.487,44.546,48.116c1.368,0.405,2.612,1.145,3.621,2.154c0.604,0.6,1.108,1.117,1.621,1.563l64.538,56.683
			c26.494,23.28,60.559,36.116,95.829,36.108h3.584c35.269,0.008,69.335-12.828,95.829-36.108l64.512-56.662
			c0.538-0.467,1.042-0.983,1.554-1.496c1.038-1.037,2.312-1.806,3.713-2.242c22.566-6.629,39.673-25.107,44.546-48.116
			s-3.275-46.835-21.216-62.043c-1.9-1.623-2.995-3.997-2.996-6.496v-93.783C443.733,93.742,371,17.067,281.6,17.067h-51.2
			c-89.4,0-162.133,76.675-162.133,170.921c0,4.713-3.821,8.533-8.533,8.533S51.2,192.7,51.2,187.988C51.2,84.329,131.588,0,230.4,0
			h51.2c98.813,0,179.2,84.329,179.2,187.988v89.975c20.915,19.613,29.907,48.819,23.643,76.799
			c-6.264,27.98-26.85,50.565-54.131,59.388c-0.317,0.3-0.629,0.588-0.937,0.858l-64.488,56.642
			C335.277,497.665,297.207,512.009,257.792,512L257.792,512z"/>
		<path d="M59.733,230.4c-1.116-0.013-2.219-0.245-3.246-0.683c-3.248-1.231-5.367-4.377-5.288-7.85
			c0.031-2.259,0.915-4.423,2.475-6.059c0.828-0.754,1.78-1.362,2.813-1.796c2.079-0.85,4.409-0.85,6.487,0
			c1.034,0.434,1.987,1.041,2.817,1.796c1.558,1.636,2.441,3.8,2.475,6.059c0.081,3.475-2.041,6.622-5.292,7.85
			C61.949,230.154,60.848,230.386,59.733,230.4L59.733,230.4z"/>
	</g>
	<g>
		<ellipse style="fill:#DB4E6C;" cx="98.133" cy="337.067" rx="29.867" ry="38.4"/>
		<ellipse style="fill:#DB4E6C;" cx="413.867" cy="337.067" rx="29.867" ry="38.4"/>
	</g>
	<g>
		<path d="M98.133,384c-21.175,0-38.4-21.054-38.4-46.933c0-25.879,17.225-46.933,38.4-46.933s38.4,21.054,38.4,46.933
			C136.533,362.946,119.308,384,98.133,384z M98.133,307.2c-11.563,0-21.333,13.679-21.333,29.867
			c0,16.188,9.771,29.867,21.333,29.867s21.333-13.679,21.333-29.867C119.467,320.879,109.696,307.2,98.133,307.2z"/>
		<path d="M413.867,384c-21.175,0-38.4-21.054-38.4-46.933c0-25.879,17.225-46.933,38.4-46.933c21.175,0,38.4,21.054,38.4,46.933
			C452.267,362.946,435.042,384,413.867,384z M413.867,307.2c-11.563,0-21.333,13.679-21.333,29.867
			c0,16.188,9.771,29.867,21.333,29.867c11.563,0,21.333-13.679,21.333-29.867C435.2,320.879,425.429,307.2,413.867,307.2z"/>
	</g>
	<path style="fill:#FFA800;" d="M358.4,366.933c0,56.554-45.846,102.4-102.4,102.4s-102.4-45.846-102.4-102.4H358.4z"/>
	<path style="fill:#FEDD0A;" d="M332.8,366.933c0,56.554-40.115,102.4-89.6,102.4s-89.6-45.846-89.6-102.4H332.8z"/>
	<g>
		<path d="M256,477.867c-61.239-0.068-110.866-49.695-110.933-110.933V358.4h221.867v8.533
			C366.866,428.172,317.239,477.799,256,477.867z M162.517,375.467C166.932,423.801,207.464,460.8,256,460.8
			s89.068-36.999,93.483-85.333H162.517z"/>
		<path d="M315.733,366.933h-17.067c0-13.875-19.537-25.6-42.667-25.6s-42.667,11.725-42.667,25.6h-17.067
			c0-23.925,26.238-42.667,59.733-42.667S315.733,343.008,315.733,366.933z"/>
		<path d="M179.209,290.133c-3.236,0.004-6.195-1.822-7.642-4.717L154.5,251.283c-1.375-2.729-1.187-5.984,0.494-8.536
			c1.681-2.552,4.598-4.01,7.647-3.824c3.05,0.186,5.767,1.989,7.125,4.726l17.067,34.133c1.323,2.644,1.182,5.784-0.371,8.3
			C184.91,288.599,182.165,290.131,179.209,290.133L179.209,290.133z"/>
		<path d="M332.792,290.133c-2.956-0.002-5.701-1.534-7.254-4.05c-1.553-2.516-1.693-5.656-0.371-8.3l17.067-34.133
			c1.358-2.737,4.075-4.54,7.125-4.726c3.05-0.186,5.967,1.272,7.647,3.824c1.681,2.552,1.869,5.807,0.494,8.536l-17.067,34.133
			C338.987,288.311,336.027,290.138,332.792,290.133z"/>
		<path d="M119.471,170.671c-3.519,0-6.677-2.159-7.954-5.438c-12.525-32.092-33.979-29.542-40.275-28.008
			c-4.577,1.125-9.2-1.673-10.325-6.25c-1.125-4.577,1.673-9.2,6.25-10.325c19.058-4.663,46.275,2.554,60.25,38.383
			c1.02,2.626,0.681,5.585-0.908,7.912S122.288,170.665,119.471,170.671L119.471,170.671z"/>
		<path d="M392.529,170.671c-2.817-0.006-5.45-1.4-7.038-3.726c-1.588-2.326-1.928-5.286-0.908-7.912
			c13.979-35.825,41.192-43.058,60.25-38.383c4.577,1.125,7.375,5.748,6.25,10.325c-1.125,4.577-5.748,7.375-10.325,6.25
			c-6.271-1.538-27.75-4.092-40.275,28.008C399.205,168.511,396.047,170.669,392.529,170.671L392.529,170.671z"/>
	</g>
</g>
<g>
</g>
<g>
</g>
<g>
</g>
<g>
</g>
<g>
</g>
<g>
</g>
<g>
</g>
<g>
</g>
<g>
</g>
<g>
</g>
<g>
</g>
<g>
</g>
<g>
</g>
<g>
</g>
<g>
</g>
</svg>
