<?xml version="1.0" encoding="iso-8859-1"?>
<!-- Generator: Adobe Illustrator 19.0.0, SVG Export Plug-In . SVG Version: 6.00 Build 0)  -->
<svg version="1.1" id="Capa_1" xmlns="http://www.w3.org/2000/svg" xmlns:xlink="http://www.w3.org/1999/xlink" x="0px" y="0px"
	 viewBox="0 0 512 512" style="enable-background:new 0 0 512 512;" xml:space="preserve">
<g transform="translate(-1)">
	<path style="fill:#FFA800;" d="M453.301,196.523v91.307c0.016,4.517-0.347,9.027-1.085,13.483
		c-3.223,18.446-12.683,35.225-26.797,47.531l-63.11,56.661c-4.553,4.165-9.408,7.987-14.525,11.435
		c-2.421,1.792-4.925,3.328-7.43,4.949H182.248c-2.505-1.621-5.009-3.157-7.43-4.949c-5.118-3.447-9.973-7.27-14.525-11.435
		l-63.11-56.661c-14.114-12.306-23.573-29.085-26.797-47.531c-0.738-4.456-1.101-8.966-1.085-13.483v-91.307
		c0-99.072,74.713-179.456,166.957-179.456h50.087C378.588,17.067,453.301,97.451,453.301,196.523z"/>
	<path style="fill:#FFFFFF;" d="M194.229,408.405c2.475,1.792,5.035,3.328,7.595,4.949h-25.6c-2.56-1.621-5.12-3.157-7.595-4.949
		c-5.224-3.441-10.186-7.263-14.848-11.435l-64.512-56.661c-14.361-12.192-24.044-28.992-27.392-47.531
		c-0.754-4.454-1.125-8.965-1.109-13.483v-91.307c0-99.072,76.373-179.456,170.667-179.456h25.6
		c-94.293,0-170.667,80.384-170.667,179.456v91.307c-0.016,4.518,0.355,9.028,1.109,13.483
		c3.348,18.539,13.031,35.339,27.392,47.531l64.512,56.661C184.043,401.142,189.006,404.964,194.229,408.405z"/>
	<path style="fill:#FEDD0A;" d="M427.701,187.989v91.307c0.016,4.518-0.355,9.028-1.109,13.483
		c-3.348,18.539-13.03,35.339-27.392,47.531l-64.512,56.661c-4.662,4.171-9.624,7.993-14.848,11.435
		c-2.475,1.792-5.035,3.328-7.595,4.949H201.824c-2.56-1.621-5.12-3.157-7.595-4.949c-5.224-3.441-10.186-7.263-14.848-11.435
		l-64.512-56.661c-14.361-12.192-24.044-28.992-27.392-47.531c-0.754-4.454-1.125-8.965-1.109-13.483v-91.307
		c0-99.072,76.373-179.456,170.667-179.456S427.701,88.917,427.701,187.989z"/>
	<path style="fill:#FFA800;" d="M350.901,443.733H163.168l15.531-101.035c0.947-6.866,4.722-13.023,10.411-16.981
		c16.595-10.473,35.544-16.633,55.125-17.92c4.254-0.416,8.526-0.615,12.8-0.597c23.93-0.533,47.499,5.901,67.84,18.517
		c5.755,3.909,9.573,10.085,10.496,16.981L350.901,443.733z"/>
	<path style="fill:#FEDD0A;" d="M325.301,443.733H163.168l15.531-101.035c0.947-6.866,4.722-13.023,10.411-16.981
		c16.595-10.473,35.544-16.633,55.125-17.92c19.557,1.272,38.482,7.434,55.04,17.92c5.755,3.909,9.573,10.085,10.496,16.981
		L325.301,443.733z"/>
	<g>
		<path d="M176.214,421.888c-1.614,0-3.195-0.46-4.558-1.325l-1.604-1.008c-2.171-1.358-4.325-2.717-6.425-4.238
			c-5.459-3.606-10.646-7.607-15.521-11.971l-64.471-56.625c-15.849-13.518-26.518-32.115-30.188-52.621
			c-0.822-4.891-1.228-9.844-1.213-14.804v-40.367c0-4.713,3.821-8.533,8.533-8.533s8.533,3.821,8.533,8.533v40.367
			c-0.015,4.03,0.314,8.055,0.983,12.029c3.033,16.622,11.741,31.675,24.638,42.592l64.492,56.642
			c4.361,3.906,9.004,7.485,13.892,10.708c2.121,1.521,3.958,2.667,5.808,3.825l1.675,1.054c3.209,2.033,4.687,5.942,3.627,9.59
			C183.356,419.383,180.012,421.891,176.214,421.888L176.214,421.888z"/>
		<path d="M337.855,421.888c-3.799,0.004-7.142-2.504-8.202-6.152c-1.06-3.648,0.419-7.557,3.627-9.59l1.675-1.054
			c1.85-1.158,3.688-2.304,5.479-3.6c4.988-3.278,9.727-6.92,14.179-10.896l64.554-56.7c12.857-10.878,21.548-25.874,24.596-42.437
			c0.682-4.018,1.017-8.087,1.004-12.162v-91.308c0-94.246-72.733-170.921-162.133-170.921h-51.2
			c-83.983,0-153.363,66.367-161.383,154.371c-0.27,3.043-2.145,5.709-4.917,6.992c-2.772,1.283-6.018,0.987-8.513-0.776
			c-2.494-1.763-3.856-4.725-3.571-7.766C61.885,73.037,138.572,0,231.435,0h51.2c98.813,0,179.2,84.329,179.2,187.988v91.308
			c0.013,5.005-0.399,10.002-1.233,14.938c-3.684,20.447-14.336,38.987-30.146,52.467l-64.538,56.683
			c-4.963,4.435-10.245,8.498-15.804,12.158c-1.771,1.296-3.925,2.654-6.096,4.012l-1.604,1.008
			C341.051,421.428,339.47,421.887,337.855,421.888z"/>
		<path d="M60.768,213.333c-3.472,0.014-6.609-2.068-7.944-5.273c-1.335-3.205-0.604-6.898,1.851-9.353
			c2.455-2.455,6.148-3.186,9.353-1.851c3.205,1.335,5.287,4.472,5.273,7.944c-0.018,2.262-0.904,4.431-2.475,6.059
			c-0.405,0.366-0.833,0.707-1.279,1.021c-0.476,0.324-0.993,0.583-1.538,0.771c-0.485,0.245-1.003,0.418-1.538,0.513
			C61.909,213.261,61.339,213.318,60.768,213.333L60.768,213.333z"/>
	</g>
	<g>
		<path style="fill:#FFA800;" d="M221.451,203.264c1.769,6.376-0.136,13.208-4.949,17.749c-3.454,2.894-7.38,5.175-11.605,6.741
			c-14.667,6.097-30.029,10.367-45.739,12.715c-8.369,1.478-16.914,1.68-25.344,0.597c-8.466-1.081-16.363-4.85-22.528-10.752
			c-7.055-7.27-10.114-17.527-8.193-27.474c1.921-9.946,8.58-18.327,17.835-22.446c9.231-3.481,19.325-3.958,28.843-1.365
			c12.515,3.278,24.645,7.884,36.181,13.739c10.769,6.4,22.979,9.981,35.499,10.411"/>
		<path style="fill:#FFA800;" d="M292.618,203.264c-1.769,6.376,0.136,13.208,4.949,17.749c3.454,2.894,7.38,5.175,11.605,6.741
			c14.667,6.097,30.029,10.367,45.739,12.715c8.369,1.478,16.914,1.68,25.344,0.597c8.466-1.081,16.363-4.85,22.528-10.752
			c7.055-7.27,10.114-17.527,8.193-27.474c-1.921-9.946-8.58-18.327-17.835-22.446c-9.231-3.481-19.324-3.958-28.843-1.365
			c-12.515,3.278-24.645,7.884-36.181,13.739c-10.769,6.4-22.979,9.981-35.499,10.411"/>
	</g>
	<g>
		<path d="M143.309,250.321c-3.602,0.014-7.2-0.248-10.762-0.783c-10.311-1.357-19.904-6.019-27.342-13.288
			c-8.99-9.256-12.895-22.319-10.459-34.99c2.436-12.672,10.906-23.355,22.688-28.618c10.904-4.347,22.929-5.02,34.25-1.917
			c12.368,3.192,24.369,7.665,35.808,13.346l5.975,2.742c8.573,5.092,18.354,7.792,28.325,7.821
			c3.092-0.381,5.882-2.044,7.688-4.583c2.414-5.001,2.721-10.762,0.85-15.991c-3.652-17.968-5.496-36.257-5.504-54.592
			c0-4.713,3.821-8.533,8.533-8.533s8.533,3.821,8.533,8.533c0.033,16.944,1.706,33.845,4.996,50.467
			c3.227,9.816,2.087,20.544-3.129,29.463c-3.176,4.819-7.821,8.485-13.246,10.454c-0.384,6.636-3.318,12.867-8.187,17.392
			c-4.189,3.604-8.982,6.439-14.158,8.375c-15.305,6.384-31.345,10.838-47.75,13.258
			C154.759,249.779,149.04,250.262,143.309,250.321L143.309,250.321z M136.251,185.954c-4.067-0.087-8.107,0.687-11.854,2.271
			c-6.694,2.988-11.507,9.057-12.892,16.255s0.834,14.62,5.942,19.878c4.856,4.594,11.059,7.508,17.696,8.313
			c7.578,0.891,15.247,0.662,22.758-0.679c15.004-2.208,29.674-6.279,43.671-12.117c3.32-1.203,6.417-2.947,9.167-5.163
			c0.984-0.898,1.738-2.018,2.2-3.267c-9.307-1.67-18.302-4.758-26.671-9.158l-5.846-2.683
			c-10.375-5.183-21.258-9.281-32.475-12.229C144.112,186.475,140.19,185.999,136.251,185.954L136.251,185.954z"/>
		<path d="M370.76,250.321c-5.731-0.059-11.449-0.542-17.108-1.446c-16.407-2.421-32.448-6.875-47.754-13.258
			c-5.172-1.936-9.963-4.77-14.15-8.371c-4.88-4.535-7.817-10.782-8.196-17.434c-5.424-1.95-10.07-5.604-13.242-10.417
			c-5.216-8.916-6.355-19.641-3.129-29.454c3.292-16.624,4.965-33.528,4.996-50.475c0-4.713,3.82-8.533,8.533-8.533
			s8.533,3.821,8.533,8.533c-0.009,18.338-1.853,36.629-5.504,54.6c-1.87,5.226-1.564,10.984,0.85,15.983
			c1.901,2.623,4.831,4.31,8.054,4.638l0.492,0.054c0.133,0.009,0.267,0.021,0.404,0.037c9.533-0.425,18.82-3.159,27.063-7.967
			l5.975-2.742c11.441-5.682,23.443-10.155,35.813-13.346c11.321-3.105,23.346-2.432,34.25,1.917
			c11.78,5.265,20.248,15.949,22.683,28.619c2.435,12.671-1.469,25.733-10.458,34.989c-7.439,7.269-17.034,11.931-27.346,13.288
			C377.957,250.073,374.361,250.335,370.76,250.321L370.76,250.321z M301.147,211.483c0.464,1.235,1.214,2.343,2.188,3.233
			c2.748,2.212,5.842,3.955,9.158,5.158c13.998,5.838,28.67,9.908,43.675,12.117c7.51,1.347,15.177,1.576,22.754,0.679
			c6.638-0.804,12.843-3.717,17.7-8.312c5.107-5.258,7.325-12.678,5.941-19.876c-1.384-7.198-6.195-13.267-12.887-16.257
			c-7.558-2.788-15.81-3.086-23.55-0.85c-11.218,2.948-22.102,7.046-32.479,12.229l-5.846,2.683
			C319.432,206.683,310.445,209.783,301.147,211.483L301.147,211.483z"/>
		<path d="M197.297,162.138c-1.085-0.002-2.159-0.21-3.167-0.613c-17.958-8.499-33.715-21.021-46.05-36.596
			c-5.667-6.8-9.75-6.529-11.067-6.429c-7.138,0.488-15.083,9.658-17.808,14.021c-2.497,3.997-7.761,5.213-11.758,2.717
			c-3.997-2.497-5.213-7.761-2.717-11.758c1.329-2.129,13.492-20.804,31.121-22.008c10.017-0.354,19.54,4.357,25.338,12.533
			c10.54,13.383,23.969,24.21,39.283,31.671c3.799,1.521,5.985,5.524,5.21,9.542C204.907,159.236,201.39,162.139,197.297,162.138
			L197.297,162.138z"/>
		<path d="M316.772,162.138c-4.092,0.001-7.61-2.902-8.385-6.92c-0.775-4.018,1.411-8.021,5.21-9.542
			c15.279-7.516,28.697-18.334,39.283-31.671c5.797-8.177,15.32-12.888,25.338-12.533c17.629,1.204,29.792,19.879,31.121,22.008
			c2.483,3.993,1.268,9.242-2.716,11.737c-3.985,2.496-9.238,1.298-11.746-2.679c-2.212-3.487-10.225-13.542-17.846-14.037
			c-1.333-0.104-5.383-0.363-11.042,6.429c-12.335,15.574-28.092,28.097-46.05,36.596
			C318.932,161.927,317.857,162.135,316.772,162.138z"/>
	</g>
	<ellipse style="fill:#FFA800;" cx="257.035" cy="443.733" rx="93.867" ry="59.733"/>
	<ellipse style="fill:#FEDD0A;" cx="244.235" cy="443.733" rx="81.067" ry="59.733"/>
	<g>
		<path d="M257.035,512c-57.421,0-102.4-29.987-102.4-68.267s44.979-68.267,102.4-68.267s102.4,29.988,102.4,68.267
			S314.455,512,257.035,512z M257.035,392.533c-46.254,0-85.333,23.446-85.333,51.2c0,27.754,39.079,51.2,85.333,51.2
			s85.333-23.446,85.333-51.2C342.368,415.979,303.289,392.533,257.035,392.533z"/>
		<path d="M350.889,452.267c-4.208-0.005-7.783-3.078-8.421-7.237l-15.521-101.058c-0.593-4.512-3.044-8.571-6.763-11.196
			c-18.995-11.584-40.906-17.497-63.15-17.042c-22.246-0.455-44.159,5.461-63.154,17.05c-3.721,2.623-6.174,6.682-6.767,11.196
			l-15.512,101.05c-0.723,4.651-5.075,7.838-9.727,7.124c-4.652-0.715-7.847-5.062-7.14-9.715l15.512-101.054
			c1.321-9.249,6.462-17.52,14.171-22.799c21.761-13.542,46.992-20.462,72.617-19.917c25.62-0.544,50.847,6.372,72.608,19.904
			c7.708,5.282,12.848,13.554,14.171,22.804l15.521,101.063c0.345,2.237-0.214,4.519-1.553,6.344
			c-1.339,1.825-3.348,3.043-5.585,3.386C351.764,452.233,351.327,452.266,350.889,452.267z"/>
		<path d="M166.447,307.2h-57.408c-11.321,0.031-22.184-4.469-30.167-12.496l-24.137-24.138c-3.281-3.341-3.256-8.701,0.054-12.012
			c3.311-3.311,8.671-3.335,12.012-0.054l24.137,24.137c4.813,4.782,11.316,7.475,18.1,7.496h57.408
			c3.08,0.012,6.147-0.403,9.113-1.233c7.834-2.229,33.817-10.771,39.246-27.067c6.034-18.338,22.931-30.915,42.229-31.433
			c4.713-0.015,8.545,3.793,8.56,8.506c0.015,4.713-3.793,8.545-8.506,8.56c-11.967,0.507-22.364,8.384-26.092,19.767
			c-7.571,22.717-35.054,33.613-50.763,38.083C175.748,306.579,171.108,307.213,166.447,307.2z"/>
		<path d="M405.03,307.2h-57.408c-4.661,0.013-9.301-0.621-13.787-1.883c-15.708-4.471-43.192-15.367-50.762-38.083
			c-3.728-11.386-14.13-19.264-26.1-19.767c-4.713-0.017-8.519-3.852-8.502-8.565s3.852-8.519,8.565-8.502
			c19.299,0.518,36.195,13.095,42.229,31.433c5.429,16.296,31.412,24.837,39.246,27.067c2.966,0.83,6.033,1.245,9.112,1.233h57.408
			c6.784-0.02,13.288-2.714,18.1-7.496l24.138-24.137c3.341-3.281,8.701-3.256,12.012,0.054c3.311,3.311,3.335,8.671,0.054,12.012
			l-24.137,24.137C427.214,302.731,416.351,307.231,405.03,307.2z"/>
		<path d="M239.968,477.867c-4.713,0-8.533-3.821-8.533-8.533v-51.2c0-4.713,3.821-8.533,8.533-8.533
			c4.713,0,8.533,3.82,8.533,8.533v51.2C248.501,474.046,244.681,477.867,239.968,477.867z"/>
		<path d="M274.101,477.867c-4.713,0-8.533-3.821-8.533-8.533v-51.2c0-4.713,3.82-8.533,8.533-8.533s8.533,3.82,8.533,8.533v51.2
			C282.635,474.046,278.814,477.867,274.101,477.867z"/>
		<path d="M308.234,460.8c-4.713,0-8.533-3.82-8.533-8.533V435.2c0-4.713,3.821-8.533,8.533-8.533c4.713,0,8.533,3.82,8.533,8.533
			v17.067C316.768,456.98,312.947,460.8,308.234,460.8z"/>
		<path d="M205.835,460.8c-4.713,0-8.533-3.82-8.533-8.533V435.2c0-4.713,3.82-8.533,8.533-8.533s8.533,3.82,8.533,8.533v17.067
			C214.368,456.98,210.547,460.8,205.835,460.8z"/>
	</g>
</g>
<g>
</g>
<g>
</g>
<g>
</g>
<g>
</g>
<g>
</g>
<g>
</g>
<g>
</g>
<g>
</g>
<g>
</g>
<g>
</g>
<g>
</g>
<g>
</g>
<g>
</g>
<g>
</g>
<g>
</g>
</svg>
