<?xml version="1.0" encoding="iso-8859-1"?>
<!-- Generator: Adobe Illustrator 19.0.0, SVG Export Plug-In . SVG Version: 6.00 Build 0)  -->
<svg version="1.1" id="Capa_1" xmlns="http://www.w3.org/2000/svg" xmlns:xlink="http://www.w3.org/1999/xlink" x="0px" y="0px"
	 viewBox="0 0 512 512" style="enable-background:new 0 0 512 512;" xml:space="preserve">
<g>
	<g>
		<path style="fill:#FFA800;" d="M477.964,264.533h-0.083c0.243,3.698-0.353,7.402-1.743,10.837l-19.681,50.005
			c-0.816,2.156-1.965,4.172-3.404,5.973v16.213c0.107,23.412-10.025,45.7-27.734,61.013l-1.162,1.024l-18.849,17.067
			l-42.764,38.571c-27.029,24.549-62.217,38.174-98.73,38.229h-3.488c-3.571,0-6.975-0.171-10.462-0.427h-0.581
			c-32.618-2.505-63.472-15.806-87.687-37.803l-42.764-38.571L99.981,409.6l-1.162-1.024
			c-17.709-15.313-27.841-37.602-27.734-61.013v-16.213c-1.439-1.802-2.588-3.817-3.404-5.973L48,275.371
			c-1.39-3.435-1.986-7.14-1.744-10.837h-0.083c0,0-17.936-85.931,27.319-106.752C86.695,73.045,154.951,8.533,237.158,8.533h49.822
			c82.207,0,150.462,64.512,163.665,149.248C495.899,178.603,477.964,264.533,477.964,264.533z"/>
		<path style="fill:#FEDD0A;" d="M453.717,264.533h-0.083c0.242,3.698-0.354,7.402-1.744,10.837l-19.68,50.005
			c-0.817,2.156-1.965,4.172-3.404,5.973v16.213c0.107,23.412-10.025,45.7-27.734,61.013l-1.163,1.024l-18.849,17.067
			l-42.764,38.571c-24.391,22.182-55.545,35.5-88.434,37.803h-0.581c-32.618-2.505-63.471-15.807-87.687-37.803l-42.764-38.571
			L99.981,409.6l-1.162-1.024c-17.709-15.313-27.841-37.602-27.734-61.013v-16.213c-1.439-1.802-2.588-3.817-3.404-5.973L48,275.371
			c-1.39-3.435-1.986-7.14-1.744-10.837h-0.083c0,0-17.936-85.931,27.319-106.752C86.695,73.045,154.951,8.533,237.158,8.533h25.575
			c82.206,0,150.462,64.512,163.665,149.248C471.653,178.603,453.717,264.533,453.717,264.533z"/>
		<path style="fill:#FFFFFF;" d="M269.056,503.04c-3.499,0.341-6.997,0.427-10.582,0.427h-3.584c-3.84,0-7.595-0.171-11.349-0.427
			c-33.356-2.437-65.001-15.712-90.112-37.803l-43.947-38.571L90.112,409.6l-1.195-1.024
			c-14.361-12.192-24.043-28.992-27.392-47.531c-0.754-4.454-1.125-8.965-1.109-13.483v-16.213c-1.474-1.794-2.655-3.81-3.499-5.973
			l-20.224-50.005c-1.427-3.425-2.04-7.135-1.792-10.837h-0.085c0,0-18.432-85.931,28.075-106.752
			C76.459,73.045,146.603,8.533,231.083,8.533H256c-84.48,0-154.624,64.512-168.192,149.248
			c-46.507,20.821-28.075,106.752-28.075,106.752h0.085c-0.248,3.702,0.365,7.412,1.792,10.837l20.224,50.005
			c0.843,2.163,2.024,4.18,3.499,5.973v16.213c-0.016,4.518,0.355,9.028,1.109,13.483c3.348,18.539,13.031,35.339,27.392,47.531
			l1.195,1.024l19.371,17.067l43.947,38.571c25.111,22.091,56.756,35.366,90.112,37.803H269.056z"/>
	</g>
	<g>
		<path style="fill:#FEDD0A;" d="M238.933,418.133v-17.067c0-9.426,7.641-17.067,17.067-17.067l0,0
			c9.426,0,17.067,7.641,17.067,17.067v17.067"/>
		<path style="fill:#FEDD0A;" d="M204.8,418.133v-17.067c0-9.426,7.641-17.067,17.067-17.067l0,0
			c9.426,0,17.067,7.641,17.067,17.067v17.067"/>
		<path style="fill:#FEDD0A;" d="M170.667,418.133v-25.6c0-9.426,7.641-17.067,17.067-17.067l0,0
			c9.426,0,17.067,7.641,17.067,17.067v25.6"/>
		<path style="fill:#FEDD0A;" d="M307.2,418.133v-25.6c0-9.426,7.641-17.067,17.067-17.067l0,0c9.426,0,17.067,7.641,17.067,17.067
			v25.6"/>
		<path style="fill:#FEDD0A;" d="M341.333,418.133v-17.067c0-9.426,7.641-17.067,17.067-17.067l0,0
			c9.426,0,17.067,7.641,17.067,17.067v17.067"/>
		<path style="fill:#FEDD0A;" d="M273.067,418.133v-17.067c0-9.426,7.641-17.067,17.067-17.067l0,0
			c9.426,0,17.067,7.641,17.067,17.067v17.067"/>
		<path style="fill:#FEDD0A;" d="M238.933,418.133V435.2c0,9.426,7.641,17.067,17.067,17.067l0,0
			c9.426,0,17.067-7.641,17.067-17.067v-17.067"/>
		<path style="fill:#FEDD0A;" d="M204.8,418.133V435.2c0,9.426,7.641,17.067,17.067,17.067l0,0c9.426,0,17.067-7.641,17.067-17.067
			v-17.067"/>
		<path style="fill:#FEDD0A;" d="M307.2,418.133V435.2c0,9.426,7.641,17.067,17.067,17.067l0,0c9.426,0,17.067-7.641,17.067-17.067
			v-17.067"/>
		<path style="fill:#FEDD0A;" d="M273.067,418.133V435.2c0,9.426,7.641,17.067,17.067,17.067l0,0
			c9.426,0,17.067-7.641,17.067-17.067v-17.067"/>
		<path style="fill:#FEDD0A;" d="M170.667,418.133V435.2c0,9.426,7.641,17.067,17.067,17.067l0,0
			c9.426,0,17.067-7.641,17.067-17.067v-17.067"/>
		<path style="fill:#FEDD0A;" d="M136.533,418.133v-17.067c0-9.426,7.641-17.067,17.067-17.067l0,0
			c9.426,0,17.067,7.641,17.067,17.067v17.067"/>
	</g>
	<g>
		<g>
			<path style="fill:#FFA800;" d="M211.968,298.581l-20.736,9.557c-2.403,1.137-4.618,2.633-6.571,4.437l-18.859,17.408
				c-7.86,7.305-18.197,11.361-28.928,11.349H79.957c-10.416-0.004-19.793-6.311-23.723-15.957l-20.224-50.005
				c-4.35-10.67-1.031-22.932,8.107-29.952l32.768-25.259c5.446-4.217,11.685-7.294,18.347-9.045
				c8.489-2.148,17.382-2.118,25.856,0.085l40.448,10.752c9.618,2.504,18.285,7.787,24.917,15.189l31.061,34.475
				c3.614,4.046,5.1,9.564,4.007,14.877C220.428,291.807,216.885,296.29,211.968,298.581z"/>
			<path style="fill:#FFA800;" d="M475.989,275.371l-20.224,50.005c-3.93,9.646-13.307,15.954-23.723,15.957h-56.917
				c-10.731,0.012-21.068-4.044-28.928-11.349l-18.859-17.408c-1.952-1.804-4.168-3.3-6.571-4.437l-20.736-9.557
				c-4.917-2.291-8.46-6.774-9.553-12.088c-1.093-5.314,0.393-10.831,4.007-14.877l31.061-34.475
				c6.632-7.402,15.299-12.685,24.917-15.189l40.448-10.752c0.085,0,0.171-0.085,0.256-0.085c15.26-3.933,31.481-0.595,43.947,9.045
				l32.768,25.259C477.021,252.439,480.339,264.7,475.989,275.371L475.989,275.371z"/>
		</g>
		<g>
			<path style="fill:#FEDD0A;" d="M186.368,298.581l-20.736,9.557c-2.403,1.137-4.618,2.633-6.571,4.437l-18.859,17.408
				c-7.86,7.305-18.197,11.361-28.928,11.349H79.957c-10.416-0.004-19.793-6.311-23.723-15.957l-20.224-50.005
				c-4.35-10.67-1.031-22.932,8.107-29.952l32.768-25.259c5.446-4.217,11.685-7.294,18.347-9.045c0.085,0,0.171,0.085,0.256,0.085
				l40.448,10.752c9.618,2.504,18.285,7.787,24.917,15.189l31.061,34.475c3.614,4.046,5.1,9.564,4.007,14.877
				C194.828,291.807,191.285,296.29,186.368,298.581z"/>
			<path style="fill:#FEDD0A;" d="M450.389,275.371l-20.224,50.005c-3.93,9.646-13.307,15.954-23.723,15.957h-31.317
				c-10.731,0.012-21.068-4.044-28.928-11.349l-18.859-17.408c-1.952-1.804-4.168-3.3-6.571-4.437l-20.736-9.557
				c-4.917-2.291-8.46-6.774-9.553-12.088c-1.093-5.314,0.393-10.831,4.007-14.877l31.061-34.475
				c6.632-7.402,15.299-12.685,24.917-15.189l40.448-10.752c0.085,0,0.171-0.085,0.256-0.085c6.661,1.752,12.901,4.828,18.347,9.045
				l32.768,25.259C451.421,252.439,454.739,264.7,450.389,275.371z"/>
		</g>
		<g>
			<path d="M257.792,512h-3.584c-39.415,0.009-77.485-14.335-107.096-40.35L82.6,414.988
				c-15.849-13.518-26.518-32.115-30.188-52.621c-0.822-4.892-1.228-9.844-1.213-14.804V331.35h17.067v16.212
				c-0.015,4.03,0.314,8.055,0.983,12.029c3.033,16.622,11.741,31.675,24.638,42.592l64.492,56.642
				c26.494,23.28,60.56,36.116,95.829,36.108h3.584c35.269,0.008,69.335-12.828,95.829-36.108l64.512-56.662
				c12.857-10.878,21.548-25.874,24.596-42.437c0.682-4.018,1.017-8.087,1.004-12.162V331.35H460.8v16.212
				c0.013,5.005-0.399,10.002-1.233,14.938c-3.684,20.447-14.336,38.987-30.146,52.467l-64.533,56.683
				C335.277,497.665,297.207,512.009,257.792,512z"/>
			<path d="M136.896,349.867H79.933c-13.889,0.031-26.394-8.406-31.566-21.296l-20.263-50.004
				c-5.725-14.212-1.322-30.496,10.783-39.888l32.8-25.296c14.656-11.239,33.68-15.083,51.55-10.417l40.479,10.704
				c11.202,2.954,21.296,9.118,29.042,17.733l31.058,34.496c5.442,6.042,7.692,14.309,6.062,22.276
				c-1.629,7.967-6.944,14.687-14.321,18.108l-20.738,9.596c-1.614,0.746-3.1,1.741-4.404,2.95l-18.859,17.45
				C162.135,345.023,149.751,349.877,136.896,349.867L136.896,349.867z M108.138,218.079c-9.41-0.007-18.558,3.094-26.025,8.821
				l-32.8,25.292c-6.056,4.703-8.257,12.854-5.391,19.967l20.262,50.004c2.578,6.435,8.818,10.649,15.75,10.638h56.962
				c8.557,0.006,16.799-3.226,23.071-9.046l18.859-17.45c2.615-2.422,5.594-4.417,8.829-5.912l20.738-9.6
				c2.458-1.146,4.226-3.389,4.767-6.047c0.541-2.657-0.211-5.413-2.025-7.428l0,0l-31.058-34.492
				c-5.526-6.148-12.728-10.546-20.721-12.654l-40.479-10.704C115.371,218.542,111.762,218.076,108.138,218.079z"/>
			<path d="M432.067,349.867h-56.962c-12.855,0.011-25.239-4.843-34.662-13.588l-18.859-17.45c-1.305-1.209-2.791-2.205-4.404-2.954
				l-20.738-9.591c-7.377-3.421-12.692-10.141-14.321-18.107c-1.629-7.967,0.621-16.234,6.062-22.276l31.058-34.492
				c7.745-8.619,17.841-14.784,29.046-17.737l40.471-10.704c17.872-4.661,36.894-0.817,51.554,10.417l32.8,25.292
				c12.105,9.393,16.508,25.679,10.783,39.892l-20.263,50.004C458.461,341.461,445.956,349.897,432.067,349.867L432.067,349.867z
				 M403.863,218.079c-3.625-0.003-7.236,0.463-10.742,1.388l-40.471,10.704c-7.995,2.107-15.2,6.507-20.725,12.658l-31.058,34.487
				l0,0c-1.814,2.015-2.566,4.771-2.025,7.428c0.541,2.657,2.309,4.901,4.767,6.047l20.738,9.596
				c3.234,1.498,6.214,3.495,8.829,5.917l18.859,17.45c6.272,5.82,14.514,9.052,23.07,9.046h56.962
				c6.932,0.011,13.171-4.203,15.75-10.637l20.262-50.004c2.865-7.114,0.664-15.265-5.392-19.971l-32.8-25.288
				C422.42,221.175,413.272,218.074,403.863,218.079L403.863,218.079z"/>
		</g>
	</g>
	<path style="fill:#FFA800;" d="M248.176,348.365c5.345-1.842,11.153-1.842,16.498,0c6.837,2.397,14.35,1.948,20.852-1.247
		c7.275-4.184,7.275-12.553,0-20.92c-4.91-5.714-10.463-10.842-16.549-15.283c-7.635-4.953-17.47-4.953-25.105,0
		c-6.086,4.44-11.639,9.569-16.548,15.283c-7.275,8.368-7.275,16.736,0,20.92C233.826,350.314,241.339,350.763,248.176,348.365z"/>
	<g>
		<path d="M273.808,358.4c-4.076,0.017-8.126-0.655-11.979-1.988c-3.502-1.204-7.306-1.204-10.808,0
			c-9.182,3.237-19.291,2.55-27.95-1.9c-4.996-2.712-8.485-7.552-9.479-13.15c-0.802-7.665,1.875-15.285,7.296-20.763
			c5.314-6.206,11.337-11.767,17.946-16.571c10.653-7.103,24.532-7.101,35.183,0.004c6.685,4.865,12.772,10.501,18.138,16.792
			c5.316,5.443,7.92,12.978,7.1,20.542c-0.993,5.595-4.481,10.434-9.475,13.146C284.876,357.155,279.377,358.494,273.808,358.4
			L273.808,358.4z M256.425,315.721c-2.657-0.087-5.278,0.639-7.512,2.079c-5.492,4.009-10.51,8.629-14.958,13.771
			c-3.15,3.633-3.683,6.063-3.533,6.963c0.025,0.142,0.096,0.575,1.154,1.183c4.336,1.963,9.262,2.179,13.754,0.604l0,0
			c7.187-2.492,15.004-2.492,22.192,0c4.492,1.564,9.412,1.349,13.75-0.6c1.058-0.608,1.129-1.042,1.154-1.188
			c0.15-0.9-0.383-3.333-3.337-6.733c-4.498-5.229-9.581-9.925-15.15-13.996C261.704,316.361,259.083,315.634,256.425,315.721
			L256.425,315.721z"/>
		<path d="M281.6,213.333c-18.842-0.022-34.112-15.291-34.133-34.133v-34.133c-0.009-1.721-0.6-42.667-34.133-42.667
			c-4.713,0-8.533-3.821-8.533-8.533c0-4.713,3.821-8.533,8.533-8.533c40.5,0,51.2,39.071,51.2,59.733V179.2
			c0.009,9.422,7.645,17.057,17.067,17.067c4.713,0,8.533,3.821,8.533,8.533C290.133,209.513,286.313,213.333,281.6,213.333z"/>
		<path d="M230.4,213.333c-4.713,0-8.533-3.821-8.533-8.533c0-4.713,3.82-8.533,8.533-8.533c9.422-0.009,17.057-7.645,17.067-17.067
			v-34.133c0-20.663,10.7-59.733,51.2-59.733c4.713,0,8.533,3.821,8.533,8.533c0,4.713-3.821,8.533-8.533,8.533
			c-33.746,0-34.133,40.925-34.133,42.667V179.2C264.512,198.042,249.243,213.312,230.4,213.333z"/>
		<path d="M273.067,426.667c-4.713,0-8.533-3.82-8.533-8.533v-17.067c0-4.713-3.82-8.533-8.533-8.533s-8.533,3.82-8.533,8.533
			v17.067c0,4.713-3.821,8.533-8.533,8.533c-4.713,0-8.533-3.82-8.533-8.533v-17.067c0-14.138,11.462-25.6,25.6-25.6
			c14.138,0,25.6,11.462,25.6,25.6v17.067C281.6,422.846,277.78,426.667,273.067,426.667z"/>
		<path d="M238.933,426.667c-4.713,0-8.533-3.82-8.533-8.533v-17.067c0-4.713-3.821-8.533-8.533-8.533
			c-4.713,0-8.533,3.82-8.533,8.533v17.067c0,4.713-3.821,8.533-8.533,8.533c-4.713,0-8.533-3.82-8.533-8.533v-17.067
			c0-14.138,11.462-25.6,25.6-25.6c14.138,0,25.6,11.462,25.6,25.6v17.067C247.467,422.846,243.646,426.667,238.933,426.667z"/>
		<path d="M204.8,426.667c-4.713,0-8.533-3.82-8.533-8.533v-25.6c0-4.713-3.821-8.533-8.533-8.533c-4.713,0-8.533,3.82-8.533,8.533
			v25.6c0,4.713-3.821,8.533-8.533,8.533s-8.533-3.82-8.533-8.533v-25.6c0-14.138,11.462-25.6,25.6-25.6
			c14.139,0,25.6,11.462,25.6,25.6v25.6C213.333,422.846,209.513,426.667,204.8,426.667z"/>
		<path d="M341.333,426.667c-4.713,0-8.533-3.82-8.533-8.533v-25.6c0-4.713-3.82-8.533-8.533-8.533s-8.533,3.82-8.533,8.533v25.6
			c0,4.713-3.821,8.533-8.533,8.533c-4.713,0-8.533-3.82-8.533-8.533v-25.6c0-14.138,11.462-25.6,25.6-25.6
			c14.138,0,25.6,11.462,25.6,25.6v25.6C349.867,422.846,346.046,426.667,341.333,426.667z"/>
		<path d="M375.467,426.667c-4.713,0-8.533-3.82-8.533-8.533v-17.067c0-4.713-3.821-8.533-8.533-8.533s-8.533,3.82-8.533,8.533
			v17.067c0,4.713-3.82,8.533-8.533,8.533s-8.533-3.82-8.533-8.533v-17.067c0-14.138,11.462-25.6,25.6-25.6
			c14.138,0,25.6,11.462,25.6,25.6v17.067C384,422.846,380.18,426.667,375.467,426.667z"/>
		<path d="M307.2,426.667c-4.713,0-8.533-3.82-8.533-8.533v-17.067c0-4.713-3.82-8.533-8.533-8.533s-8.533,3.82-8.533,8.533v17.067
			c0,4.713-3.821,8.533-8.533,8.533c-4.713,0-8.533-3.82-8.533-8.533v-17.067c0-14.138,11.462-25.6,25.6-25.6s25.6,11.462,25.6,25.6
			v17.067C315.733,422.846,311.913,426.667,307.2,426.667z"/>
		<path d="M256,460.8c-14.132-0.015-25.585-11.468-25.6-25.6v-17.067c0-4.713,3.821-8.533,8.533-8.533
			c4.713,0,8.533,3.82,8.533,8.533V435.2c0,4.713,3.821,8.533,8.533,8.533s8.533-3.821,8.533-8.533v-17.067
			c0-4.713,3.821-8.533,8.533-8.533c4.713,0,8.533,3.82,8.533,8.533V435.2C281.585,449.332,270.132,460.785,256,460.8L256,460.8z"/>
		<path d="M221.867,460.8c-14.132-0.015-25.585-11.468-25.6-25.6v-17.067c0-4.713,3.821-8.533,8.533-8.533
			c4.713,0,8.533,3.82,8.533,8.533V435.2c0,4.713,3.821,8.533,8.533,8.533c4.713,0,8.533-3.821,8.533-8.533v-17.067
			c0-4.713,3.821-8.533,8.533-8.533c4.713,0,8.533,3.82,8.533,8.533V435.2C247.451,449.332,235.999,460.785,221.867,460.8z"/>
		<path d="M324.267,460.8c-14.132-0.015-25.585-11.468-25.6-25.6v-17.067c0-4.713,3.821-8.533,8.533-8.533
			c4.713,0,8.533,3.82,8.533,8.533V435.2c0,4.713,3.82,8.533,8.533,8.533s8.533-3.821,8.533-8.533v-17.067
			c0-4.713,3.821-8.533,8.533-8.533s8.533,3.82,8.533,8.533V435.2C349.851,449.332,338.399,460.785,324.267,460.8z"/>
		<path d="M290.133,460.8c-14.132-0.015-25.585-11.468-25.6-25.6v-17.067c0-4.713,3.821-8.533,8.533-8.533
			c4.713,0,8.533,3.82,8.533,8.533V435.2c0,4.713,3.82,8.533,8.533,8.533s8.533-3.821,8.533-8.533v-17.067
			c0-4.713,3.821-8.533,8.533-8.533c4.713,0,8.533,3.82,8.533,8.533V435.2C315.718,449.332,304.266,460.785,290.133,460.8z"/>
		<path d="M187.733,460.8c-14.132-0.015-25.585-11.468-25.6-25.6v-17.067c0-4.713,3.82-8.533,8.533-8.533s8.533,3.82,8.533,8.533
			V435.2c0,4.713,3.821,8.533,8.533,8.533c4.713,0,8.533-3.821,8.533-8.533v-17.067c0-4.713,3.821-8.533,8.533-8.533
			c4.713,0,8.533,3.82,8.533,8.533V435.2C213.318,449.332,201.866,460.785,187.733,460.8z"/>
		<path d="M170.667,426.667c-4.713,0-8.533-3.82-8.533-8.533v-17.067c0-4.713-3.821-8.533-8.533-8.533s-8.533,3.82-8.533,8.533
			v17.067c0,4.713-3.82,8.533-8.533,8.533s-8.533-3.82-8.533-8.533v-17.067c0-14.138,11.462-25.6,25.6-25.6s25.6,11.462,25.6,25.6
			v17.067C179.2,422.846,175.38,426.667,170.667,426.667z"/>
		<path d="M409.6,426.667H102.4c-4.713,0-8.533-3.82-8.533-8.533s3.821-8.533,8.533-8.533h307.2c4.713,0,8.533,3.82,8.533,8.533
			S414.313,426.667,409.6,426.667z"/>
		<path d="M449.779,166.317c-4.187-0.006-7.751-3.049-8.413-7.183C428.188,76.812,360.996,17.067,281.6,17.067h-51.2
			c-46.59,0.294-90.7,21.037-120.642,56.733c-3.067,3.544-8.418,3.951-11.986,0.912c-3.568-3.039-4.017-8.387-1.006-11.979
			C129.949,23.227,178.809,0.29,230.4,0h51.2c87.825,0,162.104,65.792,176.617,156.433c0.358,2.235-0.186,4.52-1.513,6.353
			c-1.327,1.833-3.328,3.064-5.562,3.422C450.691,166.281,450.236,166.317,449.779,166.317z"/>
		<path d="M62.221,166.317c-0.456,0.001-0.912-0.035-1.363-0.108c-2.235-0.358-4.236-1.589-5.562-3.422
			c-1.327-1.833-1.871-4.119-1.513-6.353c1.694-10.577,4.258-20.995,7.667-31.15c1.536-4.421,6.346-6.781,10.782-5.288
			c4.436,1.492,6.842,6.279,5.393,10.73c-3.11,9.261-5.448,18.762-6.992,28.408C69.972,163.268,66.408,166.311,62.221,166.317
			L62.221,166.317z"/>
		<path d="M83.625,104.958c-3.45-0.014-6.556-2.096-7.879-5.282s-0.606-6.856,1.82-9.31c2.051-2.002,4.956-2.864,7.767-2.304
			c0.534,0.091,1.052,0.264,1.533,0.513c0.524,0.169,1.015,0.428,1.45,0.767c0.49,0.293,0.948,0.637,1.367,1.025
			c1.573,1.627,2.459,3.796,2.475,6.059c-0.031,2.259-0.915,4.423-2.475,6.059c-0.425,0.341-0.854,0.683-1.367,1.025
			c-0.435,0.338-0.926,0.598-1.45,0.767c-0.482,0.248-0.999,0.421-1.533,0.512C84.769,104.887,84.198,104.945,83.625,104.958z"/>
		<path d="M85.333,256c-0.573-0.015-1.144-0.072-1.708-0.171c-0.535-0.095-1.053-0.268-1.538-0.512
			c-0.543-0.188-1.058-0.448-1.533-0.771c-0.429-0.338-0.854-0.679-1.279-1.021c-0.772-0.816-1.382-1.772-1.796-2.817
			c-0.436-1.026-0.667-2.127-0.679-3.242c0.031-2.259,0.915-4.423,2.475-6.059c2.472-2.385,6.118-3.089,9.3-1.796
			c1.045,0.414,2.001,1.024,2.817,1.796c1.558,1.636,2.441,3.8,2.475,6.059c-0.014,1.115-0.246,2.216-0.683,3.242
			c-0.777,2.143-2.465,3.831-4.608,4.608C87.563,255.795,86.453,256.029,85.333,256L85.333,256z"/>
		<path d="M102.4,281.6c-2.27,0.022-4.453-0.87-6.058-2.475c-1.605-1.605-2.497-3.788-2.475-6.058
			c0.012-1.116,0.243-2.219,0.679-3.246c0.413-1.044,1.023-1.999,1.796-2.813c0.425-0.341,0.85-0.683,1.279-1.025
			c0.475-0.323,0.991-0.582,1.533-0.771c0.484-0.245,1.003-0.417,1.538-0.508c1.663-0.348,3.393-0.171,4.95,0.508
			c1.045,0.414,2.001,1.023,2.817,1.796c2.072,1.994,2.981,4.909,2.41,7.727c-0.571,2.818-2.542,5.15-5.227,6.181
			C104.617,281.354,103.515,281.586,102.4,281.6L102.4,281.6z"/>
		<path d="M68.267,281.6c-2.27,0.022-4.453-0.87-6.058-2.475s-2.497-3.788-2.475-6.058c0.012-1.116,0.243-2.219,0.679-3.246
			c0.413-1.044,1.023-1.999,1.795-2.813c0.425-0.341,0.85-0.683,1.279-1.025c0.475-0.323,0.991-0.582,1.533-0.771
			c0.484-0.245,1.003-0.417,1.538-0.508c1.663-0.348,3.393-0.171,4.95,0.508c1.045,0.414,2.001,1.023,2.817,1.796
			c2.072,1.994,2.981,4.909,2.41,7.727s-2.542,5.15-5.227,6.181C70.483,281.354,69.382,281.586,68.267,281.6z"/>
		<path d="M119.467,256c-2.259-0.033-4.422-0.917-6.059-2.475c-0.772-0.816-1.382-1.772-1.796-2.817
			c-0.436-1.026-0.667-2.127-0.679-3.242c0.031-2.259,0.915-4.423,2.475-6.059c0.814-0.773,1.769-1.383,2.813-1.796
			c2.079-0.85,4.409-0.85,6.487,0c1.045,0.414,2.001,1.024,2.817,1.796c1.558,1.636,2.441,3.8,2.475,6.059
			c0.029,1.119-0.205,2.229-0.683,3.242c-0.434,1.033-1.04,1.986-1.792,2.817C123.888,255.082,121.725,255.966,119.467,256
			L119.467,256z"/>
		<path d="M153.6,256c-1.121,0.03-2.232-0.204-3.246-0.683c-1.032-0.434-1.983-1.04-2.813-1.792
			c-0.772-0.816-1.382-1.772-1.796-2.817c-0.436-1.026-0.667-2.127-0.679-3.241c0.031-2.259,0.915-4.423,2.475-6.059
			c3.397-3.221,8.72-3.221,12.117,0c1.558,1.636,2.442,3.8,2.475,6.059c-0.014,1.115-0.246,2.216-0.683,3.242
			c-0.414,1.044-1.022,1.999-1.792,2.817c-0.429,0.341-0.854,0.683-1.279,1.021c-0.476,0.324-0.993,0.583-1.538,0.771
			c-0.485,0.245-1.003,0.418-1.538,0.513C154.74,255.923,154.171,255.98,153.6,256L153.6,256z"/>
		<path d="M136.533,281.6c-2.27,0.022-4.453-0.87-6.058-2.475s-2.497-3.788-2.475-6.058c0.012-1.116,0.243-2.219,0.679-3.246
			c0.413-1.044,1.023-1.999,1.796-2.813c2.471-2.387,6.118-3.091,9.3-1.796c1.045,0.414,2.001,1.024,2.817,1.796
			c2.072,1.994,2.981,4.909,2.41,7.727s-2.542,5.15-5.227,6.181C138.75,281.354,137.648,281.586,136.533,281.6L136.533,281.6z"/>
		<path d="M170.667,281.6c-0.573-0.015-1.144-0.072-1.708-0.171c-0.535-0.095-1.053-0.268-1.538-0.513
			c-0.543-0.188-1.058-0.448-1.533-0.771c-0.448-0.312-0.876-0.653-1.279-1.021c-3.3-3.365-3.3-8.752,0-12.117
			c0.425-0.341,0.85-0.683,1.279-1.025c0.475-0.323,0.991-0.582,1.533-0.771c0.484-0.246,1.003-0.417,1.538-0.509
			c1.663-0.348,3.393-0.171,4.95,0.508c1.045,0.414,2.001,1.023,2.817,1.796c2.072,1.994,2.981,4.909,2.41,7.727
			s-2.542,5.15-5.227,6.181C172.883,281.354,171.782,281.586,170.667,281.6L170.667,281.6z"/>
		<path d="M392.533,256c-1.121,0.03-2.232-0.204-3.246-0.683c-1.032-0.434-1.983-1.04-2.813-1.792
			c-0.772-0.816-1.382-1.772-1.796-2.817c-0.436-1.026-0.667-2.127-0.679-3.241c0.031-2.259,0.915-4.423,2.475-6.059
			c3.397-3.221,8.72-3.221,12.117,0c1.558,1.636,2.442,3.8,2.475,6.059c-0.014,1.115-0.246,2.216-0.683,3.242
			c-0.414,1.044-1.022,1.999-1.792,2.817c-0.429,0.341-0.854,0.683-1.279,1.021c-0.476,0.324-0.993,0.583-1.538,0.771
			c-0.485,0.245-1.003,0.418-1.538,0.513C393.674,255.927,393.105,255.984,392.533,256L392.533,256z"/>
		<path d="M409.6,281.6c-1.116-0.013-2.219-0.245-3.246-0.683c-1.043-0.413-1.997-1.022-2.813-1.792
			c-1.559-1.636-2.442-3.799-2.475-6.058c0.012-1.116,0.243-2.219,0.679-3.246c0.784-2.139,2.469-3.824,4.608-4.608
			c1.557-0.679,3.287-0.857,4.95-0.508c0.535,0.091,1.053,0.263,1.538,0.508c0.544,0.187,1.062,0.447,1.538,0.771
			c0.425,0.341,0.85,0.683,1.279,1.025c0.771,0.815,1.379,1.77,1.792,2.813c0.438,1.027,0.67,2.129,0.683,3.245
			c0.022,2.27-0.87,4.453-2.475,6.058S411.87,281.622,409.6,281.6L409.6,281.6z"/>
		<path d="M375.467,281.6c-1.116-0.013-2.219-0.245-3.246-0.683c-1.043-0.413-1.997-1.022-2.813-1.792
			c-1.559-1.636-2.442-3.799-2.475-6.058c0.012-1.116,0.243-2.219,0.679-3.246c0.784-2.139,2.469-3.824,4.608-4.608
			c1.557-0.679,3.287-0.857,4.95-0.508c0.535,0.091,1.053,0.263,1.538,0.508c0.544,0.187,1.062,0.447,1.538,0.771
			c0.425,0.341,0.85,0.683,1.279,1.025c0.771,0.815,1.379,1.77,1.792,2.813c0.438,1.027,0.67,2.129,0.683,3.245
			c0.022,2.27-0.87,4.453-2.475,6.058S377.737,281.622,375.467,281.6z"/>
		<path d="M341.333,281.6c-1.116-0.013-2.219-0.245-3.246-0.683c-1.043-0.413-1.997-1.022-2.813-1.792
			c-1.559-1.636-2.442-3.799-2.475-6.058c0.012-1.116,0.243-2.219,0.679-3.246c1.095-2.625,3.422-4.536,6.21-5.099
			c2.788-0.564,5.674,0.293,7.703,2.287c1.558,1.636,2.441,3.8,2.475,6.059c-0.02,0.571-0.077,1.14-0.171,1.704
			c-0.095,0.535-0.268,1.053-0.512,1.538c-0.187,0.544-0.447,1.062-0.771,1.538c-0.337,0.425-0.679,0.85-1.021,1.279
			C345.755,280.682,343.592,281.566,341.333,281.6z"/>
		<path d="M358.4,256c-2.259-0.033-4.422-0.917-6.059-2.475c-0.772-0.816-1.382-1.772-1.796-2.817
			c-0.436-1.026-0.667-2.127-0.679-3.242c0.031-2.259,0.915-4.423,2.475-6.059c0.814-0.773,1.769-1.383,2.813-1.796
			c2.079-0.85,4.409-0.85,6.487,0c1.045,0.414,2.001,1.024,2.817,1.796c1.558,1.636,2.441,3.8,2.475,6.059
			c0.029,1.119-0.205,2.229-0.683,3.242c-0.434,1.033-1.04,1.986-1.792,2.817C362.822,255.082,360.659,255.966,358.4,256L358.4,256z
			"/>
		<path d="M426.667,256c-2.259-0.033-4.422-0.917-6.059-2.475c-0.754-0.83-1.362-1.782-1.796-2.817
			c-0.436-1.026-0.667-2.127-0.679-3.242c0.018-0.573,0.075-1.143,0.171-1.708c0.091-0.535,0.263-1.053,0.508-1.538
			c0.188-0.543,0.448-1.058,0.771-1.533c0.341-0.429,0.683-0.854,1.025-1.279c0.814-0.773,1.769-1.383,2.813-1.796
			c3.189-1.242,6.807-0.544,9.305,1.796c1.558,1.636,2.441,3.8,2.475,6.059c-0.014,1.115-0.246,2.216-0.683,3.242
			c-0.414,1.044-1.022,1.999-1.792,2.817c-0.429,0.341-0.854,0.683-1.279,1.021c-0.476,0.324-0.993,0.583-1.538,0.771
			c-0.485,0.245-1.003,0.418-1.538,0.513C427.808,255.927,427.238,255.984,426.667,256z"/>
		<path d="M443.733,281.6c-1.116-0.013-2.219-0.245-3.246-0.683c-1.043-0.413-1.997-1.022-2.813-1.792
			c-1.559-1.636-2.442-3.799-2.475-6.058c0.012-1.116,0.243-2.219,0.679-3.246c1.251-3.247,4.372-5.39,7.852-5.39
			s6.601,2.142,7.852,5.39c0.438,1.027,0.67,2.13,0.683,3.246c0.022,2.27-0.87,4.453-2.475,6.058
			C448.187,280.73,446.003,281.622,443.733,281.6L443.733,281.6z"/>
		<path d="M34.125,273.067c-4.021-0.005-7.493-2.815-8.337-6.746c-0.608-2.846-14.592-70.083,15.279-103.484
			c13.8-14.5,33.928-21.151,53.65-17.729c3.038,0.298,5.686,2.196,6.944,4.978s0.933,6.024-0.851,8.501
			c-1.784,2.478-4.755,3.814-7.793,3.503c-14.274-2.812-29.006,1.736-39.212,12.104C29.7,201.112,42.346,262.138,42.479,262.75
			c0.533,2.52-0.099,5.146-1.72,7.148C39.138,271.9,36.701,273.064,34.125,273.067L34.125,273.067z"/>
		<path d="M477.875,273.067c-2.576-0.003-5.013-1.167-6.634-3.169c-1.621-2.002-2.253-4.628-1.72-7.148
			c0.133-0.613,12.779-61.637-11.325-88.554c-10.208-10.364-24.938-14.911-39.212-12.104c-3.037,0.31-6.009-1.026-7.793-3.503
			c-1.784-2.478-2.108-5.719-0.851-8.501c1.257-2.782,3.905-4.68,6.944-4.978c19.722-3.425,39.852,3.227,53.65,17.729
			c29.871,33.4,15.887,100.638,15.279,103.483C485.368,270.252,481.896,273.061,477.875,273.067L477.875,273.067z"/>
	</g>
</g>
<g>
</g>
<g>
</g>
<g>
</g>
<g>
</g>
<g>
</g>
<g>
</g>
<g>
</g>
<g>
</g>
<g>
</g>
<g>
</g>
<g>
</g>
<g>
</g>
<g>
</g>
<g>
</g>
<g>
</g>
</svg>
